<svg xmlns="http://www.w3.org/2000/svg" xmlns:xlink="http://www.w3.org/1999/xlink" width="940" height="440" viewBox="0 0 940 440">
  <defs>
    <linearGradient id="0796d4c1-2004-4238-b858-281f006a1c8f" x1="461.42" y1="245.53" x2="470.92" y2="281.78" gradientUnits="userSpaceOnUse">
      <stop offset="0" stop-color="#eba87c"/>
      <stop offset="1" stop-color="#ffc398"/>
    </linearGradient>
    <linearGradient id="789dfdeb-001e-47b9-b41d-87a223ba06b2" x1="1870.41" y1="347.81" x2="1881.77" y2="347.81" gradientTransform="matrix(-0.99, -0.11, -0.11, 0.99, 2380.73, 79.64)" gradientUnits="userSpaceOnUse">
      <stop offset="0" stop-color="#dfe9f8"/>
      <stop offset="1" stop-color="#e5f0ff"/>
    </linearGradient>
    <linearGradient id="b465fb78-a644-4741-a7bc-b7a4a57d7f02" x1="1981.21" y1="264.86" x2="1992.32" y2="264.86" gradientTransform="matrix(-1, 0, 0, 1, 2559.21, 0)" xlink:href="#789dfdeb-001e-47b9-b41d-87a223ba06b2"/>
    <linearGradient id="06cd32f0-c555-42fa-822f-c78449490a6f" x1="522.35" y1="265.97" x2="482.6" y2="264.72" xlink:href="#0796d4c1-2004-4238-b858-281f006a1c8f"/>
    <linearGradient id="63cecc7b-60b5-4f1f-8e21-3379ead0cf89" x1="515.71" y1="285.68" x2="579.71" y2="315.18" xlink:href="#0796d4c1-2004-4238-b858-281f006a1c8f"/>
    <linearGradient id="7989d0f5-97d7-4d4c-b78f-bfb1b0618a66" x1="702.03" y1="353.19" x2="670.53" y2="164.2" gradientUnits="userSpaceOnUse">
      <stop offset="0" stop-color="#5333ed"/>
      <stop offset="0.05" stop-color="#5f43ee"/>
      <stop offset="0.22" stop-color="#8675f1"/>
      <stop offset="0.4" stop-color="#a69ff4"/>
      <stop offset="0.56" stop-color="#bfbff5"/>
      <stop offset="0.72" stop-color="#d1d6f7"/>
      <stop offset="0.87" stop-color="#dbe4f8"/>
      <stop offset="1" stop-color="#dfe9f8"/>
    </linearGradient>
    <linearGradient id="eae267a2-13a4-4756-9bed-52d5f60f8dcb" x1="655.01" y1="361.02" x2="623.51" y2="172.03" xlink:href="#7989d0f5-97d7-4d4c-b78f-bfb1b0618a66"/>
    <linearGradient id="8a3250ba-fedd-4dd9-8928-a8acef129492" x1="606.69" y1="369.08" x2="575.19" y2="180.09" xlink:href="#7989d0f5-97d7-4d4c-b78f-bfb1b0618a66"/>
    <linearGradient id="b2f2578d-e974-4339-a144-1594e66cbdb7" x1="645.19" y1="362.66" x2="613.69" y2="173.67" xlink:href="#7989d0f5-97d7-4d4c-b78f-bfb1b0618a66"/>
    <linearGradient id="6fd2d73f-c4d5-426c-aaa1-fb9fe9d3e0b7" x1="625.93" y1="365.87" x2="594.43" y2="176.88" xlink:href="#7989d0f5-97d7-4d4c-b78f-bfb1b0618a66"/>
    <linearGradient id="3a9cdf8c-968a-439e-990f-cda2053ec044" x1="789.55" y1="300.24" x2="732.88" y2="129.57" xlink:href="#7989d0f5-97d7-4d4c-b78f-bfb1b0618a66"/>
    <linearGradient id="cb5dafb3-44cc-4c46-ab26-be162146c097" x1="719.24" y1="347.26" x2="648.24" y2="147.59" xlink:href="#7989d0f5-97d7-4d4c-b78f-bfb1b0618a66"/>
    <linearGradient id="3851fdb5-94c2-4a9a-849b-8523c41a09fa" x1="667.28" y1="169.95" x2="672.51" y2="169.95" gradientUnits="userSpaceOnUse">
      <stop offset="0" stop-color="#150773"/>
      <stop offset="1" stop-color="#5333ed"/>
    </linearGradient>
    <linearGradient id="4e4faae3-630b-4fc0-8264-ca72389acc02" x1="665.25" y1="173.51" x2="670.48" y2="173.51" xlink:href="#3851fdb5-94c2-4a9a-849b-8523c41a09fa"/>
    <linearGradient id="71d5a022-a2ce-4f0b-b0ad-c668412c4161" x1="664.67" y1="177.72" x2="669.9" y2="177.72" xlink:href="#3851fdb5-94c2-4a9a-849b-8523c41a09fa"/>
    <linearGradient id="53024090-c35b-4cb8-bacf-3ce6f2e28c21" x1="665.49" y1="182.03" x2="670.72" y2="182.03" xlink:href="#3851fdb5-94c2-4a9a-849b-8523c41a09fa"/>
    <linearGradient id="c938981f-564c-4cb6-8e4e-53cac38354fe" x1="666.4" y1="186.5" x2="672.51" y2="186.5" xlink:href="#3851fdb5-94c2-4a9a-849b-8523c41a09fa"/>
    <linearGradient id="1db76140-f209-4d48-b804-ed95cd5d536e" x1="668.59" y1="190.98" x2="674.7" y2="190.98" xlink:href="#3851fdb5-94c2-4a9a-849b-8523c41a09fa"/>
    <linearGradient id="864e383e-b2eb-4d29-a990-b1fede9db3bf" x1="671.64" y1="195.43" x2="677.75" y2="195.43" xlink:href="#3851fdb5-94c2-4a9a-849b-8523c41a09fa"/>
    <linearGradient id="0722e32b-a6c6-495b-84b5-ca782b5b43e2" x1="675.16" y1="199.44" x2="681.75" y2="199.44" xlink:href="#3851fdb5-94c2-4a9a-849b-8523c41a09fa"/>
    <linearGradient id="e85d9f8b-ce4d-4d91-8155-43f5dd57af2e" x1="679.02" y1="202.9" x2="685.61" y2="202.9" xlink:href="#3851fdb5-94c2-4a9a-849b-8523c41a09fa"/>
    <linearGradient id="0801a6c0-556b-43b6-a850-0e10e7e120d2" x1="683.75" y1="206.03" x2="690.35" y2="206.03" xlink:href="#3851fdb5-94c2-4a9a-849b-8523c41a09fa"/>
    <linearGradient id="de6c7d9c-2aef-4614-bc27-856cdfb7366f" x1="689.12" y1="208.39" x2="695.71" y2="208.39" xlink:href="#3851fdb5-94c2-4a9a-849b-8523c41a09fa"/>
    <linearGradient id="c22da426-e822-4285-8738-de7487aad536" x1="694.37" y1="210.26" x2="700.96" y2="210.26" xlink:href="#3851fdb5-94c2-4a9a-849b-8523c41a09fa"/>
    <linearGradient id="732baf91-7841-41e8-96d1-dea744ebb75c" x1="699.64" y1="211.69" x2="706.23" y2="211.69" xlink:href="#3851fdb5-94c2-4a9a-849b-8523c41a09fa"/>
    <linearGradient id="11b88434-4f11-48e6-ab63-d02ffff02f98" x1="706.36" y1="177.34" x2="711.79" y2="177.34" gradientTransform="translate(700.77 -553.53) rotate(75.31)" xlink:href="#3851fdb5-94c2-4a9a-849b-8523c41a09fa"/>
    <linearGradient id="906d0b5f-cd88-4cbc-a830-f1f37d7eb31f" x1="709.24" y1="180.9" x2="714.67" y2="180.9" gradientTransform="translate(706.36 -553.65) rotate(75.31)" xlink:href="#3851fdb5-94c2-4a9a-849b-8523c41a09fa"/>
    <linearGradient id="8ba53ae2-eb33-4974-8e76-c6486acb7f04" x1="711.55" y1="185" x2="716.98" y2="185" gradientTransform="translate(712.05 -552.84) rotate(75.31)" xlink:href="#3851fdb5-94c2-4a9a-849b-8523c41a09fa"/>
    <linearGradient id="2eec1526-fcdb-4fc2-b9b0-02dcd823adf2" x1="712.87" y1="189.79" x2="719.47" y2="189.79" xlink:href="#3851fdb5-94c2-4a9a-849b-8523c41a09fa"/>
    <linearGradient id="eba69074-716b-4bcc-adcb-2955c5d5fd0c" x1="713.72" y1="196.14" x2="720.31" y2="196.14" xlink:href="#3851fdb5-94c2-4a9a-849b-8523c41a09fa"/>
    <linearGradient id="af9fc9c2-0c2c-4246-9c4b-3258c28a1097" x1="713.69" y1="202.25" x2="720.28" y2="202.25" xlink:href="#3851fdb5-94c2-4a9a-849b-8523c41a09fa"/>
    <linearGradient id="1f8b034e-e94b-4f06-b962-018860499c90" x1="710.42" y1="207.6" x2="717.02" y2="207.6" xlink:href="#3851fdb5-94c2-4a9a-849b-8523c41a09fa"/>
    <linearGradient id="7c96537c-ba5f-4549-8386-f818d7dd13ce" x1="705.53" y1="210.89" x2="712.12" y2="210.89" xlink:href="#3851fdb5-94c2-4a9a-849b-8523c41a09fa"/>
  </defs>
  <title>about-us-we</title>
  <g style="isolation: isolate">
    <g id="439fbe8c-4108-4913-be99-715d7cdf32cf" data-name="figures and interactions">
      <polygon points="840.18 198.43 762.61 243.21 762.61 181.16 840.18 136.38 840.18 198.43" style="fill: none;stroke: #5333ed;stroke-miterlimit: 10;opacity: 0.5"/>
      <polygon points="454.7 211.76 377.13 256.54 377.13 194.49 454.7 149.71 454.7 211.76" style="fill: none;stroke: #5333ed;stroke-miterlimit: 10;opacity: 0.5"/>
      <line x1="851.39" y1="246.5" x2="129.22" y2="246.5" style="fill: none;stroke: #bbd0f2;stroke-miterlimit: 10"/>
      <polyline points="881.53 186.4 442.71 186.4 379.61 151.21 284.89 151.21" style="fill: none;stroke: #bbd0f2;stroke-miterlimit: 10"/>
      <polygon points="302.48 243.74 412.79 307.42 412.79 206.92 302.48 143.24 302.48 243.74" style="fill: none;stroke: #5333ed;stroke-miterlimit: 10;opacity: 0.2"/>
      <line x1="314.89" y1="171.7" x2="725.71" y2="171.7" style="fill: none;stroke: #5333ed;stroke-miterlimit: 10"/>
      <polyline points="867.22 330.31 786.07 330.31 715.8 288.23 264.48 288.23" style="fill: none;stroke: #5333ed;stroke-miterlimit: 10"/>
      <circle cx="311.89" cy="171.7" r="3" style="fill: none;stroke: #5333ed;stroke-miterlimit: 10"/>
      <circle cx="261.48" cy="288.23" r="3" style="fill: none;stroke: #5333ed;stroke-miterlimit: 10"/>
      <circle cx="126.56" cy="246.5" r="3" style="fill: none;stroke: #bbd0f2;stroke-miterlimit: 10"/>
      <line x1="902.89" y1="225.33" x2="171.58" y2="225.33" style="fill: none;stroke: #bbd0f2;stroke-miterlimit: 10"/>
      <circle cx="168.91" cy="225.33" r="3" style="fill: none;stroke: #bbd0f2;stroke-miterlimit: 10"/>
      <circle cx="259.35" cy="216.81" r="3" style="fill: none;stroke: #bbd0f2;stroke-miterlimit: 10"/>
      <circle cx="282.06" cy="151.2" r="3" style="fill: none;stroke: #bbd0f2;stroke-miterlimit: 10"/>
      <polyline points="262.35 216.81 325.68 216.81 340.22 225.33" style="fill: none;stroke: #bbd0f2;stroke-miterlimit: 10"/>
      <circle cx="870.23" cy="330.31" r="3" style="fill: none;stroke: #5333ed;stroke-miterlimit: 10"/>
      <circle cx="854.39" cy="246.5" r="3" style="fill: none;stroke: #bbd0f2;stroke-miterlimit: 10"/>
      <circle cx="905.89" cy="225.33" r="3" style="fill: none;stroke: #bbd0f2;stroke-miterlimit: 10"/>
      <circle cx="884.53" cy="186.39" r="3" style="fill: none;stroke: #bbd0f2;stroke-miterlimit: 10"/>
      <polyline points="562.01 174 601.5 150.84 703.17 150.84" style="fill: none;stroke: #bbd0f2;stroke-miterlimit: 10"/>
      <path d="M448,225.33a243,243,0,0,0-5.13,32.79c-1.67,18.69,8.2,35.78,26.33,43.36s40.38-17.89,17.92-23.25a15.41,15.41,0,0,1-11.63-17c1.15-9,2.58-20.08,3.09-23.71" style="fill: url(#0796d4c1-2004-4238-b858-281f006a1c8f)"/>
      <path d="M448.26,223.55l6.85,2.63a33.61,33.61,0,0,0,5.09,2.95A31.58,31.58,0,0,0,470.29,232l8.56,3.6L477.39,247c-4.38,3-13.71,2.54-20.46-1.54-5.63-3.41-8.81-6.25-10.92-10.36Z" style="fill: #ffc398;opacity: 0.5;mix-blend-mode: multiply"/>
      <g>
        <path d="M458,175.09a35.06,35.06,0,0,1,33.16-46.46,77.41,77.41,0,0,1,15.5,3.5c18,6.64,44.43,20.87,60.68,28.54,12.21,5.76,24.09,14.85,30.41,22.8l.07-.12.83,1.12c.18.24.36.48.54.73,11.77,16.07,22.93,78.42,12.71,116.12.92-5.11-3.73-12-11.52-16.54-8.91-5.15-18.55-5.14-21.52,0a6.42,6.42,0,0,0-.67,1.73,56,56,0,0,0-.31-10.69s.86,10.07-2.45,14a23.08,23.08,0,0,1-6.25,5.09,27.9,27.9,0,0,1-3.37,1.62c-12,4.81-29.7,3-47.36-7.24-22.54-13-29.81-52.67-30.07-54.18C485.62,218.5,458,175.09,458,175.09Z" style="fill: #2cd4d9"/>
        <path d="M611.94,301.31c-.1.38-.2.75-.31,1.13A6.64,6.64,0,0,0,611.94,301.31Z" style="fill: #2cd4d9"/>
        <path d="M578,288.23q.12-.85.2-1.73A7.32,7.32,0,0,0,578,288.23Z" style="fill: #2cd4d9"/>
        <path d="M600.42,284.77c-8.91-5.15-18.55-5.14-21.52,0a6.42,6.42,0,0,0-.67,1.73q-.07.88-.2,1.73c0,4.93,4.51,11.07,11.62,15.17,8.91,5.15,18.55,5.14,21.52,0a6.33,6.33,0,0,0,.45-1c.11-.37.21-.75.31-1.13C612.86,296.19,608.21,289.26,600.42,284.77Z" style="fill: #2cd4d9"/>
      </g>
      <path d="M468.27,218.1c-9.32-4.36-18.92-3.54-21.44,1.84a6.42,6.42,0,0,0-.52,1.78q0,.88,0,1.74c.44,4.91,5.44,10.64,12.88,14.12,9.32,4.36,18.92,3.54,21.44-1.84a6.33,6.33,0,0,0,.37-1c.07-.38.14-.76.21-1.15C481.65,228.43,476.41,221.92,468.27,218.1Z" style="fill: #2cd4d9"/>
      <polygon points="456.91 157.33 446.37 221.46 480.95 234.75 488.07 192.18 456.91 157.33" style="fill: #2cd4d9"/>
      <path d="M483.33,220.54l-8.85-22s-.84,1.65.15,5.57c1.28,5.06,4.21,20.16,2.37,35.06,0,0,3-1.5,3.87-4.14Z" style="mix-blend-mode: multiply;fill: url(#789dfdeb-001e-47b9-b41d-87a223ba06b2)"/>
      <path d="M577.92,275.82s1-27.24-7-42.12l-.67,4.59C573.1,252,574.47,275,566.89,296c0,0,7.38-3.12,9.27-7.23a18.19,18.19,0,0,0,1.76-7.13S578.1,276.86,577.92,275.82Z" style="mix-blend-mode: multiply;fill: url(#b465fb78-a644-4741-a7bc-b7a4a57d7f02)"/>
      <path d="M468.86,245.57s16.87,8.41,17.89,9c.71.44,13.06,7.78,20.51,12.2a25.8,25.8,0,0,1,8.93,8.88l6.2,10.29-16-1.71s-15.62-1.74-28.47-10.94L468.44,270s-3.28,1.48-8.51-1.07l7.51-2.61L480,269.09l-13.31-6.77s-8.37-.16-11.44-6.55l11.52,1.9,11.55,4.5L467.52,256s-7.43,1.72-11.85-3.63l13.06-.56,12,5L466.48,249s-6.47-.39-8.13-5.07Z" style="fill: url(#06cd32f0-c555-42fa-822f-c78449490a6f)"/>
      <path d="M583,296.49s-14.63-8-15.8-8.26c-.82-.17-15.27-2.67-23.72-4.58a25.8,25.8,0,0,0-12.59.31l-11.57,3.22,12.81,9.76s12.55,9.47,28.2,11.62l9.15,4.09s1.36,3.33,6.92,5.07l-3.66-7.06-11-6.6,12.14,5.68s6.19,5.63,12.82,3.1l-9.67-6.54-9.3-6.13,9.94,5s4.21,6.35,11.11,5.51l-9.1-9.38-9.23-5.5,11.92,4.83s5,4.16,9.39,1.9Z" style="fill: #ffc398"/>
      <circle cx="543.87" cy="82.31" r="12.55" style="fill: #5333ed"/>
      <circle cx="527" cy="84.19" r="21.2" style="fill: #5333ed"/>
      <circle cx="549.46" cy="101.88" r="12.55" style="fill: #5333ed"/>
      <circle cx="509.21" cy="93.74" r="12.55" style="fill: #5333ed"/>
      <path d="M508.7,303S533,332.42,563,333.8s39.77-10,43.57-30.39l-27-19s-1.33,14.27-8.92,18c-8.39,4.17-24.5,8.78-54.22-10.2C516.34,292.23,506.89,292.58,508.7,303Z" style="fill: url(#63cecc7b-60b5-4f1f-8e21-3379ead0cf89)"/>
      <path d="M596.18,299.3C590.36,295.94,584,287.11,580,286c-1.06,5.07-3.21,11.09-7.72,15.33.78,4.64,7,11.33,13.45,15,3.26,1.88,10.88,3.25,15.59,2.48,2.84-5.19,3.32-7.77,5.19-15.41C604.07,302.46,600.34,301.7,596.18,299.3Z" style="fill: #ffc398;opacity: 0.5;mix-blend-mode: multiply"/>
      <path id="68e9ac26-54d2-47df-9ed2-2edef8d4fc7e" data-name="&lt;Path&gt;" d="M547.75,157.12l.16-26.86-34.33-6.06,0,46.22C513.7,181.54,542.68,171.72,547.75,157.12Z" style="fill: #eba87c"/>
      <path d="M513.59,134.5c1.87.39,4.4-1.25,6-1.2l3.66.43A67.72,67.72,0,0,1,534,137.59c4.33,2.17,11.62.46,13-4.67.34-1.27.6-2.57.85-3.88l-.1,16.88c-.25.26-.48.52-.74.78-9.26,9.39-21.18,14.63-28.06,15.62a6.28,6.28,0,0,1-5.35-1.32Z" style="fill: #ffc398;opacity: 0.5;mix-blend-mode: multiply"/>
      <path d="M543.33,96.74l-6.15-9.91L501,88.12s-4.79,33.1,4.25,53h0c.11.25.24.49.37.73,4.08,7.07,17.31,7.07,29.54,0a29.47,29.47,0,0,0,14.19-18.95c.25-1.19-1.35-.88-1.43-2-.1-1.4-4.07-10.26-4.07-10.26C543.45,109.93,543.92,97.32,543.33,96.74Z" style="fill: #ffc398"/>
      <path d="M519.21,111a.89.89,0,0,0,1.19.53,24.63,24.63,0,0,1,9.79-1.93,25.64,25.64,0,0,1,5.61,1,.63.63,0,0,0,.76-.83h0a3,3,0,0,0-2.05-1.82,26,26,0,0,0-7.71-.87c-4.93.25-7.13,1.67-7.13,1.67l-.29,1.14-.22-1-.63.06Z" style="fill: #120667"/>
      <path d="M511.63,110.51a.63.63,0,0,1-1,.33,17.66,17.66,0,0,0-5.33-3.12,25.84,25.84,0,0,0-3.89-1,1,1,0,0,1-.75-1.29h0a1,1,0,0,1,.75-.65,11.75,11.75,0,0,1,4.91.51,11.08,11.08,0,0,1,4.76,2.88l.08,1.35.36-1.2.64.14Z" style="fill: #120667"/>
      <g>
        <path d="M533.43,113.79s-4.58,4.76-13.26,2.72C520.17,116.52,526,110.47,533.43,113.79Z" style="fill: #fff"/>
        <path d="M520.17,116s5.67-4.74,12.79-2.33" style="fill: none;stroke: #0c022f;stroke-linecap: round;stroke-linejoin: round;stroke-width: 0.91172468662262px"/>
      </g>
      <g>
        <path d="M500.85,109.32s2.12,5,9.36,6C510.22,115.29,507.48,108.93,500.85,109.32Z" style="fill: #fff"/>
        <path d="M510.36,114.91s-3-5.3-9.12-5.54" style="fill: none;stroke: #0c022f;stroke-linecap: round;stroke-linejoin: round;stroke-width: 0.91172468662262px"/>
      </g>
      <ellipse cx="548.42" cy="118.62" rx="1.4" ry="2.42" style="fill: #ffc398"/>
      <path d="M513.67,130.56a67.73,67.73,0,0,1,10.76,3.85c4.33,2.17,11.62.46,13-4.67.94-3.52,1.27-7.26,2.58-11a15.73,15.73,0,0,0-.51-11.74h0l9.88,5.14s-7.76,13.52-1.26,14.88c0,0-1.62,12.36-10.59,20.11s-21.26,11-28.14,12c-10.36,1.48-8.31-13.66-9.32-21-.47-3.45-2.86-13.89-.18-23.75,0,0,.6,12.52,2.56,15.81,1.68,2.82,5.44-.1,7.58,0Z" style="fill: #5333ed"/>
      <path d="M509.42,129.88c-.38,1.69,1.69,2.23,4.26,1.93l.85-14a.35.35,0,0,0-.67-.15C512.46,121.34,509.7,128.63,509.42,129.88Z" style="fill: #ffc398"/>
      <path d="M509.42,129.88c-.38,1.69,1.69,2.23,4.26,1.93l.85-14a.35.35,0,0,0-.67-.15C512.46,121.34,509.7,128.63,509.42,129.88Z" style="fill: #ffc398;opacity: 0.5;mix-blend-mode: multiply"/>
      <circle cx="528.76" cy="114.57" r="1.76" style="fill: #0c022f"/>
      <circle cx="507.66" cy="113.36" r="1.55" style="fill: #0c022f"/>
      <path d="M554.77,114.71a13.23,13.23,0,0,1-4.37,11.14c-3,2.38-5.86,1.25-6.43-2.52a13.23,13.23,0,0,1,4.37-11.14C551.32,109.81,554.2,110.94,554.77,114.71Z" style="fill: #ffc398"/>
      <path d="M547.89,116.39s2.08-1.89,3.55-3.2c.79-.7,2,1.31,1.22,4-.28.95-1,4.49-3.12,6.24,0,0-.56.5-.49,0,.15-1.1-.65-1-.5-1.67a2.52,2.52,0,0,1,.59-1.09s.61-.42.68-2.07-1-2.42-1.4-2.42A.91.91,0,0,0,547.89,116.39Z" style="fill: #ffc398;opacity: 0.5;mix-blend-mode: multiply"/>
      <circle cx="512.29" cy="84.19" r="12.55" style="fill: #5333ed"/>
      <circle cx="529.72" cy="82.31" r="8.15" style="fill: #5333ed"/>
      <circle cx="515.81" cy="151.9" r="8.15" style="fill: #5333ed"/>
      <circle cx="506.34" cy="142.83" r="8.15" style="fill: #5333ed"/>
      <circle cx="526.56" cy="145.22" r="11.25" style="fill: #5333ed"/>
      <circle cx="554.86" cy="86.83" r="8.15" style="fill: #5333ed"/>
      <circle cx="505.53" cy="75.55" r="8.15" style="fill: #5333ed"/>
      <circle cx="541.54" cy="90.27" r="6.08" style="fill: #ffc398"/>
      <circle cx="544.89" cy="102.78" r="6.86" style="fill: #5333ed"/>
      <path d="M506.92,134.73a3.28,3.28,0,0,1,.49,0h0a8.07,8.07,0,0,0,3,.06,3.37,3.37,0,0,0,1.2-.73.45.45,0,0,1,.7.08,4.49,4.49,0,0,0,1.37,1.28c2.77,1.72,4.4,1.69,4.4,1.69a2.82,2.82,0,0,1,2.69,1.28,3.36,3.36,0,0,1-2.69,5.32,3.26,3.26,0,0,1-2.58-1.19,1.7,1.7,0,0,0-2.09-.41,3.36,3.36,0,0,1-2.29.37,3.22,3.22,0,0,1-1.85-1.48.55.55,0,0,0-.72-.16,3.23,3.23,0,0,1-2.43.34,3.3,3.3,0,0,1,.8-6.5Z" style="fill: #ffc398"/>
      <path d="M507.61,136.16c-.84.2-.76,1.11,0,1.51a15.44,15.44,0,0,0,5.32,1.26,19.84,19.84,0,0,0,6.59-.17,28,28,0,0,1-5.28-1.29,9.69,9.69,0,0,0-4.11-.75A4.08,4.08,0,0,0,507.61,136.16Z" style="fill: #ffc398;opacity: 0.5;mix-blend-mode: multiply"/>
      <path d="M469.22,301.49c18.13,7.59,54.5,1,71.11.38L536.91,283s-27.3.57-49.76-4.79C479.51,276.41,451.09,293.9,469.22,301.49Z" style="fill: #ffc398"/>
      <path d="M600.42,284.77c-8.91-5.15-18.55-5.14-21.52,0a6.42,6.42,0,0,0-.67,1.73q-.07.88-.2,1.73c0,4.93,4.51,11.07,11.62,15.17,8.91,5.15,18.55,5.14,21.52,0a6.33,6.33,0,0,0,.45-1c.11-.37.21-.75.31-1.13C612.86,296.19,608.21,289.26,600.42,284.77Z" style="fill: #2cd4d9"/>
      <path d="M604.56,333.51s8.38,19.89,17.83,25.13c15.33,8.5,29.5,1.63,39-7,6.71-6.1,10.91-41.1-14-23.37-14,9.91-12.29-15.29-12.29-15.29Z" style="fill: #724c3b"/>
      <g style="opacity: 0.53;mix-blend-mode: multiply">
        <path d="M635.06,313l-30.5,20.54a101.93,101.93,0,0,0,7.51,14.08c4.52.32,10.15-1.06,15.54-4.18,6.24-3.6,10.63-8.63,12.15-13.26C634.1,327.51,635.06,313,635.06,313Z" style="fill: #724c3b"/>
      </g>
      <path d="M780.55,234.75,790.46,266s8.28,22.65-9,35.37c-16.89,12.44-61.9,37.21-61.9,37.21l-10.75-11.5s49.73-37,54.18-47.27c2.88-6.62-10.26-34.07-10.26-34.07Z" style="fill: #724c3b"/>
      <path d="M780.14,234.31l5.93,17.84a31.84,31.84,0,0,1-25.13,13.39c-1.68-6.7-7-15.58-9.29-20.82,2.67-.95,8.3-1.41,12.49-3.83C769.94,237.54,775.87,236,780.14,234.31Z" style="fill: #724c3b;opacity: 0.53;mix-blend-mode: multiply"/>
      <path id="7e89655e-1e78-4a1a-98b5-08f9ac5a9211" data-name="&lt;Path&gt;" d="M649.24,329.22c7.29,12.62,30.84,12.66,52.61.09s33.51-33,26.23-45.61L647.56,325A15.77,15.77,0,0,0,649.24,329.22Z" style="fill: #5333ed"/>
      <g>
        <path d="M647.6,325.1l-.26.12a25.32,25.32,0,0,1-6.85-5.58c-3.63-4.27-2.69-15.31-2.69-15.31a61.43,61.43,0,0,0-.35,11.72,7,7,0,0,0-.73-1.9c-3.26-5.65-13.83-5.65-23.6,0-8.54,4.93-13.65,12.53-12.63,18.14-11.21-41.35,1-109.73,13.94-127.36.19-.27.39-.53.59-.8l.91-1.23.08.13c6.94-8.71,20-18.68,33.35-25,17.83-8.41,46.8-24,66.56-31.3a84.91,84.91,0,0,1,17-3.84,38.46,38.46,0,0,1,36.37,51S739,241.45,736,259.64c-.28,1.66-.85,5.19-.46,7.24,6.08,15.19-7.8,37.91-32.52,52.18C683.62,330.24,664.17,332.27,651,327,650.27,325.13,649.14,324.31,647.6,325.1Z" style="fill: url(#7989d0f5-97d7-4d4c-b78f-bfb1b0618a66)"/>
        <path d="M647.6,325.1c1.54-.79,2.67,0,3.44,1.9a30.61,30.61,0,0,1-3.7-1.78Z" style="fill: url(#eae267a2-13a4-4756-9bed-52d5f60f8dcb)"/>
        <path d="M600.49,332.28c.11.41.22.83.34,1.23A7.29,7.29,0,0,1,600.49,332.28Z" style="fill: url(#8a3250ba-fedd-4dd9-8928-a8acef129492)"/>
        <path d="M637.67,317.94q-.13-.94-.22-1.9A8,8,0,0,1,637.67,317.94Z" style="fill: url(#b2f2578d-e974-4339-a144-1594e66cbdb7)"/>
        <path d="M613.12,314.14c9.78-5.64,20.34-5.64,23.6,0a7,7,0,0,1,.73,1.9q.08,1,.22,1.9c0,5.41-4.95,12.14-12.75,16.64-9.78,5.64-20.34,5.64-23.6,0a7,7,0,0,1-.5-1.07c-.12-.41-.22-.82-.34-1.23C599.48,326.67,604.59,319.07,613.12,314.14Z" style="fill: url(#6fd2d73f-c4d5-426c-aaa1-fb9fe9d3e0b7)"/>
      </g>
      <path d="M786,232.2a7,7,0,0,0-.73-1.9l-15.49-60L739,211.3l10,37.12v0c.11.41.22.83.34,1.23a7,7,0,0,0,.5,1.07c3.26,5.65,13.83,5.65,23.6,0,7.8-4.5,12.72-11.24,12.75-16.64Q786.08,233.16,786,232.2Z" style="fill: url(#3a9cdf8c-968a-439e-990f-cda2053ec044)"/>
      <path d="M745.52,235.41l11.9-21.86s1.22,2.12-.84,6.05c-2.19,4.19-7.72,16.94-8.06,26.9Z" style="fill: #5333ed;opacity: 0.5;mix-blend-mode: multiply"/>
      <path d="M713.42,323.62l-25.17,15.79-15.16,13.7s-3.58,5.72-5.29,8.26a.41.41,0,0,0,.43.62c1.44-.36,4.33-1.59,7.49-5.84l14.65-10.65-14.83,13.21-5.24,6.1a.36.36,0,0,0,.37.58c1.57-.49,4.8-1.88,9.56-5.87A102.24,102.24,0,0,1,694,350.33s-14.43,11.34-19.47,14.84a.48.48,0,0,0,.17.86,9.15,9.15,0,0,0,4.77-.63c3.94-1.43,20.2-12.16,20.2-12.16l-6.88,6.94-3.17,5.13a.55.55,0,0,0,.63.82,9.82,9.82,0,0,0,5.6-4.25s9.18-8,14.45-10.19,15.41-16.85,15.41-16.85Z" style="fill: #724c3b"/>
      <path d="M613.12,314.14c9.78-5.64,20.34-5.64,23.6,0a7,7,0,0,1,.73,1.9q.08,1,.22,1.9c0,5.41-4.95,12.14-12.75,16.64-9.78,5.64-20.34,5.64-23.6,0a7,7,0,0,1-.5-1.07c-.12-.41-.22-.82-.34-1.23C599.48,326.67,604.59,319.07,613.12,314.14Z" style="fill: #2cd4d9"/>
      <path d="M769.3,193.84a38.46,38.46,0,0,0-36.37-51,84.91,84.91,0,0,0-17,3.84C696.17,154,667.2,169.61,649.37,178,636,184.34,623,194.31,616,203l-.08-.13-.91,1.23c-.2.27-.4.53-.59.8-12.91,17.63-25.15,86-13.94,127.36.11.41.22.83.34,1.23a7,7,0,0,0,.5,1.07c3.26,5.65,13.83,5.65,23.6,0,7.8-4.5,12.72-11.24,12.75-16.64a8,8,0,0,0-.22-1.9,61.43,61.43,0,0,1,.35-11.72s-.95,11,2.69,15.31a25.32,25.32,0,0,0,6.85,5.58A30.61,30.61,0,0,0,651,327c13.13,5.28,32.58,3.24,51.95-7.94,24.72-14.27,38.6-37,32.52-52.18-.39-2.05.18-5.59.46-7.24C739,241.45,769.3,193.84,769.3,193.84Z" style="fill: url(#cb5dafb3-44cc-4c46-ab26-be162146c097)"/>
      <circle cx="669.9" cy="169.95" r="2.61" style="fill: url(#3851fdb5-94c2-4a9a-849b-8523c41a09fa)"/>
      <circle cx="667.87" cy="173.51" r="2.61" style="fill: url(#4e4faae3-630b-4fc0-8264-ca72389acc02)"/>
      <circle cx="667.28" cy="177.72" r="2.61" style="fill: url(#71d5a022-a2ce-4f0b-b0ad-c668412c4161)"/>
      <circle cx="668.11" cy="182.03" r="2.61" style="fill: url(#53024090-c35b-4cb8-bacf-3ce6f2e28c21)"/>
      <circle cx="669.46" cy="186.5" r="3.05" style="fill: url(#c938981f-564c-4cb6-8e4e-53cac38354fe)"/>
      <circle cx="671.64" cy="190.98" r="3.05" style="fill: url(#1db76140-f209-4d48-b804-ed95cd5d536e)"/>
      <circle cx="674.7" cy="195.43" r="3.05" style="fill: url(#864e383e-b2eb-4d29-a990-b1fede9db3bf)"/>
      <circle cx="678.45" cy="199.44" r="3.3" style="fill: url(#0722e32b-a6c6-495b-84b5-ca782b5b43e2)"/>
      <circle cx="682.32" cy="202.9" r="3.3" style="fill: url(#e85d9f8b-ce4d-4d91-8155-43f5dd57af2e)"/>
      <circle cx="687.05" cy="206.03" r="3.3" style="fill: url(#0801a6c0-556b-43b6-a850-0e10e7e120d2)"/>
      <circle cx="692.42" cy="208.39" r="3.3" style="fill: url(#de6c7d9c-2aef-4614-bc27-856cdfb7366f)"/>
      <circle cx="697.67" cy="210.26" r="3.3" style="fill: url(#c22da426-e822-4285-8738-de7487aad536)"/>
      <circle cx="702.93" cy="211.69" r="3.3" style="fill: url(#732baf91-7841-41e8-96d1-dea744ebb75c)"/>
      <circle cx="709.07" cy="177.34" r="2.71" transform="translate(357.69 818.25) rotate(-75.31)" style="fill: url(#11b88434-4f11-48e6-ab63-d02ffff02f98)"/>
      <g>
        <path id="0401f2cd-de30-4123-8208-24cb790e69f5" data-name="&lt;Path&gt;" d="M670.9,178.66l-.18-40.47,37.65-.15,0,55.22C708.24,205.43,676.45,194.66,670.9,178.66Z" style="fill: #5b3427"/>
        <path id="016e43c1-c6d3-4b25-b04a-1b7ee9fbc48f" data-name="&lt;Path&gt;" d="M670.76,151.3c4.52,9,15.88,15.82,24.16,16.76a36.68,36.68,0,0,0,13.45-.57l0-23.6-37.65-2.79Z" style="fill: #724c3b;opacity: 0.53;mix-blend-mode: multiply"/>
        <path d="M670.15,127.18l-2.28-28.74h54.3s5.25,36.31-4.66,58.11h0c-.12.27-.26.54-.41.8-4.48,7.75-19,7.75-32.41,0a32.33,32.33,0,0,1-15.56-20.78c-.28-1.3,1.48-1,1.57-2.18.11-1.53-2.21-5.11-2.21-5.11A9.64,9.64,0,0,1,670.15,127.18Z" style="fill: #724c3b"/>
        <path d="M663.2,127.61A14.51,14.51,0,0,0,668,139.83c3.27,2.61,6.43,1.37,7.05-2.77a14.51,14.51,0,0,0-4.79-12.22C667,122.24,663.83,123.48,663.2,127.61Z" style="fill: #724c3b"/>
        <path d="M670.74,129.45s-2.28-2.07-3.9-3.51c-.87-.77-2.2,1.43-1.33,4.41.3,1,1.13,4.92,3.42,6.85,0,0,.62.54.54,0-.17-1.2.71-1.12.55-1.83a2.76,2.76,0,0,0-.64-1.2s-.67-.46-.75-2.27,1.08-2.65,1.53-2.65A1,1,0,0,1,670.74,129.45Z" style="fill: #724c3b;mix-blend-mode: multiply"/>
        <path d="M711.83,142c.42,1.85-1.85,2.45-4.67,2.12l-.93-15.33a.38.38,0,0,1,.73-.16C708.5,132.6,711.52,140.59,711.83,142Z" style="fill: #724c3b;mix-blend-mode: multiply"/>
        <path d="M702.25,123.57a.9.9,0,0,1-1.19.54,24.67,24.67,0,0,0-9.81-1.93,22.09,22.09,0,0,0-6.12,1.31l-.82-.56s5.4-3.44,10.33-3.19,7.3,1.9,7.3,1.9l.14.81.09-.72.63.25Z" style="fill: #0c022f"/>
        <path d="M710.49,123a.66.66,0,0,0,1.1.35,13.74,13.74,0,0,1,5.44-3.2,21.75,21.75,0,0,1,5.22-.75l.53-.53a10.07,10.07,0,0,0-7.26-.71c-1.2.33-3.41,1-4.47,2.44l0,1.33-.28-1.17-.66.28Z" style="fill: #0c022f"/>
        <path d="M686.14,127.56s5,5.22,14.54,3C700.68,130.55,694.23,123.91,686.14,127.56Z" style="fill: #fff"/>
        <circle cx="691.87" cy="128.78" r="1.8" style="fill: #0c022f"/>
        <path d="M700.68,130s-6.22-5.2-14-2.56" style="fill: none;stroke: #0c022f;stroke-linecap: round;stroke-linejoin: round;stroke-width: 1.34470964266571px"/>
        <path d="M722.34,122.94s-2.32,5.47-10.27,6.56C712.06,129.49,715.06,122.51,722.34,122.94Z" style="fill: #fff"/>
        <circle cx="714.4" cy="127.66" r="1.4" transform="translate(1.56 263.77) rotate(-20.94)" style="fill: #0c022f"/>
        <path d="M711.9,129.07s3.25-5.81,10-6.08" style="fill: none;stroke: #0c022f;stroke-linecap: round;stroke-linejoin: round;stroke-width: 1.10384676872233px"/>
        <path d="M693,130.89a13.36,13.36,0,0,1-6.65-3.23" style="fill: none;stroke: #0c022f;stroke-linecap: round;stroke-linejoin: round;stroke-width: 0.5px"/>
        <path d="M722.07,123.33a11.62,11.62,0,0,1-4.07,4.09" style="fill: none;stroke: #0c022f;stroke-linecap: round;stroke-linejoin: round;stroke-width: 0.5px"/>
        <path d="M667.18,123.5s-4.55-11.35-4.08-21.52,4.3-13.67,9.13-15.33c0,0,2.91-4.07,11.75-6.49,6.1-1.67,23.66-5.51,40.16,13.87,1.59,1.86,3.35,5.8,4.85,8.5,0,0-3.12-.3-3.75-1.18a4.89,4.89,0,0,1,2.09,1.88,6.44,6.44,0,0,0-1.91-.41,2.64,2.64,0,0,1,.25,2,8.4,8.4,0,0,1-1.78-1.44l-.85,2.47-.4-3.32s-6.52,6.7-12.52,8.78c0,0,3.92-2.75,5.17-4.5,0,0-8,4.75-12,6.42,0,0,8.21-5.67,10.19-7.83,0,0-11.85,7.67-24.35,7.75a41.63,41.63,0,0,0,10.42-3.92s-12,3.68-18.55,2.74c0,0-1.59,4.69-4.18,7.11a17.18,17.18,0,0,0,1.75-7.08s-3.3,7-3.4,8.67a11.51,11.51,0,0,1,0-4.5s-2.72,8.45-3.66,9.89Z" style="fill: #0c022f"/>
        <path d="M711.34,148.77c.81.63.69,2.56-.19,3a10.64,10.64,0,0,1-6.09.54,11.48,11.48,0,0,1-6.42-3s4.34.41,6-.28c1.08-.45,3.14-.83,4.13.33C708.77,149.27,710.25,147.92,711.34,148.77Z" style="fill: #5333ed;mix-blend-mode: multiply"/>
      </g>
      <path d="M622.39,358.64c15.33,8.5,29.5,1.63,39-7,6.71-6.1,28.26-35.68,40.36-63.68l-12.13-12.32s-17.33,34.9-42.28,52.63c-5.66,4-5.75,11.92-11.12,16.67C628.35,351.9,616.77,355.52,622.39,358.64Z" style="fill: #724c3b"/>
      <path d="M699.37,250.73a21.62,21.62,0,0,0,6-2.37c.34-.1.63.41.5.74a12.91,12.91,0,0,1-4.35,5s-2.67,1-1.9,5.46c.57,3.29-9.8,16.66-9.8,16.66l-.5-4.52c-.54-4.82,3.41-14,6.43-17.76C697.06,252.31,698.41,250.93,699.37,250.73Z" style="fill: #724c3b"/>
      <path d="M688.74,277.21l15.16-25.55,13-14.11a83.9,83.9,0,0,0,9.06-4.79.41.41,0,0,1,.63.42c-.32,1.45-2.6,3.92-6.78,7.19L710,253.63l12.84-15.16,6-5.39a.36.36,0,0,1,.59.36c-.45,1.58-1.76,4.85-5.63,9.7a102.24,102.24,0,0,0-8.85,14s10-16.12,13.38-21.24a.48.48,0,0,1,.86.15,9.15,9.15,0,0,1-.51,4.78c-1.33,4-10.68,21.9-10.68,21.9l5.61-7.75,2.45-5.35c.48-.79,2.39.33.07,7.21,0,0-7.34,11.24-9.4,16.56s-16.46,15.82-16.46,15.82Z" style="fill: #724c3b"/>
      <path d="M637.8,304.32s-1.09-29.87,7.72-46.2l.73,5c-3.17,15.05-7.23,39,1.09,62.06,0,0-6.06-4-7.61-6.67,0,0-1.5-2.57-1.93-7.82C637.81,310.73,637.6,305.47,637.8,304.32Z" style="fill: #5333ed;opacity: 0.5;mix-blend-mode: multiply"/>
      <circle cx="711.95" cy="180.9" r="2.71" transform="translate(356.39 823.69) rotate(-75.31)" style="fill: url(#906d0b5f-cd88-4cbc-a830-f1f37d7eb31f)"/>
      <circle cx="714.27" cy="185" r="2.71" transform="translate(354.16 828.99) rotate(-75.31)" style="fill: url(#8ba53ae2-eb33-4974-8e76-c6486acb7f04)"/>
      <circle cx="716.17" cy="189.79" r="3.3" style="fill: url(#2eec1526-fcdb-4fc2-b9b0-02dcd823adf2)"/>
      <circle cx="717.02" cy="196.14" r="3.3" style="fill: url(#eba69074-716b-4bcc-adcb-2955c5d5fd0c)"/>
      <circle cx="716.98" cy="202.25" r="3.3" style="fill: url(#af9fc9c2-0c2c-4246-9c4b-3258c28a1097)"/>
      <circle cx="713.72" cy="207.6" r="3.3" style="fill: url(#1f8b034e-e94b-4f06-b962-018860499c90)"/>
      <circle cx="708.83" cy="210.89" r="3.3" style="fill: url(#7c96537c-ba5f-4549-8386-f818d7dd13ce)"/>
      <polygon points="532.21 302.44 527.12 302.92 527.12 290.64 532.21 290.64 532.21 302.44" style="fill: #5333ed"/>
      <g>
        <path d="M536.79,287.27c0,2.27-3.19,4.11-7.12,4.11s-7.12-1.84-7.12-4.11v-1.53a13.63,13.63,0,0,1,7.12-2.58c3.69,0,7.12,2.58,7.12,2.58Z" style="fill: #120667"/>
        <ellipse cx="529.66" cy="285.74" rx="7.12" ry="4.11" style="fill: #dfe9f8"/>
        <ellipse cx="529.66" cy="285.74" rx="1.05" ry="0.6" style="fill: #120667"/>
        <rect x="530.19" y="285.58" width="5.28" height="0.33" style="fill: #120667"/>
        <rect x="529.27" y="286.81" width="2.97" height="0.33" transform="translate(404.72 -303.08) rotate(49.54)" style="fill: #120667"/>
      </g>
    </g>
  </g>
</svg>
