<svg xmlns="http://www.w3.org/2000/svg" width="128" height="128" viewBox="0 0 128 128">
  <title>advanced-lxd</title>
  <g id="3b73a9fa-fc35-4869-ab20-a4302c4b9ce4" data-name="figures and interactions">
    <path d="M23.5,52.32,19.45,50v4.65Z" style="fill: #cdcdcd"/>
    <g>
      <polygon points="84.59 69.06 64.01 57.26 43.38 69.08 63.96 80.88 84.59 69.06" style="fill: #888"/>
      <g>
        <path d="M87.46,75.09,108.63,63a.64.64,0,0,0,0-.08c0-1.77,0-3.54,0-5.31L87.46,69.72Z" style="fill: #343434"/>
        <path d="M87.46,61.84v5.57l21.22-12.16q0-2.71,0-5.42Z" style="fill: #343434"/>
      </g>
      <polygon points="64.83 55.42 85.46 67.25 85.46 61.9 64.83 50.07 64.83 55.42" style="fill: #343434"/>
      <path d="M108.51,65.32l-43.68,25v14l.16-.07q21.37-12.41,42.72-24.86a2.15,2.15,0,0,0,.78-1.6c.06-4.09,0-8.18,0-12.27C108.51,65.47,108.51,65.4,108.51,65.32Z" style="fill: #dc4915"/>
      <path d="M62.83,89.72,19.35,64.8v1c0,3.9,0,7.8,0,11.69a2.27,2.27,0,0,0,1.31,2.33q18.27,10.48,36.5,21.05l5.69,3.26Z" style="fill: #dc4915"/>
      <path d="M19.33,62.13a2.73,2.73,0,0,0,0,.36L62.83,87.42V82.54L19.36,57.62C19.37,59.21,19.39,60.67,19.33,62.13Z" style="fill: #888"/>
      <polygon points="85.46 70.87 64.83 82.69 64.83 88.06 85.46 76.23 85.46 70.87" style="fill: #888"/>
      <polygon points="62 56.1 56.94 53.2 42.39 61.55 42.46 61.55 42.46 67.31 62 56.1" style="fill: #cdcdcd"/>
      <polygon points="58.95 52.05 62.83 54.27 62.83 49.83 58.95 52.05" style="fill: #cdcdcd"/>
      <polygon points="42.46 42.6 56.94 50.9 61.61 48.23 42.46 37.25 42.46 42.6" style="fill: #cdcdcd"/>
      <polygon points="54.93 52.05 41.17 44.16 27.52 51.99 41.29 59.88 54.93 52.05" style="fill: #cdcdcd"/>
      <polygon points="20.54 55.99 40.46 67.41 40.46 61.7 25.52 53.14 20.54 55.99" style="fill: #cdcdcd"/>
      <path d="M25,51l16-9.2c0-1.49,0-3,0-4.63L21,48.73C22.4,49.56,23.7,50.31,25,51Z" style="fill: #cdcdcd"/>
      <polygon points="107.13 48.45 63.59 23.65 42.96 35.48 86.5 60.28 107.13 48.45" style="fill: #343434"/>
    </g>
  </g>
</svg>
