<svg xmlns="http://www.w3.org/2000/svg" width="128" height="128" viewBox="0 0 128 128">
  <title>advanced-wordpress</title>
  <g id="ecffa189-9603-43ac-a2a8-121cdef66afa" data-name="figures and interactions">
    <g id="e554ac14-0c03-4b28-9908-b50880258097" data-name="rI9WbO.html">
      <g>
        <path d="M23,64a41,41,0,1,1,40.26,41A41,41,0,0,1,23,64ZM64,24.83C42.63,24.67,25.28,42.2,24.79,63A39.21,39.21,0,1,0,64,24.83Z" style="fill: #444"/>
        <path d="M87.25,37.69a17,17,0,0,0-3.31,1.44,6.37,6.37,0,0,0-2.06,7.81,32,32,0,0,0,2.53,4.87,20.84,20.84,0,0,1,3.21,8.45,18.08,18.08,0,0,1-.75,7.23q-2.57,8.64-5.16,17.28c0,.07-.09.13-.2.26L68.92,47.58c1.38-.14,2.69-.24,4-.42a1.39,1.39,0,0,0,1.3-1.67,1.49,1.49,0,0,0-1.71-1.29c-3.65.15-7.29.37-10.94.4-2.43,0-4.87-.23-7.31-.39a1.58,1.58,0,0,0-1.85,1.35,1.42,1.42,0,0,0,1.37,1.6c1,.14,2.07.26,3.11.31a.72.72,0,0,1,.76.55c1.71,4.71,3.43,9.41,5.13,14.12a1.26,1.26,0,0,1,0,.77c-2.47,7.46-5,14.92-7.52,22.6L42.49,47.58c1.36-.14,2.66-.25,3.95-.43a1.45,1.45,0,0,0,1.35-1.71,1.58,1.58,0,0,0-1.85-1.23c-3.65.16-7.29.28-10.94.41a.93.93,0,0,1-.23-.05C46,26.88,71.7,23.37,87.25,37.69Z" style="fill: #444"/>
        <path d="M64.7,67.44,75.57,97.22a35.58,35.58,0,0,1-21.48.55L64.51,67.48Z" style="fill: #444"/>
        <path d="M31.89,50,48.45,95.34l-.2.14A34.57,34.57,0,0,1,32,78.56C27.73,69.09,27.8,59.53,31.89,50Z" style="fill: #444"/>
        <path d="M81.79,94.31c1.19-3.47,2.33-6.81,3.48-10.13,2.36-6.82,4.69-13.66,7.1-20.46a39.06,39.06,0,0,0,2.48-9c.24-2.33.25-4.69.35-6.72C102.52,60.39,100.74,83,81.79,94.31Z" style="fill: #444"/>
      </g>
    </g>
  </g>
</svg>
