<svg xmlns="http://www.w3.org/2000/svg" width="128" height="128" viewBox="0 0 128 128">
  <title>advanced-woocommerce</title>
  <g id="7ff3a40b-a729-481f-8a97-4f6f0e74a5ad" data-name="figures and interactions">
    <g id="41559fd1-5f69-4cdb-979e-4b2e75d977b9" data-name="nQ5UxZ.html">
      <g>
        <path d="M23.6,93.06c-.57-.12-1.15-.21-1.71-.36A6.29,6.29,0,0,1,17.5,89a13.68,13.68,0,0,1-.22-10.39,6.77,6.77,0,0,1,6.49-4.39,8.71,8.71,0,0,1,4.55,1,7.12,7.12,0,0,1,3.43,5.1,14.16,14.16,0,0,1-.56,8.31A6.66,6.66,0,0,1,25,93a1,1,0,0,0-.27.09Zm-2.19-9.18c.19,1.28.3,2.33.53,3.34a2.11,2.11,0,0,0,1.49,1.62,2.41,2.41,0,0,0,3.11-1.79,12.87,12.87,0,0,0,.24-5.78A6.48,6.48,0,0,0,26,79.11a2,2,0,0,0-2.21-.84,2.22,2.22,0,0,0-1.8,1.89C21.66,81.45,21.56,82.78,21.41,83.88Z" style="fill: #010101"/>
        <path d="M124.75,92.53H115V74.71h9.69c0,.68,0,1.36,0,2,0,.52,0,1,.08,1.54v.21h-5v3.3H124v3.68h-4.21v3.26h5Z" style="fill: #010101"/>
        <path d="M110.09,93.06c-.69-.14-1.39-.25-2.07-.42a8.71,8.71,0,0,1-6.39-7.05,10.33,10.33,0,0,1,.59-6.13,8.52,8.52,0,0,1,7.29-5.18,13.46,13.46,0,0,1,2,0c.66,0,1.31.16,2,.25v4.24l-1.48-.26c-3.38-.59-5.16,1.74-5.44,4.21a6.87,6.87,0,0,0,.27,3,4.42,4.42,0,0,0,5.13,3c.5-.07,1-.19,1.55-.3v4.24l-2,.33c-.13,0-.25.07-.37.1Z" style="fill: #010101"/>
        <path d="M11.89,93.06c-.69-.14-1.39-.25-2.07-.42a8.72,8.72,0,0,1-6.39-7.12,10.2,10.2,0,0,1,.76-6.41,8.51,8.51,0,0,1,7.09-4.83,12.52,12.52,0,0,1,1.94-.06c.71,0,1.41.17,2.12.26v4.21a20.92,20.92,0,0,0-2.24-.28,4.24,4.24,0,0,0-4.53,3.47,6.66,6.66,0,0,0,.18,4,4.42,4.42,0,0,0,5.06,2.82l1.55-.31v4.24l-2,.33c-.13,0-.25.07-.37.1Z" style="fill: #010101"/>
        <path d="M72,73.07l-5.9-3.25c-1.61-.89-3.21-1.8-4.83-2.68a2,2,0,0,0-.89-.22c-8,0-16,0-24,0a6.06,6.06,0,0,1-6.24-6.14q0-9.86,0-19.72a5.89,5.89,0,0,1,4.68-6,6.15,6.15,0,0,1,1.41-.16h52.1a6,6,0,0,1,6.1,5.95q.07,10,0,20.09a5.93,5.93,0,0,1-6.11,5.92H69.61c.06.18.1.32.15.45l2.13,5.2c.06.14.09.3.14.45ZM39.87,55.38c-.1-.38-.19-.64-.24-.91q-1.22-6.51-2.43-13a2,2,0,0,0-.94-1.62,2.46,2.46,0,0,0-2.51.13,2,2,0,0,0-.9,2.16c.88,4.83,1.73,9.67,2.72,14.48a37.57,37.57,0,0,0,1.79,5.88c.71,1.84,2,2,3.27.48a13.4,13.4,0,0,0,1.69-2.41c1.43-2.7,2.78-5.44,4.16-8.16l.28-.54.15.45a28.77,28.77,0,0,0,3.81,8.4A16.43,16.43,0,0,0,53,63.33a1.87,1.87,0,0,0,3.29-1.14,12.71,12.71,0,0,0,0-2.1A54.23,54.23,0,0,1,57,51.76c.55-3.48,1.09-7,2.7-10.18A2.11,2.11,0,0,0,59,38.94a2.19,2.19,0,0,0-3.38.78,24.44,24.44,0,0,0-2.3,7c-.45,2.37-.79,4.76-1.18,7.14A2.72,2.72,0,0,1,52,53.4q-1-3.62-2-7.24a19.65,19.65,0,0,0-.53-2.08,1.82,1.82,0,0,0-3.09-.6,4.69,4.69,0,0,0-.78,1.11c-1.46,2.76-2.91,5.53-4.36,8.3Zm34.69-5.62a11,11,0,0,0-.66-4A6.56,6.56,0,0,0,62.55,43.8a13.6,13.6,0,0,0-2.83,11.42,7,7,0,0,0,2.8,4.67,6.58,6.58,0,0,0,9.08-1.43A13.79,13.79,0,0,0,74.56,49.76Zm16.56,0c-.11-.9-.16-1.82-.35-2.71a7.13,7.13,0,0,0-2.91-4.66,6.43,6.43,0,0,0-8.41,1,13.24,13.24,0,0,0-3.24,11.88,7,7,0,0,0,2.56,4.47,6.59,6.59,0,0,0,9.36-1.34A14.36,14.36,0,0,0,91.12,49.77Z" style="fill: #9b5c8f"/>
        <path d="M34.8,74.7h6.11l2,9.69c.69-3.06,1.39-6.17,2.08-9.28.07-.31.16-.44.51-.43,1.92,0,3.83,0,5.83,0l2.41,17.83H49L47.73,80.46l-.09,0L44.69,92.53H41.45L38.38,80.44h-.1L37.07,92.52H32.53Z" style="fill: #010101"/>
        <path d="M56.7,74.72h6.12l2,9.71L67,74.71h6.26l2.4,17.81H70.87L69.6,80.45h-.09L66.59,92.54c-1,0-2,0-3,0-.13,0-.33-.21-.37-.36-1-3.92-2-7.84-3.08-11.76L59,92.52H54.42Z" style="fill: #010101"/>
        <path d="M102.14,92.54c-1.66,0-3.22,0-4.78,0-.31,0-.37-.18-.47-.38l-3.57-7.4a.69.69,0,0,0-.24-.31v8.07H88.27V74.72l.24,0c2.09,0,4.18,0,6.27,0A7.85,7.85,0,0,1,99,76a4.83,4.83,0,0,1-.33,8.26l-.42.23ZM93,78v4.43a18.41,18.41,0,0,0,1.82-.32,1.65,1.65,0,0,0,1.41-1.66,1.88,1.88,0,0,0-1.38-2.09A17.42,17.42,0,0,0,93,78Z" style="fill: #010101"/>
        <path d="M86.76,78.52h-4.9v3.26h4.25v3.68H81.88v3.33h4.9v3.74H77.09V74.72h9.67Z" style="fill: #010101"/>
        <path d="M72,73l.06.07H72Z" style="fill: #9b5c8f"/>
        <path d="M39.87,55.38l1.32-2.5c1.45-2.77,2.9-5.54,4.36-8.3a4.69,4.69,0,0,1,.78-1.11,1.82,1.82,0,0,1,3.09.6A19.65,19.65,0,0,1,50,46.16q1,3.62,2,7.24a2.72,2.72,0,0,0,.19.42c.39-2.38.73-4.77,1.18-7.14a24.44,24.44,0,0,1,2.3-7A2.19,2.19,0,0,1,59,38.94a2.11,2.11,0,0,1,.69,2.64c-1.6,3.21-2.14,6.7-2.7,10.18a54.23,54.23,0,0,0-.72,8.33,12.71,12.71,0,0,1,0,2.1A1.87,1.87,0,0,1,53,63.33a16.43,16.43,0,0,1-2.29-2.67,28.77,28.77,0,0,1-3.81-8.4l-.15-.45-.28.54c-1.38,2.72-2.73,5.46-4.16,8.16a13.4,13.4,0,0,1-1.69,2.41c-1.29,1.51-2.56,1.36-3.27-.48a37.57,37.57,0,0,1-1.79-5.88c-1-4.81-1.84-9.65-2.72-14.48a2,2,0,0,1,.9-2.16,2.46,2.46,0,0,1,2.51-.13,2,2,0,0,1,.94,1.62q1.2,6.52,2.43,13C39.69,54.74,39.78,55,39.87,55.38Z" style="fill: #fdfdfd"/>
        <path d="M74.56,49.76a13.79,13.79,0,0,1-3,8.7,6.58,6.58,0,0,1-9.08,1.43,7,7,0,0,1-2.8-4.67A13.6,13.6,0,0,1,62.55,43.8,6.56,6.56,0,0,1,73.9,45.73,11,11,0,0,1,74.56,49.76ZM63.86,52.3a6.35,6.35,0,0,0,.83,3.28,1.7,1.7,0,0,0,2.61.62,5.1,5.1,0,0,0,1.87-2,9,9,0,0,0,1-4.26,6,6,0,0,0-.89-3.26,1.74,1.74,0,0,0-2.67-.53,3.76,3.76,0,0,0-.73.67A8.33,8.33,0,0,0,63.86,52.3Z" style="fill: #fdfdfd"/>
        <path d="M91.12,49.77a14.36,14.36,0,0,1-3,8.62,6.59,6.59,0,0,1-9.36,1.34,7,7,0,0,1-2.56-4.47,13.24,13.24,0,0,1,3.24-11.88,6.43,6.43,0,0,1,8.41-1,7.13,7.13,0,0,1,2.91,4.66C91,47.94,91,48.86,91.12,49.77ZM80.33,52.29a6.24,6.24,0,0,0,.73,3.09,1.77,1.77,0,0,0,2.88.71A5.24,5.24,0,0,0,85.71,54a9.16,9.16,0,0,0,.94-4.49,5.89,5.89,0,0,0-.9-2.94,1.69,1.69,0,0,0-2.5-.58,4.25,4.25,0,0,0-1,.91A8.32,8.32,0,0,0,80.33,52.29Z" style="fill: #fdfdfd"/>
        <path d="M63.86,52.3a8.33,8.33,0,0,1,2-5.51,3.76,3.76,0,0,1,.73-.67,1.74,1.74,0,0,1,2.67.53,6,6,0,0,1,.89,3.26,9,9,0,0,1-1,4.26,5.1,5.1,0,0,1-1.87,2,1.7,1.7,0,0,1-2.61-.62A6.35,6.35,0,0,1,63.86,52.3Z" style="fill: #9b5c8f"/>
        <path d="M80.33,52.29a8.32,8.32,0,0,1,1.91-5.35,4.25,4.25,0,0,1,1-.91,1.69,1.69,0,0,1,2.5.58,5.89,5.89,0,0,1,.9,2.94A9.16,9.16,0,0,1,85.71,54a5.24,5.24,0,0,1-1.77,2.06,1.77,1.77,0,0,1-2.88-.71A6.24,6.24,0,0,1,80.33,52.29Z" style="fill: #9b5c8f"/>
      </g>
    </g>
  </g>
</svg>
