<svg xmlns="http://www.w3.org/2000/svg" xmlns:xlink="http://www.w3.org/1999/xlink" width="1365.81" height="1046.13" viewBox="0 0 1365.81 1046.13">
  <defs>
    <linearGradient id="e1b09ec2-1276-4d95-87c9-622ed89d12b4" x1="104.82" y1="369.42" x2="1386.7" y2="709.85" gradientUnits="userSpaceOnUse">
      <stop offset="0" stop-color="#150773"/>
      <stop offset="0.62" stop-color="#5333ed"/>
      <stop offset="1" stop-color="#2cd4d9"/>
    </linearGradient>
    <linearGradient id="a3f870fa-6a07-4e37-9432-5e687654d0c2" x1="958.46" y1="506.73" x2="958.46" y2="317.17" gradientUnits="userSpaceOnUse">
      <stop offset="0" stop-color="#2cd4d9" stop-opacity="0.5"/>
      <stop offset="0.14" stop-color="#2cd4d9" stop-opacity="0.4"/>
      <stop offset="0.44" stop-color="#2cd4d9" stop-opacity="0.15"/>
      <stop offset="0.59" stop-color="#2cd4d9" stop-opacity="0"/>
    </linearGradient>
    <linearGradient id="4d04f84c-7040-491f-8ca3-f937d5487821" x1="1022.26" y1="497.3" x2="1022.26" y2="281.86" gradientUnits="userSpaceOnUse">
      <stop offset="0" stop-color="#2cd4d9" stop-opacity="0.3"/>
      <stop offset="0.28" stop-color="#2cd4d9" stop-opacity="0.2"/>
      <stop offset="0.74" stop-color="#2cd4d9" stop-opacity="0"/>
    </linearGradient>
    <linearGradient id="17740f6a-5d7a-4daa-9e59-cac50ef4baa1" x1="811.64" y1="207.92" x2="811.64" y2="601.43" gradientUnits="userSpaceOnUse">
      <stop offset="0" stop-color="#2cd4d9" stop-opacity="0"/>
      <stop offset="1" stop-color="#2cd4d9" stop-opacity="0.5"/>
    </linearGradient>
    <linearGradient id="f11a22d9-e8ee-4edd-a49c-6972e2b88923" x1="904.61" y1="514.48" x2="904.61" y2="316" gradientUnits="userSpaceOnUse">
      <stop offset="0" stop-color="#2cd4d9" stop-opacity="0.5"/>
      <stop offset="0.38" stop-color="#2cd4d9" stop-opacity="0.4"/>
      <stop offset="1" stop-color="#2cd4d9" stop-opacity="0.2"/>
    </linearGradient>
    <linearGradient id="fb447b02-a7e6-4b19-9211-2bb7bd6ab87b" x1="868.64" y1="520.65" x2="868.64" y2="236.66" gradientUnits="userSpaceOnUse">
      <stop offset="0" stop-color="#2cd4d9" stop-opacity="0.8"/>
      <stop offset="0.07" stop-color="#2cd4d9" stop-opacity="0.69"/>
      <stop offset="0.23" stop-color="#2cd4d9" stop-opacity="0.48"/>
      <stop offset="0.39" stop-color="#2cd4d9" stop-opacity="0.31"/>
      <stop offset="0.55" stop-color="#2cd4d9" stop-opacity="0.17"/>
      <stop offset="0.7" stop-color="#2cd4d9" stop-opacity="0.08"/>
      <stop offset="0.85" stop-color="#2cd4d9" stop-opacity="0.02"/>
      <stop offset="1" stop-color="#2cd4d9" stop-opacity="0"/>
    </linearGradient>
    <linearGradient id="ea0d29a2-5477-4a27-b278-23b9412d2b5c" x1="909.46" y1="302.38" x2="909.46" y2="236.66" gradientUnits="userSpaceOnUse">
      <stop offset="0" stop-color="#2cd4d9" stop-opacity="0.3"/>
      <stop offset="0.24" stop-color="#2cd4d9" stop-opacity="0.2"/>
      <stop offset="0.65" stop-color="#2cd4d9" stop-opacity="0"/>
    </linearGradient>
    <linearGradient id="f10d5270-06c6-4ce6-ba4b-6a0da751f622" x1="843.53" y1="545.93" x2="843.53" y2="293.03" gradientUnits="userSpaceOnUse">
      <stop offset="0" stop-color="#5333ed"/>
      <stop offset="0.73" stop-color="#5333ed" stop-opacity="0.27"/>
      <stop offset="1" stop-color="#5333ed" stop-opacity="0"/>
    </linearGradient>
    <linearGradient id="274d3dcb-ef8d-46bf-9be9-a649f7b14793" x1="809.04" y1="620.17" x2="809.04" y2="184.87" gradientUnits="userSpaceOnUse">
      <stop offset="0" stop-color="#5333ed"/>
      <stop offset="0.17" stop-color="#5333ed" stop-opacity="0.85"/>
      <stop offset="0.55" stop-color="#5333ed" stop-opacity="0.48"/>
      <stop offset="1" stop-color="#5333ed" stop-opacity="0"/>
    </linearGradient>
    <linearGradient id="46fab5b5-4662-4f5e-922a-925c7b2857d4" x1="939.98" y1="529.12" x2="939.98" y2="192.15" gradientUnits="userSpaceOnUse">
      <stop offset="0" stop-color="#5333ed" stop-opacity="0.6"/>
      <stop offset="0.14" stop-color="#5333ed" stop-opacity="0.58"/>
      <stop offset="0.32" stop-color="#5333ed" stop-opacity="0.51"/>
      <stop offset="0.51" stop-color="#5333ed" stop-opacity="0.4"/>
      <stop offset="0.73" stop-color="#5333ed" stop-opacity="0.25"/>
      <stop offset="0.95" stop-color="#5333ed" stop-opacity="0.05"/>
      <stop offset="1" stop-color="#5333ed" stop-opacity="0"/>
    </linearGradient>
    <linearGradient id="239cc458-db18-4719-bc9d-2a320536360a" x1="829.46" y1="181.27" x2="829.46" y2="561.97" xlink:href="#17740f6a-5d7a-4daa-9e59-cac50ef4baa1"/>
    <linearGradient id="eb2194f5-f455-4bd3-9754-32e48762aeb5" x1="931.66" y1="488.85" x2="1007.2" y2="677.69" gradientUnits="userSpaceOnUse">
      <stop offset="0" stop-color="#2cd4d9" stop-opacity="0.9"/>
      <stop offset="0.11" stop-color="#2cd4d9" stop-opacity="0.82"/>
      <stop offset="0.35" stop-color="#2cd4d9" stop-opacity="0.68"/>
      <stop offset="0.58" stop-color="#2cd4d9" stop-opacity="0.58"/>
      <stop offset="0.8" stop-color="#2cd4d9" stop-opacity="0.52"/>
      <stop offset="1" stop-color="#2cd4d9" stop-opacity="0.5"/>
    </linearGradient>
    <linearGradient id="0835709a-0779-4028-aef2-3eafd5080f15" x1="879.17" y1="527.1" x2="922.88" y2="636.37" gradientUnits="userSpaceOnUse">
      <stop offset="0" stop-color="#5333ed" stop-opacity="0.9"/>
      <stop offset="0.19" stop-color="#5333ed" stop-opacity="0.75"/>
      <stop offset="0.6" stop-color="#5333ed" stop-opacity="0.38"/>
      <stop offset="1" stop-color="#5333ed" stop-opacity="0"/>
    </linearGradient>
    <linearGradient id="ca5ba6a3-3a58-4bfa-ac41-f9b935843b8f" x1="844.6" y1="601.34" x2="888.31" y2="710.61" xlink:href="#274d3dcb-ef8d-46bf-9be9-a649f7b14793"/>
    <linearGradient id="3f6a6015-87eb-434f-ade1-fe72c1bce88f" x1="881.94" y1="571.23" x2="921.22" y2="669.44" gradientUnits="userSpaceOnUse">
      <stop offset="0" stop-color="#2cd4d9" stop-opacity="0.5"/>
      <stop offset="0.24" stop-color="#2cd4d9" stop-opacity="0.4"/>
      <stop offset="0.74" stop-color="#2cd4d9" stop-opacity="0.15"/>
      <stop offset="1" stop-color="#2cd4d9" stop-opacity="0"/>
    </linearGradient>
    <linearGradient id="9a6ca6cb-33b3-4be7-b64e-327a946f0456" x1="1006.86" y1="487.36" x2="1048.39" y2="591.18" xlink:href="#3f6a6015-87eb-434f-ade1-fe72c1bce88f"/>
    <linearGradient id="ba2faaf6-8c36-462a-87e2-c06ef25be176" x1="871.85" y1="543.11" x2="915.56" y2="652.38" xlink:href="#3f6a6015-87eb-434f-ade1-fe72c1bce88f"/>
    <linearGradient id="3656e464-cae0-4dd4-b2cc-2c0a1013afd7" x1="912.55" y1="502.82" x2="956.26" y2="612.09" xlink:href="#3f6a6015-87eb-434f-ade1-fe72c1bce88f"/>
    <linearGradient id="d84bfc41-79d1-4272-ab3d-7515752d2cb3" x1="952.73" y1="496.65" x2="996.44" y2="605.92" xlink:href="#3f6a6015-87eb-434f-ade1-fe72c1bce88f"/>
    <linearGradient id="71b55d74-0cd7-4ec5-a10a-f9712760ae7c" x1="919.66" y1="538.14" x2="968.91" y2="661.26" gradientUnits="userSpaceOnUse">
      <stop offset="0" stop-color="#5333ed" stop-opacity="0.7"/>
      <stop offset="0.24" stop-color="#5333ed" stop-opacity="0.55"/>
      <stop offset="0.76" stop-color="#5333ed" stop-opacity="0.18"/>
      <stop offset="1" stop-color="#5333ed" stop-opacity="0"/>
    </linearGradient>
    <linearGradient id="f192aa13-dc72-497d-949a-4ff559dfca82" x1="975.62" y1="492.92" x2="1019.33" y2="602.19" gradientUnits="userSpaceOnUse">
      <stop offset="0" stop-color="#5333ed" stop-opacity="0.8"/>
      <stop offset="0.21" stop-color="#5333ed" stop-opacity="0.65"/>
      <stop offset="0.67" stop-color="#5333ed" stop-opacity="0.28"/>
      <stop offset="1" stop-color="#5333ed" stop-opacity="0"/>
    </linearGradient>
    <linearGradient id="47ff727c-df11-4bd2-b9e8-7c2686a7657f" x1="978.5" y1="686.72" x2="1056.76" y2="551.16" xlink:href="#f192aa13-dc72-497d-949a-4ff559dfca82"/>
    <linearGradient id="053eb024-c7a5-476f-b79d-05352688db79" x1="1096.5" y1="605.88" x2="1115.23" y2="573.45" xlink:href="#f192aa13-dc72-497d-949a-4ff559dfca82"/>
    <linearGradient id="47d3cda7-69bc-4e06-9e6f-171482db02b7" x1="1089.25" y1="629.46" x2="1109.55" y2="594.31" xlink:href="#f192aa13-dc72-497d-949a-4ff559dfca82"/>
    <linearGradient id="2932f705-7319-485e-b36d-d6835b6fa9a4" x1="5004.15" y1="4199.71" x2="5024.45" y2="4164.55" gradientTransform="translate(5436.62 -4036.53) rotate(94.43)" xlink:href="#3f6a6015-87eb-434f-ade1-fe72c1bce88f"/>
    <linearGradient id="37ba91a4-42e0-49ea-bb75-1ec11a8ce6a6" x1="5058.93" y1="4014.64" x2="5101.99" y2="3940.07" gradientTransform="translate(5485.69 -4148.74) rotate(95.4)" xlink:href="#f192aa13-dc72-497d-949a-4ff559dfca82"/>
    <linearGradient id="446c4cc5-e297-4ca1-b89b-d8d18630db03" x1="6837.97" y1="682.89" x2="6846.32" y2="682.89" gradientTransform="matrix(-1, 0, 0, 1, 7669.23, 0)" gradientUnits="userSpaceOnUse">
      <stop offset="0" stop-color="#fff"/>
      <stop offset="0.04" stop-color="#e2e2e4"/>
      <stop offset="0.09" stop-color="#bdbcc1"/>
      <stop offset="0.16" stop-color="#9c9ba2"/>
      <stop offset="0.22" stop-color="#807f87"/>
      <stop offset="0.3" stop-color="#696872"/>
      <stop offset="0.39" stop-color="#585662"/>
      <stop offset="0.5" stop-color="#4c4a56"/>
      <stop offset="0.64" stop-color="#454350"/>
      <stop offset="1" stop-color="#43414e"/>
    </linearGradient>
    <linearGradient id="3cb54c17-de66-48a3-88d5-dc7ce3a822dc" x1="1081.88" y1="679.18" x2="1190.57" y2="556.01" gradientUnits="userSpaceOnUse">
      <stop offset="0" stop-color="#5333ed"/>
      <stop offset="1" stop-color="#2cd4d9"/>
    </linearGradient>
    <linearGradient id="57667ca6-0f34-4a59-9f06-7170d7218722" x1="926.5" y1="320.75" x2="928.15" y2="364.92" gradientUnits="userSpaceOnUse">
      <stop offset="0" stop-color="#2cd4d9"/>
      <stop offset="1" stop-color="#2cd4d9" stop-opacity="0.2"/>
    </linearGradient>
    <linearGradient id="fc2baf37-22a5-415e-81d2-7462eb085cb4" x1="939.84" y1="324.72" x2="962.56" y2="381.53" xlink:href="#57667ca6-0f34-4a59-9f06-7170d7218722"/>
    <linearGradient id="90f3f2b1-bb0c-403c-a461-1b2d553e9595" x1="926.67" y1="310.71" x2="952.07" y2="374.2" xlink:href="#57667ca6-0f34-4a59-9f06-7170d7218722"/>
    <linearGradient id="32d1e0ce-1b30-42b0-b53d-6c2dff7a1b50" x1="973.81" y1="397.43" x2="1039.86" y2="397.43" xlink:href="#57667ca6-0f34-4a59-9f06-7170d7218722"/>
    <linearGradient id="4ee95c77-143a-4821-8050-ebc560c3532e" x1="973.81" y1="404.43" x2="1039.86" y2="404.43" xlink:href="#57667ca6-0f34-4a59-9f06-7170d7218722"/>
    <linearGradient id="27b112b6-7c53-45f1-ae1a-f36cd98eeda9" x1="973.81" y1="402.9" x2="1007.58" y2="402.9" xlink:href="#57667ca6-0f34-4a59-9f06-7170d7218722"/>
    <linearGradient id="96977b3f-2b94-4441-90e6-1f9db851e71b" x1="1247.97" y1="-2246.8" x2="1268.9" y2="-2263.63" gradientTransform="matrix(0.5, -0.87, 0.58, 1, 1662.42, 3704.09)" gradientUnits="userSpaceOnUse">
      <stop offset="0" stop-color="#2cd4d9" stop-opacity="0.8"/>
      <stop offset="1" stop-color="#2cd4d9" stop-opacity="0.1"/>
    </linearGradient>
    <linearGradient id="a22bb927-aee4-4611-88a4-5279d19d2bdb" x1="8047.52" y1="-1217.5" x2="8037.46" y2="-1201.52" gradientTransform="matrix(-0.69, -0.72, 0.32, -1.11, 6953.8, 4825.77)" xlink:href="#96977b3f-2b94-4441-90e6-1f9db851e71b"/>
    <linearGradient id="b697aa37-a325-4503-863c-f0aa89998534" x1="702.37" y1="-1735.52" x2="713.04" y2="-1744.1" gradientTransform="matrix(0.5, 0.87, 0.58, -1, 1662.42, -1982.09)" xlink:href="#96977b3f-2b94-4441-90e6-1f9db851e71b"/>
    <linearGradient id="1c221040-8345-425c-a05d-f5b362b8fa07" x1="7703.53" y1="-1885.24" x2="7698.4" y2="-1877.1" gradientTransform="matrix(-0.69, 0.72, 0.32, 1.11, 6953.8, -3103.77)" xlink:href="#96977b3f-2b94-4441-90e6-1f9db851e71b"/>
    <linearGradient id="85804029-a93d-41d8-8c58-bfe3d44bbe1f" x1="1298.73" y1="-2219.47" x2="1309.4" y2="-2228.04" gradientTransform="matrix(0.5, -0.87, 0.58, 1, 1662.42, 3744.09)" xlink:href="#96977b3f-2b94-4441-90e6-1f9db851e71b"/>
    <linearGradient id="a6b8dd8c-b822-4278-a219-cd726e1028bb" x1="8003.86" y1="-1178.39" x2="7998.74" y2="-1170.25" gradientTransform="matrix(-0.69, -0.72, 0.32, -1.11, 6953.8, 4865.77)" xlink:href="#96977b3f-2b94-4441-90e6-1f9db851e71b"/>
    <linearGradient id="ca85e3a5-4732-4579-8fe4-5b57ed3aab91" x1="902.24" y1="360.9" x2="1060.53" y2="360.9" gradientUnits="userSpaceOnUse">
      <stop offset="0" stop-color="#2cd4d9" stop-opacity="0.8"/>
      <stop offset="1" stop-color="#2cd4d9" stop-opacity="0.4"/>
    </linearGradient>
    <linearGradient id="615f1cce-f495-4478-9e0a-63c66cbd249b" x1="862.07" y1="402.52" x2="959.61" y2="402.52" gradientUnits="userSpaceOnUse">
      <stop offset="0" stop-color="#5333ed" stop-opacity="0.6"/>
      <stop offset="1" stop-color="#2cd4d9" stop-opacity="0.2"/>
    </linearGradient>
    <linearGradient id="95ccdec8-6f7a-4e6d-9fa4-b67f6b8022e5" x1="1035.29" y1="412.92" x2="1082.9" y2="412.92" xlink:href="#ca85e3a5-4732-4579-8fe4-5b57ed3aab91"/>
    <linearGradient id="4fee4be7-fe73-4b3e-a16d-32e289925aa5" x1="970.38" y1="585.46" x2="972.05" y2="437.27" gradientUnits="userSpaceOnUse">
      <stop offset="0" stop-color="#fff" stop-opacity="0.4"/>
      <stop offset="0.17" stop-color="#fff" stop-opacity="0.37"/>
      <stop offset="0.43" stop-color="#fff" stop-opacity="0.27"/>
      <stop offset="0.76" stop-color="#fff" stop-opacity="0.12"/>
      <stop offset="1" stop-color="#fff" stop-opacity="0"/>
    </linearGradient>
  </defs>
  <title>advanced-hero</title>
  <g style="isolation: isolate">
    <g id="4d768894-e851-4608-89cf-685efdf7bc59" data-name="bg">
      <rect y="-0.24" width="1365.81" height="1046.37" style="fill: url(#e1b09ec2-1276-4d95-87c9-622ed89d12b4)"/>
    </g>
    <g id="1e2f22ec-d307-46e2-bb61-2464962a0a2b" data-name="figures and interactions">
      <g>
        <path d="M1312.62,636.11l-127.49-73.61L1011,589.45,964.32,690l127.49,73.61L1266,736.66Z" style="fill: #2cd4d9;fill-opacity: 0.2;mix-blend-mode: color-burn"/>
        <polyline points="960.95 506.73 960.95 484.44 953.57 477.06 953.57 408.44 963.35 398.65 963.35 317.17" style="fill: none;stroke-miterlimit: 10;stroke-width: 2px;stroke: url(#a3f870fa-6a07-4e37-9432-5e687654d0c2)"/>
        <circle cx="960.46" cy="473.97" r="1.17" transform="translate(-13.65 919.23) rotate(-50.83)" style="fill: none;stroke: #2cd4d9;stroke-miterlimit: 10;stroke-width: 2px;opacity: 0.30000000000000004"/>
        <circle cx="960.46" cy="468.07" r="1.17" transform="translate(-42.58 99.98) rotate(-5.83)" style="fill: none;stroke: #2cd4d9;stroke-miterlimit: 10;stroke-width: 2px;opacity: 0.30000000000000004"/>
        <line x1="1022.26" y1="497.3" x2="1022.26" y2="281.86" style="fill: none;stroke-miterlimit: 10;stroke-width: 2px;stroke: url(#4d04f84c-7040-491f-8ca3-f937d5487821)"/>
        <polyline points="811.64 208.92 811.64 493.01 811.64 600.43" style="fill: none;stroke-linecap: round;stroke-miterlimit: 10;stroke-width: 2px;stroke: url(#17740f6a-5d7a-4daa-9e59-cac50ef4baa1)"/>
        <polyline points="910.84 514.48 910.84 442.75 898.38 430.29 898.38 327.37 909.04 316.71" style="fill: none;stroke-miterlimit: 10;stroke-width: 2px;stroke: url(#f11a22d9-e8ee-4edd-a49c-6972e2b88923)"/>
        <polyline points="870.62 520.65 870.62 449.26 857.58 436.22 857.58 354.3 879.7 332.18 879.7 236.66" style="fill: none;stroke-miterlimit: 10;stroke-width: 2px;stroke: url(#fb447b02-a7e6-4b19-9211-2bb7bd6ab87b)"/>
        <line x1="909.46" y1="302.38" x2="909.46" y2="236.66" style="fill: none;stroke-miterlimit: 10;stroke-width: 2px;stroke: url(#ea0d29a2-5477-4a27-b278-23b9412d2b5c)"/>
        <circle cx="909.46" cy="316" r="1.17" transform="translate(90.04 821.49) rotate(-50.83)" style="fill: none;stroke: #2cd4d9;stroke-miterlimit: 10;stroke-width: 2px;opacity: 0.30000000000000004"/>
        <circle cx="909.46" cy="304.11" r="1.17" transform="translate(-26.19 93.96) rotate(-5.83)" style="fill: none;stroke: #2cd4d9;stroke-miterlimit: 10;stroke-width: 2px;opacity: 0.30000000000000004"/>
        <polyline points="837.28 544.93 837.28 432 849.77 419.51 849.77 294.03" style="fill: none;stroke-linecap: round;stroke-linejoin: round;stroke-width: 2px;stroke: url(#f10d5270-06c6-4ce6-ba4b-6a0da751f622)"/>
        <polyline points="802.79 619.17 802.79 532.89 802.79 327.32 815.28 314.83 815.28 185.87" style="fill: none;stroke-linecap: round;stroke-linejoin: round;stroke-width: 2px;stroke: url(#274d3dcb-ef8d-46bf-9be9-a649f7b14793)"/>
        <polyline points="933.73 528.12 933.73 253 946.23 240.51 946.23 193.16" style="fill: none;stroke-linecap: round;stroke-linejoin: round;stroke-width: 2px;stroke: url(#46fab5b5-4662-4f5e-922a-925c7b2857d4)"/>
        <polyline points="828.95 182.27 829.96 431.45 829.96 560.97" style="fill: none;stroke-linecap: round;stroke-miterlimit: 10;stroke-width: 2px;stroke: url(#239cc458-db18-4719-bc9d-2a320536360a)"/>
        <path d="M1150.45,580.82,1023,507.21,848.81,534.15,802.14,634.7l127.49,73.61,174.15-26.94Z" style="fill: #2cd4d9;fill-opacity: 0.2;mix-blend-mode: color-burn"/>
        <path d="M1149.41,570.9,1021.92,497.3,847.77,524.24,801.11,624.78,928.6,698.39l174.15-26.94Z" style="fill: url(#eb2194f5-f455-4bd3-9754-32e48762aeb5)"/>
        <path d="M837.28,544.93l127.49,73.61" style="fill: none;stroke-linecap: round;stroke-linejoin: round;stroke-width: 2px;stroke: url(#0835709a-0779-4028-aef2-3eafd5080f15)"/>
        <path d="M802.71,619.17,930.2,692.78" style="fill: none;stroke-linecap: round;stroke-linejoin: round;stroke-width: 2px;stroke: url(#ca5ba6a3-3a58-4bfa-ac41-f9b935843b8f)"/>
        <path d="M811.64,600.43l33.17,19.15,16.83-2,59.25,34.21,70.64-11.56" style="fill: none;stroke-linecap: round;stroke-miterlimit: 10;stroke-width: 2px;stroke: url(#3f6a6015-87eb-434f-ade1-fe72c1bce88f)"/>
        <path d="M961.13,506.73l33.17,19.15,16.83-2,83,47.91" style="fill: none;stroke-linecap: round;stroke-miterlimit: 10;stroke-width: 2px;stroke: url(#9a6ca6cb-33b3-4be7-b64e-327a946f0456)"/>
        <path d="M830,560.94,855,575.41l4,20.8,27.63-2.54,70.81,40.88" style="fill: none;stroke-linecap: round;stroke-miterlimit: 10;stroke-width: 2px;stroke: url(#ba2faaf6-8c36-462a-87e2-c06ef25be176)"/>
        <path d="M870.66,520.65l127.49,73.61" style="fill: none;stroke-linecap: round;stroke-miterlimit: 10;stroke-width: 2px;stroke: url(#3656e464-cae0-4dd4-b2cc-2c0a1013afd7)"/>
        <path d="M910.84,514.48l127.49,73.61" style="fill: none;stroke-linecap: round;stroke-miterlimit: 10;stroke-width: 2px;stroke: url(#d84bfc41-79d1-4272-ab3d-7515752d2cb3)"/>
        <polyline points="865.28 560.97 880.22 559.98 1023.3 638.43" style="fill: none;stroke-linecap: round;stroke-linejoin: round;stroke-width: 2px;stroke: url(#71b55d74-0cd7-4ec5-a10a-f9712760ae7c)"/>
        <circle cx="848.5" cy="581.38" r="1.17" transform="translate(-138.16 871.99) rotate(-50.83)" style="fill: none;stroke: #2cd4d9;stroke-miterlimit: 10;stroke-width: 2px;opacity: 0.30000000000000004"/>
        <circle cx="928.6" cy="658.33" r="1.17" transform="translate(-168.31 962.44) rotate(-50.83)" style="fill: none;stroke: #5333ed;stroke-miterlimit: 10;stroke-width: 2px;opacity: 0.8"/>
        <path d="M933.73,510.75l127.49,73.61" style="fill: none;stroke-linecap: round;stroke-linejoin: round;stroke-width: 2px;stroke: url(#f192aa13-dc72-497d-949a-4ff559dfca82)"/>
        <polyline points="930.2 657.94 1073.11 634.55 1101.61 577.12" style="fill: none;stroke-linejoin: round;stroke-width: 2px;stroke: url(#47ff727c-df11-4bd2-b9e8-7c2686a7657f)"/>
        <circle cx="1097.19" cy="608.2" r="1.17" transform="translate(-67.34 1074.68) rotate(-50.83)" style="fill: none;stroke: #5333ed;stroke-miterlimit: 10;stroke-width: 2px;opacity: 0.8"/>
        <line x1="1097.94" y1="606.61" x2="1113.79" y2="572.72" style="fill: none;stroke-linejoin: round;stroke-width: 2px;stroke: url(#053eb024-c7a5-476f-b79d-05352688db79)"/>
        <circle cx="1086.87" cy="630" r="1.17" transform="translate(-88.04 1074.7) rotate(-50.83)" style="fill: none;stroke: #5333ed;stroke-miterlimit: 10;stroke-width: 2px;opacity: 0.8"/>
        <polyline points="1087.61 628.41 1092.63 617.67 1102.16 613.05 1110.59 595.01" style="fill: none;stroke-linejoin: round;stroke-width: 2px;stroke: url(#47d3cda7-69bc-4e06-9e6f-171482db02b7)"/>
        <circle cx="862.98" cy="626.18" r="1.17" transform="translate(-185.6 819.38) rotate(-46.4)" style="fill: none;stroke: #2cd4d9;stroke-miterlimit: 10;stroke-width: 1.91452395915985px;opacity: 0.6000000000000001"/>
        <polyline points="864.44 627.05 874.76 632.89 878.63 642.74 895.97 652.54" style="fill: none;stroke-miterlimit: 10;stroke-width: 2px;stroke: url(#2932f705-7319-485e-b36d-d6835b6fa9a4)"/>
        <circle cx="1009.78" cy="511.92" r="1.17" transform="translate(-63.53 872.09) rotate(-45.43)" style="fill: none;stroke: #5333ed;stroke-miterlimit: 10;stroke-width: 2px;opacity: 0.8"/>
        <line x1="1011.28" y1="512.81" x2="1085.02" y2="557.45" style="fill: none;stroke-linejoin: round;stroke-width: 2px;stroke: url(#37ba91a4-42e0-49ea-bb75-1ec11a8ce6a6)"/>
        <polyline points="846.13 637.28 834.85 644.27 834.85 673.02 828.76 677.06" style="fill: none;stroke: #2cd4d9;stroke-miterlimit: 10;stroke-width: 2px"/>
        <g>
          <path d="M868,709.53a1.77,1.77,0,0,1-.09,1.11c-.26.42-1.44,1.48-4.47.36a58.11,58.11,0,0,1-7.59-3.87,1,1,0,0,1-.46-1.09,9.81,9.81,0,0,0-.22-2.39s1-2.1,1.44-2.06a2.11,2.11,0,0,1,2-.35l2.94,4.65Z" style="fill: #0c022f"/>
          <path d="M849.39,703.13l7,3.79a4.49,4.49,0,0,1-.8-2.55,4,4,0,0,1,1-2.77l-5.14-2.26-2.08,2.23Z" style="fill: #ffc398"/>
          <path d="M867.4,707.77h0s-3.92-1.68-4.76-2.85a37.67,37.67,0,0,1-2-3.34h0a1.67,1.67,0,0,0-1.42-.59c-.81,0-1.46.37-1.5.83h0v0h0v.92s-.3,1.45,1.85,4.26a9.31,9.31,0,0,0,5.8,3.21h0a2.81,2.81,0,0,0,.87.14c1,0,1.78-.46,1.78-1v-.82A1,1,0,0,0,867.4,707.77Z" style="fill: #fff"/>
          <path d="M877.62,704.35a1.77,1.77,0,0,1-.09,1.11c-.26.42-1.44,1.48-4.47.36a58.11,58.11,0,0,1-7.59-3.87,1,1,0,0,1-.46-1.09,9.81,9.81,0,0,0-.22-2.39s1-2.1,1.44-2.06a2.11,2.11,0,0,1,2-.35l2.94,4.65Z" style="fill: #0c022f"/>
          <path d="M859,697.95l7,3.79a4.49,4.49,0,0,1-.8-2.55,4,4,0,0,1,1-2.77l-5.14-2.26L859,696.38Z" style="fill: #ffc398"/>
          <path d="M869.42,688.78c-.68-2.07-1.32-5.48-2-7.1s-1-1.6-1-1.6l-14.92,1.29L844,678.55c-1.22-.46-4.79,2.21-3.91,4.37.71,1.76,3.1,2.85,5.29,3.51-4.1-.79-9.91-1.72-11.09-.88a5,5,0,0,0-1.79,5.87c1,1.86,8.35,8.7,17.11,12a3.4,3.4,0,0,1,2.69-3.37h0c2.18,1.9,6.84,1.6,11.18-.91C868.39,696.27,870.45,691.91,869.42,688.78Z" style="fill: #dfe9f8"/>
          <ellipse cx="859.52" cy="682.08" rx="7.85" ry="4.53" transform="translate(-225.89 521.14) rotate(-30)" style="fill: #2cd4d9"/>
          <g>
            <polygon points="835.96 680.97 821.95 689.06 813.28 684 813.28 683.36 827.29 675.27 835.96 680.31 835.96 680.97" style="fill: #43414e"/>
            <polygon points="835.96 680.31 821.95 688.4 813.28 683.36 827.29 675.27 835.96 680.31" style="fill: #6e7075"/>
            <polygon points="827.32 664.01 827.32 675.26 813.28 683.37 813.28 672.12 827.32 664.01" style="fill: #43414e"/>
            <g>
              <g>
                <polygon points="813.58 673.83 813.58 672.4 815.72 671.18 815.72 672.64 813.58 673.87 813.58 673.83" style="fill: #120667"/>
                <polygon points="815.72 672.64 815.72 673.59 813.58 674.82 813.58 673.87 815.72 672.64" style="fill: #2cd4d9"/>
              </g>
              <polygon points="813.58 674.82 815.72 673.59 815.72 681.52 813.58 682.75 813.58 674.82" style="fill: #120667"/>
              <polygon points="815.72 671.18 822.41 667.34 827.08 664.63 827.08 666.06 827.08 666.1 815.72 672.64 815.72 671.18" style="fill: #fff"/>
              <polygon points="815.72 672.64 827.08 666.1 827.08 674.98 822.41 677.67 815.72 681.52 815.72 672.64" style="fill: #dfe9f8"/>
              <polygon points="815.21 672.09 815.21 672.33 814.03 673.02 814.03 672.78 815.21 672.09" style="fill: #2cd4d9"/>
            </g>
            <polygon points="831.26 682.33 826.1 685.31 822.9 683.45 828.06 680.47 831.26 682.33" style="fill: url(#446c4cc5-e297-4ca1-b89b-d8d18630db03)"/>
            <polygon points="827.8 680.28 822.64 683.26 821.84 682.79 827 679.81 827.8 680.28" style="fill: #43414e"/>
            <polygon points="827.43 679.56 828.15 679.14 828.96 679.61 828.24 680.02 827.43 679.56" style="fill: #43414e"/>
            <polygon points="828.76 677.6 829.78 677.01 830.59 677.48 829.57 678.06 828.76 677.6" style="fill: #43414e"/>
            <polygon points="826.65 676.38 827.67 675.8 828.48 676.26 827.46 676.85 826.65 676.38" style="fill: #43414e"/>
            <polygon points="816.63 684.56 818.08 683.73 818.88 684.2 817.44 685.02 816.63 684.56" style="fill: #43414e"/>
            <polygon points="815.61 683.93 817.48 682.88 818.29 683.34 816.41 684.4 815.61 683.93" style="fill: #43414e"/>
            <polygon points="814.55 683.37 816 682.54 816.8 683.01 815.36 683.83 814.55 683.37" style="fill: #43414e"/>
            <polygon points="829.33 678.47 830.05 678.06 830.86 678.52 830.14 678.94 829.33 678.47" style="fill: #43414e"/>
            <polygon points="828.38 679.02 829.1 678.61 829.9 679.07 829.18 679.49 828.38 679.02" style="fill: #43414e"/>
            <polygon points="824 680.31 824.72 679.9 825.52 680.36 824.8 680.78 824 680.31" style="fill: #43414e"/>
            <polygon points="827.8 678.12 828.52 677.71 829.33 678.17 828.61 678.59 827.8 678.12" style="fill: #43414e"/>
            <polygon points="826.85 678.67 827.57 678.26 828.38 678.72 827.66 679.14 826.85 678.67" style="fill: #43414e"/>
            <polygon points="825.89 679.23 826.61 678.81 827.42 679.28 826.7 679.69 825.89 679.23" style="fill: #43414e"/>
            <polygon points="824.94 679.78 825.66 679.36 826.46 679.83 825.75 680.24 824.94 679.78" style="fill: #43414e"/>
            <polygon points="819.26 683.06 819.98 682.64 820.78 683.11 820.07 683.52 819.26 683.06" style="fill: #43414e"/>
            <polygon points="818.32 683.6 819.04 683.19 819.84 683.65 819.13 684.07 818.32 683.6" style="fill: #43414e"/>
            <polygon points="823.07 680.87 823.79 680.45 824.59 680.91 823.88 681.33 823.07 680.87" style="fill: #43414e"/>
            <polygon points="822.12 681.42 822.83 681 823.64 681.47 822.92 681.88 822.12 681.42" style="fill: #43414e"/>
            <polygon points="821.15 681.97 821.87 681.55 822.68 682.02 821.96 682.43 821.15 681.97" style="fill: #43414e"/>
            <polygon points="820.2 682.52 820.92 682.11 821.73 682.57 821.01 682.98 820.2 682.52" style="fill: #43414e"/>
            <polygon points="823.43 679.45 824.15 679.04 824.96 679.5 824.24 679.91 823.43 679.45" style="fill: #43414e"/>
            <polygon points="827.24 677.26 827.96 676.85 828.76 677.31 828.05 677.72 827.24 677.26" style="fill: #43414e"/>
            <polygon points="826.28 677.81 827 677.39 827.81 677.86 827.09 678.27 826.28 677.81" style="fill: #43414e"/>
            <polygon points="825.33 678.37 826.04 677.95 826.85 678.41 826.13 678.83 825.33 678.37" style="fill: #43414e"/>
            <polygon points="824.37 678.91 825.09 678.5 825.9 678.96 825.18 679.38 824.37 678.91" style="fill: #43414e"/>
            <polygon points="818.69 682.19 819.41 681.78 820.22 682.24 819.5 682.66 818.69 682.19" style="fill: #43414e"/>
            <polygon points="817.75 682.74 818.47 682.32 819.28 682.79 818.56 683.2 817.75 682.74" style="fill: #43414e"/>
            <polygon points="822.5 680 823.22 679.59 824.03 680.05 823.31 680.47 822.5 680" style="fill: #43414e"/>
            <polygon points="821.55 680.55 822.27 680.14 823.07 680.6 822.36 681.02 821.55 680.55" style="fill: #43414e"/>
            <polygon points="820.59 681.11 821.31 680.69 822.12 681.16 821.4 681.57 820.59 681.11" style="fill: #43414e"/>
            <polygon points="819.64 681.66 820.36 681.24 821.16 681.71 820.44 682.12 819.64 681.66" style="fill: #43414e"/>
            <polygon points="821.9 679.12 822.62 678.7 823.42 679.17 822.71 679.58 821.9 679.12" style="fill: #43414e"/>
            <polygon points="825.71 676.93 826.43 676.51 827.23 676.98 826.51 677.39 825.71 676.93" style="fill: #43414e"/>
            <polygon points="824.75 677.48 825.47 677.06 826.28 677.53 825.56 677.94 824.75 677.48" style="fill: #43414e"/>
            <polygon points="823.79 678.03 824.51 677.62 825.32 678.08 824.6 678.5 823.79 678.03" style="fill: #43414e"/>
            <polygon points="822.84 678.58 823.56 678.17 824.37 678.63 823.65 679.05 822.84 678.58" style="fill: #43414e"/>
            <polygon points="817.16 681.86 817.88 681.45 818.69 681.91 817.97 682.33 817.16 681.86" style="fill: #43414e"/>
            <polygon points="816.22 682.41 816.94 681.99 817.75 682.46 817.03 682.87 816.22 682.41" style="fill: #43414e"/>
            <polygon points="820.97 679.67 821.69 679.25 822.5 679.72 821.78 680.13 820.97 679.67" style="fill: #43414e"/>
            <polygon points="820.02 680.22 820.74 679.8 821.54 680.27 820.83 680.68 820.02 680.22" style="fill: #43414e"/>
            <polygon points="819.06 680.77 819.78 680.36 820.58 680.83 819.87 681.24 819.06 680.77" style="fill: #43414e"/>
            <polygon points="818.11 681.33 818.83 680.91 819.63 681.38 818.91 681.79 818.11 681.33" style="fill: #43414e"/>
            <polygon points="820.87 683.34 821.59 682.93 822.4 683.39 821.68 683.81 820.87 683.34" style="fill: #43414e"/>
            <polygon points="819.92 683.89 820.64 683.48 821.45 683.94 820.73 684.36 819.92 683.89" style="fill: #43414e"/>
            <polygon points="818.96 684.45 819.68 684.03 820.49 684.5 819.77 684.91 818.96 684.45" style="fill: #43414e"/>
            <polygon points="818.01 685 818.73 684.58 819.53 685.05 818.82 685.46 818.01 685" style="fill: #43414e"/>
          </g>
          <path d="M852.29,700a18.69,18.69,0,0,0-6.34-2.92c-3.54-.8-10.32-5.18-10.32-5.18l.07.4s5.34,4.5,10.1,5.56a18,18,0,0,1,3.36,1.48,7.19,7.19,0,0,1,1.49,1.49A4,4,0,0,1,852.29,700Z" style="fill: #dfe9f8;mix-blend-mode: multiply"/>
          <path d="M871.12,700.72l-2.94-4.65a2.11,2.11,0,0,0-2,.35,4,4,0,0,0-1,2.77,4.49,4.49,0,0,0,.8,2.55Z" style="fill: #0c022f"/>
          <path d="M877,702.59h0s-3.92-1.68-4.76-2.85a37.67,37.67,0,0,1-2-3.34h0a1.67,1.67,0,0,0-1.42-.59c-.81,0-1.46.37-1.5.83h0v0h0v.92s-.3,1.45,1.85,4.26a9.31,9.31,0,0,0,5.8,3.21h0a2.81,2.81,0,0,0,.87.14c1,0,1.78-.46,1.78-1v-.82A1,1,0,0,0,877,702.59Z" style="fill: #fff"/>
          <path d="M868,708.55s-.32.73-1.65.71a7.13,7.13,0,0,1-5.56-2.23,11.24,11.24,0,0,1-3.1-5.21l0,1.16a5.43,5.43,0,0,0,.89,2.61,8.83,8.83,0,0,0,5.71,4.47c3.36,1,3.69-.5,3.69-.5A3.25,3.25,0,0,0,868,708.55Z" style="fill: #dfe9f8"/>
          <path d="M877.67,703.43s-.32.73-1.65.71a7.13,7.13,0,0,1-5.56-2.23,11.24,11.24,0,0,1-3.1-5.21l0,1.16a5.43,5.43,0,0,0,.89,2.61,8.83,8.83,0,0,0,5.71,4.47c3.36,1,3.69-.5,3.69-.5A3.25,3.25,0,0,0,877.67,703.43Z" style="fill: #dfe9f8"/>
          <path d="M834.57,685.54l2.42.51.36.05.22-.18a1,1,0,0,1,.65-.21,10,10,0,0,1,3,.94l0,1.76a7.46,7.46,0,0,1-4.39.59l-1.43.09a1.29,1.29,0,0,1-1.39-.21l1.05-.22,1.8-.33-2.12-.15a1.12,1.12,0,0,1-1.29.28l1-.89,1.77,0-1.72-.21s-.47.91-1.29.75l1.18-1.37h1.86l-1.61-.47a.87.87,0,0,1-.92.43Z" style="fill: #ffc398"/>
          <path d="M843.78,678.74l2.29.94.35.12-1.11-.58c-.76-.1-.78-.57-.78-.57a15.67,15.67,0,0,1,2.55.83c1.17.56,3.09,1.56,3.09,1.56l-.34,1.73s-1.93,1.21-5.25-.24c0,0,.33-.32,1.08-.07l.54-.26-2.7-.83a1.12,1.12,0,0,1-1.32,0l1.19-.69,1.75.27-1.65-.51s-.62.82-1.4.5l1.4-1.13,1.83.33-1.5-.75a.87.87,0,0,1-1,.26Z" style="fill: #ffc398"/>
          <path d="M839.5,686.53c.7-3.87,2.34-16.3,4.71-22.76,0,0,1.42-2.74,4.92-.44,3.33,2.19-3.36,18.34-6.9,25a1.13,1.13,0,0,1-1.47.49l-.5-.23A2.11,2.11,0,0,1,839.5,686.53Z" style="fill: #2cd4d9"/>
          <path d="M847.76,680.77c.7-3.87,2.32-15.68,4.69-22.14,0,0,1.42-2.74,4.92-.44,3.33,2.19-3.34,17.72-6.88,24.34A1.13,1.13,0,0,1,849,683l-.5-.23A2.11,2.11,0,0,1,847.76,680.77Z" style="fill: #2cd4d9"/>
          <path d="M845.3,662.42s12.08-7.77,12.73-7.8a5,5,0,0,1,3.35,1.16,2.6,2.6,0,0,1,.83,1.58s.86,11.76,4.1,20.79c.76,2.11-1.68,3.48-4.56,6-3.43,3-9,2-9,2-2.33-3.88-2.38-5.31-3.23-6.78-1.88-3.28-5.57-13.85-5.57-13.85C843.64,664.72,843.77,663.55,845.3,662.42Z" style="fill: #2cd4d9"/>
          <path d="M847.87,675.37s1.31-4.76,1.59-5.85.77.49.55,1.26-1.78,5.82-1.78,5.82l-.44-1.06Z" style="fill: #2cd4d9;mix-blend-mode: multiply"/>
          <path d="M850.73,682.07l-2.34-5.14-.12.83s-.1,3.13,2.28,4.58Z" style="fill: #2cd4d9;mix-blend-mode: multiply"/>
          <path d="M845.34,686.43a20,20,0,0,0,5.07,1,4.5,4.5,0,0,0,1.67-.36s.22-.57.27-.79c0,0-2.64.54-8.49-.34Z" style="fill: #dfe9f8;mix-blend-mode: multiply"/>
          <g>
            <circle cx="850.13" cy="651.8" r="7.87" style="fill: #120667"/>
            <circle cx="863.77" cy="661.69" r="4.8" style="fill: #120667"/>
            <circle cx="843.71" cy="665.51" r="2.93" style="fill: #120667"/>
            <circle cx="861.64" cy="665.62" r="4.18" style="fill: #120667"/>
            <circle cx="860.32" cy="657.25" r="4.18" style="fill: #120667"/>
            <circle cx="860.73" cy="668.94" r="3.04" style="fill: #120667"/>
            <circle cx="849.91" cy="668.38" r="5.11" style="fill: #120667"/>
            <circle cx="856.14" cy="664.99" r="6.98" style="fill: #120667"/>
            <path d="M865,657s-3.51-.5-8-9.12L842.58,654s1.67,7.12-.76,9.24,6.17,3.89,6.17,3.89l13-3.89Z" style="fill: #120667"/>
          </g>
        </g>
        <path d="M1151.49,556.53,1023,482.33,847.39,509.49l-47,101.37,128.53,74.21,175.57-27.16Z" style="fill: none;stroke: #2cd4d9;stroke-miterlimit: 10;stroke-width: 1.91452395915985px"/>
        <g>
          <path d="M1229.06,529.16l1.05,17.74s20.16,10.76,20.11,10.45-2.7-23.54-2.7-23.54Z" style="fill: #150773"/>
          <path d="M1232.79,511s-5.46,0-5.44,2.19c.28,25.06-20.67,19.65-20.67,19.65l-1.24,3.34C1238.93,544.12,1232.79,511,1232.79,511Z" style="fill: #ffc398"/>
          <path d="M1227.66,504.9a6.49,6.49,0,0,0-.53,2.16c.21,2.66.57,8.66-.46,12.32l5.44,2.07a61,61,0,0,0,2.47-8.48Z" style="fill: #0c022f"/>
          <path d="M1226.84,519.91a2.5,2.5,0,0,1,.68-.05,9.4,9.4,0,0,1,4.76,1.89c.16.14.58.62.58.62l-.1.38a1.17,1.17,0,0,0,.51-.54,8.46,8.46,0,0,0,.44-1.43.46.46,0,0,0-.08-.39,5.87,5.87,0,0,0-2.83-1.83,9.83,9.83,0,0,0-3.62-.53.37.37,0,0,0-.34.3l-.35,1.59a.43.43,0,0,0,.21.42Z" style="fill: #dfe9f8"/>
          <ellipse cx="1237.46" cy="526.79" rx="5.75" ry="9.95" transform="translate(162.52 1335.06) rotate(-60)" style="fill: #120667"/>
          <path d="M1244.16,509.79l-11.66-6.73h0a2.22,2.22,0,0,0-1.58-.25,5,5,0,0,0-3.06,1.79,2.6,2.6,0,0,0-.5,1.72l.19,13a31.06,31.06,0,0,1-1.74,10.16,1.84,1.84,0,0,0,0,1.41c1,2,2.88,2,3.83,2.24,1.59.44,3.37,2.51,4.32,3.06,4,2.28,9.3,2.9,12.37,1.09s.53-4.74.53-5.29l-.78-19.48C1246.23,511.72,1245.47,510.55,1244.16,509.79Z" style="fill: #0c022f"/>
          <path d="M1227.56,518.61a42.66,42.66,0,0,1-.21-7.17l.57-.33s-.13,6.17.1,7.88Z" style="fill: #2cd4d9;mix-blend-mode: multiply"/>
          <g>
            <circle cx="1231.84" cy="496.34" r="3.41" transform="translate(-75.85 264.52) rotate(-11.89)" style="fill: #150773"/>
            <ellipse cx="1236.84" cy="508.21" rx="3.22" ry="1.86" transform="translate(-88.4 686.51) rotate(-30)" style="fill: #eba87c"/>
            <ellipse cx="1236.84" cy="503.65" rx="3.22" ry="1.86" transform="translate(-86.12 685.9) rotate(-30)" style="fill: #eba87c"/>
            <polygon points="1233.9 509.2 1233.9 504.75 1239.78 502.69 1239.78 507.11 1233.9 509.2" style="fill: #eba87c"/>
            <ellipse cx="1236.84" cy="508.21" rx="3.22" ry="1.86" transform="translate(-88.4 686.51) rotate(-30)" style="fill: #eba87c"/>
            <path d="M1239.78,499.08l-5.88,2.05v4.45h0a1.18,1.18,0,0,0,.14.63c.51.89,2.18.89,3.72,0a3.44,3.44,0,0,0,2-2.71h0Z" style="fill: #ffc398;opacity: 0.5;mix-blend-mode: multiply"/>
            <path d="M1241.58,498.33c-.26-.68-.71-.45-1.23,0l-2.12-5.7-7.8,2.15s-.14,6.46,2,10.18v0l.06.1h0l.09.14c1,1.29,3.57,1,5.8-.71a5.9,5.9,0,0,0,2.18-3.22,1.1,1.1,0,0,0,.43-.28A2.52,2.52,0,0,0,1241.58,498.33Z" style="fill: #ffc398"/>
            <path d="M1240.93,495.27c0-.14-.5-2.5-1.46-3.25a2,2,0,0,0-2.16.08s-1.54-1.79-3.13-.66a2.82,2.82,0,0,0-.94-.81,1.42,1.42,0,0,0,.15-.81,1.33,1.33,0,0,0-1.23-1.05,1.55,1.55,0,0,0-1.15.31,1.28,1.28,0,0,0-.45.83s-.06,0-.09,0a1.07,1.07,0,0,0-.82,1.26s.06.07.08.12a2.79,2.79,0,0,0-.65,2.4,2.84,2.84,0,0,0,3.37,2.19,2.79,2.79,0,0,0,1.62-1v.06s.83-1.24,1.79-.92a1.31,1.31,0,0,1,.8,1.76,3.52,3.52,0,0,0,0,.44,2.16,2.16,0,0,0,2.55,1.66l.09,0c-.07.22-.4,1.44.16,1.84l.74,0a1.33,1.33,0,0,1,.57-1.59.65.65,0,0,1,.4-.08A7,7,0,0,0,1240.93,495.27Z" style="fill: #150773"/>
          </g>
          <path d="M1239.54,527.65a12.68,12.68,0,0,0,1.62-6.78l-.51,1.71-1.72,5.27A.52.52,0,0,1,1239.54,527.65Z" style="fill: #2cd4d9;mix-blend-mode: multiply"/>
          <path d="M1250.24,517.69s-5.23,1.64-4.57,3.68c7.79,24-14,24.83-14,24.83l-.22,3.56C1265,552.93,1250.24,517.69,1250.24,517.69Z" style="fill: #ffc398"/>
          <path d="M1247,527.88s-3.41-8.28-5.84-11.31l.88-7.77s8.36,1.6,11.82,16.65Z" style="fill: #0c022f"/>
          <path d="M1245.88,526.7a.48.48,0,0,1,.41-.5l.2.45a22,22,0,0,0,7.08-2.44l-.1-.37a.47.47,0,0,1,.42.2l.66,3s-4.7,2.66-8,2Z" style="fill: #dfe9f8"/>
        </g>
        <path d="M1311.67,588.25,1184.88,515l-173.2,26.79-46.41,100L1092.06,715l173.2-26.79Zm-222,55c-27-15.57-27-40.83,0-56.4s70.71-15.57,97.69,0,27,40.83,0,56.4S1116.6,658.82,1089.63,643.25Z" style="fill: url(#3cb54c17-de66-48a3-88d5-dc7ce3a822dc)"/>
        <g>
          <path d="M1019.53,686.86c-6.58-1.34-4-15.49-4-15.49l5,3.51s-1.18,7.17.16,7.17c3.34,0,10.4-2.63,10.4-2.63.42-.87.16,2.46.16,2.46S1022.94,687.56,1019.53,686.86Z" style="fill: #724c3b"/>
          <path d="M1020.21,754.76l-2,.76a2,2,0,0,1-1-1.91l.06-.51a2.46,2.46,0,0,1,1.62-2.09c1.44-.48,2.81.32,5.42-.06.74-.11,3-1.68,3.65-.68a1.52,1.52,0,0,1-.4,1.86,21,21,0,0,1-2.35,1.49,6.68,6.68,0,0,1-2.36.74C1022.13,754.46,1021.22,754.59,1020.21,754.76Z" style="fill: #0c022f"/>
          <ellipse cx="1019.02" cy="756.21" rx="1.79" ry="1.03" transform="translate(-241.58 610.82) rotate(-30)" style="fill: #0c022f"/>
          <ellipse cx="1019.02" cy="754.33" rx="1.79" ry="1.03" transform="translate(-240.64 610.57) rotate(-30)" style="fill: #0c022f"/>
          <polygon points="1017.39 756.79 1017.39 754.94 1020.65 753.79 1020.66 755.6 1017.39 756.79" style="fill: #0c022f"/>
          <path d="M1021.29,750.93a21.69,21.69,0,0,0,2.71,0,2.56,2.56,0,0,0,1-.3c.63-.29.79.89.54,1.07-.81.59-2,0-5.85,1Z" style="fill: #724c3b"/>
          <path d="M1019.83,725.8s-2.38,4.14-1.26,23.95a6.34,6.34,0,0,1-.42,2.32l3.28-1.07,4.29-25.51Z" style="fill: #724c3b"/>
          <ellipse cx="1026.64" cy="751.3" rx="2.05" ry="1.18" transform="translate(-238.11 613.98) rotate(-30)" style="fill: #0c022f"/>
          <ellipse cx="1025.15" cy="751.3" rx="1.06" ry="0.61" transform="translate(-238.3 613.23) rotate(-30)" style="fill: #724c3b"/>
          <ellipse cx="1019.8" cy="751.6" rx="1.82" ry="1.05" transform="translate(-239.17 610.59) rotate(-30)" style="fill: #724c3b"/>
          <path d="M1026.8,758.72l-2,.76a2,2,0,0,1-1-1.91l.06-.51a2.46,2.46,0,0,1,1.62-2.09c1.44-.48,2.81.32,5.42-.06.74-.11,3-1.68,3.65-.68a1.52,1.52,0,0,1-.4,1.86,21,21,0,0,1-2.35,1.49,6.68,6.68,0,0,1-2.36.74C1028.72,758.42,1027.81,758.56,1026.8,758.72Z" style="fill: #0c022f"/>
          <ellipse cx="1025.61" cy="760.17" rx="1.79" ry="1.03" transform="translate(-242.68 614.65) rotate(-30)" style="fill: #0c022f"/>
          <ellipse cx="1025.61" cy="758.29" rx="1.79" ry="1.03" transform="translate(-241.74 614.4) rotate(-30)" style="fill: #0c022f"/>
          <polygon points="1023.98 760.75 1023.98 758.9 1027.24 757.75 1027.25 759.56 1023.98 760.75" style="fill: #0c022f"/>
          <path d="M1027.88,754.9a21.69,21.69,0,0,0,2.71,0,2.56,2.56,0,0,0,1-.3c.63-.29.79.89.54,1.07-.81.59-2,0-5.85,1Z" style="fill: #724c3b"/>
          <path d="M1026.42,729.77s-2.54,4.12-1.55,23.16a14.86,14.86,0,0,1-.12,3.11L1028,755l4.29-25.51Z" style="fill: #724c3b"/>
          <ellipse cx="1033.23" cy="755.26" rx="2.05" ry="1.18" transform="translate(-239.2 617.8) rotate(-30)" style="fill: #0c022f"/>
          <ellipse cx="1031.74" cy="755.26" rx="1.06" ry="0.61" transform="translate(-239.4 617.06) rotate(-30)" style="fill: #724c3b"/>
          <ellipse cx="1026.38" cy="755.57" rx="1.82" ry="1.05" transform="translate(-240.27 614.42) rotate(-30)" style="fill: #724c3b"/>
          <path d="M1035.69,706.6c-.59,4.83-3.21,26.75-3.21,26.75l-9.81-3.39-8.94-3.94s1.28-22.2,2.44-28.66a19.66,19.66,0,0,1,1.85-5.46l2.06-4,15,6.2.62,5.18A30.57,30.57,0,0,1,1035.69,706.6Z" style="fill: #2cd4d9"/>
          <ellipse cx="1027.45" cy="691.86" rx="4.84" ry="8.38" transform="translate(-85.45 1235.72) rotate(-60)" style="fill: #2cd4d9"/>
          <path d="M1033.81,669l-11.66-6.73h0a2.22,2.22,0,0,0-1.58-.25,5,5,0,0,0-3.06,1.79,2.6,2.6,0,0,0-.5,1.72l.79,15.57h0c-.2,2.24,1.83,5.14,5.14,7.05,4,2.28,8.23,2.28,9.55,0a3,3,0,0,0,.38-1.52h0l2.79-14.87C1035.89,671,1035.12,669.78,1033.81,669Z" style="fill: #dfe9f8"/>
          <path d="M1015.19,674c.27-2.2-.55-2.32-.5-4s1.31-6,2.38-7.33c.53-1.2,2.64-1.43,4.72-.52s3.34,2.63,2.81,3.83a45,45,0,0,0-1.89,17l0,1a.85.85,0,0,1-.05.43c-.3.68-1.5.81-2.67.29a2.58,2.58,0,0,1-1.64-1.71l-.31-6.58S1014.95,676,1015.19,674Z" style="fill: #dfe9f8"/>
          <path d="M1017.41,673.87l-.4-.38a25.15,25.15,0,0,1-.07,2.67,5.77,5.77,0,0,0,.62.2S1017.48,675.28,1017.41,673.87Z" style="fill: #dfe9f8;mix-blend-mode: multiply"/>
          <path d="M1023,702.42c.36,3.08.58,7.95.58,7.95s-.62,2.33-.6,2c.27-3.72-1.42-6.89-1.18-11.78A3.93,3.93,0,0,1,1023,702.42Z" style="fill: #2cd4d9;mix-blend-mode: multiply"/>
          <path d="M1033.25,695.22c-5.4-1.39-4.1-11.22-4.1-11.22l5.14-.77s-1.18,7.17.16,7.17c3.34,0,10.4-2.63,10.4-2.63a1.94,1.94,0,0,1,1.5-1l1.87,0c-.27.65-1.2.7-1.2.7-.47.54,1,1.67,2,2.07a1.74,1.74,0,0,1,.83,1.09s-.14.38-.39.36-.47-.26-.68-.27a.55.55,0,0,1-.53-.15,2.82,2.82,0,0,0-1.35-.35c-.51,0-1.91-.06-1.91-.06S1036.62,696.08,1033.25,695.22Z" style="fill: #724c3b"/>
          <path d="M1029,677.83l.77,7.44-1.53-.44.18-1.24a3.6,3.6,0,0,1-1-2.26,6.68,6.68,0,0,1,.69-3.14,6.31,6.31,0,0,0,.67-1.64Z" style="fill: #dfe9f8;mix-blend-mode: multiply"/>
          <path d="M1035.49,670.65a16.78,16.78,0,0,1,1.81,7.44,5.14,5.14,0,0,1-2.85,4.76l-.22,1.48s-1.75,2.13-5.25.71l.16-1.75a3.47,3.47,0,0,1-.93-3.17,11,11,0,0,1,1.31-3.28,8,8,0,0,0,.44-2.74" style="fill: #dfe9f8"/>
          <ellipse cx="1023.12" cy="729.44" rx="5.94" ry="10.29" transform="translate(-120.15 1250.77) rotate(-60)" style="fill: #2cd4d9"/>
          <polygon points="1029.35 662.39 1029.35 668.01 1024.82 664.99 1024.82 660.66 1029.35 662.39" style="fill: #5b3427"/>
          <path d="M1026.4,665.48a16,16,0,0,0,2.1,1.12c.64.21.86-.07.86-.07V666a3,3,0,0,1,1.57,1.27c.24.4-.35,1.15-1.79,1.39a6.26,6.26,0,0,1-4.69-1.17c-1.64-1.05-1.54-2.7-1.15-2.94Z" style="fill: #dfe9f8"/>
          <path d="M1026.4,665.48a16,16,0,0,0,2.1,1.12c.64.21.86-.07.86-.07V666a3,3,0,0,1,1.57,1.27c.24.4-.35,1.15-1.79,1.39a6.26,6.26,0,0,1-4.69-1.17c-1.64-1.05-1.45-2.6-1.15-2.94a2,2,0,0,1,1.51-.55v1Z" style="fill: #dfe9f8;mix-blend-mode: multiply"/>
          <g>
            <path d="M1036,657.38c.32,3.75,1.52,4.22,1.81,6.19.45,3-6.77,2.11-9.89,1.33-4.83-1.21-6.28-4.09-6.29-5,0-2,1.48-1.83,1.78-5.44l12.85.08A23.86,23.86,0,0,0,1036,657.38Z" style="fill: #2cd4d9"/>
            <circle cx="1029.8" cy="655.51" r="6.51" style="fill: #2cd4d9"/>
          </g>
        </g>
        <path d="M1022.88,617.94c12.31-7.11,19.06-16.7,20.35-26,.52-3.76,1.81-12.8.35-15.61-2,8.22-9.75,24.39-20.7,30.71-13,7.48-29.81,11.32-46.78,11.54L971,629.44C989.67,630,1008.64,626.16,1022.88,617.94Z" style="fill: #2cd4d9;mix-blend-mode: multiply"/>
        <path d="M926.29,607.06c-26.69-15.41-26.69-40.39,0-55.8s70-15.41,96.64,0,26.69,40.39,0,55.8S953,622.47,926.29,607.06Z" style="fill: #fff;fill-opacity: 0.6000000000000001;stroke: #fff;stroke-miterlimit: 10;stroke-width: 1.97541522249319px"/>
        <path d="M926.29,601.76c-26.69-15.41-26.69-40.39,0-55.8s70-15.41,96.64,0,26.69,40.39,0,55.8S953,617.17,926.29,601.76Z" style="fill: none;stroke: #fff;stroke-miterlimit: 10;stroke-opacity: 0.5;stroke-width: 1.97541522249319px"/>
        <path d="M926.29,596.16c-26.69-15.41-26.69-40.39,0-55.8s70-15.41,96.64,0,26.69,40.39,0,55.8S953,611.57,926.29,596.16Z" style="fill: none;stroke: #fff;stroke-miterlimit: 10;stroke-opacity: 0.2;stroke-width: 1.97541522249319px"/>
        <g>
          <g>
            <polygon points="931.74 323.25 931.74 370.57 923.02 365.41 923.02 318.25 931.74 323.25" style="opacity: 0.5;fill: url(#57667ca6-0f34-4a59-9f06-7170d7218722)"/>
            <polygon points="955.53 326.92 955.53 384.35 946.82 379.18 946.82 321.93 955.53 326.92" style="opacity: 0.5;fill: url(#fc2baf37-22a5-415e-81d2-7462eb085cb4)"/>
            <polygon points="943.69 312.37 943.69 377.55 934.98 372.38 934.98 307.38 943.69 312.37" style="opacity: 0.5;fill: url(#90f3f2b1-bb0c-403c-a461-1b2d553e9595)"/>
            <polygon points="1039.86 414.52 1039.86 418.45 973.81 380.3 973.81 376.4 1039.86 414.52" style="opacity: 0.5;fill: url(#32d1e0ce-1b30-42b0-b53d-6c2dff7a1b50)"/>
            <polygon points="1039.86 421.52 1039.86 425.45 973.81 387.31 973.81 383.4 1039.86 421.52" style="opacity: 0.5;fill: url(#4ee95c77-143a-4821-8050-ebc560c3532e)"/>
            <polygon points="1007.58 410.74 1007.58 414.67 973.81 395.03 973.81 391.13 1007.58 410.74" style="opacity: 0.5;fill: url(#27b112b6-7c53-45f1-ae1a-f36cd98eeda9)"/>
            <g style="opacity: 0.5">
              <path d="M979.87,332.59c-5.48,9.49-5.48,24.86,0,34.35s14.36,9.49,19.83,0,5.48-24.86,0-34.35S985.35,323.11,979.87,332.59Zm14.79,25.62c-2.69,4.66-7.06,4.66-9.75,0s-2.69-12.22,0-16.89,7.06-4.66,9.75,0S997.36,353.55,994.66,358.21Z" style="fill: url(#96977b3f-2b94-4441-90e6-1f9db851e71b)"/>
              <path d="M986.94,373.26a3,3,0,0,0,.86.58,2.15,2.15,0,0,0,1,.19c5.28.66,10.55-3.91,13.28-12.46a40.39,40.39,0,0,0,.27-22.64l-6.28,5.87a19.88,19.88,0,0,1-.22,10.79c-1.32,4.14-3.85,6.38-6.41,6.14a2.15,2.15,0,0,0-.74-.14c-1.27,0-2.5,1.15-3.16,3.21C984.58,367.81,985.2,371.6,986.94,373.26Z" style="fill: url(#a22bb927-aee4-4611-88a4-5279d19d2bdb)"/>
            </g>
            <g style="opacity: 0.5">
              <path d="M1016.94,384.08c2.79-4.83,2.79-12.66,0-17.49s-7.31-4.83-10.1,0-2.79,12.66,0,17.49S1014.15,388.91,1016.94,384.08Zm-2.57-4.45c-1.37,2.37-3.59,2.37-5,0a9.5,9.5,0,0,1,0-8.6c1.37-2.37,3.59-2.37,5,0A9.5,9.5,0,0,1,1014.38,379.63Z" style="fill: url(#b697aa37-a325-4503-863c-f0aa89998534)"/>
              <path d="M1010.44,363.37a1.5,1.5,0,0,1,.44-.3,1.09,1.09,0,0,1,.51-.09c2.69-.33,5.37,2,6.76,6.35a20.57,20.57,0,0,1,.14,11.53l-3.2-3a10.13,10.13,0,0,0-.11-5.5c-.67-2.11-2-3.25-3.26-3.13a1.09,1.09,0,0,1-.38.07c-.65,0-1.27-.59-1.61-1.64A4.59,4.59,0,0,1,1010.44,363.37Z" style="fill: url(#1c221040-8345-425c-a05d-f5b362b8fa07)"/>
            </g>
            <g style="opacity: 0.5">
              <path d="M1025.62,377.51c-2.79,4.83-2.79,12.66,0,17.49s7.31,4.83,10.1,0,2.79-12.66,0-17.49S1028.41,372.68,1025.62,377.51Zm7.53,13c-1.37,2.37-3.59,2.37-5,0a9.5,9.5,0,0,1,0-8.6c1.37-2.37,3.59-2.37,5,0A9.5,9.5,0,0,1,1033.15,390.56Z" style="fill: url(#85804029-a93d-41d8-8c58-bfe3d44bbe1f)"/>
              <path d="M1029.22,398.23a1.5,1.5,0,0,0,.44.3,1.09,1.09,0,0,0,.51.09c2.69.33,5.37-2,6.76-6.35a20.57,20.57,0,0,0,.14-11.53l-3.2,3a10.13,10.13,0,0,1-.11,5.5c-.67,2.11-2,3.25-3.26,3.13a1.09,1.09,0,0,0-.38-.07c-.65,0-1.27.59-1.61,1.64A4.59,4.59,0,0,0,1029.22,398.23Z" style="fill: url(#a6b8dd8c-b822-4278-a219-cd726e1028bb)"/>
            </g>
          </g>
          <polygon points="1060.53 343.97 1060.53 469.55 902.24 377.6 902.24 252.24 1060.53 343.97" style="opacity: 0.7000000000000001;fill: url(#ca85e3a5-4732-4579-8fe4-5b57ed3aab91)"/>
          <polygon points="959.61 392.09 959.61 469.47 862.07 412.81 862.07 335.56 959.61 392.09" style="fill: url(#615f1cce-f495-4478-9e0a-63c66cbd249b)"/>
          <polygon points="1035.29 407.83 1035.29 445.61 1082.9 417.94 1082.9 380.23 1035.29 407.83" style="opacity: 0.7000000000000001;fill: url(#95ccdec8-6f7a-4e6d-9fa4-b67f6b8022e5)"/>
        </g>
        <path d="M906.27,579.17c0-10.1,6.67-20.19,20-27.9,26.69-15.41,70-15.41,96.64,0,12.74,7.36,19.39,16.9,20,26.54l40-159.86-221.3,1.54,44.67,159.68Z" style="fill: url(#4fee4be7-fe73-4b3e-a16d-32e289925aa5)"/>
        <g>
          <path d="M780.62,633.5l5.64,3.35c.35,20.6,12.62,24.8,13.31,25.1.19,0-.06,4-1.75,2.71a15,15,0,0,1-7.48-3.87C778.14,649.23,780.62,633.5,780.62,633.5Z" style="fill: #b7835f"/>
          <polygon points="794.86 694.67 796.73 693.6 796.73 692.9 794.86 693.96 794.86 694.67" style="fill: #120667"/>
          <path d="M792,691.18V689a2.34,2.34,0,0,1,1.41-2.15l.65-.28a2.87,2.87,0,0,1,3.1.52,55.21,55.21,0,0,1,4.76,5.16c.77.93,1.3,1.67,1.76,2.18.66.72,1.45,2,.6,2.44a3.59,3.59,0,0,1-3.06.23l-8.65-5A1.1,1.1,0,0,1,792,691.18Z" style="fill: #dfe9f8"/>
          <path d="M794.27,683.43l5.54-.88-1.92,4.18a6.81,6.81,0,0,1-2.17,2.22c-1.15.66-2.38.66-2.76,0a.87.87,0,0,1-.1-.44h0a4.75,4.75,0,0,1,.52-1.74Z" style="fill: #9e684d"/>
          <ellipse cx="796.11" cy="688.71" rx="1.95" ry="1.12" transform="translate(-237.69 490.33) rotate(-30)" style="fill: #dfe9f8"/>
          <path d="M799.39,689.36a2.65,2.65,0,0,0-1.37.39A2.41,2.41,0,0,0,796.9,691" style="fill: none;stroke: #5333ed;stroke-linecap: round;stroke-miterlimit: 10;stroke-width: 1.00233512991529px"/>
          <path d="M798.56,688.4a2.65,2.65,0,0,0-1.37.39,2.26,2.26,0,0,0-1.16,1.37" style="fill: none;stroke: #5333ed;stroke-linecap: round;stroke-miterlimit: 10;stroke-width: 1.00233512991529px"/>
          <path d="M800.27,690.43a2.46,2.46,0,0,0-1.28.36,2.24,2.24,0,0,0-1,1.15" style="fill: none;stroke: #5333ed;stroke-linecap: round;stroke-miterlimit: 10;stroke-width: 1.00233512991529px"/>
          <path d="M792,691.18a23.59,23.59,0,0,1,2.71,2,5.4,5.4,0,0,0,1,.73l5.43,3.13a3.63,3.63,0,0,0,1.54.29,2.88,2.88,0,0,0,2-1v.69a3.87,3.87,0,0,1-1.95.95,6.33,6.33,0,0,1-3.36-1.24l-4.45-2.6v.47L792,692.8Z" style="fill: #150773"/>
          <polygon points="758.15 691.8 760.22 692.4 760.72 691.92 758.66 691.31 758.15 691.8" style="fill: #120667"/>
          <path d="M758.67,687.3l1.55-1.49a2.34,2.34,0,0,1,2.52-.47l.65.27a2.87,2.87,0,0,1,1.77,2.6,54.33,54.33,0,0,1-.44,7c-.33,2.7.72,2.36,1.18,3.68.32.93-.41,2.4-1.35,2.12,0,0-2.63-.23-3.64-1.95l-2.78-10.59A1.5,1.5,0,0,1,758.67,687.3Z" style="fill: #dfe9f8"/>
          <path d="M770.15,683l.94,5.58-5.43.63a7.33,7.33,0,0,1-3.08-.52c-1.21-.53-1.83-1.48-1.62-2.21a.87.87,0,0,1,.25-.38h0a4.75,4.75,0,0,1,1.61-.83Z" style="fill: #9e684d"/>
          <ellipse cx="763.94" cy="688.92" rx="1.12" ry="1.95" transform="translate(-110.78 1230.29) rotate(-73.8)" style="fill: #dfe9f8"/>
          <path d="M765.12,691.39a2.65,2.65,0,0,0-1.23-.72,2.41,2.41,0,0,0-1.66,0" style="fill: none;stroke: #5333ed;stroke-linecap: round;stroke-miterlimit: 10;stroke-width: 1.00233512991529px"/>
          <path d="M765.23,690.13a2.65,2.65,0,0,0-1.23-.72,2.26,2.26,0,0,0-1.79.12" style="fill: none;stroke: #5333ed;stroke-linecap: round;stroke-miterlimit: 10;stroke-width: 1.00233512991529px"/>
          <path d="M765,692.77a2.46,2.46,0,0,0-1.14-.67,2.24,2.24,0,0,0-1.55,0" style="fill: none;stroke: #5333ed;stroke-linecap: round;stroke-miterlimit: 10;stroke-width: 1.00233512991529px"/>
          <path d="M758.67,687.3a23.59,23.59,0,0,1,.4,3.36,5.4,5.4,0,0,0,.16,1.22l1.9,6.26a1.87,1.87,0,0,0,.21.46,5.77,5.77,0,0,0,1.34,1.54,5.44,5.44,0,0,0,2.49.79l-.5.48a5.8,5.8,0,0,1-2.29-.37,4.4,4.4,0,0,1-2.24-3.14c-.35-1.51-1.67-6.45-1.67-6.45l-.34.33-.65-3.38Z" style="fill: #150773"/>
          <path d="M782.07,660a3.26,3.26,0,0,1-2-2.66c-.64-3.59-14.58,2.66-14.58,2.66a3.16,3.16,0,0,0-1.94,2.16c-.49,3-2.56,5.61-2.81,9.27-1,15.28,30.25,9.71,30.25,9.71-3.23-.32-10.43.06-16.88,1.11-2.67.43-5.07-.16-6.91-.22-3.46-.11-3.41,1.57-3.75,2.67a10.58,10.58,0,0,0,0,4.54s1.48,2.41,5.26.68c4.36-2,7.34,1.43,10.69,1.08,4.11-.43,5.92-2.54,9.79-3.1,8.92-1.28,13.34-7.55,7.15-10.66l-20.48-6.12s10.69,8.78,17.52,3.23c2.32-1.88,3.9-7.49,7.38-10,0,0-3,2-3.6,3.72-1,3.23-.43,1.94-.79,4.26-.31,1.93-2.5,2.2-3.34,5.48a18.17,18.17,0,0,0,0,6.28,2.87,2.87,0,0,0,2.73,2.46l.86,0a2.85,2.85,0,0,0,1.43-.32,11,11,0,0,0,4.22-3.46c1.09-1.87.57-2.42,1.91-5.12.38-.76,1-.6,1.74-2.18,1.41-3.06.57-4.8,1.34-7.8,1-4.12,1.11-7.77-.8-9.88a8.19,8.19,0,0,0-6.94-2.45c-3.23.61-3.66,2.74-5.06,3.35-2.31,1-3.53,0-5.67,1-1.55.77-2,2.82-3.17,3.23-1.76.62-3.06,0-2.68-.61C784.54,659.85,782.07,660,782.07,660Z" style="fill: #150773"/>
          <path d="M793.83,675.83s4.74.59,5.15,4c.3,2.51.11,4.51-1.37,5.67l-1.36,1.06a4.83,4.83,0,0,1-1.79-.38,8.87,8.87,0,0,0,3.45-2.57c1.28-2.26-.42-5.64-1.24-6.09-.58-.32-3.16-1.15-3.16-1.15Z" style="fill: #0c022f"/>
          <path d="M791.07,675.77s-13-4.34-14.82-6.41c0,0,2.31,0,2.85.53,1.45,1.34,10.92,4.53,12.64,5.33Z" style="fill: #0c022f"/>
          <ellipse cx="772.12" cy="658.37" rx="9.5" ry="5.49" transform="translate(-225.74 474.26) rotate(-30)" style="fill: #5333ed"/>
          <rect x="773.62" y="659.6" width="2.32" height="5.12" transform="translate(1549.56 1324.32) rotate(-180)" style="fill: #150773"/>
          <rect x="767.7" y="661.23" width="1.16" height="5.12" transform="translate(1536.56 1327.59) rotate(-180)" style="fill: #150773"/>
          <path d="M787,637s.73,8.78,2.81,13c0,0-.74,3.8-5.82,3.22,0,0-2-4.15-3.25-7.45Z" style="fill: #dfe9f8"/>
          <path d="M783.4,651.9s2.29-5.39,2.52-7.55l-.37-2s-1.91,7.17-2.52,8.7Z" style="fill: #dfe9f8;mix-blend-mode: multiply"/>
          <path d="M755.57,644s4.58,4.43,4.3,6.46c-3,21.2,18.31,24,18.31,24s-.66,3.08-.76,3.09C742,674.21,755.57,644,755.57,644Z" style="fill: #b7835f"/>
          <path d="M761.52,661.39s-1.47-8.42-1.05-12.11l-4.67-5.83s-6.26,7-3,18.81C752.82,662.27,759.26,664.48,761.52,661.39Z" style="fill: #dfe9f8"/>
          <path d="M787.7,674.86s-3.82-.37-4.07-.37l-6.18-.13L777,677.5a13.85,13.85,0,0,0,6.1,1.18l2,.45a2.15,2.15,0,0,0,1.59.73l-1-1.26-2.46-.87,3,.26a2.8,2.8,0,0,0,2.68.1l-2.2-.91-2.48-.47,2.52.1a2.58,2.58,0,0,0,2.44.65L787,676l-2.62-.43,3.31.18a2,2,0,0,0,2,0Z" style="fill: #b7835f"/>
          <rect x="778.21" y="656.29" width="1.16" height="5.12" transform="translate(1557.57 1317.71) rotate(-180)" style="fill: #150773"/>
          <path d="M758.5,641.65l.07-.12s12.07-6.85,15.57-9,5.86-1.87,5.86-1.87a7,7,0,0,1,6.66,9.33s-3.3,10.53-4.48,13.37c-.6,2.58-3,5.49-6.51,7.53-3.36,1.94-6.88,2.58-9.4,2a5.22,5.22,0,0,1-2-.92l-.64-.68c-3.06-3.31-9.44-10.75-9.44-10.75A7,7,0,0,1,758.5,641.65Z" style="fill: #dfe9f8"/>
          <ellipse cx="771.12" cy="638.85" rx="2.77" ry="4.8" transform="translate(-196.19 897.79) rotate(-54.63)" style="fill: none;stroke: #dfe9f8;stroke-linecap: round;stroke-miterlimit: 10;stroke-width: 1.24023004689982px"/>
          <path d="M767.46,638.4l0-7.86,7.31,0v10.72C774.71,643.6,768.53,641.51,767.46,638.4Z" style="fill: #9e684d"/>
          <path d="M774.76,635.72v-3.86l-7.35-.87v2.09a5.55,5.55,0,0,0,6.17,2.9A11.79,11.79,0,0,0,774.76,635.72Z" style="fill: #b7835f;mix-blend-mode: multiply"/>
          <path d="M766.57,631.77a1.43,1.43,0,0,1,.74-1.89s.05,0,.08,0l-.38-1.65a3.21,3.21,0,0,1,.92-3.08c.63-.82,1.47-2.09,2.57-2.34a4.56,4.56,0,0,1,5.5,3.36l.86,3.74c.77,3.35-.91,4.36-3.14,4.87a5,5,0,0,1-5.4-2.27A1.41,1.41,0,0,1,766.57,631.77Z" style="fill: #b7835f"/>
          <path d="M775,641.62c-.89,1.25-3.35,1-5.51-.52a5.59,5.59,0,0,1-2.62-3.94" style="fill: none;stroke: #dfe9f8;stroke-linecap: round;stroke-miterlimit: 10;stroke-width: 1.24023004689982px"/>
          <path d="M801.36,655.14a1.08,1.08,0,0,1,.78-.61,5.08,5.08,0,0,1,5,2.14,4.21,4.21,0,0,1,.6,1.76,3.36,3.36,0,0,1-.5,1.33,1.79,1.79,0,0,1-.06-1.17,9.62,9.62,0,0,0-.7-1.4l.26,1.69-.31,2a2.88,2.88,0,0,1-.36-2l-.75-1.62.47,1.59s-.23,2-.28,1.91a3.38,3.38,0,0,1-.64-2.15l-1-1.79,0,1.26.12,2-.87-1.87-.7-2.52a8.27,8.27,0,0,1-.58,1,6.49,6.49,0,0,1-.72.59Z" style="fill: #b7835f"/>
          <path d="M761,658.41s-.75-5.08,0-7.6l.51.85s0,5.82.8,8.23Z" style="fill: #dfe9f8;mix-blend-mode: multiply"/>
          <path d="M768.11,630.1s.87,1.08,1.75,1l-.84-2.73s-.1-.36.12-.5c.5-.33,2.64.67,5.74-1.39a2.37,2.37,0,0,0,.81-.87,2.1,2.1,0,0,0-.06-1.55c-.08-.27-1.48-2.73-5.71-1.55a6.86,6.86,0,0,0-2.37,1.63,1.24,1.24,0,0,0-1.1.32c-.42.37-2.19,2.17.45,5.64C766.91,630.15,767.6,629.57,768.11,630.1Z" style="fill: #0c022f"/>
        </g>
      </g>
    </g>
  </g>
</svg>
