<svg xmlns="http://www.w3.org/2000/svg" xmlns:xlink="http://www.w3.org/1999/xlink" width="147.33" height="197.33" viewBox="0 0 147.33 197.33">
  <defs>
    <linearGradient id="e03ff8eb-02c3-47c4-b83a-388f504cfee7" x1="141.2" y1="58.24" x2="119.32" y2="45.62" gradientUnits="userSpaceOnUse">
      <stop offset="0" stop-color="#5333ed" stop-opacity="0.6"/>
      <stop offset="0.53" stop-color="#2cd4d9" stop-opacity="0.2"/>
      <stop offset="1" stop-color="#2cd4d9" stop-opacity="0"/>
    </linearGradient>
    <linearGradient id="cfb732f0-a344-4b75-a739-31fcb2ccba8a" x1="83.22" y1="110.34" x2="86.09" y2="105.34" gradientUnits="userSpaceOnUse">
      <stop offset="0" stop-color="#2cd4d9" stop-opacity="0"/>
      <stop offset="0.51" stop-color="#2cd4d9"/>
      <stop offset="1" stop-color="#2cd4d9" stop-opacity="0"/>
    </linearGradient>
  </defs>
  <title>advanced-control</title>
  <g style="isolation: isolate">
    <g id="49194b43-1fae-4002-adda-85b2cb9cdf7b" data-name="figures and interactions">
      <g>
        <ellipse cx="70.85" cy="154.13" rx="51.51" ry="29.75" style="fill: #dfe9f8"/>
        <ellipse cx="70.85" cy="154.13" rx="51.51" ry="29.75" style="fill: #dfe9f8;mix-blend-mode: multiply"/>
        <g>
          <polygon points="138.53 58.48 116.39 45.95 116.39 42.36 140.26 55.68 138.53 58.48" style="fill: url(#e03ff8eb-02c3-47c4-b83a-388f504cfee7)"/>
          <circle cx="74.95" cy="22" r="1.95" style="fill: #eba87c"/>
          <ellipse cx="73.76" cy="123.52" rx="5.23" ry="3.02" style="fill: #5333ed"/>
          <ellipse cx="62.9" cy="130.15" rx="5.23" ry="3.02" style="fill: #5333ed"/>
          <path d="M59.71,112.7c-.3-6.41-1.95-20.19-1.86-22.64.14-4,2.08-14,3-18.35,1-5.09,1.9-7.36,6.76-10.55C74,56.94,78.44,56.53,81.7,59.56,83,60.79,84,71.81,83,84.86c-.48,5.85-1.89,12.45-2.22,18.42-.18,3.16-.09,6.88-.5,9.45-1.55,9.81-2.43,15.48-2.61,18,.63,1-.21,2.61-1.86,3.69s-3.5,1.19-4.13.23a1.26,1.26,0,0,1-.17-.47h0v-.08a1.64,1.64,0,0,1,0-.38c0-1.17-2.72-7.22-2.32-11,.76-7.14,1.79-12.64,2.15-16.91.61-7.29,1-17.86,1-17.86s-2,11.22-2.82,22.17v.16c.05.6.19,4.75.07,5.93-.46,9-3.61,19-3,22.13h0c.31,1-.51,2.41-2,3.38-1.65,1.08-3.5,1.19-4.13.23a1.32,1.32,0,0,1-.19-.7h0c-.83-4.28-1.75-7-2-11.1C57.81,123.57,59.9,116.64,59.71,112.7Z" style="fill: #0c022f"/>
          <polygon points="63.38 156.84 65.76 155.46 65.76 154.58 63.38 155.93 63.38 156.84" style="fill: #120667"/>
          <path d="M59.71,152.39v-2.75a3,3,0,0,1,1.8-2.74l.83-.36c1.33-.58,3.29-.63,3.95.67,1.75,3.46,7.71,8.72,8.3,9.36.84.92,1.85,2.49.76,3.11,0,0-2.17,1.22-3.9.29l-11-6.37A1.4,1.4,0,0,1,59.71,152.39Z"/>
          <path d="M59.71,152.39a30.07,30.07,0,0,1,3.45,2.6,6.88,6.88,0,0,0,1.26.93l6.92,4a4.63,4.63,0,0,0,2,.36A3.67,3.67,0,0,0,75.82,159v.88a4.93,4.93,0,0,1-2.49,1.21c-1.13,0-2.27-.39-4.28-1.59-1.71-1-5.67-3.32-5.67-3.32v.61l-3.68-2.39Z" style="fill: #5333ed"/>
          <path d="M66.35,146.74l1.78-16.25s.11-1.13-.37-1.47l0,.2a2.35,2.35,0,0,1,.21,1.27c-.42,1.38-2.49,2.44-5,2.44s-4.59-1.05-5-2.44a1.94,1.94,0,0,1,.25-1.32s0-.28,0-.31a1.92,1.92,0,0,0-.47,1.62L60.81,149h0a1.11,1.11,0,0,0,.13.57c.49.84,2.06.84,3.52,0s2.08-2,1.86-2.8Z"/>
          <polygon points="74.24 150.21 76.62 148.84 76.62 147.95 74.24 149.3 74.24 150.21" style="fill: #120667"/>
          <path d="M70.57,145.76V143a3,3,0,0,1,1.8-2.74l.83-.36c1.33-.58,3.22-.59,3.95.67,2.39,4.09,7.71,8.72,8.3,9.36.84.92,1.85,2.49.76,3.11,0,0-2.17,1.22-3.9.29l-11-6.37A1.4,1.4,0,0,1,70.57,145.76Z"/>
          <path d="M70.57,145.76a30.07,30.07,0,0,1,3.45,2.6,6.88,6.88,0,0,0,1.26.93l6.92,4a4.63,4.63,0,0,0,2,.36,3.67,3.67,0,0,0,2.51-1.23v.88a4.93,4.93,0,0,1-2.49,1.21c-1.13,0-2.27-.39-4.28-1.59-1.71-1-5.67-3.32-5.67-3.32v.61l-3.68-2.39Z" style="fill: #5333ed"/>
          <path d="M77.2,140.11,79,123.87s.11-1.13-.37-1.47l0,.2a2.35,2.35,0,0,1,.21,1.27c-.42,1.38-2.49,2.44-5,2.44s-4.59-1.05-5-2.44a1.94,1.94,0,0,1,.25-1.32s0-.28,0-.31a1.92,1.92,0,0,0-.47,1.62l3.12,18.48h0a1.11,1.11,0,0,0,.13.57c.49.84,2.06.84,3.52,0s2.08-2,1.86-2.8Z"/>
          <g>
            <g>
              <g>
                <ellipse cx="49.24" cy="87.28" rx="1.49" ry="0.86" transform="translate(-37.04 36.31) rotate(-30)" style="fill: #6e7075"/>
                <polygon points="58.85 91.23 50.39 86.38 48.11 88.2 56.67 93.12 58.85 91.23" style="fill: #6e7075"/>
                <ellipse cx="57.75" cy="92.17" rx="1.49" ry="0.86" transform="translate(-38.35 41.22) rotate(-30)" style="fill: #43414e"/>
              </g>
              <g>
                <ellipse cx="57.88" cy="92.2" rx="0.8" ry="0.46" transform="translate(-38.35 41.29) rotate(-30)" style="fill: #6e7075"/>
                <polygon points="60.81 93.06 58.49 91.72 57.27 92.69 59.63 94.06 60.81 93.06" style="fill: #6e7075"/>
              </g>
              <g>
                <ellipse cx="61.48" cy="94.33" rx="1.49" ry="0.86" transform="translate(-38.93 43.38) rotate(-30)" style="fill: #43414e"/>
                <ellipse cx="60.13" cy="93.55" rx="1.49" ry="0.86" transform="translate(-38.72 42.6) rotate(-30)" style="fill: #43414e"/>
                <polygon points="62.53 93.37 61.28 92.66 59 94.47 60.37 95.26 62.53 93.37" style="fill: #43414e"/>
              </g>
              <ellipse cx="61.08" cy="94.28" rx="1.99" ry="1.15" transform="translate(-38.96 43.17) rotate(-30)" style="fill: #6e7075"/>
              <ellipse cx="61.28" cy="94.38" rx="1.99" ry="1.15" transform="translate(-38.98 43.29) rotate(-30)" style="fill: #dfe9f8"/>
              <g>
                <ellipse cx="61.29" cy="94.4" rx="0.8" ry="0.46" transform="translate(-38.99 43.29) rotate(-30)" style="fill: #43414e"/>
                <polygon points="62.38 94.19 61.9 93.92 60.68 94.89 61.19 95.19 62.38 94.19" style="fill: #43414e"/>
                <ellipse cx="61.78" cy="94.69" rx="0.8" ry="0.46" transform="translate(-39.07 43.58) rotate(-30)" style="fill: #6e7075"/>
              </g>
              <g>
                <path d="M53.3,88.63a1.82,1.82,0,0,1,1-.51L52,86.81a1.43,1.43,0,0,0-1.08.62l2.39,1.2Z" style="fill: #6e7075"/>
                <polygon points="50.91 87.43 50.91 87.43 50.91 88.06 53.3 89.45 53.3 88.63 50.91 87.43" style="fill: #dfe9f8"/>
                <path d="M53.3,88.63h0v.82a2,2,0,0,1,1-.54v-.79A1.82,1.82,0,0,0,53.3,88.63Z" style="fill: #43414e"/>
              </g>
            </g>
            <path d="M109.1,120.46a.55.55,0,0,0-.2-.17l0,0L62.6,93.53l0,0a1.51,1.51,0,0,0-1.56.14c-.71.41-1.1,1.08-.86,1.49a.54.54,0,0,0,.18.16l0,0,46.42,26.81h0a1.64,1.64,0,0,0,1.49-.2C109,121.53,109.34,120.87,109.1,120.46Z" style="fill: #2cd4d9"/>
            <path d="M110,119.24a.92.92,0,0,0-.33-.29l0,0L64.55,92.77l0,0c-.55-.41-2.16.08-3.18.67-1.19.69-2.4,2.33-2,3a.91.91,0,0,0,.3.26L104.89,123l0,0c.58.31,2.12-.31,3.06-.85C109.16,121.49,110.37,119.93,110,119.24Z" style="fill: url(#cfb732f0-a344-4b75-a739-31fcb2ccba8a)"/>
          </g>
          <path d="M76.63,26.65C75.21,33.3,79.91,45,88.82,51.74,98,58.64,114.93,57.4,116.33,53c.61-1.93-3.58-2.77-4-2.66C98.81,54,87.71,43.44,85.69,35.52c-.66-2.59-1.3-4.62-1.87-6.18C82.47,25.62,76.64,26.63,76.63,26.65Z" style="fill: #0c022f"/>
          <path d="M83.13,28.09a6.51,6.51,0,0,0-1.91-1.63A6.57,6.57,0,0,0,79,25.64a3,3,0,0,0-2.17.34h0l-16,9.2C59,36.21,58,37.81,58.25,39l3.19,26.41,20.94-6.49,1.44-28.45A3.55,3.55,0,0,0,83.13,28.09Z" style="fill: #0c022f"/>
          <path d="M61.67,67.29h0a4.1,4.1,0,0,0,.52,2.09c1.8,3.12,7.65,3.13,13.06,0,4.53-2.62,7.13-6.53,7.14-9.6,0-.21,0-.88,0-.88L61.44,65.38Z"/>
          <path d="M61.24,63.52h0a4.1,4.1,0,0,0,.52,2.09c1.8,3.12,7.65,3.13,13.06,0,4.53-2.62,7.87-5.76,7.59-8.82L61,61.62Z" style="fill: #0c022f"/>
          <path d="M74.26,35.22c0,2.64-6.92,1.57-8.12-1.91l0-8.78,8.17,0v12" style="fill: #eba87c"/>
          <path d="M74.26,30.24V25.62l-8.11.26v2.34c.85,1.63,2.92,3.37,6.55,2.77A3.43,3.43,0,0,0,74.26,30.24Z" style="fill: #ffc398;opacity: 0.5;mix-blend-mode: multiply"/>
          <path d="M64.19,25.13a1.6,1.6,0,0,1,1.2-1.92s.05,0,.08,0l-.08-1.89a5.15,5.15,0,0,1,10.29-.43l.18,4.28C76,29,74,29.79,71.43,29.9A5.59,5.59,0,0,1,66,26.3,1.57,1.57,0,0,1,64.19,25.13Z" style="fill: #ffc398"/>
          <path d="M66.11,29S67.73,31.3,69,31.77s3.91.22,4.55,1.4A6.36,6.36,0,0,1,74.26,31l.27,1.52.12,2.6A2.37,2.37,0,0,1,72,37.57h0a7.74,7.74,0,0,1-2.67-.84c-1.29-.69-3-1.88-3.17-3.42Z"/>
          <path d="M73.63,37.11s-1.07,9.13-6,16.45a18.48,18.48,0,0,1,3.66-1.8c1.18-.22,4.4-1.2,5.93.13C77.23,51.89,77.23,43.57,73.63,37.11Z" style="fill: #dfe9f8"/>
          <polygon points="77.88 67.73 74.18 69.86 73.63 69.63 73.63 67.09 74.21 66.1 77.87 63.99 78.4 64.22 78.4 66.84 77.88 67.73" style="fill: #dfe9f8"/>
          <g>
            <path d="M118.27,40.21l1.35-2.05c.5,1-.46,2.24-.46,2.24l-.73,2.74A21.62,21.62,0,0,1,116.53,51h0a2.56,2.56,0,0,1-1.62,1.29,1.39,1.39,0,0,1-1.91-1,.77.77,0,0,1,0-.36h0s.51-8.41.53-8.7.42-4.18.42-4.18l.92-2.7c.69,1,.1,2.72.1,2.72l-.15,3.3.71-3.08,1.64-2.76a4.11,4.11,0,0,1-.65,3.11l-.31,3,.74-2.91,1-2.86a3.39,3.39,0,0,1,0,3l-.58,4Z" style="fill: #eba87c"/>
            <path d="M113.29,53.76l-.49-.11a1,1,0,0,1-.7-1.4c.38-.86.86-1.93.91-2.09h0s-.94-3.12-.72-4.17a19.46,19.46,0,0,1,1.7-3l1.4-1.22a3.37,3.37,0,0,1-.92,2.6l-.23.92a5.06,5.06,0,0,1,2.47,2.26,3,3,0,0,1,.48,2.14l-.69,1.88L115.36,53A2,2,0,0,1,113.29,53.76Z" style="fill: #ffc398"/>
          </g>
          <path d="M66,38C62,44.77,53.86,61.44,55.43,81.32l-4.71.18s-2-13.11-1.8-19.19a38.83,38.83,0,0,1,3.71-15.91c.81-1.79,3.89-6.83,3.89-6.83a11.66,11.66,0,0,1,7.68-5.62h0A2.77,2.77,0,0,1,66,38Z" style="fill: #0c022f"/>
          <ellipse cx="71.77" cy="68.99" rx="0.21" ry="0.36" style="fill: #dfe9f8"/>
          <ellipse cx="69.59" cy="69.55" rx="0.21" ry="0.36" style="fill: #dfe9f8"/>
          <ellipse cx="79.56" cy="64.18" rx="0.21" ry="0.36" style="fill: #dfe9f8"/>
          <ellipse cx="80.71" cy="62.85" rx="0.21" ry="0.36" style="fill: #dfe9f8"/>
          <ellipse cx="81.58" cy="61.25" rx="0.21" ry="0.36" style="fill: #dfe9f8"/>
          <ellipse cx="67.3" cy="69.73" rx="0.21" ry="0.36" style="fill: #dfe9f8"/>
          <g>
            <path d="M50.55,91.32s.55,2.15-.43,2.54l-.46-2.66.53-2.79c-.29-3.82.83-5.54.83-5.54h0a2.56,2.56,0,0,1,1.52-1.4c1.1-.45,1.42,1.09,1.68,1.72,0,.11,1.38,1.15,1.37,1.27s.53,4.56.16,5-.45,2.85-.45,2.85l.53.29c-.23,1-1.55.13-1.55.13L54,89.89l-.11,1.62.81.46c-.7,1.15-1.83-.1-1.83-.1s-.79.19-1,.07-.64-1.33-.64-1.33l.14-2.09Z"/>
            <path d="M51.95,80.48l2.59-.24c1.73,0,2.32.67,1.9,2.19a3.37,3.37,0,0,1-.82,1.15h0a25.36,25.36,0,0,1,1.29,3.26c.16.67.52,1.85.65,2.25a1.5,1.5,0,0,1,.06.29l.13,1.24-1.4-.81L55,88.19a3.88,3.88,0,0,1-2.84-1.7A4.41,4.41,0,0,1,51.74,84s-.51-.46-.65-.6A1.62,1.62,0,0,1,51.95,80.48Z"/>
          </g>
          <path d="M65.48,23.22s.33,2.48,1.41,2.75l-.07-3.6s0-.47.32-.57c.72-.23,3,1.73,7.45.31a3,3,0,0,0,1.29-.78,2.66,2.66,0,0,0,.46-1.9c0-.36-.84-3.82-6.39-3.86a8.66,8.66,0,0,0-3.44,1.15s-1.13-.33-1.6.2-2.53,1.87-.53,7A1.81,1.81,0,0,1,65.48,23.22Z" style="fill: #eba87c"/>
          <circle cx="65.47" cy="23.55" r="0.9" style="fill: #eba87c"/>
          <path d="M140.84,56.63c.12-.58-.48-1.07-1.07-1.07-.41,0-.68.51-.93.58s-1.24-.05-1.47.34c-.32.55.2,1.44,1.15,2s2,.55,2.3,0C141,58.15,140.65,57.56,140.84,56.63Z" style="fill: #6e7075"/>
        </g>
      </g>
    </g>
  </g>
</svg>
