<svg xmlns="http://www.w3.org/2000/svg" xmlns:xlink="http://www.w3.org/1999/xlink" width="128" height="128" viewBox="0 0 128 128">
  <defs>
    <clipPath id="e16537f9-bba5-419e-b82a-85866b908009">
      <rect x="10.08" y="20.33" width="107.85" height="87.34" style="fill: none"/>
    </clipPath>
  </defs>
  <title>advanced-new-relic</title>
  <g id="5d014243-7f25-44e6-a35b-aef1f9ede2a9" data-name="figures and interactions">
    <g>
      <g style="clip-path: url(#e16537f9-bba5-419e-b82a-85866b908009)">
        <path d="M62,93A29.65,29.65,0,1,1,91.68,63.38,29.64,29.64,0,0,1,62,93Zm55.1-40.58C112.07,29.19,84.19,15.52,54.84,21.9s-49,30.4-44,53.66,32.94,36.93,62.29,30.55,49-30.4,44-53.66Z" style="fill: #0097a0"/>
      </g>
      <path d="M62,92.55A29.17,29.17,0,1,1,91.2,63.38,29.17,29.17,0,0,1,62,92.55Zm7.39-65.91a37.94,37.94,0,1,0,37.95,37.94A37.95,37.95,0,0,0,69.42,26.64Z" style="fill: #5bc6cc"/>
      <path d="M51.59,60.47l-3.2-6.7a42.77,42.77,0,0,1-1.81-4.23l-.06.06c.1,1.2.12,2.7.14,4l.08,6.91H44.41V46.2H47.1l3.46,7A26,26,0,0,1,52,56.84l.06-.06c-.06-.72-.21-2.76-.21-4.06l0-6.52h2.25V60.47Z" style="fill: #231f20"/>
      <path d="M60.34,51.5c-1.28,0-2,1-2,2.7h3.86c0-1.69-.74-2.7-1.88-2.7Zm-2,4.37V56c0,1.44.54,3,2.58,3a3.85,3.85,0,0,0,2.6-1l.89,1.38a5.64,5.64,0,0,1-3.75,1.38c-2.95,0-4.81-2.12-4.81-5.47a5.69,5.69,0,0,1,1.3-4.08,4,4,0,0,1,3.2-1.4,4,4,0,0,1,2.87,1.07c.91.83,1.36,2.1,1.36,4.54v.47Z" style="fill: #231f20"/>
      <path d="M76.63,60.51H74.5l-1.28-4.81c-.33-1.24-.68-2.85-.68-2.85h0s-.17,1-.68,2.95l-1.26,4.7H68.44L65.59,50.18l2.25-.31L69,54.92c.29,1.3.54,2.74.54,2.74h.06a28.31,28.31,0,0,1,.6-2.8L71.51,50h2.23l1.18,4.7c.43,1.69.66,3,.66,3h.06s.25-1.59.52-2.8L77.22,50h2.35L76.63,60.51Z" style="fill: #231f20"/>
      <path d="M46.5,66.49H45.2V71h1.22a3.1,3.1,0,0,0,2.33-.6,2.4,2.4,0,0,0,.64-1.73c0-1.44-.78-2.19-2.89-2.19Zm3.3,12.35-1.24-2.21a15.74,15.74,0,0,0-2.43-3.53,1.21,1.21,0,0,0-.93-.43v6.17H42.87V64.57h4.35c3.2,0,4.64,1.86,4.64,4.08a3.65,3.65,0,0,1-3.55,3.92,10.82,10.82,0,0,1,2.21,2.85l2.1,3.42Z" style="fill: #231f20"/>
      <path d="M57.74,69.87c-1.28,0-2,1-2,2.7h3.86c0-1.69-.74-2.7-1.88-2.7Zm-2,4.37v.17c0,1.44.54,3,2.58,3a3.85,3.85,0,0,0,2.6-1l.89,1.38A5.64,5.64,0,0,1,58,79.11c-2.95,0-4.81-2.12-4.81-5.47a5.69,5.69,0,0,1,1.3-4.08,4,4,0,0,1,3.2-1.4,4,4,0,0,1,2.87,1.07c.91.83,1.36,2.1,1.36,4.54v.47Z" style="fill: #231f20"/>
      <path d="M66.21,79.07c-2.29,0-2.29-2.06-2.29-2.95V67.23a16.9,16.9,0,0,0-.21-3.05L66,63.66a12.61,12.61,0,0,1,.19,2.87v8.85c0,1.4.06,1.63.23,1.88a.64.64,0,0,0,.74.16l.37,1.4a3.55,3.55,0,0,1-1.36.25Z" style="fill: #231f20"/>
      <path d="M69,78.84V68.57l2.29-.41V78.84Zm1.13-12a1.48,1.48,0,0,1-1.46-1.51,1.5,1.5,0,1,1,1.46,1.51Z" style="fill: #231f20"/>
      <path d="M77.8,79.11c-2.85,0-4.43-2-4.43-5.36,0-3.79,2.27-5.61,4.6-5.61a3.8,3.8,0,0,1,2.89,1.13l-1.13,1.51A2.56,2.56,0,0,0,78,70,1.77,1.77,0,0,0,76.32,71a7.05,7.05,0,0,0-.43,2.91,4.2,4.2,0,0,0,.7,2.85,1.83,1.83,0,0,0,1.38.6,3,3,0,0,0,2.1-1l1.07,1.38a4.35,4.35,0,0,1-3.34,1.38Z" style="fill: #231f20"/>
      <path d="M83.2,77a.69.69,0,0,0-.19,0h-.12v.47H83c.15,0,.21,0,.26-.06a.24.24,0,0,0,.07-.17A.2.2,0,0,0,83.2,77Zm.18,1.42-.16-.28c-.17-.31-.22-.4-.28-.42h-.05v.72h-.34V76.67h.64a.48.48,0,0,1,.51.5.44.44,0,0,1-.38.47l.07.07c.1.12.41.67.41.67Zm-.3-2.08a1.23,1.23,0,1,0,1.18,1.23,1.2,1.2,0,0,0-1.18-1.23Zm0,2.76a1.53,1.53,0,1,1,1.52-1.53,1.52,1.52,0,0,1-1.52,1.53Z" style="fill: #231f20"/>
    </g>
  </g>
</svg>
