<svg xmlns="http://www.w3.org/2000/svg" width="128" height="128" viewBox="0 0 128 128">
  <title>advanced-security</title>
  <g style="isolation: isolate">
    <g id="3a8e61f1-a814-4547-a155-c46cdd46bc89" data-name="figures and interactions">
      <g>
        <g>
          <rect x="55.35" y="62.45" width="17.3" height="14.67" style="fill: none;stroke: #5333ed;stroke-linecap: round;stroke-linejoin: round;stroke-width: 3px"/>
          <path d="M58.88,62.36v-6.7a5.12,5.12,0,1,1,10.24,0v6.7" style="fill: none;stroke: #2cd4d9;stroke-linecap: round;stroke-linejoin: round;stroke-width: 3px;mix-blend-mode: multiply"/>
          <g style="mix-blend-mode: multiply">
            <path d="M64,67.79a2,2,0,1,1-2,2,2,2,0,0,1,2-2m0-3a5,5,0,1,0,5,5,5,5,0,0,0-5-5Z" style="fill: #2cd4d9"/>
          </g>
          <path d="M64.11,36c-8.76,6.7-22.57,8.33-22.57,8.33V70.08c0,11.36,11.37,25,22.57,25" style="fill: none;stroke: #5333ed;stroke-linecap: round;stroke-linejoin: round;stroke-width: 3px"/>
          <path d="M63.89,36c8.76,6.7,22.57,8.33,22.57,8.33V70.08c0,11.36-11.37,25-22.57,25" style="fill: none;stroke: #2cd4d9;stroke-linecap: round;stroke-linejoin: round;stroke-width: 3px;mix-blend-mode: multiply"/>
          <circle cx="77.74" cy="52.83" r="2.57" style="fill: none;stroke: #2cd4d9;stroke-linecap: round;stroke-linejoin: round;stroke-width: 3px"/>
          <line x1="77.74" y1="50.26" x2="77.74" y2="42.38" style="fill: none;stroke: #2cd4d9;stroke-linecap: round;stroke-linejoin: round;stroke-width: 3px"/>
          <polyline points="77.74 55.4 77.74 69.79 84.77 76.81" style="fill: none;stroke: #2cd4d9;stroke-linecap: round;stroke-linejoin: round;stroke-width: 3px"/>
          <line x1="69.12" y1="82.45" x2="69.12" y2="94.18" style="fill: none;stroke: #2cd4d9;stroke-linecap: round;stroke-linejoin: round;stroke-width: 3px"/>
          <circle cx="50.38" cy="52.83" r="2.57" style="fill: none;stroke: #5333ed;stroke-linecap: round;stroke-linejoin: round;stroke-width: 3px"/>
          <line x1="50.38" y1="50.26" x2="50.38" y2="42.38" style="fill: none;stroke: #5333ed;stroke-linecap: round;stroke-linejoin: round;stroke-width: 3px"/>
          <polyline points="50.38 55.4 50.38 69.79 43.35 76.81" style="fill: none;stroke: #5333ed;stroke-linecap: round;stroke-linejoin: round;stroke-width: 3px"/>
          <line x1="59" y1="82.45" x2="59" y2="94.18" style="fill: none;stroke: #5333ed;stroke-linecap: round;stroke-linejoin: round;stroke-width: 3px"/>
        </g>
        <path d="M64.15,102.28c-14.68,0-29.59-16.88-29.59-31.78V25.72h7V30.5h8.83V25.72h8.5v4.45H69V25.72h8.74v5.45h8.71V25.72h7V70.5c0,14.9-14.9,31.78-29.59,31.78" style="fill: none;stroke: #2cd4d9;stroke-linecap: round;stroke-linejoin: round;stroke-width: 3px;mix-blend-mode: multiply"/>
      </g>
    </g>
  </g>
</svg>
