<svg xmlns="http://www.w3.org/2000/svg" width="128" height="128" viewBox="0 0 128 128">
  <title>advanced-php7</title>
  <g id="b770a587-6e81-4fa8-85a1-9119a3d57a95" data-name="figures and interactions">
    <g>
      <path d="M27.82,53c3.67,0,6.36,1,8.07,2.85s2.33,4.42,1.85,7.64a14.27,14.27,0,0,1-1.31,4.34,12.52,12.52,0,0,1-2.9,3.84,10.45,10.45,0,0,1-4.93,2.75,25.33,25.33,0,0,1-5.49.58H17.5l-1.55,8H9.45l5.84-30H27.82Zm-7,4.78L18.41,70.29c.21,0,1,0,1.26,0,3,0,5.57,0,7.45-.81,2-.9,3.33-2.58,3.91-6.06.48-2.92-.16-4.49-1.82-5.14a9.52,9.52,0,0,0-2.44-.54,36,36,0,0,0-3.91,0C22.52,57.8,20.86,57.78,20.86,57.78Z" style="fill: #383838"/>
      <path d="M50.15,45l-1.55,8h5.8c3.17.13,5.56.65,7.16,1.76S63.68,58,63.1,61.11L60.39,75H53.84l2.59-13.27a3.48,3.48,0,0,0-.36-3c-.51-.58-1.57-.93-3.23-.93l-5.18-.07L44.3,75H37.85L43.7,45Z" style="fill: #383838"/>
      <path d="M80.07,53c3.67,0,6.36,1,8.07,2.85s2.33,4.42,1.85,7.64a14.27,14.27,0,0,1-1.31,4.34,12.52,12.52,0,0,1-2.9,3.84,10.45,10.45,0,0,1-4.93,2.75,25.33,25.33,0,0,1-5.49.58H69.75L68.2,83H61.7l5.84-30H80.07Zm-7,4.78L70.67,70.29c.21,0,1,0,1.26,0,3,0,5.57,0,7.45-.81,2-.9,3.33-2.58,3.91-6.06.48-2.92-.16-4.49-1.82-5.14A9.52,9.52,0,0,0,79,57.79a36,36,0,0,0-3.91,0C74.77,57.8,73.11,57.78,73.11,57.78Z" style="fill: #383838"/>
      <path d="M91.77,50.21V45h26.77v5.19L100.48,75h-8.1l18.74-24.8Z" style="fill: #383838"/>
    </g>
  </g>
</svg>
