<svg xmlns="http://www.w3.org/2000/svg" xmlns:xlink="http://www.w3.org/1999/xlink" width="143.67" height="197.33" viewBox="0 0 143.67 197.33">
  <defs>
    <linearGradient id="75d0ffbe-df6d-4cc8-8819-2c9648ed1110" x1="75.64" y1="144.72" x2="75.64" y2="165.55" gradientUnits="userSpaceOnUse">
      <stop offset="0" stop-color="#5333ed" stop-opacity="0.6"/>
      <stop offset="1" stop-color="#2cd4d9" stop-opacity="0"/>
    </linearGradient>
    <linearGradient id="cf2b828e-95a0-40a8-9371-3cdd55ed5aec" x1="64.4" y1="151.78" x2="64.4" y2="172.61" xlink:href="#75d0ffbe-df6d-4cc8-8819-2c9648ed1110"/>
    <linearGradient id="d3e615f8-5f91-45d4-8da6-76092ac9786d" x1="91.82" y1="82.38" x2="91.82" y2="127.59" gradientUnits="userSpaceOnUse">
      <stop offset="0" stop-color="#5333ed" stop-opacity="0.6"/>
      <stop offset="0.53" stop-color="#2cd4d9" stop-opacity="0.5"/>
      <stop offset="1" stop-color="#2cd4d9" stop-opacity="0"/>
    </linearGradient>
    <linearGradient id="b867ea47-6c16-4211-aa1c-57bcb04161ff" x1="51.7" y1="101.55" x2="51.7" y2="147.45" xlink:href="#d3e615f8-5f91-45d4-8da6-76092ac9786d"/>
  </defs>
  <title>advanced-stack</title>
  <g style="isolation: isolate">
    <g id="b1e491f0-0139-4ba3-8cb5-fd4aed3dcf66" data-name="figures and interactions">
      <g>
        <ellipse cx="72.35" cy="154.13" rx="51.51" ry="29.75" style="fill: #dfe9f8"/>
        <ellipse cx="72.35" cy="154.13" rx="51.51" ry="29.75" style="fill: #dfe9f8;mix-blend-mode: multiply"/>
        <g>
          <polygon points="72.73 145.77 72.73 170.8 78.56 174.14 78.56 144.5 72.73 145.77" style="fill: url(#75d0ffbe-df6d-4cc8-8819-2c9648ed1110)"/>
          <polygon points="61.48 152.83 61.48 177.87 67.31 181.2 67.31 151.57 61.48 152.83" style="fill: url(#cf2b828e-95a0-40a8-9371-3cdd55ed5aec)"/>
          <polygon points="88.9 82.13 88.9 142.82 94.73 146.16 94.73 80.86 88.9 82.13" style="fill: url(#d3e615f8-5f91-45d4-8da6-76092ac9786d)"/>
          <polygon points="48.78 102.35 48.78 163.05 54.61 166.38 54.61 101.08 48.78 102.35" style="fill: url(#b867ea47-6c16-4211-aa1c-57bcb04161ff)"/>
          <path d="M90.07,29.7l0,0A4.87,4.87,0,0,0,88,27.54l-.12-.06,0,0s-3.7,18.47-3.28,17.74c1.26,16.16,2,39.94,2,39.94-.11,1.78,1.33,2.26,2.6,2.28,1.53,0,2.27-.59,2.38-1.32C91.52,86,96.07,38.35,90.07,29.7Z" style="fill: #5333ed"/>
          <path d="M85.52,61s6.12,2.58,7.65-2.29c0,0,.18-13.3-.45-17.81,0,0-3.68-4.43-3.64-2,.08,4.83-1.27,9-4,13.87Z" style="fill: #2cd4d9"/>
          <g>
            <path d="M68.68,123.47c0,.11,0,.32-.08.59l.08-.57Z" style="fill: none"/>
            <polygon points="68.6 124.06 68.6 124.06 68.6 124.06 68.6 124.06" style="fill: none"/>
            <path d="M71.35,105c.61-7.29,1-17.86,1-17.86s-2.64,27.07-2.76,28.25c-.1,1.86-.63,5.88-1,8.11v.07C68.83,122.8,71,109.12,71.35,105Z" style="fill: none"/>
            <polygon points="82.25 152.46 82.26 152.46 80.57 151.49 82.25 152.46" style="fill: none"/>
            <path d="M86.73,151.59v0c.13-.74-.59-1.8-1.22-2.49s-5.83-5.19-8.24-9.26a1.32,1.32,0,0,0,0-.57h0s1.24-8.93,2.39-17c.33-2.35.51-7.94.88-8.75,2.84-6.27,3.14-24.52,3.63-30.37,1.07-13.05-1.43-17.63-2.75-18.86-3.26-3-7.32-4.22-13.77,0-4.86,3.19-7.12,5-8.15,10.12-.88,4.35-1.15,10.86-1.57,14.84C56.73,100.33,60.65,118,60.65,118c-4.12,6.38-.88,30-.88,30.81v4.81L63.44,156h0l.52-.3,5.15,3c2,1.19,3.15,1.62,4.28,1.59a4.93,4.93,0,0,0,2.49-1.21v-.86c.13-.74-.59-1.8-1.22-2.49s-6.42-5.79-8.24-9.26a1.32,1.32,0,0,0,0-.57h0s1.74-18.07,2.2-21.85h0c0-.27.94-6.82,1-8.68.12-1.18,2.67-26.25,2.67-26.25S72,97.7,71.35,105c-.1,1.21-.3,10-.3,10-2.37,8.49-.43,29.93-.43,29.93V147l3.67,2.38h0l.52-.3,5.15,3c2,1.19,3.15,1.62,4.28,1.59a4.93,4.93,0,0,0,2.49-1.21Zm-4.47.87-1.68-1,1.68,1Z" style="fill: #5333ed"/>
          </g>
          <path d="M81.54,110.23a10.12,10.12,0,0,1-4.67.69s-1.34.29-2.09-2.12.42-12.08,0-12.92-1.33-.82-1.33,1.42-.33,8.74,0,11.24-2.31,2-2.29,1.16l-.23-1.27L72.07,90a13.75,13.75,0,0,0,8.61-3.71c1.79-1.63,3-3.91,3.79-1.87s-1.8,24.26-2,24.94C82.48,109.39,82.44,110.07,81.54,110.23Z" style="fill: #2cd4d9"/>
          <path d="M73.87,89.75s-1.94,17.86-2,20.48a.36.36,0,0,1-.2.05c-.12,0-.52-.17-.61-1.25l-.13-.69.41-7.47L72.07,90Z" style="fill: #2cd4d9;mix-blend-mode: multiply"/>
          <path d="M58.18,84.8a13.44,13.44,0,0,1,3.14-.54c1.33,0,9.19,2.66,10.78,6.12L70,111.55s-.67,1.37-1.62,1.66a6.45,6.45,0,0,1-6.08-1.42l-.83-19.08s-1.08-.92-1.42.08.25,15.77.08,17.43-.92,2-1.17,1.65-3.36-17.13-1.87-24A13.32,13.32,0,0,1,58.18,84.8Z" style="fill: #2cd4d9"/>
          <path d="M90.15,87.29l-2.71-3.34c1.88-1.51,6.78-5.46,7-5.63s2.35-2,2.35-2l2.62-.88c-.22,1.27-1.86,1.66-1.86,1.66l-2,1.91,3.69-2.33,3.37-.43a3.29,3.29,0,0,1-2.88,1.46l-2.75,2.15L100,78l2.87-1a3.58,3.58,0,0,1-2.64,2.19l-3.47,2.51,3.79-2.08,2.84-.09a3.87,3.87,0,0,1-3,1.48l-4.58,3,1.71-.36a2.35,2.35,0,0,1,2.58-.05,46.74,46.74,0,0,1-5.3,2.6c-.56.2-4.7,1.11-4.7,1.11Z" style="fill: #5333ed"/>
          <path d="M53.23,43.57l0,0a4.87,4.87,0,0,1,2.06-2.12l.12-.06,0,0L77.72,28.48a14.63,14.63,0,0,1,6.35-1.81,7.84,7.84,0,0,1,1.09.08,8.38,8.38,0,0,1,3.56,1.14c1.89,1.09,2,4.37,2.3,5.75,0,0-6.14,19.87-6.52,20.86l-1,8.64c-1,5.19-.83,6.43-6.5,9.71-6.89,4-12.79,3.51-15.08-.47a10.8,10.8,0,0,1-.62-3.47l-1.55-7.46,0-.21a8.46,8.46,0,0,0-.92-2.16c-1.26,16.16-2,40.54-2,40.54.11,1.78-1.33,2.26-2.6,2.28-1.53,0-3.25-1.44-3.37-2.16C50.8,99.62,47.23,52.22,53.23,43.57Z" style="fill: #5333ed"/>
          <path d="M68.19,35.62l0-9.4,8.75,0V39C76.87,41.84,69.48,39.34,68.19,35.62Z" style="fill: #5333ed"/>
          <path d="M76.93,32.54l0-5-8.79-.14,0,3c1.35,1.7,2.89,2.8,6.66,2.72A4.4,4.4,0,0,0,76.93,32.54Z" style="fill: #5333ed;mix-blend-mode: multiply"/>
          <path d="M56.3,101.12l-2-3.81c-2.13,1.12-7.7,4.05-7.93,4.16s-2.74,1.38-2.74,1.38l-1.85,2.06c1.26.3,2.26-1,2.26-1l2.56-1.12L43,105.2l-1.74,2.92a3.29,3.29,0,0,0,2.48-2.06l3.07-1.67-2.94,2.13-2.05,2.24a3.58,3.58,0,0,0,3.05-1.56L48.56,105l-3.42,2.65-1.21,2.57a3.87,3.87,0,0,0,2.54-2.14l4.55-3-1,1.42s-1.47,1-1.07,2.34A46.74,46.74,0,0,0,53.42,105c.41-.43,2.88-3.87,2.88-3.87Z" style="fill: #5333ed"/>
          <path d="M48.78,76.55l1,15.25a2.77,2.77,0,0,0,1.32,1.92c1.08.5,3.25-1.75,3.5-2.5a16,16,0,0,1,2.55-1.14l0,1a.83.83,0,0,0,.29-.16c.16-.12.69-14.12.69-14.12l-.35-.24-.05,1.3a1.74,1.74,0,0,1-1.17,1.82,2.49,2.49,0,0,1-3.25-1.42C52.73,76.92,50.17,74.63,48.78,76.55Z" style="fill: #5333ed"/>
          <path d="M48.78,76.55l.32-.87s1.35-1.42,3.08.27,1.52,1.85,1.71,2.15a1.84,1.84,0,0,0,1.88,1.1c1.32-.07,1.93-2.65,1.93-2.65l.35.24a5.37,5.37,0,0,1-.78,2.35,2.34,2.34,0,0,1-2.91.41s-.63-.21-1.25-1.57a4.13,4.13,0,0,0-2.91-2.16A1.7,1.7,0,0,0,48.78,76.55Z" style="fill: #150773"/>
          <path d="M50.43,93.79s.9,1.42,3.2-.48a13.44,13.44,0,0,0,1.3-1.53l1.77-.89v.67l.36,0,.06-1.52a15.53,15.53,0,0,0-2.55,1.14,6.48,6.48,0,0,1-2.7,2.49,1.21,1.21,0,0,1-1.44-.46Z" style="fill: #5333ed;mix-blend-mode: multiply"/>
          <path d="M85.3,63.76l.83,13.09a2.38,2.38,0,0,0,1.13,1.64c.93.43,2.79-1.5,3-2.15a12.3,12.3,0,0,1,2.08-.94l-.06.85a.66.66,0,0,0,.27-.13c.13-.11.7-12.17.7-12.17l-.3-.21,0,1.12a1.49,1.49,0,0,1-1,1.56,2.14,2.14,0,0,1-2.79-1.22C88.69,64.08,86.49,62.11,85.3,63.76Z" style="fill: #5333ed"/>
          <path d="M85.3,63.76l.27-.75a1.77,1.77,0,0,1,2.65.23c1.48,1.45,1.3,1.59,1.47,1.84A1.58,1.58,0,0,0,91.3,66C92.43,66,93,63.76,93,63.76l.3.21a4.61,4.61,0,0,1-.67,2,2,2,0,0,1-2.5.35S89.54,66.15,89,65a3.55,3.55,0,0,0-2.5-1.85A1.46,1.46,0,0,0,85.3,63.76Z" style="fill: #150773"/>
          <path d="M86.24,77.71s.91,2.62,3.22.43a11.53,11.53,0,0,0,1.11-1.31l1.37-.76v.58l.31,0,.08-1.28a12.8,12.8,0,0,0-2.08,1,5.56,5.56,0,0,1-2.31,2.13s-.77.39-1.71-1.24Z" style="fill: #5333ed;mix-blend-mode: multiply"/>
          <path d="M56.73,100.33s-1.58,3.07-3.11,3.68-3.79,1.77-5.91.59-1.92-2.82-1.86-3,.23-.48.89-.83l6.3,1.93,3.75-3.13Z" style="fill: #150773"/>
          <path d="M50.7,98.09s1.47,1.69,6.1.89l0,.89-4.5,1.2S50.7,99,50.7,99l0-.23Z" style="fill: #5333ed;mix-blend-mode: multiply"/>
          <path d="M50.74,98.72l-4,2.06s-1.34,1.14.63,3,6.05-.32,6.05-.32,2.84-2.22,3.36-3.85C56.78,99.59,51.92,100.94,50.74,98.72Z" style="fill: #5333ed"/>
          <path d="M49.75,70.95A6.83,6.83,0,0,0,58,71s.53-11.94,1.37-17.76-3.06-6.68-3.06-6.68-5.17-1-5.87,7.13C49.75,61.57,49.73,67.14,49.75,70.95Z" style="fill: #2cd4d9"/>
          <path d="M51.13,49.8l-.78,5.87a5.33,5.33,0,0,0,6.44,0,7.07,7.07,0,0,0,2-2.12.63.63,0,0,1,.59-.29l-.59,5.79.93,2,.5-8.67,0-.05s4.85,1.25,5.45-4c0,0,.67-4.78-1.07-8.12a6.23,6.23,0,0,0-3-2.47l-1,.56Z" style="fill: #5333ed;mix-blend-mode: multiply"/>
          <path d="M59.59,51s3.72,1.28,4.64-1.47,1.44-9.37-3.57-11.23S47.22,43.88,50.43,53.72a4,4,0,0,0,5.21.78s1.81-1.15,2.09-2.4S59.59,51,59.59,51Z" style="fill: #5333ed"/>
          <ellipse cx="78.28" cy="47.63" rx="4.01" ry="3.04" transform="translate(-13.33 45.52) rotate(-30)" style="fill: #dfe9f8"/>
          <path d="M68.18,33.76s0,2.58,3.79,3.75,4.88,2.67,4.92,2.92a31.07,31.07,0,0,1,.91-5.33,4.36,4.36,0,0,0,.08-3.39c-.18-.3-.52-.71-.52-.71l-.43.19v4.11s-.1,1-.4,2.82a23.4,23.4,0,0,0-2.87-1.93,26.49,26.49,0,0,1-5.49-4.23Z" style="fill: #5333ed;mix-blend-mode: multiply"/>
          <path d="M65.81,35.35s.33-2.78,2.37-2.79a9.56,9.56,0,0,0,5,4.29c3.4,1.17,4.38,3,4.38,3l-.59,1.08S68.68,39.52,65.81,35.35Z" style="fill: #5333ed"/>
          <path d="M65.81,35.35s2.94,3.18,5.1,3.73l-.53.49s-3.68-1.33-5.25-3.83Z" style="fill: #5333ed;mix-blend-mode: multiply"/>
          <path d="M92.61,38.19l-6.86-5.37-6.26-5.17-1.18,2.42a10.75,10.75,0,0,1,1,.69,4.28,4.28,0,0,1,1,3.14h.53A3.83,3.83,0,0,0,80.66,32a10.88,10.88,0,0,1,2.41,3.53c1,2.51,1.93,3.79,4.32,4,.73.05,1.26-.45,1.69-.54v1c.06,5.63-4,12.89-4,12.89l.06.92s1.78-2.7,3.34-5.57C89.6,46,90,42.63,90.12,41c.53.76,1.55,2,2.74,2Z" style="fill: #5333ed;mix-blend-mode: multiply"/>
          <path d="M78.18,29s3.25.53,6,6.89c.88,2,3.44,3.19,4.22,2.35a1,1,0,0,1,1.81.84c-.09.94,1.81,3.2,2.58,2.91a1.67,1.67,0,0,0,1-1.61c0-.49,0-9.91-3.19-12.42s-7-3.14-11.95-1Z" style="fill: #5333ed"/>
          <g>
            <path d="M66.43,26.36l-.79-1.86A5.51,5.51,0,0,1,75.8,20.2l2.37,5.1c2.57,4.79-.27,5.6-2.68,6.39s-5.76-.56-7.42-2.43A19.39,19.39,0,0,1,66.43,26.36Z" style="fill: #5333ed"/>
            <path d="M78.18,25.3,75.8,20.2a5.25,5.25,0,0,0-1.5-2s-1.92-1-1.56-.08l2.4,3.1L74,22.15,71.4,19.93a.8.8,0,0,0-1.17,0l-.81.85a1.84,1.84,0,0,0-.16,2.39l1.26,1.54-.82,2.23,4.6,2.56.37,2.41a4.88,4.88,0,0,0,.83-.18C77.9,30.9,80.74,30.09,78.18,25.3Z" style="fill: #2cd4d9"/>
            <g>
              <path d="M72.36,25.29a11.47,11.47,0,0,0,2.8-1.56l-.27-.61a27.68,27.68,0,0,1-2.7,1.74Z" style="fill: #fff"/>
              <path d="M76.44,21.56a2.79,2.79,0,0,1-.65.82l.34.58a3.43,3.43,0,0,0,.55-.89Z" style="fill: #fff"/>
            </g>
            <path d="M74.29,29.47l.56.25.4-1.15s2.52-2.44,3.28-2.61l.11.27a12.82,12.82,0,0,0-3.21,2.63L75,30.07l-.68-.27Z" style="fill: #5333ed"/>
          </g>
          <path d="M58.55,81.6s3.18-1.12,7.53,1.1a14.77,14.77,0,0,1,6.23,6.9s4.23-.22,6.08-3.56a34.92,34.92,0,0,1,6-8.25v-.91A30.64,30.64,0,0,0,79,83.64c-1,1.85-2.31,4.91-6.31,5.24,0,0-2.44-4.72-5.6-6.41s-5.62-2.41-8.44-1.54Z" style="fill: #5333ed;mix-blend-mode: multiply"/>
          <path d="M60.65,118a8.39,8.39,0,0,1,5.41,2.59s1.55,2.87,3,.16l-.13,1s-.54,1.61-2.43.73c-1.56-.73-1.71-2-3.18-2.73-1.8-.94-2.79-.94-3.16-.8Z" style="fill: #5333ed;mix-blend-mode: multiply"/>
          <path d="M71.05,115a2.77,2.77,0,0,1,2.43.38c1.25.84,2.38,1.84,3.91,1.81s2.49-.93,3-3.25l.12-.44s-.62,1.78-1.91,2.19-2.65.13-4.75-1.41a2.52,2.52,0,0,0-1.66-.41c-1,.09-1.16.5-1.16.5Z" style="fill: #5333ed;mix-blend-mode: multiply"/>
          <g style="mix-blend-mode: multiply">
            <path d="M96.8,81.72,99.18,80a2.42,2.42,0,0,0-.38-1.24l-1.87,1.11,1.72-1.34a3.07,3.07,0,0,0-1.07-.81L95.5,79l1.61-1.5a5.86,5.86,0,0,0-1.4-.29l-1.28,1.08-1.87,1.52.35,2.62L91.83,85a13.15,13.15,0,0,0,4.29-1.2l2.52-1.64a5.47,5.47,0,0,0,.51-1.78Z" style="fill: #5333ed"/>
          </g>
          <path d="M91.3,85.74s4.7-.51,6.59-2.58a3.34,3.34,0,0,0,.49-2l-6.62,3.12-.47,1.13Z" style="fill: #150773"/>
          <path d="M95,77.85s5.07.2,2.87,4.88a12.37,12.37,0,0,1-6.54,2.65l1-2.5L92,80.29Z" style="fill: #5333ed"/>
          <path d="M92,80.29l-.25,3a3.28,3.28,0,0,1-1.12,2.31l.69-.19a4.26,4.26,0,0,0,1.18-5.49Z" style="fill: #5333ed;mix-blend-mode: multiply"/>
          <path d="M59.77,152l3.75,2.16.47-1.55a13.7,13.7,0,0,0,4.35,3.92,8.8,8.8,0,0,1,4.17-2.81l-.4-.39a7.7,7.7,0,0,0-3.87,2.52,23.33,23.33,0,0,1-4.46-4.33l-.56,1.79-3.44-1.91Z" style="fill: #5333ed;mix-blend-mode: multiply"/>
          <path d="M72.1,153.3l.63-.21s-5-5.32-6.33-6.6l-6.77,1s-.26,2.69-.39,3.65l.53.26,3.88-.77Z" style="fill: #5333ed"/>
          <path d="M70.63,145.36l3.75,2.16.47-1.55a13.7,13.7,0,0,0,4.35,3.92,8.8,8.8,0,0,1,4.17-2.81l-.4-.39a7.7,7.7,0,0,0-3.87,2.52,23.33,23.33,0,0,1-4.46-4.33l-.56,1.79-3.44-1.91Z" style="fill: #5333ed;mix-blend-mode: multiply"/>
          <path d="M83,146.69l.63-.21s-5-5.32-6.33-6.6l-6.77,1s-.26,2.69-.39,3.65l.53.26L74.5,144Z" style="fill: #5333ed"/>
          <path d="M83.18,59.11a34.31,34.31,0,0,1-1.83-4.84C80.78,52.6,75.65,52.9,75,56c-.88,4-5.6,6.15-5.6,6.15a18.17,18.17,0,0,1-9.28,1V64s3,1.1,9.28-.93l0,0c.11,2.14.43,7.66.93,11.14-3.44-6.33-9.07-5.25-9.07-5.25l0,.78C66.91,68.6,71.08,77,71.08,77v0a3.72,3.72,0,0,0,2.86,1.89s4.81-1.78,5.74-2.37,1.62-3,1.62-3l1.51-6.95.15-.68A6.1,6.1,0,0,0,82,68l1-8a.62.62,0,0,0,.78,0l.1-.83C83.62,59.43,83.18,59.11,83.18,59.11Zm-8-1.68c.73-3.38,4.92-3.72,5.41-2.3.36,1,.84,2.47,1.26,3.46a3.15,3.15,0,0,1-3,2.13,13.63,13.63,0,0,1-5-.74h0A6,6,0,0,0,75.16,57.43Zm-.87,20.06s-2,.49-2.61-2c-.06-.25-.11-.56-.17-.89A5.5,5.5,0,0,1,74,76a7.8,7.8,0,0,0,1.38,1.07Zm6.28-5.12S80,75,79.19,75.47a28.47,28.47,0,0,1-3,1.3,8.88,8.88,0,0,1-1.88-1.42,8.68,8.68,0,0,0-2.9-1.58c-.2-1.39-.38-3.15-.53-4.87.55.18,1.48.51,2.37.88,1.3.55,2.31,1.25,3.91,2a3.16,3.16,0,0,0,3.26-.29,3.12,3.12,0,0,0,.35-.49Zm.36-2.8h0c-.23,1.8-2.31,2.82-4.62,1.27a23.06,23.06,0,0,0-5.51-2.41c-.18-2.13-.32-4.08-.38-5.07.77.32,3.41,1.4,5.57,2.32,3.31,1.4,4.33.52,4.65.18s.6-.73.94-1.19Zm.78-6a13.34,13.34,0,0,1-1.17,1.67c-.85,1-2.95.47-4.66-.28s-5.5-2.3-5.5-2.3a11.45,11.45,0,0,0,3.11-2.28,13,13,0,0,0,5.5.83,3.3,3.3,0,0,0,3.09-2.08c.06.12.12.22.17.31Z" style="fill: #5333ed;mix-blend-mode: multiply"/>
        </g>
      </g>
    </g>
  </g>
</svg>
