<svg xmlns="http://www.w3.org/2000/svg" width="144" height="197.33" viewBox="0 0 144 197.33">
  <title>advanced-speak</title>
  <g style="isolation: isolate">
    <g id="75bc9152-2a2d-4bd3-8d33-d83369112c16" data-name="figures and interactions">
      <g>
        <ellipse cx="77.85" cy="154.13" rx="51.51" ry="29.75" style="fill: #dfe9f8"/>
        <ellipse cx="77.85" cy="154.13" rx="51.51" ry="29.75" style="fill: #dfe9f8;mix-blend-mode: multiply"/>
        <g>
          <path d="M31.25,74.33c4.94-2.11,6-5.47,6-5.47a6.24,6.24,0,0,0,.2-3.44c-.56-1.09-2.7-.07-2.77,0S28.65,70.81,28.45,71s-2.72,3.37-2.72,3.37l.76.73,2.28-2.53-1.72,2.77,1,.46L30,73.42Z" style="fill: #eba87c"/>
          <ellipse cx="74.91" cy="123.52" rx="5.23" ry="3.02" style="fill: #5333ed"/>
          <ellipse cx="85.77" cy="130.15" rx="5.23" ry="3.02" style="fill: #5333ed"/>
          <polygon points="85.29 156.84 82.92 155.46 82.92 154.58 85.29 155.93 85.29 156.84" style="fill: #120667"/>
          <path d="M89,152.39v-2.75a3,3,0,0,0-1.8-2.74l-.83-.36c-1.33-.58-3.29-.63-3.95.67-1.75,3.46-7.71,8.72-8.3,9.36-.84.92-1.85,2.49-.76,3.11,0,0,2.17,1.22,3.9.29l11-6.37A1.4,1.4,0,0,0,89,152.39Z"/>
          <path d="M89,152.39a30.07,30.07,0,0,0-3.45,2.6,6.88,6.88,0,0,1-1.26.93l-6.92,4a4.63,4.63,0,0,1-2,.36A3.67,3.67,0,0,1,72.86,159v.88a4.93,4.93,0,0,0,2.49,1.21c1.13,0,2.27-.39,4.28-1.59,1.71-1,5.67-3.32,5.67-3.32v.61L89,154.45Z" style="fill: #5333ed"/>
          <path d="M82.33,146.74l-1.78-16.25s-.11-1.13.37-1.47l0,.2a2.35,2.35,0,0,0-.21,1.27c.42,1.38,2.49,2.44,5,2.44s4.59-1.05,5-2.44a1.94,1.94,0,0,0-.25-1.32s0-.28,0-.31a1.92,1.92,0,0,1,.47,1.62L87.86,149h0a1.11,1.11,0,0,1-.13.57c-.49.84-2.06.84-3.52,0s-2.08-2-1.86-2.8Z"/>
          <polygon points="74.43 150.21 72.06 148.84 72.06 147.95 74.43 149.3 74.43 150.21" style="fill: #120667"/>
          <path d="M78.11,145.76V143a3,3,0,0,0-1.8-2.74l-.83-.36c-1.33-.58-3.22-.59-3.95.67-2.39,4.09-7.71,8.72-8.3,9.36-.84.92-1.85,2.49-.76,3.11,0,0,2.17,1.22,3.9.29l11-6.37A1.4,1.4,0,0,0,78.11,145.76Z"/>
          <path d="M78.11,145.76a30.07,30.07,0,0,0-3.45,2.6,6.88,6.88,0,0,1-1.26.93l-6.92,4a4.63,4.63,0,0,1-2,.36A3.67,3.67,0,0,1,62,152.42v.88a4.93,4.93,0,0,0,2.49,1.21c1.13,0,2.27-.39,4.28-1.59,1.71-1,5.67-3.32,5.67-3.32v.61l3.68-2.39Z" style="fill: #5333ed"/>
          <path d="M71.47,140.11l-1.78-16.25s-.11-1.13.37-1.47l0,.2a2.35,2.35,0,0,0-.21,1.27c.42,1.38,2.49,2.44,5,2.44s4.59-1.05,5-2.44a1.94,1.94,0,0,0-.25-1.32s0-.28,0-.31a1.92,1.92,0,0,1,.47,1.62L77,142.34h0a1.11,1.11,0,0,1-.13.57c-.49.84-2.06.84-3.52,0s-2.08-2-1.86-2.8Z"/>
          <path d="M90.06,119.56c0-5.37-1.48-23.18-1.7-25.62a229.7,229.7,0,0,0-4.58-23.66l0-.11c-.36-3.58-3.65-7.85-8.69-10.76-6.68-3.86-13.9-3.86-16.13,0a4.92,4.92,0,0,0-.61,2h0s-1.78,6.3.85,19.6a4.1,4.1,0,0,0,.17.9S62.05,92,66.21,108.44c.66,2.62,1.22,5,1.69,7.18a17.3,17.3,0,0,1-.23,5.6c-1.5,7.65,14,9.57,13.67,2.75-.22-4.55-5.33-10.77-5.45-12.53l0-.22s0-.07,0-.11c-.41-5.24-2.85-23-3.15-25.11l1.08.69s.69,2.22,1,3.3h0a4.58,4.58,0,0,0,.33,1.22,205.72,205.72,0,0,1,5.26,25l0,.16a2.68,2.68,0,0,0,.06.49,27.92,27.92,0,0,1-.76,9.65c-2.3,8.17,12.74,10.78,13.08,2.92C92.89,126.26,90.07,121.12,90.06,119.56Z" style="fill: #0c022f"/>
          <path d="M85.22,71.8s-1.62,0-1.49,4.16a4.33,4.33,0,0,0,2.91,4.16l-1-6.75Z" style="fill: #dfe9f8;mix-blend-mode: multiply"/>
          <path d="M88.52,92.35,91.57,71.8H86.29L84.54,91.41c-.52,2.23-1.89,8.06-2,8.29s-.88,4.2-.88,4.2l.32,2.61c1-.71.66-2.28.66-2.28l.84-3.26-.36,3.47,1,3.07a3.13,3.13,0,0,0,.06-3.06l.71-3.25-.3,3.44.33,2.87a3.4,3.4,0,0,0,.79-3.16l.73-4,0,3.68,1.11,1.74a3.13,3.13,0,0,0-.3-2.23l.37-3a22.06,22.06,0,0,0,.9-8.18Z" style="fill: #ffc398"/>
          <path d="M90.19,42.54l0,0a4.87,4.87,0,0,0-2.06-2.12L88,40.32l0,0L65.7,27.45a14.63,14.63,0,0,0-6.35-1.81,7.84,7.84,0,0,0-1.09.08,8.38,8.38,0,0,0-3.56,1.14,6.91,6.91,0,0,0-3.45,4h0c-1.42,3,5.86,20.23,6.23,21.22v7.62h0c-.21,3.87,3.3,8.81,9,12.08,6.89,4,14.33,4,16.63,0a5.05,5.05,0,0,0,.62-1.9h0v0a6.27,6.27,0,0,0,0-1.53V60.4l0-.21A8.46,8.46,0,0,1,84.66,58c1.26,16.16.52,16.86.52,16.86l-1,16.65c-.11,1.78,1.33,2.26,2.6,2.28,1.53,0,2.27-.59,2.38-1.32,0-.1,2.29-12.26,3-16C94.66,63,94.31,49.57,90.19,42.54Z" style="fill: #5333ed"/>
          <polygon points="84.66 58.02 83.83 49.99 83.19 50.78 83.72 60.04 84.66 58.02" style="fill: #5333ed;mix-blend-mode: multiply"/>
          <ellipse cx="70.84" cy="35.13" rx="5.74" ry="3.31" transform="translate(-7.26 47.5) rotate(-35.37)" style="fill: none;stroke: #0c022f;stroke-linecap: round;stroke-miterlimit: 10;stroke-width: 1.5px"/>
          <path d="M75.23,34.6l0-9.4-8.75,0V38C66.56,40.82,73.94,38.32,75.23,34.6Z" style="fill: #eba87c"/>
          <path d="M66.49,32.56l0-6,8.72-.14v2.5c-1.25,2.19-2.83,4.38-7.12,4A10.86,10.86,0,0,1,66.49,32.56Z" style="fill: #ffc398;opacity: 0.5;mix-blend-mode: multiply"/>
          <path d="M77.32,25.48c.12-.55.8-3.26.46-3.66S76.66,22.9,76,23.44c0,0-.07,0-.09,0l0-2a5.51,5.51,0,0,0-11-.26l-.33,5.61c-.63,5.4,2.31,5.11,4.84,5s5.15-2.64,6-5A1.69,1.69,0,0,0,77.32,25.48Z" style="fill: #ffc398"/>
          <path d="M76,32.93a6.83,6.83,0,0,1-3.18,4.9c-2.58,1.83-5.54,2.11-6.6.62A2.38,2.38,0,0,1,65.79,37" style="fill: none;stroke: #0c022f;stroke-linecap: round;stroke-miterlimit: 10;stroke-width: 1.5px"/>
          <path d="M84.32,89.45a2.84,2.84,0,0,0,2.31,1.25,3.61,3.61,0,0,0,3-.62l.23-1.25a3.44,3.44,0,0,1-2.93.5C84.88,89,84.41,88,84.41,88Z" style="fill: #dfe9f8"/>
          <path d="M84.46,86.9a3.27,3.27,0,0,0,2.48,1.43,4,4,0,0,0,3.14-.68l.23-1.25a3.79,3.79,0,0,1-3.07.55,3.68,3.68,0,0,1-2.7-1.53Z" style="fill: #dfe9f8"/>
          <path d="M70.84,39.76S67,41.25,66.52,41.6A9.13,9.13,0,0,1,65,37.45L67.16,39Z" style="fill: #0c022f"/>
          <path d="M73.95,52.28c-.39-.13-.28-1.89,1-4a.12.12,0,0,1,.19,0,10.22,10.22,0,0,1,1.35,4.44s-.1.13-.14,0-.39-1.27-.86-1.47a.3.3,0,0,0-.12,0C74.38,51.66,74.22,52.37,73.95,52.28Z" style="fill: #dfe9f8"/>
          <path d="M65.34,20.29a5.06,5.06,0,0,0,2.61,1.28c1.49.25,3.61-.32,4.45-.17s1.15.59,1.2,2.35A3.1,3.1,0,0,1,73,26s.76,0,1.21-1.44A8.38,8.38,0,0,0,76,23.44a4.91,4.91,0,0,0,.44-.43s1.61-4.88-2.52-6.68A6.71,6.71,0,0,0,65.25,19a5.83,5.83,0,0,0-.36,4.1A20,20,0,0,1,65.34,20.29Z"/>
          <path d="M35.22,65.3a3,3,0,0,1,2,3.86l-.46.2a1.39,1.39,0,0,0,.82.25c.47,0,11.58-5.89,13.5-7.44,1-.78,4.72-2.77,6.41-9.39l4.29-25.07-10.7,4.09s.84,16.65-3.47,22.83c-1,1.42-12.74,10.63-13.08,11.06Z" style="fill: #5333ed"/>
          <path d="M57.47,52.11l-3.81-9.92-.4,1a106.18,106.18,0,0,1,3.6,11.62,11.85,11.85,0,0,0,.62-2Z" style="fill: #5333ed;mix-blend-mode: multiply"/>
          <path d="M36.68,63.87s3.27.14,3.21,4.63l1.26-.64a4.77,4.77,0,0,0-.78-3.34A4.26,4.26,0,0,0,37.8,63Z" style="fill: #dfe9f8"/>
          <path d="M38.64,62.29A3.28,3.28,0,0,1,41.25,64,4.43,4.43,0,0,1,42,67.42l1.22-.65a4.74,4.74,0,0,0-.66-3.23,4.32,4.32,0,0,0-2.89-2.09Z" style="fill: #dfe9f8"/>
          <g>
            <path d="M38,68.12a3.36,3.36,0,0,0-3,0L22.31,75.43l3,1.75L38,69.87A.93.93,0,0,0,38,68.12Z" style="fill: #9fa0a5"/>
            <g>
              <path d="M25.44,75.48a4.48,4.48,0,0,0-4.05,0L20,76.31,24,78.65l1.41-.83A1.24,1.24,0,0,0,25.44,75.48Z" style="fill: #6e7075"/>
              <path d="M20,76.31a4.48,4.48,0,0,1,4.05,0,1.24,1.24,0,0,1,0,2.34,4.48,4.48,0,0,1-4.05,0A1.24,1.24,0,0,1,20,76.31Z" style="fill: #9fa0a5"/>
            </g>
            <g>
              <path d="M23.42,76.75a3,3,0,0,0-2.75,0l-.43.25L23,78.59l.43-.25A.84.84,0,0,0,23.42,76.75Z" style="fill: #6e7075"/>
              <path d="M20.24,77A3,3,0,0,1,23,77a.84.84,0,0,1,0,1.59,3,3,0,0,1-2.75,0A.84.84,0,0,1,20.24,77Z" style="fill: #9fa0a5"/>
            </g>
            <g>
              <polygon points="18.53 78.73 20.64 77.52 22.89 77.52 20.71 78.53 18.53 78.73" style="fill: #6e7075"/>
              <polygon points="20.71 78.93 18.53 79.13 18.53 78.73 20.71 78.53 20.71 78.93" style="fill: #9fa0a5"/>
              <polygon points="20.71 78.93 22.89 77.92 22.89 77.52 20.71 78.53 20.71 78.93" style="fill: #43414e"/>
            </g>
            <path d="M24.3,74.51a2.43,2.43,0,0,1,1.37.21l1.19-.67a1.84,1.84,0,0,0-1.31-.27Z" style="fill: #6e7075"/>
            <path d="M24.3,74.21v.29a2.46,2.46,0,0,1,1.37.21l.59-.53-1.47-.28Z" style="fill: #7e70e8"/>
            <path d="M24.3,74.21a2.23,2.23,0,0,1,1.37.17l1.19-.67a1.84,1.84,0,0,0-1.31-.27Z" style="fill: #6e7075"/>
            <polygon points="25.68 74.72 25.68 74.38 26.86 73.72 26.86 74.06 25.68 74.72" style="fill: #5333ed"/>
            <polygon points="25.68 74.72 25.68 74.38 26.86 73.72 26.86 74.06 25.68 74.72" style="fill: #5333ed;mix-blend-mode: multiply"/>
            <path d="M25.56,73.44a2.55,2.55,0,0,1,1.31.27l1.19-.67a1.84,1.84,0,0,0-1.31-.27Z" style="fill: #2cd4d9"/>
            <polygon points="26.86 74.06 26.86 73.72 28.05 73.05 28.05 73.39 26.86 74.06" style="fill: #2cd4d9"/>
            <path d="M24.3,74.21a2.23,2.23,0,0,1,1.37.17l1.19-.67a1.84,1.84,0,0,0-1.31-.27Z" style="fill: #5333ed"/>
            <polygon points="26.86 74.06 26.86 73.72 28.05 73.05 28.05 73.39 26.86 74.06" style="fill: #2cd4d9;mix-blend-mode: multiply"/>
            <path d="M32,73.47a1,1,0,0,0,0-1.86,3.56,3.56,0,0,0-3.22,0" style="fill: none;stroke: #6e7075;stroke-miterlimit: 10;stroke-width: 0.182084020524032px"/>
            <path d="M27.62,72.26a3.56,3.56,0,0,1,3.22,0,1,1,0,0,1,0,1.86h0" style="fill: none;stroke: #6e7075;stroke-miterlimit: 10;stroke-width: 0.182084020524032px"/>
          </g>
          <path d="M30.23,69.62s1.49-1.51,1.75-1.67a31.31,31.31,0,0,1,3.23-2.65s1.68-1.1,2.64.34A2.15,2.15,0,0,1,38.12,68a2.88,2.88,0,0,0-1.89-.22,6.72,6.72,0,0,0-1.24.6l-3.2,1.85-.54.31a2,2,0,0,1-.74,1,1.4,1.4,0,0,1-.8.22Z" style="fill: #ffc398"/>
          <path d="M29.15,74.82A3.53,3.53,0,0,1,30,72.89c.78-.84.22,1.56.22,1.56s-.12.68-.49.87S29.08,75.22,29.15,74.82Z" style="fill: #eba87c"/>
          <path d="M30.45,74.52a3.12,3.12,0,0,1,.35-1.84c.5-.88.51,1.3.51,1.3s0,.61-.24.85S30.47,74.89,30.45,74.52Z" style="fill: #eba87c"/>
        </g>
      </g>
    </g>
  </g>
</svg>
