<svg xmlns="http://www.w3.org/2000/svg" xmlns:xlink="http://www.w3.org/1999/xlink" width="560" height="290" viewBox="0 0 560 290">
  <defs>
    <clipPath id="eaef84b3-4c72-432b-8fca-b2917c7bec87">
      <path d="M289.57,128.64l-.12-41.89a49.94,49.94,0,0,1-3.76,19l.12,41.89A49.94,49.94,0,0,0,289.57,128.64Z" style="fill: #fff;stroke: #dfe9f8;stroke-linejoin: round;stroke-width: 2px"/>
    </clipPath>
    <clipPath id="a96a2f89-9b8e-4120-825a-086a3d563490">
      <path d="M6.54,87.6l.12,41.89c.06,20.61,13.45,41.2,40.28,57.05,54.59,32.27,144.17,32.7,200.06,1l-.12-41.89c-55.89,31.74-145.47,31.3-200.06-1C20,128.79,6.6,108.21,6.54,87.6Z" style="fill: #fff;stroke: #dfe9f8;stroke-linejoin: round;stroke-width: 2px"/>
    </clipPath>
    <clipPath id="c6cc0e66-7ae6-4144-b64e-a7d0eaa5195b">
      <path d="M362.38,129.17l.06,24c11.89-6.75,19.59-15,23.12-23.76l-.06-24C382,114.14,374.27,122.42,362.38,129.17Z" style="fill: #723925"/>
    </clipPath>
    <linearGradient id="eff92c22-92ce-48d9-8871-155d174de5b4" x1="-8699.36" y1="-3779.37" x2="-8699.36" y2="-3763.26" gradientTransform="translate(-8336.23 -3670) rotate(180)" gradientUnits="userSpaceOnUse">
      <stop offset="0" stop-color="#150773"/>
      <stop offset="0.51" stop-color="#5333ed"/>
    </linearGradient>
    <linearGradient id="21c0b5f3-e8ce-4664-a701-ef6d8e4b92e8" x1="329.87" y1="89.41" x2="364.94" y2="89.41" gradientUnits="userSpaceOnUse">
      <stop offset="0" stop-color="#5333ed"/>
      <stop offset="1" stop-color="#2cd4d9"/>
    </linearGradient>
  </defs>
  <title>affiliate-pie</title>
  <g id="0d7fe821-6f7e-411a-a795-432b558f6800" data-name="figures and interactions">
    <g>
      <g>
        <polygon points="148.02 87.19 239.76 141.41 285.81 147.6 285.69 105.71 148.02 87.19" style="fill: #fff;stroke: #dfe9f8;stroke-linejoin: round;stroke-width: 2px"/>
        <g style="isolation: isolate">
          <path d="M289.57,128.64l-.12-41.89a49.94,49.94,0,0,1-3.76,19l.12,41.89A49.94,49.94,0,0,0,289.57,128.64Z" style="fill: #fff"/>
          <g style="clip-path: url(#eaef84b3-4c72-432b-8fca-b2917c7bec87)">
            <g style="isolation: isolate">
              <path d="M285.69,105.71l.12,41.89a49.94,49.94,0,0,0,3.76-19l-.12-41.89a49.94,49.94,0,0,1-3.76,19" style="fill: #fff;stroke: #dfe9f8;stroke-linejoin: round;stroke-width: 2px"/>
            </g>
          </g>
          <path d="M289.57,128.64l-.12-41.89a49.94,49.94,0,0,1-3.76,19l.12,41.89A49.94,49.94,0,0,0,289.57,128.64Z" style="fill: none;stroke: #dfe9f8;stroke-linejoin: round;stroke-width: 2px"/>
        </g>
        <g style="isolation: isolate">
          <path d="M6.54,87.6l.12,41.89c.06,20.61,13.45,41.2,40.28,57.05,54.59,32.27,144.17,32.7,200.06,1l-.12-41.89c-55.89,31.74-145.47,31.3-200.06-1C20,128.79,6.6,108.21,6.54,87.6Z" style="fill: #fff"/>
          <g style="clip-path: url(#a96a2f89-9b8e-4120-825a-086a3d563490)">
            <g style="isolation: isolate">
              <path d="M6.54,87.6l.12,41.89q0,.62,0,1.24L6.56,88.83q0-.62,0-1.24" style="fill: #fff;stroke: #dfe9f8;stroke-linejoin: round;stroke-width: 2px"/>
            </g>
          </g>
          <path d="M6.54,87.6l.12,41.89c.06,20.61,13.45,41.2,40.28,57.05,54.59,32.27,144.17,32.7,200.06,1l-.12-41.89c-55.89,31.74-145.47,31.3-200.06-1C20,128.79,6.6,108.21,6.54,87.6Z" style="fill: none;stroke: #dfe9f8;stroke-linejoin: round;stroke-width: 2px"/>
        </g>
        <path d="M249.21,29.74C194.6-2.54,105-3,49.15,28.76s-56.94,83.62-2.33,115.89,144.17,32.7,200.06,1L148,87.19l137.67,18.52C296.37,79.33,284.31,50.48,249.21,29.74Z" style="fill: #fff;stroke: #dfe9f8;stroke-linejoin: round;stroke-width: 2px"/>
      </g>
      <g>
        <g>
          <path d="M555.55,188.05c0,18.28-25.66,33.1-57.31,33.1s-57.31-14.82-57.31-33.1V169s28.91-14,57.31-14c29.31,0,57.23,14.32,57.23,14.32S555.55,186.7,555.55,188.05Z" style="fill: #fff;stroke: #dfe9f8;stroke-miterlimit: 10;stroke-width: 2px"/>
          <ellipse cx="498.24" cy="168.99" rx="57.31" ry="33.1" style="fill: #fff;stroke: #dfe9f8;stroke-miterlimit: 10;stroke-width: 2px"/>
        </g>
        <polyline points="446.56 154.15 498.24 168.99 495.82 135.87" style="fill: #fff;stroke: #dfe9f8;stroke-miterlimit: 10;stroke-width: 2px"/>
        <polyline points="553.68 175.33 498.24 168.99 440.93 168.99" style="fill: #fff;stroke: #dfe9f8;stroke-miterlimit: 10;stroke-width: 2px"/>
      </g>
      <g>
        <g>
          <path d="M432.93,218.87l-5.71-2.16-.07,10.11a7.51,7.51,0,0,1,1.91.89c1.5.87,3.12.87,3.62,0a1.14,1.14,0,0,0,.13-.58h0Z" style="fill: #724c3b"/>
          <path d="M416.9,234.27a14.21,14.21,0,0,1,6-4.35l8.14-2.55h0c1.46-.51,2.83-.35,3.3.5s-.31,2.48-1.9,3.49a2,2,0,0,1-.29.22l-11.31,6.33a2.68,2.68,0,0,1-.43.17c-2,.88-4,.74-4.66-.41C415.25,236.73,415.75,235.41,416.9,234.27Z" style="fill: #0c022f"/>
          <path d="M416.94,233.37a22.75,22.75,0,0,1,5.91-4.29l8-2.51h0c1.44-.5,2.79-.34,3.25.49s-.3,2.45-1.87,3.44a2,2,0,0,1-.29.21L420.84,237a2.64,2.64,0,0,1-.43.17c-2,.87-4,.73-4.59-.41C415.31,235.8,415.81,234.49,416.94,233.37Z" style="fill: #150773"/>
          <ellipse cx="429.47" cy="227.61" rx="3.8" ry="2.2" transform="translate(-56.47 238.24) rotate(-29.18)" style="fill: #724c3b"/>
          <path d="M427.95,230.94a19.28,19.28,0,0,0,1.61-2.71.91.91,0,0,0-.33-1.14l-1.44-.94a2,2,0,0,0-2.45.25,50.1,50.1,0,0,1-4.75,4Z" style="fill: #150773"/>
          <path d="M434.27,227.45a3.79,3.79,0,0,0-.8-2.09c-.18-.19-.61-.54-.61-.54l0,1s.25,1.1-1.68,3.33l.22.67,2-1.34Z" style="fill: #150773"/>
        </g>
        <g>
          <path d="M419.77,210.59l-5.71-2.16L414,218.54a7.51,7.51,0,0,1,1.91.89c1.5.87,3.12.87,3.62,0a1.14,1.14,0,0,0,.13-.58h0Z" style="fill: #724c3b"/>
          <path d="M403.73,226a14.21,14.21,0,0,1,6-4.35l8.14-2.55h0c1.46-.51,2.83-.35,3.3.5s-.31,2.48-1.9,3.49a2,2,0,0,1-.29.22l-11.31,6.33a2.68,2.68,0,0,1-.43.17c-2,.88-4,.74-4.66-.41C402.08,228.45,402.58,227.12,403.73,226Z" style="fill: #0c022f"/>
          <path d="M403.77,225.09a22.75,22.75,0,0,1,5.91-4.29l8-2.51h0c1.44-.5,2.79-.34,3.25.49s-.3,2.45-1.87,3.44a2,2,0,0,1-.29.21l-11.15,6.25a2.64,2.64,0,0,1-.43.17c-2,.87-4,.73-4.59-.41C402.14,227.52,402.64,226.21,403.77,225.09Z" style="fill: #150773"/>
          <ellipse cx="416.3" cy="219.33" rx="3.8" ry="2.2" transform="translate(-54.11 230.77) rotate(-29.18)" style="fill: #724c3b"/>
          <path d="M414.78,222.66a19.28,19.28,0,0,0,1.61-2.71.91.91,0,0,0-.33-1.14l-1.44-.94a2,2,0,0,0-2.45.25,50.1,50.1,0,0,1-4.75,4Z" style="fill: #150773"/>
          <path d="M421.1,219.11a3.66,3.66,0,0,0-.79-2c-.18-.19-.61-.54-.61-.54l0,1s.25,1.1-1.68,3.33l.22.67,2-1.34Z" style="fill: #150773"/>
        </g>
        <path d="M420.87,212.65,421,211c.12-1.25-.91-2.9-2.68-4.06-2.16-1.42-4.58-1.55-5.4-.3a1.85,1.85,0,0,0-.23,1.29l-.06,0-.09,1.61h0c-.07,1.24,1,2.84,2.68,4,2.16,1.42,4.58,1.55,5.4.3a1.64,1.64,0,0,0,.23-.59h0V213A2.05,2.05,0,0,0,420.87,212.65Z" style="fill: #dfe9f8"/>
        <path d="M433.74,219.31h0c.12-1.25-.91-2.89-2.68-4-2.16-1.42-4.58-1.55-5.4-.3a1.76,1.76,0,0,0-.27,1.05h0l-.1,1.73h0c-.13,1.25.9,2.91,2.68,4.07,2.16,1.42,4.58,1.55,5.4.3a1.68,1.68,0,0,0,.24-.78h0Z" style="fill: #dfe9f8"/>
        <path d="M433.81,187.66c.35-7.28-.33-24-.42-26.8-.16-4.54-2.2-22.07-2.2-22.07-1.25-5.32-.79-7.8-6.31-11.42-7.32-4.8-14.58-4.47-18.28-1-2.18,2,2.09,27,3.3,48.87,1,18,3.27,27.61,3.53,31.2-.71,1.08.24,3,2.11,4.19s4,1.35,4.69.26a1.43,1.43,0,0,0,.2-.53h0v-.09a1.86,1.86,0,0,0,0-.44c0-3.66.31-24.08.19-31.72s-1.69-19.37-2-21.71a239.41,239.41,0,0,1,4,26.61v.18a3,3,0,0,0,0,.56c1.1,14.29,4,27.78,3.33,31.33h0c-.35,1.11.57,2.73,2.27,3.84,1.88,1.23,4,1.35,4.69.26a1.5,1.5,0,0,0,.22-.79h0S433.46,195,433.81,187.66Z" style="fill: #120667"/>
        <path d="M388,100.15l.09-.16c-7.73,4.72-21.4,7.05-27.74-4.41,0,0-3.47-.06-3.65,1.57-.26,2.34,2.84,7.24,5.29,9.43,6.51,5.81,16.77,10.43,31.06,1.1a9.91,9.91,0,0,1-2.82-2.32A8.4,8.4,0,0,1,388,100.15Z" style="fill: #724c3b"/>
        <path d="M402.18,102.12l-.58-12.58a85.77,85.77,0,0,1-9.91,8.09c-1.14.8-2.35,1.6-3.61,2.37l-.09.16a8.4,8.4,0,0,0,2.23,5.21,9.91,9.91,0,0,0,2.82,2.32A54,54,0,0,0,402.18,102.12Z" style="fill: #5333ed"/>
        <path d="M434.1,101.7a1.37,1.37,0,0,0-.13-.18l-.21-.28,0,0a23,23,0,0,0-7.6-5.7c-4.06-1.92-10.66-5.47-15.17-7.13a19.35,19.35,0,0,0-3.87-.88,8.76,8.76,0,0,0-8.29,11.61s6.89,10.85,7.6,15c.08.47,0,4.2-.13,6.75-.44,5.05-1.63,9.11,7.61,12.71,6.39,2.49,13,2.18,14.38-.42a4.54,4.54,0,0,0,.5-1.55c.35-1.28,0-6.53,0-7.31.09-1.4-.1-1.9.53-3.15l2-3.87S437,107.49,434.1,101.7Z" style="fill: #5333ed"/>
        <ellipse cx="416.31" cy="97.09" rx="5.87" ry="3.39" transform="translate(20.64 258.93) rotate(-35.37)" style="fill: none;stroke: #fff;stroke-linecap: round;stroke-miterlimit: 10;stroke-width: 0.779248216030355px"/>
        <path d="M420.83,96.65l0-9.8-9.11,0v13.36C411.79,103.13,419.48,100.53,420.83,96.65Z" style="fill: #5b3427"/>
        <path d="M421.5,95c0,1.51-1.23,3.41-3.21,4.82-2.64,1.88-5.66,2.16-6.74.63a2.21,2.21,0,0,1-.47-1.54" style="fill: none;stroke: #fff;stroke-linecap: round;stroke-miterlimit: 10;stroke-width: 0.779248216030355px"/>
        <path d="M420.86,91a7.35,7.35,0,0,1-4.81,4.45,8.57,8.57,0,0,1-4.29.31V88.24L420.87,87Z" style="fill: #351812"/>
        <path d="M405.59,82.91a2.77,2.77,0,0,1,.3-3.36c1.56-1.41,3.76-1.94,4.21-1.68,1.19-2.05,3.8-.86,3.8-.86s.91-1.53,2.35-1.18a5.8,5.8,0,0,1,2.44,1.85,1.07,1.07,0,0,1,1.69.53,1.66,1.66,0,0,1,1.93,2l.11.09a2.79,2.79,0,1,1-4.75,2.49,2.61,2.61,0,0,1-2.37-1,4.29,4.29,0,0,1-.27-.47c-.32-1.8-1.78-1.54-1.78-1.54-1.23.13-1.51,1.92-1.51,1.92l0-.06a3.4,3.4,0,0,1-1.26,2A3.45,3.45,0,0,1,405.59,82.91Z" style="fill: #0c022f"/>
        <path d="M422.71,86.2a2.06,2.06,0,0,0-2.08-2s-.06,0-.1,0l-.48-2.37a6.61,6.61,0,0,0-13,2.61l1.08,5.39c1,4.83,3.75,5.17,7,4.52a7.17,7.17,0,0,0,5.71-6.15A2,2,0,0,0,422.71,86.2Z" style="fill: #724c3b"/>
        <path d="M420.53,84.21a12.5,12.5,0,0,1-10.17-5A9.4,9.4,0,0,0,407,83.73a6,6,0,0,1,3.79-6.43c4.63-2.11,6.67-.15,8.14,1s2.45,3.55,2.94,6.3A2,2,0,0,0,420.53,84.21Z" style="fill: #0c022f"/>
        <path d="M401.09,103l-1.17.72-1.48-3.82s.87.49,1.77.88Z" style="fill: #150773"/>
        <g>
          <path d="M351,106.22l-2.78-.3c.52,1.17,2.3,1.21,2.3,1.21l2.95,1.34a16.54,16.54,0,0,0,6.89,3.38l1.46-4.59s-5.31-3.59-5.58-3.78-4-2.65-4-2.65l-3-1.15c.37,1.32,2.32,2.05,2.32,2.05l3,2.25-3.22-1.6-3.61-.55a4.68,4.68,0,0,0,3.21,1.68l2.85,1.88-3.1-1.45-3.22-1.21a3.86,3.86,0,0,0,2.67,2.18l4,2.41Z" style="fill: #5b3427"/>
          <path d="M358.38,102.66l-2.32-1.48a2.44,2.44,0,0,0,1,2.17l.52,1.47a8.22,8.22,0,0,0-.13,5,2.27,2.27,0,0,0,.27.69,3.09,3.09,0,0,0,2.32,1.42l1,.12c1.7.21,2.84-2.08,2-3.55A74.05,74.05,0,0,0,358.38,102.66Z" style="fill: #724c3b"/>
        </g>
        <g>
          <ellipse cx="339.56" cy="128.75" rx="63.07" ry="36.42" style="fill: #bdd2ef"/>
          <ellipse cx="339.56" cy="126.39" rx="63.07" ry="36.42" style="fill: #dfe9f8"/>
          <ellipse cx="338.96" cy="126.08" rx="37.67" ry="21.76" style="fill: none;stroke: #bdd2ef;stroke-miterlimit: 10"/>
        </g>
        <g>
          <polygon points="303.5 94.37 303.55 118.34 362.44 153.13 362.38 129.17 303.5 94.37" style="fill: #9e684d"/>
          <g>
            <path d="M362.38,129.17l.06,24c11.89-6.75,19.59-15,23.12-23.76l-.06-24C382,114.14,374.27,122.42,362.38,129.17Z" style="fill: #723925"/>
            <g style="clip-path: url(#c6cc0e66-7ae6-4144-b64e-a7d0eaa5195b)">
              <g style="isolation: isolate">
                <path d="M362.38,129.17l.06,24c11.89-6.75,19.59-18.38,23.12-27.12l-.06-20.62c-3.54,8.73-11.23,17-23.12,23.76" style="fill: #723925"/>
              </g>
            </g>
          </g>
          <polygon points="303.5 104.88 303.55 109.79 362.44 144.59 362.38 139.68 303.5 104.88" style="fill: #fff"/>
          <path d="M368.93,117.54l-6.56,11.63-3.54-3.08c.32-1.25.3-2.62-1.54-4.41a4.2,4.2,0,0,0-2.89-1.26,4.54,4.54,0,0,0-1.7.35l-.52-.45-26.35-14c0-.06,0-.11,0-.17a4.36,4.36,0,0,0-6.94-3.52l-8.37-4.46a3.72,3.72,0,0,0-4.49-2.39l-2.55-1.36-.29,3a9.43,9.43,0,0,0,.13,3.17,3.78,3.78,0,0,0,2.75,2.59,3.85,3.85,0,0,0,1.77,0c1.53-.37,3.83-.87,4.47.57.13.29-.14.84-.14,1.26a1.41,1.41,0,0,0,1.41,1.41c.73,0,.79-.88,1.38-1.27s2.12-.32,2.12,1a4.37,4.37,0,0,0,4.37,4.37c.71,0,1.5-.67,2-.47.85.36,1.17,2.62,2.62,2.62a2.57,2.57,0,0,0,.72-.1,2.25,2.25,0,0,1,1.89.33,5.65,5.65,0,0,1,2.47,3c.17.66.55,1.23,1.23,1.23a1.22,1.22,0,0,0,1-.46,1.51,1.51,0,0,1,1.43-.44,4,4,0,0,1,2.17,1.08,2.12,2.12,0,0,1,.7,1.14,3.35,3.35,0,0,0,3.35,3.35c.68,0,1.46-.91,1.78-.21s.63,1.41,1.41,1.41a1.19,1.19,0,0,0,.68-.19c1.13-.77,5,1.34,5,2.23a4.55,4.55,0,0,0,7,3.81l3,1.85s2.09,6.47,4.35,4.24,2.3-5.39,4.19-4.66,2.62,1,3.46-1,1.47-3,3-2.93a4.49,4.49,0,0,0,4.4-4.29c.1-2.93.94-5.13,3.35-5.34s2.83-2.72,2.83-3.35,0-7.84,0-7.84Z" style="fill: #18a0aa"/>
          <path d="M385.5,105.41l-82-11,58.88,34.8C374.27,122.42,382,114.14,385.5,105.41Z" style="fill: #2cd4d9"/>
          <path d="M378.88,111.19c0,5-7.08,9.14-15.82,9.14s-15.82-4.09-15.82-9.14,6.93-11.39,15.67-11.39S378.88,106.15,378.88,111.19Z" style="fill: #fff"/>
          <path d="M362.64,102.82s-14,6.25-9.55,15.46a7.54,7.54,0,0,1-1.91-1c-.43-.43-4.43-5.47.09-9.38S357.86,105,362.64,102.82Z" style="fill: #dfe9f8"/>
          <path d="M361.68,103.25a17,17,0,0,1-2.34,5.38c-1.82,2.78-4.69,9.73.26,11.46l2.34.26a8.77,8.77,0,0,1-2-5.38C359.68,111.33,362.9,107.59,361.68,103.25Z" style="fill: #dfe9f8"/>
          <path d="M361.68,103.25s3.21,3.56,3.73,7.29-.87,6.6,1.39,9.38a13.21,13.21,0,0,0,2.61-.43s-.94-4.68-.69-6.86C369.15,108.81,365.24,105.86,361.68,103.25Z" style="fill: #dfe9f8"/>
          <path d="M361.68,103.25s8.86.69,11.81,7.29c0,0-1,5.73,1.56,6.51l1.82-1.48s.43-1.3-.26-5.47S369.93,103.08,361.68,103.25Z" style="fill: #dfe9f8"/>
          <path d="M348.39,107.25s3.47-4.6,13.29-4a24.71,24.71,0,0,0-8-1A17.51,17.51,0,0,0,348.39,107.25Z" style="fill: #dfe9f8"/>
          <path d="M375.92,105.25s-3.56-4.34-13.81-2a11.25,11.25,0,0,1,7.64-2.08S372.71,101.78,375.92,105.25Z" style="fill: #dfe9f8"/>
          <path d="M359,100.21s1.82-.09,3.13,3a5.44,5.44,0,0,0,1.48-3.56A25.38,25.38,0,0,0,359,100.21Z" style="fill: #dfe9f8"/>
          <circle cx="363.13" cy="101.4" r="7.65" style="fill: url(#eff92c22-92ce-48d9-8871-155d174de5b4)"/>
          <path d="M361.32,108.83a2.85,2.85,0,0,1,3.68,0l-1.63.85-1.85-.23Z" style="fill: #fff"/>
          <path d="M367.07,107.95a2.29,2.29,0,0,1,.59-1.67c.34-.39.72-.57,1.65-.39l.26.72-1.49,1.8Z" style="fill: #fff"/>
          <path d="M357.2,106.23a.83.83,0,0,1,1.18-.41c.88.36,1.81,1.5,1.26,2.39l-1.13,0-2-1.08Z" style="fill: #fff"/>
        </g>
        <g>
          <path d="M390,139.29c-9.84,1.19-9.39,11.31-9.2,11.61,0,.07.79,0,1-1a7.5,7.5,0,0,1,0-1.35,42,42,0,0,1,6.8-1.53c.09-.85.93-1,1.4-1.27a2.06,2.06,0,0,0,1-2.21Z" style="fill: #724c3b"/>
          <path d="M381.55,148.25s5.81-1.65,7-1.22l.85,3.19A2.41,2.41,0,0,1,391,152l-2.65-.76-.94-1.48.45,2.28,1.13.1s-.05.92-.83,1a6.68,6.68,0,0,1-.88-.15.39.39,0,0,1-.52.29,2.31,2.31,0,0,1-1-.47,11.24,11.24,0,0,1-1.18-1.94l.16,1.89a.74.74,0,0,1-.82.65c-.76,0-.89-1-.89-1Z" style="fill: #724c3b"/>
        </g>
        <g>
          <path d="M422,119.31c-2.23-1.29-3.51-3.41-2.88-4.75-7.75,7.48-19.65,17-31.24,25.34l2.62,4.26S413.2,132,425.63,121.27a14.46,14.46,0,0,0,1.24-1.35C425.77,120.56,423.82,120.37,422,119.31Z" style="fill: #724c3b"/>
          <path d="M434.7,103.15a3.39,3.39,0,0,0-5.45,0c-1.66,2.3-10.1,11.23-10.11,11.25s0,.08,0,.12c-.64,1.34.65,3.46,2.88,4.75,1.84,1.06,3.79,1.26,4.89.61l5.35-5.38A14.27,14.27,0,0,0,434.7,103.15Z" style="fill: #5333ed"/>
        </g>
        <polygon points="426.86 119.92 433.18 113.21 431.86 116.23 428.62 119.93 426.86 119.92" style="fill: #150773"/>
        <polygon points="419.1 114.56 423.94 109.6 422.17 110.19 419.32 113.14 419.1 114.56" style="fill: #150773"/>
        <path d="M329.87,74.32a9.26,9.26,0,1,1,9.26,9.26A9.22,9.22,0,0,1,329.87,74.32ZM359,66.43a1.25,1.25,0,0,1,1.17-.69h3.43a1.24,1.24,0,0,1,1.17,1.85l-23.66,45.47a1.44,1.44,0,0,1-1.17.69h-3.29a1.24,1.24,0,0,1-1.17-1.85Zm-16.6,7.89a3.33,3.33,0,1,0-3.29,3.36A3.34,3.34,0,0,0,342.42,74.32Z" style="fill: url(#21c0b5f3-e8ce-4664-a701-ef6d8e4b92e8)"/>
      </g>
      <g>
        <polygon points="471.69 173.93 490.99 185.07 502.94 178.11 502.94 177.22 483.63 166.08 471.69 173.01 471.69 173.93" style="fill: #43414e"/>
        <polygon points="471.69 173.01 490.99 184.16 502.94 177.22 483.63 166.08 471.69 173.01" style="fill: #6e7075"/>
        <polygon points="483.59 150.57 483.59 166.06 502.94 177.23 502.94 161.73 483.59 150.57" style="fill: #43414e"/>
        <g>
          <g>
            <polygon points="483.93 153.38 483.93 151.42 486.87 153.12 486.87 155.14 483.93 153.44 483.93 153.38" style="fill: #120667"/>
            <polygon points="486.87 155.14 486.87 156.44 483.93 154.75 483.93 153.44 486.87 155.14" style="fill: #2cd4d9"/>
          </g>
          <polygon points="483.93 154.75 486.87 156.44 486.87 167.36 483.92 165.66 483.93 154.75" style="fill: #120667"/>
          <polygon points="486.87 153.12 496.09 158.44 502.52 162.13 502.52 164.09 502.52 164.15 486.87 155.14 486.87 153.12" style="fill: #fff"/>
          <polygon points="486.87 155.14 502.52 164.15 502.52 176.37 496.09 172.68 486.87 167.36 486.87 155.14" style="fill: #dfe9f8"/>
          <polygon points="486.18 153.58 486.18 153.91 484.54 152.98 484.54 152.64 486.18 153.58" style="fill: #2cd4d9"/>
        </g>
        <polygon points="478.17 175.79 485.28 179.9 489.68 177.34 482.57 173.24 478.17 175.79" style="fill: #888a8e"/>
        <polygon points="482.93 172.97 490.03 177.08 491.15 176.44 484.04 172.33 482.93 172.97" style="fill: #43414e"/>
        <polygon points="483.44 171.98 482.45 171.41 481.33 172.05 482.32 172.62 483.44 171.98" style="fill: #43414e"/>
        <polygon points="481.6 169.28 480.2 168.47 479.09 169.11 480.49 169.92 481.6 169.28" style="fill: #43414e"/>
        <polygon points="484.51 167.6 483.1 166.8 481.99 167.44 483.4 168.24 484.51 167.6" style="fill: #43414e"/>
        <polygon points="498.31 178.87 496.32 177.73 495.21 178.37 497.2 179.51 498.31 178.87" style="fill: #43414e"/>
        <polygon points="499.73 178.01 497.14 176.55 496.03 177.19 498.61 178.65 499.73 178.01" style="fill: #43414e"/>
        <polygon points="501.18 177.23 499.19 176.09 498.07 176.73 500.06 177.87 501.18 177.23" style="fill: #43414e"/>
        <polygon points="480.82 170.49 479.83 169.92 478.72 170.56 479.71 171.13 480.82 170.49" style="fill: #43414e"/>
        <polygon points="482.14 171.25 481.15 170.67 480.04 171.31 481.02 171.88 482.14 171.25" style="fill: #43414e"/>
        <polygon points="488.17 173.02 487.18 172.45 486.07 173.09 487.06 173.66 488.17 173.02" style="fill: #43414e"/>
        <polygon points="482.93 170 481.94 169.43 480.82 170.07 481.81 170.64 482.93 170" style="fill: #43414e"/>
        <polygon points="484.24 170.76 483.25 170.19 482.14 170.83 483.13 171.4 484.24 170.76" style="fill: #43414e"/>
        <polygon points="485.56 171.53 484.57 170.95 483.46 171.59 484.45 172.16 485.56 171.53" style="fill: #43414e"/>
        <polygon points="486.87 172.28 485.88 171.71 484.77 172.35 485.76 172.92 486.87 172.28" style="fill: #43414e"/>
        <polygon points="494.69 176.8 493.7 176.23 492.59 176.87 493.58 177.44 494.69 176.8" style="fill: #43414e"/>
        <polygon points="495.99 177.55 495 176.98 493.89 177.62 494.88 178.19 495.99 177.55" style="fill: #43414e"/>
        <polygon points="489.45 173.78 488.46 173.21 487.35 173.85 488.34 174.42 489.45 173.78" style="fill: #43414e"/>
        <polygon points="490.76 174.54 489.77 173.97 488.66 174.61 489.65 175.18 490.76 174.54" style="fill: #43414e"/>
        <polygon points="492.08 175.3 491.09 174.73 489.98 175.37 490.97 175.94 492.08 175.3" style="fill: #43414e"/>
        <polygon points="493.4 176.06 492.41 175.49 491.3 176.13 492.28 176.7 493.4 176.06" style="fill: #43414e"/>
        <polygon points="488.95 171.83 487.96 171.26 486.85 171.9 487.84 172.47 488.95 171.83" style="fill: #43414e"/>
        <polygon points="483.71 168.82 482.71 168.24 481.6 168.88 482.59 169.45 483.71 168.82" style="fill: #43414e"/>
        <polygon points="485.02 169.57 484.03 169 482.92 169.64 483.9 170.21 485.02 169.57" style="fill: #43414e"/>
        <polygon points="486.34 170.34 485.35 169.76 484.24 170.41 485.23 170.98 486.34 170.34" style="fill: #43414e"/>
        <polygon points="487.65 171.09 486.66 170.52 485.55 171.16 486.54 171.73 487.65 171.09" style="fill: #43414e"/>
        <polygon points="495.48 175.61 494.48 175.04 493.37 175.68 494.36 176.25 495.48 175.61" style="fill: #43414e"/>
        <polygon points="496.77 176.36 495.78 175.79 494.67 176.43 495.66 177 496.77 176.36" style="fill: #43414e"/>
        <polygon points="490.23 172.59 489.24 172.02 488.13 172.66 489.12 173.23 490.23 172.59" style="fill: #43414e"/>
        <polygon points="491.54 173.35 490.55 172.78 489.44 173.42 490.43 173.99 491.54 173.35" style="fill: #43414e"/>
        <polygon points="492.86 174.12 491.87 173.54 490.76 174.18 491.75 174.75 492.86 174.12" style="fill: #43414e"/>
        <polygon points="494.18 174.87 493.19 174.3 492.07 174.94 493.06 175.51 494.18 174.87" style="fill: #43414e"/>
        <polygon points="491.06 171.37 490.07 170.8 488.96 171.44 489.95 172.01 491.06 171.37" style="fill: #43414e"/>
        <polygon points="485.81 168.36 484.82 167.78 483.71 168.43 484.7 169 485.81 168.36" style="fill: #43414e"/>
        <polygon points="487.13 169.11 486.14 168.54 485.02 169.18 486.01 169.75 487.13 169.11" style="fill: #43414e"/>
        <polygon points="488.45 169.88 487.46 169.31 486.35 169.95 487.33 170.52 488.45 169.88" style="fill: #43414e"/>
        <polygon points="489.76 170.64 488.77 170.06 487.66 170.7 488.65 171.28 489.76 170.64" style="fill: #43414e"/>
        <polygon points="497.58 175.15 496.59 174.58 495.48 175.22 496.47 175.79 497.58 175.15" style="fill: #43414e"/>
        <polygon points="498.88 175.9 497.89 175.33 496.78 175.97 497.77 176.54 498.88 175.9" style="fill: #43414e"/>
        <polygon points="492.34 172.13 491.35 171.56 490.24 172.2 491.23 172.77 492.34 172.13" style="fill: #43414e"/>
        <polygon points="493.65 172.89 492.66 172.32 491.55 172.96 492.54 173.53 493.65 172.89" style="fill: #43414e"/>
        <polygon points="494.97 173.66 493.98 173.09 492.87 173.72 493.86 174.3 494.97 173.66" style="fill: #43414e"/>
        <polygon points="496.28 174.41 495.29 173.84 494.18 174.48 495.17 175.05 496.28 174.41" style="fill: #43414e"/>
        <polygon points="492.47 177.19 491.48 176.62 490.37 177.26 491.36 177.83 492.47 177.19" style="fill: #43414e"/>
        <polygon points="493.79 177.95 492.8 177.38 491.69 178.02 492.67 178.59 493.79 177.95" style="fill: #43414e"/>
        <polygon points="495.11 178.72 494.12 178.15 493.01 178.78 494 179.35 495.11 178.72" style="fill: #43414e"/>
        <polygon points="496.42 179.47 495.43 178.9 494.32 179.54 495.31 180.11 496.42 179.47" style="fill: #43414e"/>
      </g>
    </g>
  </g>
</svg>
