<svg xmlns="http://www.w3.org/2000/svg" xmlns:xlink="http://www.w3.org/1999/xlink" width="429" height="394" viewBox="0 0 429 394">
  <defs>
    <linearGradient id="c2cf27c0-e0c9-4a49-bac1-222b504b4f4a" x1="187.56" y1="165.31" x2="187.38" y2="154.17" gradientUnits="userSpaceOnUse">
      <stop offset="0" stop-color="#5333ed"/>
      <stop offset="1" stop-color="#2cd4d9"/>
    </linearGradient>
  </defs>
  <title>affiliate-learn</title>
  <g id="189014d0-aa40-4a81-8eba-ac984c52d48d" data-name="figures and interactions">
    <g>
      <polygon points="292.63 157.59 223.13 197.72 223.13 142.12 292.63 101.99 292.63 157.59" style="fill: none;stroke: #c3bbff;stroke-miterlimit: 10;stroke-width: 1.5px"/>
      <polygon points="284.58 186.22 338.14 217.14 338.14 174.29 284.58 143.37 284.58 186.22" style="fill: none;stroke: #2cd4d9;stroke-miterlimit: 10;stroke-width: 1.5px"/>
      <polygon points="399.39 172.63 421.48 185.38 421.48 167.71 399.39 154.95 399.39 172.63" style="fill: none;stroke: #a2eded;stroke-miterlimit: 10;stroke-width: 2px"/>
      <polygon points="403.41 207.1 326.13 251.72 326.13 189.9 403.41 145.28 403.41 207.1" style="fill: none;stroke: #5333ed;stroke-miterlimit: 10;stroke-width: 2px"/>
      <g>
        <polygon points="215.48 169.71 11.85 287.28 11.85 124.37 215.48 6.8 215.48 169.71" style="fill: #dfe9f8"/>
        <polygon points="103.4 207.88 90.95 215.11 90.95 146.56 103.4 139.32 103.4 207.88" style="fill: #5333ed"/>
        <polygon points="84.42 218.79 71.97 226.03 71.97 175.53 84.42 168.29 84.42 218.79" style="fill: #5333ed"/>
        <polygon points="122.15 197 109.7 204.24 109.7 122.33 122.15 115.1 122.15 197" style="fill: #5333ed"/>
        <polygon points="140.28 186.63 127.83 193.86 127.83 99.23 140.28 92 140.28 186.63" style="fill: #5333ed"/>
        <polygon points="159.03 175.75 146.57 182.99 146.57 64.9 159.03 57.67 159.03 175.75" style="fill: #5333ed"/>
        <polygon points="86.48 224.87 69.62 234.66 69.62 230.6 86.48 220.8 86.48 224.87" style="fill: #fff"/>
        <polygon points="105.71 213.72 88.85 223.52 88.85 219.45 105.71 209.65 105.71 213.72" style="fill: #fff"/>
        <polygon points="124.48 202.85 107.62 212.65 107.62 208.58 124.48 198.78 124.48 202.85" style="fill: #fff"/>
        <polygon points="143.17 191.93 126.31 201.73 126.31 197.67 143.17 187.87 143.17 191.93" style="fill: #fff"/>
        <polygon points="162.33 181 145.46 190.8 145.46 186.73 162.33 176.93 162.33 181" style="fill: #fff"/>
        <line x1="44.35" y1="210.17" x2="78.35" y2="190.42" style="fill: none;stroke: #2cd4d9;stroke-miterlimit: 10;stroke-dasharray: 3"/>
        <line x1="60.85" y1="168.42" x2="94.85" y2="148.67" style="fill: none;stroke: #2cd4d9;stroke-miterlimit: 10;stroke-dasharray: 3"/>
        <ellipse cx="43.35" cy="210.48" rx="1.31" ry="2.26" style="fill: none;stroke: #2cd4d9;stroke-miterlimit: 10"/>
        <ellipse cx="59.73" cy="168.79" rx="1.31" ry="2.26" style="fill: none;stroke: #2cd4d9;stroke-miterlimit: 10"/>
        <ellipse cx="115.69" cy="94.44" rx="1.31" ry="2.26" style="fill: none;stroke: #2cd4d9;stroke-miterlimit: 10"/>
        <line x1="154.35" y1="119.67" x2="188.35" y2="99.92" style="fill: none;stroke: #2cd4d9;stroke-miterlimit: 10;stroke-dasharray: 3"/>
        <ellipse cx="189.1" cy="99.81" rx="1.31" ry="2.26" style="fill: none;stroke: #2cd4d9;stroke-miterlimit: 10"/>
        <line x1="134.85" y1="152.33" x2="178.94" y2="126.77" style="fill: none;stroke: #2cd4d9;stroke-miterlimit: 10;stroke-dasharray: 3"/>
        <ellipse cx="179.69" cy="126.67" rx="1.31" ry="2.26" style="fill: none;stroke: #2cd4d9;stroke-miterlimit: 10"/>
        <line x1="115.69" y1="96.5" x2="115.69" y2="125.17" style="fill: none;stroke: #2cd4d9;stroke-miterlimit: 10;stroke-dasharray: 3"/>
      </g>
      <g>
        <polyline points="396.6 345.69 409.57 311.02 409.57 353.19" style="fill: none;stroke: #2cd4d9;stroke-linecap: round;stroke-miterlimit: 10;stroke-width: 1.55849643206071px"/>
        <line x1="422.38" y1="344.85" x2="409.57" y2="311.02" style="fill: none;stroke: #2cd4d9;stroke-linecap: round;stroke-miterlimit: 10;stroke-width: 1.55849643206071px"/>
        <g>
          <path d="M422.54,315.43c0,4.14-5.81,7.49-13,7.49s-13-3.35-13-7.49V311c1-3.55,6.53-3.08,13-3.08s11.9-.44,13,3.08Z" style="fill: #18a0aa"/>
          <ellipse cx="409.57" cy="311.02" rx="12.97" ry="7.49" style="fill: #2cd4d9"/>
        </g>
      </g>
      <g>
        <path d="M198.81,148.06c-1.33-2.1-7.3.51-7.08,1.23.3,1,2.17,16.66,7.25,20.63s11-3.91,15-7.92c.56-.57,1.29-1.41.33-2.58,0,0-1.07-1-1.55-1.09-.85-.1-1.89,1.32-2.63,1.87-1.24.92-6.37,5.59-7.74,4.22C198.71,160.77,201.52,152.33,198.81,148.06Z" style="fill: #fff"/>
        <path d="M219.46,156.08c-.12.15,4.28-3.85,4.17-3.71s.2.32-1.5,2.19l-2.61,2.76c-.11.12,3.27-1.36,3.27-1.36-.12.93-4.3,2.59-4.33,2.61-3.42,2.88-4.07,1.84-4.07,1.84h0a1.91,1.91,0,0,1-1.51-.33,1,1,0,0,1-.34-1.57.58.58,0,0,1,.2-.18h0l5.28-3.81c.18-.13,2.44-2.14,2.44-2.14l2-.75c-.25.87-1.53,1.35-1.53,1.35l-1.8,1.88,2.1-1.6,2.09-1.66c.06.87-1.82,2.4-1.82,2.4Z" style="fill: #9e684d"/>
        <path d="M212.3,158.57h0l.55-.42h0a4.16,4.16,0,0,1,.44-.4h0a17.84,17.84,0,0,1,1.87-2.68,24.2,24.2,0,0,1,2.32-1.34l1.92-.38a1.81,1.81,0,0,1-1.72,1.14l-1,1a4.71,4.71,0,0,1,.14,2.3,2.84,2.84,0,0,1-.79,1.52h0s-.85,1.14-1.23,1.52c-.94.94-2.8,1.44-3.4.55C210.88,160.68,211.31,159.53,212.3,158.57Z" style="fill: #b7835f"/>
        <g>
          <path d="M172.39,248.07v-2a2.18,2.18,0,0,1,1.31-2l.61-.26a2.67,2.67,0,0,1,2.88.49,51.34,51.34,0,0,1,4.42,4.8c.71.87,1.2,1.56,1.63,2a1.42,1.42,0,0,1-.36,2.19l-.51.29a1.43,1.43,0,0,1-1.42,0l-8-4.65A1,1,0,0,1,172.39,248.07Z" style="fill: #dfe9f8"/>
          <path d="M182.93,252.37a1.43,1.43,0,0,1-.7,1l-.51.29a1.43,1.43,0,0,1-1.42,0l-7.72-4.46" style="fill: none;stroke: #120667;stroke-linecap: round;stroke-miterlimit: 10;stroke-width: 1.16887232404553px"/>
          <path d="M173.12,239.72l4.06-1.53.05,5.77h0c.17.62-.39,1.48-1.35,2s-2.22.61-2.57,0a.81.81,0,0,1-.1-.41h0Z" style="fill: #5333ed"/>
          <ellipse cx="176.14" cy="245.33" rx="1.81" ry="1.05" transform="translate(-99.07 120.94) rotate(-30)" style="fill: #dfe9f8"/>
          <path d="M178.06,244.91a2.56,2.56,0,0,0-1.32.37c-.87.5-1.33,1.31-1,1.81" style="fill: none;stroke: #120667;stroke-linecap: round;stroke-miterlimit: 10;stroke-width: 0.370336993300753px"/>
          <path d="M179,246.11a2.46,2.46,0,0,0-1.27.36c-.83.48-1.28,1.26-1,1.74" style="fill: none;stroke: #120667;stroke-linecap: round;stroke-miterlimit: 10;stroke-width: 0.370336993300753px"/>
          <path d="M180.08,247.34a2.29,2.29,0,0,0-1.19.33c-.78.45-1.2,1.17-.94,1.62" style="fill: none;stroke: #120667;stroke-linecap: round;stroke-miterlimit: 10;stroke-width: 0.370336993300753px"/>
          <path d="M178.51,245.49a2.46,2.46,0,0,0-1.27.36c-.83.48-1.28,1.26-1,1.74" style="fill: none;stroke: #120667;stroke-linecap: round;stroke-miterlimit: 10;stroke-width: 0.370336993300753px"/>
          <path d="M179.57,246.72a2.29,2.29,0,0,0-1.19.33c-.78.45-1.2,1.17-.94,1.62" style="fill: none;stroke: #120667;stroke-linecap: round;stroke-miterlimit: 10;stroke-width: 0.370336993300753px"/>
          <line x1="183.66" y1="252.5" x2="181.99" y2="253.46" style="fill: none;stroke: #120667;stroke-linecap: round;stroke-miterlimit: 10;stroke-width: 1.16887232404553px"/>
          <path d="M180.7,242.94v-2a2.18,2.18,0,0,1,1.31-2l.61-.26a2.67,2.67,0,0,1,2.88.49,51.34,51.34,0,0,1,4.42,4.8c.71.87,1.2,1.56,1.63,2a1.42,1.42,0,0,1-.36,2.19l-.51.29a1.43,1.43,0,0,1-1.42,0l-8-4.65A1,1,0,0,1,180.7,242.94Z" style="fill: #dfe9f8"/>
          <path d="M191.25,247.23a1.43,1.43,0,0,1-.7,1l-.51.29a1.43,1.43,0,0,1-1.42,0L180.9,244" style="fill: none;stroke: #120667;stroke-linecap: round;stroke-miterlimit: 10;stroke-width: 1.16887232404553px"/>
          <path d="M181.31,234.66l4.06-1.53.17,5.69h0c.17.62-.39,1.48-1.35,2s-2.22.61-2.57,0a.81.81,0,0,1-.1-.41h0Z" style="fill: #5333ed"/>
          <ellipse cx="184.46" cy="240.2" rx="1.81" ry="1.05" transform="translate(-95.39 124.41) rotate(-30)" style="fill: #dfe9f8"/>
          <path d="M186.38,239.78a2.56,2.56,0,0,0-1.32.37c-.87.5-1.33,1.31-1,1.81" style="fill: none;stroke: #120667;stroke-linecap: round;stroke-miterlimit: 10;stroke-width: 0.370336993300753px"/>
          <path d="M187.33,241a2.46,2.46,0,0,0-1.27.36c-.83.48-1.28,1.26-1,1.74" style="fill: none;stroke: #120667;stroke-linecap: round;stroke-miterlimit: 10;stroke-width: 0.370336993300753px"/>
          <path d="M188.4,242.21a2.29,2.29,0,0,0-1.19.33c-.78.45-1.2,1.17-.94,1.62" style="fill: none;stroke: #120667;stroke-linecap: round;stroke-miterlimit: 10;stroke-width: 0.370336993300753px"/>
          <path d="M186.82,240.36a2.46,2.46,0,0,0-1.27.36c-.83.48-1.28,1.26-1,1.74" style="fill: none;stroke: #120667;stroke-linecap: round;stroke-miterlimit: 10;stroke-width: 0.370336993300753px"/>
          <path d="M187.89,241.59a2.29,2.29,0,0,0-1.19.33c-.78.45-1.2,1.17-.94,1.62" style="fill: none;stroke: #120667;stroke-linecap: round;stroke-miterlimit: 10;stroke-width: 0.370336993300753px"/>
          <line x1="191.97" y1="247.37" x2="190.31" y2="248.33" style="fill: none;stroke: #120667;stroke-linecap: round;stroke-miterlimit: 10;stroke-width: 1.16887232404553px"/>
          <path d="M180.69,236.29l-.06-1.08a3.24,3.24,0,0,1,1.72-2.61c1.39-.91,2.94-1,3.47-.19a1.19,1.19,0,0,1,.15.83h0l.06,1h0a3.3,3.3,0,0,1-1.72,2.55c-1.39.91-2.94,1-3.47.19a1.05,1.05,0,0,1-.15-.38h0v-.12A1.32,1.32,0,0,1,180.69,236.29Z" style="fill: #2cd4d9"/>
          <path d="M172.43,240.56h0a3.25,3.25,0,0,1,1.72-2.6c1.39-.91,2.94-1,3.47-.19a1.13,1.13,0,0,1,.17.68h0l.06,1.11h0a3.23,3.23,0,0,1-1.72,2.62c-1.39.91-2.94,1-3.47.19a1.08,1.08,0,0,1-.16-.5h0Z" style="fill: #2cd4d9"/>
          <path d="M175.1,196c.1-2.92,1.34-15.41,2.19-18.25,2.47-8.25,15.26-9.78,15.69-6.56,2.13,15.88-7.34,58.81-7.51,61.12.46.7-.15,1.9-1.36,2.69s-2.55.87-3,.17a.92.92,0,0,1-.13-.34h0v-.06a1.2,1.2,0,0,1,0-.28c0-2.35,3.88-41.92,4.08-43.42,0,0-8.08,44.51-7.66,46.79h0c.22.71-.37,1.75-1.45,2.47s-2.55.87-3,.17a1,1,0,0,1-.14-.51h0S175,197.77,175.1,196Z" style="fill: #120667"/>
        </g>
        <path d="M193.41,145.09a14.22,14.22,0,0,0-2.85.64c-3.31,1.22-8.16,3.83-11.15,5.24a16.87,16.87,0,0,0-5.59,4.19v0l-.15.21-.1.13c-2.54,3.47,3.52,14.33,3.52,14.33a4.56,4.56,0,0,1,.39,2.31c0,.7-.7,2.64.91,2.64h.2L193,166.55h0c1.22,0,.88-1.38,1-1.91.52-3,5.58-11,5.58-11A6.44,6.44,0,0,0,193.41,145.09Z" style="fill: #fff"/>
        <path d="M179.45,176.3c1.22,2.11,5.16,2.12,8.81,0s5.61-5.52,4.39-7.64l-13.48,6.91A2.64,2.64,0,0,0,179.45,176.3Z" style="fill: #5333ed"/>
        <polygon points="182.46 175.65 181.14 176.29 181.14 178.25 182.46 178.25 182.46 175.65" style="fill: #120667"/>
        <polygon points="192.49 170.71 191.44 171.02 191.44 174.8 192.49 174.8 192.49 170.71" style="fill: #120667"/>
        <polygon points="190.25 171.01 187.63 172.47 187.63 176.95 190.25 176.95 190.25 171.01" style="fill: #120667"/>
        <ellipse cx="185.81" cy="170.02" rx="9.13" ry="5.29" transform="translate(-60.11 115.68) rotate(-30)" style="fill: #fff"/>
        <path d="M188.29,148.78v-5.47h-5.44v5.47c0,1.29-1,3.89-2.33,3.89l5,5.52,5.07-5.52C189.34,152.66,188.29,150.06,188.29,148.78Z" style="fill: #9e684d"/>
        <path d="M188.29,146.53l0-2.44-5.41.18v1.35c.84.83,1.91,1.38,4.3,1.33A1.66,1.66,0,0,0,188.29,146.53Z" style="fill: #723925"/>
        <path d="M186.55,134.37a4.25,4.25,0,0,0-4.59,3.87l-.11,1.57s0,0-.07,0a1.34,1.34,0,0,0-1.18,1.48,1.31,1.31,0,0,0,1.35,1.14,4.67,4.67,0,0,0,4.19,3.51c2.13.16,3.9-.29,4.13-3.49l.26-3.57A4.25,4.25,0,0,0,186.55,134.37Z" style="fill: #b7835f"/>
        <path d="M186.55,134.37a4.25,4.25,0,0,0-4.59,3.87l-.07.94,0,.56.36,1.1,1-.28-.33-1.2c1.27-.12.84-1.38.84-1.38a1.55,1.55,0,0,1,.32-1.6,1.77,1.77,0,0,1,2.77.29,1.52,1.52,0,0,0,1.18.91,1.49,1.49,0,0,0,1.75-1.17.2.2,0,0,1,.1-.15A4.28,4.28,0,0,0,186.55,134.37Z"/>
        <path d="M188.29,145.58a5.94,5.94,0,0,1-.91,3.52s-3.94-.11-4.42-.94a1.11,1.11,0,0,1-.1-.51l0,0-1.25,2-1.72,2.89,5.72,5.89,7-7.37Z" style="fill: #fff"/>
        <path d="M187.16,151.41l.48-1.45,1.5.31s1,1.3-.17,2S187.16,151.41,187.16,151.41Z" style="fill: #2cd4d9"/>
        <path d="M187.68,151.62s0,5.95-1.44,8.82-.43,5.33,1.52,5.48l.48-1.51a1.18,1.18,0,0,1-1.11-.95c-.23-1.23.9-3.15,1.11-3.87.3-1,.83-2.91,1-8Z" style="fill: url(#c2cf27c0-e0c9-4a49-bac1-222b504b4f4a)"/>
        <path d="M210.39,159.95l2.39,3.31-.43.34a4.3,4.3,0,0,1-2.32-3.37Z" style="fill: #bdd2ef"/>
        <path d="M212.25,158.46a4.94,4.94,0,0,0,2.24,2.93l-1.55,2.07a6.36,6.36,0,0,1-2.62-3.61Z" style="fill: #fff"/>
        <circle cx="213.03" cy="162.16" r="0.33" transform="translate(-53.11 133.02) rotate(-31.03)" style="fill: #5333ed"/>
        <path d="M165.6,169.42c5.18-1.46,6.26-12,7.84-13.84a8.92,8.92,0,0,1,1.17-1.11c1.94-1.56,6.44.33,6.36,1.07-.21,2-6.09,15.89-10.87,18.88-5,3.09-10.24.48-19.56-6-.65-.46-1.53-1.14-.81-2.47,0,0,.86-1.21,1.32-1.36.82-.26,2.1.95,2.93,1.35C157.08,167.41,161.6,170.54,165.6,169.42Z" style="fill: #fff"/>
        <path d="M176.24,168.59a33.53,33.53,0,0,0,2.21-6.33l.53,1.35a41.4,41.4,0,0,1-2.07,5.73Z" style="fill: #bdd2ef"/>
        <path d="M142.71,159.62s2.12,2.88,2.27,3.05l3.44,4a1.74,1.74,0,0,0,2.31.3h0a1.75,1.75,0,0,0,.6-2.18,19.64,19.64,0,0,0-3.14-4.42l-.93-1.66a2,2,0,0,0-.48-1.56l-.24,1.49.92,2.25-1.7-2.27a2.61,2.61,0,0,0-1.6-1.93l.73,2.09,1.22,2-1.5-1.81a2.4,2.4,0,0,0-1.06-2.1l.32,2.46,1.33,2.09-1.93-2.42s-.28-1.2-1.21-1.36Z" style="fill: #b7835f"/>
        <path d="M153.65,165.71l-1.73,3.7.48.26a4.3,4.3,0,0,0,1.65-3.74Z" style="fill: #bdd2ef"/>
        <path d="M151.54,164.59a4.94,4.94,0,0,1-1.65,3.29l1.91,1.74a6.36,6.36,0,0,0,1.9-4Z" style="fill: #fff"/>
        <circle cx="151.46" cy="168.38" r="0.33" transform="matrix(0.35, -0.94, 0.94, 0.35, -58.99, 252.04)" style="fill: #5333ed"/>
      </g>
      <polygon points="217.52 152.7 225.44 157.27 225.44 150.94 217.52 146.37 217.52 152.7" style="fill: none;stroke: #5333ed;stroke-miterlimit: 10"/>
      <polygon points="311.91 279.95 206.07 341.06 206.07 256.39 311.91 195.28 311.91 279.95" style="fill: none;stroke: #dfe9f8;stroke-miterlimit: 10;stroke-width: 2px"/>
      <polygon points="405.69 256.63 362.59 281.52 362.59 247.03 405.69 222.15 405.69 256.63" style="fill: none;stroke: #dfe9f8;stroke-miterlimit: 10;stroke-width: 2px"/>
      <polygon points="351.51 287.57 306.13 313.77 306.13 277.46 351.51 251.26 351.51 287.57" style="fill: none;stroke: #a2eded;stroke-miterlimit: 10;stroke-width: 2px"/>
      <polygon points="181.58 354.22 235.14 385.14 235.14 342.29 181.58 311.37 181.58 354.22" style="fill: none;stroke: #c3bbff;stroke-miterlimit: 10;stroke-width: 2px"/>
      <g>
        <ellipse cx="389.92" cy="330.92" rx="1.11" ry="1.93" transform="translate(-91.63 503.14) rotate(-60)" style="fill: #5333ed"/>
        <path d="M389.5,334.39l2.22.82a2.12,2.12,0,0,0,1.06-2.07l-.06-.56a2.67,2.67,0,0,0-1.76-2.26c-1.56-.52-3,.35-5.88-.06-.8-.12-3.25-1.82-4-.73a1.65,1.65,0,0,0,.44,2,22.78,22.78,0,0,0,2.55,1.62,7.24,7.24,0,0,0,2.56.81C387.43,334.07,388.41,334.21,389.5,334.39Z" style="fill: #0c022f"/>
        <ellipse cx="390.8" cy="335.96" rx="1.12" ry="1.94" transform="translate(-95.55 506.42) rotate(-60)" style="fill: #0c022f"/>
        <ellipse cx="390.8" cy="333.92" rx="1.12" ry="1.94" transform="translate(-93.79 505.4) rotate(-60)" style="fill: #0c022f"/>
        <polygon points="392.57 336.59 392.57 334.58 389.02 333.34 389.02 335.3 392.57 336.59" style="fill: #0c022f"/>
        <path d="M388.33,330.24a23.53,23.53,0,0,1-2.94,0,2.78,2.78,0,0,1-1.13-.33c-.68-.32-.86,1-.59,1.17.88.64,2.15,0,6.35,1.11Z" style="fill: #5333ed"/>
        <path d="M390.73,306.13s-2.41,16.25-2.55,24l3.49,1.51s6.22-17,5-24C396.25,305.57,390.71,306.75,390.73,306.13Z" style="fill: #5333ed"/>
        <path d="M396.21,315.35a2.21,2.21,0,0,1-1.32,0,7.54,7.54,0,0,1-1-.41,1.29,1.29,0,0,0-1.78.78l-.44,1.41a32.55,32.55,0,0,1-1.45,3.58c-.32.6-.38.78-.72.54a12.9,12.9,0,0,1,.5-1.83c.63-1.79,1.31-4.26,2-6.29l2.77,1.3a2.07,2.07,0,0,0,1.62.23Z" style="fill: #150773"/>
        <ellipse cx="382.53" cy="330.63" rx="1.28" ry="2.22" transform="translate(-95.07 496.6) rotate(-60)" style="fill: #0c022f"/>
        <ellipse cx="384.14" cy="330.63" rx="0.66" ry="1.15" transform="translate(-94.27 497.99) rotate(-60)" style="fill: #5333ed"/>
        <ellipse cx="389.96" cy="330.96" rx="1.14" ry="1.97" transform="translate(-91.65 503.19) rotate(-60)" style="fill: #5333ed"/>
        <path d="M389,324.85l2.27-.69a2.12,2.12,0,0,0-.41-2.29l-.39-.41a2.67,2.67,0,0,0-2.77-.74c-1.56.53-2.22,2.12-4.72,3.51-.71.39-3.69.51-3.6,1.81a1.65,1.65,0,0,0,1.57,1.34,22.78,22.78,0,0,0,3-.25,7.24,7.24,0,0,0,2.53-.91C387.11,325.85,388,325.37,389,324.85Z" style="fill: #0c022f"/>
        <ellipse cx="390.93" cy="325.32" rx="1.94" ry="1.12" transform="matrix(0.99, -0.13, 0.13, 0.99, -37.64, 51.48)" style="fill: #0c022f"/>
        <ellipse cx="389.7" cy="323.71" rx="1.94" ry="1.12" transform="translate(-37.45 51.32) rotate(-7.19)" style="fill: #0c022f"/>
        <polygon points="392.73 324.75 391.52 323.16 387.94 324.31 389.12 325.87 392.73 324.75" style="fill: #0c022f"/>
        <path d="M385.51,322.26a23.53,23.53,0,0,1-2.31,1.81,2.78,2.78,0,0,1-1.1.42c-.74.16-.1,1.29.23,1.29,1.08,0,1.71-1.29,5.73-3Z" style="fill: #5333ed"/>
        <ellipse cx="381.13" cy="326.08" rx="2.22" ry="1.28" transform="translate(-37.81 50.26) rotate(-7.19)" style="fill: #0c022f"/>
        <ellipse cx="382.42" cy="325.11" rx="1.15" ry="0.66" transform="translate(-37.68 50.42) rotate(-7.19)" style="fill: #5333ed"/>
        <ellipse cx="387.36" cy="321.95" rx="1.93" ry="1.11" transform="translate(-64.82 100.07) rotate(-13.6)" style="fill: #5333ed"/>
        <path d="M387.69,302.72s-2.05,11.57-2.19,19.32l3.62,0s5.84-15.65,4.57-22.69C393.32,297.33,387.68,303.34,387.69,302.72Z" style="fill: #5333ed"/>
        <path d="M417,297.19s.65.15,1.23,1.61-.22,3.69,1.3,6.07l-15.19,10.08-6.75-5.06v3a1.81,1.81,0,0,1-2.54,1.66c-3.81-1.68-10.64-5-11-7.57-.55-3.56,1.28-3.33,1.66-3.32s7.92-9.12,11.29-7.86l6.77,2.51Z" style="fill: #150773"/>
        <ellipse cx="411.67" cy="309.54" rx="9.2" ry="5.31" transform="translate(-99.62 247.3) rotate(-30)" style="fill: #150773"/>
        <ellipse cx="410.82" cy="298.98" rx="6.98" ry="4.03" transform="translate(-94.45 245.47) rotate(-30)" style="fill: #150773"/>
        <path d="M397.62,309.89l-2.05-1.4s-1.69-.49-1.69,5.53l1.2.55a1.82,1.82,0,0,0,2.39-.94,4.76,4.76,0,0,0,.15-1.54Z" style="fill: #0c022f"/>
        <g>
          <polygon points="392.58 294.96 402.91 300.95 406.98 293.47 396.4 287.42 392.58 294.96" style="fill: #bdd2ef"/>
          <polygon points="385.35 299.08 392.58 294.96 402.91 300.95 395.79 305.07 385.35 299.08" style="fill: #dfe9f8"/>
        </g>
        <path d="M402.86,284.13l10.38-6h0a2,2,0,0,1,1.41-.22,4.48,4.48,0,0,1,2.72,1.6,2.31,2.31,0,0,1,.45,1.53l-.7,13.86h0c.18,2-1.63,4.58-4.57,6.28-3.52,2-7.33,2-8.5,0a2.67,2.67,0,0,1-.34-1.36h0l-2.49-13.24C401,285.85,401.69,284.81,402.86,284.13Z" style="fill: #dfe9f8"/>
        <path d="M419.37,285.44c0-1.54-.65-5.77-1.61-7-.47-1.07-2.35-1.28-4.2-.46s-3,2.34-2.5,3.41a40,40,0,0,1,1.69,15.17l0,.9a.75.75,0,0,0,0,.39c.27.61,1.33.72,2.38.26a7,7,0,0,0,3.73-5.95C419,291.08,419.42,287,419.37,285.44Z" style="fill: #dfe9f8"/>
        <path d="M417.2,296.56l.4-11.17s.5-.76.86,0-.42,1.93-.63,3.44a46.65,46.65,0,0,0,.31,6.39S417.57,296.11,417.2,296.56Z" style="fill: #bdd2ef"/>
        <g>
          <ellipse cx="409.94" cy="281.84" rx="3.48" ry="2.01" transform="translate(-87.48 289.34) rotate(-35.37)" style="fill: none;stroke: #5333ed;stroke-linecap: round;stroke-miterlimit: 10;stroke-width: 0.75px"/>
          <path d="M408.61,279.95l-3.13-1.81a2.85,2.85,0,0,1-1.42-2.47l1.13-7s5.16.47,5.16.59S408.61,279.95,408.61,279.95Z" style="fill: #ffc398"/>
          <path d="M412.68,275.82l-5.48-.74v8h0a1.06,1.06,0,0,0,.13.47c.48.83,2,.83,3.47,0a3.2,3.2,0,0,0,1.86-2.53h0Z" style="fill: #ffc398"/>
          <path d="M413,280.63a3.88,3.88,0,0,1-1.88,2.85c-1.57,1.11-3.36,1.28-4,.38a1.51,1.51,0,0,1-.25-.94" style="fill: none;stroke: #5333ed;stroke-linecap: round;stroke-miterlimit: 10;stroke-width: 0.75px"/>
          <g>
            <path d="M417.52,269.73a6.36,6.36,0,0,0-9.47-4.94v.07a3.23,3.23,0,0,0-4.29,2.14,1.69,1.69,0,0,0-1.38,1.66c0,.14.2,1.7,1.69,1.69a1.71,1.71,0,0,0,.54-.1,3.28,3.28,0,0,0,.55.43,3.78,3.78,0,0,0,2,3l0,.46a34.07,34.07,0,0,1,3.75,4.21c.12.16,1.67-.41,1.88-.58.85-.69,2.24-2,3-2.78l.12-.17a8.87,8.87,0,0,0,1.7-5.06Z" style="fill: #5333ed"/>
            <polygon points="408.05 264.78 408.05 264.78 408.05 264.77 408.05 264.78" style="fill: #5333ed"/>
          </g>
          <path d="M408.12,273.38a1.25,1.25,0,0,0-.74-1c-.58-.34-1.21-.34-1.41,0a.43.43,0,0,0,0,.13h0l-.33,1.64,1.36,2.41a3.81,3.81,0,0,0,1.19-3.12Z" style="fill: #ffc398"/>
          <path d="M418.16,263.92h0a2,2,0,0,1,2,2v.84a3.94,3.94,0,0,1-3.94,3.94h0a0,0,0,0,1,0,0v-4.78a2,2,0,0,1,2-2Z" style="fill: #5333ed"/>
        </g>
        <path d="M374,273.64s2.62,1.81,2.77,1.94,1,1.23,1.75,2.2,5,4.41,4.42,5.48c-.19.37-4.31-1.74-4.58-1.89a16.18,16.18,0,0,1-3.52-2.89l-1.5-.78a1.78,1.78,0,0,1-1.4-.38l1.32-.25,2,.76-2.06-1.45a2.32,2.32,0,0,1-1.75-1.37l1.88.59,1.82,1-1.65-1.28a2.14,2.14,0,0,1-1.89-.89l2.19.22,1.89,1.13-2.2-1.65s-1.07-.22-1.24-1Z" style="fill: #ffc398"/>
        <path d="M408.28,288.22c1.52-1.33-.87-4.66-4-4.3,0,0-7.08,3.12-13.41,3-3.2-.08-7.58-5.75-10.9-8.54-.42-.35-1.87,2.3-1.53,3.4.21.68,3.51,7.92,9,10.23C396.19,295.63,405.35,290.79,408.28,288.22Z" style="fill: #dfe9f8"/>
        <path d="M402.1,291.71l3.88-1.46-.08,1.13a7.79,7.79,0,0,1-3.42,1.75Z" style="fill: #a3bbd8"/>
      </g>
      <g>
        <path d="M327.87,375c-.32.08-.48-.18-.71.17a1.83,1.83,0,0,0-.33,1.1,2.38,2.38,0,0,0,.68,1.72,16.55,16.55,0,0,0,5.76,3.63,2.53,2.53,0,0,1,1,.45,5.88,5.88,0,0,0,1.35.88l.4-1-6.65-4.22-1.52-1.58Z" style="fill: #0c022f"/>
        <ellipse cx="336.3" cy="381.79" rx="1.39" ry="2.41" transform="translate(-162.49 482.13) rotate(-60)" style="fill: #0c022f"/>
        <path d="M327.39,375.37c.7-1.08,3.13.61,3.93.73a29.64,29.64,0,0,1,5.62,1.18,2.65,2.65,0,0,1,1.75,2.25,2.77,2.77,0,0,1,.06.61,12.46,12.46,0,0,0-.21,1.8s0,0,0,0a.7.7,0,0,1-.08.33c-.24.41-.89.5-1.61.27h0a51.56,51.56,0,0,1-6.37-3,14.07,14.07,0,0,1-2.64-2.17C327.43,376.88,326.95,376.07,327.39,375.37Z" style="fill: #dfe9f8"/>
        <ellipse cx="336.6" cy="378.18" rx="1.11" ry="1.93" transform="translate(-159.21 480.59) rotate(-60)" style="fill: #5b3427"/>
        <path d="M330.2,375.62a2.43,2.43,0,0,0-1.58.64" style="fill: none;stroke: #120667;stroke-linecap: round;stroke-miterlimit: 10;stroke-width: 0.389624108015178px"/>
        <path d="M331,376a2.43,2.43,0,0,0-1.58.64" style="fill: none;stroke: #120667;stroke-linecap: round;stroke-miterlimit: 10;stroke-width: 0.389624108015178px"/>
        <path d="M332.16,376.22a2.43,2.43,0,0,0-1.58.64" style="fill: none;stroke: #120667;stroke-linecap: round;stroke-miterlimit: 10;stroke-width: 0.389624108015178px"/>
        <path d="M333.38,376.4a2.43,2.43,0,0,0-1.58.64" style="fill: none;stroke: #120667;stroke-linecap: round;stroke-miterlimit: 10;stroke-width: 0.389624108015178px"/>
        <path d="M334.65,376.64a2.43,2.43,0,0,0-1.58.64" style="fill: none;stroke: #120667;stroke-linecap: round;stroke-miterlimit: 10;stroke-width: 0.389624108015178px"/>
        <path d="M340,368c-.32.08-.48-.18-.71.17a1.83,1.83,0,0,0-.33,1.1,2.38,2.38,0,0,0,.68,1.72,16.55,16.55,0,0,0,5.76,3.63,2.53,2.53,0,0,1,1,.45,5.88,5.88,0,0,0,1.35.88l.4-1-6.65-4.22L340,369.11Z" style="fill: #0c022f"/>
        <ellipse cx="348.44" cy="374.71" rx="1.39" ry="2.41" transform="translate(-150.29 489.11) rotate(-60)" style="fill: #0c022f"/>
        <path d="M339.54,368.29c.7-1.08,3.13.61,3.93.73a29.64,29.64,0,0,1,5.62,1.18,2.65,2.65,0,0,1,1.75,2.25,2.77,2.77,0,0,1,.06.61,12.46,12.46,0,0,0-.21,1.8s0,0,0,0a.7.7,0,0,1-.08.33c-.24.41-.89.5-1.61.27h0a51.56,51.56,0,0,1-6.37-3,14.07,14.07,0,0,1-2.64-2.17C339.58,369.8,339.09,369,339.54,368.29Z" style="fill: #dfe9f8"/>
        <ellipse cx="348.74" cy="371.1" rx="1.11" ry="1.93" transform="translate(-147.01 487.57) rotate(-60)" style="fill: #5b3427"/>
        <path d="M342.35,368.54a2.43,2.43,0,0,0-1.58.64" style="fill: none;stroke: #120667;stroke-linecap: round;stroke-miterlimit: 10;stroke-width: 0.389624108015178px"/>
        <path d="M343.14,368.92a2.43,2.43,0,0,0-1.58.64" style="fill: none;stroke: #120667;stroke-linecap: round;stroke-miterlimit: 10;stroke-width: 0.389624108015178px"/>
        <path d="M344.3,369.14a2.43,2.43,0,0,0-1.58.64" style="fill: none;stroke: #120667;stroke-linecap: round;stroke-miterlimit: 10;stroke-width: 0.389624108015178px"/>
        <path d="M345.53,369.32a2.43,2.43,0,0,0-1.58.64" style="fill: none;stroke: #120667;stroke-linecap: round;stroke-miterlimit: 10;stroke-width: 0.389624108015178px"/>
        <path d="M346.79,369.56a2.43,2.43,0,0,0-1.58.64" style="fill: none;stroke: #120667;stroke-linecap: round;stroke-miterlimit: 10;stroke-width: 0.389624108015178px"/>
        <polygon points="350.12 363.41 350.49 371.78 346.99 370.41 346.24 363.98 350.12 363.41" style="fill: #5b3427"/>
        <polygon points="337.98 370.49 338.35 378.86 334.84 377.49 334.1 371.06 337.98 370.49" style="fill: #5b3427"/>
        <path d="M346.3,364.57a5.31,5.31,0,0,1,.86-.62l.27-.14,2.68-.39.18,4.1a5,5,0,0,1-1.28,1,4.66,4.66,0,0,1-2.18.66Z" style="fill: #351812"/>
        <path d="M334.17,371.7a4.31,4.31,0,0,1,.71-.76l3.1-.45.18,4.07a5.37,5.37,0,0,1-.63.43,4,4,0,0,1-2.91.57Z" style="fill: #351812"/>
        <path d="M345.18,366.45v-1.15a3.46,3.46,0,0,1,2-2.68c1.54-.89,3.2-.89,3.71,0a1.27,1.27,0,0,1,.11.89h0v1.11h0a3.53,3.53,0,0,1-2,2.62c-1.54.89-3.2.89-3.71,0a1.13,1.13,0,0,1-.13-.41h0v-.13A1.41,1.41,0,0,1,345.18,366.45Z" style="fill: #120667"/>
        <path d="M333.66,371.74h0a3.47,3.47,0,0,1,2-2.67c1.54-.89,3.2-.89,3.71,0a1.21,1.21,0,0,1,.14.73h0V371h0a3.45,3.45,0,0,1-2,2.69c-1.54.89-3.2.89-3.71,0a1.16,1.16,0,0,1-.14-.54h0Z" style="fill: #120667"/>
        <path d="M352.14,342c-1.24,13.22-1.62,20.5-1.62,20.5.46.79-.28,2.07-1.65,2.86s-2.85.79-3.31,0a1,1,0,0,1-.12-.49h0c.15-8.57-2.22-15-3-22.51l-3.22,27h0a3.15,3.15,0,0,1-1.83,2.5c-1.42.82-2.95.82-3.42,0a1.08,1.08,0,0,1-.13-.54h0c-.29-9-1.11-19.3-2-28.64-.92-9.52,8.33-5.68,16.5-8C349.89,334.33,352.14,342,352.14,342Z" style="fill: #dfe9f8"/>
        <path d="M349.66,364.92s1.16-22,0-26.92c0,0,.23,22.07-.79,27.41Z" style="fill: #bdd2ef"/>
        <path d="M338.19,371.34s1.16-22,0-26.92c0,0,.27,22.15-.75,27.48Z" style="fill: #bdd2ef"/>
        <g>
          <polyline points="348.56 379.44 361.54 344.77 361.54 386.94" style="fill: none;stroke: #2cd4d9;stroke-linecap: round;stroke-miterlimit: 10;stroke-width: 1.55849643206071px"/>
          <line x1="374.35" y1="378.6" x2="361.54" y2="344.77" style="fill: none;stroke: #2cd4d9;stroke-linecap: round;stroke-miterlimit: 10;stroke-width: 1.55849643206071px"/>
          <g>
            <path d="M374.51,349.18c0,4.14-5.81,7.49-13,7.49s-13-3.35-13-7.49v-4.42c1-3.55,6.53-3.08,13-3.08s11.9-.44,13,3.08Z" style="fill: #150773"/>
            <ellipse cx="361.54" cy="344.77" rx="12.97" ry="7.49" style="fill: #5333ed"/>
          </g>
        </g>
        <path d="M369.83,330.77s.65.15,1.23,1.61-.22,3.69,1.3,6.07l-12.92,11s-26.32-7.09-27.25-9.5c-1.29-3.33,8.58-5.08,8.58-5.08s1.75-6.12,5.67-6l10.12,3Z" style="fill: #dfe9f8"/>
        <ellipse cx="364.47" cy="343.12" rx="9.2" ry="5.31" transform="translate(-122.73 228.2) rotate(-30)" style="fill: #dfe9f8"/>
        <g>
          <path d="M336.45,298.84a2.72,2.72,0,0,0,1.53,2.32,10.23,10.23,0,0,0,3,1h0a2.08,2.08,0,0,0,1.57-.59,1.13,1.13,0,0,0,.12-1.74.63.63,0,0,0-.24-.16h0s-4.25-3-4.46-3.09l-3.09-1.45-2.27-.49c.4.89,1.85,1.21,1.85,1.21L336.6,297a1.68,1.68,0,0,0-.35.54c-.18.4.18.86.2,1.3Z" style="fill: #5b3427"/>
          <path d="M369.85,313.92l-19.54-.29-3.75-4.1-6.73-7.84h0a2.55,2.55,0,0,1-1.44-3.07l-.73-1.42c-1.62.42-1.81-.23-1.81-.23l2-.83a11.74,11.74,0,0,1,2.6,1.35c.52.7,2.38,2.52,2.38,2.52h0a4.53,4.53,0,0,1,.47.44h0l6.36,6.14h0l2.68,2.54L367.42,307Z" style="fill: #724c3b"/>
        </g>
        <path d="M351,307.92a3.25,3.25,0,0,0-3.25,2.79l2,2.46L360.94,308l-4.42.54-4.19.62Z" style="fill: #5333ed"/>
        <path d="M351.16,311.63l14.63-8.44h0a2.78,2.78,0,0,1,2-.31,6.32,6.32,0,0,1,3.83,2.25,3.26,3.26,0,0,1,.63,2.15l-1,19.53h0c.25,2.81-2.29,6.45-6.45,8.85-5,2.86-10.32,2.86-12,0a3.77,3.77,0,0,1-.48-1.91h0l-3.51-18.66C348.56,314,349.52,312.58,351.16,311.63Z" style="fill: #5333ed"/>
        <ellipse cx="360.01" cy="308.22" rx="3.48" ry="2.01" transform="translate(-111.97 265.3) rotate(-35.37)" style="fill: none;stroke: #dfe9f8;stroke-linecap: round;stroke-miterlimit: 10;stroke-width: 0.7000000000000001px"/>
        <path d="M358.68,306.33l-3.13-1.81a2.85,2.85,0,0,1-1.42-2.47l1.13-7s5.16.47,5.16.59S358.68,306.33,358.68,306.33Z" style="fill: #724c3b"/>
        <path d="M362.74,302.2l-5.48-.74v8h0a1.06,1.06,0,0,0,.13.47c.48.83,2,.83,3.47,0a3.2,3.2,0,0,0,1.86-2.53h0Z" style="fill: #724c3b"/>
        <path d="M363.07,307a3.88,3.88,0,0,1-1.88,2.85c-1.57,1.11-3.36,1.28-4,.38a1.51,1.51,0,0,1-.25-.94" style="fill: none;stroke: #dfe9f8;stroke-linecap: round;stroke-miterlimit: 10;stroke-width: 0.7000000000000001px"/>
        <g>
          <path d="M367.58,296.1a6.36,6.36,0,0,0-9.47-4.94v.07c-.36-.14-3.09,5.69-2.89,5.82a3.78,3.78,0,0,0,2,3l0,.46a16.81,16.81,0,0,0,4.79,4.65c.18.1.63-.85.84-1,.85-.69,2.24-2,3-2.78l.12-.17a8.87,8.87,0,0,0,1.7-5.06Z" style="fill: #120667"/>
          <polygon points="358.11 291.16 358.11 291.16 358.11 291.15 358.11 291.16" style="fill: #120667"/>
          <circle cx="357.52" cy="294.46" r="3.4" style="fill: #120667"/>
          <circle cx="355.67" cy="292.55" r="1.8" style="fill: #120667"/>
          <circle cx="362.92" cy="302.3" r="1.8" style="fill: #120667"/>
          <circle cx="358.91" cy="300.77" r="1.8" style="fill: #120667"/>
          <circle cx="364.42" cy="301.24" r="1.8" style="fill: #120667"/>
          <circle cx="365.17" cy="299.37" r="1.8" style="fill: #120667"/>
          <circle cx="356.08" cy="291.23" r="1.24" style="fill: #120667"/>
        </g>
        <path d="M358.19,299.76a1.25,1.25,0,0,0-.74-1c-.58-.34-1.21-.34-1.41,0a.43.43,0,0,0,0,.13h0l-.33,1.64,1.36,2.41a3.81,3.81,0,0,0,1.19-3.12Z" style="fill: #724c3b"/>
        <polygon points="355.87 336.35 356.45 322.85 355.61 323.79 355.29 335.91 355.87 336.35" style="fill: #150773"/>
        <path d="M349.6,312.79s1.25-.83,2.21-1.54,4.71-2.75,4.71-2.75l-1.37.21-3.79,2.21a12.17,12.17,0,0,0-2,1.63Z" style="fill: #150773"/>
        <path d="M342.69,344.54l5.92,1.88v1.47a7,7,0,0,1-5.63-1.56Z" style="fill: #bdd2ef"/>
        <path d="M367.64,347.33a18.31,18.31,0,0,0,.42-4.58l.83,3.67A5.18,5.18,0,0,1,367.64,347.33Z" style="fill: #bdd2ef"/>
        <g>
          <polygon points="338.91 330.3 349.25 336.28 353.31 328.8 342.73 322.76 338.91 330.3" style="fill: #bdd2ef"/>
          <polygon points="331.69 334.42 338.91 330.3 349.25 336.28 342.13 340.41 331.69 334.42" style="fill: #dfe9f8"/>
        </g>
        <path d="M335.14,336.38l7,4,3.31-2,.29,1.17s-2.67,1-3.54,2.33l-8-5.12Z" style="fill: #bdd2ef"/>
        <g>
          <path d="M351.77,341.36c6.08-2.42,3.07-16.44,3.07-16.44s-3.63,10.81-5.19,11c-3.89.5-11-3.49-11-3.49a6,6,0,0,0-6.22-2.85s0,.5.62.62a4.78,4.78,0,0,1,.86,0,26.71,26.71,0,0,1,.93,4.34,11.69,11.69,0,0,0,3.6.77S348,342.87,351.77,341.36Z" style="fill: #724c3b"/>
          <path d="M334.1,330.1s1,3.71.73,4.46l-2,.52a1.53,1.53,0,0,1-1.16,1l.5-1.68.95-.59-1.45.27-.07.72s-.58,0-.62-.54a4.25,4.25,0,0,1,.1-.56.25.25,0,0,1-.18-.33,1.47,1.47,0,0,1,.31-.63,7.16,7.16,0,0,1,1.24-.74l-1.2.09a.47.47,0,0,1-.41-.53c0-.48.63-.56.63-.56Z" style="fill: #724c3b"/>
        </g>
        <path d="M351.77,341.36c6.08-2.42,3.07-16.44,3.07-16.44l-6-9.81s2.41,20.62.85,20.82C345.76,336.43,348,342.87,351.77,341.36Z" style="fill: #5333ed"/>
      </g>
    </g>
  </g>
</svg>
