<svg xmlns="http://www.w3.org/2000/svg" xmlns:xlink="http://www.w3.org/1999/xlink" width="282.01" height="220" viewBox="0 0 282.01 220">
  <defs>
    <linearGradient id="2d31509e-1fe9-4d57-a4bd-d8bf418b8406" x1="0.01" y1="124.49" x2="247.01" y2="124.49" gradientUnits="userSpaceOnUse">
      <stop offset="0" stop-color="#dfe9f8" stop-opacity="0"/>
      <stop offset="0.6" stop-color="#dfe9f8"/>
      <stop offset="1" stop-color="#dfe9f8" stop-opacity="0"/>
    </linearGradient>
  </defs>
  <title>affiliate-chill</title>
  <g id="eafddf97-8c49-4c0e-b533-8d3e60ff15e3" data-name="figures and interactions">
    <g>
      <line x1="0.01" y1="124.49" x2="247.01" y2="124.49" style="fill: none;stroke-linejoin: round;stroke-width: 2px;stroke: url(#2d31509e-1fe9-4d57-a4bd-d8bf418b8406)"/>
      <g>
        <ellipse cx="143.43" cy="66.32" rx="27.15" ry="47.01" transform="translate(14.28 157.38) rotate(-60)" style="fill: none;stroke: #dfe9f8;stroke-linejoin: round;stroke-width: 2px"/>
        <path d="M104.6,40.13c7.46-12.93,33.95-17.06,56.34-4.14s32.2,38,24.74,50.94" style="fill: none;stroke: #dfe9f8;stroke-linejoin: round;stroke-width: 2px"/>
        <path d="M128.68,89.24l25.25-41.5s21.17,9.92,30.21,42.09" style="fill: none;stroke: #dfe9f8;stroke-linejoin: round;stroke-width: 1.5px"/>
        <path d="M106.18,67.74c21-19.25,47.75-20,47.75-20-26.75-15.25-51.21-4.92-51.21-4.92" style="fill: none;stroke: #dfe9f8;stroke-linejoin: round;stroke-width: 1.5px"/>
        <path d="M144.68,36.74a34,34,0,0,1,9.25,11c12.25,26.5,4.5,51.75,4.5,51.75" style="fill: none;stroke: #dfe9f8;stroke-linejoin: round;stroke-width: 1.5px"/>
        <path d="M136.68,34.24s5.75-5,21.5.25" style="fill: none;stroke: #dfe9f8;stroke-linejoin: round;stroke-width: 1.5px"/>
        <path d="M157,42.81a39.14,39.14,0,0,0-3.07,4.93s12.25,2,20,8" style="fill: none;stroke: #dfe9f8;stroke-linejoin: round;stroke-width: 1.5px"/>
        <path d="M162.56,37.05s6.46,7.35,7.71,15.35" style="fill: none;stroke: #dfe9f8;stroke-linejoin: round;stroke-width: 1.5px"/>
        <path d="M181.93,66.24s-.62-10.06-5.37-17.31" style="fill: none;stroke: #dfe9f8;stroke-linejoin: round;stroke-width: 1.5px"/>
        <path d="M118.6,33.32s9-5.5,17.17-5.17" style="fill: none;stroke: #dfe9f8;stroke-linejoin: round;stroke-width: 1.5px"/>
        <line x1="153.93" y1="47.74" x2="118.76" y2="139.32" style="fill: none;stroke: #dfe9f8;stroke-linejoin: round;stroke-width: 2px"/>
      </g>
      <g>
        <path d="M157.28,171.53l-2.62-2a1.9,1.9,0,0,1-.95-1.65,54.69,54.69,0,0,0-1.87-14.47l6.84,3.93v12.25a1.3,1.3,0,0,1-.44,1C157.84,170.91,157.28,171.53,157.28,171.53Z" style="fill: #b7835f"/>
        <path d="M155.76,171.65l-2-1.19a1.9,1.9,0,0,1-.95-1.65c0-2.4-.15-10.13-1.87-16.19l6.84,3.93v14A1.32,1.32,0,0,1,155.76,171.65Z" style="fill: #9e684d"/>
        <path d="M65.83,73.93a2.2,2.2,0,0,1,3.11.73L92.5,116.4l73.87,42.38a1.85,1.85,0,0,1,0,3.22h0c-.57.32-1.34.78-1.34.78L88.4,118.64,64.83,74.44Z" style="fill: #b7835f"/>
        <path d="M64.71,74.51h0a2.2,2.2,0,0,1,3.11.73L91.38,117l73.82,42.36a1.93,1.93,0,0,1,.07,3.3h0a1.93,1.93,0,0,1-2,0l-76-43.46L64,77.44A2.2,2.2,0,0,1,64.71,74.51Z" style="fill: #9e684d"/>
        <polygon points="115.19 185.91 161.46 158.63 90.4 117.7 43.06 144.45 115.19 185.91" style="fill: #dfe9f8"/>
        <polygon points="20.14 103.53 66.42 76.25 90.67 117.79 43.32 144.54 20.14 103.53" style="fill: #bdd2ef"/>
        <polyline points="161.46 158.63 115.19 185.91 115.19 189.37 162.77 159.42 161.46 158.63" style="fill: #b7835f"/>
        <polyline points="162.77 159.42 116.5 186.7 116.5 189.16 162.71 161.7 162.77 159.42" style="fill: #9e684d"/>
        <path d="M16.71,102.05a2.2,2.2,0,0,1,3.11.73l23.56,41.74,73.87,42.38a1.85,1.85,0,0,1,0,3.22h0c-.57.32-1.34.78-1.34.78L39.28,146.76l-23.57-44.2Z" style="fill: #b7835f"/>
        <path d="M15.58,102.64h0a2.2,2.2,0,0,1,3.11.73l23.56,41.74,73.82,42.36a1.93,1.93,0,0,1,.07,3.3h0a1.93,1.93,0,0,1-2,0l-76-43.46L14.89,105.57A2.2,2.2,0,0,1,15.58,102.64Z" style="fill: #9e684d"/>
        <g>
          <path d="M18.69,130.83a.86.86,0,0,1,.82,0l97.73,56.05a1.85,1.85,0,0,1,0,3.22h0c-.57.32-1.34.78-1.34.78L18,131.2Z" style="fill: #b7835f"/>
          <path d="M18,131.2l98.09,56.27a1.93,1.93,0,0,1,.07,3.3h0a1.93,1.93,0,0,1-2,0L18,135.74Z" style="fill: #9e684d"/>
        </g>
        <path d="M104.94,200.53l-2.62-2a1.9,1.9,0,0,1-.95-1.65A54.69,54.69,0,0,0,99.5,182.4l6.84,3.93v12.25a1.3,1.3,0,0,1-.44,1C105.5,199.91,104.94,200.53,104.94,200.53Z" style="fill: #b7835f"/>
        <path d="M103.43,200.65l-2-1.19a1.9,1.9,0,0,1-.95-1.65c0-2.4-.15-10.13-1.87-16.19l6.84,3.93v14A1.32,1.32,0,0,1,103.43,200.65Z" style="fill: #9e684d"/>
        <g>
          <path d="M32.39,154.45l-2.62,2.49a1.9,1.9,0,0,1-.95-1.65A54.69,54.69,0,0,0,27,140.81l6.84,3.93v7.75a1.3,1.3,0,0,1-.44,1C32.95,153.83,32.39,154.45,32.39,154.45Z" style="fill: #b7835f"/>
          <path d="M30.87,154.57l-2,3.31a1.9,1.9,0,0,1-.95-1.65c0-2.4-.15-10.13-1.87-16.19L32.86,144v9.46A1.32,1.32,0,0,1,30.87,154.57Z" style="fill: #9e684d"/>
        </g>
        <ellipse cx="30.32" cy="152.03" rx="4.31" ry="7.46" style="fill: #0c022f"/>
        <path d="M30.32,148.25c1.21,0,2.19,1.69,2.19,3.78s-1,3.78-2.19,3.78h-.69a6.81,6.81,0,0,1-1.5-3.78,7,7,0,0,1,1.5-3.78Z" style="fill: #b7835f"/>
        <ellipse cx="29.63" cy="152.03" rx="2.19" ry="3.78" style="fill: #9e684d"/>
      </g>
      <g>
        <polygon points="31.52 189.35 17.07 197.69 8.13 192.48 8.13 191.82 22.58 183.47 31.52 188.67 31.52 189.35" style="fill: #43414e"/>
        <polygon points="31.52 188.67 17.07 197.01 8.13 191.82 22.58 183.47 31.52 188.67" style="fill: #6e7075"/>
        <polygon points="22.61 171.86 22.61 183.46 8.13 191.82 8.13 180.22 22.61 171.86" style="fill: #43414e"/>
        <g>
          <g>
            <polygon points="8.44 181.98 8.44 180.52 10.64 179.25 10.64 180.76 8.44 182.03 8.44 181.98" style="fill: #120667"/>
            <polygon points="10.64 180.76 10.64 181.74 8.44 183.01 8.44 182.03 10.64 180.76" style="fill: #2cd4d9"/>
          </g>
          <polygon points="8.44 183.01 10.64 181.74 10.64 189.91 8.44 191.18 8.44 183.01" style="fill: #120667"/>
          <polygon points="10.64 179.25 17.54 175.29 22.36 172.51 22.36 173.97 22.36 174.01 10.64 180.76 10.64 179.25" style="fill: #fff"/>
          <polygon points="10.64 180.76 22.36 174.01 22.36 183.17 17.54 185.95 10.64 189.91 10.64 180.76" style="fill: #dfe9f8"/>
          <polygon points="10.12 180.19 10.12 180.44 8.9 181.16 8.9 180.9 10.12 180.19" style="fill: #2cd4d9"/>
        </g>
        <polygon points="26.67 190.75 21.35 193.82 18.05 191.91 23.38 188.84 26.67 190.75" style="fill: #888a8e"/>
        <polygon points="23.11 188.64 17.79 191.71 16.95 191.23 22.28 188.16 23.11 188.64" style="fill: #43414e"/>
        <polygon points="22.73 187.9 23.47 187.47 24.3 187.95 23.56 188.38 22.73 187.9" style="fill: #43414e"/>
        <polygon points="24.1 185.87 25.15 185.27 25.98 185.75 24.93 186.35 24.1 185.87" style="fill: #43414e"/>
        <polygon points="21.92 184.62 22.98 184.02 23.81 184.5 22.76 185.1 21.92 184.62" style="fill: #43414e"/>
        <polygon points="11.59 193.05 13.08 192.2 13.91 192.68 12.42 193.53 11.59 193.05" style="fill: #43414e"/>
        <polygon points="10.53 192.41 12.46 191.31 13.29 191.79 11.36 192.88 10.53 192.41" style="fill: #43414e"/>
        <polygon points="9.45 191.82 10.94 190.97 11.77 191.45 10.28 192.3 9.45 191.82" style="fill: #43414e"/>
        <polygon points="24.68 186.78 25.42 186.35 26.25 186.83 25.51 187.25 24.68 186.78" style="fill: #43414e"/>
        <polygon points="23.7 187.34 24.44 186.92 25.27 187.4 24.53 187.82 23.7 187.34" style="fill: #43414e"/>
        <polygon points="19.18 188.67 19.92 188.25 20.75 188.72 20.01 189.15 19.18 188.67" style="fill: #43414e"/>
        <polygon points="23.11 186.41 23.85 185.99 24.68 186.47 23.94 186.89 23.11 186.41" style="fill: #43414e"/>
        <polygon points="22.13 186.98 22.87 186.55 23.7 187.03 22.96 187.46 22.13 186.98" style="fill: #43414e"/>
        <polygon points="21.14 187.55 21.88 187.13 22.71 187.6 21.97 188.03 21.14 187.55" style="fill: #43414e"/>
        <polygon points="20.15 188.12 20.89 187.69 21.73 188.17 20.99 188.6 20.15 188.12" style="fill: #43414e"/>
        <polygon points="14.3 191.5 15.04 191.07 15.87 191.55 15.13 191.98 14.3 191.5" style="fill: #43414e"/>
        <polygon points="13.33 192.06 14.07 191.63 14.9 192.11 14.16 192.54 13.33 192.06" style="fill: #43414e"/>
        <polygon points="18.22 189.24 18.97 188.81 19.8 189.29 19.06 189.72 18.22 189.24" style="fill: #43414e"/>
        <polygon points="17.24 189.81 17.98 189.38 18.82 189.86 18.07 190.29 17.24 189.81" style="fill: #43414e"/>
        <polygon points="16.25 190.38 16.99 189.95 17.82 190.43 17.09 190.86 16.25 190.38" style="fill: #43414e"/>
        <polygon points="15.27 190.95 16.01 190.52 16.84 191 16.1 191.43 15.27 190.95" style="fill: #43414e"/>
        <polygon points="18.6 187.78 19.34 187.36 20.17 187.84 19.43 188.26 18.6 187.78" style="fill: #43414e"/>
        <polygon points="22.52 185.53 23.27 185.1 24.1 185.58 23.36 186 22.52 185.53" style="fill: #43414e"/>
        <polygon points="21.54 186.09 22.28 185.66 23.11 186.14 22.38 186.57 21.54 186.09" style="fill: #43414e"/>
        <polygon points="20.55 186.66 21.29 186.24 22.13 186.72 21.39 187.14 20.55 186.66" style="fill: #43414e"/>
        <polygon points="19.57 187.23 20.31 186.8 21.14 187.28 20.4 187.71 19.57 187.23" style="fill: #43414e"/>
        <polygon points="13.71 190.61 14.46 190.18 15.29 190.66 14.55 191.09 13.71 190.61" style="fill: #43414e"/>
        <polygon points="12.74 191.17 13.48 190.75 14.32 191.22 13.58 191.65 12.74 191.17" style="fill: #43414e"/>
        <polygon points="17.64 188.35 18.38 187.93 19.21 188.41 18.47 188.83 17.64 188.35" style="fill: #43414e"/>
        <polygon points="16.66 188.92 17.4 188.49 18.23 188.97 17.49 189.4 16.66 188.92" style="fill: #43414e"/>
        <polygon points="15.67 189.49 16.41 189.06 17.24 189.54 16.5 189.97 15.67 189.49" style="fill: #43414e"/>
        <polygon points="14.69 190.06 15.43 189.63 16.26 190.11 15.52 190.54 14.69 190.06" style="fill: #43414e"/>
        <polygon points="17.02 187.44 17.76 187.01 18.59 187.49 17.85 187.92 17.02 187.44" style="fill: #43414e"/>
        <polygon points="20.95 185.18 21.69 184.75 22.52 185.23 21.78 185.66 20.95 185.18" style="fill: #43414e"/>
        <polygon points="19.96 185.75 20.7 185.32 21.54 185.8 20.8 186.23 19.96 185.75" style="fill: #43414e"/>
        <polygon points="18.97 186.32 19.72 185.89 20.55 186.37 19.81 186.8 18.97 186.32" style="fill: #43414e"/>
        <polygon points="17.99 186.89 18.73 186.46 19.57 186.94 18.82 187.37 17.99 186.89" style="fill: #43414e"/>
        <polygon points="12.13 190.27 12.88 189.84 13.71 190.32 12.97 190.75 12.13 190.27" style="fill: #43414e"/>
        <polygon points="11.16 190.83 11.91 190.4 12.74 190.88 12 191.31 11.16 190.83" style="fill: #43414e"/>
        <polygon points="16.06 188.01 16.8 187.58 17.64 188.06 16.89 188.49 16.06 188.01" style="fill: #43414e"/>
        <polygon points="15.08 188.58 15.82 188.15 16.65 188.63 15.91 189.06 15.08 188.58" style="fill: #43414e"/>
        <polygon points="14.09 189.15 14.83 188.72 15.66 189.2 14.92 189.63 14.09 189.15" style="fill: #43414e"/>
        <polygon points="13.11 189.72 13.85 189.29 14.68 189.77 13.94 190.19 13.11 189.72" style="fill: #43414e"/>
        <polygon points="15.96 191.8 16.7 191.37 17.53 191.85 16.79 192.28 15.96 191.8" style="fill: #43414e"/>
        <polygon points="14.98 192.37 15.72 191.94 16.55 192.42 15.81 192.84 14.98 192.37" style="fill: #43414e"/>
        <polygon points="13.99 192.94 14.73 192.51 15.56 192.99 14.82 193.42 13.99 192.94" style="fill: #43414e"/>
        <polygon points="13.01 193.5 13.75 193.08 14.58 193.56 13.84 193.98 13.01 193.5" style="fill: #43414e"/>
      </g>
      <g>
        <path d="M38.86,171.39l-8.53,0c1.33,1.54,4,4.27,4,4.27v3a.47.47,0,0,1-.39.46c-1,.16-1.72.67-1.72,1.29s1,1.35,2.33,1.35,2.33-.6,2.33-1.35-.73-1.14-1.72-1.29a.47.47,0,0,1-.39-.46v-3A50.49,50.49,0,0,0,38.86,171.39Z" style="fill: #dfe9f8"/>
        <ellipse cx="34.6" cy="170.51" rx="4.53" ry="2.62" style="fill: #dfe9f8"/>
        <path d="M36.89,173.16h-4.4a9.27,9.27,0,0,0,1.94,2,.61.61,0,0,0,.34,0A10.36,10.36,0,0,0,36.89,173.16Z" style="fill: #19afaf"/>
        <ellipse cx="34.68" cy="172.27" rx="2.69" ry="1.56" style="fill: #2cd4d9"/>
        <circle cx="35.57" cy="172.54" r="0.89" style="fill: #5333ed"/>
        <path d="M34.6,168.4c2.18,0,4,1,4,2.12s-1.85,2.12-4,2.12-4-1-4-2.12,1.85-2.12,4-2.12m0-.5c-2.5,0-4.53,1.17-4.53,2.62s2,2.62,4.53,2.62,4.53-1.17,4.53-2.62-2-2.62-4.53-2.62Z" style="fill: #bdd2ef"/>
        <line x1="35.83" y1="172.13" x2="38.13" y2="167.09" style="fill: none;stroke: #150773;stroke-linecap: round;stroke-miterlimit: 10;stroke-width: 0.5px"/>
      </g>
      <g>
        <ellipse cx="66.45" cy="127.63" rx="9.31" ry="5.38" transform="translate(-47.37 39.6) rotate(-24.78)" style="fill: #150773"/>
        <ellipse cx="72.61" cy="142.62" rx="7.59" ry="4.38" transform="translate(-53.09 43.56) rotate(-24.78)" style="fill: #150773"/>
        <ellipse cx="85.06" cy="135.51" rx="7.17" ry="4.14" transform="translate(-48.96 48.12) rotate(-24.78)" style="fill: #150773"/>
        <ellipse cx="85.94" cy="136.54" rx="6.06" ry="3.5" transform="translate(-49.31 48.59) rotate(-24.78)" style="fill: #724c3b"/>
        <ellipse cx="129.07" cy="160.92" rx="2.47" ry="1.43" transform="translate(-55.56 68.9) rotate(-24.78)" style="fill: #724c3b"/>
        <path d="M74.05,122.61l16.33,8.66-5.39.9L80.9,134.7l-1.48,4.82L70,140.1l-3.86,4.67-.17,1.29s-7.52-9.22-8-12.06c-.28-1.84-.66-2.81-.1-4.88L68.61,123Z" style="fill: #150773"/>
        <path d="M128,156a.6.6,0,0,1-.91.42L90.87,133.28l-7,3.18-2.54,3.6,45.79,22.25,1.6-.58,2.63-1.45C131.79,158,128,156,128,156Z" style="fill: #724c3b"/>
        <ellipse cx="73.17" cy="143.33" rx="6.06" ry="3.5" transform="translate(-53.33 43.86) rotate(-24.78)" style="fill: #724c3b"/>
        <ellipse cx="116.3" cy="167.7" rx="2.47" ry="1.43" transform="translate(-59.58 64.18) rotate(-24.78)" style="fill: #724c3b"/>
        <path d="M114.33,163.2,78.1,140.07l-7,3.18-2.54,3.6,45.79,22.25,1.6-.58,2.63-1.45C119,164.83,114.7,163.44,114.33,163.2Z" style="fill: #724c3b"/>
        <path d="M76.84,111.67l0-.13c2.48,5.93,11.48,14.16,17.9,16,0,0,.45-.26-.12.75a5.26,5.26,0,0,1-1.78,2s-14.62-3-22.06-16.33a7,7,0,0,0,2.59-.16A6,6,0,0,0,76.84,111.67Z" style="fill: #724c3b"/>
        <path d="M69.66,109.71c-.08-.46-.15-.93-.2-1.41l4-8.39a60.9,60.9,0,0,0,2.35,8.78c.33.94.69,1.9,1.09,2.86l0,.13a6,6,0,0,1-3.45,2.07,7,7,0,0,1-2.59.16A21.94,21.94,0,0,1,69.66,109.71Z" style="fill: #5333ed"/>
        <path d="M47.6,120.23a52.18,52.18,0,0,1,2-10.75,1.54,1.54,0,0,1,.06-.15l.1-.23,0,0a16.3,16.3,0,0,1,4.29-5.21c2.48-2,6.44-5.57,9.26-7.47a13.74,13.74,0,0,1,2.53-1.26,6.22,6.22,0,0,1,7.67,6.62s-2.93,8.64-2.72,11.62c0,.33.73,2.89,1.22,4.64,1.15,3.41,2.66,6-3.12,10-4,2.79-8.58,3.69-10,2.13a3.22,3.22,0,0,1-.6-1,42.53,42.53,0,0,1-1.23-5,4.4,4.4,0,0,0-.89-2.08l-2-2.34-.18-.21c-.06.38-.1.75-.14,1.12a4.47,4.47,0,0,1-2.58,1.56c-1.75.43-3.37,0-3.75-1Q47.57,120.76,47.6,120.23Z" style="fill: #5333ed"/>
        <ellipse cx="61.1" cy="103.31" rx="2.41" ry="4.17" transform="translate(-57.48 121.93) rotate(-68.32)" style="fill: none;stroke: #fff;stroke-linecap: round;stroke-miterlimit: 10;stroke-width: 0.779248216030355px"/>
        <path d="M57.91,103.77,56.23,97l6.28-1.56,2.24,9.22C65.23,106.72,59.49,106.22,57.91,103.77Z" style="fill: #5b3427"/>
        <path d="M57.18,102.77a4.85,4.85,0,0,0,3,2.78c2.14.85,4.27.54,4.76-.7a1.57,1.57,0,0,0,.07-1.14" style="fill: none;stroke: #fff;stroke-linecap: round;stroke-miterlimit: 10;stroke-width: 0.779248216030355px"/>
        <path d="M56.93,99.85A5.22,5.22,0,0,0,61,102.12a6.09,6.09,0,0,0,3-.51l-1.26-5.16-6.5.67Z" style="fill: #351812"/>
        <path d="M66.12,91.73a2,2,0,0,0-.77-2.27A4.12,4.12,0,0,0,62.16,89c-1.17-1.21-2.76,0-2.76,0a1.69,1.69,0,0,0-1.82-.42,4.12,4.12,0,0,0-1.37,1.69.76.76,0,0,0-1.08.65,1.18,1.18,0,0,0-1,1.73l-.06.08a2,2,0,1,0,3.69.92,1.85,1.85,0,0,0,1.46-1.11,3,3,0,0,0,.11-.37c-.08-1.3,1-1.36,1-1.36.87-.12,1.37,1.07,1.37,1.07l0-.05A2.41,2.41,0,0,0,62.9,93,2.45,2.45,0,0,0,66.12,91.73Z" style="fill: #0c022f"/>
        <path d="M54.85,96.88a1.46,1.46,0,0,1,1.1-1.75s0,0,.08,0L56,93.42A4.69,4.69,0,0,1,65.33,93l.16,3.9c.14,3.49-1.72,4.2-4.05,4.29a5.09,5.09,0,0,1-5-3.28A1.43,1.43,0,0,1,54.85,96.88Z" style="fill: #724c3b"/>
        <path d="M56,95.14A8.88,8.88,0,0,0,62.19,90a6.68,6.68,0,0,1,3.08,2.58,4.27,4.27,0,0,0-3.7-3.8c-3.55-.68-4.63,1-5.45,2s-1.09,2.86-1,4.84A1.41,1.41,0,0,1,56,95.14Z" style="fill: #0c022f"/>
        <path d="M54,119.59s.9-4.86,1.29-7l.52.81s.62,5.16-.61,7.62Z" style="fill: #150773"/>
        <path d="M70.8,113.91s.7-1.53,1.23-6.24l-.46-.62a48,48,0,0,1-1.38,5.21A5.83,5.83,0,0,0,70.8,113.91Z" style="fill: #150773"/>
        <path d="M120.13,172.08l.2.23c-1.56.84-5.52-1.57-5.52-3.34l1.67-9.47a4.19,4.19,0,0,1,2.17-3.67l.72-.4c1-.56,3,.63,2.95,1.8L121.5,169C121.49,170.08,121.09,171.57,120.13,172.08Z" style="fill: #150773"/>
        <path d="M120.71,172.35h0a2.34,2.34,0,0,1-3.45-2.06v-10a4.19,4.19,0,0,1,2.17-3.67l.72-.4a1.52,1.52,0,0,1,2.25,1.35l-.13,12.23A3,3,0,0,1,120.71,172.35Z" style="fill: #0c022f"/>
        <path d="M132.26,164.59l.2.23c-1.56.84-5.52-1.57-5.52-3.34l1.67-9.47a4.19,4.19,0,0,1,2.17-3.67l.72-.4c1-.56,3,.63,2.95,1.8l-.83,11.78C133.62,162.59,133.21,164.08,132.26,164.59Z" style="fill: #150773"/>
        <path d="M132.83,164.86h0a2.34,2.34,0,0,1-3.45-2.06v-10a4.19,4.19,0,0,1,2.17-3.67l.72-.4a1.52,1.52,0,0,1,2.25,1.35l-.13,12.23A3,3,0,0,1,132.83,164.86Z" style="fill: #0c022f"/>
        <path d="M47.54,121.3c.39,1,2,1.39,3.75,1a4.47,4.47,0,0,0,2.58-1.56c-1.48,15.74,1.44,9.74,8.42,3.37.57-.52,2.37.52,2.36,1.29L62.4,128.2C52.07,145.11,46,133,47.54,121.3Z" style="fill: #724c3b"/>
        <path d="M69.31,118.55s-3,2.22-3.19,2.37-.83.56-1,.51l.87-.93a2.67,2.67,0,0,0,1.31-1.39l-1.48.67c-1.94,1-4.31,5.06-4.31,5.06l1.74,2.54a13.48,13.48,0,0,0,5.19-3.1l1.74-1a2.09,2.09,0,0,0,1.63-.5l-1.56-.25-2.35,1,2.37-1.77a2.73,2.73,0,0,0,2-1.67l-2.19.76L68,122.11l1.89-1.56a2.51,2.51,0,0,0,2.19-1.11l-2.57.33-2.18,1.39,2.52-2s1.25-.3,1.42-1.27Z" style="fill: #724c3b"/>
        <path d="M102,132.79s-3.43-.83-3.65-.91a3.42,3.42,0,0,0-1.08-.09l1.17.51a2.67,2.67,0,0,1,1.76.75l-1.63,0c-2.17-.14-6-2.92-6-2.92l.58-3a13.48,13.48,0,0,1,6,.78l2,.2,1.66,1.14c-.16.36-1.55-.34-1.55-.34L99,128.77l3.57.86,1.47,1.63c-.32.43-2-.9-2-.9L99.66,130l2.73.71,1.71,1.41c-.25.49-2.12-.58-2.12-.58l-2.55-.41,2.92.76,1.5,1.53C103.21,133.66,102,132.79,102,132.79Z" style="fill: #724c3b"/>
      </g>
    </g>
  </g>
</svg>
