<svg xmlns="http://www.w3.org/2000/svg" xmlns:xlink="http://www.w3.org/1999/xlink" width="346.48" height="346.48" viewBox="0 0 346.48 346.48">
  <defs>
    <clipPath id="5a7985bf-d3e7-4419-b2ed-dd2768f39320">
      <path d="M155.31,252a3.82,3.82,0,0,0,1.72-2.22,8.07,8.07,0,0,1-2.58,1,4.3,4.3,0,0,0-3-1.23,4.1,4.1,0,0,0-4.06,4.06,1.82,1.82,0,0,0,.12.86,11.33,11.33,0,0,1-8.37-4.18,4.15,4.15,0,0,0,1.35,5.42,5.16,5.16,0,0,1-1.85-.49,4,4,0,0,0,3.2,3.94c-.25,0-.62.12-1,.12a1.56,1.56,0,0,1-.74-.12A4,4,0,0,0,144,262a7.83,7.83,0,0,1-5,1.72h-1a11.9,11.9,0,0,0,5.78,1.85h1a11.52,11.52,0,0,0,11-11.45v-.49a8,8,0,0,0,2-2.09C156.91,251.66,156.17,251.91,155.31,252Z" style="fill: #2cd4d9"/>
    </clipPath>
    <clipPath id="83369e66-87ca-4ea5-a845-d038fb7ef95e">
      <rect x="130.95" y="241.57" width="32" height="32" style="fill: #2cd4d9"/>
    </clipPath>
  </defs>
  <title>affiliate-easy-sell</title>
  <g style="isolation: isolate">
    <g id="31f604eb-60e4-4cc7-9097-824a70996667" data-name="figures and interactions">
      <path d="M155,156.89a20.36,20.36,0,0,0-6.44-4.37,19.58,19.58,0,0,0-7.82-1.59,20.2,20.2,0,0,0-7.38,1.38,20.41,20.41,0,0,0-6.32,3.92l-3.25-3.77a1.86,1.86,0,0,0-1.4-.64h-.1a1.85,1.85,0,0,0-1.84,1.85V195.4a1.85,1.85,0,0,0,1.84,1.86h7.86A1.85,1.85,0,0,0,132,195.4V171.29a8.5,8.5,0,0,1,.68-3.37,8.6,8.6,0,0,1,1.85-2.77,8.73,8.73,0,0,1,6.22-2.54,8.33,8.33,0,0,1,3.34.68,8.73,8.73,0,0,1,4.61,4.64,8.6,8.6,0,0,1,.67,3.37V195.4a1.86,1.86,0,0,0,1.85,1.86h7.86a1.85,1.85,0,0,0,1.84-1.86V171.29a20,20,0,0,0-1.58-7.91A20.73,20.73,0,0,0,155,156.89Zm89.14-5h-31a1.85,1.85,0,0,0-1.84,1.85v7.84a1.84,1.84,0,0,0,1.84,1.85h1.94a1.85,1.85,0,0,1,1.85,1.85v11.64a20,20,0,0,0,1.58,7.89,20.61,20.61,0,0,0,10.82,10.84,19.52,19.52,0,0,0,7.87,1.59h6.92A1.85,1.85,0,0,0,246,195.4v-7.84a1.85,1.85,0,0,0-1.84-1.85h-6.92a8.6,8.6,0,0,1-3.43-.7,9,9,0,0,1-2.79-1.88,8.69,8.69,0,0,1-1.86-2.78,8.59,8.59,0,0,1-.67-3.41V165.29a1.85,1.85,0,0,1,1.84-1.85h13.82a1.85,1.85,0,0,0,1.84-1.85v-7.84A1.85,1.85,0,0,0,244.14,151.9Zm50.32-.84h-.08a1.83,1.83,0,0,0-1.41.67L290.25,155a1.84,1.84,0,0,1-2.6.24c-.66-.56-1.35-1.1-2.07-1.61a26,26,0,0,0-3.87-2.29,22.75,22.75,0,0,0-4.19-1.53,17.69,17.69,0,0,0-4.36-.55,23.1,23.1,0,0,0-9,1.76,22.44,22.44,0,0,0-7.36,4.95,23.39,23.39,0,0,0-5,7.62,25.46,25.46,0,0,0-1.81,9.74,26.67,26.67,0,0,0,1.81,10.14,22.08,22.08,0,0,0,5,7.53,21.32,21.32,0,0,0,7.36,4.69,24.9,24.9,0,0,0,9,1.62,17.23,17.23,0,0,0,4.33-.56,23.62,23.62,0,0,0,4.17-1.5,25.49,25.49,0,0,0,3.87-2.25c.69-.49,1.36-1,2-1.51a1.84,1.84,0,0,1,2.65.36l2.77,3.85a1.84,1.84,0,0,0,3.34-1.08V152.91A1.85,1.85,0,0,0,294.46,151.06Zm-10.69,26.83a13.27,13.27,0,0,1-2.47,3.94,12.36,12.36,0,0,1-3.66,2.76,10,10,0,0,1-4.46,1,12.33,12.33,0,0,1-4.46-.81,10,10,0,0,1-3.64-2.38,11.12,11.12,0,0,1-2.43-3.88,16.15,16.15,0,0,1,0-10.57,11.3,11.3,0,0,1,2.43-3.88,10.12,10.12,0,0,1,3.64-2.38,12.39,12.39,0,0,1,4.46-.81,10,10,0,0,1,4.46,1,12.16,12.16,0,0,1,3.66,2.76,13.3,13.3,0,0,1,2.47,3.94,12.22,12.22,0,0,1,0,9.23ZM60,151.82H52a1.85,1.85,0,0,0-1.85,1.85V195.4A1.85,1.85,0,0,0,52,197.26H60a1.85,1.85,0,0,0,1.85-1.86V153.67A1.85,1.85,0,0,0,60,151.82ZM92.46,155a1.86,1.86,0,0,0-1.4-3.06h-8.9a1.83,1.83,0,0,0-1.4.65L62.85,173.37a1.84,1.84,0,0,0,0,2.42l17.91,20.82a1.83,1.83,0,0,0,1.4.65h8.9a1.86,1.86,0,0,0,1.4-3.07l-15.91-18.4a1.85,1.85,0,0,1,0-2.43Zm17.3-3.15h-.1a1.84,1.84,0,0,0-1.4.65l-.37.43-7.38,8.55a1.83,1.83,0,0,0-.45,1.21V195.4a1.85,1.85,0,0,0,1.84,1.85h7.86a1.85,1.85,0,0,0,1.84-1.85V153.67A1.85,1.85,0,0,0,109.76,151.82Zm94.39,21.26a14.18,14.18,0,0,0-4.57-2.78,15.64,15.64,0,0,0-5.58-1H182a2.73,2.73,0,0,1-2-.87,2.9,2.9,0,0,1-.85-2.1,2.89,2.89,0,0,1,2.88-2.88h21.54a1.85,1.85,0,0,0,1.84-1.85v-7.85a1.85,1.85,0,0,0-1.84-1.85H182a14.15,14.15,0,0,0-5.63,1.12,14.27,14.27,0,0,0-7.62,7.65,14.74,14.74,0,0,0,0,11.29,14.52,14.52,0,0,0,7.63,7.72,13.91,13.91,0,0,0,5.63,1.15h12.4a2.47,2.47,0,0,1,2.48,2.21,2.44,2.44,0,0,1-2.43,2.66h-25a1.84,1.84,0,0,0-1.84,1.85v7.84a1.84,1.84,0,0,0,1.84,1.85H194A14.25,14.25,0,0,0,204.14,193a15,15,0,0,0,3.09-4.58,14,14,0,0,0,1.14-5.62,13,13,0,0,0-1.14-5.47A13.31,13.31,0,0,0,204.15,173.07Z" style="fill: none;stroke: #5333ed;stroke-linecap: round;stroke-linejoin: round;stroke-width: 3px"/>
      <g>
        <g style="mix-blend-mode: multiply">
          <path d="M155.31,252a3.82,3.82,0,0,0,1.72-2.22,8.07,8.07,0,0,1-2.58,1,4.3,4.3,0,0,0-3-1.23,4.1,4.1,0,0,0-4.06,4.06,1.82,1.82,0,0,0,.12.86,11.33,11.33,0,0,1-8.37-4.18,4.15,4.15,0,0,0,1.35,5.42,5.16,5.16,0,0,1-1.85-.49,4,4,0,0,0,3.2,3.94c-.25,0-.62.12-1,.12a1.56,1.56,0,0,1-.74-.12A4,4,0,0,0,144,262a7.83,7.83,0,0,1-5,1.72h-1a11.9,11.9,0,0,0,5.78,1.85h1a11.52,11.52,0,0,0,11-11.45v-.49a8,8,0,0,0,2-2.09C156.91,251.66,156.17,251.91,155.31,252Z" style="fill: #2cd4d9"/>
          <g style="clip-path: url(#5a7985bf-d3e7-4419-b2ed-dd2768f39320)">
            <g>
              <rect x="130.95" y="241.57" width="32" height="32" style="fill: #2cd4d9"/>
              <g style="clip-path: url(#83369e66-87ca-4ea5-a845-d038fb7ef95e)">
                <rect x="125.95" y="236.57" width="42" height="42" style="fill: #2cd4d9"/>
              </g>
            </g>
          </g>
        </g>
        <g>
          <polygon points="208.8 202.38 206.51 207.02 201.38 207.77 205.09 211.38 204.22 216.48 208.8 214.07 213.38 216.48 212.5 211.38 216.21 207.77 211.09 207.02 208.8 202.38" style="fill: none;stroke: #2cd4d9;stroke-linecap: round;stroke-linejoin: round;stroke-width: 3px;mix-blend-mode: multiply"/>
          <polygon points="188.8 202.38 186.51 207.02 181.38 207.77 185.09 211.38 184.22 216.48 188.8 214.07 193.38 216.48 192.5 211.38 196.21 207.77 191.09 207.02 188.8 202.38" style="fill: none;stroke: #2cd4d9;stroke-linecap: round;stroke-linejoin: round;stroke-width: 3px;mix-blend-mode: multiply"/>
          <polygon points="168.8 202.38 166.51 207.02 161.38 207.77 165.09 211.38 164.22 216.48 168.8 214.07 173.38 216.48 172.5 211.38 176.21 207.77 171.09 207.02 168.8 202.38" style="fill: none;stroke: #2cd4d9;stroke-linecap: round;stroke-linejoin: round;stroke-width: 3px;mix-blend-mode: multiply"/>
          <polygon points="148.8 202.38 146.51 207.02 141.38 207.77 145.09 211.38 144.22 216.48 148.8 214.07 153.38 216.48 152.5 211.38 156.21 207.77 151.09 207.02 148.8 202.38" style="fill: none;stroke: #2cd4d9;stroke-linecap: round;stroke-linejoin: round;stroke-width: 3px;mix-blend-mode: multiply"/>
          <polygon points="128.8 202.38 126.51 207.02 121.38 207.77 125.09 211.38 124.22 216.48 128.8 214.07 133.38 216.48 132.5 211.38 136.21 207.77 131.09 207.02 128.8 202.38" style="fill: none;stroke: #2cd4d9;stroke-linecap: round;stroke-linejoin: round;stroke-width: 3px;mix-blend-mode: multiply"/>
          <path d="M210,184.69H124.18a25.66,25.66,0,0,0-25.59,25.59h0a25.66,25.66,0,0,0,25.59,25.59h44.28l.34,18.25,17.9-18.25H210a25.66,25.66,0,0,0,25.59-25.59h0A25.66,25.66,0,0,0,210,184.69Z" style="fill: none;stroke: #2cd4d9;stroke-linecap: round;stroke-linejoin: round;stroke-width: 3px;mix-blend-mode: multiply"/>
        </g>
        <circle cx="272.63" cy="132.81" r="47.11" style="fill: none;stroke: #2cd4d9;stroke-linecap: round;stroke-linejoin: round;stroke-width: 3px;mix-blend-mode: multiply"/>
        <path d="M278.12,122.49,272.63,128l-5.48-5.48a7.76,7.76,0,0,0-11,0h0a7.76,7.76,0,0,0,0,11l5.49,5.48,11,11,11-11,5.49-5.48a7.76,7.76,0,0,0,0-11h0A7.76,7.76,0,0,0,278.12,122.49Z" style="fill: none;stroke: #2cd4d9;stroke-linecap: round;stroke-linejoin: round;stroke-width: 3px;mix-blend-mode: multiply"/>
        <path d="M47.52,164.49l-3.29,3.29-3.29-3.29a4.65,4.65,0,0,0-6.57,0h0a4.65,4.65,0,0,0,0,6.57l3.29,3.29,6.57,6.57,6.57-6.57,3.29-3.29a4.65,4.65,0,0,0,0-6.57h0A4.65,4.65,0,0,0,47.52,164.49Z" style="fill: none;stroke: #2cd4d9;stroke-linecap: round;stroke-linejoin: round;stroke-width: 3px;mix-blend-mode: multiply"/>
      </g>
    </g>
  </g>
</svg>
