<svg xmlns="http://www.w3.org/2000/svg" xmlns:xlink="http://www.w3.org/1999/xlink" width="1366" height="1046.37" viewBox="0 0 1366 1046.37">
  <defs>
    <linearGradient id="839984ff-1f96-43a4-9d19-7469a28e21a7" x1="-89.81" y1="92.22" x2="1215.82" y2="819" gradientUnits="userSpaceOnUse">
      <stop offset="0" stop-color="#150773"/>
      <stop offset="0.51" stop-color="#5333ed"/>
      <stop offset="1" stop-color="#2cd4d9"/>
    </linearGradient>
    <linearGradient id="8d7e78c4-1727-4b50-a383-4387f6a8bf15" x1="1110.67" y1="436.64" x2="1110.67" y2="651.35" gradientUnits="userSpaceOnUse">
      <stop offset="0" stop-color="#5333ed"/>
      <stop offset="0.08" stop-color="#4e47ea"/>
      <stop offset="0.31" stop-color="#4279e4"/>
      <stop offset="0.52" stop-color="#38a1df"/>
      <stop offset="0.71" stop-color="#32bddc"/>
      <stop offset="0.88" stop-color="#2dceda"/>
      <stop offset="1" stop-color="#2cd4d9"/>
    </linearGradient>
    <linearGradient id="c0ef72e8-0cc2-4dfd-9b16-cf15e021a4c5" x1="861.63" y1="396.49" x2="961.82" y2="544.41" gradientUnits="userSpaceOnUse">
      <stop offset="0" stop-color="#5333ed"/>
      <stop offset="0.1" stop-color="#4a56e9"/>
      <stop offset="0.23" stop-color="#417de4"/>
      <stop offset="0.37" stop-color="#399ce0"/>
      <stop offset="0.51" stop-color="#34b5dd"/>
      <stop offset="0.65" stop-color="#2fc6db"/>
      <stop offset="0.81" stop-color="#2dd1d9"/>
      <stop offset="1" stop-color="#2cd4d9"/>
    </linearGradient>
    <linearGradient id="bed3c846-1814-4c6a-a3c2-e0e9f8cb4971" x1="831.32" y1="438.03" x2="882.1" y2="457.14" gradientUnits="userSpaceOnUse">
      <stop offset="0" stop-color="#5333ed"/>
      <stop offset="0.05" stop-color="#5f43ee"/>
      <stop offset="0.22" stop-color="#8675f1"/>
      <stop offset="0.4" stop-color="#a69ff4"/>
      <stop offset="0.56" stop-color="#bfbff5"/>
      <stop offset="0.72" stop-color="#d1d6f7"/>
      <stop offset="0.87" stop-color="#dbe4f8"/>
      <stop offset="1" stop-color="#dfe9f8"/>
    </linearGradient>
    <linearGradient id="b180992f-f8ee-4b34-9327-dd814bd20b1e" x1="857.48" y1="429.18" x2="882.48" y2="498.43" gradientUnits="userSpaceOnUse">
      <stop offset="0" stop-color="#5333ed"/>
      <stop offset="1" stop-color="#2cd4d9"/>
    </linearGradient>
    <linearGradient id="51b20b91-f290-4980-aef7-64eab730c2d1" x1="797.07" y1="466.03" x2="828.75" y2="481.4" xlink:href="#bed3c846-1814-4c6a-a3c2-e0e9f8cb4971"/>
    <linearGradient id="b3538ad7-13d9-4909-a1d5-00f535613b49" x1="817.59" y1="408.66" x2="838.54" y2="547.67" xlink:href="#b180992f-f8ee-4b34-9327-dd814bd20b1e"/>
    <linearGradient id="c8ec71b8-8da0-46a8-a175-37bf7d9d3edd" x1="754.8" y1="472.06" x2="782.56" y2="518.97" xlink:href="#bed3c846-1814-4c6a-a3c2-e0e9f8cb4971"/>
    <linearGradient id="28bd7e4c-f5b8-4bf4-9e04-5ea8663f5dc9" x1="776.37" y1="466.17" x2="776.37" y2="526.51" xlink:href="#b180992f-f8ee-4b34-9327-dd814bd20b1e"/>
    <linearGradient id="debe0b71-90c9-4484-9e3c-acd876a037b4" x1="1174.27" y1="186.8" x2="1186.33" y2="196.36" gradientTransform="translate(-61.88 278.32) rotate(5.22)" gradientUnits="userSpaceOnUse">
      <stop offset="0" stop-color="#5b3427"/>
      <stop offset="1" stop-color="#724c3b"/>
    </linearGradient>
    <linearGradient id="9bc6f9c7-c262-4ded-baa8-35a3ebb358dc" x1="981.1" y1="1010.6" x2="993.76" y2="995.18" gradientTransform="matrix(0.99, -0.1, 0.1, 0.99, 45.03, -321.27)" xlink:href="#debe0b71-90c9-4484-9e3c-acd876a037b4"/>
    <linearGradient id="fef41f7d-3aea-4ab6-9e82-a98d479d0e56" x1="1058.6" y1="659.33" x2="1058.6" y2="649.32" gradientUnits="userSpaceOnUse">
      <stop offset="0" stop-color="#5333ed" stop-opacity="0.5"/>
      <stop offset="0.12" stop-color="#6f57ef" stop-opacity="0.6"/>
      <stop offset="0.28" stop-color="#9183f2" stop-opacity="0.72"/>
      <stop offset="0.44" stop-color="#ada8f4" stop-opacity="0.82"/>
      <stop offset="0.59" stop-color="#c3c4f6" stop-opacity="0.9"/>
      <stop offset="0.74" stop-color="#d2d9f7" stop-opacity="0.95"/>
      <stop offset="0.88" stop-color="#dce5f8" stop-opacity="0.99"/>
      <stop offset="1" stop-color="#dfe9f8"/>
    </linearGradient>
    <linearGradient id="a7a41caf-d6d1-49dd-bd51-7bef4d9e0af8" x1="1052.29" y1="659.33" x2="1052.29" y2="649.32" xlink:href="#fef41f7d-3aea-4ab6-9e82-a98d479d0e56"/>
    <linearGradient id="d00c05d8-1374-41d0-a442-da8e73688810" x1="1056.98" y1="659.33" x2="1056.98" y2="649.32" xlink:href="#fef41f7d-3aea-4ab6-9e82-a98d479d0e56"/>
    <linearGradient id="fb0c69b1-b2ac-4334-87b9-580f9cd9a011" x1="1060.09" y1="659.33" x2="1060.09" y2="649.32" xlink:href="#fef41f7d-3aea-4ab6-9e82-a98d479d0e56"/>
    <linearGradient id="4fd8acea-56ba-4af8-b487-c4b872a7b7e4" x1="1055.4" y1="659.33" x2="1055.4" y2="649.32" xlink:href="#fef41f7d-3aea-4ab6-9e82-a98d479d0e56"/>
    <linearGradient id="37ef67a4-5568-4dff-a699-f20b41bdc517" x1="1061.43" y1="659.33" x2="1061.43" y2="649.32" xlink:href="#fef41f7d-3aea-4ab6-9e82-a98d479d0e56"/>
    <linearGradient id="feeba545-db3e-4b3b-8579-13925ef40a2c" x1="1053.78" y1="659.33" x2="1053.78" y2="649.32" xlink:href="#fef41f7d-3aea-4ab6-9e82-a98d479d0e56"/>
    <linearGradient id="8b7abf49-fd50-4bdb-b893-4935d6b27e0d" x1="1056.19" y1="659.33" x2="1056.19" y2="649.32" xlink:href="#fef41f7d-3aea-4ab6-9e82-a98d479d0e56"/>
    <linearGradient id="d2753c34-dab3-4ae2-a977-45eaf52ef46d" x1="1042.85" y1="550.27" x2="1042.48" y2="540.89" gradientUnits="userSpaceOnUse">
      <stop offset="0" stop-color="#150773" stop-opacity="0.5"/>
      <stop offset="1" stop-color="#5333ed" stop-opacity="0"/>
    </linearGradient>
    <linearGradient id="157e8db5-6fa5-451a-92da-9c86d4697790" x1="1036.57" y1="550.52" x2="1036.19" y2="541.15" xlink:href="#d2753c34-dab3-4ae2-a977-45eaf52ef46d"/>
    <linearGradient id="d9f02847-b03e-462a-8f2f-257569dd9c95" x1="1041.23" y1="550.33" x2="1040.86" y2="540.96" xlink:href="#d2753c34-dab3-4ae2-a977-45eaf52ef46d"/>
    <linearGradient id="3bf510e5-ed81-4273-9888-05e46ca54c28" x1="1044.36" y1="550.21" x2="1043.99" y2="540.83" xlink:href="#d2753c34-dab3-4ae2-a977-45eaf52ef46d"/>
    <linearGradient id="0b6a3f9a-4937-4104-9ced-8b34f3106b0e" x1="1039.65" y1="550.4" x2="1039.28" y2="541.02" xlink:href="#d2753c34-dab3-4ae2-a977-45eaf52ef46d"/>
    <linearGradient id="47803d7f-200d-4645-9d16-97881a263cb9" x1="1045.71" y1="550.15" x2="1045.34" y2="540.78" xlink:href="#d2753c34-dab3-4ae2-a977-45eaf52ef46d"/>
    <linearGradient id="e606ddee-d962-48eb-b9b9-be4fd5b1777b" x1="1038.04" y1="550.46" x2="1037.67" y2="541.09" xlink:href="#d2753c34-dab3-4ae2-a977-45eaf52ef46d"/>
    <linearGradient id="23c23649-7f00-45b2-8704-e6e3e00f5d53" x1="1040.64" y1="550.36" x2="1040.27" y2="540.98" xlink:href="#d2753c34-dab3-4ae2-a977-45eaf52ef46d"/>
    <linearGradient id="e35cd187-7c98-4a5a-8873-1bfc1d152dab" x1="885.97" y1="565.24" x2="797" y2="633.53" xlink:href="#d2753c34-dab3-4ae2-a977-45eaf52ef46d"/>
    <linearGradient id="e90145fb-1169-48c2-9d1f-ef326344d6ff" x1="948.72" y1="593.33" x2="835.03" y2="680.58" xlink:href="#d2753c34-dab3-4ae2-a977-45eaf52ef46d"/>
    <linearGradient id="94f483fb-c1c8-4ef4-8e4f-0dbb57834c03" x1="823.24" y1="537.88" x2="759.44" y2="586.85" xlink:href="#d2753c34-dab3-4ae2-a977-45eaf52ef46d"/>
    <linearGradient id="ef956f13-fb79-4531-9c41-200055eb2bd0" x1="761.04" y1="509.96" x2="721.36" y2="540.42" xlink:href="#d2753c34-dab3-4ae2-a977-45eaf52ef46d"/>
  </defs>
  <title>affiliate-hero</title>
  <g id="6bf1c778-f3c2-493b-a075-1be4a685e557" data-name="figures and interactions">
    <rect y="-0.78" width="1366" height="1046.37" style="fill: url(#839984ff-1f96-43a4-9d19-7469a28e21a7)"/>
    <g>
      <polygon points="1178.6 546.73 1194.69 537.44 1178.6 528.15 1162.51 537.44 1178.6 546.73" style="fill: none;stroke: #2cd4d9;stroke-miterlimit: 10;stroke-width: 2px"/>
      <polygon points="1162.51 537.44 1178.6 528.15 1162.51 518.86 1146.43 528.15 1162.51 537.44" style="fill: none;stroke: #2cd4d9;stroke-miterlimit: 10;stroke-width: 2px"/>
      <polygon points="1146.43 528.15 1162.51 518.86 1146.43 509.57 1130.34 518.86 1146.43 528.15" style="fill: none;stroke: #2cd4d9;stroke-miterlimit: 10;stroke-width: 2px"/>
      <polygon points="1098.16 500.28 1114.25 491 1098.16 481.71 1082.08 491 1098.16 500.28" style="fill: none;stroke: #2cd4d9;stroke-miterlimit: 10;stroke-width: 2px"/>
      <polygon points="1194.69 556.01 1210.78 546.73 1194.69 537.44 1178.6 546.73 1194.69 556.01" style="fill: none;stroke: #2cd4d9;stroke-miterlimit: 10;stroke-width: 2px"/>
      <polygon points="1130.34 518.86 1146.43 509.57 1130.34 500.28 1114.25 509.57 1130.34 518.86" style="fill: none;stroke: #2cd4d9;stroke-miterlimit: 10;stroke-width: 2px"/>
      <polygon points="1114.25 509.57 1130.34 500.28 1114.25 491 1098.16 500.28 1114.25 509.57" style="fill: none;stroke: #2cd4d9;stroke-miterlimit: 10;stroke-width: 2px"/>
      <polygon points="1098.16 481.71 1082.08 472.42 1065.99 481.71 1082.08 491 1098.16 481.71" style="fill: none;stroke: #2cd4d9;stroke-miterlimit: 10;stroke-width: 2px"/>
      <polygon points="1275.13 602.45 1291.21 593.17 1275.13 583.88 1259.04 593.17 1275.13 602.45" style="fill: none;stroke: #2cd4d9;stroke-miterlimit: 10;stroke-width: 2px"/>
      <polygon points="1259.04 611.74 1275.13 621.03 1291.21 611.74 1275.13 602.45 1259.04 611.74" style="fill: none;stroke: #2cd4d9;stroke-miterlimit: 10;stroke-width: 2px"/>
      <polygon points="1291.21 611.74 1307.3 602.45 1291.21 593.17 1275.13 602.45 1291.21 611.74" style="fill: none;stroke: #2cd4d9;stroke-miterlimit: 10;stroke-width: 2px"/>
      <polygon points="1242.95 621.03 1259.04 630.32 1275.13 621.03 1259.04 611.74 1242.95 621.03" style="fill: none;stroke: #2cd4d9;stroke-miterlimit: 10;stroke-width: 2px"/>
      <polygon points="1210.78 565.3 1226.86 556.01 1210.78 546.73 1194.69 556.01 1210.78 565.3" style="fill: none;stroke: #2cd4d9;stroke-miterlimit: 10;stroke-width: 2px"/>
      <polygon points="1226.86 574.59 1242.95 565.3 1226.86 556.01 1210.78 565.3 1226.86 574.59" style="fill: none;stroke: #2cd4d9;stroke-miterlimit: 10;stroke-width: 2px"/>
      <polygon points="1259.04 593.17 1275.13 583.88 1259.04 574.59 1242.95 583.88 1259.04 593.17" style="fill: none;stroke: #2cd4d9;stroke-miterlimit: 10;stroke-width: 2px"/>
      <polygon points="1242.95 583.88 1259.04 574.59 1242.95 565.3 1226.86 574.59 1242.95 583.88" style="fill: none;stroke: #2cd4d9;stroke-miterlimit: 10;stroke-width: 2px"/>
      <polygon points="1017.73 528.15 1001.64 518.86 985.55 528.15 1001.64 537.44 1017.73 528.15" style="fill: none;stroke: #2cd4d9;stroke-miterlimit: 10;stroke-width: 2px"/>
      <polygon points="1082.08 491 1065.99 481.71 1049.9 491 1065.99 500.28 1082.08 491" style="fill: none;stroke: #2cd4d9;stroke-miterlimit: 10;stroke-width: 2px"/>
      <line x1="889.02" y1="639.61" x2="905.11" y2="630.32" style="fill: none;stroke: #2cd4d9;stroke-miterlimit: 10;stroke-width: 2px"/>
      <polygon points="1098.16 500.28 1082.08 491 1065.99 500.28 1082.08 509.57 1098.16 500.28" style="fill: none;stroke: #2cd4d9;stroke-miterlimit: 10;stroke-width: 2px"/>
      <polygon points="1049.9 509.57 1033.81 500.28 1017.73 509.57 1033.81 518.86 1049.9 509.57" style="fill: none;stroke: #2cd4d9;stroke-miterlimit: 10;stroke-width: 2px"/>
      <polygon points="969.46 556.01 953.38 546.73 937.29 556.01 953.38 565.3 969.46 556.01" style="fill: none;stroke: #2cd4d9;stroke-miterlimit: 10;stroke-width: 2px"/>
      <polygon points="1033.81 518.86 1017.73 509.57 1001.64 518.86 1017.73 528.15 1033.81 518.86" style="fill: none;stroke: #2cd4d9;stroke-miterlimit: 10;stroke-width: 2px"/>
      <polygon points="1065.99 500.28 1049.9 491 1033.81 500.28 1049.9 509.57 1065.99 500.28" style="fill: none;stroke: #2cd4d9;stroke-miterlimit: 10;stroke-width: 2px"/>
      <polygon points="985.55 546.73 969.46 537.44 953.38 546.73 969.46 556.01 985.55 546.73" style="fill: none;stroke: #2cd4d9;stroke-miterlimit: 10;stroke-width: 2px"/>
      <polygon points="1001.64 537.44 985.55 528.15 969.46 537.44 985.55 546.73 1001.64 537.44" style="fill: none;stroke: #2cd4d9;stroke-miterlimit: 10;stroke-width: 2px"/>
      <polygon points="1226.86 630.32 1242.95 639.61 1259.04 630.32 1242.95 621.03 1226.86 630.32" style="fill: none;stroke: #2cd4d9;stroke-miterlimit: 10;stroke-width: 2px"/>
      <polygon points="1210.78 639.61 1226.86 648.89 1242.95 639.61 1226.86 630.32 1210.78 639.61" style="fill: none;stroke: #2cd4d9;stroke-miterlimit: 10;stroke-width: 2px"/>
      <polygon points="953.38 583.88 937.29 574.59 921.2 583.88 937.29 593.17 953.38 583.88" style="fill: none;stroke: #2cd4d9;stroke-miterlimit: 10;stroke-width: 2px"/>
      <polygon points="937.29 630.32 921.2 639.61 937.29 648.89 953.38 639.61 937.29 630.32" style="fill: none;stroke: #2cd4d9;stroke-miterlimit: 10;stroke-width: 2px"/>
      <polygon points="921.2 621.03 905.11 630.32 921.2 639.61 937.29 630.32 921.2 621.03" style="fill: none;stroke: #2cd4d9;stroke-miterlimit: 10;stroke-width: 2px"/>
      <polygon points="969.46 574.59 953.38 565.3 937.29 574.59 953.38 583.88 969.46 574.59" style="fill: none;stroke: #2cd4d9;stroke-miterlimit: 10;stroke-width: 2px"/>
      <polygon points="1082.08 509.57 1065.99 500.28 1049.9 509.57 1065.99 518.86 1082.08 509.57" style="fill: none;stroke: #2cd4d9;stroke-miterlimit: 10;stroke-width: 2px"/>
      <polygon points="1049.9 528.15 1033.81 518.86 1017.73 528.15 1033.81 537.44 1049.9 528.15" style="fill: none;stroke: #2cd4d9;stroke-miterlimit: 10;stroke-width: 2px"/>
      <polygon points="985.55 565.3 969.46 556.01 953.38 565.3 969.46 574.59 985.55 565.3" style="fill: none;stroke: #2cd4d9;stroke-miterlimit: 10;stroke-width: 2px"/>
      <polygon points="953.38 639.61 937.29 648.89 953.38 658.18 969.46 648.89 953.38 639.61" style="fill: none;stroke: #2cd4d9;stroke-miterlimit: 10;stroke-width: 2px"/>
      <polygon points="1065.99 518.86 1049.9 509.57 1033.81 518.86 1049.9 528.15 1065.99 518.86" style="fill: none;stroke: #2cd4d9;stroke-miterlimit: 10;stroke-width: 2px"/>
      <polygon points="1001.64 556.01 985.55 546.73 969.46 556.01 985.55 565.3 1001.64 556.01" style="fill: none;stroke: #2cd4d9;stroke-miterlimit: 10;stroke-width: 2px"/>
      <polygon points="1017.73 546.73 1001.64 537.44 985.55 546.73 1001.64 556.01 1017.73 546.73" style="fill: none;stroke: #2cd4d9;stroke-miterlimit: 10;stroke-width: 2px"/>
      <polygon points="1033.81 537.44 1017.73 528.15 1001.64 537.44 1017.73 546.73 1033.81 537.44" style="fill: none;stroke: #2cd4d9;stroke-miterlimit: 10;stroke-width: 2px"/>
      <polygon points="1146.43 676.76 1162.51 686.05 1178.6 676.76 1162.51 667.47 1146.43 676.76" style="fill: none;stroke: #2cd4d9;stroke-miterlimit: 10;stroke-width: 2px"/>
      <polygon points="1130.34 686.05 1146.43 695.34 1162.51 686.05 1146.43 676.76 1130.34 686.05" style="fill: none;stroke: #2cd4d9;stroke-miterlimit: 10;stroke-width: 2px"/>
      <polygon points="969.46 648.89 953.38 658.18 969.46 667.47 985.55 658.18 969.46 648.89" style="fill: none;stroke: #2cd4d9;stroke-miterlimit: 10;stroke-width: 2px"/>
      <polygon points="1098.16 704.62 1114.25 713.91 1130.34 704.62 1114.25 695.34 1098.16 704.62" style="fill: none;stroke: #2cd4d9;stroke-miterlimit: 10;stroke-width: 2px"/>
      <polygon points="1162.51 667.47 1178.6 676.76 1194.69 667.47 1178.6 658.18 1162.51 667.47" style="fill: none;stroke: #2cd4d9;stroke-miterlimit: 10;stroke-width: 2px"/>
      <polygon points="1082.08 713.91 1098.16 723.2 1114.25 713.91 1098.16 704.62 1082.08 713.91" style="fill: none;stroke: #2cd4d9;stroke-miterlimit: 10;stroke-width: 2px"/>
      <polygon points="1194.69 648.89 1210.78 658.18 1226.86 648.89 1210.78 639.61 1194.69 648.89" style="fill: none;stroke: #2cd4d9;stroke-miterlimit: 10;stroke-width: 2px"/>
      <polygon points="1178.6 658.18 1194.69 667.47 1210.78 658.18 1194.69 648.89 1178.6 658.18" style="fill: none;stroke: #2cd4d9;stroke-miterlimit: 10;stroke-width: 2px"/>
      <polygon points="1114.25 695.34 1130.34 704.62 1146.43 695.34 1130.34 686.05 1114.25 695.34" style="fill: none;stroke: #2cd4d9;stroke-miterlimit: 10;stroke-width: 2px"/>
      <polygon points="953.38 676.76 937.29 686.05 953.38 695.34 969.46 686.05 953.38 676.76" style="fill: none;stroke: #2cd4d9;stroke-miterlimit: 10;stroke-width: 2px"/>
      <polygon points="985.55 658.18 969.46 667.47 985.55 676.76 1001.64 667.47 985.55 658.18" style="fill: none;stroke: #2cd4d9;stroke-miterlimit: 10;stroke-width: 2px"/>
      <polygon points="1017.73 676.76 1001.64 686.05 1017.73 695.34 1033.81 686.05 1017.73 676.76" style="fill: none;stroke: #2cd4d9;stroke-miterlimit: 10;stroke-width: 2px"/>
      <polygon points="1065.99 704.62 1049.9 713.91 1065.99 723.2 1082.08 713.91 1065.99 704.62" style="fill: none;stroke: #2cd4d9;stroke-miterlimit: 10;stroke-width: 2px"/>
      <polygon points="1033.81 686.05 1017.73 695.34 1033.81 704.62 1049.9 695.34 1033.81 686.05" style="fill: none;stroke: #2cd4d9;stroke-miterlimit: 10;stroke-width: 2px"/>
      <polygon points="1065.99 723.2 1082.08 732.49 1098.16 723.2 1082.08 713.91 1065.99 723.2" style="fill: none;stroke: #2cd4d9;stroke-miterlimit: 10;stroke-width: 2px"/>
      <polygon points="1049.9 695.34 1033.81 704.62 1049.9 713.91 1065.99 704.62 1049.9 695.34" style="fill: none;stroke: #2cd4d9;stroke-miterlimit: 10;stroke-width: 2px"/>
      <polygon points="953.38 565.3 937.29 556.01 921.2 565.3 937.29 574.59 953.38 565.3" style="fill: none;stroke: #2cd4d9;stroke-miterlimit: 10;stroke-width: 2px"/>
      <polygon points="1033.81 500.28 1017.73 491 1001.64 500.28 1017.73 509.57 1033.81 500.28" style="fill: none;stroke: #2cd4d9;stroke-miterlimit: 10;stroke-width: 2px"/>
      <polygon points="1049.9 491 1033.81 481.71 1017.73 491 1033.81 500.28 1049.9 491" style="fill: none;stroke: #2cd4d9;stroke-miterlimit: 10;stroke-width: 2px"/>
      <polygon points="1082.08 472.42 1065.99 463.13 1049.9 472.42 1065.99 481.71 1082.08 472.42" style="fill: none;stroke: #2cd4d9;stroke-miterlimit: 10;stroke-width: 2px"/>
      <polygon points="1065.99 481.71 1049.9 472.42 1033.81 481.71 1049.9 491 1065.99 481.71" style="fill: none;stroke: #2cd4d9;stroke-miterlimit: 10;stroke-width: 2px"/>
      <polygon points="985.55 528.15 969.46 518.86 953.38 528.15 969.46 537.44 985.55 528.15" style="fill: none;stroke: #2cd4d9;stroke-miterlimit: 10;stroke-width: 2px"/>
      <polygon points="1001.64 518.86 985.55 509.57 969.46 518.86 985.55 528.15 1001.64 518.86" style="fill: none;stroke: #2cd4d9;stroke-miterlimit: 10;stroke-width: 2px"/>
      <polygon points="1017.73 509.57 1001.64 500.28 985.55 509.57 1001.64 518.86 1017.73 509.57" style="fill: none;stroke: #2cd4d9;stroke-miterlimit: 10;stroke-width: 2px"/>
      <polygon points="1162.51 518.86 1178.6 509.57 1162.51 500.28 1146.43 509.57 1162.51 518.86" style="fill: none;stroke: #2cd4d9;stroke-miterlimit: 10;stroke-width: 2px"/>
      <polygon points="1178.6 528.15 1194.69 518.86 1178.6 509.57 1162.51 518.86 1178.6 528.15" style="fill: none;stroke: #2cd4d9;stroke-miterlimit: 10;stroke-width: 2px"/>
      <polygon points="1194.69 537.44 1210.78 528.15 1194.69 518.86 1178.6 528.15 1194.69 537.44" style="fill: none;stroke: #2cd4d9;stroke-miterlimit: 10;stroke-width: 2px"/>
      <polygon points="969.46 537.44 953.38 528.15 937.29 537.44 953.38 546.73 969.46 537.44" style="fill: none;stroke: #2cd4d9;stroke-miterlimit: 10;stroke-width: 2px"/>
      <polygon points="1114.25 491 1130.34 481.71 1114.25 472.42 1098.16 481.71 1114.25 491" style="fill: none;stroke: #2cd4d9;stroke-miterlimit: 10;stroke-width: 2px"/>
      <polygon points="1146.43 509.57 1162.51 500.28 1146.43 491 1130.34 500.28 1146.43 509.57" style="fill: none;stroke: #2cd4d9;stroke-miterlimit: 10;stroke-width: 2px"/>
      <polygon points="1210.78 546.73 1226.86 537.44 1210.78 528.15 1194.69 537.44 1210.78 546.73" style="fill: none;stroke: #2cd4d9;stroke-miterlimit: 10;stroke-width: 2px"/>
      <polygon points="1130.34 500.28 1146.43 491 1130.34 481.71 1114.25 491 1130.34 500.28" style="fill: none;stroke: #2cd4d9;stroke-miterlimit: 10;stroke-width: 2px"/>
      <polygon points="1098.16 481.71 1114.25 472.42 1098.16 463.13 1082.08 472.42 1098.16 481.71" style="fill: none;stroke: #2cd4d9;stroke-miterlimit: 10;stroke-width: 2px"/>
      <polyline points="889.02 658.18 905.11 648.89 889.02 639.61" style="fill: none;stroke: #2cd4d9;stroke-miterlimit: 10;stroke-width: 2px"/>
      <polygon points="937.29 667.47 921.2 676.76 937.29 686.05 953.38 676.76 937.29 667.47" style="fill: none;stroke: #2cd4d9;stroke-miterlimit: 10;stroke-width: 2px"/>
      <polygon points="921.2 658.18 905.11 667.47 921.2 676.76 937.29 667.47 921.2 658.18" style="fill: none;stroke: #2cd4d9;stroke-miterlimit: 10;stroke-width: 2px"/>
      <polygon points="905.11 648.89 889.02 658.18 905.11 667.47 921.2 658.18 905.11 648.89" style="fill: none;stroke: #2cd4d9;stroke-miterlimit: 10;stroke-width: 2px"/>
      <polygon points="953.38 546.73 937.29 537.44 921.2 546.73 937.29 556.01 953.38 546.73" style="fill: none;stroke: #2cd4d9;stroke-miterlimit: 10;stroke-width: 2px"/>
      <polygon points="1033.81 704.62 1017.73 713.91 1033.81 723.2 1049.9 713.91 1033.81 704.62" style="fill: none;stroke: #2cd4d9;stroke-miterlimit: 10;stroke-width: 2px"/>
      <polygon points="1065.99 723.2 1049.9 732.49 1065.99 741.78 1082.08 732.49 1065.99 723.2" style="fill: none;stroke: #2cd4d9;stroke-miterlimit: 10;stroke-width: 2px"/>
      <polygon points="1082.08 732.49 1098.16 741.78 1114.25 732.49 1098.16 723.2 1082.08 732.49" style="fill: none;stroke: #2cd4d9;stroke-miterlimit: 10;stroke-width: 2px"/>
      <polygon points="905.11 630.32 889.02 639.61 905.11 648.89 921.2 639.61 905.11 630.32" style="fill: none;stroke: #2cd4d9;stroke-miterlimit: 10;stroke-width: 2px"/>
      <polygon points="1146.43 695.34 1162.51 704.62 1178.6 695.34 1162.51 686.05 1146.43 695.34" style="fill: none;stroke: #2cd4d9;stroke-miterlimit: 10;stroke-width: 2px"/>
      <polygon points="1065.99 741.78 1082.08 751.06 1098.16 741.78 1082.08 732.49 1065.99 741.78" style="fill: none;stroke: #2cd4d9;stroke-miterlimit: 10;stroke-width: 2px"/>
      <polygon points="1130.34 704.62 1146.43 713.91 1162.51 704.62 1146.43 695.34 1130.34 704.62" style="fill: none;stroke: #2cd4d9;stroke-miterlimit: 10;stroke-width: 2px"/>
      <polygon points="1098.16 723.2 1114.25 732.49 1130.34 723.2 1114.25 713.91 1098.16 723.2" style="fill: none;stroke: #2cd4d9;stroke-miterlimit: 10;stroke-width: 2px"/>
      <polygon points="1114.25 713.91 1130.34 723.2 1146.43 713.91 1130.34 704.62 1114.25 713.91" style="fill: none;stroke: #2cd4d9;stroke-miterlimit: 10;stroke-width: 2px"/>
      <polygon points="1049.9 713.91 1033.81 723.2 1049.9 732.49 1065.99 723.2 1049.9 713.91" style="fill: none;stroke: #2cd4d9;stroke-miterlimit: 10;stroke-width: 2px"/>
      <polygon points="953.38 658.18 937.29 667.47 953.38 676.76 969.46 667.47 953.38 658.18" style="fill: none;stroke: #2cd4d9;stroke-miterlimit: 10;stroke-width: 2px"/>
      <polygon points="937.29 648.89 921.2 658.18 937.29 667.47 953.38 658.18 937.29 648.89" style="fill: none;stroke: #2cd4d9;stroke-miterlimit: 10;stroke-width: 2px"/>
      <polygon points="921.2 639.61 905.11 648.89 921.2 658.18 937.29 648.89 921.2 639.61" style="fill: none;stroke: #2cd4d9;stroke-miterlimit: 10;stroke-width: 2px"/>
      <polygon points="1017.73 695.34 1001.64 704.62 1017.73 713.91 1033.81 704.62 1017.73 695.34" style="fill: none;stroke: #2cd4d9;stroke-miterlimit: 10;stroke-width: 2px"/>
      <polygon points="969.46 667.47 953.38 676.76 969.46 686.05 985.55 676.76 969.46 667.47" style="fill: none;stroke: #2cd4d9;stroke-miterlimit: 10;stroke-width: 2px"/>
      <polygon points="1001.64 686.05 985.55 695.34 1001.64 704.62 1017.73 695.34 1001.64 686.05" style="fill: none;stroke: #2cd4d9;stroke-miterlimit: 10;stroke-width: 2px"/>
      <polygon points="1226.86 556.01 1242.95 546.73 1226.86 537.44 1210.78 546.73 1226.86 556.01" style="fill: none;stroke: #2cd4d9;stroke-miterlimit: 10;stroke-width: 2px"/>
      <polygon points="985.55 676.76 969.46 686.05 985.55 695.34 1001.64 686.05 985.55 676.76" style="fill: none;stroke: #2cd4d9;stroke-miterlimit: 10;stroke-width: 2px"/>
      <polygon points="1242.95 565.3 1259.04 556.01 1242.95 546.73 1226.86 556.01 1242.95 565.3" style="fill: none;stroke: #2cd4d9;stroke-miterlimit: 10;stroke-width: 2px"/>
      <polygon points="1259.04 574.59 1275.13 565.3 1259.04 556.01 1242.95 565.3 1259.04 574.59" style="fill: none;stroke: #2cd4d9;stroke-miterlimit: 10;stroke-width: 2px"/>
      <polygon points="1226.86 648.89 1242.95 658.18 1259.04 648.89 1242.95 639.61 1226.86 648.89" style="fill: none;stroke: #2cd4d9;stroke-miterlimit: 10;stroke-width: 2px"/>
      <polygon points="1194.69 667.47 1210.78 676.76 1226.86 667.47 1210.78 658.18 1194.69 667.47" style="fill: none;stroke: #2cd4d9;stroke-miterlimit: 10;stroke-width: 2px"/>
      <polygon points="1275.13 621.03 1291.21 630.32 1307.3 621.03 1291.21 611.74 1275.13 621.03" style="fill: none;stroke: #2cd4d9;stroke-miterlimit: 10;stroke-width: 2px"/>
      <polygon points="1178.6 676.76 1194.69 686.05 1210.78 676.76 1194.69 667.47 1178.6 676.76" style="fill: none;stroke: #2cd4d9;stroke-miterlimit: 10;stroke-width: 2px"/>
      <polygon points="1210.78 658.18 1226.86 667.47 1242.95 658.18 1226.86 648.89 1210.78 658.18" style="fill: none;stroke: #2cd4d9;stroke-miterlimit: 10;stroke-width: 2px"/>
      <polygon points="1259.04 630.32 1275.13 639.61 1291.21 630.32 1275.13 621.03 1259.04 630.32" style="fill: none;stroke: #2cd4d9;stroke-miterlimit: 10;stroke-width: 2px"/>
      <polygon points="1242.95 639.61 1259.04 648.89 1275.13 639.61 1259.04 630.32 1242.95 639.61" style="fill: none;stroke: #2cd4d9;stroke-miterlimit: 10;stroke-width: 2px"/>
      <polygon points="1162.51 686.05 1178.6 695.34 1194.69 686.05 1178.6 676.76 1162.51 686.05" style="fill: none;stroke: #2cd4d9;stroke-miterlimit: 10;stroke-width: 2px"/>
      <polygon points="1001.64 667.47 985.55 676.76 1001.64 686.05 1017.73 676.76 1001.64 667.47" style="fill: none;stroke: #2cd4d9;stroke-miterlimit: 10;stroke-width: 2px"/>
      <polygon points="1082.08 658.18 1098.16 667.47 1114.25 658.18 1098.16 648.89 1082.08 658.18" style="fill: none;stroke: #2cd4d9;stroke-miterlimit: 10;stroke-width: 2px"/>
      <polygon points="1098.16 648.89 1114.25 658.18 1130.34 648.89 1114.25 639.61 1098.16 648.89" style="fill: none;stroke: #2cd4d9;stroke-miterlimit: 10;stroke-width: 2px"/>
      <polygon points="1049.9 639.61 1033.81 648.89 1049.9 658.18 1065.99 648.89 1049.9 639.61" style="fill: none;stroke: #2cd4d9;stroke-miterlimit: 10;stroke-width: 2px"/>
      <polygon points="1065.99 648.89 1049.9 658.18 1065.99 667.47 1082.08 658.18 1065.99 648.89" style="fill: none;stroke: #2cd4d9;stroke-miterlimit: 10;stroke-width: 2px"/>
      <polygon points="1162.51 611.74 1178.6 621.03 1194.69 611.74 1178.6 602.45 1162.51 611.74" style="fill: none;stroke: #2cd4d9;stroke-miterlimit: 10;stroke-width: 2px"/>
      <polygon points="1146.43 621.03 1162.51 630.32 1178.6 621.03 1162.51 611.74 1146.43 621.03" style="fill: none;stroke: #2cd4d9;stroke-miterlimit: 10;stroke-width: 2px"/>
      <polygon points="1114.25 639.61 1130.34 648.89 1146.43 639.61 1130.34 630.32 1114.25 639.61" style="fill: none;stroke: #2cd4d9;stroke-miterlimit: 10;stroke-width: 2px"/>
      <polygon points="1130.34 630.32 1146.43 639.61 1162.51 630.32 1146.43 621.03 1130.34 630.32" style="fill: none;stroke: #2cd4d9;stroke-miterlimit: 10;stroke-width: 2px"/>
      <polygon points="1065.99 667.47 1082.08 676.76 1098.16 667.47 1082.08 658.18 1065.99 667.47" style="fill: none;stroke: #2cd4d9;stroke-miterlimit: 10;stroke-width: 2px"/>
      <polygon points="1033.81 593.17 1017.73 583.88 1001.64 593.17 1017.73 602.45 1033.81 593.17" style="fill: none;stroke: #2cd4d9;stroke-miterlimit: 10;stroke-width: 2px"/>
      <polygon points="1033.81 630.32 1017.73 639.61 1033.81 648.89 1049.9 639.61 1033.81 630.32" style="fill: none;stroke: #2cd4d9;stroke-miterlimit: 10;stroke-width: 2px"/>
      <polygon points="1017.73 602.45 1001.64 593.17 985.55 602.45 1001.64 611.74 1017.73 602.45" style="fill: none;stroke: #2cd4d9;stroke-miterlimit: 10;stroke-width: 2px"/>
      <polygon points="1049.9 583.88 1033.81 574.59 1017.73 583.88 1033.81 593.17 1049.9 583.88" style="fill: none;stroke: #2cd4d9;stroke-miterlimit: 10;stroke-width: 2px"/>
      <polygon points="985.55 602.45 969.46 611.74 985.55 621.03 1001.64 611.74 985.55 602.45" style="fill: none;stroke: #2cd4d9;stroke-miterlimit: 10;stroke-width: 2px"/>
      <polygon points="1017.73 621.03 1001.64 630.32 1017.73 639.61 1033.81 630.32 1017.73 621.03" style="fill: none;stroke: #2cd4d9;stroke-miterlimit: 10;stroke-width: 2px"/>
      <polygon points="1001.64 611.74 985.55 621.03 1001.64 630.32 1017.73 621.03 1001.64 611.74" style="fill: none;stroke: #2cd4d9;stroke-miterlimit: 10;stroke-width: 2px"/>
      <polygon points="1162.51 593.17 1178.6 583.88 1162.51 574.59 1146.43 583.88 1162.51 593.17" style="fill: none;stroke: #2cd4d9;stroke-miterlimit: 10;stroke-width: 2px"/>
      <polygon points="1017.73 583.88 1001.64 574.59 985.55 583.88 1001.64 593.17 1017.73 583.88" style="fill: none;stroke: #2cd4d9;stroke-miterlimit: 10;stroke-width: 2px"/>
      <polygon points="1033.81 574.59 1017.73 565.3 1001.64 574.59 1017.73 583.88 1033.81 574.59" style="fill: none;stroke: #2cd4d9;stroke-miterlimit: 10;stroke-width: 2px"/>
      <polygon points="1049.9 565.3 1033.81 556.01 1017.73 565.3 1033.81 574.59 1049.9 565.3" style="fill: none;stroke: #2cd4d9;stroke-miterlimit: 10;stroke-width: 2px"/>
      <polygon points="1065.99 556.01 1049.9 546.73 1033.81 556.01 1049.9 565.3 1065.99 556.01" style="fill: none;stroke: #2cd4d9;stroke-miterlimit: 10;stroke-width: 2px"/>
      <polygon points="1001.64 593.17 985.55 583.88 969.46 593.17 985.55 602.45 1001.64 593.17" style="fill: none;stroke: #2cd4d9;stroke-miterlimit: 10;stroke-width: 2px"/>
      <polygon points="953.38 602.45 937.29 611.74 953.38 621.03 969.46 611.74 953.38 602.45" style="fill: none;stroke: #2cd4d9;stroke-miterlimit: 10;stroke-width: 2px"/>
      <polygon points="985.55 602.45 969.46 593.17 953.38 602.45 969.46 611.74 985.55 602.45" style="fill: none;stroke: #2cd4d9;stroke-miterlimit: 10;stroke-width: 2px"/>
      <polygon points="1082.08 546.73 1065.99 537.44 1049.9 546.73 1065.99 556.01 1082.08 546.73" style="fill: none;stroke: #2cd4d9;stroke-miterlimit: 10;stroke-width: 2px"/>
      <polygon points="1114.25 565.3 1130.34 556.01 1114.25 546.73 1098.16 556.01 1114.25 565.3" style="fill: none;stroke: #2cd4d9;stroke-miterlimit: 10;stroke-width: 2px"/>
      <polygon points="1065.99 574.59 1049.9 565.3 1033.81 574.59 1049.9 583.88 1065.99 574.59" style="fill: none;stroke: #2cd4d9;stroke-miterlimit: 10;stroke-width: 2px"/>
      <polygon points="1178.6 602.45 1194.69 593.17 1178.6 583.88 1162.51 593.17 1178.6 602.45" style="fill: none;stroke: #2cd4d9;stroke-miterlimit: 10;stroke-width: 2px"/>
      <polygon points="1146.43 583.88 1162.51 574.59 1146.43 565.3 1130.34 574.59 1146.43 583.88" style="fill: none;stroke: #2cd4d9;stroke-miterlimit: 10;stroke-width: 2px"/>
      <polygon points="1130.34 574.59 1146.43 565.3 1130.34 556.01 1114.25 565.3 1130.34 574.59" style="fill: none;stroke: #2cd4d9;stroke-miterlimit: 10;stroke-width: 2px"/>
      <polygon points="1098.16 556.01 1114.25 546.73 1098.16 537.44 1082.08 546.73 1098.16 556.01" style="fill: none;stroke: #2cd4d9;stroke-miterlimit: 10;stroke-width: 2px"/>
      <polygon points="1098.16 537.44 1082.08 528.15 1065.99 537.44 1082.08 546.73 1098.16 537.44" style="fill: none;stroke: #2cd4d9;stroke-miterlimit: 10;stroke-width: 2px"/>
      <polygon points="1194.69 611.74 1210.78 602.45 1194.69 593.17 1178.6 602.45 1194.69 611.74" style="fill: none;stroke: #2cd4d9;stroke-miterlimit: 10;stroke-width: 2px"/>
      <polygon points="1162.51 611.74 1178.6 602.45 1162.51 593.17 1146.43 602.45 1162.51 611.74" style="fill: none;stroke: #2cd4d9;stroke-miterlimit: 10;stroke-width: 2px"/>
      <polygon points="1098.16 593.17 1114.25 583.88 1098.16 574.59 1082.08 583.88 1098.16 593.17" style="fill: none;stroke: #2cd4d9;stroke-miterlimit: 10;stroke-width: 2px"/>
      <polygon points="1114.25 602.45 1130.34 593.17 1114.25 583.88 1098.16 593.17 1114.25 602.45" style="fill: none;stroke: #2cd4d9;stroke-miterlimit: 10;stroke-width: 2px"/>
      <polygon points="1082.08 621.03 1098.16 630.32 1114.25 621.03 1098.16 611.74 1082.08 621.03" style="fill: none;stroke: #2cd4d9;stroke-miterlimit: 10;stroke-width: 2px"/>
      <polygon points="1098.16 611.74 1114.25 621.03 1130.34 611.74 1114.25 602.45 1098.16 611.74" style="fill: none;stroke: #2cd4d9;stroke-miterlimit: 10;stroke-width: 2px"/>
      <polygon points="1130.34 611.74 1146.43 602.45 1130.34 593.17 1114.25 602.45 1130.34 611.74" style="fill: none;stroke: #2cd4d9;stroke-miterlimit: 10;stroke-width: 2px"/>
      <polygon points="1065.99 593.17 1049.9 583.88 1033.81 593.17 1049.9 602.45 1065.99 593.17" style="fill: none;stroke: #2cd4d9;stroke-miterlimit: 10;stroke-width: 2px"/>
      <polygon points="1098.16 574.59 1082.08 565.3 1065.99 574.59 1082.08 583.88 1098.16 574.59" style="fill: none;stroke: #2cd4d9;stroke-miterlimit: 10;stroke-width: 2px"/>
      <polygon points="1082.08 583.88 1065.99 574.59 1049.9 583.88 1065.99 593.17 1082.08 583.88" style="fill: none;stroke: #2cd4d9;stroke-miterlimit: 10;stroke-width: 2px"/>
      <polygon points="1098.16 611.74 1114.25 602.45 1098.16 593.17 1082.08 602.45 1098.16 611.74" style="fill: none;stroke: #2cd4d9;stroke-miterlimit: 10;stroke-width: 2px"/>
      <polygon points="1049.9 602.45 1033.81 593.17 1017.73 602.45 1033.81 611.74 1049.9 602.45" style="fill: none;stroke: #2cd4d9;stroke-miterlimit: 10;stroke-width: 2px"/>
      <polygon points="1098.16 593.17 1082.08 583.88 1065.99 593.17 1082.08 602.45 1098.16 593.17" style="fill: none;stroke: #2cd4d9;stroke-miterlimit: 10;stroke-width: 2px"/>
      <polygon points="1065.99 611.74 1082.08 621.03 1098.16 611.74 1082.08 602.45 1065.99 611.74" style="fill: none;stroke: #2cd4d9;stroke-miterlimit: 10;stroke-width: 2px"/>
      <polygon points="1065.99 611.74 1049.9 621.03 1065.99 630.32 1082.08 621.03 1065.99 611.74" style="fill: none;stroke: #2cd4d9;stroke-miterlimit: 10;stroke-width: 2px"/>
      <polygon points="1082.08 565.3 1065.99 556.01 1049.9 565.3 1065.99 574.59 1082.08 565.3" style="fill: none;stroke: #2cd4d9;stroke-miterlimit: 10;stroke-width: 2px"/>
      <polygon points="1049.9 602.45 1033.81 611.74 1049.9 621.03 1065.99 611.74 1049.9 602.45" style="fill: none;stroke: #2cd4d9;stroke-miterlimit: 10;stroke-width: 2px"/>
      <polygon points="1082.08 602.45 1065.99 593.17 1049.9 602.45 1065.99 611.74 1082.08 602.45" style="fill: none;stroke: #2cd4d9;stroke-miterlimit: 10;stroke-width: 2px"/>
      <polygon points="1065.99 630.32 1082.08 639.61 1098.16 630.32 1082.08 621.03 1065.99 630.32" style="fill: none;stroke: #2cd4d9;stroke-miterlimit: 10;stroke-width: 2px"/>
      <polygon points="1146.43 602.45 1162.51 593.17 1146.43 583.88 1130.34 593.17 1146.43 602.45" style="fill: none;stroke: #2cd4d9;stroke-miterlimit: 10;stroke-width: 2px"/>
      <polygon points="969.46 611.74 953.38 621.03 969.46 630.32 985.55 621.03 969.46 611.74" style="fill: none;stroke: #2cd4d9;stroke-miterlimit: 10;stroke-width: 2px"/>
      <polygon points="1130.34 593.17 1146.43 583.88 1130.34 574.59 1114.25 583.88 1130.34 593.17" style="fill: none;stroke: #2cd4d9;stroke-miterlimit: 10;stroke-width: 2px"/>
      <polygon points="1114.25 583.88 1130.34 574.59 1114.25 565.3 1098.16 574.59 1114.25 583.88" style="fill: none;stroke: #2cd4d9;stroke-miterlimit: 10;stroke-width: 2px"/>
      <polygon points="1017.73 602.45 1001.64 611.74 1017.73 621.03 1033.81 611.74 1017.73 602.45" style="fill: none;stroke: #2cd4d9;stroke-miterlimit: 10;stroke-width: 2px"/>
      <polygon points="1098.16 574.59 1114.25 565.3 1098.16 556.01 1082.08 565.3 1098.16 574.59" style="fill: none;stroke: #2cd4d9;stroke-miterlimit: 10;stroke-width: 2px"/>
      <polygon points="1130.34 611.74 1146.43 621.03 1162.51 611.74 1146.43 602.45 1130.34 611.74" style="fill: none;stroke: #2cd4d9;stroke-miterlimit: 10;stroke-width: 2px"/>
      <polygon points="1098.16 556.01 1082.08 546.73 1065.99 556.01 1082.08 565.3 1098.16 556.01" style="fill: none;stroke: #2cd4d9;stroke-miterlimit: 10;stroke-width: 2px"/>
      <polygon points="1114.25 621.03 1130.34 630.32 1146.43 621.03 1130.34 611.74 1114.25 621.03" style="fill: none;stroke: #2cd4d9;stroke-miterlimit: 10;stroke-width: 2px"/>
      <polygon points="1033.81 611.74 1017.73 621.03 1033.81 630.32 1049.9 621.03 1033.81 611.74" style="fill: none;stroke: #2cd4d9;stroke-miterlimit: 10;stroke-width: 2px"/>
      <polygon points="1065.99 630.32 1049.9 639.61 1065.99 648.89 1082.08 639.61 1065.99 630.32" style="fill: none;stroke: #2cd4d9;stroke-miterlimit: 10;stroke-width: 2px"/>
      <polygon points="1049.9 621.03 1033.81 630.32 1049.9 639.61 1065.99 630.32 1049.9 621.03" style="fill: none;stroke: #2cd4d9;stroke-miterlimit: 10;stroke-width: 2px"/>
      <polygon points="1098.16 630.32 1114.25 639.61 1130.34 630.32 1114.25 621.03 1098.16 630.32" style="fill: none;stroke: #2cd4d9;stroke-miterlimit: 10;stroke-width: 2px"/>
      <polygon points="1082.08 639.61 1098.16 648.89 1114.25 639.61 1098.16 630.32 1082.08 639.61" style="fill: none;stroke: #2cd4d9;stroke-miterlimit: 10;stroke-width: 2px"/>
      <polygon points="1065.99 648.89 1082.08 658.18 1098.16 648.89 1082.08 639.61 1065.99 648.89" style="fill: none;stroke: #2cd4d9;stroke-miterlimit: 10;stroke-width: 2px"/>
      <polygon points="1065.99 686.05 1049.9 695.34 1065.99 704.62 1082.08 695.34 1065.99 686.05" style="fill: none;stroke: #2cd4d9;stroke-miterlimit: 10;stroke-width: 2px"/>
      <polygon points="1098.16 518.86 1114.25 509.57 1098.16 500.28 1082.08 509.57 1098.16 518.86" style="fill: none;stroke: #2cd4d9;stroke-miterlimit: 10;stroke-width: 2px"/>
      <polygon points="1065.99 704.62 1082.08 713.91 1098.16 704.62 1082.08 695.34 1065.99 704.62" style="fill: none;stroke: #2cd4d9;stroke-miterlimit: 10;stroke-width: 2px"/>
      <polygon points="1082.08 695.34 1098.16 704.62 1114.25 695.34 1098.16 686.05 1082.08 695.34" style="fill: none;stroke: #2cd4d9;stroke-miterlimit: 10;stroke-width: 2px"/>
      <polygon points="1049.9 676.76 1033.81 686.05 1049.9 695.34 1065.99 686.05 1049.9 676.76" style="fill: none;stroke: #2cd4d9;stroke-miterlimit: 10;stroke-width: 2px"/>
      <polygon points="1130.34 667.47 1146.43 676.76 1162.51 667.47 1146.43 658.18 1130.34 667.47" style="fill: none;stroke: #2cd4d9;stroke-miterlimit: 10;stroke-width: 2px"/>
      <polygon points="1146.43 658.18 1162.51 667.47 1178.6 658.18 1162.51 648.89 1146.43 658.18" style="fill: none;stroke: #2cd4d9;stroke-miterlimit: 10;stroke-width: 2px"/>
      <polygon points="1098.16 686.05 1114.25 695.34 1130.34 686.05 1114.25 676.76 1098.16 686.05" style="fill: none;stroke: #2cd4d9;stroke-miterlimit: 10;stroke-width: 2px"/>
      <polygon points="1114.25 676.76 1130.34 686.05 1146.43 676.76 1130.34 667.47 1114.25 676.76" style="fill: none;stroke: #2cd4d9;stroke-miterlimit: 10;stroke-width: 2px"/>
      <polygon points="953.38 602.45 937.29 593.17 921.2 602.45 937.29 611.74 953.38 602.45" style="fill: none;stroke: #2cd4d9;stroke-miterlimit: 10;stroke-width: 2px"/>
      <polygon points="937.29 611.74 921.2 621.03 937.29 630.32 953.38 621.03 937.29 611.74" style="fill: none;stroke: #2cd4d9;stroke-miterlimit: 10;stroke-width: 2px"/>
      <polygon points="1017.73 658.18 1001.64 667.47 1017.73 676.76 1033.81 667.47 1017.73 658.18" style="fill: none;stroke: #2cd4d9;stroke-miterlimit: 10;stroke-width: 2px"/>
      <polygon points="953.38 621.03 937.29 630.32 953.38 639.61 969.46 630.32 953.38 621.03" style="fill: none;stroke: #2cd4d9;stroke-miterlimit: 10;stroke-width: 2px"/>
      <polygon points="1001.64 648.89 985.55 658.18 1001.64 667.47 1017.73 658.18 1001.64 648.89" style="fill: none;stroke: #2cd4d9;stroke-miterlimit: 10;stroke-width: 2px"/>
      <polygon points="969.46 630.32 953.38 639.61 969.46 648.89 985.55 639.61 969.46 630.32" style="fill: none;stroke: #2cd4d9;stroke-miterlimit: 10;stroke-width: 2px"/>
      <polygon points="985.55 639.61 969.46 648.89 985.55 658.18 1001.64 648.89 985.55 639.61" style="fill: none;stroke: #2cd4d9;stroke-miterlimit: 10;stroke-width: 2px"/>
      <polygon points="1033.81 667.47 1017.73 676.76 1033.81 686.05 1049.9 676.76 1033.81 667.47" style="fill: none;stroke: #2cd4d9;stroke-miterlimit: 10;stroke-width: 2px"/>
      <polygon points="1210.78 583.88 1226.86 574.59 1210.78 565.3 1194.69 574.59 1210.78 583.88" style="fill: none;stroke: #2cd4d9;stroke-miterlimit: 10;stroke-width: 2px"/>
      <polygon points="1162.51 556.01 1178.6 546.73 1162.51 537.44 1146.43 546.73 1162.51 556.01" style="fill: none;stroke: #2cd4d9;stroke-miterlimit: 10;stroke-width: 2px"/>
      <polygon points="1194.69 574.59 1210.78 565.3 1194.69 556.01 1178.6 565.3 1194.69 574.59" style="fill: none;stroke: #2cd4d9;stroke-miterlimit: 10;stroke-width: 2px"/>
      <polygon points="1178.6 565.3 1194.69 556.01 1178.6 546.73 1162.51 556.01 1178.6 565.3" style="fill: none;stroke: #2cd4d9;stroke-miterlimit: 10;stroke-width: 2px"/>
      <polygon points="985.55 621.03 969.46 630.32 985.55 639.61 1001.64 630.32 985.55 621.03" style="fill: none;stroke: #2cd4d9;stroke-miterlimit: 10;stroke-width: 2px"/>
      <polygon points="1146.43 546.73 1162.51 537.44 1146.43 528.15 1130.34 537.44 1146.43 546.73" style="fill: none;stroke: #2cd4d9;stroke-miterlimit: 10;stroke-width: 2px"/>
      <polygon points="1130.34 537.44 1146.43 528.15 1130.34 518.86 1114.25 528.15 1130.34 537.44" style="fill: none;stroke: #2cd4d9;stroke-miterlimit: 10;stroke-width: 2px"/>
      <polygon points="1114.25 528.15 1130.34 518.86 1114.25 509.57 1098.16 518.86 1114.25 528.15" style="fill: none;stroke: #2cd4d9;stroke-miterlimit: 10;stroke-width: 2px"/>
      <polygon points="1226.86 593.17 1242.95 583.88 1226.86 574.59 1210.78 583.88 1226.86 593.17" style="fill: none;stroke: #2cd4d9;stroke-miterlimit: 10;stroke-width: 2px"/>
      <polygon points="1194.69 630.32 1210.78 639.61 1226.86 630.32 1210.78 621.03 1194.69 630.32" style="fill: none;stroke: #2cd4d9;stroke-miterlimit: 10;stroke-width: 2px"/>
      <polygon points="1178.6 639.61 1194.69 648.89 1210.78 639.61 1194.69 630.32 1178.6 639.61" style="fill: none;stroke: #2cd4d9;stroke-miterlimit: 10;stroke-width: 2px"/>
      <polygon points="1210.78 621.03 1226.86 630.32 1242.95 621.03 1226.86 611.74 1210.78 621.03" style="fill: none;stroke: #2cd4d9;stroke-miterlimit: 10;stroke-width: 2px"/>
      <polygon points="1242.95 602.45 1259.04 593.17 1242.95 583.88 1226.86 593.17 1242.95 602.45" style="fill: none;stroke: #2cd4d9;stroke-miterlimit: 10;stroke-width: 2px"/>
      <polygon points="1259.04 611.74 1275.13 602.45 1259.04 593.17 1242.95 602.45 1259.04 611.74" style="fill: none;stroke: #2cd4d9;stroke-miterlimit: 10;stroke-width: 2px"/>
      <polygon points="1226.86 611.74 1242.95 621.03 1259.04 611.74 1242.95 602.45 1226.86 611.74" style="fill: none;stroke: #2cd4d9;stroke-miterlimit: 10;stroke-width: 2px"/>
      <polygon points="1162.51 648.89 1178.6 658.18 1194.69 648.89 1178.6 639.61 1162.51 648.89" style="fill: none;stroke: #2cd4d9;stroke-miterlimit: 10;stroke-width: 2px"/>
      <polygon points="1162.51 630.32 1178.6 639.61 1194.69 630.32 1178.6 621.03 1162.51 630.32" style="fill: none;stroke: #2cd4d9;stroke-miterlimit: 10;stroke-width: 2px"/>
      <polygon points="1130.34 648.89 1146.43 658.18 1162.51 648.89 1146.43 639.61 1130.34 648.89" style="fill: none;stroke: #2cd4d9;stroke-miterlimit: 10;stroke-width: 2px"/>
      <polygon points="1146.43 639.61 1162.51 648.89 1178.6 639.61 1162.51 630.32 1146.43 639.61" style="fill: none;stroke: #2cd4d9;stroke-miterlimit: 10;stroke-width: 2px"/>
      <polygon points="1114.25 658.18 1130.34 667.47 1146.43 658.18 1130.34 648.89 1114.25 658.18" style="fill: none;stroke: #2cd4d9;stroke-miterlimit: 10;stroke-width: 2px"/>
      <polygon points="1226.86 611.74 1242.95 602.45 1226.86 593.17 1210.78 602.45 1226.86 611.74" style="fill: none;stroke: #2cd4d9;stroke-miterlimit: 10;stroke-width: 2px"/>
      <polygon points="1178.6 621.03 1194.69 630.32 1210.78 621.03 1194.69 611.74 1178.6 621.03" style="fill: none;stroke: #2cd4d9;stroke-miterlimit: 10;stroke-width: 2px"/>
      <polygon points="1098.16 667.47 1114.25 676.76 1130.34 667.47 1114.25 658.18 1098.16 667.47" style="fill: none;stroke: #2cd4d9;stroke-miterlimit: 10;stroke-width: 2px"/>
      <polygon points="1194.69 611.74 1210.78 621.03 1226.86 611.74 1210.78 602.45 1194.69 611.74" style="fill: none;stroke: #2cd4d9;stroke-miterlimit: 10;stroke-width: 2px"/>
      <polygon points="969.46 593.17 953.38 583.88 937.29 593.17 953.38 602.45 969.46 593.17" style="fill: none;stroke: #2cd4d9;stroke-miterlimit: 10;stroke-width: 2px"/>
      <polygon points="1017.73 639.61 1001.64 648.89 1017.73 658.18 1033.81 648.89 1017.73 639.61" style="fill: none;stroke: #2cd4d9;stroke-miterlimit: 10;stroke-width: 2px"/>
      <polygon points="1082.08 676.76 1098.16 686.05 1114.25 676.76 1098.16 667.47 1082.08 676.76" style="fill: none;stroke: #2cd4d9;stroke-miterlimit: 10;stroke-width: 2px"/>
      <polygon points="1033.81 648.89 1017.73 658.18 1033.81 667.47 1049.9 658.18 1033.81 648.89" style="fill: none;stroke: #2cd4d9;stroke-miterlimit: 10;stroke-width: 2px"/>
      <polygon points="1001.64 630.32 985.55 639.61 1001.64 648.89 1017.73 639.61 1001.64 630.32" style="fill: none;stroke: #2cd4d9;stroke-miterlimit: 10;stroke-width: 2px"/>
      <polygon points="1049.9 658.18 1033.81 667.47 1049.9 676.76 1065.99 667.47 1049.9 658.18" style="fill: none;stroke: #2cd4d9;stroke-miterlimit: 10;stroke-width: 2px"/>
      <polygon points="1065.99 686.05 1082.08 695.34 1098.16 686.05 1082.08 676.76 1065.99 686.05" style="fill: none;stroke: #2cd4d9;stroke-miterlimit: 10;stroke-width: 2px"/>
      <polygon points="1065.99 667.47 1049.9 676.76 1065.99 686.05 1082.08 676.76 1065.99 667.47" style="fill: none;stroke: #2cd4d9;stroke-miterlimit: 10;stroke-width: 2px"/>
      <polygon points="1210.78 602.45 1226.86 593.17 1210.78 583.88 1194.69 593.17 1210.78 602.45" style="fill: none;stroke: #2cd4d9;stroke-miterlimit: 10;stroke-width: 2px"/>
      <polygon points="1082.08 528.15 1065.99 518.86 1049.9 528.15 1065.99 537.44 1082.08 528.15" style="fill: none;stroke: #2cd4d9;stroke-miterlimit: 10;stroke-width: 2px"/>
      <polygon points="1065.99 537.44 1049.9 528.15 1033.81 537.44 1049.9 546.73 1065.99 537.44" style="fill: none;stroke: #2cd4d9;stroke-miterlimit: 10;stroke-width: 2px"/>
      <polygon points="1033.81 556.01 1017.73 546.73 1001.64 556.01 1017.73 565.3 1033.81 556.01" style="fill: none;stroke: #2cd4d9;stroke-miterlimit: 10;stroke-width: 2px"/>
      <polygon points="1049.9 546.73 1033.81 537.44 1017.73 546.73 1033.81 556.01 1049.9 546.73" style="fill: none;stroke: #2cd4d9;stroke-miterlimit: 10;stroke-width: 2px"/>
      <polygon points="985.55 583.88 969.46 574.59 953.38 583.88 969.46 593.17 985.55 583.88" style="fill: none;stroke: #2cd4d9;stroke-miterlimit: 10;stroke-width: 2px"/>
      <polygon points="1017.73 565.3 1001.64 556.01 985.55 565.3 1001.64 574.59 1017.73 565.3" style="fill: none;stroke: #2cd4d9;stroke-miterlimit: 10;stroke-width: 2px"/>
      <polygon points="1001.64 574.59 985.55 565.3 969.46 574.59 985.55 583.88 1001.64 574.59" style="fill: none;stroke: #2cd4d9;stroke-miterlimit: 10;stroke-width: 2px"/>
      <polygon points="1114.25 546.73 1130.34 537.44 1114.25 528.15 1098.16 537.44 1114.25 546.73" style="fill: none;stroke: #2cd4d9;stroke-miterlimit: 10;stroke-width: 2px"/>
      <polygon points="1162.51 574.59 1178.6 565.3 1162.51 556.01 1146.43 565.3 1162.51 574.59" style="fill: none;stroke: #2cd4d9;stroke-miterlimit: 10;stroke-width: 2px"/>
      <polygon points="1178.6 583.88 1194.69 574.59 1178.6 565.3 1162.51 574.59 1178.6 583.88" style="fill: none;stroke: #2cd4d9;stroke-miterlimit: 10;stroke-width: 2px"/>
      <polygon points="1146.43 565.3 1162.51 556.01 1146.43 546.73 1130.34 556.01 1146.43 565.3" style="fill: none;stroke: #2cd4d9;stroke-miterlimit: 10;stroke-width: 2px"/>
      <polygon points="1098.16 537.44 1114.25 528.15 1098.16 518.86 1082.08 528.15 1098.16 537.44" style="fill: none;stroke: #2cd4d9;stroke-miterlimit: 10;stroke-width: 2px"/>
      <polygon points="1098.16 518.86 1082.08 509.57 1065.99 518.86 1082.08 528.15 1098.16 518.86" style="fill: none;stroke: #2cd4d9;stroke-miterlimit: 10;stroke-width: 2px"/>
      <polygon points="1194.69 593.17 1210.78 583.88 1194.69 574.59 1178.6 583.88 1194.69 593.17" style="fill: none;stroke: #2cd4d9;stroke-miterlimit: 10;stroke-width: 2px"/>
      <polygon points="1130.34 556.01 1146.43 546.73 1130.34 537.44 1114.25 546.73 1130.34 556.01" style="fill: none;stroke: #2cd4d9;stroke-miterlimit: 10;stroke-width: 2px"/>
      <polygon points="1259.04 686.05 1275.13 695.34 1291.21 686.05 1275.13 676.76 1259.04 686.05" style="fill: none;stroke: #2cd4d9;stroke-miterlimit: 10;stroke-width: 2px"/>
      <polygon points="1275.13 676.76 1291.21 686.05 1307.3 676.76 1291.21 667.47 1275.13 676.76" style="fill: none;stroke: #2cd4d9;stroke-miterlimit: 10;stroke-width: 2px"/>
      <polygon points="1242.95 695.34 1259.04 704.62 1275.13 695.34 1259.04 686.05 1242.95 695.34" style="fill: none;stroke: #2cd4d9;stroke-miterlimit: 10;stroke-width: 2px"/>
      <polygon points="1226.86 704.62 1242.95 713.91 1259.04 704.62 1242.95 695.34 1226.86 704.62" style="fill: none;stroke: #2cd4d9;stroke-miterlimit: 10;stroke-width: 2px"/>
      <polygon points="969.46 686.05 953.38 695.34 969.46 704.62 985.55 695.34 969.46 686.05" style="fill: none;stroke: #2cd4d9;stroke-miterlimit: 10;stroke-width: 2px"/>
      <polygon points="905.11 686.05 889.02 695.34 905.11 704.62 921.2 695.34 905.11 686.05" style="fill: none;stroke: #2cd4d9;stroke-miterlimit: 10;stroke-width: 2px"/>
      <polygon points="889.02 676.76 872.94 686.05 889.02 695.34 905.11 686.05 889.02 676.76" style="fill: none;stroke: #2cd4d9;stroke-miterlimit: 10;stroke-width: 2px"/>
      <polygon points="969.46 723.2 953.38 732.49 969.46 741.78 985.55 732.49 969.46 723.2" style="fill: none;stroke: #2cd4d9;stroke-miterlimit: 10;stroke-width: 2px"/>
      <polygon points="921.2 695.34 905.11 704.62 921.2 713.91 937.29 704.62 921.2 695.34" style="fill: none;stroke: #2cd4d9;stroke-miterlimit: 10;stroke-width: 2px"/>
      <polygon points="937.29 704.62 921.2 713.91 937.29 723.2 953.38 713.91 937.29 704.62" style="fill: none;stroke: #2cd4d9;stroke-miterlimit: 10;stroke-width: 2px"/>
      <polygon points="1210.78 713.91 1226.86 723.2 1242.95 713.91 1226.86 704.62 1210.78 713.91" style="fill: none;stroke: #2cd4d9;stroke-miterlimit: 10;stroke-width: 2px"/>
      <polygon points="953.38 713.91 937.29 723.2 953.38 732.49 969.46 723.2 953.38 713.91" style="fill: none;stroke: #2cd4d9;stroke-miterlimit: 10;stroke-width: 2px"/>
      <polygon points="1146.43 751.06 1162.51 760.35 1178.6 751.06 1162.51 741.78 1146.43 751.06" style="fill: none;stroke: #2cd4d9;stroke-miterlimit: 10;stroke-width: 2px"/>
      <polygon points="1130.34 760.35 1146.43 769.64 1162.51 760.35 1146.43 751.06 1130.34 760.35" style="fill: none;stroke: #2cd4d9;stroke-miterlimit: 10;stroke-width: 2px"/>
      <polygon points="985.55 732.49 969.46 741.78 985.55 751.06 1001.64 741.78 985.55 732.49" style="fill: none;stroke: #2cd4d9;stroke-miterlimit: 10;stroke-width: 2px"/>
      <polygon points="1194.69 723.2 1210.78 732.49 1226.86 723.2 1210.78 713.91 1194.69 723.2" style="fill: none;stroke: #2cd4d9;stroke-miterlimit: 10;stroke-width: 2px"/>
      <polygon points="1178.6 732.49 1194.69 741.78 1210.78 732.49 1194.69 723.2 1178.6 732.49" style="fill: none;stroke: #2cd4d9;stroke-miterlimit: 10;stroke-width: 2px"/>
      <polygon points="1162.51 741.78 1178.6 751.06 1194.69 741.78 1178.6 732.49 1162.51 741.78" style="fill: none;stroke: #2cd4d9;stroke-miterlimit: 10;stroke-width: 2px"/>
      <polygon points="1001.64 741.78 985.55 751.06 1001.64 760.35 1017.73 751.06 1001.64 741.78" style="fill: none;stroke: #2cd4d9;stroke-miterlimit: 10;stroke-width: 2px"/>
      <polygon points="1178.6 751.06 1194.69 760.35 1210.78 751.06 1194.69 741.78 1178.6 751.06" style="fill: none;stroke: #2cd4d9;stroke-miterlimit: 10;stroke-width: 2px"/>
      <polygon points="1194.69 741.78 1210.78 751.06 1226.86 741.78 1210.78 732.49 1194.69 741.78" style="fill: none;stroke: #2cd4d9;stroke-miterlimit: 10;stroke-width: 2px"/>
      <line x1="1162.51" y1="760.35" x2="1146.43" y2="769.64" style="fill: none;stroke: #2cd4d9;stroke-miterlimit: 10;stroke-width: 2px"/>
      <polyline points="1194.69 760.35 1178.6 751.06 1162.51 760.35" style="fill: none;stroke: #2cd4d9;stroke-miterlimit: 10;stroke-width: 2px"/>
      <polyline points="1001.64 760.35 985.55 751.06 969.46 760.35" style="fill: none;stroke: #2cd4d9;stroke-miterlimit: 10;stroke-width: 2px"/>
      <polygon points="969.46 741.78 953.38 751.06 969.46 760.35 985.55 751.06 969.46 741.78" style="fill: none;stroke: #2cd4d9;stroke-miterlimit: 10;stroke-width: 2px"/>
      <polygon points="953.38 732.49 937.29 741.78 953.38 751.06 969.46 741.78 953.38 732.49" style="fill: none;stroke: #2cd4d9;stroke-miterlimit: 10;stroke-width: 2px"/>
      <polygon points="1259.04 704.62 1275.13 713.91 1291.21 704.62 1275.13 695.34 1259.04 704.62" style="fill: none;stroke: #2cd4d9;stroke-miterlimit: 10;stroke-width: 2px"/>
      <polygon points="1242.95 713.91 1259.04 723.2 1275.13 713.91 1259.04 704.62 1242.95 713.91" style="fill: none;stroke: #2cd4d9;stroke-miterlimit: 10;stroke-width: 2px"/>
      <polygon points="1226.86 723.2 1242.95 732.49 1259.04 723.2 1242.95 713.91 1226.86 723.2" style="fill: none;stroke: #2cd4d9;stroke-miterlimit: 10;stroke-width: 2px"/>
      <polygon points="1210.78 732.49 1226.86 741.78 1242.95 732.49 1226.86 723.2 1210.78 732.49" style="fill: none;stroke: #2cd4d9;stroke-miterlimit: 10;stroke-width: 2px"/>
      <polygon points="1275.13 695.34 1291.21 704.62 1307.3 695.34 1291.21 686.05 1275.13 695.34" style="fill: none;stroke: #2cd4d9;stroke-miterlimit: 10;stroke-width: 2px"/>
      <polygon points="969.46 481.71 953.38 472.42 937.29 481.71 953.38 491 969.46 481.71" style="fill: none;stroke: #2cd4d9;stroke-miterlimit: 10;stroke-width: 2px"/>
      <polygon points="1001.64 463.13 985.55 453.84 969.46 463.13 985.55 472.42 1001.64 463.13" style="fill: none;stroke: #2cd4d9;stroke-miterlimit: 10;stroke-width: 2px"/>
      <polygon points="953.38 491 937.29 481.71 921.2 491 937.29 500.28 953.38 491" style="fill: none;stroke: #2cd4d9;stroke-miterlimit: 10;stroke-width: 2px"/>
      <polygon points="985.55 472.42 969.46 463.13 953.38 472.42 969.46 481.71 985.55 472.42" style="fill: none;stroke: #2cd4d9;stroke-miterlimit: 10;stroke-width: 2px"/>
      <polygon points="872.94 686.05 856.85 695.34 872.94 704.62 889.02 695.34 872.94 686.05" style="fill: none;stroke: #2cd4d9;stroke-miterlimit: 10;stroke-width: 2px"/>
      <polygon points="889.02 695.34 872.94 704.62 889.02 713.91 905.11 704.62 889.02 695.34" style="fill: none;stroke: #2cd4d9;stroke-miterlimit: 10;stroke-width: 2px"/>
      <polygon points="921.2 713.91 905.11 723.2 921.2 732.49 937.29 723.2 921.2 713.91" style="fill: none;stroke: #2cd4d9;stroke-miterlimit: 10;stroke-width: 2px"/>
      <polygon points="905.11 704.62 889.02 713.91 905.11 723.2 921.2 713.91 905.11 704.62" style="fill: none;stroke: #2cd4d9;stroke-miterlimit: 10;stroke-width: 2px"/>
      <polygon points="937.29 723.2 921.2 732.49 937.29 741.78 953.38 732.49 937.29 723.2" style="fill: none;stroke: #2cd4d9;stroke-miterlimit: 10;stroke-width: 2px"/>
      <polygon points="1033.81 481.71 1017.73 472.42 1001.64 481.71 1017.73 491 1033.81 481.71" style="fill: none;stroke: #2cd4d9;stroke-miterlimit: 10;stroke-width: 2px"/>
      <polygon points="1049.9 472.42 1033.81 463.13 1017.73 472.42 1033.81 481.71 1049.9 472.42" style="fill: none;stroke: #2cd4d9;stroke-miterlimit: 10;stroke-width: 2px"/>
      <polygon points="1065.99 463.13 1049.9 453.84 1033.81 463.13 1049.9 472.42 1065.99 463.13" style="fill: none;stroke: #2cd4d9;stroke-miterlimit: 10;stroke-width: 2px"/>
      <polygon points="985.55 509.57 969.46 500.28 953.38 509.57 969.46 518.86 985.55 509.57" style="fill: none;stroke: #2cd4d9;stroke-miterlimit: 10;stroke-width: 2px"/>
      <polygon points="1017.73 491 1001.64 481.71 985.55 491 1001.64 500.28 1017.73 491" style="fill: none;stroke: #2cd4d9;stroke-miterlimit: 10;stroke-width: 2px"/>
      <polygon points="1001.64 500.28 985.55 491 969.46 500.28 985.55 509.57 1001.64 500.28" style="fill: none;stroke: #2cd4d9;stroke-miterlimit: 10;stroke-width: 2px"/>
      <polygon points="889.02 658.18 872.94 667.47 889.02 676.76 905.11 667.47 889.02 658.18" style="fill: none;stroke: #2cd4d9;stroke-miterlimit: 10;stroke-width: 2px"/>
      <polygon points="1178.6 509.57 1194.69 500.28 1178.6 491 1162.51 500.28 1178.6 509.57" style="fill: none;stroke: #2cd4d9;stroke-miterlimit: 10;stroke-width: 2px"/>
      <polygon points="1194.69 518.86 1210.78 509.57 1194.69 500.28 1178.6 509.57 1194.69 518.86" style="fill: none;stroke: #2cd4d9;stroke-miterlimit: 10;stroke-width: 2px"/>
      <polygon points="1210.78 528.15 1226.86 518.86 1210.78 509.57 1194.69 518.86 1210.78 528.15" style="fill: none;stroke: #2cd4d9;stroke-miterlimit: 10;stroke-width: 2px"/>
      <line x1="872.94" y1="667.47" x2="889.02" y2="658.18" style="fill: none;stroke: #2cd4d9;stroke-miterlimit: 10;stroke-width: 2px"/>
      <polygon points="953.38 528.15 937.29 518.86 921.2 528.15 937.29 537.44 953.38 528.15" style="fill: none;stroke: #2cd4d9;stroke-miterlimit: 10;stroke-width: 2px"/>
      <polygon points="969.46 518.86 953.38 509.57 937.29 518.86 953.38 528.15 969.46 518.86" style="fill: none;stroke: #2cd4d9;stroke-miterlimit: 10;stroke-width: 2px"/>
      <polygon points="1082.08 751.06 1098.16 760.35 1114.25 751.06 1098.16 741.78 1082.08 751.06" style="fill: none;stroke: #2cd4d9;stroke-miterlimit: 10;stroke-width: 2px"/>
      <polygon points="1114.25 732.49 1130.34 741.78 1146.43 732.49 1130.34 723.2 1114.25 732.49" style="fill: none;stroke: #2cd4d9;stroke-miterlimit: 10;stroke-width: 2px"/>
      <polygon points="1098.16 741.78 1114.25 751.06 1130.34 741.78 1114.25 732.49 1098.16 741.78" style="fill: none;stroke: #2cd4d9;stroke-miterlimit: 10;stroke-width: 2px"/>
      <polygon points="1146.43 713.91 1162.51 723.2 1178.6 713.91 1162.51 704.62 1146.43 713.91" style="fill: none;stroke: #2cd4d9;stroke-miterlimit: 10;stroke-width: 2px"/>
      <polygon points="1210.78 676.76 1226.86 686.05 1242.95 676.76 1226.86 667.47 1210.78 676.76" style="fill: none;stroke: #2cd4d9;stroke-miterlimit: 10;stroke-width: 2px"/>
      <polygon points="1162.51 704.62 1178.6 713.91 1194.69 704.62 1178.6 695.34 1162.51 704.62" style="fill: none;stroke: #2cd4d9;stroke-miterlimit: 10;stroke-width: 2px"/>
      <polygon points="1194.69 686.05 1210.78 695.34 1226.86 686.05 1210.78 676.76 1194.69 686.05" style="fill: none;stroke: #2cd4d9;stroke-miterlimit: 10;stroke-width: 2px"/>
      <polygon points="1178.6 695.34 1194.69 704.62 1210.78 695.34 1194.69 686.05 1178.6 695.34" style="fill: none;stroke: #2cd4d9;stroke-miterlimit: 10;stroke-width: 2px"/>
      <polygon points="1130.34 723.2 1146.43 732.49 1162.51 723.2 1146.43 713.91 1130.34 723.2" style="fill: none;stroke: #2cd4d9;stroke-miterlimit: 10;stroke-width: 2px"/>
      <polygon points="1001.64 704.62 985.55 713.91 1001.64 723.2 1017.73 713.91 1001.64 704.62" style="fill: none;stroke: #2cd4d9;stroke-miterlimit: 10;stroke-width: 2px"/>
      <polygon points="985.55 695.34 969.46 704.62 985.55 713.91 1001.64 704.62 985.55 695.34" style="fill: none;stroke: #2cd4d9;stroke-miterlimit: 10;stroke-width: 2px"/>
      <polygon points="1065.99 760.35 1082.08 769.64 1098.16 760.35 1082.08 751.06 1065.99 760.35" style="fill: none;stroke: #2cd4d9;stroke-miterlimit: 10;stroke-width: 2px"/>
      <polygon points="1017.73 713.91 1001.64 723.2 1017.73 732.49 1033.81 723.2 1017.73 713.91" style="fill: none;stroke: #2cd4d9;stroke-miterlimit: 10;stroke-width: 2px"/>
      <polygon points="1226.86 537.44 1242.95 528.15 1226.86 518.86 1210.78 528.15 1226.86 537.44" style="fill: none;stroke: #2cd4d9;stroke-miterlimit: 10;stroke-width: 2px"/>
      <polygon points="1049.9 732.49 1033.81 741.78 1049.9 751.06 1065.99 741.78 1049.9 732.49" style="fill: none;stroke: #2cd4d9;stroke-miterlimit: 10;stroke-width: 2px"/>
      <polygon points="1033.81 723.2 1017.73 732.49 1033.81 741.78 1049.9 732.49 1033.81 723.2" style="fill: none;stroke: #2cd4d9;stroke-miterlimit: 10;stroke-width: 2px"/>
      <polygon points="1065.99 741.78 1049.9 751.06 1065.99 760.35 1082.08 751.06 1065.99 741.78" style="fill: none;stroke: #2cd4d9;stroke-miterlimit: 10;stroke-width: 2px"/>
      <polygon points="1275.13 639.61 1291.21 648.89 1307.3 639.61 1291.21 630.32 1275.13 639.61" style="fill: none;stroke: #2cd4d9;stroke-miterlimit: 10;stroke-width: 2px"/>
      <polygon points="1259.04 648.89 1275.13 658.18 1291.21 648.89 1275.13 639.61 1259.04 648.89" style="fill: none;stroke: #2cd4d9;stroke-miterlimit: 10;stroke-width: 2px"/>
      <polygon points="1242.95 658.18 1259.04 667.47 1275.13 658.18 1259.04 648.89 1242.95 658.18" style="fill: none;stroke: #2cd4d9;stroke-miterlimit: 10;stroke-width: 2px"/>
      <polygon points="1226.86 667.47 1242.95 676.76 1259.04 667.47 1242.95 658.18 1226.86 667.47" style="fill: none;stroke: #2cd4d9;stroke-miterlimit: 10;stroke-width: 2px"/>
      <polygon points="953.38 509.57 937.29 500.28 921.2 509.57 937.29 518.86 953.38 509.57" style="fill: none;stroke: #2cd4d9;stroke-miterlimit: 10;stroke-width: 2px"/>
      <polygon points="1033.81 463.13 1017.73 453.84 1001.64 463.13 1017.73 472.42 1033.81 463.13" style="fill: none;stroke: #2cd4d9;stroke-miterlimit: 10;stroke-width: 2px"/>
      <polygon points="1049.9 453.84 1033.81 444.56 1017.73 453.84 1033.81 463.13 1049.9 453.84" style="fill: none;stroke: #2cd4d9;stroke-miterlimit: 10;stroke-width: 2px"/>
      <polygon points="985.55 491 969.46 481.71 953.38 491 969.46 500.28 985.55 491" style="fill: none;stroke: #2cd4d9;stroke-miterlimit: 10;stroke-width: 2px"/>
      <polygon points="969.46 500.28 953.38 491 937.29 500.28 953.38 509.57 969.46 500.28" style="fill: none;stroke: #2cd4d9;stroke-miterlimit: 10;stroke-width: 2px"/>
      <polygon points="1001.64 481.71 985.55 472.42 969.46 481.71 985.55 491 1001.64 481.71" style="fill: none;stroke: #2cd4d9;stroke-miterlimit: 10;stroke-width: 2px"/>
      <polygon points="1017.73 472.42 1001.64 463.13 985.55 472.42 1001.64 481.71 1017.73 472.42" style="fill: none;stroke: #2cd4d9;stroke-miterlimit: 10;stroke-width: 2px"/>
      <polygon points="905.11 667.47 889.02 676.76 905.11 686.05 921.2 676.76 905.11 667.47" style="fill: none;stroke: #2cd4d9;stroke-miterlimit: 10;stroke-width: 2px"/>
      <polygon points="1033.81 741.78 1017.73 751.06 1033.81 760.35 1049.9 751.06 1033.81 741.78" style="fill: none;stroke: #2cd4d9;stroke-miterlimit: 10;stroke-width: 2px"/>
      <polygon points="1130.34 741.78 1146.43 751.06 1162.51 741.78 1146.43 732.49 1130.34 741.78" style="fill: none;stroke: #2cd4d9;stroke-miterlimit: 10;stroke-width: 2px"/>
      <polygon points="1114.25 751.06 1130.34 760.35 1146.43 751.06 1130.34 741.78 1114.25 751.06" style="fill: none;stroke: #2cd4d9;stroke-miterlimit: 10;stroke-width: 2px"/>
      <polygon points="1098.16 760.35 1114.25 769.64 1130.34 760.35 1114.25 751.06 1098.16 760.35" style="fill: none;stroke: #2cd4d9;stroke-miterlimit: 10;stroke-width: 2px"/>
      <polygon points="937.29 686.05 921.2 695.34 937.29 704.62 953.38 695.34 937.29 686.05" style="fill: none;stroke: #2cd4d9;stroke-miterlimit: 10;stroke-width: 2px"/>
      <polygon points="953.38 695.34 937.29 704.62 953.38 713.91 969.46 704.62 953.38 695.34" style="fill: none;stroke: #2cd4d9;stroke-miterlimit: 10;stroke-width: 2px"/>
      <polygon points="1146.43 732.49 1162.51 741.78 1178.6 732.49 1162.51 723.2 1146.43 732.49" style="fill: none;stroke: #2cd4d9;stroke-miterlimit: 10;stroke-width: 2px"/>
      <polygon points="921.2 676.76 905.11 686.05 921.2 695.34 937.29 686.05 921.2 676.76" style="fill: none;stroke: #2cd4d9;stroke-miterlimit: 10;stroke-width: 2px"/>
      <polygon points="969.46 704.62 953.38 713.91 969.46 723.2 985.55 713.91 969.46 704.62" style="fill: none;stroke: #2cd4d9;stroke-miterlimit: 10;stroke-width: 2px"/>
      <polygon points="1001.64 723.2 985.55 732.49 1001.64 741.78 1017.73 732.49 1001.64 723.2" style="fill: none;stroke: #2cd4d9;stroke-miterlimit: 10;stroke-width: 2px"/>
      <polygon points="985.55 713.91 969.46 723.2 985.55 732.49 1001.64 723.2 985.55 713.91" style="fill: none;stroke: #2cd4d9;stroke-miterlimit: 10;stroke-width: 2px"/>
      <polygon points="1017.73 732.49 1001.64 741.78 1017.73 751.06 1033.81 741.78 1017.73 732.49" style="fill: none;stroke: #2cd4d9;stroke-miterlimit: 10;stroke-width: 2px"/>
      <polygon points="1162.51 723.2 1178.6 732.49 1194.69 723.2 1178.6 713.91 1162.51 723.2" style="fill: none;stroke: #2cd4d9;stroke-miterlimit: 10;stroke-width: 2px"/>
      <polygon points="1178.6 713.91 1194.69 723.2 1210.78 713.91 1194.69 704.62 1178.6 713.91" style="fill: none;stroke: #2cd4d9;stroke-miterlimit: 10;stroke-width: 2px"/>
      <polygon points="1194.69 704.62 1210.78 713.91 1226.86 704.62 1210.78 695.34 1194.69 704.62" style="fill: none;stroke: #2cd4d9;stroke-miterlimit: 10;stroke-width: 2px"/>
      <polygon points="1275.13 658.18 1291.21 667.47 1307.3 658.18 1291.21 648.89 1275.13 658.18" style="fill: none;stroke: #2cd4d9;stroke-miterlimit: 10;stroke-width: 2px"/>
      <polygon points="1210.78 695.34 1226.86 704.62 1242.95 695.34 1226.86 686.05 1210.78 695.34" style="fill: none;stroke: #2cd4d9;stroke-miterlimit: 10;stroke-width: 2px"/>
      <polygon points="1226.86 686.05 1242.95 695.34 1259.04 686.05 1242.95 676.76 1226.86 686.05" style="fill: none;stroke: #2cd4d9;stroke-miterlimit: 10;stroke-width: 2px"/>
      <polygon points="1259.04 667.47 1275.13 676.76 1291.21 667.47 1275.13 658.18 1259.04 667.47" style="fill: none;stroke: #2cd4d9;stroke-miterlimit: 10;stroke-width: 2px"/>
      <polygon points="1242.95 676.76 1259.04 686.05 1275.13 676.76 1259.04 667.47 1242.95 676.76" style="fill: none;stroke: #2cd4d9;stroke-miterlimit: 10;stroke-width: 2px"/>
      <g>
        <g>
          <path d="M1095.36,499c-17-10.22-40.82-16.59-67.27-16.59-51.44,0-93.14,24.08-93.14,53.79,0,13,11.44,22.18,26.3,29.57,27.61,13.73,42.6,43.56,38.15,74.07a25.61,25.61,0,0,0-.28,3.69c0,45.82,64.31,83,143.64,83s143.64-37.14,143.64-83c0-23.19-16.48-44.16-43-59.21C1217.44,569.66,1111.38,508.69,1095.36,499Z" style="fill: url(#8d7e78c4-1727-4b50-a383-4387f6a8bf15)"/>
          <path d="M1142.76,731.52c-39.23,0-76.19-8.87-104.07-25-28.74-16.6-44.57-39-44.57-63a30.74,30.74,0,0,1,.34-4.41c4.17-28.58-10.06-56.26-35.42-68.87-12.48-6.21-29.08-16.49-29.08-34,0-16.23,10.58-31.27,29.78-42.37,18.34-10.59,42.62-16.43,68.36-16.43,26.54,0,51.34,6.15,69.85,17.31,16.15,9.74,122.06,70.62,147.88,85.26,29.39,16.66,45.57,39.23,45.57,63.56,0,24-15.83,46.39-44.57,63C1218.95,722.65,1182,731.52,1142.76,731.52ZM1028.09,487.44c-24,0-46.51,5.36-63.36,15.08-16,9.23-24.78,21.2-24.78,33.71,0,9.14,7.48,17.11,23.53,25.1,29.24,14.54,45.67,46.4,40.87,79.27a20.86,20.86,0,0,0-.23,3c0,20.3,14.05,39.59,39.57,54.33,26.38,15.24,61.56,23.63,99.07,23.63s72.69-8.39,99.07-23.63c25.52-14.74,39.57-34,39.57-54.33,0-20.58-14.38-40.06-40.5-54.86C1215,574,1109,513.08,1092.78,503.31,1076.05,493.22,1052.47,487.44,1028.09,487.44Z" style="fill: #dfe9f8"/>
          <g>
            <path d="M1240.89,585.37C1215,570.72,1109,509.74,1092.78,500c-16.73-10.08-40.3-15.87-64.69-15.87-24,0-46.51,5.36-63.36,15.08-16,9.23-24.78,21.2-24.78,33.71,0,.51,0,1,.08,1.53.8-11.85,9.49-23.12,24.7-31.9,16.84-9.73,39.34-15.08,63.36-15.08,24.38,0,48,5.78,64.69,15.87C1109,513.08,1215,574,1240.89,588.7c25.42,14.41,39.72,33.24,40.47,53.2,0-.56,0-1.12,0-1.68C1281.39,619.65,1267,600.17,1240.89,585.37Z" style="fill: #5333ed"/>
            <path d="M959,566.94c-12.11-6-28.08-15.88-29-32.48,0,.59,0,1.18,0,1.77,0,17.56,16.59,27.84,29.08,34a65.52,65.52,0,0,1,36.12,57.52A65.62,65.62,0,0,0,959,566.94Z" style="fill: #5333ed"/>
            <path d="M1246.82,703.22c-27.88,16.1-64.84,25-104.07,25s-76.19-8.87-104.07-25-43.6-37.62-44.53-60.8c0,.38,0,.78,0,1.15,0,24,15.83,46.39,44.57,63,27.88,16.1,64.84,25,104.07,25s76.19-8.87,104.07-25c28.74-16.6,44.57-39,44.57-63,0-.55,0-1.11,0-1.66C1290.64,665.29,1274.9,687,1246.82,703.22Z" style="fill: #5333ed"/>
          </g>
        </g>
        <path d="M1068.29,591l-1.9,1.37a4.68,4.68,0,0,0,.31,7.8l5.93,3.58" style="fill: none;stroke: #2ea1bc;stroke-miterlimit: 10;stroke-width: 0.5px"/>
        <path d="M1064.09,591.95a5.55,5.55,0,0,0,.36,9.26" style="fill: none;stroke: #2ea1bc;stroke-miterlimit: 10;stroke-width: 0.5px"/>
        <path d="M1215.7,621.47l1.9,1.37a4.68,4.68,0,0,1-.31,7.8l-5.93,3.58" style="fill: none;stroke: #1ab7b7;stroke-miterlimit: 10;stroke-width: 0.5px"/>
        <path d="M1219.9,622.44a5.55,5.55,0,0,1-.36,9.26" style="fill: none;stroke: #1ab7b7;stroke-miterlimit: 10;stroke-width: 0.5px"/>
        <ellipse cx="1134.88" cy="644.11" rx="6.83" ry="11.83" transform="translate(485.86 1776.2) rotate(-89.75)" style="fill: none;stroke: #1ab7b7;stroke-miterlimit: 10;stroke-width: 0.5px"/>
        <ellipse cx="1134.88" cy="644.11" rx="3.29" ry="5.69" transform="translate(485.86 1776.2) rotate(-89.75)" style="fill: none;stroke: #1ab7b7;stroke-miterlimit: 10;stroke-width: 0.5px"/>
        <g>
          <polygon points="965.39 616.18 938.27 631.84 911.17 616.19 911.17 427.5 965.39 427.49 965.39 616.18" style="fill: #5333ed"/>
          <polygon points="938.27 443.14 911.17 427.5 938.29 411.84 965.39 427.49 938.27 443.14" style="fill: #dfe9f8"/>
          <polygon points="938.27 443.14 938.27 631.84 965.39 616.18 965.39 427.49 938.27 443.14" style="fill: url(#c0ef72e8-0cc2-4dfd-9b16-cf15e021a4c5)"/>
          <polygon points="906.29 582.02 879.18 597.67 852.08 582.03 852.08 456.05 906.29 456.04 906.29 582.02" style="fill: #5333ed"/>
          <polygon points="879.18 471.69 852.08 456.05 879.2 440.39 906.29 456.04 879.18 471.69" style="fill: url(#bed3c846-1814-4c6a-a3c2-e0e9f8cb4971)"/>
          <polygon points="879.18 471.69 879.18 597.67 906.29 582.02 906.29 456.04 879.18 471.69" style="fill: url(#b180992f-f8ee-4b34-9327-dd814bd20b1e)"/>
          <polygon points="848.05 548.43 820.94 564.09 793.84 548.44 793.84 477.62 848.05 477.61 848.05 548.43" style="fill: #5333ed"/>
          <polygon points="820.94 493.27 793.84 477.62 820.96 461.97 848.05 477.61 820.94 493.27" style="fill: url(#51b20b91-f290-4980-aef7-64eab730c2d1)"/>
          <polygon points="820.94 493.27 820.94 564.09 848.05 548.43 848.05 477.61 820.94 493.27" style="fill: url(#b3538ad7-13d9-4909-a1d5-00f535613b49)"/>
          <polygon points="789.93 514.77 762.82 530.42 735.72 514.78 735.72 485.63 789.93 485.62 789.93 514.77" style="fill: #5333ed"/>
          <polygon points="762.82 501.28 735.72 485.63 762.83 469.98 789.93 485.62 762.82 501.28" style="fill: url(#c8ec71b8-8da0-46a8-a175-37bf7d9d3edd)"/>
          <polygon points="762.82 501.28 762.82 530.42 789.93 514.77 789.93 485.62 762.82 501.28" style="fill: url(#28bd7e4c-f5b8-4bf4-9e04-5ea8663f5dc9)"/>
          <path d="M912.59,424.52l4.73-46.9a14.28,14.28,0,0,1,7.19-11h0a4.59,4.59,0,0,1,6.78,3.21l7,40.07" style="fill: none;stroke: #5333ed;stroke-linecap: round;stroke-miterlimit: 10;stroke-width: 3px"/>
          <g>
            <polygon points="938.27 444.07 911.17 428.43 911.17 424.08 1009.36 371.25 1036.46 382.55 1036.46 386.89 938.27 444.07" style="fill: #5333ed"/>
            <polygon points="938.27 439.73 911.17 424.08 1009.36 366.9 1036.46 382.55 938.27 439.73" style="fill: #dfe9f8"/>
            <polygon points="938.27 439.73 938.27 444.07 1036.46 386.89 1036.46 382.55 938.27 439.73" style="fill: #2cd4d9"/>
          </g>
          <path d="M938.27,439l4.73-46.9a14.28,14.28,0,0,1,7.19-11h0a4.59,4.59,0,0,1,6.78,3.21l7,40.07" style="fill: none;stroke: #5333ed;stroke-linecap: round;stroke-miterlimit: 10;stroke-width: 3px"/>
        </g>
        <g>
          <path d="M1109.37,564.48,1070.93,587a8.34,8.34,0,0,0-4.13,7.2v0a4.23,4.23,0,0,0,2.12,3.66L1167,654.22a4.71,4.71,0,0,0,4.73,0l44-25.76a4.23,4.23,0,0,0,2.09-3.65h0a8.34,8.34,0,0,0-4.19-7.23l-92.47-53.12A11.76,11.76,0,0,0,1109.37,564.48Z" style="fill: #a2eded"/>
          <ellipse cx="1122.81" cy="579.62" rx="2.33" ry="1.34" style="fill: #2cd4d9"/>
          <ellipse cx="1105.62" cy="589.62" rx="2.33" ry="1.34" style="fill: #2cd4d9"/>
          <ellipse cx="1152.71" cy="596.8" rx="2.33" ry="1.34" style="fill: #2cd4d9"/>
          <ellipse cx="1135.53" cy="606.8" rx="2.33" ry="1.34" style="fill: #2cd4d9"/>
          <ellipse cx="1184.18" cy="614.92" rx="2.33" ry="1.34" style="fill: #2cd4d9"/>
          <ellipse cx="1166.99" cy="624.92" rx="2.33" ry="1.34" style="fill: #2cd4d9"/>
          <line x1="1149.37" y1="634.07" x2="1162.33" y2="641.53" style="fill: none;stroke: #2cd4d9;stroke-miterlimit: 10;stroke-width: 0.5px"/>
          <line x1="1104.98" y1="608.48" x2="1142.93" y2="630.35" style="fill: none;stroke: #2cd4d9;stroke-miterlimit: 10;stroke-width: 0.5px"/>
          <line x1="1075.58" y1="591.53" x2="1096.65" y2="603.68" style="fill: none;stroke: #2cd4d9;stroke-miterlimit: 10;stroke-width: 0.5px"/>
          <line x1="1203.61" y1="626.52" x2="1212.33" y2="621.45" style="fill: none;stroke: #2cd4d9;stroke-miterlimit: 10;stroke-width: 0.5px"/>
          <line x1="1174.14" y1="643.66" x2="1189.47" y2="634.74" style="fill: none;stroke: #2cd4d9;stroke-miterlimit: 10;stroke-width: 0.5px"/>
          <path d="M1130.64,607.16a8.27,8.27,0,0,1,3.76.58" style="fill: none;stroke: #2cd4d9;stroke-miterlimit: 10;stroke-width: 0.5px"/>
          <path d="M1139.08,606.25a2.68,2.68,0,0,0-1.75,1" style="fill: none;stroke: #2cd4d9;stroke-miterlimit: 10;stroke-width: 0.5px"/>
          <path d="M1148.31,596.41a5.19,5.19,0,0,1,2.56.75" style="fill: none;stroke: #2cd4d9;stroke-miterlimit: 10;stroke-width: 0.5px"/>
          <path d="M1154.64,597.28a3,3,0,0,1,2-1.44" style="fill: none;stroke: #2cd4d9;stroke-miterlimit: 10;stroke-width: 0.5px"/>
        </g>
        <g>
          <path d="M1136.84,655.11c-.28-1.47-.34-2.56-.59-3.5,0,0-.41-2.19-.66-4.37-.1-.89-1.59-1.16-2.13-1.33h0l.5-.45a5.6,5.6,0,0,0-.63,0,9.92,9.92,0,0,0-1.65.51.87.87,0,0,1-.37.38,2,2,0,0,0-.37,2.33,1.21,1.21,0,0,0,.06.21l3,7.08a1.58,1.58,0,0,0,.14.24c.63,1.15,1,1.41,1.77,1.1.26-.11,1.16.18,1.28-.12C1137.62,656.82,1136.94,655.89,1136.84,655.11Z" style="fill: #5b3427"/>
          <polygon points="1133.31 642.15 1131.67 646.04 1135.34 648.04 1138.52 643.03 1133.31 642.15" style="fill: #5b3427"/>
          <ellipse cx="1110.85" cy="578.25" rx="3" ry="1.73" transform="translate(-140.08 518.76) rotate(-24.78)" style="fill: #5b3427"/>
          <polygon points="1113.25 576.59 1108.96 573.63 1103.51 576.14 1108.36 579.78 1113.25 576.59" style="fill: #5b3427"/>
          <path d="M1107,587c3.93-.27,4-6,.07-6.45s-14.78-2.25-12.73-4.27c1.24-1.22,2.93-.69,7.6-2.18,3-1,1.63-2.2-.17-2.27-4.81-.19-13.06-.37-13.78,4.13-1.08,6.75,6.6,9.48,12.34,10.51a22,22,0,0,1,3.43.89,15.43,15.43,0,0,1,1.87.85S1106.64,587,1107,587Z" style="fill: url(#debe0b71-90c9-4484-9e3c-acd876a037b4)"/>
          <path d="M1146.15,567.83c-.17.09,5.48-1.79,5.31-1.71s.05.37-2.26,1.4l-3.5,1.47c-.15.07,3.54.08,3.54.08-.49.8-5,.62-5,.64-4.29,1.25-4.47,0-4.47,0h0c-.4,0,.69-3.18,5.7-3.93.21,0,3.1-1,3.1-1l2.13.12a2.72,2.72,0,0,1-1.94.61l-2.41,1,2.56-.61,2.58-.67c-.3.81-2.64,1.46-2.64,1.46Z" style="fill: #5b3427"/>
          <path d="M1116,578.76c-2.56-3,1.5-7.06,4.55-4.58s11.23,9.18,12.74,6.73c2-3.29,4.15-6.09,5.78-10.71,1.35-3.82,2-2.2,2-2.2a2.33,2.33,0,0,1,1,2.88c-1.33,4.63-1.45,10.67-4.15,14.33-5.86,7.94-19.27-3.64-21.21-5.62Q1116.36,579.17,1116,578.76Z" style="fill: url(#9bc6f9c7-c262-4ded-baa8-35a3ebb358dc)"/>
          <path d="M1105.91,579.89l10.72-6h0a3.21,3.21,0,0,1,1.91-.17,4.3,4.3,0,0,1,1.83.84,17,17,0,0,1,2,1.75c.61.64,15.85,15.78,15.85,15.78s-11.46,11.33-13.66,9.38c-1.47-1.31-26-15.75-23.3-20C1101.88,580.53,1104.37,580.6,1105.91,579.89Z" style="fill: #724c3b"/>
          <ellipse cx="1131.46" cy="595.73" rx="8.7" ry="5.03" transform="translate(-145.51 529) rotate(-24.78)" style="fill: #150773"/>
          <ellipse cx="1136.05" cy="610.24" rx="7.1" ry="4.1" transform="translate(-151.16 532.26) rotate(-24.78)" style="fill: #150773"/>
          <ellipse cx="1148.85" cy="603.09" rx="6.7" ry="3.87" transform="translate(-146.99 536.97) rotate(-24.78)" style="fill: #150773"/>
          <ellipse cx="1149.67" cy="604.05" rx="5.66" ry="3.27" transform="translate(-147.32 537.4) rotate(-24.78)" style="fill: #724c3b"/>
          <ellipse cx="1137.26" cy="611.71" rx="5.66" ry="3.27" transform="translate(-151.67 532.91) rotate(-24.78)" style="fill: #724c3b"/>
          <ellipse cx="1144.69" cy="625.67" rx="4.3" ry="2.48" transform="translate(-156.84 537.31) rotate(-24.78)" style="fill: #724c3b"/>
          <ellipse cx="1189.98" cy="626.84" rx="2.31" ry="1.33" transform="translate(-153.16 556.39) rotate(-24.78)" style="fill: #724c3b"/>
          <ellipse cx="1190.69" cy="616.2" rx="1.15" ry="0.66" transform="translate(-148.64 555.71) rotate(-24.78)" style="fill: #724c3b"/>
          <path d="M1138.56,591l15.26,8.1-5,.84-3.82,2.36-1.38,4.5-2.33-2,1.15,2.21-7.65.3-5,4.63-.16,1.21-3.63-8.08a8,8,0,0,1-2.44-3.45,7.32,7.32,0,0,1-.1-4.56l10-5.67Z" style="fill: #150773"/>
          <path d="M1132.2,614.22l10.26-4.71,6.2,14.48-.25,1.64-9.89,17.4-5.21-.87,7.2-15a2.56,2.56,0,0,0-.43-2.5Z" style="fill: #724c3b"/>
          <ellipse cx="1135.92" cy="642.56" rx="1.54" ry="2.67" transform="translate(392.61 1715.26) rotate(-84.78)" style="fill: #724c3b"/>
          <path d="M1193.73,615.22l-1.24-.11c-.46.05-.48.43-.56.88l-.18.53-2.16,1.35-.59,4.36a.56.56,0,0,1-.85.4L1154.28,601l-6.53,3-2.37,3.36,42.8,20.79,1.5-.54,2.46-1.35c.4-2.08,2.38-9.65,2.38-9.65a1.79,1.79,0,0,0,.13-.58A.77.77,0,0,0,1193.73,615.22Z" style="fill: #724c3b"/>
          <polygon points="1189.49 619.33 1189.62 616.59 1191.77 615.88 1191.47 618.43 1189.83 619.47 1189.49 619.33" style="fill: #724c3b"/>
          <path d="M1106.11,566.37a1.76,1.76,0,0,0-1.92-1,3.69,3.69,0,0,0-2.31,1.72c-1.51,0-1.73,1.78-1.73,1.78s-1.13,0-1.42.88a3.69,3.69,0,0,0,.19,1.94.68.68,0,0,0-.28,1.09,1.05,1.05,0,0,0,.46,1.73s0,.06,0,.09a1.78,1.78,0,1,0,2.93-1.75,1.66,1.66,0,0,0,.23-1.63,2.73,2.73,0,0,0-.16-.3,1,1,0,0,1-.24-1.48c.48-.62,1.55-.18,1.55-.18l0,0a2.16,2.16,0,0,0,1.49,0A2.2,2.2,0,0,0,1106.11,566.37Z" style="fill: #0c022f"/>
          <path d="M1102.2,576.76a1.31,1.31,0,0,1-.41-1.81s0,0,.06,0l-1.13-1a4.21,4.21,0,0,1,5.72-6.16l2.56,2.38c2.3,2.13,1.55,3.76.13,5.29a4.56,4.56,0,0,1-5.24,1.05A1.29,1.29,0,0,1,1102.2,576.76Z" style="fill: #724c3b"/>
          <path d="M1101.84,574.91a8,8,0,0,0,.65-7.19,6,6,0,0,1,3.59-.31,3.82,3.82,0,0,0-4.75-.08c-2.69,1.81-2.3,3.57-2.19,4.74a6.8,6.8,0,0,0,2.44,3.69A1.26,1.26,0,0,1,1101.84,574.91Z" style="fill: #0c022f"/>
          <g>
            <path d="M1150.52,563.62l-8.53,0c1.33,1.54,4,4.27,4,4.27v3a.47.47,0,0,1-.39.46c-1,.16-1.72.67-1.72,1.29s1,1.35,2.33,1.35,2.33-.6,2.33-1.35-.73-1.14-1.72-1.29a.47.47,0,0,1-.39-.46v-3A50.49,50.49,0,0,0,1150.52,563.62Z" style="fill: #dfe9f8"/>
            <ellipse cx="1146.27" cy="562.74" rx="4.53" ry="2.62" style="fill: #dfe9f8"/>
            <path d="M1148.55,565.39h-4.4a9.27,9.27,0,0,0,1.94,2,.61.61,0,0,0,.34,0A10.36,10.36,0,0,0,1148.55,565.39Z" style="fill: #19afaf"/>
            <ellipse cx="1146.35" cy="564.5" rx="2.69" ry="1.56" style="fill: #2cd4d9"/>
            <circle cx="1147.24" cy="564.77" r="0.89" style="fill: #5333ed"/>
            <path d="M1146.27,560.63c2.18,0,4,1,4,2.12s-1.85,2.12-4,2.12-4-1-4-2.12,1.85-2.12,4-2.12m0-.5c-2.5,0-4.53,1.17-4.53,2.62s2,2.62,4.53,2.62,4.53-1.17,4.53-2.62-2-2.62-4.53-2.62Z" style="fill: #bdd2ef"/>
            <line x1="1147.49" y1="564.37" x2="1149.8" y2="559.32" style="fill: none;stroke: #150773;stroke-linecap: round;stroke-miterlimit: 10;stroke-width: 0.5px"/>
          </g>
          <path d="M1141.11,567.1a17.59,17.59,0,0,1,2.85-1.59,24.2,24.2,0,0,1,2.67-.18l1.89.51a1.81,1.81,0,0,1-2,.26l-1.38.48a4.71,4.71,0,0,1-.89,2.13,2.84,2.84,0,0,1-1.38,1h0s-1.27.65-1.77.82C1139.81,571,1139.45,567.84,1141.11,567.1Z" style="fill: #724c3b"/>
        </g>
        <g>
          <path d="M1056.19,634.32c-22.17,0-40.14,10.38-40.14,23.18s18,23.18,40.14,23.18,40.14-10.38,40.14-23.18S1078.36,634.32,1056.19,634.32Zm0,23.11a12.86,12.86,0,0,1-5.86-1.31,13.79,13.79,0,0,1,11.72,0A12.86,12.86,0,0,1,1056.19,657.44Z" style="fill: #dfe9f8"/>
          <g>
            <path d="M1059.33,657.1a13.77,13.77,0,0,1-1.46.25A13.83,13.83,0,0,0,1059.33,657.1Z" style="fill: url(#fef41f7d-3aea-4ab6-9e82-a98d479d0e56)"/>
            <path d="M1051.6,656.68a12.12,12.12,0,0,0,1.37.4A12.17,12.17,0,0,1,1051.6,656.68Z" style="fill: url(#a7a41caf-d6d1-49dd-bd51-7bef4d9e0af8)"/>
            <path d="M1057.77,657.35a14.93,14.93,0,0,1-1.58.09A15,15,0,0,0,1057.77,657.35Z" style="fill: url(#d00c05d8-1374-41d0-a442-da8e73688810)"/>
            <path d="M1060.78,656.68a12.15,12.15,0,0,1-1.37.4A12.11,12.11,0,0,0,1060.78,656.68Z" style="fill: url(#fb0c69b1-b2ac-4334-87b9-580f9cd9a011)"/>
            <path d="M1056.19,657.44a14.93,14.93,0,0,1-1.58-.09A15,15,0,0,0,1056.19,657.44Z" style="fill: url(#4fd8acea-56ba-4af8-b487-c4b872a7b7e4)"/>
            <path d="M1062,656.13a10.17,10.17,0,0,1-1.24.54A10,10,0,0,0,1062,656.13Z" style="fill: url(#37ef67a4-5568-4dff-a699-f20b41bdc517)"/>
            <path d="M1053,657.1a13.83,13.83,0,0,0,1.46.25A13.79,13.79,0,0,1,1053,657.1Z" style="fill: url(#feeba545-db3e-4b3b-8579-13925ef40a2c)"/>
            <path d="M1056.19,647.32c-4.84,0-8.75,2.26-8.75,5.06,0,1.81,1.66,3.4,4.14,4.29a10.13,10.13,0,0,1-1.24-.54,13.79,13.79,0,0,1,11.72,0c1.77-.93,2.9-2.26,2.9-3.75C1064.94,649.59,1061,647.32,1056.19,647.32Z" style="fill: url(#8b7abf49-fd50-4bdb-b893-4935d6b27e0d)"/>
          </g>
          <path d="M1064.21,675c8.64-1,16.27-3.63,21.92-7.28" style="fill: none;stroke: #c3bbff;stroke-miterlimit: 10;stroke-width: 0.5px"/>
          <path d="M1020.51,662.89c6.67,7.45,20.14,12.55,35.68,12.55" style="fill: none;stroke: #c3bbff;stroke-miterlimit: 10;stroke-width: 0.5px"/>
          <path d="M1071.71,650.23s8.1.34,13.52,2.93l-.24,1.37a53.88,53.88,0,0,0-13.59-1.81Z" style="fill: #fff"/>
          <path d="M1086.71,653.77l-.21,1.13a9.78,9.78,0,0,1,2.71,1A4.41,4.41,0,0,0,1086.71,653.77Z" style="fill: #fff"/>
        </g>
        <g>
          <ellipse cx="1013.95" cy="502.54" rx="0.87" ry="0.5" transform="translate(-111.5 384.22) rotate(-20.36)" style="fill: #dfe9f8"/>
          <ellipse cx="1012.41" cy="498.39" rx="0.87" ry="0.5" transform="translate(-110.15 383.42) rotate(-20.36)" style="fill: #dfe9f8"/>
          <rect x="1012.31" y="498.26" width="1.73" height="4.42" transform="translate(-110.83 383.82) rotate(-20.36)" style="fill: #dfe9f8"/>
          <circle cx="1012.11" cy="497.58" r="1.39" transform="translate(-109.89 383.27) rotate(-20.36)" style="fill: #150773"/>
          <path d="M1040.52,529.32c-22.16,0-40.12,10.34-40.14,23.18s18,23.18,40.14,23.18,40.14-10.38,40.14-23.18S1062.69,529.34,1040.52,529.32Zm0,23.11a12.86,12.86,0,0,1-5.86-1.31,13.79,13.79,0,0,1,11.72,0A12.86,12.86,0,0,1,1040.52,552.44Z" style="fill: #5333ed"/>
          <g>
            <path d="M1043.66,552.1a13.77,13.77,0,0,1-1.46.25A13.83,13.83,0,0,0,1043.66,552.1Z" style="fill: url(#d2753c34-dab3-4ae2-a977-45eaf52ef46d)"/>
            <path d="M1035.94,551.68a12.12,12.12,0,0,0,1.37.4A12.17,12.17,0,0,1,1035.94,551.68Z" style="fill: url(#157e8db5-6fa5-451a-92da-9c86d4697790)"/>
            <path d="M1042.1,552.35a14.93,14.93,0,0,1-1.58.09A15,15,0,0,0,1042.1,552.35Z" style="fill: url(#d9f02847-b03e-462a-8f2f-257569dd9c95)"/>
            <path d="M1045.11,551.68a12.15,12.15,0,0,1-1.37.4A12.11,12.11,0,0,0,1045.11,551.68Z" style="fill: url(#3bf510e5-ed81-4273-9888-05e46ca54c28)"/>
            <path d="M1040.52,552.44a14.93,14.93,0,0,1-1.58-.09A15,15,0,0,0,1040.52,552.44Z" style="fill: url(#0b6a3f9a-4937-4104-9ced-8b34f3106b0e)"/>
            <path d="M1046.38,551.13a10.17,10.17,0,0,1-1.24.54A10,10,0,0,0,1046.38,551.13Z" style="fill: url(#47803d7f-200d-4645-9d16-97881a263cb9)"/>
            <path d="M1037.38,552.1a13.83,13.83,0,0,0,1.46.25A13.79,13.79,0,0,1,1037.38,552.1Z" style="fill: url(#e606ddee-d962-48eb-b9b9-be4fd5b1777b)"/>
            <path d="M1040.52,542.32c-4.84,0-8.75,2.26-8.75,5.06,0,1.81,1.66,3.4,4.14,4.29a10.13,10.13,0,0,1-1.24-.54,13.79,13.79,0,0,1,11.72,0c1.77-.93,2.9-2.26,2.9-3.75C1049.28,544.59,1045.36,542.32,1040.52,542.32Z" style="fill: url(#23c23649-7f00-45b2-8704-e6e3e00f5d53)"/>
          </g>
          <path d="M1048.55,570c8.64-1,16.27-3.63,21.92-7.28" style="fill: none;stroke: #150773;stroke-miterlimit: 10;stroke-width: 0.5px"/>
          <path d="M1027,569.09a67,67,0,0,0,13.51,1.35" style="fill: none;stroke: #150773;stroke-miterlimit: 10;stroke-width: 0.5px"/>
          <path d="M1058.38,543s8.1.34,13.52,2.93l-.24,1.37a53.88,53.88,0,0,0-13.59-1.81Z" style="fill: #c3bbff"/>
          <path d="M1073.38,546.52l-.21,1.13a9.78,9.78,0,0,1,2.71,1A4.41,4.41,0,0,0,1073.38,546.52Z" style="fill: #c3bbff"/>
          <path d="M1029.87,505a11.83,11.83,0,0,0-11.92-5.47c-6.31,1-15,4.33-19.16,15.06-4.7,12.21,3.74,17.77,11.7,16.48-11.2,24.9,1.13,37.4,1.13,37.4,22.5-2.5,21.5-18.33,21.5-18.33-3-4.5-2.5-8.67.5-24.83A28.34,28.34,0,0,0,1029.87,505Z" style="fill: #5333ed"/>
          <path d="M1010.49,531.08s10-2,14.38-9.44l-.5,2.92a20.76,20.76,0,0,1-14.44,7.85Z" style="fill: #150773"/>
          <path d="M1007.46,539.35s-2.42,9.38-1.92,14.88c0,0-2.71-5-.14-13A15.89,15.89,0,0,1,1007.46,539.35Z" style="fill: #150773"/>
          <path d="M1034.29,529.56s-2.67,10.83-1.92,15.58l.75,5s-3.35-3.09-1.5-13.75l1.17-6.83Z" style="fill: #150773"/>
          <path d="M1023.56,516.88c.82,1.28-.16,3.44-2.19,4.82s-4.33,1.46-5.15.18.15-3.43,2.17-4.81S1022.74,515.6,1023.56,516.88Z" style="fill: #dfe9f8"/>
          <path d="M1022.46,518.24a3,3,0,0,1-2.69,3.14,2.81,2.81,0,0,1-2.68-3,3,3,0,0,1,2.68-3.14A2.8,2.8,0,0,1,1022.46,518.24Z" style="fill: #5333ed"/>
          <path d="M1017.24,520.42a8.47,8.47,0,0,1,2.34-1.47c.75-.12-.34,2.81-.34,2.81Z" style="fill: #dfe9f8"/>
          <ellipse cx="1023.55" cy="502.54" rx="0.5" ry="0.87" transform="translate(196.26 1287.27) rotate(-69.64)" style="fill: #dfe9f8"/>
          <ellipse cx="1025.09" cy="498.39" rx="0.5" ry="0.87" transform="translate(201.15 1286.01) rotate(-69.64)" style="fill: #dfe9f8"/>
          <rect x="1022.11" y="499.6" width="4.42" height="1.73" transform="translate(198.71 1286.64) rotate(-69.64)" style="fill: #dfe9f8"/>
          <circle cx="1025.39" cy="497.58" r="1.39" transform="translate(202.11 1285.76) rotate(-69.64)" style="fill: #150773"/>
        </g>
        <g>
          <polygon points="1188.76 534.58 1174.31 542.93 1165.36 537.71 1165.36 537.05 1179.81 528.71 1188.76 533.9 1188.76 534.58" style="fill: #43414e"/>
          <polygon points="1188.76 533.9 1174.31 542.24 1165.36 537.05 1179.81 528.71 1188.76 533.9" style="fill: #6e7075"/>
          <polygon points="1179.84 517.1 1179.84 528.7 1165.36 537.06 1165.36 525.46 1179.84 517.1" style="fill: #43414e"/>
          <g>
            <g>
              <polygon points="1165.67 527.22 1165.67 525.75 1167.88 524.49 1167.88 525.99 1165.67 527.26 1165.67 527.22" style="fill: #120667"/>
              <polygon points="1167.88 525.99 1167.88 526.97 1165.67 528.24 1165.67 527.26 1167.88 525.99" style="fill: #2cd4d9"/>
            </g>
            <polygon points="1165.67 528.24 1167.88 526.97 1167.88 535.15 1165.67 536.41 1165.67 528.24" style="fill: #120667"/>
            <polygon points="1167.88 524.49 1174.78 520.52 1179.6 517.74 1179.6 519.2 1179.6 519.25 1167.88 525.99 1167.88 524.49" style="fill: #fff"/>
            <polygon points="1167.88 525.99 1179.6 519.25 1179.59 528.4 1174.78 531.18 1167.88 535.15 1167.88 525.99" style="fill: #dfe9f8"/>
            <polygon points="1167.36 525.42 1167.36 525.68 1166.13 526.39 1166.13 526.13 1167.36 525.42" style="fill: #2cd4d9"/>
          </g>
          <polygon points="1183.9 535.98 1178.58 539.05 1175.29 537.14 1180.61 534.07 1183.9 535.98" style="fill: #888a8e"/>
          <polygon points="1180.34 533.87 1175.02 536.94 1174.19 536.46 1179.51 533.39 1180.34 533.87" style="fill: #43414e"/>
          <polygon points="1179.96 533.13 1180.7 532.7 1181.53 533.18 1180.79 533.61 1179.96 533.13" style="fill: #43414e"/>
          <polygon points="1181.33 531.1 1182.38 530.5 1183.22 530.98 1182.16 531.58 1181.33 531.1" style="fill: #43414e"/>
          <polygon points="1179.16 529.85 1180.21 529.25 1181.04 529.73 1179.99 530.33 1179.16 529.85" style="fill: #43414e"/>
          <polygon points="1168.82 538.28 1170.31 537.43 1171.14 537.91 1169.66 538.76 1168.82 538.28" style="fill: #43414e"/>
          <polygon points="1167.77 537.64 1169.7 536.55 1170.53 537.03 1168.6 538.12 1167.77 537.64" style="fill: #43414e"/>
          <polygon points="1166.68 537.05 1168.17 536.2 1169 536.68 1167.51 537.53 1166.68 537.05" style="fill: #43414e"/>
          <polygon points="1181.92 532.01 1182.66 531.58 1183.49 532.06 1182.75 532.49 1181.92 532.01" style="fill: #43414e"/>
          <polygon points="1180.93 532.58 1181.67 532.15 1182.51 532.63 1181.77 533.05 1180.93 532.58" style="fill: #43414e"/>
          <polygon points="1176.41 533.9 1177.16 533.48 1177.99 533.96 1177.25 534.38 1176.41 533.9" style="fill: #43414e"/>
          <polygon points="1180.34 531.65 1181.08 531.22 1181.92 531.7 1181.17 532.13 1180.34 531.65" style="fill: #43414e"/>
          <polygon points="1179.36 532.21 1180.1 531.78 1180.93 532.26 1180.19 532.69 1179.36 532.21" style="fill: #43414e"/>
          <polygon points="1178.37 532.79 1179.11 532.36 1179.94 532.84 1179.2 533.26 1178.37 532.79" style="fill: #43414e"/>
          <polygon points="1177.39 533.35 1178.13 532.92 1178.96 533.4 1178.22 533.83 1177.39 533.35" style="fill: #43414e"/>
          <polygon points="1171.53 536.73 1172.27 536.31 1173.1 536.78 1172.36 537.21 1171.53 536.73" style="fill: #43414e"/>
          <polygon points="1170.56 537.3 1171.3 536.87 1172.13 537.35 1171.39 537.77 1170.56 537.3" style="fill: #43414e"/>
          <polygon points="1175.46 534.48 1176.2 534.05 1177.03 534.53 1176.29 534.95 1175.46 534.48" style="fill: #43414e"/>
          <polygon points="1174.48 535.04 1175.22 534.61 1176.05 535.09 1175.31 535.52 1174.48 535.04" style="fill: #43414e"/>
          <polygon points="1173.49 535.61 1174.23 535.19 1175.06 535.66 1174.32 536.09 1173.49 535.61" style="fill: #43414e"/>
          <polygon points="1172.5 536.18 1173.24 535.75 1174.08 536.23 1173.34 536.66 1172.5 536.18" style="fill: #43414e"/>
          <polygon points="1175.83 533.02 1176.57 532.59 1177.4 533.07 1176.66 533.5 1175.83 533.02" style="fill: #43414e"/>
          <polygon points="1179.76 530.76 1180.5 530.33 1181.33 530.81 1180.59 531.24 1179.76 530.76" style="fill: #43414e"/>
          <polygon points="1178.78 531.33 1179.52 530.9 1180.35 531.38 1179.61 531.8 1178.78 531.33" style="fill: #43414e"/>
          <polygon points="1177.79 531.9 1178.53 531.47 1179.36 531.95 1178.62 532.38 1177.79 531.9" style="fill: #43414e"/>
          <polygon points="1176.8 532.46 1177.55 532.04 1178.38 532.51 1177.64 532.94 1176.8 532.46" style="fill: #43414e"/>
          <polygon points="1170.95 535.85 1171.69 535.42 1172.52 535.9 1171.78 536.32 1170.95 535.85" style="fill: #43414e"/>
          <polygon points="1169.98 536.41 1170.72 535.98 1171.55 536.46 1170.81 536.88 1169.98 536.41" style="fill: #43414e"/>
          <polygon points="1174.88 533.59 1175.62 533.16 1176.45 533.64 1175.71 534.06 1174.88 533.59" style="fill: #43414e"/>
          <polygon points="1173.89 534.15 1174.63 533.73 1175.46 534.2 1174.72 534.63 1173.89 534.15" style="fill: #43414e"/>
          <polygon points="1172.9 534.73 1173.64 534.3 1174.48 534.78 1173.74 535.2 1172.9 534.73" style="fill: #43414e"/>
          <polygon points="1171.92 535.29 1172.66 534.86 1173.49 535.34 1172.75 535.77 1171.92 535.29" style="fill: #43414e"/>
          <polygon points="1174.25 532.67 1174.99 532.25 1175.83 532.72 1175.09 533.15 1174.25 532.67" style="fill: #43414e"/>
          <polygon points="1178.18 530.41 1178.92 529.99 1179.75 530.47 1179.01 530.89 1178.18 530.41" style="fill: #43414e"/>
          <polygon points="1177.2 530.98 1177.94 530.55 1178.77 531.03 1178.03 531.46 1177.2 530.98" style="fill: #43414e"/>
          <polygon points="1176.21 531.55 1176.95 531.13 1177.78 531.6 1177.04 532.03 1176.21 531.55" style="fill: #43414e"/>
          <polygon points="1175.23 532.12 1175.97 531.69 1176.8 532.17 1176.06 532.6 1175.23 532.12" style="fill: #43414e"/>
          <polygon points="1169.37 535.5 1170.11 535.07 1170.94 535.55 1170.2 535.98 1169.37 535.5" style="fill: #43414e"/>
          <polygon points="1168.4 536.06 1169.14 535.63 1169.97 536.12 1169.23 536.54 1168.4 536.06" style="fill: #43414e"/>
          <polygon points="1173.3 533.24 1174.04 532.82 1174.87 533.29 1174.13 533.72 1173.3 533.24" style="fill: #43414e"/>
          <polygon points="1172.31 533.81 1173.06 533.38 1173.89 533.86 1173.15 534.29 1172.31 533.81" style="fill: #43414e"/>
          <polygon points="1171.32 534.38 1172.07 533.95 1172.9 534.43 1172.16 534.86 1171.32 534.38" style="fill: #43414e"/>
          <polygon points="1170.34 534.95 1171.08 534.52 1171.91 535 1171.17 535.43 1170.34 534.95" style="fill: #43414e"/>
          <polygon points="1173.19 537.03 1173.94 536.6 1174.77 537.08 1174.03 537.51 1173.19 537.03" style="fill: #43414e"/>
          <polygon points="1172.21 537.6 1172.95 537.17 1173.79 537.65 1173.05 538.08 1172.21 537.6" style="fill: #43414e"/>
          <polygon points="1171.22 538.17 1171.96 537.74 1172.8 538.22 1172.06 538.65 1171.22 538.17" style="fill: #43414e"/>
          <polygon points="1170.24 538.74 1170.98 538.31 1171.81 538.79 1171.07 539.22 1170.24 538.74" style="fill: #43414e"/>
        </g>
        <path d="M1067.13,682.31s20.67-2,27.67-14.33" style="fill: none;stroke: #1ab7b7;stroke-miterlimit: 10;stroke-width: 0.5px"/>
        <path d="M1077,682.81s6.33-1.67,9.33-3.5" style="fill: none;stroke: #1ab7b7;stroke-miterlimit: 10;stroke-width: 0.5px"/>
        <polygon points="781.27 654.73 754.17 639.08 852.36 581.9 879.46 597.54 781.27 654.73" style="fill: url(#e35cd187-7c98-4a5a-8873-1bfc1d152dab)"/>
        <polygon points="809.55 706.12 782.46 690.48 911.15 616.17 938.25 631.82 809.55 706.12" style="fill: url(#e90145fb-1169-48c2-9d1f-ef326344d6ff)"/>
        <polygon points="753.52 603.48 726.42 587.83 793.78 548.41 820.88 564.06 753.52 603.48" style="fill: url(#94f483fb-c1c8-4ef4-8e4f-0dbb57834c03)"/>
        <polygon points="724.71 552.48 697.61 536.83 735.7 514.79 762.79 530.43 724.71 552.48" style="fill: url(#ef956f13-fb79-4531-9c41-200055eb2bd0)"/>
        <g>
          <polygon points="978.84 750.87 1038.45 716.44 933.08 655.08 873.47 689.51 978.84 750.87" style="fill: #150773"/>
          <polygon points="883.63 695.38 943.24 660.95 941.28 659.82 881.67 694.24 883.63 695.38" style="fill: #5333ed"/>
          <polygon points="968.23 744.69 1027.85 710.27 1025.89 709.13 966.27 743.55 968.23 744.69" style="fill: #5333ed"/>
        </g>
        <path d="M1029.66,577.27s17.7,4.43,31-2.72" style="fill: none;stroke: #1f96aa;stroke-miterlimit: 10;stroke-width: 0.5px"/>
        <path d="M1038.56,581.48s7.31.75,10.94-.56" style="fill: none;stroke: #1f96aa;stroke-miterlimit: 10;stroke-width: 0.5px"/>
      </g>
    </g>
  </g>
</svg>
