<svg xmlns="http://www.w3.org/2000/svg" xmlns:xlink="http://www.w3.org/1999/xlink" width="180" height="220" viewBox="0 0 180 220">
  <defs>
    <linearGradient id="f2037760-6120-4008-b8a7-86c93bd7d418" x1="100.98" y1="92.41" x2="100.98" y2="88.98" gradientUnits="userSpaceOnUse">
      <stop offset="0" stop-color="#5333ed"/>
      <stop offset="1" stop-color="#2cd4d9"/>
    </linearGradient>
    <linearGradient id="3b77112d-43ff-42f5-a1b8-76d21653ca8f" x1="101.04" y1="91.65" x2="101.04" y2="93.1" xlink:href="#f2037760-6120-4008-b8a7-86c93bd7d418"/>
  </defs>
  <title>careers-apply-4</title>
  <g style="isolation: isolate">
    <g id="8e047b9d-e42c-4323-8aa6-3fc8e45fee54" data-name="figures and interactions">
      <g>
        <path d="M54.68,172v-2.57a2.79,2.79,0,0,1,1.68-2.56l.78-.34a3.43,3.43,0,0,1,3.7.63,65.88,65.88,0,0,1,5.68,6.16c.92,1.11,1.55,2,2.09,2.6a1.83,1.83,0,0,1-.46,2.82l-.66.37a1.83,1.83,0,0,1-1.82,0l-10.33-6A1.31,1.31,0,0,1,54.68,172Z" style="fill: #5333ed"/>
        <path d="M68.22,177.5a1.83,1.83,0,0,1-.89,1.23l-.66.37a1.83,1.83,0,0,1-1.82,0l-9.91-5.72" style="fill: none;stroke: #000;stroke-linecap: round;stroke-miterlimit: 10"/>
        <line x1="69.14" y1="177.67" x2="67.01" y2="178.91" style="fill: none;stroke: #000;stroke-linecap: round;stroke-miterlimit: 10"/>
        <path d="M55.37,160.9l5.21-2,.06,7.4h0c.21.79-.5,1.9-1.74,2.62s-2.84.79-3.3,0a1,1,0,0,1-.12-.53h0Z" style="fill: #ffc398"/>
        <ellipse cx="59.5" cy="168.48" rx="2.32" ry="1.34" transform="translate(-76.27 52.32) rotate(-30)" style="fill: #5333ed"/>
        <path d="M62,167.93a3.28,3.28,0,0,0-1.7.48A3.34,3.34,0,0,0,59,169.57" style="fill: none;stroke: #120667;stroke-linecap: round;stroke-miterlimit: 10"/>
        <path d="M63.19,169.48a3.16,3.16,0,0,0-1.64.46,3.32,3.32,0,0,0-1.11,1" style="fill: none;stroke: #120667;stroke-linecap: round;stroke-miterlimit: 10"/>
        <path d="M64.56,171.05a2.94,2.94,0,0,0-1.52.43,3,3,0,0,0-1.07,1" style="fill: none;stroke: #120667;stroke-linecap: round;stroke-miterlimit: 10"/>
        <path d="M44.19,178.33v-2.57a2.79,2.79,0,0,1,1.68-2.56l.78-.34a3.43,3.43,0,0,1,3.7.63A65.88,65.88,0,0,1,56,179.65c.92,1.11,1.55,2,2.09,2.6a1.83,1.83,0,0,1-.46,2.82l-.66.37a1.83,1.83,0,0,1-1.82,0l-10.33-6A1.31,1.31,0,0,1,44.19,178.33Z" style="fill: #5333ed"/>
        <path d="M57.73,183.84a1.83,1.83,0,0,1-.89,1.23l-.66.37a1.83,1.83,0,0,1-1.82,0l-9.91-5.72" style="fill: none;stroke: #000;stroke-linecap: round;stroke-miterlimit: 10"/>
        <line x1="58.66" y1="184.01" x2="56.52" y2="185.25" style="fill: none;stroke: #000;stroke-linecap: round;stroke-miterlimit: 10"/>
        <path d="M44.88,167.24l5.21-2,.06,7.4h0c.21.79-.5,1.9-1.74,2.62s-2.84.79-3.3,0a1,1,0,0,1-.12-.53h0Z" style="fill: #ffc398"/>
        <path d="M54.6,162.84l-.08-1.38c-.1-1,.75-2.39,2.21-3.34,1.78-1.17,3.77-1.28,4.45-.25a1.52,1.52,0,0,1,.19,1.06l0,0,.07,1.32h0a4.24,4.24,0,0,1-2.21,3.27c-1.78,1.17-3.77,1.28-4.45.25a1.35,1.35,0,0,1-.19-.48h0v-.15A1.69,1.69,0,0,1,54.6,162.84Z" style="fill: #dfe9f8"/>
        <path d="M44,168.33h0c-.09-1,.75-2.38,2.21-3.33,1.78-1.17,3.77-1.28,4.45-.25a1.45,1.45,0,0,1,.22.87h0L51,167h0c.11,1-.74,2.4-2.2,3.36-1.78,1.17-3.77,1.28-4.45.25a1.39,1.39,0,0,1-.2-.64h0Z" style="fill: #dfe9f8"/>
        <path d="M43.93,142.25c-.29-6,.27-19.78.35-22.08C44.42,116.43,46.1,102,46.1,102c1-4.39.65-6.43,5.2-9.41,6-4,12-3.68,15.06-.85,1.8,1.67-1.72,22.22-2.72,40.27-.82,14.8-2.7,22.75-2.91,25.71.59.89-.19,2.44-1.74,3.45s-3.28,1.11-3.86.22a1.18,1.18,0,0,1-.16-.44h0v-.08a1.53,1.53,0,0,1,0-.36c0-3-.26-19.84-.16-26.14s1.39-16,1.64-17.89a197.27,197.27,0,0,0-3.3,21.92v.15a2.51,2.51,0,0,1,0,.46c-.9,11.77-3.28,22.89-2.74,25.81h0c.29.91-.47,2.25-1.87,3.17-1.55,1-3.28,1.11-3.86.22a1.23,1.23,0,0,1-.18-.65h0S44.22,148.26,43.93,142.25Z" style="fill: #120667"/>
        <path d="M51.53,53.67a7.3,7.3,0,0,0,7.3,7.3c4,0,8.36-3,7.32-6.89-.36-1.36-.13-3.12-.95-4-1.77-1.85-3.64-3.75-6.38-3.75A7.3,7.3,0,0,0,51.53,53.67Z" style="fill: #0c022f"/>
        <ellipse cx="49.01" cy="174.82" rx="2.32" ry="1.34" transform="translate(-80.84 47.93) rotate(-30)" style="fill: #5333ed"/>
        <path d="M51.47,174.28a3.28,3.28,0,0,0-1.7.48,3.34,3.34,0,0,0-1.23,1.16" style="fill: none;stroke: #120667;stroke-linecap: round;stroke-miterlimit: 10"/>
        <path d="M52.7,175.82a3.16,3.16,0,0,0-1.64.46,3.32,3.32,0,0,0-1.11,1" style="fill: none;stroke: #120667;stroke-linecap: round;stroke-miterlimit: 10"/>
        <path d="M54.07,177.39a2.94,2.94,0,0,0-1.52.43,3,3,0,0,0-1.07,1" style="fill: none;stroke: #120667;stroke-linecap: round;stroke-miterlimit: 10"/>
        <path d="M65.62,59.68a15.8,15.8,0,0,0-3.16.71c-3.68,1.36-9.07,4.26-12.39,5.83a18.75,18.75,0,0,0-6.21,4.65v0l-.17.23s-2.83,6.37,2.81,14.1l1,2a5.07,5.07,0,0,1,.43,2.57c.05.78-.44,6.94.28,6.14l.95-3.21L66.37,88.9s-.28-6.91-.18-7.49c.57-3.38,6.2-12.25,6.2-12.25A7.16,7.16,0,0,0,65.62,59.68Z" style="fill: #2cd4d9"/>
        <path d="M48.33,97c1.15,2.12,6.53,2.37,11.75.34,7.55-2.94,6.58-6.25,6.22-10.38C66,83.69,59,84,54.17,86.8S46.78,94.11,48.33,97Z" style="fill: #2cd4d9"/>
        <ellipse cx="58.09" cy="67.46" rx="2.77" ry="4.79" transform="translate(-30.54 75.78) rotate(-54.63)" style="fill: none;stroke: #5333ed;stroke-linecap: round;stroke-miterlimit: 10"/>
        <path d="M54.41,67.1l0-8,7.44,0V70C61.79,72.39,55.5,70.26,54.41,67.1Z" style="fill: #eba87c"/>
        <path d="M53.86,65.78a5.58,5.58,0,0,0,2.62,3.93c2.16,1.53,4.62,1.76,5.51.52A1.8,1.8,0,0,0,62.37,69" style="fill: none;stroke: #5333ed;stroke-linecap: round;stroke-miterlimit: 10"/>
        <path d="M54.38,61.69A6,6,0,0,0,59.15,65a7.44,7.44,0,0,0,2.66-.11V60.23l-7.44,0Z" style="fill: #ffc398;opacity: 0.5;mix-blend-mode: multiply"/>
        <path d="M52.14,57.58a1.74,1.74,0,0,1,1.59-1.88s.05,0,.09,0l.21-2a5.59,5.59,0,0,1,11.11,1.16l-.48,4.63c-.43,4.14-2.75,4.65-5.51,4.36a6.06,6.06,0,0,1-5.3-4.73A1.71,1.71,0,0,1,52.14,57.58Z" style="fill: #ffc398"/>
        <path d="M54.6,56.6a2.15,2.15,0,0,0-.85-1l-.58-5.58,7-3.05,5.53,4.51-.52,4.25s-.9-3.82-3.7-5.52A57.94,57.94,0,0,1,54.6,56.6Z" style="fill: #0c022f"/>
        <path d="M133.06,54.21s.26,10.42,3.16,15.55c3.83,6.77.15,7.69.15,7.69l-16.15-9.87L118.7,56.72a8.68,8.68,0,0,1-.57-5.62L122.8,50Z" style="fill: #5333ed"/>
        <path d="M137.78,178.42l-.16,2.09a51.16,51.16,0,0,0,1.2,9.4,2.52,2.52,0,0,0,2.05,1.92,2.37,2.37,0,0,0,2.88-1.83,74.93,74.93,0,0,0,.54-9s-.12-1.63-.28-2.74Z" style="fill: #0c022f"/>
        <path d="M142.74,175.12l-.23-.19a2.52,2.52,0,0,0-2.76-.27l-.68.36c-1.1.57-1.38,3.23-1.29,4.46.14,1.93.3,3.5.74,6.44a28.79,28.79,0,0,0,.7,3.5,2.25,2.25,0,0,0,2.13,1.73c1.25,0,2-.69,2.12-2.51,0,0,.54-5.57.58-8.6C144.07,178.36,144,176.18,142.74,175.12Z" style="fill: #5333ed"/>
        <polygon points="128.27 170.83 126.72 149.66 120.62 149.66 124.09 170.34 123.81 173.84 128.27 170.83" style="fill: #ffc398"/>
        <path d="M116.81,177.6a10.84,10.84,0,0,1,4.52-3.38l6.18-2h0c1.11-.4,2.15-.3,2.52.34s-.21,1.9-1.41,2.68a1.54,1.54,0,0,1-.22.17l-8.55,5a2,2,0,0,1-.33.14c-1.53.69-3,.61-3.56-.27C115.57,179.5,115.94,178.48,116.81,177.6Z" style="fill: #0c022f"/>
        <path d="M116.83,176.92a17.35,17.35,0,0,1,4.46-3.34l6.09-2h0c1.09-.4,2.12-.29,2.48.34s-.2,1.87-1.39,2.64a1.52,1.52,0,0,1-.22.16l-8.44,4.89a2,2,0,0,1-.32.13c-1.51.68-3,.6-3.51-.26C115.61,178.79,116,177.79,116.83,176.92Z" style="fill: #5333ed"/>
        <ellipse cx="126.32" cy="172.39" rx="2.9" ry="1.68" transform="translate(-69.27 86.25) rotate(-30)" style="fill: #ffc398"/>
        <path d="M125.19,174.95a14.71,14.71,0,0,0,1.2-2.08.69.69,0,0,0-.27-.87l-1.11-.7a1.49,1.49,0,0,0-1.86.22,38.21,38.21,0,0,1-3.58,3.09Z" style="fill: #5333ed"/>
        <path d="M129.88,171.92a6,6,0,0,0-1-1.94,7.2,7.2,0,0,0-.64-.48v1a2.7,2.7,0,0,1-.64,3.07l.18.51,1.54-1Z" style="fill: #5333ed"/>
        <path d="M142.77,177.63l-1.38-21.81-6.07.63,3.3,20.7,0,1.19a1.63,1.63,0,0,0,2.22,1.48l.87-.34A1.68,1.68,0,0,0,142.77,177.63Z" style="fill: #ffc398"/>
        <path d="M144.05,137.61c-1.78-6.39-6.09-29.16-6.09-29.16a52.57,52.57,0,0,0-5.16-14.59s-2.27,6.08-8.6,3.55c-7.38-3-7.89-9.16-7.89-9.16-1,1.8-2.27,8-2.92,13.15a92.23,92.23,0,0,0-.68,13.71c.2,8.11.38,22.53-.59,30-.6,2.64,2,6.4,6.29,8.89,4.81,2.78,9.94,2.91,11.45.3a3.53,3.53,0,0,0,.32-2.45l-.46-7.65L132,156s.11.24.29.61c.64,2.51,3.07,5.38,6.64,7.44,5.15,3,10.48,1.66,12.13-1.11C152.35,160.82,144.7,140,144.05,137.61Z" style="fill: #5333ed"/>
        <path d="M129.83,144.41l-5.65-32-1.71-1.08,4,31a30.43,30.43,0,0,1,.24,4.66l-.33,9.15s3.12,0,3.87-2.7C130.34,153,129.83,144.41,129.83,144.41Z" style="fill: #5333ed;mix-blend-mode: multiply"/>
        <path d="M133.18,93.14c-.64-2.19-2.82-4.35-5.62-6a13.94,13.94,0,0,0-6.76-2h0c-2.17,0-3.81.74-4.58,2.1a5.57,5.57,0,0,0-.44,1.71,6.07,6.07,0,0,0,.9,3.3,15.1,15.1,0,0,0,11.88,6.87h0c2.17,0,3.79-.75,4.58-2.11a3.64,3.64,0,0,0,.43-1.72h0S133.33,93.68,133.18,93.14Z" style="fill: #5333ed"/>
        <path d="M111.63,79.42c-5.45,16.07-18.21,17.48-18.21,17.48l2.11,3c16-1.69,21.93-13,24.11-21.75C121.1,72.32,112.29,77.47,111.63,79.42Z" style="fill: #ffc398"/>
        <path d="M115.17,63.8a3.21,3.21,0,0,0-.32,1.11c-.52,3-1,10.42-3.18,14.18l5.3,3.54a56.2,56.2,0,0,0,5-8.23Z" style="fill: #0c022f"/>
        <path d="M111.51,79.91a3.81,3.81,0,0,1,.77.13,8.57,8.57,0,0,1,4,2.67,6.53,6.53,0,0,1,.47.85l-.22.4a1.33,1.33,0,0,0,.72-.45,9.66,9.66,0,0,0,.89-1.47.52.52,0,0,0,0-.45c-.22-.5-.14-1-1.87-2.07a11.23,11.23,0,0,0-3.86-1.6.43.43,0,0,0-.46.23l-.83,1.66a.49.49,0,0,0,.12.52Z" style="fill: #2cd4d9"/>
        <path d="M134.18,69l-13.32-7.68h0a2.54,2.54,0,0,0-1.81-.28,5.75,5.75,0,0,0-3.49,2,3,3,0,0,0-.57,2l1,23.24c-.23,2.55,2.09,5.87,5.87,8.06,4.52,2.61,9.4,2.61,10.91,0a3.43,3.43,0,0,0,.44-1.74l-.08-5.44,3.19-17C136.55,71.16,135.68,69.82,134.18,69Z" style="fill: #0c022f"/>
        <g>
          <ellipse cx="125.83" cy="67.15" rx="3.68" ry="2.13" transform="translate(-16.72 71.91) rotate(-30)" style="fill: #eba87c"/>
          <ellipse cx="125.83" cy="61.95" rx="3.68" ry="2.13" transform="translate(-14.12 71.21) rotate(-30)" style="fill: #eba87c"/>
          <polygon points="122.47 68.28 122.47 63.2 129.19 60.85 129.19 65.89 122.47 68.28" style="fill: #eba87c"/>
          <ellipse cx="125.83" cy="67.15" rx="3.68" ry="2.13" transform="translate(-16.72 71.91) rotate(-30)" style="fill: #eba87c"/>
          <path d="M129.19,56.72l-6.72,2.35v5.08h0a1.35,1.35,0,0,0,.16.72c.59,1,2.49,1,4.25,0,1.46-.84,2.34-2.11,2.28-3.1h0Z" style="fill: #ffc398;opacity: 0.5;mix-blend-mode: multiply"/>
          <path d="M129.17,63.64c.06,1-.82,2.26-2.28,3.1-1.76,1-3.66,1-4.25,0a1.34,1.34,0,0,1-.16-.68h0v2.21a1.36,1.36,0,0,0,.17.72c.59,1,2.49,1,4.25,0,1.46-.84,2.36-2.11,2.29-3.1V63.63Z" style="fill: #2cd4d9"/>
          <path d="M118.28,62.31c.59,1.95,3.79,2.71,7.17,1.69A7.35,7.35,0,0,0,130,60.22c.13-.27-.28-.29-.23-.56s.75-1,.75-1c-.59-1.95-3.79-2.71-7.17-1.69S117.7,60.36,118.28,62.31Z" style="fill: #ffc398"/>
          <path d="M132.24,51.85l-12-2.83s-3.06,7.76-2,13.09l11.53-2.53Z" style="fill: #ffc398"/>
          <path d="M130.28,60.51l1.29-3.76a2.27,2.27,0,0,0,.88-.54c1.39-1.47.44-4.62-2.11-7s-5.75-3.16-7.14-1.68l0,0a4.2,4.2,0,0,0-2.24.1c-1.53.46-2.61,2.65-2.8,3.4-.08.34.42,2.74.66,2.7A8.89,8.89,0,0,1,120.53,52a7.72,7.72,0,0,1,2.44-.9,21.62,21.62,0,0,0,2.19,4,15.18,15.18,0,0,0,4,3.49Z" style="fill: #5333ed"/>
          <path d="M131.76,58.54a3.3,3.3,0,0,1-1.7,2.45c-.86.41-1.49,0-1.42-1a3.3,3.3,0,0,1,1.7-2.45C131.2,57.16,131.83,57.6,131.76,58.54Z" style="fill: #ffc398"/>
        </g>
        <path d="M139.69,92a32.78,32.78,0,0,0,1.42-12.74,10,10,0,0,0-.37-1.89,14.13,14.13,0,0,0-5-7.21l-.33-.26a1.28,1.28,0,0,0-2.11.23c-3.14,7.12,1.28,12.87-1.72,17.2Z" style="fill: #0c022f"/>
        <path d="M139,180.66l-.23-2.2a1,1,0,0,1,.71-1.08l.4-.12a3.3,3.3,0,0,1,1.24-.14l.55,0a1,1,0,0,1,.94,1l0,2.38Z" style="fill: #5333ed"/>
        <path d="M139.23,93a13.78,13.78,0,0,0,1.11-1.7c.75-1.37-.58-3.54-3-4.83s-4.92-1.23-5.66.14a10.83,10.83,0,0,1-1,1.55h0a1.6,1.6,0,0,0-.11.14c-.75,1.37.58,3.54,3,4.83S138.48,94.34,139.23,93Z" style="fill: #2cd4d9"/>
        <g>
          <polyline points="89.6 91.53 112.46 91.53 112.46 104.69 101.01 111.25 89.6 104.59 89.6 91.53" style="fill: #120667"/>
          <polygon points="89.6 91.53 101.01 98.14 112.46 91.53 101.01 84.88 89.6 91.53" style="fill: #5333ed"/>
          <polygon points="89.6 91.53 101.01 98.14 101.01 111.25 89.6 104.59 89.6 91.53" style="fill: #5333ed"/>
          <polygon points="94.59 88.62 106.02 95.24 107.78 94.2 96.4 87.57 94.59 88.62" style="fill: #2cd4d9"/>
          <polygon points="107.46 88.59 96.04 95.21 94.27 94.17 105.66 87.54 107.46 88.59" style="fill: #2cd4d9"/>
          <polygon points="112.45 99.62 101 106.25 101 104.2 112.45 97.53 112.45 99.62" style="fill: #2cd4d9"/>
          <polygon points="106.05 108.36 106.02 95.24 107.78 94.2 107.78 107.37 106.05 108.36" style="fill: #2cd4d9"/>
          <polygon points="89.61 99.6 101 106.26 101 104.2 89.61 97.5 89.61 99.6" style="fill: #2cd4d9"/>
          <polygon points="96.02 108.34 96.04 95.21 94.28 94.17 94.28 107.34 96.02 108.34" style="fill: #2cd4d9"/>
          <g>
            <path id="d6df6779-62bf-4fe0-883b-b345125ea838" data-name="&lt;Path&gt;" d="M100.77,90.45a2.49,2.49,0,0,0-.28-.68,3.14,3.14,0,0,0-.83-.95.36.36,0,0,0-.57.32,3.12,3.12,0,0,0,1.54,2.35l.21.12A7.77,7.77,0,0,0,100.77,90.45Z" style="fill: #2cd4d9"/>
            <path id="cee1fa70-5a5b-4db4-9779-ab2ae5c00ff6" data-name="&lt;Path&gt;" d="M101.19,90.45a2.49,2.49,0,0,1,.28-.68,3.14,3.14,0,0,1,.83-.95.36.36,0,0,1,.57.32,3.12,3.12,0,0,1-1.54,2.35l-.21.12A7.77,7.77,0,0,1,101.19,90.45Z" style="fill: #2cd4d9"/>
            <path id="c33c4cee-97ec-4622-a204-c346162a0979" data-name="&lt;Path&gt;" d="M103.39,91.21a4,4,0,0,0,.95-1.52.36.36,0,0,0-.45-.45,3.83,3.83,0,0,0-2.08,1.68h0l-.33.47h0a3.91,3.91,0,0,0-.15-3.11.36.36,0,0,0-.64,0,3.91,3.91,0,0,0-.15,3.1h0l-.33-.45h0a3.83,3.83,0,0,0-2.08-1.68.36.36,0,0,0-.45.45,3.92,3.92,0,0,0,2.73,2.53l.29.07h.05l.29,0,.29,0h.05l.29-.07A3.94,3.94,0,0,0,103.39,91.21Z" style="fill: url(#f2037760-6120-4008-b8a7-86c93bd7d418)"/>
            <path id="395f3057-3e73-4202-ad31-a7dd44b5b201" data-name="&lt;Path&gt;" d="M99.07,91.09a2.49,2.49,0,0,0-.68-.28,3.14,3.14,0,0,0-1.25-.07.36.36,0,0,0-.17.63,3.12,3.12,0,0,0,2.76.54l.23-.07A7.77,7.77,0,0,0,99.07,91.09Z" style="fill: #2cd4d9"/>
            <path id="e3c16ac5-1f42-4546-b138-a4d86cd72b20" data-name="&lt;Path&gt;" d="M102.72,91.09a2.49,2.49,0,0,1,.68-.28,3.14,3.14,0,0,1,1.25-.07.36.36,0,0,1,.17.63,3.12,3.12,0,0,1-2.76.54l-.23-.07A7.77,7.77,0,0,1,102.72,91.09Z" style="fill: #2cd4d9"/>
            <path id="1711c3e0-5143-476b-9869-9dac86a3ab59" data-name="&lt;Path&gt;" d="M102.75,91.82a2.88,2.88,0,0,0-.68.09h0l-.41.07h0c.3-.14-1.53-.14-1.23,0h0L100,91.9h0a2.8,2.8,0,0,0-1.75.12.35.35,0,0,0,0,.65,2.88,2.88,0,0,0,2.53-.19l.19-.11,0,0h0l0,0,0,0h0l0,0,.19.11a2.88,2.88,0,0,0,2.53.19.35.35,0,0,0,0-.65A2.9,2.9,0,0,0,102.75,91.82Z" style="fill: url(#3b77112d-43ff-42f5-a1b8-76d21653ca8f)"/>
          </g>
        </g>
        <path d="M116.1,100.13c2.88-.76,7-1.75,10.88-4.87S131.4,90,131.4,90a2,2,0,0,1,1.75-.84c1.17.09,3.88,1,4.84,3s-2,5-2,5a18.81,18.81,0,0,1-13.26,6.75c-8.42.43-11.69.63-11.69.63s-.5,1.25-.62,1.63c0,.08-.11.63-.28.71a6.67,6.67,0,0,0-.71.19c-.11.08,0,.41-.28.56s-.4-.06-.53,0-.13.41-.25.49-.45,0-.58.07a.91.91,0,0,1-.68.42,4.35,4.35,0,0,1-1.17-.2l1-.56s1-4.37,1.68-5.19a6,6,0,0,1,2.66-1.72C112.2,100.66,114.54,100.54,116.1,100.13Z" style="fill: #ffc398"/>
        <path d="M109.59,101.75s-1.92,1.63-2.89,2.54a4.5,4.5,0,0,0-1.29,2.23,4.65,4.65,0,0,0,1.44-1l1.67-.52C109.07,104.8,110.78,102.75,109.59,101.75Z" style="fill: #ffc398"/>
        <path d="M55.12,100.55S44.85,108.63,38,103.38C32.77,99.45,35.79,89.68,36.54,87s4.8-13.1,7.59-16.57,6,9.49,3.29,12.82-5,9.88-5,10.17A3.67,3.67,0,0,0,43.25,97a4.1,4.1,0,0,0,2.84,1.16,8.27,8.27,0,0,0,5.33-1.87s1.33-1.23,3.62,1.61A1.88,1.88,0,0,1,55.12,100.55Z" style="fill: #2cd4d9"/>
        <path d="M87.62,84.92s-6.81,11.14-15.1,8.63c-6.23-1.89-6.81-12.09-7-14.89s1-13.74,1.34-18.17c.1-1.17,8,1,6.23,10.64-.76,4.23.11,11.21.21,11.49a3.67,3.67,0,0,0,2,3.14,4.1,4.1,0,0,0,3.07.1,8.27,8.27,0,0,0,4.34-3.61s.82-1.62,4,.25A1.88,1.88,0,0,1,87.62,84.92Z" style="fill: #2cd4d9"/>
        <path d="M59.34,89S56.19,92.32,56,92.55c0,0-.88.86-1,.83l.85-1.32a3.29,3.29,0,0,0,1.28-2l-1.65,1.13c-1.37,1-2.67,3.67-3.43,5.41a2.6,2.6,0,0,0,.53,2.88h0a2.59,2.59,0,0,0,3.35.29,15.46,15.46,0,0,0,3.7-3.71l1.89-1.55a2.57,2.57,0,0,0,1.86-1l-1.94,0-2.63,1.68,2.47-2.67a3.35,3.35,0,0,0,2.07-2.46l-2.48,1.4-2.26,2,1.95-2.31a3.09,3.09,0,0,0,2.41-1.83l-3,1-2.33,2.16,2.61-3s1.45-.63,1.43-1.84Z" style="fill: #ffc398"/>
        <g>
          <path d="M91.08,75.8l1.81-1.43c.15,1-1.08,1.85-1.08,1.85l-1.47,2.22A13.63,13.63,0,0,1,87,83.82l-3-2.56s2.14-4.83,2.24-5.08,1.62-3.59,1.62-3.59l1.62-2.13a3.41,3.41,0,0,1-.72,2.45L87.62,75.8l1.55-2.53,2.28-2a3.85,3.85,0,0,1-1.5,2.58l-1.17,2.56,1.53-2.37L92,71.82a3.18,3.18,0,0,1-.91,2.69l-1.73,3.43Z" style="fill: #eba87c"/>
          <path d="M84.38,76.54l1-2a2,2,0,0,1,.22,2l.28,1.25a6.78,6.78,0,0,1,2.27,3.42,1.87,1.87,0,0,1,.11.6,2.55,2.55,0,0,1-1,2l-.61.5c-1.09.89-2.89-.21-2.92-1.62A61,61,0,0,1,84.38,76.54Z" style="fill: #ffc398"/>
        </g>
      </g>
    </g>
  </g>
</svg>
