<svg xmlns="http://www.w3.org/2000/svg" width="180" height="220" viewBox="0 0 180 220">
  <title>careers-apply-3</title>
  <g style="isolation: isolate">
    <g id="8c43f488-45db-4e5c-a6a3-ec29fbeb2f34" data-name="figures and interactions">
      <g>
        <path d="M126.23,72.54s-15.17,24.06-6.35,32.13a5.28,5.28,0,0,0,5.19.81,7.24,7.24,0,0,0,4.08-4s.08-1.73-.81-2.15S126.4,97.19,124,98a19.35,19.35,0,0,1,1.88-6.65A24.31,24.31,0,0,1,131,84.81L126.8,72.33Z" style="fill: #2cd4d9"/>
        <path d="M143.92,177.46v-2.57a2.79,2.79,0,0,0-1.68-2.56l-.78-.34a3.43,3.43,0,0,0-3.7.63,65.88,65.88,0,0,0-5.68,6.16c-.92,1.11-1.55,2-2.09,2.6a1.83,1.83,0,0,0,.46,2.82l.66.37a1.83,1.83,0,0,0,1.82,0l10.33-6A1.31,1.31,0,0,0,143.92,177.46Z" style="fill: #5333ed"/>
        <path d="M130.39,183a1.83,1.83,0,0,0,.89,1.23l.66.37a1.83,1.83,0,0,0,1.82,0l9.91-5.72" style="fill: none;stroke: #000;stroke-linecap: round;stroke-miterlimit: 10"/>
        <line x1="129.46" y1="183.14" x2="131.59" y2="184.37" style="fill: none;stroke: #000;stroke-linecap: round;stroke-miterlimit: 10"/>
        <path d="M141.75,166.12l-5.21-2,1.42,7.65h0c-.21.79.5,1.9,1.74,2.62s2.84.79,3.3,0a1,1,0,0,0,.12-.53h0Z" style="fill: #ffc398"/>
        <path d="M142.79,167.65h0c-.05-1-1.08-2.25-2.65-3-1.93-.91-3.92-.74-4.44.38a1.45,1.45,0,0,0-.1.89h0l.12,1.42h0c0,1,1.07,2.27,2.66,3,1.93.91,3.92.74,4.44-.38a1.39,1.39,0,0,0,.11-.66h0Z" style="fill: #dfe9f8"/>
        <ellipse cx="139.1" cy="173.94" rx="1.34" ry="2.32" transform="translate(-81.09 207.44) rotate(-60)" style="fill: #5333ed"/>
        <path d="M136.64,173.4a3.28,3.28,0,0,1,1.7.48,3.34,3.34,0,0,1,1.23,1.16" style="fill: none;stroke: #120667;stroke-linecap: round;stroke-miterlimit: 10"/>
        <path d="M135.41,174.94a3.16,3.16,0,0,1,1.64.46,3.32,3.32,0,0,1,1.11,1" style="fill: none;stroke: #120667;stroke-linecap: round;stroke-miterlimit: 10"/>
        <path d="M134,176.52a2.94,2.94,0,0,1,1.52.43,3,3,0,0,1,1.07,1" style="fill: none;stroke: #120667;stroke-linecap: round;stroke-miterlimit: 10"/>
        <path d="M154.34,184.13v-2.57a2.79,2.79,0,0,0-1.68-2.56l-.78-.34a3.43,3.43,0,0,0-3.7.63,65.88,65.88,0,0,0-5.68,6.16c-.92,1.11-1.55,2-2.09,2.6a1.83,1.83,0,0,0,.46,2.82l.66.37a1.83,1.83,0,0,0,1.82,0l10.33-6A1.31,1.31,0,0,0,154.34,184.13Z" style="fill: #5333ed"/>
        <path d="M140.8,189.64a1.83,1.83,0,0,0,.89,1.23l.66.37a1.83,1.83,0,0,0,1.82,0l9.91-5.72" style="fill: none;stroke: #000;stroke-linecap: round;stroke-miterlimit: 10"/>
        <line x1="139.87" y1="189.81" x2="142.01" y2="191.04" style="fill: none;stroke: #000;stroke-linecap: round;stroke-miterlimit: 10"/>
        <path d="M152.17,172.79l-5.21-2,1.42,7.65h0c-.21.79.5,1.9,1.74,2.62s2.84.79,3.3,0a1,1,0,0,0,.12-.53h0Z" style="fill: #ffc398"/>
        <path d="M153.21,174.31h0c-.05-1-1.08-2.25-2.65-3-1.93-.91-3.92-.74-4.44.38a1.45,1.45,0,0,0-.1.89h0l.12,1.42h0c0,1,1.07,2.27,2.66,3,1.93.91,3.92.74,4.44-.38a1.39,1.39,0,0,0,.11-.66h0Z" style="fill: #dfe9f8"/>
        <path d="M148.79,149.72c.19-6,3.69-20.54,4-22.82,1.44-11.47,1.05-13.15-.18-17.65-1.19-4.35-1.62-6-5.33-8.44-6-4-12-3.68-15.06-.85-1.8,1.67-4.11,21.46-3.11,39.51a66.54,66.54,0,0,0,7.06,25.81,4,4,0,0,0,1.93,2.61c1.55,1,3.28,1.11,3.86.22a1.18,1.18,0,0,0,.16-.44h0v-.08a1.53,1.53,0,0,0,0-.36c0-3-4.17-17.18-4.27-23.48s2.5-22.25,2.5-22.25-1.55,14.13-.75,24.37V146a2.51,2.51,0,0,0,0,.46c.9,11.77,7,25.49,7,25.72a4,4,0,0,0,1.91,2.52c1.55,1,3.28,1.11,3.86.22a1.23,1.23,0,0,0,.18-.65h0S148.63,154.79,148.79,149.72Z" style="fill: #120667"/>
        <ellipse cx="149.52" cy="180.61" rx="1.34" ry="2.32" transform="translate(-81.66 219.79) rotate(-60)" style="fill: #5333ed"/>
        <path d="M147.06,180.07a3.28,3.28,0,0,1,1.7.48,3.34,3.34,0,0,1,1.23,1.16" style="fill: none;stroke: #120667;stroke-linecap: round;stroke-miterlimit: 10"/>
        <path d="M145.83,181.61a3.16,3.16,0,0,1,1.64.46,3.32,3.32,0,0,1,1.11,1" style="fill: none;stroke: #120667;stroke-linecap: round;stroke-miterlimit: 10"/>
        <path d="M144.46,183.19a2.94,2.94,0,0,1,1.52.43,3,3,0,0,1,1.07,1" style="fill: none;stroke: #120667;stroke-linecap: round;stroke-miterlimit: 10"/>
        <path d="M132.93,67.91a15.8,15.8,0,0,1,3.16.71c3.68,1.36,9.07,4.26,12.39,5.83a18.75,18.75,0,0,1,6.21,4.65v0l.17.23s2.83,6.37-2.81,14.1l-1,2a5.07,5.07,0,0,0-.43,2.57c-.05.78,1.38,6.06.66,5.25l-1.89-2.32-16.56-1.71s-.38-9-.48-9.54c-.57-3.38-6.2-12.25-6.2-12.25A7.16,7.16,0,0,1,132.93,67.91Z" style="fill: #2cd4d9"/>
        <path d="M151.06,105.19c-1.15,2.12-6.53,2.37-11.75.34-7.55-2.94-6.58-6.25-6.22-10.38.28-3.23,7.27-2.92,12.12-.12S152.61,102.34,151.06,105.19Z" style="fill: #2cd4d9"/>
        <ellipse cx="140.46" cy="75.69" rx="4.79" ry="2.77" transform="translate(-17.89 95.28) rotate(-35.37)" style="fill: none;stroke: #5333ed;stroke-linecap: round;stroke-miterlimit: 10"/>
        <g>
          <path d="M36.29,178.42l.16,2.09a51.16,51.16,0,0,1-1.2,9.4,2.52,2.52,0,0,1-2.05,1.92A2.37,2.37,0,0,1,30.32,190a74.93,74.93,0,0,1-.54-9s.12-1.63.28-2.74Z" style="fill: #0c022f"/>
          <path d="M31.34,175.12l.23-.19a2.52,2.52,0,0,1,2.76-.27L35,175c1.1.57,1.38,3.23,1.29,4.46-.14,1.93-.3,3.5-.74,6.44a28.79,28.79,0,0,1-.7,3.5,2.25,2.25,0,0,1-2.13,1.73c-1.25,0-2-.69-2.12-2.51,0,0-.54-5.57-.58-8.6C30,178.36,30,176.18,31.34,175.12Z" style="fill: #5333ed"/>
          <polygon points="45.81 170.83 47.36 149.66 53.46 149.66 49.98 170.34 50.27 173.84 45.81 170.83" style="fill: #ffc398"/>
          <path d="M57.27,177.6a10.84,10.84,0,0,0-4.52-3.38l-6.18-2h0c-1.11-.4-2.15-.3-2.52.34s.21,1.9,1.41,2.68a1.54,1.54,0,0,0,.22.17l8.55,5a2,2,0,0,0,.33.14c1.53.69,3,.61,3.56-.27C58.5,179.5,58.13,178.48,57.27,177.6Z" style="fill: #0c022f"/>
          <path d="M57.25,176.92a17.35,17.35,0,0,0-4.46-3.34l-6.09-2h0c-1.09-.4-2.12-.29-2.48.34s.2,1.87,1.39,2.64a1.52,1.52,0,0,0,.22.16l8.44,4.89a2,2,0,0,0,.32.13c1.51.68,3,.6,3.51-.26C58.46,178.79,58.1,177.79,57.25,176.92Z" style="fill: #5333ed"/>
          <ellipse cx="47.76" cy="172.39" rx="1.68" ry="2.9" transform="translate(-125.41 127.55) rotate(-60)" style="fill: #ffc398"/>
          <path d="M48.88,174.95a14.71,14.71,0,0,1-1.2-2.08A.69.69,0,0,1,48,172l1.11-.7a1.49,1.49,0,0,1,1.86.22,38.21,38.21,0,0,0,3.58,3.09Z" style="fill: #5333ed"/>
          <path d="M44.2,171.92a6,6,0,0,1,1-1.94,7.2,7.2,0,0,1,.64-.48v1a2.7,2.7,0,0,0,.64,3.07l-.18.51-1.54-1Z" style="fill: #5333ed"/>
          <path d="M31.3,177.63l1.38-21.81,6.07.63-3.3,20.7,0,1.19a1.63,1.63,0,0,1-2.22,1.48l-.87-.34A1.68,1.68,0,0,1,31.3,177.63Z" style="fill: #ffc398"/>
          <path d="M30,137.61c1.78-6.39,6.09-29.16,6.09-29.16a52.57,52.57,0,0,1,5.16-14.59s2.27,6.08,8.6,3.55c7.38-3,7.89-9.16,7.89-9.16,1,1.8,2.27,8,2.92,13.15a92.23,92.23,0,0,1,.68,13.71c-.2,8.11-.38,22.53.59,30,.6,2.64-2,6.4-6.29,8.89-4.81,2.78-9.94,2.91-11.45.3a3.53,3.53,0,0,1-.32-2.45l.46-7.65L42,156s-.11.24-.29.61c-.64,2.51-3.07,5.38-6.64,7.44C30,167,24.64,165.68,23,162.91,21.73,160.82,29.37,140,30,137.61Z" style="fill: #5333ed"/>
          <path d="M35.09,180.66l.23-2.2a1,1,0,0,0-.71-1.08l-.4-.12a3.3,3.3,0,0,0-1.24-.14l-.55,0a1,1,0,0,0-.94,1l0,2.38Z" style="fill: #5333ed"/>
          <g style="mix-blend-mode: multiply">
            <path d="M51.19,101.58l-13.85,1.84a37.53,37.53,0,0,0-1.27,5.27S31.76,131.46,30,137.85c-.23.84-1.37,4.08-2.68,8,3,3.55,9.34,4.27,16.3,2.19l.61-3.12.1,0c-.1,1.76-.33,5.75-.51,7.6a3.46,3.46,0,0,0,0,.94c.75,2.7,3.87,2.7,3.87,2.7L47.39,147c0-.11,0-.23,0-.34.68-.3,3.82-1.42,4.5-1.77,0,0-1.59-7.79-1.59-7.79a29.82,29.82,0,0,1-.53-4l2.31-29.31Z" style="fill: #5333ed;mix-blend-mode: multiply"/>
            <path d="M60.64,101.63c-.28-2.24-.67-4.67-1.11-6.85l-1.95,3.43c.13,2.74-.55,12.61-1.28,22-.38,4.84-.77,9.58-1.07,13.17a84,84,0,0,0-.05,9.2v.06l.07-.12a28.8,28.8,0,0,0,6-6.41c-.22-7.11-.1-15.37,0-20.81A92.19,92.19,0,0,0,60.64,101.63Z" style="fill: #5333ed;mix-blend-mode: multiply"/>
          </g>
          <path d="M64.92,123.8v0L63.05,89.65l-.5-2.56-4.1,7.21c.13,2.74-.55,12.61-1.28,22-.38,4.84-.77,9.58-1.07,13.17a84,84,0,0,0-.05,9.2v.06l.07-.12C61.87,134.09,65.22,128.42,64.92,123.8Z" style="fill: #dfe9f8"/>
          <path d="M50,116.53l.87-11.74,1-6.35L34,100.8,26.5,135.6h0a8.4,8.4,0,0,0,.75,6c3.2,5.54,13.2,5.82,22.86.86l.13-.07-.79-4.14a29.81,29.81,0,0,1-.52-8.13Z" style="fill: #dfe9f8"/>
          <path d="M67.05,81.36A105.67,105.67,0,0,1,63.92,70.6a10.72,10.72,0,0,0-.59-1.83,14.13,14.13,0,0,0-5.77-6.58L57.21,62a1.3,1.3,0,0,0-2.07.47c-1.26,3-2.07,10.64,4.22,22.07Z" style="fill: #0c022f"/>
          <path d="M67.84,82.1a33.9,33.9,0,0,1,1.38,4.12c-.31.81-1.62,0-2.56.65a13.62,13.62,0,0,1-4.25,1.35,16.88,16.88,0,0,1-1.15-1.3c-.76-1,.24-3,2-4.29S67.08,81.08,67.84,82.1Z" style="fill: #ffc398"/>
          <path d="M41.27,52.55s-.52,12.08-3.42,17.21c-3.83,6.77-.15,7.69-.15,7.69l16.15-9.87,1.52-10.87s1.5-1.17,1.32-4.41L51.27,50Z" style="fill: #5333ed"/>
          <path d="M40.9,93.14c.64-2.19,2.82-4.35,5.62-6a13.94,13.94,0,0,1,6.76-2h0c2.17,0,3.81.74,4.58,2.1A5.57,5.57,0,0,1,58.3,89a6.07,6.07,0,0,1-.9,3.3,13.91,13.91,0,0,1-5.12,4.87,13.94,13.94,0,0,1-6.76,2h0c-2.17,0-3.79-.75-4.58-2.11a3.64,3.64,0,0,1-.43-1.72h0S40.74,93.68,40.9,93.14Z" style="fill: #5333ed"/>
          <path d="M39.89,69l13.32-7.68h0A2.54,2.54,0,0,1,55,61a5.75,5.75,0,0,1,3.49,2,3,3,0,0,1,.57,2l-1,23.24c.23,2.55-2.09,5.87-5.87,8.06-4.52,2.61-9.4,2.61-10.91,0a3.43,3.43,0,0,1-.44-1.74l.08-5.44-3.19-17C37.52,71.16,38.4,69.82,39.89,69Z" style="fill: #0c022f"/>
          <path d="M39.36,80.64c-3.26,7.15-3.91,9.94-5.06,12.6-4,9.25,12.09,5.89,12.09,5.89s.86,3.77.75,3.71C17.24,112.1,26,89.33,32,77.71,34,73.9,40.37,78.42,39.36,80.64Z" style="fill: #ffc398"/>
          <path d="M34.93,90.36a105.67,105.67,0,0,1,5.76-9.62,10.72,10.72,0,0,0,.94-1.68,14.13,14.13,0,0,0,.9-8.7l-.08-.41a1.3,1.3,0,0,0-1.75-1.2c-3,1.1-9.2,5.73-13.3,18.11Z" style="fill: #0c022f"/>
          <path d="M34.92,91.44a12.52,12.52,0,0,1-.63,1.8,7.9,7.9,0,0,1-3.67.59,14.86,14.86,0,0,1-4.06-2.27s.23-1,.35-1.65c.23-1.25,2.34-1.85,4.51-1.45S35.16,90.19,34.92,91.44Z" style="fill: #ffc398"/>
          <path d="M45,99.66s-.91,2.62.52,3.66l.9-.26v1.23s-14,5.64-19.84-1.89,4.71-26,6-27.53c1.5-1.8,4-5.31,8.25-7.48A46.3,46.3,0,0,0,44.89,65v1.13s-.56.87-.25,1.3a35.71,35.71,0,0,1,6.21,18.76l-.59.34,0,7.81S48.08,95.49,45,99.66Z" style="fill: #dfe9f8"/>
          <path d="M45.6,98.85s-7.46,2.08-11.21-1S35.15,87,35.83,86.62s1.16.85.73,1.61a11.68,11.68,0,0,0-2.11,5.33c-.19,2.72.84,4.65,6.15,5,4.51.26,6.42-1.32,6.42-1.32Z" style="fill: #dfe9f8;mix-blend-mode: multiply"/>
          <path d="M41.69,66.9a18.71,18.71,0,0,0-1.22,5.64h3l-1.81,6.53s8,9.25,9.14,16l-.49.39V94.32l-1,.8s-3-10.25-9-14.92l2.08-6.83-3.29.25s.79-4.55,1.71-6.23Z" style="fill: #dfe9f8;mix-blend-mode: multiply"/>
          <path d="M50.3,142.55l0-.11-.13.07Z" style="fill: #dfe9f8"/>
          <path d="M50.81,63.87a46,46,0,0,1,7.33,19.58l9.37-1.83s-3.33-12.37-4.46-14.33S57,57.74,49.35,61.74Z" style="fill: #dfe9f8"/>
          <path d="M60.91,68.51l7.7,16a7.4,7.4,0,0,1,.77,4,2.8,2.8,0,0,1-.64,1.76c-1,.9-4.5,1.21-6.7-2.73s-3.36-16.81-3.36-16.81Z" style="fill: #ffc398"/>
          <path d="M62.74,68.62a3.92,3.92,0,0,0-1.13-.71,4.51,4.51,0,0,0-3.46.21l.9-3-6.31-1.78-.58.7,5.7,1.39-1.91,4s.22,1,.41,1.91,2.39,11.43,3,13.17l8.17-2.89S64.71,72.05,62.74,68.62Z" style="fill: #dfe9f8;mix-blend-mode: multiply"/>
          <g>
            <ellipse cx="48.25" cy="67.15" rx="2.13" ry="3.68" transform="translate(-34.03 75.36) rotate(-60)" style="fill: #eba87c"/>
            <ellipse cx="48.25" cy="61.95" rx="2.13" ry="3.68" transform="translate(-29.52 72.76) rotate(-60)" style="fill: #eba87c"/>
            <polygon points="51.61 68.28 51.61 63.2 44.89 60.85 44.89 65.89 51.61 68.28" style="fill: #eba87c"/>
            <ellipse cx="48.25" cy="67.15" rx="2.13" ry="3.68" transform="translate(-34.03 75.36) rotate(-60)" style="fill: #eba87c"/>
            <path d="M44.89,56.72l6.72,2.35v5.08h0a1.35,1.35,0,0,1-.16.72c-.59,1-2.49,1-4.25,0-1.46-.84-2.34-2.11-2.28-3.1h0Z" style="fill: #ffc398;opacity: 0.5;mix-blend-mode: multiply"/>
            <path d="M44.9,63.64c-.06,1,.82,2.26,2.28,3.1,1.76,1,3.66,1,4.25,0a1.34,1.34,0,0,0,.16-.68h0v2.21a1.36,1.36,0,0,1-.17.72c-.59,1-2.49,1-4.25,0-1.46-.84-2.36-2.11-2.29-3.1V63.63Z" style="fill: #2cd4d9"/>
            <path d="M54.11,62.91v0c2.15-5,1-13,1-13H42.78l.47,6c-.72-.52-1.4-.24-1.53.68a3.3,3.3,0,0,0,1.09,2.78,1.38,1.38,0,0,0,.58.29,7.43,7.43,0,0,0,3.22,3.7c3,1.76,6.35,1.76,7.36,0,0-.06.06-.12.09-.19h0Z" style="fill: #ffc398"/>
            <path d="M42.31,54.77a2.27,2.27,0,0,1-.74-.73c-1-1.75.63-4.6,3.67-6.35s6.32-1.75,7.33,0l0,.05a4.2,4.2,0,0,1,2.16.61c1.39.8,1.93,3.18,1.94,4,0,.35-1,2.57-1.26,2.47a8.89,8.89,0,0,0-1.29-2.08A7.72,7.72,0,0,0,52,51.26a21.62,21.62,0,0,1-3.06,3.44,15.18,15.18,0,0,1-4.69,2.48Z" style="fill: #5333ed"/>
          </g>
          <g>
            <path d="M53.83,66.11l-.65.65-.11-.05.12-.91,3.22-6.53c.13-.26.77.06.64.32Z" style="fill: #120667"/>
            <path d="M55.28,61.45s.12.45.72.35l.22.11-1.39,2.82" style="fill: none;stroke: #2cd4d9;stroke-linecap: round;stroke-linejoin: round;stroke-width: 0.301853452246316px"/>
            <path d="M56.92,59.42c-.07.08-.3,0-.29-.13l.36-.74c.06-.11.34,0,.29.14Z" style="fill: #2cd4d9"/>
          </g>
          <path d="M55,61.77a38.66,38.66,0,0,1,4.55,3.06,9.83,9.83,0,0,1,1.94,4.48,1.85,1.85,0,0,1-.72,1.82h0c-.8.59-1.91.57-2.26-.36-.67-1.82-4-3.68-4-3.68s-.34.33-1.31-.23l1.36-.59,2,1L54,65.36s-.76.39-1.2,0l1.24-1,2.38,1.31-1.94-1.9a.82.82,0,0,1-1,.33l.75-1.3,2.94,1.74-2.24-1.67s-.57.65-1.11.13Z" style="fill: #ffc398"/>
          <path d="M68,81.41c-1.75-3-6.37-13.5-6.37-13.5A2.19,2.19,0,0,1,60,70.2a3.68,3.68,0,0,1-3.09.06c.19.82,2.75,13.56,2.75,13.56,1.75,5.92,3.85,7,6.46,7.5a2.93,2.93,0,0,0,3.46-1.79C70.52,86.78,69.73,84.45,68,81.41Z" style="fill: #dfe9f8"/>
          <path d="M54.39,85.2,59,82.45V81.35a.73.73,0,0,0-1.1-.64l-2.13,1.22a2.79,2.79,0,0,0-1.4,2.42Z" style="fill: #5333ed"/>
          <polygon points="62.11 79.68 50.26 86.52 50.23 105.09 62.09 98.35 62.11 79.68" style="fill: #120667"/>
          <path d="M54.78,92.26S51,94.86,50.77,95l-.49.39V94.32c-2,1-5.29,5.34-5.29,5.34l2,3.2a16.56,16.56,0,0,0,6.5-3.59l2.17-1.12a2.57,2.57,0,0,0,2-.54l-1.9-.38-2.93,1.08,3-2.08a3.35,3.35,0,0,0,2.54-2l-2.72.84-2.64,1.47,2.39-1.84a3.09,3.09,0,0,0,2.74-1.27l-3.17.3-2.74,1.62L55.47,93s1.55-.31,1.79-1.5Z" style="fill: #ffc398"/>
          <path d="M47.13,102.84l.06,2.4s-8.75,3.25-14.54,1.58l.25-.83s2.29.75,7.38,0a49.48,49.48,0,0,0,6.14-1.7v-1.23Z" style="fill: #dfe9f8;mix-blend-mode: multiply"/>
        </g>
        <g>
          <polygon points="135.39 93.31 131.59 93.2 129.62 96.43 131.43 99.78 131.43 99.78 135.2 99.88 137.2 96.67 135.39 93.31" style="fill: #5333ed"/>
          <polygon points="129.62 96.43 133.39 96.53 135.39 93.31 131.59 93.2 129.62 96.43" style="fill: #2cd4d9"/>
          <path d="M134.38,93.23h-.24l-.57.92-1.2,0,.57-.93h-.24l-.57.93-1.09,0-.13.2,1.09,0-.63,1-1.08,0-.13.2,1.09,0-.57.93.56,1-1.09,0,.11.21,1.09,0,.54,1-1.09,0,.11.21,1.08,0,.49.91h.24l-.49-.91,1.19,0,.49.91h.24l-.5-.91,1.11,0-.12-.2-1.1,0-.55-1,1.11,0-.12-.2-1.1,0-.56-1,.58-.94,1.1,0,.12-.19-1.1,0,.63-1,1.09,0,.12-.19-1.09,0Zm-1,5.51-1.19,0-.55-1,1.19,0Zm-1.21-2.24.56,1-1.2,0-.56-1,.57-.93,1.2,0Zm.7-1.13-1.2,0,.63-1,1.2,0Z" style="fill: #120667"/>
          <polygon points="133.4 96.54 135.2 99.88 137.2 96.67 135.39 93.32 133.4 96.54" style="fill: #120667"/>
        </g>
        <ellipse cx="145.38" cy="108.6" rx="3.33" ry="1.93" transform="translate(-34.61 131.72) rotate(-44.08)" style="fill: none;stroke: #5333ed;stroke-linecap: round;stroke-miterlimit: 10"/>
        <path d="M154.46,79.44s-2.56,6.81-1.74,9.12c2.63,7.4,3.26,10.38,4.18,13.13,3.2,9.57-12.79,4.67-12.79,4.67S142.92,110,143,110C180.78,125.4,154.46,79.44,154.46,79.44Z" style="fill: #ffc398"/>
        <path d="M138.61,97.69s3.15,3.34,3.33,3.57c0,0,.88.86,1,.83l-.85-1.32a3.29,3.29,0,0,1-1.28-2l1.65,1.13c2.13,1.62,4.1,7.07,4.1,7.07l-2.67,2.69a16.56,16.56,0,0,1-5.59-4.89l-1.89-1.55a2.57,2.57,0,0,1-1.86-1l1.94,0,2.63,1.68-2.47-2.67a3.35,3.35,0,0,1-2.07-2.46l2.48,1.4,2.26,2L137.43,100A3.09,3.09,0,0,1,135,98.15l3,1,2.33,2.16-2.61-3s-1.45-.63-1.43-1.84Z" style="fill: #ffc398"/>
        <path d="M143.59,110.75s12.17,5.33,17.46,1.54,2.17-13.71,1.42-16.42-4.8-13.1-7.59-16.57-6,9.49-3.29,12.82,5,9.87,5,10.17a3.67,3.67,0,0,1-.79,3.64,4.1,4.1,0,0,1-2.84,1.16c-1.61,0-4,.79-5.62-.58,0,0-.75-1.35-3.62,1.61C141.66,110.2,143.59,110.75,143.59,110.75Z" style="fill: #2cd4d9"/>
        <path d="M147.78,106.28c-.74-.76-2.41-.34-3.73.94s-1.8,2.94-1.06,3.7" style="fill: none;stroke: #5333ed;stroke-linecap: round;stroke-miterlimit: 10"/>
        <ellipse cx="126.94" cy="100.18" rx="1.55" ry="2.69" transform="translate(-34.69 105.2) rotate(-40.06)" style="fill: none;stroke: #5333ed;stroke-linecap: round;stroke-miterlimit: 10"/>
        <path d="M136.18,95.38l-3,.25-3,.5,2.75-1a3.09,3.09,0,0,0,3-.3l-3.09-.76-3.45,1,2.21-1.72s1.67.26,2.3-.78l-2.59-.12a32.78,32.78,0,0,0-4.26,2.94,9.83,9.83,0,0,0-1.86,4.51,1.85,1.85,0,0,0,.75,1.8c.81.58,2.33.58,2.53-.39a3.66,3.66,0,0,1,.41-1.1l.15-.24a3.28,3.28,0,0,1,.4-.47l.09-.08A3.56,3.56,0,0,1,130,99l.08-.05a4.06,4.06,0,0,1,.43-.23l.05,0a4.51,4.51,0,0,1,.45-.17l.09,0,.39-.11h0l.3-.05h0l.22,0h.1a1.44,1.44,0,0,0,1.79.38l-1.38-1.21-2.56.19,2.91-.92A4.35,4.35,0,0,0,136.18,95.38Z" style="fill: #ffc398"/>
        <path d="M128.67,102.24c-.66.55-2,.08-2.92-1.06s-1.2-2.5-.54-3.06" style="fill: none;stroke: #5333ed;stroke-linecap: round;stroke-miterlimit: 10"/>
        <path d="M145.18,61.42a7.3,7.3,0,0,1-5.09,9c-3.89,1.07-8.85-.65-8.89-4.68,0-1.41-.7-3-.15-4.08,1.22-2.25,2.51-4.58,5.15-5.31A7.3,7.3,0,0,1,145.18,61.42Z" style="fill: #0c022f"/>
        <path d="M144.15,75.33l0-8-7.44,0V78.21C136.77,80.62,143,78.49,144.15,75.33Z" style="fill: #eba87c"/>
        <path d="M144.69,74a5.58,5.58,0,0,1-2.62,3.93c-2.16,1.53-4.62,1.76-5.51.52a1.8,1.8,0,0,1-.39-1.26" style="fill: none;stroke: #5333ed;stroke-linecap: round;stroke-miterlimit: 10"/>
        <path d="M144.18,70.52a5.6,5.6,0,0,1-4.77,4.3,7.44,7.44,0,0,1-2.66-.11V69.05l7.44,0Z" style="fill: #ffc398;opacity: 0.5;mix-blend-mode: multiply"/>
        <path d="M145.63,65.36a1.74,1.74,0,0,0-2-1.38s0,0-.08.05l-.75-1.91a5.59,5.59,0,0,0-10.4,4.08l1.7,4.33c1.52,3.88,3.89,3.75,6.47,2.73a6.06,6.06,0,0,0,3.85-6A1.71,1.71,0,0,0,145.63,65.36Z" style="fill: #ffc398"/>
        <path d="M143,65.07a2.15,2.15,0,0,1,.57-1.14l-.93-5.53-7.56-1.08-4.13,5.82,1.64,4s-.15-3.92,2.1-6.31A57.94,57.94,0,0,0,143,65.07Z" style="fill: #0c022f"/>
        <ellipse cx="141.9" cy="64.9" rx="1.1" ry="1.91" transform="translate(-11.81 38.07) rotate(-14.68)" style="fill: #fff"/>
        <ellipse cx="138.78" cy="60.9" rx="1.1" ry="1.91" transform="translate(16.08 149.86) rotate(-59.64)" style="fill: #fff"/>
        <path d="M139.25,60.06c-.5-.29-1-.3-1.21,0l-.17.34c-.14.29.12.74.61,1s1,.3,1.21,0l.16-.32C140,60.82,139.75,60.35,139.25,60.06Z" style="fill: #dfe9f8"/>
        <ellipse cx="138.95" cy="60.58" rx="0.61" ry="1.05" transform="translate(16.44 149.85) rotate(-59.64)" style="fill: #120667"/>
        <ellipse cx="138.95" cy="60.58" rx="0.16" ry="0.28" transform="translate(16.44 149.85) rotate(-59.64)" style="fill: #5333ed"/>
        <path d="M142.81,64.61c-.18-.55-.58-.92-.9-.82l-.36.14c-.3.12-.41.63-.24,1.17s.58.92.9.82l.33-.13C142.87,65.69,143,65.16,142.81,64.61Z" style="fill: #dfe9f8"/>
        <ellipse cx="142.23" cy="64.8" rx="0.61" ry="1.05" transform="translate(-12.92 45.94) rotate(-17.56)" style="fill: #120667"/>
        <ellipse cx="142.23" cy="64.8" rx="0.16" ry="0.28" transform="translate(-12.92 45.94) rotate(-17.56)" style="fill: #5333ed"/>
        <path d="M142.15,64.53a11.92,11.92,0,0,1,2.32-.21,1.89,1.89,0,0,1,1.79,1.84c0,.49.22,3.2-2.11,3.91l0-.46a2.68,2.68,0,0,0,1.58-2.42c0-.3.18-1.44-.36-1.94a2,2,0,0,0-1.47-.41,4.44,4.44,0,0,0-1.61.24Z" style="fill: #5333ed"/>
        <path d="M138.7,60.44a4.77,4.77,0,0,1,3.47-2c2.48-.31,4.36,2.16,4.56,3.71a8.3,8.3,0,0,1-2.56,7.14v-.23s.09-.31.18-.67a7.12,7.12,0,0,0,1.94-4.21A4.45,4.45,0,0,0,145,60a3.65,3.65,0,0,0-3.63-.79,5.61,5.61,0,0,0-2.17,1.54Z" style="fill: #5333ed"/>
        <path d="M133.22,68.38l.24.58a6,6,0,0,0-1.22,5.21l-.52.36S130.92,70.73,133.22,68.38Z" style="fill: #5333ed"/>
        <path d="M132.82,67.36l-.22-.55A4.87,4.87,0,0,0,129,70.15c-.63,2.58.67,3.74.76,4.69a2.28,2.28,0,0,1-.36,1.59l.52,0a2.76,2.76,0,0,0,.45-1.66c-.09-.88-.36-.89-.71-2a4.47,4.47,0,0,1,.3-3.44,3.34,3.34,0,0,1,1.3-1.31A7.71,7.71,0,0,1,132.82,67.36Z" style="fill: #5333ed"/>
        <path d="M87.76,155.7v-4.35a3.1,3.1,0,0,1,4.65-2.68l16.66,9.63a8.08,8.08,0,0,1,4,7v5" style="fill: none;stroke: #120667;stroke-linejoin: round"/>
        <path d="M113.11,155.7v-4.35a3.1,3.1,0,0,0-4.65-2.68L91.8,158.29a8.08,8.08,0,0,0-4,7v5" style="fill: none;stroke: #120667;stroke-linejoin: round"/>
        <g>
          <path d="M113.41,155.3h0a.78.78,0,0,0-.86,0,2.55,2.55,0,0,0-1.16,2,.8.8,0,0,0,.35.75h0l1.3.74,1.58-2.86Z" style="fill: #120667"/>
          <path d="M115,156.75a2.55,2.55,0,0,1-1.16,2c-.64.37-1.16.07-1.16-.67a2.55,2.55,0,0,1,1.16-2C114.48,155.71,115,156,115,156.75Z" style="fill: #5333ed"/>
          <path d="M114.4,157.12a1.13,1.13,0,0,1-.51.89c-.28.16-.51,0-.51-.3a1.13,1.13,0,0,1,.51-.89C114.17,156.66,114.4,156.79,114.4,157.12Z" style="fill: #120667"/>
        </g>
        <path d="M113.17,154.55l.43.25a.85.85,0,0,1,.41.73v1.58" style="fill: none;stroke: #120667;stroke-linecap: round;stroke-linejoin: round;stroke-width: 0.5px"/>
        <g>
          <path d="M113.36,169.77h0a.78.78,0,0,0-.86,0,2.55,2.55,0,0,0-1.16,2,.8.8,0,0,0,.35.75h0l1.3.74,1.58-2.86Z" style="fill: #120667"/>
          <path d="M114.94,171.22a2.55,2.55,0,0,1-1.16,2c-.64.37-1.16.07-1.16-.67a2.55,2.55,0,0,1,1.16-2C114.43,170.18,114.94,170.48,114.94,171.22Z" style="fill: #5333ed"/>
          <path d="M114.35,171.59a1.13,1.13,0,0,1-.51.89c-.28.16-.51,0-.51-.3a1.13,1.13,0,0,1,.51-.89C114.12,171.13,114.35,171.26,114.35,171.59Z" style="fill: #120667"/>
        </g>
        <path d="M113.12,169l.43.25a.85.85,0,0,1,.41.73v1.58" style="fill: none;stroke: #120667;stroke-linecap: round;stroke-linejoin: round;stroke-width: 0.5px"/>
        <g>
          <path d="M88,169.78h0a.78.78,0,0,0-.86,0,2.55,2.55,0,0,0-1.16,2,.8.8,0,0,0,.35.75h0l1.3.74,1.58-2.86Z" style="fill: #120667"/>
          <path d="M89.61,171.23a2.55,2.55,0,0,1-1.16,2c-.64.37-1.16.07-1.16-.67a2.55,2.55,0,0,1,1.16-2C89.09,170.2,89.61,170.49,89.61,171.23Z" style="fill: #5333ed"/>
          <path d="M89,171.6a1.13,1.13,0,0,1-.51.89c-.28.16-.51,0-.51-.3a1.13,1.13,0,0,1,.51-.89C88.79,171.14,89,171.28,89,171.6Z" style="fill: #120667"/>
        </g>
        <path d="M87.78,169l.43.25a.85.85,0,0,1,.41.73v1.58" style="fill: none;stroke: #120667;stroke-linecap: round;stroke-linejoin: round;stroke-width: 0.5px"/>
        <g>
          <path d="M88,155.3h0a.78.78,0,0,0-.86,0,2.55,2.55,0,0,0-1.16,2,.8.8,0,0,0,.35.75h0l1.3.74L89.24,156Z" style="fill: #120667"/>
          <path d="M89.61,156.75a2.55,2.55,0,0,1-1.16,2c-.64.37-1.16.07-1.16-.67a2.55,2.55,0,0,1,1.16-2C89.09,155.71,89.61,156,89.61,156.75Z" style="fill: #5333ed"/>
          <path d="M89,157.12a1.13,1.13,0,0,1-.51.89c-.28.16-.51,0-.51-.3a1.13,1.13,0,0,1,.51-.89C88.79,156.66,89,156.79,89,157.12Z" style="fill: #120667"/>
        </g>
        <path d="M87.78,154.55l.43.25a.85.85,0,0,1,.41.73v1.58" style="fill: none;stroke: #120667;stroke-linecap: round;stroke-linejoin: round;stroke-width: 0.5px"/>
        <line x1="100.33" y1="153.24" x2="100.33" y2="68.74" style="fill: none;stroke: #120667;stroke-linejoin: round"/>
        <polygon points="94.61 53.95 92.35 55.29 94.61 70.29 106.5 79.86 108.76 78.53 108.76 62.18 94.61 53.95" style="fill: #120667"/>
        <path d="M135,72.34a3.16,3.16,0,0,0,.5.53s-5.17,1.64-6.13,4.66c-1.55,4.88-7.66,7.49-11.31,6.86-1.64-.28-7.31-1.37-7.75-6.77S107.71,72,107.68,72c-.33-.19-.31-.76,0-.81a4.12,4.12,0,0,1,2.61,2.89c.6,2.1.39,4,1.31,5.92.71,1.44,3.27,3.48,7.12,3.89,3.19.34,6.77-2,7.1-2.29a9.75,9.75,0,0,0,3.32-4.8C130.14,74.18,135,72.34,135,72.34Z" style="fill: #5333ed"/>
        <polygon points="92.35 55.29 92.35 71.63 106.51 79.86 106.51 63.52 92.35 55.29" style="fill: #5333ed"/>
        <polygon points="94.15 58.41 94.15 70.6 104.71 76.74 104.71 64.55 94.15 58.41" style="fill: #dfe9f8"/>
        <path d="M94.64,62.89l.17-.75.15,1.35.81-3,0,4.33.33-1.79.42,1.1L97.41,62l-.54,3.62L98,63.2l.06,1.6.27-.52.46,1.4.88-2.46.65,4.17.81-2.27v1.21s.31-.85.31-.69,0,1.23,0,1.4.79-2.87.79-2.87l.21,4.6.65-2.35.19.79.42-2,.21,2.81.31-1.27" style="fill: none;stroke: #5333ed;stroke-linejoin: round;stroke-width: 0.2px"/>
        <path d="M94.64,65.75l.1-.46,0,.35.46-.17.06.69.31-.1.27.81v-.71l.17.83.4-.46v.54l.67-.12.08.46.67.42,0-.46.38.9.65-.15v.29l.15-.31.48.88.46-.44.23.33s.38-.29.38-.23.13.65.13.65l.25-.35.23.52.31-.12.17.44,1,0,.08.65.13-.25.4.38.52-.46L104,71l.23-.37" style="fill: none;stroke: #120667;stroke-linejoin: round;stroke-width: 0.2px"/>
        <path d="M94.58,69.21s.17-1,.25-1.35.27-.25.33.29a11,11,0,0,0,.29,1.35,6.26,6.26,0,0,0,.46-.81,6.23,6.23,0,0,1,.17,1.1s-.17,1,.21,1.15.42-1.79.42-1.79.65-.31.69,0,.15,1.23.15,1.33.31,1.42.31,1.42L98,70.48l.52,1.06s.38-1.25.56-1.29.23,2,.23,2l.42.48s.83-2.35.9-2.48.5.83.5.83-.42,1.06-.23,1.31a2.74,2.74,0,0,1,.27.94l.35-1,.54-.4s.13,1.71.13,1.65.33-1.6.33-1.6l.52,1.31-.15.67s.33-1.31.56-1.4.42-.71.35.88S103.87,75,104,75a6.24,6.24,0,0,0,.19-1.25" style="fill: none;stroke: #2cd4d9;stroke-linejoin: round;stroke-width: 0.2px"/>
      </g>
    </g>
  </g>
</svg>
