<svg xmlns="http://www.w3.org/2000/svg" width="180" height="220" viewBox="0 0 180 220">
  <title>careers-apply-1</title>
  <g style="isolation: isolate">
    <g id="e95fed60-82d1-45bf-a823-3cfdde6de6bc" data-name="figures and interactions">
      <g>
        <path d="M76.33,78.45A7.3,7.3,0,0,0,82,87.11c3.94.84,8.8-1.18,8.6-5.21-.07-1.41.52-3.08-.1-4.08-1.35-2.18-2.78-4.42-5.46-5A7.3,7.3,0,0,0,76.33,78.45Z" style="fill: #0c022f"/>
        <g>
          <polyline points="64.56 176.83 81.2 132.33 81.2 186.45" style="fill: none;stroke: #5333ed;stroke-linecap: round;stroke-miterlimit: 10;stroke-width: 2px"/>
          <line x1="97.65" y1="175.75" x2="81.2" y2="132.33" style="fill: none;stroke: #5333ed;stroke-linecap: round;stroke-miterlimit: 10;stroke-width: 2px"/>
          <g>
            <path d="M97.85,138c0,5.31-7.45,9.61-16.65,9.61s-16.65-4.3-16.65-9.61v-5.67c1.3-4.56,8.38-3.95,16.65-3.95s15.27-.56,16.65,3.95Z" style="fill: #150773"/>
            <ellipse cx="81.2" cy="132.33" rx="16.65" ry="9.61" style="fill: #5333ed"/>
          </g>
        </g>
        <g>
          <path d="M98.52,180.77V178.2a2.79,2.79,0,0,1,1.68-2.56l.78-.34a3.43,3.43,0,0,1,3.7.63,65.88,65.88,0,0,1,5.68,6.16c.92,1.11,1.55,2,2.09,2.6a1.83,1.83,0,0,1-.46,2.82l-.66.37a1.83,1.83,0,0,1-1.82,0l-10.33-6A1.31,1.31,0,0,1,98.52,180.77Z" style="fill: #5333ed"/>
          <path d="M112.06,186.27a1.83,1.83,0,0,1-.89,1.23l-.66.37a1.83,1.83,0,0,1-1.82,0l-9.91-5.72" style="fill: none;stroke: #000;stroke-linecap: round;stroke-miterlimit: 10"/>
          <path d="M101.93,169.41l4.92.24-2.12,5.83h0c.21.79-.5,1.9-1.74,2.62s-2.84.79-3.3,0a1,1,0,0,1-.12-.53h0Z" style="fill: #ffc398"/>
          <ellipse cx="103.34" cy="177.25" rx="2.32" ry="1.34" transform="translate(-74.78 75.42) rotate(-30)" style="fill: #5333ed"/>
          <path d="M105.8,176.71a3.28,3.28,0,0,0-1.7.48,3.34,3.34,0,0,0-1.23,1.16" style="fill: none;stroke: #120667;stroke-linecap: round;stroke-miterlimit: 10"/>
          <path d="M107,178.25a3.16,3.16,0,0,0-1.64.46,3.32,3.32,0,0,0-1.11,1" style="fill: none;stroke: #120667;stroke-linecap: round;stroke-miterlimit: 10"/>
          <path d="M108.4,179.83a2.94,2.94,0,0,0-1.52.43,3,3,0,0,0-1.07,1" style="fill: none;stroke: #120667;stroke-linecap: round;stroke-miterlimit: 10"/>
          <line x1="112.99" y1="186.45" x2="110.85" y2="187.68" style="fill: none;stroke: #000;stroke-linecap: round;stroke-miterlimit: 10"/>
        </g>
        <g>
          <path d="M89.65,184.52v-2.57a2.79,2.79,0,0,1,1.68-2.56l.78-.34a3.43,3.43,0,0,1,3.7.63,65.88,65.88,0,0,1,5.68,6.16c.92,1.11,1.55,2,2.09,2.6a1.83,1.83,0,0,1-.46,2.82l-.66.37a1.83,1.83,0,0,1-1.82,0l-10.33-6A1.31,1.31,0,0,1,89.65,184.52Z" style="fill: #5333ed"/>
          <path d="M103.19,190a1.83,1.83,0,0,1-.89,1.23l-.66.37a1.83,1.83,0,0,1-1.82,0l-9.91-5.72" style="fill: none;stroke: #000;stroke-linecap: round;stroke-miterlimit: 10"/>
          <path d="M93.06,173.16l4.92.24-2.12,5.83h0c.21.79-.5,1.9-1.74,2.62s-2.84.79-3.3,0a1,1,0,0,1-.12-.53h0Z" style="fill: #ffc398"/>
          <ellipse cx="94.47" cy="181" rx="2.32" ry="1.34" transform="translate(-77.84 71.49) rotate(-30)" style="fill: #5333ed"/>
          <path d="M96.93,180.46a3.28,3.28,0,0,0-1.7.48A3.34,3.34,0,0,0,94,182.1" style="fill: none;stroke: #120667;stroke-linecap: round;stroke-miterlimit: 10"/>
          <path d="M98.16,182a3.16,3.16,0,0,0-1.64.46,3.32,3.32,0,0,0-1.11,1" style="fill: none;stroke: #120667;stroke-linecap: round;stroke-miterlimit: 10"/>
          <path d="M99.53,183.58A2.94,2.94,0,0,0,98,184a3,3,0,0,0-1.07,1" style="fill: none;stroke: #120667;stroke-linecap: round;stroke-miterlimit: 10"/>
          <line x1="104.12" y1="190.2" x2="101.98" y2="191.43" style="fill: none;stroke: #000;stroke-linecap: round;stroke-miterlimit: 10"/>
        </g>
        <g>
          <polygon points="97.94 177.01 98.31 175.47 97.71 175.2 97.29 177.18 97.94 177.01" style="fill: #dfe9f8"/>
          <polygon points="91.73 174.14 92.04 172.73 92.84 172.77 92.21 174.94 91.73 174.14" style="fill: #dfe9f8"/>
          <ellipse cx="94.83" cy="175.6" rx="1.99" ry="3.45" transform="translate(-104.66 169.92) rotate(-60)" style="fill: #dfe9f8"/>
          <ellipse cx="95.2" cy="174.02" rx="1.99" ry="3.45" transform="translate(-103.11 169.46) rotate(-60)" style="fill: #fff"/>
        </g>
        <g>
          <polygon points="106.17 174.66 106.51 173.26 105.97 173.01 105.58 174.81 106.17 174.66" style="fill: #dfe9f8"/>
          <polygon points="100.51 172.04 100.8 170.76 101.53 170.79 100.95 172.77 100.51 172.04" style="fill: #dfe9f8"/>
          <ellipse cx="103.34" cy="173.38" rx="1.82" ry="3.15" transform="translate(-98.48 176.18) rotate(-60)" style="fill: #dfe9f8"/>
          <ellipse cx="103.68" cy="171.94" rx="1.82" ry="3.15" transform="translate(-97.06 175.76) rotate(-60)" style="fill: #fff"/>
        </g>
        <path d="M90.94,123.19l-2.87-11.81-15.22,7.15a43.47,43.47,0,0,0-2.49,9.72,40.55,40.55,0,0,0-.44,6.5,1.24,1.24,0,0,0,.15.57c.3,1.38,2,3,5.77,4.87,8.35,4.06,21.37,11,21.37,11s.86-3.91-4.34,21.37a.91.91,0,0,0-.08.09c-.44.76.27,2,1.58,2.74s2.73.76,3.17,0l6.79-17.55c-.72,3.25-1.6,7.37-2.68,12.62l0,0,0,0c-.4.69.25,1.81,1.44,2.5s2.49.69,2.89,0a.89.89,0,0,0,.1-.37l11.1-28.07C118.49,141.11,91.69,127.37,90.94,123.19Zm7.62,18.48c4.88,2.35,8.84,4.11,8.93,4.16s-.21.14-.79,2.21C105.29,146.39,102.17,144.12,98.57,141.68Z" style="fill: #120667"/>
        <path d="M95.9,92s-1.92,27.3,11.33,30.79a2.9,2.9,0,0,1-.62,2.38,2.68,2.68,0,0,1-2.5,1.08s-17.32-7.22-14.91-26Z" style="fill: #2cd4d9"/>
        <path d="M88.74,84.67a15.8,15.8,0,0,0-3.16.71c-3.68,1.36-9.07,4.26-12.39,5.83A18.75,18.75,0,0,0,67,95.86v0l-.17.23a1.77,1.77,0,0,0-.11.15c-7,11.89-17.17,40.55,16.54,36l2.85-1.56a1.35,1.35,0,0,0-1.27-1.73c-9.88.29-22.61-3.68-15.95-20.17l1.74,3.44a5.07,5.07,0,0,1,.43,2.57c.05.78-.44,6.94.28,6.14l.95-3.21,17.22-3.75s-.28-6.91-.18-7.49c.57-3.38,6.2-12.25,6.2-12.25A7.16,7.16,0,0,0,88.74,84.67Z" style="fill: #2cd4d9"/>
        <path d="M68.84,108.71s2.33-5.19,3.36-7.53l.36,1s-.71,5.94-2.76,8.35Z" style="fill: #2cd4d9;mix-blend-mode: multiply"/>
        <path d="M71.44,122c1.15,2.12,6.53,2.37,11.75.34,7.55-2.94,6.58-6.25,6.22-10.38-.28-3.23-7.27-2.92-12.12-.12S69.89,119.1,71.44,122Z" style="fill: #2cd4d9"/>
        <ellipse cx="81.21" cy="92.45" rx="2.77" ry="4.79" transform="translate(-41.19 105.15) rotate(-54.63)" style="fill: none;stroke: #5333ed;stroke-linecap: round;stroke-miterlimit: 10"/>
        <path d="M77.52,92.09l0-8,7.44,0V95C84.9,97.38,78.61,95.25,77.52,92.09Z" style="fill: #eba87c"/>
        <path d="M77,90.77a5.58,5.58,0,0,0,2.62,3.93c2.16,1.53,4.62,1.76,5.51.52A1.8,1.8,0,0,0,85.49,94" style="fill: none;stroke: #5333ed;stroke-linecap: round;stroke-miterlimit: 10"/>
        <path d="M77.49,87.45a6,6,0,0,0,3.93,3.64,7,7,0,0,0,3.51.25V85.22l-7.44-1Z" style="fill: #ffc398;opacity: 0.5;mix-blend-mode: multiply"/>
        <path d="M76.12,82.4a1.74,1.74,0,0,1,1.95-1.5s0,0,.08,0L78.78,79A5.59,5.59,0,0,1,89.4,82.45L88,86.87c-1.29,4-3.66,4-6.3,3.11a6.06,6.06,0,0,1-4.2-5.73A1.71,1.71,0,0,1,76.12,82.4Z" style="fill: #ffc398"/>
        <ellipse cx="84.9" cy="130.75" rx="2.91" ry="1.68" transform="matrix(0.95, -0.32, 0.32, 0.95, -37.45, 34.14)" style="fill: none;stroke: #5333ed;stroke-linecap: round;stroke-miterlimit: 10"/>
        <g>
          <polygon points="80.26 135.93 89.94 141.5 96.27 126.75 80.26 135.93" style="fill: #43414e"/>
          <polygon points="89.81 141.83 80.16 136.24 80.26 135.93 89.94 141.5 89.81 141.83" style="fill: #6e7075"/>
          <polygon points="89.19 139.26 87.99 139.95 89.19 140.65 90.39 139.95 89.19 139.26" style="fill: #6e7075"/>
          <polygon points="90.74 138.35 89.54 139.05 90.74 139.74 91.94 139.05 90.74 138.35" style="fill: #6e7075"/>
          <polygon points="88.52 137.87 87.32 138.57 88.52 139.26 89.72 138.57 88.52 137.87" style="fill: #6e7075"/>
          <polygon points="90.07 136.97 88.86 137.66 90.07 138.35 91.27 137.66 90.07 136.97" style="fill: #6e7075"/>
          <polygon points="86.12 137.49 84.92 138.19 86.12 138.88 87.32 138.19 86.12 137.49" style="fill: #6e7075"/>
          <polygon points="87.66 136.59 86.46 137.28 87.66 137.97 88.86 137.28 87.66 136.59" style="fill: #6e7075"/>
          <polygon points="89.19 135.69 87.99 136.38 89.19 137.08 90.39 136.38 89.19 135.69" style="fill: #6e7075"/>
          <polygon points="90.74 134.78 89.54 135.48 90.74 136.17 91.94 135.48 90.74 134.78" style="fill: #6e7075"/>
          <polygon points="85.49 136.09 84.29 136.78 85.49 137.47 86.69 136.78 85.49 136.09" style="fill: #6e7075"/>
          <polygon points="87.04 135.18 85.83 135.87 87.04 136.57 88.24 135.87 87.04 135.18" style="fill: #6e7075"/>
          <polygon points="88.56 134.28 87.36 134.97 88.56 135.67 89.77 134.97 88.56 134.28" style="fill: #6e7075"/>
          <polygon points="90.11 133.37 88.91 134.07 90.11 134.76 91.31 134.07 90.11 133.37" style="fill: #6e7075"/>
          <path d="M93.8,133.48s-3.26-2.45-3.48-2.59-1.9-.71-3.39-1.24a4,4,0,0,0-4.17.91.9.9,0,0,0,.05,1.23c1,1.05,1.72,1,4.75,2.63l1.56,1.51a2.29,2.29,0,0,0,1,1.54l-.22-1.71-1.74-2.16,2.6,1.92a3,3,0,0,0,2.38,1.58l-1.48-2-2-1.8,2.23,1.49a2.74,2.74,0,0,0,1.85,1.94l-1.15-2.58-2.14-1.84,2.9,2s.7,1.21,1.77,1.08Z" style="fill: #ffc398"/>
          <g>
            <polygon points="89.78 141.83 91.34 125.3 109.63 115.02 108.07 131.55 89.78 141.83" style="fill: #6e7075"/>
            <path d="M99.22,128.37a.48.48,0,0,0,.86.29,1.73,1.73,0,0,0,.51-1.48.52.52,0,0,0-.37-.46c.44-.13.82.14.93.74a2.81,2.81,0,0,1-.82,2.41c-.61.53-1.23.32-1.39-.47a2.8,2.8,0,0,1,.35-1.81A1.6,1.6,0,0,0,99.22,128.37Z" style="fill: #fff"/>
          </g>
        </g>
        <path d="M87.24,129.26a3.39,3.39,0,0,0-2.87-.11c-1.52.52-2.52,1.65-2.22,2.53a1.1,1.1,0,0,0,.48.64" style="fill: none;stroke: #5333ed;stroke-linecap: round;stroke-miterlimit: 10"/>
        <path d="M78.73,82a2.15,2.15,0,0,0-.63-1.11l.59-5.58,7.48-1.53,4.47,5.56-1.4,4s-.08-3.92-2.47-6.17A57.94,57.94,0,0,1,78.73,82Z" style="fill: #0c022f"/>
        <path d="M89.56,109.19A64.29,64.29,0,0,1,92.95,100l-.36-1s-2.89,5-3.29,7.34A9.27,9.27,0,0,0,89.56,109.19Z" style="fill: #2cd4d9;mix-blend-mode: multiply"/>
      </g>
    </g>
  </g>
</svg>
