<svg xmlns="http://www.w3.org/2000/svg" width="180" height="220" viewBox="0 0 180 220">
  <title>careers-apply-2</title>
  <g style="isolation: isolate">
    <g id="9d2405d6-c8b0-45e7-8ff4-b976569fac43" data-name="figures and interactions">
      <g>
        <path d="M67.18,108.08a2.8,2.8,0,0,0,3,.74,2.56,2.56,0,0,0,1.82-2s.15-1.42-1.64-1.12S66,106.27,67.18,108.08Z" style="fill: none;stroke: #5333ed;stroke-linecap: round;stroke-miterlimit: 10"/>
        <g>
          <path d="M69.37,116.57l-.5,1.92a2.09,2.09,0,0,1-.32-1.88l0-2.12a19.69,19.69,0,0,1-.2-7.34h0a2.33,2.33,0,0,1,1.12-1.51c.91-.59.95.28,1.29.8a1.3,1.3,0,0,1,.11.31s2.17,7.11,2.22,7.37.57,3.31.57,3.31l-.17,2.6a3.31,3.31,0,0,1-.73-2.37l-.6-2.47.06,2.41-1.33,2.76a2.84,2.84,0,0,1,.37-2.83l-.38-2.24v2.27l-.72,2.69a2.23,2.23,0,0,1-.17-2.61l-.4-3.24Z" style="fill: #eba87c"/>
          <path d="M67.3,105.49l3.4-.43c.06.22,1,3,1,3a15.94,15.94,0,0,1,1.89,3.42c.11.6.14,3.14.14,3.14L73,116.15a2.85,2.85,0,0,1-.06-2.39l-.5-1.06a4.69,4.69,0,0,1-3.07-1,2.75,2.75,0,0,1-1.14-1.64l-.06-1.82Z" style="fill: #ffc398"/>
        </g>
        <path d="M83.9,102a21.69,21.69,0,0,0,7.84-1.75h0A2.4,2.4,0,0,0,93,98.76a1.31,1.31,0,0,0-.85-1.82.72.72,0,0,0-.34,0h0l-8.17.22c-.27,0-.85,1.18-.85,1.18l.2,1.31.31,1.08Z" style="fill: #eba87c"/>
        <path d="M53.06,171.34v-2.57a2.79,2.79,0,0,1,1.68-2.56l.78-.34a3.43,3.43,0,0,1,3.7.63,65.88,65.88,0,0,1,5.68,6.16c.92,1.11,1.55,2,2.09,2.6a1.83,1.83,0,0,1-.46,2.82l-.66.37a1.83,1.83,0,0,1-1.82,0l-10.33-6A1.31,1.31,0,0,1,53.06,171.34Z" style="fill: #5333ed"/>
        <path d="M66.6,176.85a1.83,1.83,0,0,1-.89,1.23l-.66.37a1.83,1.83,0,0,1-1.82,0l-9.91-5.72" style="fill: none;stroke: #000;stroke-linecap: round;stroke-miterlimit: 10"/>
        <line x1="67.53" y1="177.02" x2="65.39" y2="178.26" style="fill: none;stroke: #000;stroke-linecap: round;stroke-miterlimit: 10"/>
        <path d="M53.75,160.25l5.21-2,.06,7.4h0c.21.79-.5,1.9-1.74,2.62s-2.84.79-3.3,0a1,1,0,0,1-.12-.53h0Z" style="fill: #ffc398"/>
        <ellipse cx="57.88" cy="167.83" rx="2.32" ry="1.34" transform="translate(-76.16 51.43) rotate(-30)" style="fill: #5333ed"/>
        <path d="M60.34,167.28a3.28,3.28,0,0,0-1.7.48,3.34,3.34,0,0,0-1.23,1.16" style="fill: none;stroke: #120667;stroke-linecap: round;stroke-miterlimit: 10"/>
        <path d="M61.57,168.83a3.16,3.16,0,0,0-1.64.46,3.32,3.32,0,0,0-1.11,1" style="fill: none;stroke: #120667;stroke-linecap: round;stroke-miterlimit: 10"/>
        <path d="M62.94,170.4a2.94,2.94,0,0,0-1.52.43,3,3,0,0,0-1.07,1" style="fill: none;stroke: #120667;stroke-linecap: round;stroke-miterlimit: 10"/>
        <path d="M42.58,177.69v-2.57a2.79,2.79,0,0,1,1.68-2.56l.78-.34a3.43,3.43,0,0,1,3.7.63A65.88,65.88,0,0,1,54.41,179c.92,1.11,1.55,2,2.09,2.6a1.83,1.83,0,0,1-.46,2.82l-.66.37a1.83,1.83,0,0,1-1.82,0l-10.33-6A1.31,1.31,0,0,1,42.58,177.69Z" style="fill: #5333ed"/>
        <path d="M56.11,183.19a1.83,1.83,0,0,1-.89,1.23l-.66.37a1.83,1.83,0,0,1-1.82,0l-9.91-5.72" style="fill: none;stroke: #000;stroke-linecap: round;stroke-miterlimit: 10"/>
        <line x1="57.04" y1="183.36" x2="54.9" y2="184.6" style="fill: none;stroke: #000;stroke-linecap: round;stroke-miterlimit: 10"/>
        <path d="M43.26,166.59l5.21-2,.06,7.4h0c.21.79-.5,1.9-1.74,2.62s-2.84.79-3.3,0a1,1,0,0,1-.12-.53h0Z" style="fill: #ffc398"/>
        <path d="M53,162.19l-.08-1.38c-.1-1,.75-2.39,2.21-3.34,1.78-1.17,3.77-1.28,4.45-.25a1.52,1.52,0,0,1,.19,1.06l0,0,.07,1.32h0a4.24,4.24,0,0,1-2.21,3.27c-1.78,1.17-3.77,1.28-4.45.25a1.35,1.35,0,0,1-.19-.48h0v-.15A1.69,1.69,0,0,1,53,162.19Z" style="fill: #dfe9f8"/>
        <path d="M42.37,167.68h0c-.09-1,.75-2.38,2.21-3.33,1.78-1.17,3.77-1.28,4.45-.25a1.45,1.45,0,0,1,.22.87h0l.08,1.42h0c.11,1-.74,2.4-2.2,3.36-1.78,1.17-3.77,1.28-4.45.25a1.39,1.39,0,0,1-.2-.64h0Z" style="fill: #dfe9f8"/>
        <path d="M42.32,141.6c-.29-6-.35-19.13-.36-21.43-.05-10.3.32-23.8,7-27.6C55.24,89,61,88.89,64,91.73c1.8,1.67-.63,22-1.63,40a174.24,174.24,0,0,1-3.06,25.81,3.78,3.78,0,0,1-2,2.95c-1.55,1-3.28,1.11-3.86.22a1.18,1.18,0,0,1-.16-.44h0v-.08a1.53,1.53,0,0,1,0-.36c0-3-.15-19.68-.06-26s.58-15.47.83-17.39c0,0-1.76,11.13-2.57,21.37V138a2.51,2.51,0,0,1,0,.46c-.9,11.77-2.09,22-2.76,25.71h0c.29.91-.47,2.25-1.87,3.17-1.55,1-3.28,1.11-3.86.22a1.23,1.23,0,0,1-.18-.65h0S42.6,147.61,42.32,141.6Z" style="fill: #120667"/>
        <path d="M49.2,53.67A7.3,7.3,0,0,0,56.5,61c4,0,8.36-3,7.32-6.89-.36-1.36-.13-3.12-.95-4-1.77-1.85-3.64-3.75-6.38-3.75A7.3,7.3,0,0,0,49.2,53.67Z" style="fill: #0c022f"/>
        <ellipse cx="47.4" cy="174.17" rx="2.32" ry="1.34" transform="translate(-80.73 47.03) rotate(-30)" style="fill: #5333ed"/>
        <path d="M49.86,173.63a3.28,3.28,0,0,0-1.7.48,3.34,3.34,0,0,0-1.23,1.16" style="fill: none;stroke: #120667;stroke-linecap: round;stroke-miterlimit: 10"/>
        <path d="M51.08,175.17a3.16,3.16,0,0,0-1.64.46,3.32,3.32,0,0,0-1.11,1" style="fill: none;stroke: #120667;stroke-linecap: round;stroke-miterlimit: 10"/>
        <path d="M52.45,176.75a2.94,2.94,0,0,0-1.52.43,3,3,0,0,0-1.07,1" style="fill: none;stroke: #120667;stroke-linecap: round;stroke-miterlimit: 10"/>
        <path d="M70.45,67s-3.29,25.62,1,39.36a1.88,1.88,0,0,1-.57,2,2.5,2.5,0,0,1-1,.51,2.18,2.18,0,0,1-2.5-1.55s-7-10.46-3.63-32.06Z" style="fill: #2cd4d9"/>
        <path d="M63.29,59.68a15.8,15.8,0,0,0-3.16.71c-3.68,1.36-9.07,4.26-12.39,5.83a18.75,18.75,0,0,0-6.21,4.65v0l-.17.23s-2.83,6.37,2.81,14.1l1,2a5.07,5.07,0,0,1,.43,2.57c.05.78-.44,6.94.28,6.14l.95-3.21L64,88.9s-.28-6.91-.18-7.49c.57-3.38,6.2-12.25,6.2-12.25A7.16,7.16,0,0,0,63.29,59.68Z" style="fill: #2cd4d9"/>
        <path d="M46,97c1.15,2.12,6.53,2.37,11.75.34C65.29,94.36,64.32,91,64,86.92c-.28-3.23-7.27-2.92-12.12-.12S44.44,94.11,46,97Z" style="fill: #2cd4d9"/>
        <ellipse cx="55.76" cy="67.46" rx="2.77" ry="4.79" transform="translate(-31.53 73.87) rotate(-54.63)" style="fill: none;stroke: #5333ed;stroke-linecap: round;stroke-miterlimit: 10"/>
        <path d="M52.07,67.1l0-8,7.44,0V70C59.45,72.39,53.17,70.26,52.07,67.1Z" style="fill: #eba87c"/>
        <path d="M51.52,65.78a5.58,5.58,0,0,0,2.62,3.93c2.16,1.53,4.62,1.76,5.51.52A1.8,1.8,0,0,0,60,69" style="fill: none;stroke: #5333ed;stroke-linecap: round;stroke-miterlimit: 10"/>
        <path d="M52,61.69A6,6,0,0,0,56.82,65a7.44,7.44,0,0,0,2.66-.11V60.23l-7.44,0Z" style="fill: #ffc398;opacity: 0.5;mix-blend-mode: multiply"/>
        <path d="M49.81,57.58a1.74,1.74,0,0,1,1.59-1.88s.05,0,.09,0l.21-2a5.59,5.59,0,0,1,11.11,1.16l-.48,4.63c-.43,4.14-2.75,4.65-5.51,4.36a6.06,6.06,0,0,1-5.3-4.73A1.71,1.71,0,0,1,49.81,57.58Z" style="fill: #ffc398"/>
        <path d="M52.27,56.6a2.15,2.15,0,0,0-.85-1l-.58-5.58,7-3.05,5.53,4.51-.52,4.25s-.9-3.82-3.7-5.52A57.94,57.94,0,0,1,52.27,56.6Z" style="fill: #0c022f"/>
        <path d="M65.11,90.28s0-5.93-.06-7c-.08-3.08.72-4.68,1.82-6.94a3.59,3.59,0,0,0,.28-2.33h0a51.75,51.75,0,0,0-2.72,5.5c-.27.69-.23,10.27-.23,10.27Z" style="fill: #2cd4d9;mix-blend-mode: multiply"/>
        <path d="M82.4,96.89s-17.55-4.6-26.08-11.17-9-11.66-9-11.66-1.34-4.9-6-3A14.65,14.65,0,0,0,43.48,84.2c4.7,6.2,8.15,10.17,23.2,14.17a71.19,71.19,0,0,0,13.75,2.45Z" style="fill: #2cd4d9"/>
        <path d="M130.47,52.55s.52,12.08,3.42,17.21c3.83,6.77.15,7.69.15,7.69l-16.15-9.87-1.52-10.87s-1.5-1.17-1.32-4.41L120.47,50Z" style="fill: #5333ed"/>
        <path d="M135.45,178.42l-.16,2.09a51.16,51.16,0,0,0,1.2,9.4,2.52,2.52,0,0,0,2.05,1.92,2.37,2.37,0,0,0,2.88-1.83,74.93,74.93,0,0,0,.54-9s-.12-1.63-.28-2.74Z" style="fill: #0c022f"/>
        <path d="M140.4,175.12l-.23-.19a2.52,2.52,0,0,0-2.76-.27l-.68.36c-1.1.57-1.38,3.23-1.29,4.46.14,1.93.3,3.5.74,6.44a28.79,28.79,0,0,0,.7,3.5,2.25,2.25,0,0,0,2.13,1.73c1.25,0,2-.69,2.12-2.51,0,0,.54-5.57.58-8.6C141.74,178.36,141.71,176.18,140.4,175.12Z" style="fill: #5333ed"/>
        <polygon points="125.94 170.83 124.39 149.66 118.28 149.66 121.76 170.34 121.47 173.84 125.94 170.83" style="fill: #ffc398"/>
        <path d="M114.48,177.6a10.84,10.84,0,0,1,4.52-3.38l6.18-2h0c1.11-.4,2.15-.3,2.52.34s-.21,1.9-1.41,2.68a1.54,1.54,0,0,1-.22.17l-8.55,5a2,2,0,0,1-.33.14c-1.53.69-3,.61-3.56-.27C113.24,179.5,113.61,178.48,114.48,177.6Z" style="fill: #0c022f"/>
        <path d="M114.49,176.92a17.35,17.35,0,0,1,4.46-3.34l6.09-2h0c1.09-.4,2.12-.29,2.48.34s-.2,1.87-1.39,2.64a1.52,1.52,0,0,1-.22.16l-8.44,4.89a2,2,0,0,1-.32.13c-1.51.68-3,.6-3.51-.26C113.28,178.79,113.64,177.79,114.49,176.92Z" style="fill: #5333ed"/>
        <ellipse cx="123.98" cy="172.39" rx="2.9" ry="1.68" transform="translate(-69.58 85.09) rotate(-30)" style="fill: #ffc398"/>
        <path d="M122.86,174.95a14.71,14.71,0,0,0,1.2-2.08.69.69,0,0,0-.27-.87l-1.11-.7a1.49,1.49,0,0,0-1.86.22,38.21,38.21,0,0,1-3.58,3.09Z" style="fill: #5333ed"/>
        <path d="M127.55,171.92a6,6,0,0,0-1-1.94,7.2,7.2,0,0,0-.64-.48v1a2.7,2.7,0,0,1-.64,3.07l.18.51,1.54-1Z" style="fill: #5333ed"/>
        <path d="M140.44,177.63l-1.38-21.81-6.07.63,3.3,20.7,0,1.19a1.63,1.63,0,0,0,2.22,1.48l.87-.34A1.68,1.68,0,0,0,140.44,177.63Z" style="fill: #ffc398"/>
        <path d="M141.72,137.61c-1.78-6.39-6.09-29.16-6.09-29.16a52.57,52.57,0,0,0-5.16-14.59s-2.27,6.08-8.6,3.55c-7.38-3-7.89-9.16-7.89-9.16-1,1.8-2.27,8-2.92,13.15a92.23,92.23,0,0,0-.68,13.71c.2,8.11.38,22.53-.59,30-.6,2.64,2,6.4,6.29,8.89,4.81,2.78,9.94,2.91,11.45.3a3.53,3.53,0,0,0,.32-2.45l-.46-7.65L129.7,156s.11.24.29.61c.64,2.51,3.07,5.38,6.64,7.44,5.15,3,10.48,1.66,12.13-1.11C150,160.82,142.37,140,141.72,137.61Z" style="fill: #5333ed"/>
        <path d="M127.5,144.41l-5.65-32-1.71-1.08,4,31a30.43,30.43,0,0,1,.24,4.66l-.33,9.15s3.12,0,3.87-2.7C128,153,127.5,144.41,127.5,144.41Z" style="fill: #5333ed;mix-blend-mode: multiply"/>
        <path d="M130.84,93.14c-.64-2.19-2.82-4.35-5.62-6a13.94,13.94,0,0,0-6.76-2h0c-2.17,0-3.81.74-4.58,2.1a5.57,5.57,0,0,0-.44,1.71,6.07,6.07,0,0,0,.9,3.3,15.1,15.1,0,0,0,11.88,6.87h0c2.17,0,3.79-.75,4.58-2.11a3.64,3.64,0,0,0,.43-1.72h0S131,93.68,130.84,93.14Z" style="fill: #5333ed"/>
        <path d="M118.55,67.58s-6.79,3-7.62,5.3c-7.08,19.62-19.84,24-19.84,24l2.11,3C115,94.82,118.55,67.58,118.55,67.58Z" style="fill: #ffc398"/>
        <path d="M112.84,63.8a3.21,3.21,0,0,0-.32,1.11c-.52,3-2,10.06-4.15,13.82l6.26,3.9a56.2,56.2,0,0,0,5-8.23Z" style="fill: #0c022f"/>
        <path d="M108.05,79.44a3.81,3.81,0,0,1,.77.13,8.57,8.57,0,0,1,4,2.67,6.53,6.53,0,0,1,.47.85l-.22.4a1.33,1.33,0,0,0,.72-.45,9.66,9.66,0,0,0,.89-1.47.52.52,0,0,0,0-.45c-.22-.5-.14-1-1.87-2.07a11.23,11.23,0,0,0-3.86-1.6.43.43,0,0,0-.46.23l-.83,1.66a.49.49,0,0,0,.12.52Z" style="fill: #2cd4d9"/>
        <path d="M131.85,69l-13.32-7.68h0a2.54,2.54,0,0,0-1.81-.28,5.75,5.75,0,0,0-3.49,2,3,3,0,0,0-.57,2l1,23.24c-.23,2.55,2.09,5.87,5.87,8.06,4.52,2.61,9.4,2.61,10.91,0a3.43,3.43,0,0,0,.44-1.74l-.08-5.44,3.19-17C134.22,71.16,133.35,69.82,131.85,69Z" style="fill: #0c022f"/>
        <g>
          <ellipse cx="123.5" cy="67.15" rx="3.68" ry="2.13" transform="translate(-17.03 70.74) rotate(-30)" style="fill: #eba87c"/>
          <ellipse cx="123.5" cy="61.95" rx="3.68" ry="2.13" transform="translate(-14.43 70.05) rotate(-30)" style="fill: #eba87c"/>
          <polygon points="120.13 68.28 120.13 63.2 126.85 60.85 126.85 65.89 120.13 68.28" style="fill: #eba87c"/>
          <ellipse cx="123.5" cy="67.15" rx="3.68" ry="2.13" transform="translate(-17.03 70.74) rotate(-30)" style="fill: #eba87c"/>
          <path d="M126.85,56.72l-6.72,2.35v5.08h0a1.35,1.35,0,0,0,.16.72c.59,1,2.49,1,4.25,0,1.46-.84,2.34-2.11,2.28-3.1h0Z" style="fill: #ffc398;opacity: 0.5;mix-blend-mode: multiply"/>
          <path d="M126.84,63.64c.06,1-.82,2.26-2.28,3.1-1.76,1-3.66,1-4.25,0a1.34,1.34,0,0,1-.16-.68h0v2.21a1.36,1.36,0,0,0,.17.72c.59,1,2.49,1,4.25,0,1.46-.84,2.36-2.11,2.29-3.1V63.63Z" style="fill: #2cd4d9"/>
          <path d="M117.78,63.23c1,1.76,4.31,1.76,7.36,0a7.35,7.35,0,0,0,3.54-4.72c.06-.3-.34-.22-.36-.49a3.21,3.21,0,0,1,.5-1.16c-1-1.76-4.31-1.76-7.36,0S116.76,61.47,117.78,63.23Z" style="fill: #ffc398"/>
          <path d="M129,49.84H116.63s-1.19,8.25,1.06,13.2l10.64-5.11Z" style="fill: #ffc398"/>
          <path d="M129,58.73l.39-4a2.27,2.27,0,0,0,.74-.73c1-1.75-.63-4.6-3.67-6.35s-6.32-1.75-7.33,0l0,.05a4.2,4.2,0,0,0-2.16.61c-1.39.8-1.93,3.18-1.94,4,0,.35,1,2.57,1.26,2.47a8.89,8.89,0,0,1,1.29-2.08,7.72,7.72,0,0,1,2.16-1.44,21.62,21.62,0,0,0,3.06,3.44,15.18,15.18,0,0,0,4.69,2.48Z" style="fill: #5333ed"/>
          <path d="M130,56.47a3.3,3.3,0,0,1-1.09,2.78c-.74.59-1.46.31-1.6-.63a3.3,3.3,0,0,1,1.09-2.78C129.17,55.25,129.88,55.53,130,56.47Z" style="fill: #ffc398"/>
        </g>
        <path d="M138.17,83c2.55,18.57,25.26,20.3,25.26,20.3s-.6,3.72-.73,3.74c-24.58.38-30.78-12.24-31.67-22.87C130.39,76.49,137.94,81.25,138.17,83Z" style="fill: #ffc398"/>
        <path d="M140.63,90.27a105.67,105.67,0,0,1-1.86-11.05,10.72,10.72,0,0,0-.37-1.89,14.13,14.13,0,0,0-5-7.21l-.33-.26a1.3,1.3,0,0,0-2.11.23c-1.59,2.81-3.29,10.33,1.63,22.41Z" style="fill: #0c022f"/>
        <path d="M136.65,180.66l-.23-2.2a1,1,0,0,1,.71-1.08l.4-.12a3.3,3.3,0,0,1,1.24-.14l.55,0a1,1,0,0,1,.94,1l0,2.38Z" style="fill: #5333ed"/>
        <g>
          <path d="M172.8,105.16l2.23.58c-.75.75-2.13.26-2.13.26l-2.66.17a20.29,20.29,0,0,1-7.54.68h0a2.4,2.4,0,0,1-1.63-1.06,1.31,1.31,0,0,1,.29-2,.72.72,0,0,1,.31-.12h0l7.89-2.14c.26-.07,3.84-.88,3.84-.88h2.68a3.41,3.41,0,0,1-2.39.9l-3,.86,3-.3,2.95.63a3.85,3.85,0,0,1-3,.36l-2.75.62,2.81-.21h2.83a3.18,3.18,0,0,1-2.69.91l-3.78.7Z" style="fill: #eba87c"/>
          <path d="M159.38,106l-.28-2.81c.23-.05,3,.26,3.27.25h0s2.49-1.77,3.49-1.89a18.26,18.26,0,0,1,3.21.6l1.51.88a3.16,3.16,0,0,1-2.59,0l-.89.08a4.75,4.75,0,0,1-1.27,2.87,2.84,2.84,0,0,1-1.76,1.07l-1.87-.05Z" style="fill: #ffc398"/>
        </g>
        <path d="M141.83,90.23A13.78,13.78,0,0,0,141,88.4c-.78-1.36-3.32-1.36-5.67,0s-3.61,3.55-2.83,4.91a10.83,10.83,0,0,1,.79,1.67h0a1.6,1.6,0,0,0,.06.17c.78,1.36,3.32,1.36,5.67,0S142.61,91.59,141.83,90.23Z" style="fill: #2cd4d9"/>
        <path d="M141.33,91.1c.3.51.93,1.77.93,1.77a8.82,8.82,0,0,1-2.65,2.84,13.62,13.62,0,0,1-4.37.85,16.88,16.88,0,0,1-1-1.43c-.64-1.1.58-2.93,2.49-4S140.69,90,141.33,91.1Z" style="fill: #ffc398"/>
        <ellipse cx="80.96" cy="98.7" rx="2.91" ry="1.68" transform="translate(-27.38 31.19) rotate(-18.71)" style="fill: none;stroke: #5333ed;stroke-linecap: round;stroke-miterlimit: 10"/>
        <path d="M83.3,97.21a3.39,3.39,0,0,0-2.87-.11c-1.52.52-2.52,1.65-2.22,2.53a1.1,1.1,0,0,0,.48.64" style="fill: none;stroke: #5333ed;stroke-linecap: round;stroke-miterlimit: 10"/>
        <path d="M90.09,99.89s-3.59-1.94-3.83-2c-.08,0-.82-.19-1.74-.37l1.32-.6c-.2-.77-2.76-.18-3.17-.11-1.52.24-3,.63-3.94,1.88A.9.9,0,0,0,79,99.85c1.18.89,1.85.76,5.08,1.89l1.3.54s.93.64,1.56-.05l-.78-.38-1.59-1,2.86,1.52s-.16.54,1.35.29l-.54-.88L86,100.29l2.43,1.15s-.45,1,.83,1.11L89,100.7,86.6,99.19l3.17,1.55s.87,1.1,1.91.81Z" style="fill: #ffc398"/>
        <path d="M93.66,99.83l.82-3.91c-.24,0-3.14.94-3.39,1h0s-2.89-1-3.89-.81a18.26,18.26,0,0,0-2.9,1.5l-1.19,1.28a3.16,3.16,0,0,0,2.47-.78l.87-.18a5.79,5.79,0,0,0,2.17,2,3.43,3.43,0,0,0,1.86.87l1.78-.59Z" style="fill: #ffc398"/>
        <path d="M85.4,96.54,84,97.31,82.4,99.09s1,.65,3.55-.59l.78-.4,3.35,1.79.77.8.56-.19a16.43,16.43,0,0,0-4.72-2.85l-1.11.43a3.5,3.5,0,0,1-2.47.78l1.19-1.28,1.47-.85A.53.53,0,0,0,85.4,96.54Z" style="fill: #ffc398;opacity: 0.5;mix-blend-mode: multiply"/>
        <path d="M83.11,101.69s.21.31.32.36a1.33,1.33,0,0,0,.46-.05,2.2,2.2,0,0,0-.66-1.57l0,1A3.58,3.58,0,0,0,82,99.62l0,.86s-.35-.87-.73-1.08l0,1.29a1.71,1.71,0,0,0-1-1l.25,1.15a1.51,1.51,0,0,0,.28.28,1.74,1.74,0,0,0,.45,0,1.45,1.45,0,0,0,.33.27,1.41,1.41,0,0,0,.41,0s.29.39.44.44A1.94,1.94,0,0,0,83.11,101.69Z" style="fill: #eba87c"/>
        <path d="M44.15,85.18a28.94,28.94,0,0,0,8.21,7.68A37.37,37.37,0,0,0,60,96.36l-1.32.54a57.3,57.3,0,0,1-8.94-4.33S46.25,90,45.51,88.19A12.81,12.81,0,0,0,44.15,85.18Z" style="fill: #2cd4d9;mix-blend-mode: multiply"/>
        <path d="M49.8,77.07s4.36,9.4,19.5,15l.07.54S60.33,89.42,54.23,84a37.4,37.4,0,0,1-4.08-4.24,2,2,0,0,1-.37-1.2Z" style="fill: #2cd4d9;mix-blend-mode: multiply"/>
        <path d="M63.88,97.59s4.28,1.23,6.07,1.62l.15,1.06a39,39,0,0,1-5.94-1.43Z" style="fill: #2cd4d9;mix-blend-mode: multiply"/>
        <path d="M67.18,108.08a2.8,2.8,0,0,0,3,.74,2.56,2.56,0,0,0,1.82-2" style="fill: none;stroke: #5333ed;stroke-linecap: round;stroke-miterlimit: 10"/>
      </g>
    </g>
  </g>
</svg>
