<svg xmlns="http://www.w3.org/2000/svg" xmlns:xlink="http://www.w3.org/1999/xlink" width="64" height="64" viewBox="0 0 64 64">
  <defs>
    <clipPath id="b3a28989-b832-4833-8319-a16cb6033e11">
      <path d="M50.94,40.23a19.8,19.8,0,1,1,0-16.47Z" style="fill: none;clip-rule: evenodd"/>
    </clipPath>
    <clipPath id="72875afb-02be-4f78-ba39-968689e8a4d7">
      <rect x="11.81" y="12.2" width="39.81" height="39.81" style="fill: none"/>
    </clipPath>
    <clipPath id="3c0ae51e-80be-41c1-b40f-214c260e7d5d">
      <rect x="10.57" y="12.2" width="41.06" height="39.81" style="fill: none"/>
    </clipPath>
    <clipPath id="4fe5b443-ad21-46f4-81ba-8e1d632dae87">
      <path d="M41.39,23.32H14.29a1.23,1.23,0,0,1-1.24-1.23V13.43a1.23,1.23,0,0,1,1.24-1.23H49.61a1.23,1.23,0,0,1,1.24,1.23v.45a9.44,9.44,0,0,1-9.45,9.44" style="fill: none;clip-rule: evenodd"/>
    </clipPath>
    <clipPath id="57258143-ccc6-4148-bf16-d425aa93a3e8">
      <rect x="13.06" y="12.2" width="38.57" height="39.81" style="fill: none"/>
    </clipPath>
    <clipPath id="e022ec91-2a75-4b64-910e-c01fcc58d71f">
      <path d="M50.83,51.93H13.06V40.82H41.4a9.44,9.44,0,0,1,9.44,9.43v1.68h0" style="fill: none;clip-rule: evenodd"/>
    </clipPath>
    <clipPath id="af0b9ffa-fbe9-4fc7-a44b-addee0f3d52e">
      <path d="M38.63,37H10.57V25.88H38.63a5.56,5.56,0,1,1,0,11.12" style="fill: none;clip-rule: evenodd"/>
    </clipPath>
    <clipPath id="30b39099-1cb1-4eb0-aca5-68c3c477fbd8">
      <path d="M30.14,25.88H11.81V37H30.18a23.63,23.63,0,0,0,.65-5.58,21.85,21.85,0,0,0-.7-5.55" style="fill: none;clip-rule: evenodd"/>
    </clipPath>
    <clipPath id="e3a06a6c-3f72-4072-9567-cf8604287c77">
      <path d="M23.41,14.68a19.9,19.9,0,0,0-7.86,8.44H30.19a22,22,0,0,0-6.78-8.44" style="fill: none;clip-rule: evenodd"/>
    </clipPath>
    <clipPath id="6fa02bc8-916d-45c3-b1e8-1e82bda97d5d">
      <path d="M24,49.58a22,22,0,0,0,6.55-8.77h-15A19.9,19.9,0,0,0,24,49.58" style="fill: none;clip-rule: evenodd"/>
    </clipPath>
  </defs>
  <title>features-elasticsearch</title>
  <g id="ba2311c5-c465-4e5d-b6fe-01f0b6d32d45" data-name="figures and interactions">
    <g style="clip-path: url(#b3a28989-b832-4833-8319-a16cb6033e11)">
      <g style="clip-path: url(#72875afb-02be-4f78-ba39-968689e8a4d7)">
        <g style="isolation: isolate">
          <g style="clip-path: url(#3c0ae51e-80be-41c1-b40f-214c260e7d5d)">
            <g style="clip-path: url(#4fe5b443-ad21-46f4-81ba-8e1d632dae87)">
              <g style="clip-path: url(#57258143-ccc6-4148-bf16-d425aa93a3e8)">
                <rect x="6.84" y="5.97" width="50.22" height="23.56" style="fill: #e7ba2a"/>
              </g>
            </g>
            <g style="clip-path: url(#e022ec91-2a75-4b64-910e-c01fcc58d71f)">
              <g style="clip-path: url(#57258143-ccc6-4148-bf16-d425aa93a3e8)">
                <rect x="6.84" y="34.59" width="50.22" height="23.56" style="fill: #43b6a3"/>
              </g>
            </g>
            <g style="clip-path: url(#af0b9ffa-fbe9-4fc7-a44b-addee0f3d52e)">
              <g style="clip-path: url(#57258143-ccc6-4148-bf16-d425aa93a3e8)">
                <rect x="4.35" y="19.66" width="46.08" height="23.56" style="fill: #269aca"/>
              </g>
            </g>
            <g style="clip-path: url(#30b39099-1cb1-4eb0-aca5-68c3c477fbd8)">
              <g style="clip-path: url(#57258143-ccc6-4148-bf16-d425aa93a3e8)">
                <rect x="5.59" y="19.66" width="31.46" height="23.56" style="fill: #1b1a19"/>
              </g>
            </g>
            <g style="clip-path: url(#e3a06a6c-3f72-4072-9567-cf8604287c77)">
              <g style="clip-path: url(#57258143-ccc6-4148-bf16-d425aa93a3e8)">
                <rect x="9.33" y="8.46" width="27.09" height="20.88" style="fill: #cc9c31"/>
              </g>
            </g>
            <g style="clip-path: url(#6fa02bc8-916d-45c3-b1e8-1e82bda97d5d)">
              <g style="clip-path: url(#57258143-ccc6-4148-bf16-d425aa93a3e8)">
                <rect x="9.33" y="34.59" width="27.43" height="21.21" style="fill: #149283"/>
              </g>
            </g>
          </g>
        </g>
      </g>
    </g>
  </g>
</svg>
