<svg xmlns="http://www.w3.org/2000/svg" xmlns:xlink="http://www.w3.org/1999/xlink" width="940" height="440" viewBox="0 0 940 440">
  <defs>
    <linearGradient id="03fa6460-7fbb-4eae-a435-f850b0cb9aa7" x1="301.15" y1="291.93" x2="307.01" y2="291.93" gradientUnits="userSpaceOnUse">
      <stop offset="0" stop-color="#bbd0f2" stop-opacity="0.8"/>
      <stop offset="1" stop-color="#bbd0f2" stop-opacity="0.8"/>
    </linearGradient>
    <linearGradient id="4ef963e5-b88a-4738-801a-6547c3d367cf" x1="333.9" y1="291.93" x2="357.32" y2="291.93" gradientUnits="userSpaceOnUse">
      <stop offset="0" stop-color="#bbd0f2" stop-opacity="0.8"/>
      <stop offset="1" stop-color="#bbd0f2" stop-opacity="0.7"/>
    </linearGradient>
    <linearGradient id="f466e4c2-fcaa-4415-88b3-e561a60af811" x1="362.86" y1="291.93" x2="378.15" y2="291.93" gradientUnits="userSpaceOnUse">
      <stop offset="0" stop-color="#bbd0f2" stop-opacity="0.7"/>
      <stop offset="1" stop-color="#bbd0f2" stop-opacity="0.6"/>
    </linearGradient>
    <linearGradient id="fec59827-58b4-4361-84bc-40fa954efecc" x1="388.62" y1="291.93" x2="396.01" y2="291.93" xlink:href="#f466e4c2-fcaa-4415-88b3-e561a60af811"/>
    <linearGradient id="ce31a912-83ab-4073-9b37-5580da3885a2" x1="410.23" y1="291.93" x2="446.31" y2="291.93" gradientUnits="userSpaceOnUse">
      <stop offset="0" stop-color="#bbd0f2" stop-opacity="0.6"/>
      <stop offset="1" stop-color="#bbd0f2" stop-opacity="0.5"/>
    </linearGradient>
    <linearGradient id="ee7b6449-079a-4ff8-9987-d30d19471c7d" x1="534.52" y1="291.93" x2="573.86" y2="291.93" gradientUnits="userSpaceOnUse">
      <stop offset="0" stop-color="#bbd0f2" stop-opacity="0.5"/>
      <stop offset="1" stop-color="#bbd0f2" stop-opacity="0"/>
    </linearGradient>
    <linearGradient id="a7060058-1010-41ee-915e-36386ad381f6" x1="99.52" y1="291.93" x2="294.67" y2="291.93" gradientUnits="userSpaceOnUse">
      <stop offset="0" stop-color="#bbd0f2"/>
      <stop offset="1" stop-color="#bbd0f2" stop-opacity="0.7"/>
    </linearGradient>
    <linearGradient id="cbdadab2-524d-4211-9969-0e1d090e0b0e" x1="79.04" y1="-311.1" x2="90.04" y2="-311.1" gradientTransform="translate(96.36 551.79) rotate(-6.31)" gradientUnits="userSpaceOnUse">
      <stop offset="0" stop-color="#dfe9f8"/>
      <stop offset="1" stop-color="#e5f0ff"/>
    </linearGradient>
    <linearGradient id="2143f6fc-380c-4b7e-aad7-a99fb1b03c50" x1="46.54" y1="285.44" x2="55.32" y2="285.44" gradientTransform="matrix(1, 0, 0, 1, 0, 0)" xlink:href="#cbdadab2-524d-4211-9969-0e1d090e0b0e"/>
    <clipPath id="627698e1-17e8-40f7-87e7-92a11c71a3fe">
      <path d="M91.12,135s4.58,4.76,13.26,2.72C104.38,137.68,98.5,131.62,91.12,135Z" style="fill: none"/>
    </clipPath>
    <clipPath id="f5c0c56e-798d-43ed-bf40-ee513fd4beb0">
      <path d="M123.7,130.48s-2.12,5-9.36,6C114.33,136.45,117.06,130.09,123.7,130.48Z" style="fill: none"/>
    </clipPath>
    <linearGradient id="063dca34-d84e-4d88-9075-08c267a7d5e3" x1="9559.97" y1="235.08" x2="9584.17" y2="235.08" gradientTransform="matrix(-1, 0, 0, 1, 9766.15, 0)" gradientUnits="userSpaceOnUse">
      <stop offset="0" stop-color="#5333ed"/>
      <stop offset="0.18" stop-color="#4d4bea"/>
      <stop offset="0.57" stop-color="#3e89e2"/>
      <stop offset="1" stop-color="#2cd4d9"/>
    </linearGradient>
    <linearGradient id="d36b7be6-c680-435f-8e6d-1bccb3ac6a73" x1="9604.54" y1="251.71" x2="9622.39" y2="251.71" xlink:href="#063dca34-d84e-4d88-9075-08c267a7d5e3"/>
  </defs>
  <title>features-care</title>
  <g style="isolation: isolate">
    <g id="d210b734-b3a8-4981-8f43-b615d1b2901a" data-name="figures and interactions">
      <g>
        <line x1="301.65" y1="291.93" x2="306.51" y2="291.93" style="fill: none;stroke-linecap: round;stroke-linejoin: round;stroke: url(#03fa6460-7fbb-4eae-a435-f850b0cb9aa7)"/>
        <line x1="333.9" y1="291.93" x2="357.32" y2="291.93" style="fill: none;stroke-linejoin: round;stroke: url(#4ef963e5-b88a-4738-801a-6547c3d367cf)"/>
        <line x1="362.86" y1="291.93" x2="378.15" y2="291.93" style="fill: none;stroke-linejoin: round;stroke: url(#f466e4c2-fcaa-4415-88b3-e561a60af811)"/>
        <line x1="388.62" y1="291.93" x2="396.01" y2="291.93" style="fill: none;stroke-linejoin: round;stroke: url(#fec59827-58b4-4361-84bc-40fa954efecc)"/>
        <line x1="410.23" y1="291.93" x2="446.31" y2="291.93" style="fill: none;stroke-linejoin: round;stroke: url(#ce31a912-83ab-4073-9b37-5580da3885a2)"/>
        <line x1="534.52" y1="291.93" x2="573.86" y2="291.93" style="fill: none;stroke-linejoin: round;stroke: url(#ee7b6449-079a-4ff8-9987-d30d19471c7d)"/>
        <line x1="99.52" y1="291.93" x2="294.67" y2="291.93" style="fill: none;stroke-linejoin: round;stroke: url(#a7060058-1010-41ee-915e-36386ad381f6)"/>
        <g style="opacity: 0.5">
          <path d="M495.85,252.67c16.08,1.25,29.16,8,33.45,16.81" style="fill: none;stroke: #bbd0f2;stroke-linecap: round;stroke-linejoin: round"/>
          <path d="M451.52,269.47c4.29-8.83,17.36-15.55,33.43-16.8" style="fill: none;stroke: #bbd0f2;stroke-linecap: round;stroke-linejoin: round"/>
          <path d="M496.12,228.1c22.93,1.63,41,12.91,41,26.58,0,14.79-21.18,26.78-46.74,26.78s-46.71-12-46.71-26.78c0-13.47,17.52-24.61,40-26.5" style="fill: none;stroke: #bbd0f2;stroke-linecap: round;stroke-linejoin: round"/>
          <path d="M443.7,254.12,450,333.43h.08c.57,12.6,18.41,22.71,40.36,22.71S530.2,346,530.76,333.43h.08l6.31-79.32" style="fill: none;stroke: #bbd0f2;stroke-linecap: round;stroke-linejoin: round"/>
          <g>
            <path d="M495.86,137.31V99.54c0,1.74-2.44,3.15-5.45,3.15S485,101.28,485,99.54V266.18c0,1.74,2.44,3.15,5.45,3.15s5.45-1.41,5.45-3.15V152.46" style="fill: none;stroke: #bbd0f2;stroke-linecap: round;stroke-linejoin: round"/>
            <ellipse cx="490.41" cy="99.54" rx="5.45" ry="3.15" style="fill: #bbd0f2;stroke: #bbd0f2;stroke-miterlimit: 10"/>
          </g>
          <path d="M507.81,199.7V168.4H511v29.45l14.68-8.52h0a3,3,0,0,1,1.85-.55c1.26,0,2.28.59,2.28,1.32,0,.42-.35.79-.87,1l-18.45,10.75h0l-14.62,8.47v-3.74Z" style="fill: none;stroke: #bbd0f2;stroke-linecap: round;stroke-linejoin: round"/>
          <polyline points="471.85 221.12 484.95 228.72 484.95 224.99 474.05 218.67" style="fill: none;stroke: #bbd0f2;stroke-miterlimit: 10"/>
          <polyline points="465.69 120.68 471.23 117.47 484.96 125.47" style="fill: none;stroke: #bbd0f2;stroke-linecap: round;stroke-linejoin: round"/>
          <polyline points="439.86 99.15 468.03 115.61 462.41 118.87" style="fill: none;stroke: #bbd0f2;stroke-linecap: round;stroke-linejoin: round"/>
          <path d="M419.27,83.91c-1.26,0-2.46.59-2.46,1.32a1,1,0,0,0,.48.8" style="fill: none;stroke: #bbd0f2;stroke-linecap: round;stroke-linejoin: round"/>
          <polyline points="484.95 121.73 471.86 114.11 471.86 114.1 441.38 96.4" style="fill: none;stroke: #bbd0f2;stroke-linecap: round;stroke-linejoin: round"/>
          <path d="M473.09,123.07c-3.56-2.06-7.3-2.8-10-2.23-.5-2.9-3.18-6.25-7.19-8.57-4.92-2.84-10.19-3.18-12.65-1h0S426.41,126,431,148.8l1.85,7s.93,4.26,5.74,2.59,7.78-6.44,12.78-8.31,17.39-3.5,27.88-14.65h0a4,4,0,0,0,.55-.72C481.69,131.52,478.67,126.29,473.09,123.07Z" style="fill: none;stroke: #bbd0f2;stroke-linecap: round;stroke-linejoin: round"/>
          <path d="M463,120.65s-17.89,7-25.81,28.43c0,0-.85.91-.85-.84s5.72-18.76,25.8-28.8a1.68,1.68,0,0,1,1.69.21,3.78,3.78,0,0,1,.84,1,15.68,15.68,0,0,0-1.61.18Z" style="fill: #bbd0f2"/>
          <path d="M437.09,90.94a8.87,8.87,0,0,0-5.91-1.31c-.29-1.71-1.87-3.69-4.24-5.06-2.9-1.67-6-1.87-7.45-.59h0s-9.9,8.7-7.17,22.12l1.09,4.15s.55,2.51,3.38,1.53,4.59-3.79,7.53-4.9,10.25-2.06,16.43-8.63l0,0a2.34,2.34,0,0,0,.34-.41C442.16,95.93,440.38,92.84,437.09,90.94Z" style="fill: none;stroke: #bbd0f2;stroke-linecap: round;stroke-linejoin: round"/>
          <path d="M432.12,89.52a29.5,29.5,0,0,0-15.21,16.75s-.5.53-.5-.49,3.37-11.06,15.21-17a1,1,0,0,1,1,.12,2.23,2.23,0,0,1,.49.59,9.24,9.24,0,0,0-.95.11Z" style="fill: #bbd0f2"/>
          <path d="M467.51,207.2c-3.43-2-7-2.69-9.65-2.14-.48-2.79-3.06-6-6.92-8.24-4.73-2.73-9.8-3.05-12.16-1h0S422.61,210,427.06,232l1.78,6.77s.89,4.1,5.52,2.49,7.48-6.19,12.29-8,16.73-3.37,26.81-14.09h0a3.82,3.82,0,0,0,.53-.69C475.78,215.33,472.88,210.3,467.51,207.2Z" style="fill: none;stroke: #bbd0f2;stroke-linecap: round;stroke-linejoin: round"/>
          <path d="M459,204.91s-17.21,6.76-24.83,27.34c0,0-.82.87-.82-.8s5.5-18,24.82-27.7a1.61,1.61,0,0,1,1.63.2,3.64,3.64,0,0,1,.8,1,15.08,15.08,0,0,0-1.55.17Z" style="fill: #bbd0f2"/>
          <line x1="472.44" y1="176.52" x2="484.81" y2="183.69" style="fill: none;stroke: #bbd0f2;stroke-linecap: round;stroke-linejoin: round"/>
          <line x1="484.81" y1="181.33" x2="474.41" y2="175.35" style="fill: none;stroke: #bbd0f2;stroke-linecap: round;stroke-linejoin: round"/>
          <path d="M508.35,131.78h0c-1.45-1.27-4.55-1.08-7.45.59-2.37,1.37-3.95,3.34-4.24,5.06a8.87,8.87,0,0,0-5.91,1.31c-3.29,1.9-5.07,5-4,6.88a2.34,2.34,0,0,0,.34.41l0,0c6.18,6.57,13.48,7.53,16.43,8.63s4.69,3.92,7.53,4.9,3.38-1.53,3.38-1.53l1.09-4.15C518.25,140.48,508.35,131.78,508.35,131.78Z" style="fill: none;stroke: #bbd0f2;stroke-linecap: round;stroke-linejoin: round"/>
          <path d="M496.06,137.66a29.5,29.5,0,0,1,15.21,16.75s.5.53.5-.49-3.37-11.06-15.21-17a1,1,0,0,0-1,.12,2.23,2.23,0,0,0-.49.59,9.24,9.24,0,0,1,.95.11Z" style="fill: #bbd0f2"/>
          <ellipse cx="509.39" cy="168.4" rx="1.58" ry="0.91" style="fill: #bbd0f2;stroke: #bbd0f2;stroke-miterlimit: 10"/>
          <g>
            <path d="M443.05,176.86a1.69,1.69,0,0,0,.2.88c.74,1.27,3.12,1.27,5.33,0,1.7-1,2.79-2.44,2.86-3.63" style="fill: none;stroke: #bbd0f2;stroke-linecap: round;stroke-linejoin: round"/>
            <path d="M481.45,169.15c-.37-.32-3.28-2.07-8.61-5.13l-.15-.09c-5.86-3.36-12.27-4.2-18.1-.78l-5.75,3.37a11.65,11.65,0,0,0-5.72,9.12l-.08,1,.73-.95a5.35,5.35,0,0,1,7.22-1.83l.44.25,4.52,2.6,6.93,3.78c1.23,1.06,3.82.89,6.25-.51,2.64-1.52,4.09-3.94,3.43-5.55,1.08,1.36,3.91,1.3,6.55-.22S482.4,170,481.45,169.15Z" style="fill: none;stroke: #bbd0f2;stroke-linecap: round;stroke-linejoin: round"/>
          </g>
          <path d="M473,175.26s-14.68-11.08-22-9.92c0,0,0-.78,1.35-.79,0,0,4.75-2.28,21.56,10.15C474.1,174.86,474,175.61,473,175.26Z" style="fill: #bbd0f2"/>
          <g>
            <path d="M585.09,191.95l0,.39C585.12,192.21,585.11,192.08,585.09,191.95Z" style="fill: none;stroke: #bbd0f2;stroke-linecap: round;stroke-linejoin: round"/>
            <path d="M583.72,190.2A10.16,10.16,0,0,0,570,186.73l-.85.49c.15,2.28,2.23,5,5.46,6.9,4.19,2.42,8.72,2.42,10.12,0a3.18,3.18,0,0,0,.41-1.62Z" style="fill: none;stroke: #bbd0f2;stroke-linecap: round;stroke-linejoin: round"/>
            <path d="M585.14,192.5v-.16c0,.05,0,.1,0,.15Z" style="fill: none;stroke: #bbd0f2;stroke-linecap: round;stroke-linejoin: round"/>
            <path d="M529.75,190.89c.27,2.81,2.83,6.16,6.79,8.45,4.61,2.66,9.55,3,11.88,1l12.16-8.16,8.57-4.93.85-.49a10.16,10.16,0,0,1,13.72,3.47l1.42,2.29s0-.1,0-.15l0-.39-.15-1.82a22.13,22.13,0,0,0-10.87-17.33l-10.92-6.4c-11.07-6.49-23.25-4.9-34.38,1.49l-.28.16c-10.13,5.81-14.64,10.12-15.34,10.73-1.8,1.56-.86,6.53,4.44,9.59a17.06,17.06,0,0,0,5.84,2.13" style="fill: none;stroke: #bbd0f2;stroke-linecap: round;stroke-linejoin: round"/>
          </g>
          <path d="M529.67,189.84s26.45-21.71,40.15-19.52c0,0-.08-1.46-2.52-1.48,0,0-8.88-3.74-39.3,20C527.82,188.95,529.67,189.84,529.67,189.84Z" style="fill: #bbd0f2"/>
        </g>
        <polygon points="143.76 257.53 148.47 304.33 162.84 311.39 179.15 265.63 176.32 245.04 143.76 257.53" style="fill: #eba87c"/>
        <path d="M176.33,245l-7.39,2.84a33.61,33.61,0,0,1-5.09,2.95,31.58,31.58,0,0,1-10.09,2.88l-10,3.83,1.08,10.76c4.38,3,12.51,2.75,20.45-1,6-2.79,10.47-6.93,12.57-11Z" style="fill: #ffc398;opacity: 0.5;mix-blend-mode: multiply"/>
        <path d="M179.1,243.75c-.1-.66-1-9.24-1.25-9.85a3.85,3.85,0,0,0-1.07-1.4c-1.91,4.37-6.59,8.86-12.94,11.83-8.87,4.15-18,3.93-21.83-.19a3.24,3.24,0,0,0-1.47,3.43c.07.41,1.2,9.78,1.28,10.19a6.8,6.8,0,0,0,.4,1.08c2.71,5.79,13,6.68,23.07,2,8-3.75,13.38-9.91,13.85-15.2C179.11,245,179.1,244.38,179.1,243.75Z" style="fill: #150773"/>
        <path d="M156.83,316.5c10.54,2.45,23.56-17.42,28.63-57.61l-12-5.43s-20.74,27.12-24,40C148.2,298.63,146.29,314,156.83,316.5Z" style="fill: #ffc398"/>
        <path d="M120.62,325.57s-29.09,28-59,29.39S21.82,345,18,324.58l27-19s1.33,14.27,8.92,18c8.39,4.17,29.67,2.81,58.13-11C112.12,312.55,122.43,315.17,120.62,325.57Z" style="fill: #ffc398"/>
        <path d="M28.36,320.46c5.82-3.36,12.17-12.19,16.18-13.32,1.06,5.07,3.21,11.09,7.72,15.33-.78,4.64-7,11.33-13.45,15-3.26,1.88-10.88,3.25-15.59,2.48-2.84-5.19-3.32-7.77-5.19-15.41C20.48,323.62,24.21,322.86,28.36,320.46Z" style="fill: #ffc398;opacity: 0.5;mix-blend-mode: multiply"/>
        <path d="M124.49,269.08c7.39,12.8.93,23.18-21.23,36-5.85,3.38-25.76,13.18-25.76,13.18s-3.94,7.12-11.58,5.73c-7.2-1.31-13-4.06-16-9.27-7.39-12.8,4.59-33.55,26.75-46.34S117.1,256.28,124.49,269.08Z" style="fill: #0c022f"/>
        <g>
          <path d="M166.51,196.25a35.06,35.06,0,0,0-33.16-46.46,77.41,77.41,0,0,0-15.5,3.5c-18,6.64-44.43,20.87-60.68,28.54-12.21,5.76-24.09,14.85-30.41,22.8l-.07-.12-.83,1.12c-.18.24-.36.48-.54.73C13.55,222.42,2.39,284.77,12.61,322.47c-.92-5.11,3.73-12,11.52-16.54,8.91-5.15,18.55-5.14,21.52,0a6.42,6.42,0,0,1,.67,1.73A56,56,0,0,1,46.62,297s-.86,10.07,2.45,14A23.08,23.08,0,0,0,55.32,316a27.9,27.9,0,0,0,3.37,1.62c12,4.81,29.7,3,47.36-7.24,22.54-13,29.81-52.67,30.07-54.18C138.93,239.66,166.51,196.25,166.51,196.25Z" style="fill: #fff"/>
          <path d="M12.61,322.47c.1.38.2.75.31,1.13A6.64,6.64,0,0,1,12.61,322.47Z" style="fill: #dfe9f8"/>
          <path d="M46.51,309.39q-.12-.85-.2-1.73A7.32,7.32,0,0,1,46.51,309.39Z" style="fill: #dfe9f8"/>
          <path d="M24.12,305.92c8.91-5.15,18.55-5.14,21.52,0a6.42,6.42,0,0,1,.67,1.73q.07.88.2,1.73c0,4.93-4.51,11.07-11.62,15.17-8.91,5.15-18.55,5.14-21.52,0a6.33,6.33,0,0,1-.45-1c-.11-.37-.21-.75-.31-1.13C11.68,317.35,16.34,310.42,24.12,305.92Z" style="fill: #fff"/>
        </g>
        <path d="M155.58,232.37c9.32-4.36,18.92-3.54,21.44,1.84a6.42,6.42,0,0,1,.52,1.78q0,.88,0,1.74c-.44,4.91-5.44,10.64-12.88,14.12-9.32,4.36-18.92,3.54-21.44-1.84a6.33,6.33,0,0,1-.37-1c-.07-.38-.14-.76-.21-1.15C142.21,242.69,147.44,236.18,155.58,232.37Z" style="fill: #fff"/>
        <polygon points="167.64 178.49 177.03 234.21 142.9 249.01 136.48 213.34 167.64 178.49" style="fill: #fff"/>
        <path d="M141.47,240.7l8.59-21s.84,1.65-.15,5.57c-1.28,5.06-3.56,13.95-4.1,21.22a13.26,13.26,0,0,1-3.8-2.35Z" style="mix-blend-mode: multiply;fill: url(#cbdadab2-524d-4211-9969-0e1d090e0b0e)"/>
        <path d="M46.62,297s-1-27.24,7-42.12l.67,4.59c-2.89,13.72-6.59,35.58,1,56.58,0,0-5.52-3.63-6.93-6.08a18.19,18.19,0,0,1-1.76-7.13S46.44,298,46.62,297Z" style="mix-blend-mode: multiply;fill: url(#2143f6fc-380c-4b7e-aad7-a99fb1b03c50)"/>
        <path d="M50.19,307.17c-.17-.71-1.9-9.94-2.27-10.58a4.19,4.19,0,0,0-1.3-1.42c-1.67,4.92-6.33,10.23-12.94,14C24.43,314.55,14.53,315.15,10,311a3.53,3.53,0,0,0-1.27,3.86c.12.44,2.22,10.51,2.34,10.94a7.41,7.41,0,0,0,.53,1.14c3.48,6,14.78,6,25.23,0,8.34-4.81,13.6-12,13.63-17.79C50.32,308.53,50.24,307.85,50.19,307.17Z" style="fill: #150773"/>
        <path d="M84.12,260.53l2.16-37.71s2.24-25.06-18-36.53c-21-11.91-30.63,11.33-30.63,11.33" style="fill: none;stroke: #120667;stroke-linecap: round;stroke-miterlimit: 10;stroke-width: 4.5586234331131px"/>
        <path d="M31.24,199.7l4.62-4.19,9.28-6.9s7.3-4.7,14.59-3.19L42,209.21Z" style="fill: #fff"/>
        <path id="46536d16-88e6-4d8f-830d-f1a5b416430a" data-name="&lt;Path&gt;" d="M76.8,178.28l-.16-26.86L111,145.36l0,46.22C110.85,202.7,81.86,192.88,76.8,178.28Z" style="fill: #eba87c"/>
        <path d="M111,155.66c-1.87.39-4.4-1.25-6-1.2l-3.66.43a67.72,67.72,0,0,0-10.76,3.85c-4.33,2.17-11.62.46-13-4.67-.34-1.27-.6-2.57-.85-3.88l.1,16.88c.25.26.48.52.74.78,9.26,9.39,21.18,14.63,28.06,15.62a6.28,6.28,0,0,0,5.35-1.32Z" style="fill: #ffc398;opacity: 0.5;mix-blend-mode: multiply"/>
        <path d="M65.81,119.5l-4.2,24.79S61.26,149,64.2,150s13.33,2,13.33,2l3.16-28.83Z" style="fill: #2cd4d9"/>
        <circle cx="68.31" cy="152.56" r="5.41" style="fill: none;stroke: #5333ed;stroke-miterlimit: 10;stroke-width: 4.5586234331131px"/>
        <path d="M65.5,124a32.25,32.25,0,0,0,32.25,32.25c17.81,0,36.92-13.2,32.36-30.42-1.6-6-.59-13.79-4.18-17.53-7.83-8.16-16.07-16.55-28.18-16.55A32.25,32.25,0,0,0,65.5,124Z" style="fill: #2cd4d9"/>
        <path d="M76.11,135.48,87.2,106.64l36.34,2.64s4.79,33.1-4.25,53h0c-.11.25-.24.49-.37.73-4.08,7.07-17.31,7.07-29.54,0A29.47,29.47,0,0,1,75.18,144c-.25-1.19,1.35-.88,1.43-2,.1-1.4-2-4.66-2-4.66A8.79,8.79,0,0,1,76.11,135.48Z" style="fill: #ffc398"/>
        <path d="M105.34,132.13a.89.89,0,0,1-1.19.53,24.63,24.63,0,0,0-9.79-1.93,25.64,25.64,0,0,0-5.61,1,.63.63,0,0,1-.76-.83h0A3,3,0,0,1,90,129.05a26,26,0,0,1,7.71-.87c4.93.25,7.13,1.67,7.13,1.67l.29,1.14.22-1,.63.06Z" style="fill: #2cd4d9"/>
        <path d="M112.91,131.67a.63.63,0,0,0,1,.33,17.66,17.66,0,0,1,5.33-3.12,25.84,25.84,0,0,1,3.89-1,1,1,0,0,0,.75-1.29h0a1,1,0,0,0-.75-.65,11.75,11.75,0,0,0-4.91.51,11.08,11.08,0,0,0-4.76,2.88l-.08,1.35-.36-1.2-.64.14Z" style="fill: #2cd4d9"/>
        <g>
          <path d="M91.12,135s4.58,4.76,13.26,2.72C104.38,137.68,98.5,131.62,91.12,135Z" style="fill: #fff"/>
          <g style="clip-path: url(#627698e1-17e8-40f7-87e7-92a11c71a3fe)">
            <circle cx="101.05" cy="136.82" r="1.92" style="fill: #5333ed"/>
          </g>
          <path d="M104.38,137.17s-5.67-4.74-12.79-2.33" style="fill: none;stroke: #0c022f;stroke-linecap: round;stroke-linejoin: round;stroke-width: 0.91172468662262px"/>
        </g>
        <g>
          <path d="M123.7,130.48s-2.12,5-9.36,6C114.33,136.45,117.06,130.09,123.7,130.48Z" style="fill: #fff"/>
          <g style="clip-path: url(#f5c0c56e-798d-43ed-bf40-ee513fd4beb0)">
            <circle cx="120.5" cy="132.99" r="2.08" transform="translate(-39.57 51.85) rotate(-20.94)" style="fill: #5333ed"/>
          </g>
          <path d="M114.18,136.07s3-5.3,9.12-5.54" style="fill: none;stroke: #0c022f;stroke-linecap: round;stroke-linejoin: round;stroke-width: 0.91172468662262px"/>
        </g>
        <ellipse cx="76.13" cy="139.78" rx="1.4" ry="2.42" style="fill: #ffc398"/>
        <path d="M92.48,186a9.38,9.38,0,0,0-5.3-8.44h0c-.19-.09-2.33-1-2.44-2.33a9,9,0,0,1,.32-3.14h0a15.15,15.15,0,0,0-5.19-16.75l2.8-1.07-6.55-3.75s-4.35-3.4-9.17-2c0,0-3.36.24-9.2,10.73h0a15.17,15.17,0,0,0,10,23h0c5.36.73,5.88,3.93,5.88,3.93h0a9.37,9.37,0,0,0,4.4,7.7h0a2.78,2.78,0,0,1,1,2.7h0a5.21,5.21,0,1,0,9.59-.89h0a2.65,2.65,0,0,1,.65-2.78h0A9.35,9.35,0,0,0,92.48,186Z" style="fill: #2cd4d9"/>
        <path d="M92.47,186a9.38,9.38,0,0,0-5.3-8.44h0c-.19-.09-2.33-1-2.44-2.33a9,9,0,0,1,.32-3.14h0a15.17,15.17,0,0,0,.75-4.71,14.49,14.49,0,0,0-5.95-12c-2.77-1.91-2.67-3.74-3.75-4.82-.9-.9-1.93-1.5-4.65-2.09.1.07,2.56,1.79,2.67,3.74s-.08,3.4,1,5.12S79.31,165,80.11,175c0,0,.63,3.25,3.36,4s5.3,1.94,6.21,5.3S89.12,192,87.74,194a2.24,2.24,0,0,0-.06.81c.06.4.84,1.06,1.42,1.95a5.22,5.22,0,0,0-.4-1h0a2.65,2.65,0,0,1,.65-2.78h0A9.35,9.35,0,0,0,92.47,186Z" style="fill: #2cd4d9;mix-blend-mode: multiply"/>
        <path d="M70.5,133.73s-1.25,1.17-2.19,5,.41,5.87.2,7.14a5,5,0,0,1,3,.67,6.27,6.27,0,0,1,2.76,2.67,7.59,7.59,0,0,1,1-3Z" style="fill: #2cd4d9;mix-blend-mode: multiply"/>
        <path d="M112,109.45S103.37,122.91,82,135.67L79.53,134l29.21-27.32Z" style="fill: #ffc398;opacity: 0.5;mix-blend-mode: multiply"/>
        <path d="M79.06,136.93a9.48,9.48,0,0,0-3.76-4.2l-2.57-24.65,44.81-6.31,8,8-.72,23s-3-16.29-15.38-23.82C109.42,108.92,90.72,129,79.06,136.93Z" style="fill: #2cd4d9"/>
        <path d="M139.89,229.24c-1.8,20.54-6.55,49.09-15.4,65.92C112.6,317.78,69.55,324,69.55,324,76.08,322,78,296.56,81.84,258.75a270.41,270.41,0,0,0,34.42-13.31C133.63,237.28,139.89,229.24,139.89,229.24Z" style="fill: #120667"/>
        <path d="M136.7,237.16l.63-4.47,2.14-39s2.24-25.06-18-36.53" style="fill: none;stroke: #120667;stroke-linecap: round;stroke-miterlimit: 10;stroke-width: 4.5586234331131px"/>
        <path d="M110.87,151.72a67.73,67.73,0,0,0-10.76,3.85c-4.33,2.17-11.62.46-13-4.67S85.68,140.17,82,134.82l-2.41-1.36-.54,3.48s3.88,9.89-2.62,11.24c0,0,1.62,12.36,10.59,20.11s21.26,11,28.14,12c10.36,1.48,8.31-13.66,9.32-21,.47-3.45,2.86-13.89.18-23.75,0,0-.6,12.52-2.56,15.81-1.68,2.82-5.44-.1-7.58,0Z" style="fill: #2cd4d9"/>
        <path d="M117.63,155.89a3.28,3.28,0,0,0-.49,0h0a8.07,8.07,0,0,1-3,.06,3.37,3.37,0,0,1-1.2-.73.45.45,0,0,0-.7.08,4.49,4.49,0,0,1-1.37,1.28c-2.77,1.72-4.4,1.69-4.4,1.69a2.82,2.82,0,0,0-2.69,1.28,3.36,3.36,0,0,0,2.69,5.32,3.26,3.26,0,0,0,2.58-1.19,1.7,1.7,0,0,1,2.09-.41,3.36,3.36,0,0,0,2.29.37,3.22,3.22,0,0,0,1.85-1.48A.55.55,0,0,1,116,162a3.23,3.23,0,0,0,2.43.34,3.3,3.3,0,0,0-.8-6.5Z" style="fill: #ffc398"/>
        <path d="M116.93,157.32c.84.2.76,1.11,0,1.51a15.44,15.44,0,0,1-5.32,1.26,19.84,19.84,0,0,1-6.59-.17,28,28,0,0,0,5.28-1.29,9.69,9.69,0,0,1,4.11-.75A4.08,4.08,0,0,1,116.93,157.32Z" style="fill: #ffc398;opacity: 0.5;mix-blend-mode: multiply"/>
        <path d="M69.78,135.87A13.23,13.23,0,0,0,74.15,147c3,2.38,5.86,1.25,6.43-2.52a13.23,13.23,0,0,0-4.37-11.14C73.23,131,70.35,132.09,69.78,135.87Z" style="fill: #ffc398"/>
        <path d="M76.66,137.55s-2.08-1.89-3.55-3.2c-.79-.7-2,1.31-1.22,4,.28.95,1,4.49,3.12,6.24,0,0,.56.5.49,0-.15-1.1.65-1,.5-1.67a2.52,2.52,0,0,0-.59-1.09s-.61-.42-.68-2.07,1-2.42,1.4-2.42A.91.91,0,0,1,76.66,137.55Z" style="fill: #ffc398;opacity: 0.5;mix-blend-mode: multiply"/>
        <path d="M115.13,151c.38,1.69-1.69,2.23-4.26,1.93L110,139a.35.35,0,0,1,.67-.15C112.09,142.5,114.84,149.79,115.13,151Z" style="fill: #ffc398"/>
        <g>
          <g>
            <path d="M202.89,224.93h0a1.84,1.84,0,0,1,.45,2.62l-4.68,6.35c0,16.52-13.2,25-13.2,25s-11.21-3.46-11-6.09c0-.47,6.48-26.52,7-27.52s6.49-13,6.49-13l9.55-6.76a.36.36,0,0,1,.42.49,17.23,17.23,0,0,1-5.65,6.8l-4.09,10.88,5.37-10.22,7.53-7.24a.37.37,0,0,1,.52.42c-1,5.05-5.61,8.43-5.61,8.43l-2.47,9.33,2.47-3.17a1.44,1.44,0,0,1,1.71-.43l.46.2a2.27,2.27,0,0,1,1.06,3.22l-4.25,7.32,5.63-6.34A1.77,1.77,0,0,1,202.89,224.93Z" style="fill: #eba87c"/>
            <circle cx="194.09" cy="235.08" r="12.1" style="fill: url(#063dca34-d84e-4d88-9075-08c267a7d5e3)"/>
            <ellipse cx="200.82" cy="234.49" rx="0.26" ry="0.46" style="fill: #120667;opacity: 0.5"/>
            <ellipse cx="204.47" cy="232.39" rx="0.26" ry="0.46" style="fill: #120667;opacity: 0.5"/>
            <ellipse cx="201.65" cy="232.39" rx="0.34" ry="0.59" style="fill: #120667;opacity: 0.5"/>
            <ellipse cx="202.77" cy="229.72" rx="0.26" ry="0.46" style="fill: #120667;opacity: 0.5"/>
            <ellipse cx="198.52" cy="230.44" rx="0.34" ry="0.59" style="fill: #120667;opacity: 0.5"/>
            <ellipse cx="204.81" cy="235.08" rx="0.34" ry="0.59" style="fill: #120667;opacity: 0.5"/>
            <path d="M186.32,225.8s2.43,2.69,8.69,2.67a7.83,7.83,0,0,0,5.74,3.8c4.05.52,4.83-1,4.83-1a12.55,12.55,0,0,0-7-7.45C193.24,221.74,188.06,224,186.32,225.8Z" style="fill: #2cd4d9;mix-blend-mode: multiply"/>
            <path d="M174.25,250.93s.16-12.54,2.17-16.16c1.25-2.25,9.75-9.18,9.75-9.18l6.88-.91a.56.56,0,0,1,.53.88c-.86,1.14-2.79,2.94-6.73,3.95l-2.39,4.85s2.94,3.66,4.11,10.67c.06,18.8-9.41,19.31-15.45,12.58C170.75,255,174.25,250.93,174.25,250.93Z" style="fill: #ffc398"/>
            <path d="M195.1,229.45a7.87,7.87,0,0,1,.17-6.39l1.06-1.13,1.42,0a1.61,1.61,0,0,1,1.35,2.41l-3,5.14A.57.57,0,0,1,195.1,229.45Z" style="fill: #eba87c"/>
            <path d="M201.08,225a5.6,5.6,0,0,0-.53,5,.59.59,0,0,0,1,.09l1.79-2.95a1,1,0,0,0-.46-1.42Z" style="fill: #eba87c"/>
          </g>
          <ellipse cx="170.49" cy="287.69" rx="31.54" ry="18.07" style="fill: #0c022f"/>
          <ellipse cx="170.49" cy="301.93" rx="27.24" ry="15.73" style="fill: #2cd4d9"/>
          <path d="M139,287.31c0,10.05,14.11,18.2,31.52,18.2S202,297.37,202,287.31h.2l-4.43,53.51H143.21l-4.43-53.51Z" style="fill: #5333ed"/>
          <ellipse cx="170.49" cy="287.69" rx="31.22" ry="18.07" style="fill: none;stroke: #5333ed;stroke-miterlimit: 10;stroke-width: 0.907071884405797px"/>
          <g>
            <ellipse cx="231.65" cy="213.24" rx="3.41" ry="5.91" transform="matrix(0.5, -0.87, 0.87, 0.5, -68.85, 307.23)" style="fill: #120667"/>
            <path d="M236.09,213.55a6.86,6.86,0,0,0-9.25-2.34l-6.35,3.66-8.2,5.51c-1.57,1.36-4.9,1.14-8-.66-3.38-2-5.25-5-4.39-7.11-1.39,1.75-5,1.67-8.39-.29-3.57-2.06-4.21-5.42-3-6.47a57,57,0,0,1,10.35-7.24l.19-.11c7.51-4.31,15.72-5.38,23.19-1l7.37,4.31a14.93,14.93,0,0,1,7.33,11.69l.13,1.6Z" style="fill: #2cd4d9"/>
            <path d="M199.63,213.31s17.84-14.65,27.09-13.17c0,0-.06-1-1.7-1,0,0-6-2.53-26.52,13.47-.12.1-1.32.77-1.29,1.32s.6.54,1.28.15C198.64,214,199.29,213.57,199.63,213.31Z" style="fill: #120667"/>
          </g>
          <circle cx="152.69" cy="251.71" r="8.93" style="fill: url(#d36b7be6-c680-435f-8e6d-1bccb3ac6a73)"/>
          <path d="M156.09,243.46s1.66,3-.4,3.72-7.47,1.48-8.85,1.95a5,5,0,0,0-3.05,2.15,9.88,9.88,0,0,1,1.57-4.65,9.26,9.26,0,0,1,5.27-3.6A9.14,9.14,0,0,1,156.09,243.46Z" style="fill: #2cd4d9;mix-blend-mode: multiply"/>
          <rect x="193.55" y="216.02" width="1.07" height="8.71" style="fill: #120667"/>
          <ellipse cx="194.09" cy="224.72" rx="0.54" ry="0.31" style="fill: #120667"/>
          <rect x="152.15" y="236.02" width="1.07" height="8.71" style="fill: #120667"/>
          <ellipse cx="152.69" cy="244.73" rx="0.54" ry="0.31" style="fill: #120667"/>
          <ellipse cx="170.49" cy="340.41" rx="27.24" ry="15.73" style="fill: #5333ed"/>
          <ellipse cx="170.49" cy="295.45" rx="3.68" ry="2.12" style="fill: #5333ed"/>
          <rect x="166.81" y="183.04" width="7.36" height="112.41" transform="translate(340.98 478.49) rotate(-180)" style="fill: #5333ed"/>
          <ellipse cx="170.49" cy="183.04" rx="3.68" ry="2.12" style="fill: #120667"/>
          <rect x="184.88" y="198.85" width="2.13" height="22.13" style="fill: #5333ed"/>
          <ellipse cx="185.95" cy="220.98" rx="1.07" ry="0.62" style="fill: #5333ed"/>
          <ellipse cx="185.95" cy="198.85" rx="1.07" ry="0.62" style="fill: #120667"/>
          <polygon points="186.68 221.43 172.65 229.6 172.65 227.08 186.68 218.92 186.68 221.43" style="fill: #5333ed"/>
          <polygon points="199.35 214.04 185.33 222.21 185.33 219.69 196.92 212.96 199.35 214.04" style="fill: #5333ed"/>
          <ellipse cx="198.18" cy="213.48" rx="1.54" ry="0.89" style="fill: #5333ed"/>
          <polygon points="139.02 229.03 168.09 245.86 168.09 243.34 141.46 227.95 139.02 229.03" style="fill: #5333ed"/>
          <polygon points="186.57 267.56 186.57 267.55 220.91 247.55 223.35 248.63 187.92 269.28 187.92 269.28 173.89 277.45 173.89 274.93 186.57 267.56" style="fill: #5333ed"/>
          <ellipse cx="222.17" cy="248.06" rx="1.54" ry="0.89" style="fill: #5333ed"/>
          <g>
            <ellipse cx="237.5" cy="248.5" rx="1.8" ry="3.11" transform="translate(-96.46 329.93) rotate(-60)" style="fill: #120667"/>
            <path d="M239.84,248.66a3.61,3.61,0,0,0-4.87-1.23l-3.35,1.93-4.67,2.55c-.83.71-2.58.6-4.22-.35s-2.76-2.66-2.31-3.74c-.73.92-2.64.88-4.42-.15s-2.22-2.85-1.58-3.41c.25-.22,2.21-1.39,5.81-3.46l.1-.06c4-2.27,8.28-2.83,12.21-.53l3.88,2.27a7.86,7.86,0,0,1,3.86,6.15l.07.84Z" style="fill: #2cd4d9"/>
            <path d="M220.29,248.19s9.75-7.36,14.62-6.58c0,0,0-.52-.9-.52,0,0-3.15-1.52-14.31,6.74C219.56,247.92,219.62,248.42,220.29,248.19Z" style="fill: #120667"/>
          </g>
          <polygon points="185.94 269.22 196.08 275.09 196.08 272.57 188.01 267.91 185.94 269.22" style="fill: #5333ed"/>
          <g>
            <ellipse cx="199.64" cy="270.25" rx="7.88" ry="4.55" transform="translate(-108.38 136.03) rotate(-30)" style="fill: #2cd4d9"/>
            <ellipse cx="188.01" cy="277.54" rx="7.88" ry="4.55" transform="translate(-113.58 131.19) rotate(-30)" style="fill: #2cd4d9"/>
            <path d="M205.89,265.63s11.34,10,8.21,25.33l-1.25,4.75s-.62,2.87-3.87,1.75-5.25-4.34-8.62-5.61-11.73-2.36-18.81-9.88Z" style="fill: #2cd4d9"/>
            <path d="M192.54,272A33.77,33.77,0,0,1,210,291.14s.58.61.58-.56-3.86-12.66-17.41-19.43a1.13,1.13,0,0,0-1.14.14,2.55,2.55,0,0,0-.56.68,10.58,10.58,0,0,1,1.09.12Z" style="fill: #120667"/>
          </g>
          <path d="M226.95,251.91s-2-4.93-5.48-6.72a7.78,7.78,0,0,0-4.15.37,8.29,8.29,0,0,0-2.24,1.41,8.25,8.25,0,0,0,1.37.94l9.11,4.47S226.69,252.39,226.95,251.91Z" style="fill: #2cd4d9;mix-blend-mode: multiply"/>
          <g>
            <ellipse cx="218.22" cy="249.95" rx="4.64" ry="2.68" transform="translate(-95.74 142.6) rotate(-30)" style="fill: #2cd4d9"/>
            <ellipse cx="211.37" cy="254.25" rx="4.64" ry="2.68" transform="translate(-98.81 139.75) rotate(-30)" style="fill: #2cd4d9"/>
            <path d="M221.9,247.23s6.68,5.87,4.84,14.93L226,265a1.57,1.57,0,0,1-2.28,1c-1.91-.66-3.09-2.56-5.08-3.3s-6.91-1.39-11.08-5.82Z" style="fill: #2cd4d9"/>
            <path d="M214,251a19.9,19.9,0,0,1,10.26,11.3s.34.36.34-.33-2.27-7.46-10.26-11.45a.67.67,0,0,0-.67.08,1.5,1.5,0,0,0-.33.4,6.23,6.23,0,0,1,.64.07Z" style="fill: #120667"/>
          </g>
          <g>
            <ellipse cx="139.91" cy="226.38" rx="4.38" ry="7.58" transform="translate(-126.09 234.35) rotate(-60)" style="fill: #2cd4d9"/>
            <ellipse cx="151.09" cy="233.38" rx="4.38" ry="7.58" transform="translate(-126.57 247.54) rotate(-60)" style="fill: #2cd4d9"/>
            <path d="M133.89,221.93s-10.9,9.58-7.9,24.36l1.2,4.57s.6,2.76,3.73,1.68,5-4.18,8.29-5.39,11.28-2.27,18.09-9.5Z" style="fill: #2cd4d9"/>
            <path d="M146.74,228A32.48,32.48,0,0,0,130,246.47s-.55.59-.55-.54,3.71-12.17,16.74-18.69a1.09,1.09,0,0,1,1.1.14,2.46,2.46,0,0,1,.54.65,10.17,10.17,0,0,0-1,.12Z" style="fill: #120667"/>
          </g>
          <path d="M166.81,217.59V221s4.26-1.7,5.51-3.43a6,6,0,0,0,.84-4.3l-6.35,1.22Z" style="fill: #5333ed;mix-blend-mode: multiply"/>
          <g>
            <ellipse cx="162.08" cy="207.51" rx="2.68" ry="4.64" transform="translate(-98.67 244.12) rotate(-60)" style="fill: #2cd4d9"/>
            <ellipse cx="168.93" cy="211.8" rx="2.68" ry="4.64" transform="translate(-98.96 252.2) rotate(-60)" style="fill: #2cd4d9"/>
            <path d="M158.39,204.78s-6.68,5.87-4.84,14.93l.74,2.8a1.57,1.57,0,0,0,2.28,1c1.91-.66,3.09-2.56,5.08-3.3s6.91-1.39,11.08-5.82Z" style="fill: #2cd4d9"/>
            <path d="M166.26,208.52A19.9,19.9,0,0,0,156,219.82s-.34.36-.34-.33S157.93,212,165.92,208a.67.67,0,0,1,.67.08,1.5,1.5,0,0,1,.33.4,6.23,6.23,0,0,0-.64.07Z" style="fill: #120667"/>
          </g>
          <path d="M166.81,242.6v2.52l-1.62-.94a2,2,0,0,1-.34-1.4,1.06,1.06,0,0,1,1-.75Z" style="fill: #5333ed;mix-blend-mode: multiply"/>
          <path d="M174.17,226.19v2.52l1.74-1a1.65,1.65,0,0,0,0-1.24c-.28-.58-.62-.72-.91-.75Z" style="fill: #5333ed;mix-blend-mode: multiply"/>
          <path d="M174.17,274.77v2.52l1.74-1a1.65,1.65,0,0,0,0-1.24c-.28-.58-.62-.72-.91-.75Z" style="fill: #5333ed;mix-blend-mode: multiply"/>
          <ellipse cx="160.05" cy="251.28" rx="0.26" ry="0.46" style="fill: #120667;opacity: 0.5"/>
          <ellipse cx="158.15" cy="250.46" rx="0.26" ry="0.46" style="fill: #120667;opacity: 0.5"/>
          <ellipse cx="158.01" cy="246.59" rx="0.26" ry="0.46" style="fill: #120667;opacity: 0.5"/>
          <ellipse cx="158.15" cy="253.35" rx="0.32" ry="0.56" style="fill: #120667;opacity: 0.5"/>
          <ellipse cx="159.58" cy="248.22" rx="0.32" ry="0.56" style="fill: #120667;opacity: 0.5"/>
        </g>
        <path d="M151.95,281.73s-15.43,10.83-16.34,11.6-23.49,19.22-23.49,19.22l8.5,13s15.19-4,26.53-15.05l8.86-4.69s3.46,1,8.25-2.33L156.45,302l-12,4.58L156.62,298s8.25-1.41,10.34-8.18l-11.11,3.59-10.75,6.17,9.73-7.66s7.6.6,11.18-5.35l-13,1.39-11.15,6.77,13-9.89s6.34-1.34,7.28-6.23Z" style="fill: #ffc398"/>
        <path d="M105.34,132.13a.89.89,0,0,1-1.19.53,24.63,24.63,0,0,0-9.79-1.93,25.64,25.64,0,0,0-5.61,1,.63.63,0,0,1-.76-.83h0A3,3,0,0,1,90,129.05a26,26,0,0,1,7.71-.87c4.93.25,7.13,1.67,7.13,1.67l.29,1.14.22-1,.63.06Z" style="fill: #2cd4d9;mix-blend-mode: multiply"/>
        <path d="M112.91,131.67a.63.63,0,0,0,1,.33,17.66,17.66,0,0,1,5.33-3.12,25.84,25.84,0,0,1,3.89-1,1,1,0,0,0,.75-1.29h0a1,1,0,0,0-.75-.65,11.75,11.75,0,0,0-4.91.51,11.08,11.08,0,0,0-4.76,2.88l-.08,1.35-.36-1.2-.64.14Z" style="fill: #2cd4d9;mix-blend-mode: multiply"/>
        <g style="opacity: 0.5">
          <path d="M295.13,311c-8.95.7-16.23,4.44-18.61,9.36" style="fill: none;stroke: #bbd0f2;stroke-linecap: round;stroke-linejoin: round"/>
          <path d="M319.8,320.35c-2.39-4.92-9.66-8.65-18.61-9.35" style="fill: none;stroke: #bbd0f2;stroke-linecap: round;stroke-linejoin: round"/>
          <path d="M295,297.33c-12.76.91-22.83,7.18-22.83,14.79,0,8.23,11.79,14.9,26,14.9s26-6.67,26-14.9c0-7.49-9.75-13.7-22.23-14.75" style="fill: none;stroke: #bbd0f2;stroke-linecap: round;stroke-linejoin: round"/>
          <path d="M324.15,311.81l-3.49,44.14h0c-.32,7-10.24,12.64-22.46,12.64S276,363,275.71,355.95h0l-3.51-44.14" style="fill: none;stroke: #bbd0f2;stroke-linecap: round;stroke-linejoin: round"/>
          <g>
            <path d="M295.13,246.81v-21c0,1,1.36,1.75,3,1.75s3-.78,3-1.75v92.73c0,1-1.36,1.75-3,1.75s-3-.78-3-1.75V255.24" style="fill: none;stroke: #bbd0f2;stroke-linecap: round;stroke-linejoin: round"/>
            <ellipse cx="298.16" cy="225.79" rx="3.03" ry="1.75" style="fill: #bbd0f2;stroke: #bbd0f2;stroke-miterlimit: 10"/>
          </g>
          <path d="M288.48,281.52V264.11h-1.76v16.39l-8.17-4.74h0a1.68,1.68,0,0,0-1-.31c-.7,0-1.27.33-1.27.73,0,.23.19.44.49.57l10.27,6h0l8.13,4.71v-2.08Z" style="fill: none;stroke: #bbd0f2;stroke-linecap: round;stroke-linejoin: round"/>
          <polyline points="308.49 293.44 301.2 297.68 301.2 295.6 307.27 292.08" style="fill: none;stroke: #bbd0f2;stroke-miterlimit: 10"/>
          <polyline points="311.91 237.55 308.83 235.77 301.19 240.22" style="fill: none;stroke: #bbd0f2;stroke-linecap: round;stroke-linejoin: round"/>
          <polyline points="326.29 225.57 310.61 234.73 313.74 236.55" style="fill: none;stroke: #bbd0f2;stroke-linecap: round;stroke-linejoin: round"/>
          <path d="M337.75,217.09c.7,0,1.37.33,1.37.73a.57.57,0,0,1-.27.45" style="fill: none;stroke: #bbd0f2;stroke-linecap: round;stroke-linejoin: round"/>
          <polyline points="301.2 238.14 308.48 233.9 308.48 233.89 325.44 224.04" style="fill: none;stroke: #bbd0f2;stroke-linecap: round;stroke-linejoin: round"/>
          <path d="M307.8,238.88a8.4,8.4,0,0,1,5.58-1.24c.28-1.61,1.77-3.48,4-4.77,2.74-1.58,5.67-1.77,7-.56h0s9.35,8.21,6.77,20.89l-1,3.92s-.52,2.37-3.2,1.44-4.33-3.58-7.11-4.63-9.68-1.95-15.51-8.15h0a2.21,2.21,0,0,1-.3-.4C303,243.59,304.69,240.68,307.8,238.88Z" style="fill: none;stroke: #bbd0f2;stroke-linecap: round;stroke-linejoin: round"/>
          <path d="M313.41,237.54a27.85,27.85,0,0,1,14.36,15.82s.47.51.47-.47-3.18-10.44-14.36-16a.93.93,0,0,0-.94.12,2.11,2.11,0,0,0-.47.56,8.72,8.72,0,0,1,.9.1Z" style="fill: #bbd0f2"/>
          <path d="M327.83,221a4.94,4.94,0,0,1,3.29-.73,4.59,4.59,0,0,1,2.36-2.81c1.61-.93,3.34-1,4.15-.33h0a13.62,13.62,0,0,1,4,12.31l-.61,2.31a1.3,1.3,0,0,1-1.88.85c-1.58-.55-2.55-2.11-4.19-2.73s-5.7-1.15-9.14-4.8h0a1.3,1.3,0,0,1-.19-.23C325,223.78,326,222.06,327.83,221Z" style="fill: none;stroke: #bbd0f2;stroke-linecap: round;stroke-linejoin: round"/>
          <path d="M330.6,220.21a16.42,16.42,0,0,1,8.46,9.32s.28.3.28-.27-1.88-6.15-8.46-9.45a.55.55,0,0,0-.55.07,1.24,1.24,0,0,0-.27.33,5.14,5.14,0,0,1,.53.06Z" style="fill: #bbd0f2"/>
          <path d="M310.91,285.7a8.08,8.08,0,0,1,5.37-1.19c.27-1.55,1.7-3.35,3.85-4.59,2.63-1.52,5.45-1.7,6.77-.54h0s9,7.9,6.52,20.09l-1,3.77s-.5,2.28-3.07,1.39-4.16-3.45-6.84-4.45-9.31-1.88-14.92-7.84h0a2.13,2.13,0,0,1-.29-.38C306.3,290.23,307.92,287.43,310.91,285.7Z" style="fill: none;stroke: #bbd0f2;stroke-linecap: round;stroke-linejoin: round"/>
          <path d="M315.62,284.42a26.79,26.79,0,0,1,13.82,15.22s.46.49.46-.45-3.06-10-13.81-15.42a.9.9,0,0,0-.91.11,2,2,0,0,0-.45.54,8.39,8.39,0,0,1,.86.1Z" style="fill: #bbd0f2"/>
          <line x1="308.16" y1="268.63" x2="301.28" y2="272.62" style="fill: none;stroke: #bbd0f2;stroke-linecap: round;stroke-linejoin: round"/>
          <line x1="301.28" y1="271.3" x2="307.07" y2="267.98" style="fill: none;stroke: #bbd0f2;stroke-linecap: round;stroke-linejoin: round"/>
          <path d="M288.18,243.73h0c.81-.71,2.53-.6,4.15.33a4.59,4.59,0,0,1,2.36,2.81,4.94,4.94,0,0,1,3.29.73c1.83,1.06,2.82,2.77,2.21,3.83a1.3,1.3,0,0,1-.19.23h0c-3.44,3.65-7.5,4.19-9.14,4.8s-2.61,2.18-4.19,2.73a1.3,1.3,0,0,1-1.88-.85l-.61-2.31A13.62,13.62,0,0,1,288.18,243.73Z" style="fill: none;stroke: #bbd0f2;stroke-linecap: round;stroke-linejoin: round"/>
          <path d="M295,247a16.42,16.42,0,0,0-8.46,9.32s-.28.3-.28-.27,1.88-6.15,8.46-9.45a.55.55,0,0,1,.55.07,1.24,1.24,0,0,1,.27.33,5.14,5.14,0,0,0-.53.06Z" style="fill: #bbd0f2"/>
          <ellipse cx="287.6" cy="264.11" rx="0.88" ry="0.51" style="fill: #bbd0f2;stroke: #bbd0f2;stroke-miterlimit: 10"/>
          <g>
            <path d="M324.51,268.82a.94.94,0,0,1-.11.49c-.41.71-1.74.71-3,0a2.91,2.91,0,0,1-1.59-2" style="fill: none;stroke: #bbd0f2;stroke-linecap: round;stroke-linejoin: round"/>
            <path d="M303.14,264.53c.21-.18,1.82-1.15,4.79-2.85l.08,0c3.26-1.87,6.83-2.34,10.07-.44l3.2,1.87a6.48,6.48,0,0,1,3.18,5.08l0,.55-.4-.53a3,3,0,0,0-4-1l-.25.14-2.51,1.45-3.86,2.1c-.68.59-2.13.49-3.48-.29s-2.28-2.19-1.91-3.09c-.6.76-2.17.72-3.64-.12S302.62,265,303.14,264.53Z" style="fill: none;stroke: #bbd0f2;stroke-linecap: round;stroke-linejoin: round"/>
          </g>
          <path d="M307.86,267.93s8.17-6.17,12.25-5.52c0,0,0-.43-.75-.44,0,0-2.64-1.27-12,5.65C307.24,267.71,307.29,268.12,307.86,267.93Z" style="fill: #bbd0f2"/>
          <g>
            <path d="M245.47,277.21l0,.22C245.46,277.36,245.46,277.29,245.47,277.21Z" style="fill: none;stroke: #bbd0f2;stroke-linecap: round;stroke-linejoin: round"/>
            <path d="M246.24,276.24a5.65,5.65,0,0,1,7.63-1.93l.47.27c-.08,1.27-1.24,2.8-3,3.84-2.33,1.35-4.85,1.35-5.63,0a1.77,1.77,0,0,1-.23-.9Z" style="fill: none;stroke: #bbd0f2;stroke-linecap: round;stroke-linejoin: round"/>
            <path d="M245.45,277.52v-.09s0,.06,0,.08Z" style="fill: none;stroke: #bbd0f2;stroke-linecap: round;stroke-linejoin: round"/>
            <path d="M276.27,276.62c-.15,1.56-1.58,3.43-3.78,4.7-2.57,1.48-5.31,1.66-6.61.54l-6.77-4.54-4.77-2.74-.47-.27a5.65,5.65,0,0,0-7.63,1.93l-.79,1.28s0-.06,0-.08l0-.22.08-1a12.31,12.31,0,0,1,6-9.64l6.08-3.56c6.16-3.61,12.94-2.72,19.13.83l.16.09a47.06,47.06,0,0,1,8.54,6c1,.87.48,3.63-2.47,5.34a9.5,9.5,0,0,1-3.25,1.19" style="fill: none;stroke: #bbd0f2;stroke-linecap: round;stroke-linejoin: round"/>
          </g>
          <path d="M276.31,276S261.59,264,254,265.17c0,0,0-.81,1.4-.82,0,0,4.94-2.08,21.87,11.11C277.35,275.54,276.31,276,276.31,276Z" style="fill: #bbd0f2"/>
        </g>
        <g style="opacity: 0.5">
          <g>
            <path d="M357.93,278.12v.16C357.92,278.22,357.93,278.17,357.93,278.12Z" style="fill: none;stroke: #bbd0f2;stroke-linecap: round;stroke-linejoin: round"/>
            <path d="M358.09,279a1.32,1.32,0,0,1-.17-.67l.59-1a3.87,3.87,0,0,1,2.6-1.88" style="fill: none;stroke: #bbd0f2;stroke-linecap: round;stroke-linejoin: round"/>
            <path d="M357.91,278.34v-.07s0,0,0,.06Z" style="fill: none;stroke: #bbd0f2;stroke-linecap: round;stroke-linejoin: round"/>
            <path d="M377.45,266.44a18.59,18.59,0,0,1,3.51,1.5" style="fill: none;stroke: #bbd0f2;stroke-linecap: round;stroke-linejoin: round"/>
            <path d="M357.93,278.12l.06-.75a9.18,9.18,0,0,1,4.51-7.19l4.53-2.65a12.24,12.24,0,0,1,6.2-1.72" style="fill: none;stroke: #bbd0f2;stroke-linecap: round;stroke-linejoin: round"/>
            <path d="M381.08,277.6c-.11,1.17-1.31,2.71-2.95,3.66a7.54,7.54,0,0,1-1.67.63" style="fill: none;stroke: #bbd0f2;stroke-linecap: round;stroke-linejoin: round"/>
          </g>
          <path d="M380.93,277.24s-11-9-16.66-8.1c0,0,0-.61,1-.61,0,0,3.19-2.06,15.82,7.77C381.21,276.36,380.93,277.24,380.93,277.24Z" style="fill: #bbd0f2"/>
          <path d="M381.11,301.82c-6.67.52-12.1,3.31-13.88,7" style="fill: none;stroke: #bbd0f2;stroke-linecap: round;stroke-linejoin: round"/>
          <path d="M399.51,308.79c-1.78-3.67-7.2-6.45-13.87-7" style="fill: none;stroke: #bbd0f2;stroke-linecap: round;stroke-linejoin: round"/>
          <path d="M381,291.63c-9.51.68-17,5.36-17,11,0,6.14,8.79,11.11,19.39,11.11s19.38-5,19.38-11.11c0-5.59-7.27-10.21-16.57-11" style="fill: none;stroke: #bbd0f2;stroke-linecap: round;stroke-linejoin: round"/>
          <path d="M402.75,302.42l-2.6,32.91h0c-.24,5.23-7.64,9.42-16.74,9.42s-16.51-4.2-16.74-9.42h0L364,302.42" style="fill: none;stroke: #bbd0f2;stroke-linecap: round;stroke-linejoin: round"/>
          <g>
            <path d="M381.11,258.44V238.29c0,.72,1,1.31,2.26,1.31s2.26-.58,2.26-1.31v69.13c0,.72-1,1.31-2.26,1.31s-2.26-.58-2.26-1.31V265" style="fill: none;stroke: #bbd0f2;stroke-linecap: round;stroke-linejoin: round"/>
            <ellipse cx="383.37" cy="238.29" rx="2.26" ry="1.31" style="fill: #bbd0f2;stroke: #bbd0f2;stroke-miterlimit: 10"/>
          </g>
          <polyline points="371.39 248.94 381.11 254.62 381.11 253.07 376.15 250.2 376.15 237.22 374.84 237.22 374.84 249.44 372.07 247.86" style="fill: none;stroke: #bbd0f2;stroke-linecap: round;stroke-linejoin: round"/>
          <polyline points="391.07 288.73 385.63 291.89 385.63 290.33 390.16 287.71" style="fill: none;stroke: #bbd0f2;stroke-miterlimit: 10"/>
          <polyline points="393.63 247.06 391.33 245.73 385.63 249.05" style="fill: none;stroke: #bbd0f2;stroke-linecap: round;stroke-linejoin: round"/>
          <polyline points="404.35 238.13 392.66 244.96 394.99 246.31" style="fill: none;stroke: #bbd0f2;stroke-linecap: round;stroke-linejoin: round"/>
          <path d="M412.89,231.8c.52,0,1,.24,1,.55a.42.42,0,0,1-.2.33" style="fill: none;stroke: #bbd0f2;stroke-linecap: round;stroke-linejoin: round"/>
          <polyline points="385.64 247.5 391.07 244.34 391.07 244.33 403.71 236.99" style="fill: none;stroke: #bbd0f2;stroke-linecap: round;stroke-linejoin: round"/>
          <path d="M390.56,248.05a6.26,6.26,0,0,1,4.16-.92,5.81,5.81,0,0,1,3-3.55c2-1.18,4.23-1.32,5.25-.42h0s7,6.12,5.05,15.58l-.77,2.92a1.64,1.64,0,0,1-2.38,1.08c-2-.69-3.23-2.67-5.3-3.45s-7.22-1.45-11.57-6.08h0a1.65,1.65,0,0,1-.23-.3C387,251.56,388.24,249.39,390.56,248.05Z" style="fill: none;stroke: #bbd0f2;stroke-linecap: round;stroke-linejoin: round"/>
          <path d="M394.74,247a20.77,20.77,0,0,1,10.71,11.79s.35.38.35-.35-2.37-7.78-10.71-11.95a.7.7,0,0,0-.7.09,1.57,1.57,0,0,0-.35.42,6.5,6.5,0,0,1,.67.08Z" style="fill: #bbd0f2"/>
          <path d="M405.49,234.72a3.68,3.68,0,0,1,2.45-.54,3.42,3.42,0,0,1,1.76-2.1c1.2-.69,2.49-.78,3.09-.25h0a10.15,10.15,0,0,1,3,9.18l-.45,1.72a1,1,0,0,1-1.4.63c-1.18-.41-1.9-1.57-3.13-2s-4.25-.86-6.82-3.58h0a1,1,0,0,1-.14-.17C403.39,236.79,404.13,235.51,405.49,234.72Z" style="fill: none;stroke: #bbd0f2;stroke-linecap: round;stroke-linejoin: round"/>
          <path d="M407.55,234.13a12.24,12.24,0,0,1,6.31,7s.21.22.21-.2-1.4-4.59-6.31-7a.41.41,0,0,0-.41.05.93.93,0,0,0-.2.24,3.83,3.83,0,0,1,.39,0Z" style="fill: #bbd0f2"/>
          <path d="M392.87,283a6,6,0,0,1,4-.89,5.59,5.59,0,0,1,2.87-3.42c2-1.13,4.06-1.27,5-.4h0s6.71,5.89,4.86,15l-.74,2.81a1.58,1.58,0,0,1-2.29,1c-1.92-.67-3.1-2.57-5.1-3.32s-6.94-1.4-11.12-5.84h0a1.58,1.58,0,0,1-.22-.29C389.44,286.33,390.64,284.24,392.87,283Z" style="fill: none;stroke: #bbd0f2;stroke-linecap: round;stroke-linejoin: round"/>
          <path d="M396.39,282a20,20,0,0,1,10.3,11.34s.34.36.34-.33-2.28-7.49-10.3-11.49a.67.67,0,0,0-.67.08,1.51,1.51,0,0,0-.33.4,6.26,6.26,0,0,1,.64.07Z" style="fill: #bbd0f2"/>
          <polyline points="375.67 285.21 381.1 288.37 381.1 286.82 376.58 284.2" style="fill: none;stroke: #bbd0f2;stroke-miterlimit: 10"/>
          <path d="M373.87,279.44a6,6,0,0,0-4-.89,5.59,5.59,0,0,0-2.87-3.42c-2-1.13-4.06-1.27-5-.4h0s-6.71,5.89-4.86,15l.74,2.81a1.58,1.58,0,0,0,2.29,1c1.92-.67,3.1-2.57,5.1-3.32s6.94-1.4,11.12-5.84h0a1.58,1.58,0,0,0,.22-.29C377.3,282.82,376.09,280.73,373.87,279.44Z" style="fill: none;stroke: #bbd0f2;stroke-linecap: round;stroke-linejoin: round"/>
          <path d="M370.35,278.49a20,20,0,0,0-10.3,11.34s-.34.36-.34-.33S362,282,370,278a.67.67,0,0,1,.67.08,1.51,1.51,0,0,1,.33.4,6.26,6.26,0,0,0-.64.07Z" style="fill: #bbd0f2"/>
          <path d="M362.86,242.58h0c.6-.53,1.89-.45,3.09.25a3.42,3.42,0,0,1,1.76,2.1,3.68,3.68,0,0,1,2.45.54c1.37.79,2.1,2.07,1.65,2.86a1,1,0,0,1-.14.17h0c-2.56,2.72-5.59,3.12-6.82,3.58s-1.95,1.62-3.13,2a1,1,0,0,1-1.4-.63l-.45-1.72A10.15,10.15,0,0,1,362.86,242.58Z" style="fill: none;stroke: #bbd0f2;stroke-linecap: round;stroke-linejoin: round"/>
          <path d="M368,245a12.24,12.24,0,0,0-6.31,7s-.21.22-.21-.2,1.4-4.59,6.31-7a.41.41,0,0,1,.41.05.93.93,0,0,1,.2.24,3.83,3.83,0,0,0-.39,0Z" style="fill: #bbd0f2"/>
          <ellipse cx="375.5" cy="237.22" rx="0.66" ry="0.38" style="fill: #bbd0f2;stroke: #bbd0f2;stroke-miterlimit: 10"/>
          <g>
            <path d="M403.13,271.16a.7.7,0,0,1-.08.36c-.31.53-1.29.53-2.21,0a2.17,2.17,0,0,1-1.19-1.51" style="fill: none;stroke: #bbd0f2;stroke-linecap: round;stroke-linejoin: round"/>
            <path d="M387.2,268c.15-.13,1.36-.86,3.57-2.13l.06,0c2.43-1.39,5.09-1.74,7.51-.33l2.38,1.4a4.83,4.83,0,0,1,2.37,3.78l0,.41-.3-.39a2.22,2.22,0,0,0-3-.76l-.18.11-1.87,1.08-2.88,1.57a2.44,2.44,0,0,1-2.59-.21c-1.09-.63-1.7-1.63-1.42-2.3-.45.57-1.62.54-2.72-.09S386.8,268.3,387.2,268Z" style="fill: none;stroke: #bbd0f2;stroke-linecap: round;stroke-linejoin: round"/>
          </g>
          <path d="M390.71,270.49s6.09-4.6,9.13-4.11c0,0,0-.32-.56-.33,0,0-2-.95-8.95,4.21C390.25,270.33,390.29,270.64,390.71,270.49Z" style="fill: #bbd0f2"/>
          <g>
            <path d="M363.12,237.28v.09S363.12,237.31,363.12,237.28Z" style="fill: none;stroke: #bbd0f2;stroke-linecap: round;stroke-linejoin: round"/>
            <path d="M363.42,236.89a2.23,2.23,0,0,1,3-.76l.19.11a2.19,2.19,0,0,1-1.2,1.51c-.92.53-1.91.53-2.22,0a.7.7,0,0,1-.09-.36Z" style="fill: none;stroke: #bbd0f2;stroke-linecap: round;stroke-linejoin: round"/>
            <path d="M363.11,237.4v0Z" style="fill: none;stroke: #bbd0f2;stroke-linecap: round;stroke-linejoin: round"/>
            <path d="M375.26,237a2.77,2.77,0,0,1-1.49,1.85,2.45,2.45,0,0,1-2.61.21l-2.67-1.79-1.88-1.08-.19-.11a2.23,2.23,0,0,0-3,.76l-.31.5v-.12l0-.4a4.86,4.86,0,0,1,2.39-3.8l2.4-1.4c2.43-1.42,5.1-1.07,7.54.33l.06,0a18.56,18.56,0,0,1,3.37,2.35c.4.34.19,1.43-1,2.1a3.74,3.74,0,0,1-1.28.47" style="fill: none;stroke: #bbd0f2;stroke-linecap: round;stroke-linejoin: round"/>
          </g>
          <path d="M375.28,236.82s-5.8-4.76-8.81-4.28c0,0,0-.32.55-.32,0,0,1.95-.82,8.62,4.38C375.69,236.62,375.28,236.82,375.28,236.82Z" style="fill: #bbd0f2"/>
          <path d="M376.27,256.3h0c.6-.53,1.89-.45,3.09.25a3.42,3.42,0,0,1,1.76,2.1,3.68,3.68,0,0,1,2.45.54c1.37.79,2.1,2.07,1.65,2.86a1,1,0,0,1-.14.17h0c-2.56,2.72-5.59,3.12-6.82,3.58s-1.95,1.62-3.13,2a1,1,0,0,1-1.4-.63l-.45-1.72A10.15,10.15,0,0,1,376.27,256.3Z" style="fill: none;stroke: #bbd0f2;stroke-linecap: round;stroke-linejoin: round"/>
          <path d="M381.36,258.74a12.24,12.24,0,0,0-6.31,7s-.21.22-.21-.2,1.4-4.59,6.31-7a.41.41,0,0,1,.41.05.93.93,0,0,1,.2.24,3.83,3.83,0,0,0-.39,0Z" style="fill: #bbd0f2"/>
          <line x1="389.01" y1="270.52" x2="385.76" y2="272.71" style="fill: none;stroke: #bbd0f2;stroke-linecap: round;stroke-linejoin: round"/>
          <line x1="390.86" y1="270.97" x2="385.76" y2="274.42" style="fill: none;stroke: #bbd0f2;stroke-linecap: round;stroke-linejoin: round"/>
        </g>
        <path d="M115.13,151c.38,1.69-1.69,2.23-4.26,1.93L110,139a.35.35,0,0,1,.67-.15C112.09,142.5,114.84,149.79,115.13,151Z" style="fill: #ffc398;opacity: 0.5;mix-blend-mode: multiply"/>
      </g>
    </g>
  </g>
</svg>
