<svg xmlns="http://www.w3.org/2000/svg" width="64" height="64" viewBox="0 0 64 64">
  <title>features-extra-backup</title>
  <g style="isolation: isolate">
    <g id="d2764c1c-a834-4802-b096-7bc6a97d9a6b" data-name="figures and interactions">
      <g>
        <path d="M47.89,34.31a6.19,6.19,0,0,0-1,.09,9.5,9.5,0,0,0-5.3-4.67A12.1,12.1,0,1,0,17.9,34.58a6.17,6.17,0,1,0-1.79,12.08H48.36v0a6.17,6.17,0,0,0-.47-12.32Z" style="fill: none;stroke: #5333ed;stroke-linecap: round;stroke-linejoin: round;stroke-width: 3px"/>
        <g style="mix-blend-mode: multiply">
          <path d="M36.49,31.65l-8.14.09a1.07,1.07,0,0,1-1-1l0-3a1.07,1.07,0,0,1,1-1l8.14-.09-.09-8.19a1,1,0,0,1,1-1l3,0a1,1,0,0,1,1,1l.09,8.19,8.19-.09a1,1,0,0,1,1,1l0,3a1,1,0,0,1-1,1l-8.19.09.09,8.08a1,1,0,0,1-1,1l-3,0a1,1,0,0,1-1-1Z" style="fill: none;stroke: #2cd4d9;stroke-linecap: round;stroke-linejoin: round;stroke-width: 3px"/>
        </g>
      </g>
    </g>
  </g>
</svg>
