<svg xmlns="http://www.w3.org/2000/svg" xmlns:xlink="http://www.w3.org/1999/xlink" width="940" height="440" viewBox="0 0 940 440">
  <defs>
    <linearGradient id="e60b1d9a-4a39-4eda-80d5-bb8e07b588bd" x1="642.37" y1="341.82" x2="625.67" y2="360.34" gradientUnits="userSpaceOnUse">
      <stop offset="0" stop-color="#5333ed" stop-opacity="0.4"/>
      <stop offset="1" stop-color="#2cd4d9" stop-opacity="0"/>
    </linearGradient>
  </defs>
  <title>features-powerful</title>
  <g style="isolation: isolate">
    <g id="d422e420-86b8-4532-97e2-e73f5fa3d196" data-name="figures and interactions">
      <g>
        <polygon points="646.54 249.87 568.97 294.65 568.97 232.6 646.54 187.82 646.54 249.87" style="fill: none;stroke: #bbd0f2;stroke-miterlimit: 10"/>
        <polygon points="637.06 267.75 611.84 282.32 611.84 262.14 637.06 247.58 637.06 267.75" style="fill: none;stroke: #2cd4d9;stroke-miterlimit: 10"/>
        <line x1="879.69" y1="302.47" x2="481.41" y2="302.47" style="fill: none;stroke: #bbd0f2;stroke-miterlimit: 10"/>
        <path d="M752.35,256.27l-9.91,31.26s-8.28,22.65,9,35.37c16.89,12.44,61.9,37.21,61.9,37.21l10.75-11.5s-49.73-37-54.18-47.27c-2.87-6.62,10.26-34.07,10.26-34.07Z" style="fill: #ffc398"/>
        <path d="M751.58,258.7l-6.41,20.22a30,30,0,0,0,10.28,9.42,28.74,28.74,0,0,0,15,4.2c1.68-6.7,5.17-15.15,7.47-20.38-2.67-.95-6.48-1.84-10.67-4.26C761.44,264.54,755.85,260.36,751.58,258.7Z" style="fill: #ffc398;opacity: 0.5;mix-blend-mode: multiply"/>
        <path d="M769.38,260.81c-9.78-5.64-19-13.64-22.21-8-.34.6-2,9.23-2.12,9.9s-.13,1.27-.22,1.9c0,5.41,4.95,12.14,12.75,16.64,9.78,5.64,20.34,5.64,23.6,0a7,7,0,0,0,.5-1.07c.12-.41,2.08-9.82,2.19-10.23C784.88,264.34,777.92,265.74,769.38,260.81Z" style="fill: #5333ed;opacity: 0.5"/>
        <circle cx="839.02" cy="136.1" r="35.38" style="fill: #0c022f"/>
        <path id="5f0d29e4-73a8-4130-a3fa-186dba44020a" data-name="&lt;Path&gt;" d="M883.66,350.74c-7.29,12.62-30.84,12.66-52.61.09s-33.51-33-26.23-45.61l80.52,41.28A15.77,15.77,0,0,1,883.66,350.74Z" style="fill: #5333ed;opacity: 0.5"/>
        <g>
          <path d="M895.44,337.56a61.43,61.43,0,0,0-.35-11.72s.95,11-2.69,15.31a25.32,25.32,0,0,1-6.85,5.58c6.39,3.13,8.85-1.55,9.67-7.28A8,8,0,0,1,895.44,337.56Z" style="fill: none"/>
          <path d="M885.3,346.62l.26.12a25.32,25.32,0,0,0,6.85-5.58c3.63-4.27,2.69-15.31,2.69-15.31a61.43,61.43,0,0,1,.35,11.72,7,7,0,0,1,.73-1.9c3.26-5.65,13.83-5.65,23.6,0,8.54,4.93,13.65,12.53,12.63,18.14,11.21-41.35-1-109.73-13.94-127.36-.19-.27-.39-.53-.59-.8l-.91-1.23-.08.13c-6.94-8.71-20-18.68-33.35-25-17.83-8.41-46.8-24-66.56-31.3a84.91,84.91,0,0,0-17-3.84,38.46,38.46,0,0,0-36.37,51s30.25,47.62,33.33,65.8c.28,1.66.85,5.19.46,7.24-6.08,15.19,7.8,37.91,32.52,52.18,19.37,11.18,38.82,13.22,51.95,7.94C882.63,346.65,883.77,345.83,885.3,346.62Z" style="fill: #2cd4d9"/>
          <path d="M885.3,346.62c-1.54-.79-2.67,0-3.44,1.9a30.61,30.61,0,0,0,3.7-1.78Z" style="fill: #2cd4d9"/>
          <path d="M932.41,353.8c-.11.41-.22.83-.34,1.23A7.29,7.29,0,0,0,932.41,353.8Z" style="fill: #2cd4d9"/>
          <path d="M895.23,339.46q.13-.94.22-1.9A8,8,0,0,0,895.23,339.46Z" style="fill: #2cd4d9"/>
          <path d="M919.78,335.65c-9.78-5.64-20.34-5.64-23.6,0a7,7,0,0,0-.73,1.9q-.08,1-.22,1.9c0,5.41,4.95,12.14,12.75,16.64,9.78,5.64,20.34,5.64,23.6,0a7,7,0,0,0,.5-1.07c.12-.41.22-.82.34-1.23C933.42,348.19,928.32,340.58,919.78,335.65Z" style="fill: #2cd4d9"/>
        </g>
        <path d="M771.23,251.81c-9.78-5.64-20.34-5.64-23.6,0a7,7,0,0,0-.73,1.9q-.08,1-.22,1.9c0,5.41,4.95,12.14,12.75,16.64,9.78,5.64,20.34,5.64,23.6,0a7,7,0,0,0,.5-1.07c.12-.41.22-.82.34-1.23C784.88,264.34,779.77,256.74,771.23,251.81Z" style="fill: #2cd4d9"/>
        <polygon points="763.12 191.8 747.63 251.81 783.53 271.19 793.9 232.81 763.12 191.8" style="fill: #2cd4d9"/>
        <path d="M787.38,256.93l-11.9-21.86s-1.22,2.12.84,6.05c2.19,4.19,7.72,16.94,8.06,26.9Z" style="fill: #2cd4d9;mix-blend-mode: multiply"/>
        <path d="M826.3,189c-6.7,3.89-21.82,8-29.19,9.88a40.57,40.57,0,0,1,1.19-8.25l-3.7,8.81-1.36.32s9.44-27,10.41-64l44.5-17.85-1.86,60S831.24,186.11,826.3,189Z" style="fill: #0c022f"/>
        <path id="31fed0b4-3097-47b0-9bb5-a8743e12d2b2" data-name="&lt;Path&gt;" d="M862,200.17l.18-40.47-37.65-.15,0,55.22C824.66,226.95,856.45,216.18,862,200.17Z" style="fill: #eba87c"/>
        <path id="7936a66b-100f-4f5b-9b0c-f4d048e98598" data-name="&lt;Path&gt;" d="M862.15,172.82c-4.52,9-15.88,15.82-24.16,16.76a36.68,36.68,0,0,1-13.45-.57l0-23.6,37.65-2.79Z" style="fill: #ffc398;opacity: 0.5;mix-blend-mode: multiply"/>
        <path d="M862.93,188.29a11.73,11.73,0,0,0-.87-3.6l-1,1.92c-7.5,14.77-36.39,24-36.48,12.4a7.57,7.57,0,0,0-1.42,4.13c0,1.88,1.42,3.25,1.42,4.33,0,.88-1,2.17-1,3.67a8.29,8.29,0,0,0,1,3.62,4.79,4.79,0,0,0,1.06,3.13,5.57,5.57,0,0,0,.42,3.57l-17.84,14.27s-2.5,2.52-.64,4.38,3.25,1,4.25,1.46.17,2.83,2.92,5.17,6.2.63,6.47-.34l0-.06c-1.12,4-2,7.47-2.45,9.63,0,0,.1,2.81,3.86,3.23s3.87-1.72,5.47-2.06,2.86.77,5.58.62,3.38-2.19,3.57-3.68-4.44-18.25-4.19-29.75a5.61,5.61,0,0,0,3.68-5c9.64-2.17,22-9.78,25.27-19.21a9.78,9.78,0,0,0,.9-3.19c-.07-1.58-.88-2.48-.87-3.52S863.11,190.1,862.93,188.29Z" style="fill: #5333ed;opacity: 0.5"/>
        <path d="M837.82,315.9s-.37,29.81,15.14,52.19c16.86,24.33,56.95,31,73.95-13.06l-29-17s3,15.79-9,19.76c-7.61,2.52-18.58-2-29.84-20.2-7.83-12.67-5.33-30.58-5.33-30.58Z" style="fill: #ffc398"/>
        <path d="M828.59,240.81s-1.54,16.45-2,17.32c0,0,.89-.93,1.53-1a4.22,4.22,0,0,1,2.34.23l1.21.27s-1.77-9.08-2.14-14.45C829.46,242.55,828.82,238.37,828.59,240.81Z" style="fill: #5333ed;opacity: 0.5"/>
        <path d="M821.22,246.33l3.24-12s-3.61,8.09-9.2,12.78a5.64,5.64,0,0,0,2.88.77C819.65,247.81,821,247,821.22,246.33Z" style="fill: #5333ed;opacity: 0.5"/>
        <path d="M809.81,241.31a23.91,23.91,0,0,0,8.09-7s-4.37,5.84-5.37,8.76c0,0-.2-1.2-.57-1.45a1.55,1.55,0,0,0-.85-.27C810.49,241.33,810.23,241.4,809.81,241.31Z" style="fill: #5333ed;opacity: 0.5"/>
        <path d="M826,221.46a9,9,0,0,0,2.82,2.35,9.34,9.34,0,0,0-5.22-.43Z" style="fill: #5333ed;opacity: 0.5"/>
        <path d="M833.05,224.33a3.53,3.53,0,0,1-2,0s1.55,12.56,3.62,16.4A89,89,0,0,1,833.05,224.33Z" style="fill: #5333ed;opacity: 0.5"/>
        <path d="M862.18,192.5s-6.12,11.31-18.83,15.81c0,0,9.61-1.93,19.2-13A4.14,4.14,0,0,1,862.18,192.5Z" style="fill: #5333ed;opacity: 0.5"/>
        <path d="M826.26,208.31a19.29,19.29,0,0,0,12.72,1l-2.83,1.58s-5.87,2.14-9.49-1.89Z" style="fill: #5333ed;opacity: 0.5"/>
        <path d="M836.73,219.38a11.22,11.22,0,0,0-1.45-4.19s1.9,3,4,3.51C839.29,218.69,837.51,219.24,836.73,219.38Z" style="fill: #5333ed;opacity: 0.5"/>
        <path d="M831.09,214.15a4.24,4.24,0,0,0-3.23-.37c-2,.46-2.23,4.12-2.23,4.12A5.68,5.68,0,0,1,831.09,214.15Z" style="fill: #5333ed;opacity: 0.5"/>
        <path d="M895.1,325.84s1.09-29.87-7.72-46.2l-.73,5c3.17,15.05,7.23,39-1.09,62.06,0,0,6.06-4,7.61-6.67,0,0,1.5-2.57,1.93-7.82C895.09,332.25,895.3,327,895.1,325.84Z" style="fill: #2cd4d9;mix-blend-mode: multiply"/>
        <g id="5256f375-9c66-4096-8b66-6dbe3e98452b" data-name="&lt;Group&gt;">
          <path id="38e3b543-c19c-4542-b3d4-de538e7fd8a4" data-name="&lt;Path&gt;" d="M850.33,307.4s-15.63,4.77-13.72.12c2.85-6.93-.48-9.91-1-14.74a38.06,38.06,0,0,1,.48-10.12l-1-10.85s5.48.35,5.27,9.39l9.63,14Z" style="fill: #eba87c"/>
          <g id="936beecc-ccc3-47f7-b066-e0c0a598bee6" data-name="&lt;Group&gt;">
            <ellipse id="85c2077f-1647-4b7e-b00c-c7c2277cd634" data-name="&lt;Path&gt;" cx="813.38" cy="281.87" rx="10.58" ry="6.11" style="fill: #dfe9f8"/>
            <ellipse id="910c06d7-2644-4630-97c8-c54e1ed53a48" data-name="&lt;Path&gt;" cx="813.38" cy="281.87" rx="10.58" ry="6.11" style="fill: #dfe9f8;mix-blend-mode: multiply"/>
            <path id="2c762610-3691-4738-b564-85e3b5dc6c08" data-name="&lt;Path&gt;" d="M825.69,277.07a13,13,0,0,0,5.66,1.2c4.82,0,8.73-2.26,8.73-5s-3.91-5-8.73-5" style="fill: none;stroke: #fff;stroke-miterlimit: 10;stroke-width: 3.78665080753043px"/>
            <path id="cd85f7c7-86bd-44c6-a167-f9c2ca8073fb" data-name="&lt;Path&gt;" d="M813.38,256.34c10.47,0,19,4.9,19,10.94,0,0,1.14,11.61-12.37,16.32h-.07a16.62,16.62,0,0,1-13,0h-.07s-12.36-5-12.36-16.32C794.43,261.24,802.91,256.34,813.38,256.34Z" style="fill: #dfe9f8"/>
            <ellipse id="b5da4ee9-ff91-42fa-af92-59f078f8ff46" data-name="&lt;Path&gt;" cx="813.38" cy="266.3" rx="18.49" ry="10.68" style="fill: #fff"/>
            <ellipse id="d008dfb1-11be-4c28-a1f2-6cd6655571e7" data-name="&lt;Path&gt;" cx="813.38" cy="266.3" rx="12.54" ry="7.24" style="fill: #dfe9f8;mix-blend-mode: multiply"/>
          </g>
          <path id="e85002e9-ca5a-42ad-ae43-75295ea1ee2a" data-name="&lt;Path&gt;" d="M823.73,276.65l12.06-1.93a2.09,2.09,0,0,1,.88,0l16,4.38-7.08-7.35a38.51,38.51,0,0,1-5.28,1.43c-2.37.31-3.9-.05-4.75-.8a1,1,0,0,1,.35-1.71l9.84-3.32a2.09,2.09,0,0,1,2,.36L857.87,276a7.6,7.6,0,0,1,1.81,2.66c1.9,3.78,2.9,9.81,2.53,12.75-2,16.06-11.37,24.24-17,26.12a7.11,7.11,0,0,1-8.9-3.9q-.12-.31-.22-.64c-.54-1.88-.13-6.23,2.79-8.13,3.76-2.44,7.36-7.18,5.5-8.47l-8.76-4.81a24.4,24.4,0,0,1-4.28-.16,4.56,4.56,0,0,1-2.55-1.4A.56.56,0,0,1,829,289l6.07-1.37a2.09,2.09,0,0,1,1,0l11.52,3.08-13-6.46s-2.8-.46-9.26-2.08c-2.29-.58-3.48-2.06-3.68-3.48a.56.56,0,0,1,.66-.62L835,280.26l.25.06,14.43,4.34L835,278.5s-9.35,1.8-11.58-.93A.57.57,0,0,1,823.73,276.65Z" style="fill: #ffc398"/>
        </g>
        <path d="M862.75,148.7,865,120h-54.3s-5.25,36.31,4.66,58.11h0c.12.27.26.54.41.8,4.48,7.75,19,7.75,32.41,0a32.33,32.33,0,0,0,15.56-20.78c.28-1.3-1.48-1-1.57-2.18-.11-1.53,2.21-5.11,2.21-5.11A9.64,9.64,0,0,0,862.75,148.7Z" style="fill: #ffc398"/>
        <path d="M869.7,149.13a14.51,14.51,0,0,1-4.79,12.22c-3.27,2.61-6.43,1.37-7.05-2.77a14.51,14.51,0,0,1,4.79-12.22C865.92,143.75,869.08,145,869.7,149.13Z" style="fill: #ffc398"/>
        <path d="M874.4,136.1s3.15,40.48,5.12,47.35c1,3.32-2.14,8.57-5.62,12.79a8.55,8.55,0,0,0-1-2.85l.12,3.79c-.32.36-1.12,1.2-1.45,1.56l-.6-8.58s-.34,9.53-.72,9.9c-6.71,6.61-21.12,11.41-21.12,11.41s9.09-26.77,13-48.26a3.85,3.85,0,0,1,.24-.57s3.83-.79,6.23-6.47a13.49,13.49,0,0,0,1.1-6.82Z" style="fill: #0c022f"/>
        <path d="M806,265.72a10.76,10.76,0,0,0,4.86-1.3,8.65,8.65,0,0,1,7,.25c3,1.83,4,.82,5.58,1.63,1,.54,2,2.07,1.78,2.37-.81,1.28-3.7,4.68-11.84,4.87a18.37,18.37,0,0,1-8.57-2,9.65,9.65,0,0,1-3-2.5C801.42,268.56,802.79,266,806,265.72Z" style="fill: #150773"/>
        <ellipse cx="862.74" cy="153.42" rx="1.53" ry="2.65" style="fill: #ffc398"/>
        <path d="M862.16,151s2.28-2.07,3.9-3.51c.87-.77,2.2,1.43,1.33,4.41-.3,1-1.12,4.92-3.42,6.85,0,0-.62.54-.54,0,.17-1.2-.71-1.12-.55-1.83a2.76,2.76,0,0,1,.64-1.2s.67-.46.75-2.27-1.08-2.65-1.53-2.65A1,1,0,0,0,862.16,151Z" style="fill: #ffc398;opacity: 0.5;mix-blend-mode: multiply"/>
        <path d="M820.25,345.22l24.39,15.71,15.16,13.7s3.58,5.72,5.29,8.26a.41.41,0,0,1-.43.62c-1.44-.36-4.33-1.59-7.49-5.84L842.52,367l14.83,13.21,5.24,6.1a.36.36,0,0,1-.37.58c-1.57-.49-4.8-1.88-9.56-5.87a102.24,102.24,0,0,0-13.77-9.19s14.43,11.34,19.47,14.84a.48.48,0,0,1-.17.86,9.15,9.15,0,0,1-4.77-.63c-3.94-1.43-20.2-12.16-20.2-12.16l6.88,6.94,3.17,5.13a.55.55,0,0,1-.63.82,9.82,9.82,0,0,1-5.6-4.25s-9.18-8-14.45-10.19-15.41-16.85-15.41-16.85Z" style="fill: #ffc398"/>
        <path d="M820,164.4c-.42,1.85,1.85,2.45,4.67,2.12l.93-15.33a.38.38,0,0,0-.73-.16C823.29,155,820.27,163,820,164.4Z" style="fill: #ffc398;opacity: 0.5;mix-blend-mode: multiply"/>
        <path d="M830.65,145.09a.9.9,0,0,0,1.19.54,24.67,24.67,0,0,1,9.81-1.93,22.09,22.09,0,0,1,6.13,1.31l-.31-2.3a30.86,30.86,0,0,0-9.19-1,20.05,20.05,0,0,0-7.31,1.44l-.14.81-.09-.72-.62.25Z" style="fill: #0c022f"/>
        <path d="M822.41,144.54a.66.66,0,0,1-1.1.35,13.74,13.74,0,0,0-5.44-3.2,21.75,21.75,0,0,0-5.22-.75v-1.06a10,10,0,0,1,6.73-.18c1.2.33,3.41,1,4.47,2.44l0,1.33.28-1.17.66.28Z" style="fill: #0c022f"/>
        <path d="M915.13,351.6c-6.38-3.68-12.51-8.37-16.9-9.61,0,4.55-1,11.78-7.5,15,.86,5.09,5.54,11,12.59,15A31.87,31.87,0,0,0,914,376c4.8-4.84,9.08-11.38,12.48-19.85C923.78,355.06,919.68,354.23,915.13,351.6Z" style="fill: #ffc398;opacity: 0.5;mix-blend-mode: multiply"/>
        <path d="M917.49,344.76c-9.78-5.64-19-13.64-22.21-8-.34.6-2,9.23-2.12,9.9s-.13,1.27-.22,1.9c0,5.41,4.95,12.14,12.75,16.64,9.78,5.64,20.34,5.64,23.6,0a7,7,0,0,0,.5-1.07c.12-.41,2.08-9.82,2.19-10.23C933,348.3,926,349.69,917.49,344.76Z" style="fill: #5333ed;opacity: 0.5"/>
        <path d="M919.78,335.65c-9.78-5.64-20.34-5.64-23.6,0a7,7,0,0,0-.73,1.9q-.08,1-.22,1.9c0,5.41,4.95,12.14,12.75,16.64,9.78,5.64,20.34,5.64,23.6,0a7,7,0,0,0,.5-1.07c.12-.41.22-.82.34-1.23C933.42,348.19,928.32,340.58,919.78,335.65Z" style="fill: #2cd4d9"/>
        <path d="M815.53,123.88s11.7,19.55,43.35,27.81l2.33-4.56-42.43-30.8Z" style="fill: #ffc398;opacity: 0.5;mix-blend-mode: multiply"/>
        <path d="M809.35,143.31s.05-10.45,8.55-23.35c0,0,14.61,23.9,42.18,29.38a23.94,23.94,0,0,1,3.18-3.42l4-9.42-.71-18.62-55.5-.9-4.19,20.33Z" style="fill: #0c022f"/>
        <path d="M816.73,117.88s3,14.31,22.29,25.81l.71-.17a52.8,52.8,0,0,1-19.14-19.77l.14-1.73Z" style="fill: #0c022f"/>
        <path d="M821.57,171.65a1,1,0,0,0,.19,1.86,16.48,16.48,0,0,0,6.09.34,14.5,14.5,0,0,0,6.42-1.92,29.61,29.61,0,0,1-6-.18c-1.08-.29-3.14-.52-4.12.21A3.22,3.22,0,0,0,821.57,171.65Z" style="fill: #ffc398;mix-blend-mode: multiply"/>
        <path d="M846.76,149.08s-5,5.22-14.54,3C832.22,152.07,838.67,145.43,846.76,149.08Z" style="fill: #fff"/>
        <circle cx="836.01" cy="150.91" r="1.71" style="fill: #0c022f"/>
        <path d="M832.22,151.51s6.22-5.2,14-2.56" style="fill: none;stroke: #0c022f;stroke-linecap: round;stroke-linejoin: round;stroke-width: 1.34470964266571px"/>
        <path d="M810.57,144.45s2.32,5.47,10.27,6.56C820.84,151,817.84,144,810.57,144.45Z" style="fill: #fff"/>
        <circle cx="813.44" cy="146.4" r="1.4" transform="translate(385.97 853.79) rotate(-69.06)" style="fill: #0c022f"/>
        <path d="M821,150.59s-3.25-5.81-10-6.08" style="fill: none;stroke: #0c022f;stroke-linecap: round;stroke-linejoin: round;stroke-width: 1.10384676872233px"/>
        <path d="M840,152.41a13.36,13.36,0,0,0,6.65-3.23" style="fill: none;stroke: #0c022f;stroke-linecap: round;stroke-linejoin: round;stroke-width: 0.5px"/>
        <path d="M810.83,144.85a11.62,11.62,0,0,0,4.07,4.09" style="fill: none;stroke: #0c022f;stroke-linecap: round;stroke-linejoin: round;stroke-width: 0.5px"/>
        <polygon points="524.69 298.42 586.46 334.08 586.46 284.67 524.69 249 524.69 298.42" style="fill: none;stroke: #5333ed;stroke-miterlimit: 10"/>
        <polygon points="371.1 303.56 481.41 367.24 481.41 266.73 371.1 203.05 371.1 303.56" style="fill: none;stroke: #bbd0f2;stroke-miterlimit: 10;opacity: 0.8"/>
        <polygon points="190.34 261.96 397.57 381.6 397.57 192.79 190.34 73.15 190.34 261.96" style="fill: none;stroke: #bbd0f2;stroke-miterlimit: 10;opacity: 0.6000000000000001"/>
        <g>
          <path d="M687.28,239.25v54.18L617.33,334.5V278.33A2.73,2.73,0,0,1,618.7,276l66.09-38.16A1.66,1.66,0,0,1,687.28,239.25Z" style="fill: #43414e"/>
          <path d="M729.12,323.22l-67.31,38.89a3.37,3.37,0,0,1-3.38,0l-41.1-24v-3.93l69.79-40.88,42.63,25.39v2.62C729.75,322.58,729.51,323,729.12,323.22Z" style="fill: #43414e"/>
          <path d="M729.12,319.9l-67.31,38.86a3.37,3.37,0,0,1-3.37,0l-40.56-23.54a1.1,1.1,0,0,1,0-1.9l68.67-39.65a1.14,1.14,0,0,1,1.15,0l41.43,24A1.26,1.26,0,0,1,729.12,319.9Z" style="fill: #6e7075"/>
          <path d="M705.15,330.2l-22.07,12.74a4,4,0,0,1-4,0l-12.13-7a1.37,1.37,0,0,1,0-2.37L689,320.79a4,4,0,0,1,4,0l12.13,7A1.37,1.37,0,0,1,705.15,330.2Z" style="fill: #84828e"/>
          <polygon points="689.73 318.66 663.62 333.73 659.53 331.39 685.64 316.31 689.73 318.66" style="fill: #43414e"/>
          <polygon points="687.85 315.03 691.49 312.93 695.57 315.28 691.94 317.37 687.85 315.03" style="fill: #43414e"/>
          <polygon points="694.58 305.09 699.74 302.13 703.82 304.48 698.67 307.43 694.58 305.09" style="fill: #43414e"/>
          <polygon points="683.91 298.95 689.07 295.99 693.15 298.34 688 301.29 683.91 298.95" style="fill: #43414e"/>
          <polygon points="633.22 340.31 640.52 336.14 644.6 338.49 637.3 342.66 633.22 340.31" style="fill: #43414e"/>
          <polygon points="628.03 337.14 637.51 331.8 641.59 334.15 632.11 339.49 628.03 337.14" style="fill: #43414e"/>
          <polygon points="622.71 334.28 630.01 330.11 634.09 332.46 626.79 336.63 622.71 334.28" style="fill: #43414e"/>
          <polygon points="697.44 309.53 701.08 307.43 705.16 309.78 701.53 311.88 697.44 309.53" style="fill: #43414e"/>
          <polygon points="692.62 312.31 696.26 310.21 700.34 312.56 696.71 314.66 692.62 312.31" style="fill: #43414e"/>
          <polygon points="670.46 318.84 674.1 316.74 678.18 319.09 674.55 321.18 670.46 318.84" style="fill: #43414e"/>
          <polygon points="689.73 307.75 693.37 305.65 697.44 308 693.81 310.1 689.73 307.75" style="fill: #43414e"/>
          <polygon points="684.91 310.54 688.54 308.44 692.62 310.79 688.99 312.88 684.91 310.54" style="fill: #43414e"/>
          <polygon points="680.05 313.34 683.69 311.24 687.77 313.59 684.14 315.69 680.05 313.34" style="fill: #43414e"/>
          <polygon points="675.23 316.12 678.87 314.02 682.95 316.37 679.32 318.47 675.23 316.12" style="fill: #43414e"/>
          <polygon points="646.5 332.71 650.14 330.61 654.22 332.96 650.59 335.06 646.5 332.71" style="fill: #43414e"/>
          <polygon points="641.74 335.47 645.38 333.37 649.46 335.72 645.83 337.81 641.74 335.47" style="fill: #43414e"/>
          <polygon points="665.77 321.63 669.4 319.53 673.48 321.88 669.85 323.98 665.77 321.63" style="fill: #43414e"/>
          <polygon points="660.95 324.41 664.58 322.31 668.66 324.66 665.03 326.76 660.95 324.41" style="fill: #43414e"/>
          <polygon points="656.09 327.22 659.73 325.12 663.81 327.47 660.18 329.56 656.09 327.22" style="fill: #43414e"/>
          <polygon points="651.27 330 654.91 327.9 658.99 330.25 655.36 332.35 651.27 330" style="fill: #43414e"/>
          <polygon points="667.6 314.47 671.24 312.37 675.32 314.72 671.68 316.82 667.6 314.47" style="fill: #43414e"/>
          <polygon points="686.86 303.39 690.5 301.29 694.58 303.64 690.95 305.74 686.86 303.39" style="fill: #43414e"/>
          <polygon points="682.04 306.18 685.68 304.07 689.76 306.43 686.13 308.52 682.04 306.18" style="fill: #43414e"/>
          <polygon points="677.19 308.98 680.83 306.88 684.91 309.23 681.28 311.33 677.19 308.98" style="fill: #43414e"/>
          <polygon points="672.37 311.76 676.01 309.66 680.09 312.01 676.46 314.11 672.37 311.76" style="fill: #43414e"/>
          <polygon points="643.64 328.35 647.28 326.25 651.36 328.6 647.73 330.7 643.64 328.35" style="fill: #43414e"/>
          <polygon points="638.88 331.11 642.52 329.01 646.6 331.36 642.97 333.45 638.88 331.11" style="fill: #43414e"/>
          <polygon points="662.9 317.27 666.54 315.17 670.62 317.52 666.99 319.62 662.9 317.27" style="fill: #43414e"/>
          <polygon points="658.08 320.05 661.72 317.95 665.8 320.3 662.17 322.4 658.08 320.05" style="fill: #43414e"/>
          <polygon points="653.23 322.86 656.87 320.76 660.95 323.11 657.32 325.2 653.23 322.86" style="fill: #43414e"/>
          <polygon points="648.41 325.64 652.05 323.54 656.13 325.89 652.5 327.99 648.41 325.64" style="fill: #43414e"/>
          <polygon points="659.86 312.79 663.49 310.69 667.57 313.04 663.94 315.14 659.86 312.79" style="fill: #43414e"/>
          <polygon points="679.12 301.71 682.76 299.61 686.84 301.96 683.21 304.06 679.12 301.71" style="fill: #43414e"/>
          <polygon points="674.3 304.49 677.94 302.39 682.02 304.74 678.39 306.84 674.3 304.49" style="fill: #43414e"/>
          <polygon points="669.45 307.3 673.09 305.2 677.16 307.55 673.53 309.64 669.45 307.3" style="fill: #43414e"/>
          <polygon points="664.63 310.08 668.26 307.98 672.34 310.33 668.71 312.43 664.63 310.08" style="fill: #43414e"/>
          <polygon points="635.9 326.67 639.53 324.57 643.61 326.92 639.98 329.01 635.9 326.67" style="fill: #43414e"/>
          <polygon points="631.14 329.42 634.78 327.32 638.86 329.67 635.23 331.77 631.14 329.42" style="fill: #43414e"/>
          <polygon points="655.16 315.58 658.8 313.49 662.88 315.83 659.25 317.93 655.16 315.58" style="fill: #43414e"/>
          <polygon points="650.34 318.37 653.98 316.27 658.06 318.62 654.43 320.71 650.34 318.37" style="fill: #43414e"/>
          <polygon points="645.49 321.17 649.13 319.07 653.2 321.42 649.57 323.52 645.49 321.17" style="fill: #43414e"/>
          <polygon points="640.67 323.95 644.3 321.86 648.38 324.2 644.75 326.3 640.67 323.95" style="fill: #43414e"/>
          <polygon points="654.66 334.17 658.3 332.07 662.38 334.42 658.75 336.51 654.66 334.17" style="fill: #43414e"/>
          <polygon points="649.84 336.95 653.48 334.85 657.56 337.2 653.93 339.3 649.84 336.95" style="fill: #43414e"/>
          <polygon points="644.99 339.75 648.62 337.65 652.7 340 649.07 342.1 644.99 339.75" style="fill: #43414e"/>
          <polygon points="640.17 342.54 643.8 340.44 647.88 342.79 644.25 344.88 640.17 342.54" style="fill: #43414e"/>
          <g>
            <polygon points="686.06 293.99 619.71 332.28 619.71 279.51 686.06 241.22 686.06 293.99" style="fill: #dfe9f8"/>
            <polygon points="686.06 247.42 619.71 285.72 619.71 279.51 686.06 241.22 686.06 247.42" style="fill: #fff"/>
            <polygon points="631.35 325.56 619.71 332.28 619.71 279.51 631.35 272.79 631.35 325.56" style="fill: #120667"/>
            <polygon points="631.35 283.65 619.71 290.37 619.71 285.72 631.35 279 631.35 283.65" style="fill: #2cd4d9"/>
            <polygon points="629.24 277.69 621.83 281.97 621.83 280.67 629.24 276.39 629.24 277.69" style="fill: #2cd4d9"/>
          </g>
          <polygon points="617.33 338.15 598.49 349.53 640.67 373.88 660.12 363.09 617.33 338.15" style="fill: url(#e60b1d9a-4a39-4eda-80d5-bb8e07b588bd)"/>
        </g>
      </g>
    </g>
  </g>
</svg>
