<svg xmlns="http://www.w3.org/2000/svg" xmlns:xlink="http://www.w3.org/1999/xlink" width="64" height="64" viewBox="0 0 64 64">
  <defs>
    <clipPath id="f8cccc4c-f9f5-481f-b945-d732dded0467">
      <path d="M49.27,40.72c-2,1-12.36,5.26-14.57,6.4s-3.43,1.13-5.17.3-12.77-5.25-14.75-6.19c-1-.47-1.51-.87-1.51-1.24V36.23s14.35-3.1,16.67-3.93,3.12-.85,5.09-.14S48.79,35,50.74,35.71c0,0,0,3.36,0,3.71S50.29,40.19,49.27,40.72Z" style="fill: none"/>
    </clipPath>
    <clipPath id="baad6611-3dec-4f65-88e8-3c9afb97f1ff">
      <rect x="13.26" y="13.64" width="37.48" height="37.48" style="fill: none"/>
    </clipPath>
    <clipPath id="bad1db77-b942-4185-b6c5-53a203f29721">
      <path d="M49.27,36.61c-2,1-12.36,5.28-14.57,6.42s-3.43,1.13-5.17.3-12.77-5.26-14.75-6.21-2-1.6-.08-2.36,12.92-5,15.23-5.87S33.05,28,35,28.76s12.27,4.8,14.22,5.51S51.27,35.57,49.27,36.61Z" style="fill: none"/>
    </clipPath>
    <clipPath id="8aabe730-b0ef-4724-bbcb-e0911766ab2c">
      <path d="M49.27,34.58c-2,1-12.36,5.26-14.57,6.4s-3.43,1.13-5.17.3S16.76,36,14.78,35.1c-1-.47-1.51-.87-1.51-1.24V30.1S27.62,27,29.93,26.18,33.05,25.32,35,26s13.76,2.83,15.71,3.54c0,0,0,3.36,0,3.71S50.29,34.06,49.27,34.58Z" style="fill: none"/>
    </clipPath>
    <clipPath id="11dbffcd-a1b3-4b32-b308-353bbab0e027">
      <path d="M49.27,30.47c-2,1-12.36,5.28-14.57,6.42s-3.43,1.13-5.17.3S16.76,31.94,14.78,31s-2-1.59-.08-2.36,12.92-5,15.23-5.87,3.12-.86,5.09-.14,12.27,4.8,14.22,5.51S51.27,29.44,49.27,30.47Z" style="fill: none"/>
    </clipPath>
    <clipPath id="a444233f-36c5-46ef-85ba-6487065e57cd">
      <path d="M49.27,28.45c-2,1-12.36,5.26-14.57,6.4s-3.43,1.13-5.17.3S16.76,29.91,14.78,29c-1-.47-1.51-.87-1.51-1.24V24S27.62,20.87,29.93,20s3.12-.85,5.09-.14,13.76,2.83,15.71,3.54c0,0,0,3.36,0,3.71S50.29,27.93,49.27,28.45Z" style="fill: none"/>
    </clipPath>
    <clipPath id="63bbe603-6343-4950-b446-38fdffc9e35a">
      <path d="M49.27,24.34c-2,1-12.36,5.28-14.57,6.42s-3.43,1.13-5.17.3-12.77-5.26-14.75-6.21-2-1.6-.08-2.36,12.92-5,15.23-5.87,3.12-.86,5.09-.14S47.3,21.3,49.25,22,51.27,23.3,49.27,24.34Z" style="fill: none"/>
    </clipPath>
    <clipPath id="e79c32b3-8ccc-4ecd-8327-40ba189a134a">
      <polygon points="37.11 20.75 33.88 21.08 33.15 22.8 31.98 20.88 28.25 20.55 31.04 19.55 30.2 18.03 32.81 19.04 35.27 18.24 34.6 19.82 37.11 20.75" style="fill: none"/>
    </clipPath>
    <clipPath id="89645ff7-ad4f-41c7-81cb-52482a8a86ae">
      <polygon points="33.07 28.93 26.89 26.71 35.75 25.53 33.07 28.93" style="fill: none"/>
    </clipPath>
    <clipPath id="3ab7ba30-b81d-4306-8a4b-475329e67587">
      <ellipse cx="24.85" cy="23.14" rx="4.77" ry="1.7" style="fill: none"/>
    </clipPath>
    <clipPath id="8717c5ba-eee9-42c8-960b-2966f4296919">
      <polygon points="41.2 21.44 46.65 23.48 41.2 25.53 41.2 21.44" style="fill: none"/>
    </clipPath>
    <clipPath id="8a659616-3fc8-4383-a44d-93aa55343fc9">
      <polygon points="35.75 23.59 41.88 21.44 41.88 25.32 41.28 25.53 35.75 23.59" style="fill: none"/>
    </clipPath>
  </defs>
  <title>features-redis</title>
  <g id="2192932f-f41b-4a9e-887d-c2cdb3528b2c" data-name="figures and interactions">
    <g>
      <g style="clip-path: url(#f8cccc4c-f9f5-481f-b945-d732dded0467)">
        <g style="clip-path: url(#baad6611-3dec-4f65-88e8-3c9afb97f1ff)">
          <rect x="7.4" y="25.8" width="49.19" height="28.07" style="fill: #a41e11"/>
        </g>
      </g>
      <g style="clip-path: url(#bad1db77-b942-4185-b6c5-53a203f29721)">
        <g style="clip-path: url(#baad6611-3dec-4f65-88e8-3c9afb97f1ff)">
          <rect x="7.4" y="22.4" width="49.19" height="27.38" style="fill: #d82c20"/>
        </g>
      </g>
      <g style="clip-path: url(#8aabe730-b0ef-4724-bbcb-e0911766ab2c)">
        <g style="clip-path: url(#baad6611-3dec-4f65-88e8-3c9afb97f1ff)">
          <rect x="7.4" y="19.67" width="49.19" height="28.07" style="fill: #a41e11"/>
        </g>
      </g>
      <g style="clip-path: url(#11dbffcd-a1b3-4b32-b308-353bbab0e027)">
        <g style="clip-path: url(#baad6611-3dec-4f65-88e8-3c9afb97f1ff)">
          <rect x="7.4" y="16.26" width="49.19" height="27.38" style="fill: #d82c20"/>
        </g>
      </g>
      <g style="clip-path: url(#a444233f-36c5-46ef-85ba-6487065e57cd)">
        <g style="clip-path: url(#baad6611-3dec-4f65-88e8-3c9afb97f1ff)">
          <rect x="7.4" y="13.54" width="49.19" height="28.07" style="fill: #a41e11"/>
        </g>
      </g>
      <g style="clip-path: url(#63bbe603-6343-4950-b446-38fdffc9e35a)">
        <g style="clip-path: url(#baad6611-3dec-4f65-88e8-3c9afb97f1ff)">
          <rect x="7.4" y="10.13" width="49.19" height="27.38" style="fill: #d82c20"/>
        </g>
      </g>
      <g style="clip-path: url(#e79c32b3-8ccc-4ecd-8327-40ba189a134a)">
        <g style="clip-path: url(#baad6611-3dec-4f65-88e8-3c9afb97f1ff)">
          <rect x="22.4" y="12.17" width="20.57" height="16.48" style="fill: #fff"/>
        </g>
      </g>
      <g style="clip-path: url(#89645ff7-ad4f-41c7-81cb-52482a8a86ae)">
        <g style="clip-path: url(#baad6611-3dec-4f65-88e8-3c9afb97f1ff)">
          <rect x="21.03" y="19.67" width="20.57" height="15.12" style="fill: #fff"/>
        </g>
      </g>
      <g style="clip-path: url(#3ab7ba30-b81d-4306-8a4b-475329e67587)">
        <g style="clip-path: url(#baad6611-3dec-4f65-88e8-3c9afb97f1ff)">
          <rect x="14.22" y="15.58" width="21.25" height="15.12" style="fill: #fff"/>
        </g>
      </g>
      <g style="clip-path: url(#8717c5ba-eee9-42c8-960b-2966f4296919)">
        <g style="clip-path: url(#baad6611-3dec-4f65-88e8-3c9afb97f1ff)">
          <rect x="35.34" y="15.58" width="17.16" height="15.8" style="fill: #7a0c00"/>
        </g>
      </g>
      <g style="clip-path: url(#8a659616-3fc8-4383-a44d-93aa55343fc9)">
        <g style="clip-path: url(#baad6611-3dec-4f65-88e8-3c9afb97f1ff)">
          <rect x="29.89" y="15.58" width="17.84" height="15.8" style="fill: #ad2115"/>
        </g>
      </g>
    </g>
  </g>
</svg>
