<?xml version="1.0" encoding="UTF-8"?>
<svg width="128px" height="128px" viewBox="0 0 128 128" version="1.1" xmlns="http://www.w3.org/2000/svg" xmlns:xlink="http://www.w3.org/1999/xlink">
    <!-- Generator: Sketch 47.1 (45422) - http://www.bohemiancoding.com/sketch -->
    <title>Artboard</title>
    <desc>Created with Sketch.</desc>
    <defs>
        <linearGradient x1="0%" y1="50.0097648%" x2="99.9698159%" y2="50.0097648%" id="linearGradient-1">
            <stop stop-color="#F7F7F7" offset="0%"></stop>
            <stop stop-color="#F0F0F0" offset="100%"></stop>
        </linearGradient>
    </defs>
    <g id="Page-1" stroke="none" stroke-width="1" fill="none" fill-rule="evenodd">
        <g id="Artboard" fill-rule="nonzero">
            <g id="features-gcp" transform="translate(13.000000, 19.000000)">
                <path d="M87.3,18.35 C88.62,20.56 89.96,22.75 91.25,24.97 C94.4,30.43 97.51,35.92 100.67,41.37 C102.165485,43.7043572 102.165485,46.6956428 100.67,49.03 C93.5566667,61.37 86.47,73.7266667 79.41,86.1 C78.2815743,88.4547553 75.9011707,89.9522315 73.29,89.95 C67.72,89.95 62.16,89.95 56.59,89.95 C58.18,87.15 59.76,84.35 61.35,81.55 C63.17,78.34 65,75.18 66.83,72 C67.15,71.48 67.48,71 67.83,70.43 C72.38,62.53 76.9,54.61 81.51,46.74 C82.2191019,45.7579592 82.2191019,44.4320408 81.51,43.45 C76.58,35.13 71.8,26.74 67,18.38 L87.3,18.35 Z" id="Shape" fill="#DA4432"></path>
                <path d="M87.3,18.35 L67,18.35 C66.59,18.35 66.19,18.27 65.78,18.27 C56.24,18.27 46.69,18.27 37.15,18.27 C36.3341853,18.1986725 35.5644586,18.6580905 35.24,19.41 C33.07,23.26 30.85,27.09 28.64,30.92 L20.5,45 C20.26,44.62 20,44.25 19.78,43.86 L10.28,27.38 C14.7266667,19.56 19.1766667,11.7433333 23.63,3.93 C24.8181702,1.65181976 27.2124638,0.261961508 29.78,0.36 L73.17,0.36 C75.5680872,0.257332053 77.8208657,1.50930501 79,3.6 C81.73,8.22 84.36,12.89 87,17.6 C87.1226316,17.8403422 87.223049,18.0913856 87.3,18.35 Z" id="Shape" fill="#4D8BF6"></path>
                <path d="M10.27,27.39 L19.77,43.87 C19.99,44.26 20.25,44.63 20.49,45.01 C23.25,50.01 25.97,54.93 28.77,59.86 C30.85,63.52 33.07,67.1 35.1,70.78 C35.4402823,71.5675636 36.2449581,72.0503691 37.1,71.98 C43.6133333,71.98 50.1266667,71.98 56.64,71.98 C60.04,71.98 63.44,71.98 66.83,71.98 C65,75.15 63.17,78.31 61.36,81.49 C59.76,84.28 58.18,87.09 56.6,89.89 C56.11,89.89 55.6,90 55.14,90 C47.14,90 39.08,89.93 31.05,90 C27.6664839,90.2648754 24.4625772,88.4431237 22.96,85.4 C18.1,76.69 13.09,68.07 8.14,59.4 C6.14,55.9 4.14,52.4 2.14,48.9 C0.92,46.81 0.48,44.59 1.64,42.46 C4.41,37.42 7.38,32.43 10.27,27.39 Z" id="Shape" fill="#FECD2D"></path>
                <path d="M81.44,43.46 C76.58,35.13 71.8,26.74 67,18.38 C66.59,18.38 66.19,18.3 65.78,18.3 C56.24,18.3 46.69,18.3 37.15,18.3 C36.3341853,18.2286725 35.5644586,18.6880905 35.24,19.44 C33.07,23.29 30.85,27.12 28.64,30.95 C25.9333333,35.65 23.22,40.3333333 20.5,45 C23.26,50 25.98,54.92 28.78,59.85 C30.86,63.51 33.08,67.09 35.11,70.77 C35.4502823,71.5575636 36.2549581,72.0403691 37.11,71.97 C43.6233333,71.97 50.1366667,71.97 56.65,71.97 C60.05,71.97 63.45,71.97 66.84,71.97 C67.16,71.45 67.49,70.97 67.84,70.4 C72.39,62.5 76.91,54.58 81.52,46.71 C82.1863199,45.7196335 82.1542399,44.4163835 81.44,43.46 L81.44,43.46 Z M51.24,58.66 C45.7658079,58.6640445 40.8285785,55.3690491 38.7318272,50.3123279 C36.6350758,45.2556067 37.7920095,39.4336883 41.6628489,35.5628489 C45.5336883,31.6920095 51.3556067,30.5350758 56.4123279,32.6318272 C61.4690491,34.7285785 64.7640445,39.6658079 64.76,45.14 C64.754485,52.6046042 58.7046042,58.654485 51.24,58.66 L51.24,58.66 Z" id="Shape" fill="url(#linearGradient-1)"></path>
            </g>
        </g>
    </g>
</svg>