<svg xmlns="http://www.w3.org/2000/svg" xmlns:xlink="http://www.w3.org/1999/xlink" width="1395.59" height="1333.36" viewBox="0 0 1395.59 1333.36">
  <defs>
    <linearGradient id="8ae95879-9f43-4cf2-bef4-2ee23c85ceb5" x1="-88.42" y1="380.52" x2="1290.18" y2="882.29" gradientUnits="userSpaceOnUse">
      <stop offset="0" stop-color="#150773"/>
      <stop offset="0.54" stop-color="#5333ed"/>
      <stop offset="0.93" stop-color="#2cd4d9"/>
    </linearGradient>
    <linearGradient id="19b23bcd-69d9-4398-a7b7-20206bbd386e" x1="957.94" y1="552.21" x2="957.94" y2="188.92" gradientUnits="userSpaceOnUse">
      <stop offset="0" stop-color="#2cd4d9" stop-opacity="0.5"/>
      <stop offset="0.24" stop-color="#2cd4d9" stop-opacity="0.4"/>
      <stop offset="0.74" stop-color="#2cd4d9" stop-opacity="0.15"/>
      <stop offset="1" stop-color="#2cd4d9" stop-opacity="0"/>
    </linearGradient>
    <linearGradient id="83551aa7-9740-496d-aca5-c55a00f7cf21" x1="1034.24" y1="543.19" x2="1034.24" y2="175.27" xlink:href="#19b23bcd-69d9-4398-a7b7-20206bbd386e"/>
    <linearGradient id="c23945c2-44ec-4914-8ae2-3a19fcb74c62" x1="782.37" y1="200.39" x2="782.37" y2="666.8" gradientUnits="userSpaceOnUse">
      <stop offset="0" stop-color="#2cd4d9" stop-opacity="0"/>
      <stop offset="1" stop-color="#2cd4d9" stop-opacity="0.5"/>
    </linearGradient>
    <linearGradient id="1e136b77-1955-4914-81f6-d1716b0559be" x1="893.55" y1="568.27" x2="893.55" y2="328.54" gradientUnits="userSpaceOnUse">
      <stop offset="0" stop-color="#2cd4d9" stop-opacity="0.5"/>
      <stop offset="0.54" stop-color="#2cd4d9" stop-opacity="0.4"/>
      <stop offset="1" stop-color="#2cd4d9" stop-opacity="0.3"/>
    </linearGradient>
    <linearGradient id="c838df3f-a536-4ade-9059-6da6474eb502" x1="850.53" y1="572.02" x2="850.53" y2="189.98" gradientUnits="userSpaceOnUse">
      <stop offset="0" stop-color="#2cd4d9" stop-opacity="0.8"/>
      <stop offset="0.07" stop-color="#2cd4d9" stop-opacity="0.69"/>
      <stop offset="0.23" stop-color="#2cd4d9" stop-opacity="0.48"/>
      <stop offset="0.39" stop-color="#2cd4d9" stop-opacity="0.31"/>
      <stop offset="0.55" stop-color="#2cd4d9" stop-opacity="0.17"/>
      <stop offset="0.7" stop-color="#2cd4d9" stop-opacity="0.08"/>
      <stop offset="0.85" stop-color="#2cd4d9" stop-opacity="0.02"/>
      <stop offset="1" stop-color="#2cd4d9" stop-opacity="0"/>
    </linearGradient>
    <linearGradient id="facf4739-49d5-454d-92f5-56b217e0b1fa" x1="899.34" y1="307.13" x2="899.34" y2="228.53" xlink:href="#19b23bcd-69d9-4398-a7b7-20206bbd386e"/>
    <linearGradient id="87946779-8151-4a2e-8835-589e0c2552dc" x1="820.5" y1="625.57" x2="820.5" y2="301.11" gradientUnits="userSpaceOnUse">
      <stop offset="0" stop-color="#5333ed"/>
      <stop offset="0.73" stop-color="#5333ed" stop-opacity="0.27"/>
      <stop offset="1" stop-color="#5333ed" stop-opacity="0"/>
    </linearGradient>
    <linearGradient id="db93488e-c6ed-4d26-aca1-7a9c095e0cba" x1="779.26" y1="690.59" x2="779.26" y2="171.77" gradientUnits="userSpaceOnUse">
      <stop offset="0" stop-color="#5333ed"/>
      <stop offset="0.17" stop-color="#5333ed" stop-opacity="0.85"/>
      <stop offset="0.55" stop-color="#5333ed" stop-opacity="0.48"/>
      <stop offset="1" stop-color="#5333ed" stop-opacity="0"/>
    </linearGradient>
    <linearGradient id="62ab0e9a-739a-4c7d-81de-3f17d1c608ce" x1="935.84" y1="561.16" x2="935.84" y2="180.48" gradientUnits="userSpaceOnUse">
      <stop offset="0" stop-color="#5333ed" stop-opacity="0.6"/>
      <stop offset="0.14" stop-color="#5333ed" stop-opacity="0.58"/>
      <stop offset="0.32" stop-color="#5333ed" stop-opacity="0.51"/>
      <stop offset="0.51" stop-color="#5333ed" stop-opacity="0.4"/>
      <stop offset="0.73" stop-color="#5333ed" stop-opacity="0.25"/>
      <stop offset="0.95" stop-color="#5333ed" stop-opacity="0.05"/>
      <stop offset="1" stop-color="#5333ed" stop-opacity="0"/>
    </linearGradient>
    <linearGradient id="9f6024f4-41cf-4cf5-92ab-54ec34944749" x1="803.68" y1="168.52" x2="803.68" y2="619.51" xlink:href="#c23945c2-44ec-4914-8ae2-3a19fcb74c62"/>
    <linearGradient id="22294d23-095e-454f-a3bb-9e75d4f1934e" x1="1001.73" y1="669.16" x2="665.85" y2="620.49" gradientUnits="userSpaceOnUse">
      <stop offset="0" stop-color="#2cd4d9"/>
      <stop offset="0.16" stop-color="#2cd4d9" stop-opacity="0.8"/>
      <stop offset="0.34" stop-color="#2cd4d9" stop-opacity="0.62"/>
      <stop offset="0.52" stop-color="#2cd4d9" stop-opacity="0.48"/>
      <stop offset="0.69" stop-color="#2cd4d9" stop-opacity="0.38"/>
      <stop offset="0.85" stop-color="#2cd4d9" stop-opacity="0.32"/>
      <stop offset="1" stop-color="#2cd4d9" stop-opacity="0.3"/>
    </linearGradient>
    <linearGradient id="37fc80f3-2b09-4f4f-84dd-575dbb16ba1d" x1="1134.46" y1="673.46" x2="880.79" y2="753.73" gradientUnits="userSpaceOnUse">
      <stop offset="0" stop-color="#5333ed"/>
      <stop offset="0.05" stop-color="#5333ed" stop-opacity="0.91"/>
      <stop offset="0.19" stop-color="#5333ed" stop-opacity="0.67"/>
      <stop offset="0.34" stop-color="#5333ed" stop-opacity="0.46"/>
      <stop offset="0.48" stop-color="#5333ed" stop-opacity="0.3"/>
      <stop offset="0.62" stop-color="#5333ed" stop-opacity="0.17"/>
      <stop offset="0.75" stop-color="#5333ed" stop-opacity="0.07"/>
      <stop offset="0.88" stop-color="#5333ed" stop-opacity="0.02"/>
      <stop offset="1" stop-color="#5333ed" stop-opacity="0"/>
    </linearGradient>
    <linearGradient id="17ff35ee-4906-4b98-a529-65f015aa2eda" x1="860.41" y1="697.94" x2="864.62" y2="659.11" gradientUnits="userSpaceOnUse">
      <stop offset="0" stop-color="#150773"/>
      <stop offset="0.03" stop-color="#2e2384"/>
      <stop offset="0.07" stop-color="#534c9c"/>
      <stop offset="0.12" stop-color="#7572b2"/>
      <stop offset="0.18" stop-color="#9292c5"/>
      <stop offset="0.24" stop-color="#aaaed5"/>
      <stop offset="0.3" stop-color="#bec4e2"/>
      <stop offset="0.38" stop-color="#cdd4ec"/>
      <stop offset="0.48" stop-color="#d7e0f3"/>
      <stop offset="0.62" stop-color="#dde7f7"/>
      <stop offset="1" stop-color="#dfe9f8"/>
    </linearGradient>
    <linearGradient id="38f28e71-e680-41de-b2b3-87f7cf2ecbad" x1="1406.91" y1="-1455.88" x2="1410.32" y2="-1454.27" gradientTransform="translate(585.64 2698.4) rotate(-29.42)" gradientUnits="userSpaceOnUse">
      <stop offset="0" stop-color="#6e7075"/>
      <stop offset="1" stop-color="#43414e"/>
    </linearGradient>
    <linearGradient id="4f523652-6d49-47f4-b80d-90d4dfacf7de" x1="1092.33" y1="713.44" x2="1092.1" y2="699.14" gradientUnits="userSpaceOnUse">
      <stop offset="0" stop-color="#5333ed"/>
      <stop offset="1" stop-color="#2cd4d9"/>
    </linearGradient>
    <linearGradient id="cbc70a67-0b88-436f-9f7f-fc2a44bbb718" x1="807.76" y1="626.17" x2="857.23" y2="626.17" gradientUnits="userSpaceOnUse">
      <stop offset="0" stop-color="#150773"/>
      <stop offset="0.5" stop-color="#5333ed"/>
      <stop offset="1" stop-color="#2cd4d9"/>
    </linearGradient>
    <linearGradient id="720a796d-ecb7-49c1-9959-40e4da474894" x1="977.21" y1="418.73" x2="1289.1" y2="418.73" gradientUnits="userSpaceOnUse">
      <stop offset="0" stop-color="#fff" stop-opacity="0.3"/>
      <stop offset="0.33" stop-color="#fff" stop-opacity="0.22"/>
      <stop offset="1" stop-color="#fff" stop-opacity="0"/>
    </linearGradient>
    <linearGradient id="7e0b728d-2c87-450e-bd53-8dfe3d3f4435" x1="1060.86" y1="481.77" x2="1053.46" y2="477.34" gradientUnits="userSpaceOnUse">
      <stop offset="0" stop-color="#150773"/>
      <stop offset="1" stop-color="#5333ed"/>
    </linearGradient>
    <linearGradient id="7abe7511-f4e5-43fd-b0c7-28c276c3cba6" x1="1065.14" y1="486.11" x2="1068.52" y2="482.4" xlink:href="#7e0b728d-2c87-450e-bd53-8dfe3d3f4435"/>
    <linearGradient id="bfdd940e-370d-4add-8d23-c779c9382c44" x1="1062.13" y1="484.94" x2="1061.45" y2="513.92" xlink:href="#4f523652-6d49-47f4-b80d-90d4dfacf7de"/>
    <linearGradient id="a3c52b98-9314-4b14-aa3b-6144129155df" x1="824.31" y1="366.22" x2="1290.15" y2="366.22" gradientUnits="userSpaceOnUse">
      <stop offset="0" stop-color="#2cd4d9" stop-opacity="0.3"/>
      <stop offset="0.38" stop-color="#2cd4d9" stop-opacity="0.2"/>
      <stop offset="1" stop-color="#2cd4d9" stop-opacity="0"/>
    </linearGradient>
  </defs>
  <title>home-hero</title>
  <g style="isolation: isolate">
    <g id="02fd7753-756e-4208-a540-d2de42971ccc" data-name="figures and interactions">
      <polygon points="0 0 0 1333.36 1395.59 520.7 1395.59 0 0 0" style="fill: url(#8ae95879-9f43-4cf2-bef4-2ee23c85ceb5)"/>
      <g>
        <polyline points="960.92 552.21 960.92 381.35 952.09 372.52 952.09 290.46 963.79 278.76 963.79 188.92" style="fill: none;stroke-miterlimit: 10;stroke-width: 2.11392855644226px;stroke: url(#19b23bcd-69d9-4398-a7b7-20206bbd386e)"/>
        <circle cx="963.13" cy="345.66" r="1.4" transform="translate(86.82 874.03) rotate(-50.83)" style="fill: none;stroke: #2cd4d9;stroke-miterlimit: 10;stroke-width: 2.11392855644226px;opacity: 0.30000000000000004"/>
        <circle cx="963.13" cy="338.6" r="1.4" transform="translate(-29.41 99.59) rotate(-5.83)" style="fill: none;stroke: #2cd4d9;stroke-miterlimit: 10;stroke-width: 2.11392855644226px;opacity: 0.30000000000000004"/>
        <line x1="1034.24" y1="543.19" x2="1034.24" y2="175.27" style="fill: none;stroke-miterlimit: 10;stroke-width: 2.11392855644226px;stroke: url(#83551aa7-9740-496d-aca5-c55a00f7cf21)"/>
        <polyline points="782.37 200.39 782.37 540.11 782.37 666.8" style="fill: none;stroke-miterlimit: 10;stroke-width: 2.11392855644226px;stroke: url(#c23945c2-44ec-4914-8ae2-3a19fcb74c62)"/>
        <polyline points="901 568.27 901 480 886.1 465.11 886.1 342.03 898.85 329.29" style="fill: none;stroke-miterlimit: 10;stroke-width: 2.11392855644226px;stroke: url(#1e136b77-1955-4914-81f6-d1716b0559be)"/>
        <polyline points="852.9 572.02 852.9 487.79 837.3 472.19 837.3 374.24 863.75 347.78 863.75 189.98" style="fill: none;stroke-miterlimit: 10;stroke-width: 2.11392855644226px;stroke: url(#c838df3f-a536-4ade-9059-6da6474eb502)"/>
        <line x1="899.34" y1="307.13" x2="899.34" y2="228.53" style="fill: none;stroke-miterlimit: 10;stroke-width: 2.11392855644226px;stroke: url(#facf4739-49d5-454d-92f5-56b217e0b1fa)"/>
        <circle cx="899.34" cy="323.41" r="1.4" transform="translate(80.57 816.38) rotate(-50.83)" style="fill: none;stroke: #2cd4d9;stroke-miterlimit: 10;stroke-width: 2.11392855644226px;opacity: 0.30000000000000004"/>
        <circle cx="899.34" cy="309.19" r="1.4" transform="translate(-26.76 92.95) rotate(-5.83)" style="fill: none;stroke: #2cd4d9;stroke-miterlimit: 10;stroke-width: 2.11392855644226px;opacity: 0.30000000000000004"/>
        <polyline points="813.03 624.51 813.03 467.15 827.97 452.21 827.97 302.17" style="fill: none;stroke-linecap: round;stroke-linejoin: round;stroke-width: 2.11392855644226px;stroke: url(#87946779-8151-4a2e-8835-589e0c2552dc)"/>
        <polyline points="771.79 689.53 771.79 587.79 771.79 341.98 786.73 327.04 786.73 172.83" style="fill: none;stroke-linecap: round;stroke-linejoin: round;stroke-width: 2.11392855644226px;stroke: url(#db93488e-c6ed-4d26-aca1-7a9c095e0cba)"/>
        <polyline points="928.37 560.1 928.37 253.1 943.31 238.16 943.31 181.54" style="fill: none;stroke-linecap: round;stroke-linejoin: round;stroke-width: 2.11392855644226px;stroke: url(#62ab0e9a-739a-4c7d-81de-3f17d1c608ce)"/>
        <polyline points="803.07 168.53 804.28 466.5 804.28 619.51" style="fill: none;stroke-miterlimit: 10;stroke-width: 2.11392855644226px;stroke: url(#9f6024f4-41cf-4cf5-92ab-54ec34944749)"/>
        <polygon points="756.75 453.27 489.76 608.95 489.76 303.49 756.75 147.81 756.75 453.27" style="fill: none;stroke: #2cd4d9;stroke-miterlimit: 10;stroke-width: 2.11392855644226px;opacity: 0.30000000000000004;mix-blend-mode: overlay"/>
        <path d="M1204.28,656.93l-160.55-92.7L824.41,598.16,765.64,724.79l160.55,92.7,219.32-33.93Z" style="fill: #2cd4d9;fill-opacity: 0.2;mix-blend-mode: color-burn"/>
        <path d="M1204.28,644.9l-160.55-92.7L824.41,586.13,765.64,712.76l160.55,92.7,219.32-33.93Z" style="fill: #2cd4d9;fill-opacity: 0.5;mix-blend-mode: color-burn"/>
        <path d="M1204.28,632.8l-160.55-92.7L824.41,574,765.64,700.66l160.55,92.7,219.32-33.93ZM923.11,702.44c-34.16-19.72-34.16-51.7,0-71.42s89.54-19.72,123.7,0,34.16,51.7,0,71.42S957.27,722.17,923.11,702.44Z" style="fill: url(#22294d23-095e-454f-a3bb-9e75d4f1934e)"/>
        <path d="M1131.85,612.86c-34.67,0-62.77,16.23-62.77,36.25a21.65,21.65,0,0,0,1.08,6.58c.21.55.42,1.09.6,1.64,5.17,15.84-2.85,32.84-24.09,45.1-34.16,19.72-89.54,19.72-123.7,0-11.22-6.48-18.73-14.28-22.58-22.54L765.64,700.75,926,793.36l219.32-33.93,45.54-98.12a25.1,25.1,0,0,0,2.67-5.75,21.63,21.63,0,0,0,1-6.44C1194.62,629.09,1166.51,612.86,1131.85,612.86Z" style="fill: url(#37fc80f3-2b09-4f4f-84dd-575dbb16ba1d)"/>
        <path d="M923.11,684c-34.16-19.72-34.16-51.7,0-71.42s89.54-19.72,123.7,0,34.16,51.7,0,71.42S957.27,703.73,923.11,684Z" style="fill: #fff;fill-opacity: 0.6000000000000001;stroke: #fff;stroke-miterlimit: 10;stroke-width: 2.11392855644226px"/>
        <path d="M923.11,677.22c-34.16-19.72-34.16-51.7,0-71.42s89.54-19.72,123.7,0,34.16,51.7,0,71.42S957.27,696.94,923.11,677.22Z" style="fill: none;stroke: #fff;stroke-miterlimit: 10;stroke-opacity: 0.5;stroke-width: 2.11392855644226px"/>
        <path d="M923.11,670.05c-34.16-19.72-34.16-51.7,0-71.42s89.54-19.72,123.7,0,34.16,51.7,0,71.42S957.27,689.77,923.11,670.05Z" style="fill: none;stroke: #fff;stroke-miterlimit: 10;stroke-opacity: 0.2;stroke-width: 2.11392855644226px"/>
        <g>
          <polygon points="1341.24 649.2 1340.06 647.82 1334.19 646.67 1334.05 642.62 1341.56 643.46 1343.43 644.38 1341.24 649.2" style="fill: #9e684d"/>
          <path d="M1342.65,652.74l-4.41,5.27h-2s-.28-.15-.21-.63,1.28-.55,1.28-.55l2-4.85.77-4.17s0-.64,1.44-1l.39-3.42s3-.21,4.69.88Z" style="fill: #150773"/>
          <path d="M1346.47,644.32l-3.38,7.26a9.77,9.77,0,0,1-1.37,2.15l-3.67,4.26-1.9,0,0,.6h2.41l3.86-4.67a9.77,9.77,0,0,0,1.42-2.26l3.18-7.05Z" style="fill: #5333ed"/>
          <rect x="1340.59" y="646.8" width="0.53" height="2.6" transform="translate(1573.45 -822.89) rotate(73.19)" style="fill: #2cd4d9"/>
          <rect x="1340.14" y="648.54" width="0.53" height="2.25" transform="translate(1574.62 -821.35) rotate(73.19)" style="fill: #2cd4d9"/>
          <rect x="1339.58" y="650.36" width="0.53" height="1.79" transform="translate(1575.75 -819.68) rotate(73.19)" style="fill: #2cd4d9"/>
          <rect x="1338.98" y="652.15" width="0.53" height="1.35" transform="translate(1576.83 -818) rotate(73.19)" style="fill: #2cd4d9"/>
          <path d="M1316.93,615.09a3.61,3.61,0,0,0,2.27-2.94c.71-4,16.14,2.94,16.14,2.94a3.5,3.5,0,0,1,2.15,2.39c.54,3.37,2.83,6.21,3.1,10.26,1.13,16.9-33.47,10.74-33.47,10.74,3.58-.35,11.54.07,18.68,1.23,3,.48,5.61-.18,7.65-.24,3.82-.12,4.14,3,4.14,3v5s-1.63,2.66-5.82.75c-4.82-2.21-8.12,1.59-11.83,1.2-4.55-.48-8.08-4.27-12.3-5.17-8.59-1.83-14.61-4.64-10.26-8.91l26.49-7.91s-11.82,9.72-19.38,3.58c-2.56-2.08-4.32-8.29-8.17-11.07,0,0,3.35,2.16,4,4.12,1.15,3.58.34,4.39.74,7,.34,2.14,3.65,3.93,4.59,7.56.88,3.41-.5,9.57-.5,9.57l-4.3.18s-4-1.74-5.45-4.21c-1.21-2.07.27-4.6-1.21-7.59-.42-.84-2.77-2.47-3.58-4.23-1.56-3.38-.63-5.31-1.48-8.63-1.16-4.55-1.23-8.6.88-10.93a9.06,9.06,0,0,1,7.68-2.71c3.58.67,4,3,5.6,3.71,2.55,1.11,3.91,0,6.28,1.15,1.71.85,2.21,3.12,3.51,3.58,2,.69,3.39,0,3-.67C1314.2,614.91,1316.93,615.09,1316.93,615.09Z" style="fill: #5333ed"/>
          <polygon points="1306.42 651 1304.88 647.47 1301.17 648.15 1303.7 652.88 1306.42 651" style="fill: #9e684d"/>
          <rect x="1291.49" y="656.71" width="18.1" height="0.71" transform="translate(2755.22 573.09) rotate(149.89)" style="fill: #5333ed"/>
          <path d="M1308.19,652.22a8.12,8.12,0,0,0-2.21-2.58l-2.49,1.81a1.09,1.09,0,0,0-1.22-.52s-4.85,4.73-9.74,9.78c-.11.12.12.64.12.64Z" style="fill: #150773"/>
          <rect x="1302.18" y="650.56" width="0.53" height="2.6" transform="translate(2261.61 -444.18) rotate(104.6)" style="fill: #2cd4d9"/>
          <rect x="1300.98" y="651.83" width="0.53" height="2.25" transform="translate(2261.16 -441.64) rotate(104.6)" style="fill: #2cd4d9"/>
          <rect x="1299.68" y="653.13" width="0.53" height="1.79" transform="translate(2260.57 -439.04) rotate(104.6)" style="fill: #2cd4d9"/>
          <rect x="1298.35" y="654.38" width="0.53" height="1.35" transform="matrix(-0.25, 0.97, -0.97, -0.25, 2259.9, -436.47)" style="fill: #2cd4d9"/>
          <rect x="1300.25" y="647.51" width="5.84" height="1.32" transform="translate(2732.16 924.49) rotate(164.5)" style="fill: #dfe9f8"/>
          <rect x="1334.9" y="644.45" width="5.84" height="1.32" transform="translate(2156.82 -593.91) rotate(97.72)" style="fill: #dfe9f8"/>
          <path d="M1302.19,633.13s-7.2,1.53-6.88,4a5.75,5.75,0,0,0,2.09,4.18,19.36,19.36,0,0,0,8.23,3.24l.13-.81s-7.59-2.55-8.71-4.52c-1.42-2.5.17-3.41,1.08-3.91.64-.35,4.59-1.62,4.59-1.62Z" style="fill: #5333ed;mix-blend-mode: multiply"/>
          <path d="M1307,632.52s14.42-4.8,16.4-7.09c0,0-2.56,0-3.15.58-1.61,1.48-12.08,5-14,5.9Z" style="fill: #5333ed;mix-blend-mode: multiply"/>
          <ellipse cx="1327.95" cy="613.27" rx="6.07" ry="10.51" transform="translate(132.86 1456.67) rotate(-60)" style="fill: #120667"/>
          <rect x="1323.72" y="614.63" width="2.56" height="5.67" style="fill: #5333ed"/>
          <rect x="1331.56" y="616.44" width="1.28" height="5.67" style="fill: #5333ed"/>
          <path d="M1283,625.3l-1.82,2.09s.65.37,1.58-.4l.8-.76,1.62-.56-1.88,1.36s-1.17,2.43-.24,2.47l1.62.11a.77.77,0,0,0,.58-.28,6.76,6.76,0,0,0,.43-.83l1.38-.85c1,.82,4.81-2.42,4.81-2.42l-1.74-2.73-4.43,1.74-.87.34Z" style="fill: #eba87c"/>
          <path d="M1318.54,585.75l-6.24,3.7c-.38,22.79-21.77,32.5-22.53,32.84-.21.05-2.61.64-3.1,1.26-.32.4-1.18,1.82-1.18,1.82l-.5,2a1.82,1.82,0,0,0,1.41-1.67l1.38-.71s2.06,1.67,3.93.27l0,0C1323.08,614.56,1318.54,585.75,1318.54,585.75Z" style="fill: #b7835f"/>
          <path d="M1311.47,589.59s-.81,9.72-3.1,14.35l5.8,3.64a64.49,64.49,0,0,0,4.23-8.32Z" style="fill: #2cd4d9"/>
          <polygon points="1308.59 602.51 1315.02 606.96 1313.63 609.39 1307.51 605.34 1308.59 602.51" style="fill: #dfe9f8"/>
          <path d="M1315.21,605.78s-2.29-5.64-2.53-8l.4-2.16s1.94,7.53,2.61,9.21Z" style="fill: #2cd4d9;mix-blend-mode: multiply"/>
          <path d="M1346.26,597.4s-5,4.9-4.76,7.15c2.69,22-22.3,25.13-22.3,25.13s.73,3.41.84,3.42C1359.12,631.78,1346.26,597.4,1346.26,597.4Z" style="fill: #b7835f"/>
          <path d="M1339.67,616.61s1.63-9.32,1.16-13.4l5.17-6.45s6.56,6.15,1.17,21.54Z" style="fill: #2cd4d9"/>
          <path d="M1308.78,630s4.23-.4,4.5-.4l6.84-.15.45,3.48a15.32,15.32,0,0,1-6.75,1.3l-2.2.49a2.38,2.38,0,0,1-1.75.81l1.12-1.39,2.72-1-3.35.29a3.1,3.1,0,0,1-3,.11l2.43-1,2.74-.52-2.79.11a2.85,2.85,0,0,1-2.7.72l2.43-1.66,2.9-.47-3.67.2a2.18,2.18,0,0,1-2.16,0Z" style="fill: #b7835f"/>
          <rect x="1319.93" y="610.97" width="1.28" height="5.67" style="fill: #5333ed"/>
          <path d="M1343,594.77l-.08-.13s-13.36-7.57-17.23-9.95-6.49-2.07-6.49-2.07a7.79,7.79,0,0,0-7.37,10.33s3.65,11.66,5,14.79c.67,2.86,3.29,6.08,7.2,8.33,3.72,2.15,7.61,2.86,10.4,2.2a5.78,5.78,0,0,0,2.25-1l.71-.75c3.38-3.66,10.45-11.9,10.45-11.9A7.76,7.76,0,0,0,1343,594.77Z" style="fill: #2cd4d9"/>
          <g>
            <polygon points="1329.88 600.41 1329.88 605.85 1330.66 608.26 1334.78 610.58 1335.79 609.24 1335.79 603.91 1329.88 600.41" style="fill: #2cd4d9;mix-blend-mode: multiply"/>
            <polygon points="1329.83 599.85 1335.83 603.35 1335.83 604.53 1329.83 601.03 1329.83 599.85" style="fill: #dfe9f8"/>
          </g>
          <polygon points="1338.28 618.55 1347.11 620.08 1348.57 616.92 1338.8 615.52 1338.28 618.55" style="fill: #dfe9f8"/>
          <ellipse cx="1329.05" cy="591.67" rx="5.31" ry="3.07" transform="translate(-97.17 878.6) rotate(-35.37)" style="fill: none;stroke: #dfe9f8;stroke-linecap: round;stroke-miterlimit: 10;stroke-width: 1.31087885634963px"/>
          <circle cx="1326.53" cy="577.01" r="3.13" transform="translate(588.65 1821.27) rotate(-82.84)" style="fill: #0c022f"/>
          <path d="M1333.11,591.17l0-8.7-8.09,0v11.87C1325.08,596.93,1331.91,594.61,1333.11,591.17Z" style="fill: #9e684d"/>
          <path d="M1325,588.21v-4.27l8.07-.13v2.31c-1.16,2-3.16,3-6.76,2.37A13,13,0,0,1,1325,588.21Z" style="fill: #b7835f;mix-blend-mode: multiply"/>
          <path d="M1335,582.73a1.59,1.59,0,0,0-1.22-1.88s-.05,0-.08,0l0-1.87a5.1,5.1,0,0,0-10.2-.24l-.1,4.25c-.09,3.8,1.95,4.53,4.48,4.59a5.54,5.54,0,0,0,5.35-3.66A1.56,1.56,0,0,0,1335,582.73Z" style="fill: #b7835f"/>
          <path d="M1334.64,578.53c0-.14.31-2.32-.29-3.26a1.8,1.8,0,0,0-1.9-.58s-.8-2-2.52-1.52a2.59,2.59,0,0,0-.57-1,1.14,1.14,0,0,0-.37-1.94s.06-.07.07-.12a.61.61,0,1,0-1.22-.15c0,.07,0,.13.05.2a1.22,1.22,0,0,0-.64.59s0,0-.07,0a1,1,0,0,0-1.09.85s0,.08,0,.12a2.56,2.56,0,0,0-1.28,1.88,2.61,2.61,0,0,0,2.26,2.91,2.57,2.57,0,0,0,1.72-.42v.06s1.09-.83,1.83-.26a1.2,1.2,0,0,1,.17,1.77,3.24,3.24,0,0,0-.1.4,2,2,0,0,0,1.72,2.21h.09c-.12.17-.78,1.13-.41,1.64l.66.18a1.22,1.22,0,0,1,1-1.21.59.59,0,0,1,.37.05A6.41,6.41,0,0,0,1334.64,578.53Z" style="fill: #0c022f"/>
          <path d="M1324.74,594.74c1,1.38,3.71,1.12,6.1-.57,1.79-1.27,2.88-3,2.9-4.36" style="fill: none;stroke: #dfe9f8;stroke-linecap: round;stroke-miterlimit: 10;stroke-width: 1.31087885634963px"/>
          <g>
            <polygon points="1284.43 631.88 1285.93 631.76 1287.94 632.26 1291.3 630.81 1291.98 631.3 1290.01 632.96 1290.48 636.52 1287.48 635.9 1286.78 635.33 1285.46 635.08 1283.93 632.52 1284.43 631.88" style="fill: #150773"/>
            <path d="M1277.5,658.61a41.54,41.54,0,0,1,6.52.85c1.53.54,2.52-2,1.48-3s-5.89-1.21-5.89-1.21Z" style="fill: #ffc398"/>
            <path d="M1286.18,650.19s-5.62,8-9.54,9.22l-1.57-3.24.54-5.62,2.7-3.91Z" style="fill: #eba87c"/>
            <path d="M1273.06,637.23c-.22.09-8.29,2.82-8.52,3s-5,2.6-5.72,5.7-1.71,4.36-2.38,4.95-4.18,1.75-1.39,3.69,4.27-1.39,4.27-1.39a7.12,7.12,0,0,0,6.16-1,6.38,6.38,0,0,0,1.66,1.17l-.31-.76,1.39,1.39-.18-.9,1.17.85-.13-1,2.07,3.49a5.1,5.1,0,0,1-.18-4.41Z" style="fill: #eba87c"/>
            <path d="M1279.3,647.18a26.54,26.54,0,0,0-2.58,3c-.39.65-1.25,2.37-.66,3.27s0,2.43-.27,2.88-4.9.49-4.9.49-2.43-3.06-.76-4.9c0,0-.7-5.93-.36-7.87a26.65,26.65,0,0,1,1.71-4.14l2.38-.31Z" style="fill: #ffc398"/>
            <path d="M1287.53,621.71c.06-.28,3.6-4.55,5.49-4.1s.63,4.5,0,5.53a11.74,11.74,0,0,0-1.3,4S1286.94,624.41,1287.53,621.71Z" style="fill: #eba87c"/>
            <path d="M1289.15,622.61c-1.89-2.25-6.93-.45-6.93-.45s-3.3,4.17-4.32,5.62a22,22,0,0,1-3.86,3.71l1.18.91-1.35.24,1.25.74-1.75,1.32h1.53a9.19,9.19,0,0,1-2.09,1.62c-.77.46-3,1.45-3,1.45l2,.57-1.35,1.79,3.88,2.13,7.81-10.93,10.94-3.64-1.4-.59C1289.51,625.45,1291,624.86,1289.15,622.61Zm-12,12.49v0h0Z" style="fill: #ffc398"/>
            <path d="M1291.85,631.3l.74,1.59-.79-.34,1.06,1.2-1.08-.27c.07,0,1.32,2.24,1.32,2.24l-1.57-.3.14,3.23.71,3.38-3.71-1.72,1.15-4.22,1.15-4.15Z" style="fill: #ffc398"/>
            <path d="M1275.25,617.26c.57-.46,1.21-.72,2.65,1.21a14.54,14.54,0,0,0,4,3.83c1.66,1,0,4.18-3.24,6.12C1275,630.62,1270.95,620.75,1275.25,617.26Z" style="fill: #eba87c"/>
            <circle cx="1285.62" cy="626.17" r="0.88" style="fill: #0c022f"/>
            <circle cx="1290.48" cy="625.9" r="0.65" style="fill: #0c022f"/>
            <path d="M1293.31,629.18l-.77-1.74a17.78,17.78,0,0,1-3.46-1.3,3.65,3.65,0,0,1-.77-2.47,1.68,1.68,0,0,0-1.44-1.55s.83.61.9,1.17-.36,2.45.68,3.15.52,2.54-.52,2.47-1.13-.14-1.4-.9c0,0-.58,1.19-2.65,1,0,0-.68,0-.65-.95s-1.08-1.37-1.75-.31-1.49,2.61-2.41,2.68c0,0,0,.4.86.36a2.19,2.19,0,0,1-1.26.47s.27.54,1.66.56c0,0,.14,1.42-.9,1.82a2.22,2.22,0,0,0-.83.68l-3.22,1.75,1,.81-2.52,4.5.72,0-.58,1.35,1,.18s-.36,1.71-.36,1.84,1.53-.45,1.53-.31-.81,2.7-.81,2.7l1.62-.27,0,1.66,2.56-1.39,1.12,2.07,1.26-.95v1.75l1.26-.45s.14,1.48.14,1.66a11.79,11.79,0,0,0,2.43-.54l-2.51,3.18a6.75,6.75,0,0,0,.49,3.89c.45,1,.32,2.38,1.12,3.07,1,.84,3.28,1.19,4.4,0,1.62-1.67-.73-2.5-1.15-4.34-.23-1,.4-5.24,1.61-6.41a3.39,3.39,0,0,0,.77-3.06c0-.27.63.18.63.18l-.17-3.56h.8l-1.81-5.6,1.43.06-.88-1L1288,636l-.85-.67-1.66-.27-1.44-1.89.09-1,.9-.54,2.47.4,4.23-1.1-.24,1.09A3.19,3.19,0,0,0,1293.31,629.18Z" style="fill: #dfe9f8"/>
            <path d="M1276,656c-.31,1.82,1.8,2.23,1.44,4.57-.25,1.6-3.85,2.43-5.45.54a2.81,2.81,0,0,1-.54-2.61,2.4,2.4,0,0,0-.54-1.62C1270.39,656.27,1276,656,1276,656Z" style="fill: #dfe9f8"/>
            <path d="M1256.8,650.44s-3.59,1.43-2.61,3.28c1.07,2,3.44,2.35,4.44.89s1.27-2,1.27-2.38a2.62,2.62,0,0,0-.67-1.26A3,3,0,0,0,1256.8,650.44Z" style="fill: #dfe9f8"/>
            <ellipse cx="1291.98" cy="628.51" rx="1.75" ry="1.12" style="fill: #0c022f"/>
            <path d="M1291.06,631.9s1.15-.29.83-.83-2.38.88-3.69,1.06-2.36-.47-3.08-.43-2.18.52-.16,3a2.28,2.28,0,0,0,1.48.63c.94,0,.58.22.81.47a8.27,8.27,0,0,0,1.93.63" style="fill: none;stroke: #0c022f;stroke-linecap: round;stroke-miterlimit: 10;stroke-width: 0.655439428174812px"/>
            <path d="M1291.74,639.14a1.68,1.68,0,0,0,1-1.8,12,12,0,0,0-2.63-5.58,6.38,6.38,0,0,1-2.53.67,4.45,4.45,0,0,1,1.36,2.66C1289,636.59,1288.65,639.44,1291.74,639.14Z" style="fill: #d36a83"/>
          </g>
        </g>
        <g>
          <path d="M828.55,637.15l-1,2.54s.72.12,1.31-.91l.47-1,1.29-1.06-1.26,1.88s-.24,2.63.62,2.35l1.53-.45a.75.75,0,0,0,.43-.46,6.62,6.62,0,0,0,.11-.91l1-1.25c1.18.42,3.58-3.86,3.58-3.86l-2.53-1.91-3.47,3.11-.68.61Z" style="fill: #5b3427"/>
          <path d="M833.81,632s-2.22,1.49-2.47,2.25c-.16.48-.46,2.07-.46,2.07l.24,2a1.78,1.78,0,0,0,.72-2l1-1.12s2.61.92,3.81-1.21Z" style="fill: #724c3b"/>
          <path d="M851.17,598.44c1.09,10.19-.61,24.53-14.56,35.69l-2.85-2.06s13.69-13,10.35-31.55c-.32-1.79.87-6.27,2.59-7.17C846.71,593.34,850.37,590.88,851.17,598.44Z" style="fill: #724c3b"/>
          <path d="M850.66,673.73l8.6,26.17s-1.6,5.77-9.18,9.28a29.87,29.87,0,0,0,5.32-.61c1.81-.66,6.45-4.23,6.45-4.23l-.28,3.53.92-.1,1.27-4.59s.28-2.76-1.38-3.9c0,0-3.11-23.5-3.28-26.52C859.09,672.66,850.66,673.73,850.66,673.73Z" style="fill: #724c3b"/>
          <path d="M862.57,670.33l6.89,32.91s.56,9,8.71,9.53c0,0-4.17-5.63-4.91-9.23-.52-2.52-2.37-30.6-2.19-33.09C871.07,670.35,862.57,670.33,862.57,670.33Z" style="fill: #724c3b"/>
          <path d="M853.61,706.4s4.4-.44,5.82-2.08c2.42-2.81.86-2.58,2.95-5,0,0,1.92.74,1.38,3.9-.2,1.17-1.27,4.59-1.27,4.59-.18.15-12.24,1.87-12.4,1.42C849.57,707.73,853.61,706.4,853.61,706.4Z" style="fill: #0c022f"/>
          <path d="M877.14,712.28c-.37.23-3.59-1.26-5.79-4.12-1.74-2.26-1.19-2.82-2.16-5.9,0,0-1-.3-1.72,2.82-.27,1.16.61,5.07.61,5.07.1.21,11.13,6.47,11.46,6.11.65-.71-1.33-4.43-2.63-5.34C876.91,710.93,877.43,712.11,877.14,712.28Z" style="fill: #0c022f"/>
          <path d="M883.1,687.47c-.33-3.18.3-9.71-.55-12.79-.65-2.37-3.53-6.28-4.53-8.53-2.52-5.64-5.73-24-5.73-24a67.29,67.29,0,0,0-3.5-13.14s-3.92,4.61-13.65.16a14.06,14.06,0,0,1-8.28-9.89C845,622.54,844.34,639,844.34,639s.8,16.26-1.29,28.79c-.59,3.57,1.06,4.82.87,7.53-.61,2.67,2,6.48,6.36,9,4.87,2.81,10.05,2.95,11.58.3a3.57,3.57,0,0,0,.32-2.48l-.47-7.73,2.33,11.92s.11.25.29.62c.65,2.53,3.1,5.44,6.72,7.53,5.21,3,10.75,3.15,12.38.33C884.1,693.69,883.49,691.11,883.1,687.47Z" style="fill: url(#17ff35ee-4906-4b98-a529-65f015aa2eda)"/>
          <path d="M861.83,674.65l-4.95-30.49L855.45,643l3.83,29.84a30.78,30.78,0,0,1,.24,4.71l-.23,8.8a4.11,4.11,0,0,0,2.93-2.58C862.36,683.33,861.83,674.65,861.83,674.65Z" style="fill: #dfe9f8;mix-blend-mode: multiply"/>
          <path d="M868.95,624.53l-.53-.18a16.06,16.06,0,0,0-7-7.46,17.44,17.44,0,0,0-8.45-2.51h0c-2.71,0-4.75.94-5.72,2.63,0,0,0,.11-.06.16l-.5-.17v2.16a7.63,7.63,0,0,0,1.13,4.13,18.9,18.9,0,0,0,14.86,8.59h0c2.71,0,4.75-.94,5.72-2.63a4.56,4.56,0,0,0,.54-2.15h0Z" style="fill: #0c022f"/>
          <path d="M875.86,607.9a4.53,4.53,0,0,0-1.54-2.18l-20-11.51a13.12,13.12,0,0,0-5.7-1.63c-2.21,0-3.53.84-4.11,2.57a15.07,15.07,0,0,0-.73,5.8l1,14.19a8.36,8.36,0,0,0,2.71,4.93,16.06,16.06,0,0,0,6.78,7,18.59,18.59,0,0,0,10.4,2.22c2-.1,5-1,6.12-2.06,0,0,1.61-1.12,1.44-5.26-.12-2.85,2.13-3.82,3.43-8.35A11.14,11.14,0,0,0,875.86,607.9Z" style="fill: #dfe9f8"/>
          <path d="M901.43,606.29l-1.07,2,.63-2.54a2.41,2.41,0,0,0,.45-2.27l-1.07,1.74-.73,2,.43-2.13a2.22,2.22,0,0,0,.88-2l-1.57,1.66-.72,2.17.6-2.79a1.69,1.69,0,0,0,.26-1.66l-1,1.58s-.83,3.2-.86,3.4-.2,1.15-.41,2.28l-.83-.85s-.08-1.57-.84-1.88l.07,2.44s0,2.59,1.08,2.93c0,0,0,0,0,0v0l0,0s-12.08,26.29-20.48-1.68c0,0-.86-3.63-2.84-3.9a3.36,3.36,0,0,0-3.3,1.12,4.34,4.34,0,0,0,0,4.16s14,38,29.3,1.7h0a15,15,0,0,0,1.79-5.34l.65-1.63a1.85,1.85,0,0,0,.84-1.25Z" style="fill: #724c3b"/>
          <path d="M862.19,598.24c-.07-2.35,0-7,0-7h-5.06v5.38a6.24,6.24,0,0,0-1.45,0,2.6,2.6,0,0,0-2,1.15c-1,1.67.59,4.38,3.48,6s6,1.66,7,0c.65-1.12.13-2.69-1.13-4.11A3.69,3.69,0,0,1,862.19,598.24Z" style="fill: #5b3427"/>
          <path d="M857.15,594.76v-5.82l5,3.2,0,4.83C860.37,597,858.28,597.14,857.15,594.76Z" style="fill: #724c3b;mix-blend-mode: multiply"/>
          <path d="M860.19,595.69h0c2.22.42,4.15.09,4.85-3.64l.78-4.17a4.78,4.78,0,0,0-3.56-5.73h0a4.78,4.78,0,0,0-5.39,4l-.6,3.19A5.25,5.25,0,0,0,860.19,595.69Z" style="fill: #724c3b"/>
          <circle cx="855.93" cy="589.37" r="1.59" style="fill: #724c3b"/>
          <g>
            <path d="M858.31,581.41a4.22,4.22,0,0,0-1.8-.69,7.1,7.1,0,0,1,2-1,6.61,6.61,0,0,0-.27,1.31C858.23,581.15,858.3,581.27,858.31,581.41Z" style="fill: #0c022f"/>
            <path d="M856.5,580.72a4.22,4.22,0,0,1,1.8.69c0-.14-.08-.26-.08-.4a6.61,6.61,0,0,1,.27-1.31,7.14,7.14,0,0,1,2.17-.44c4,0,6.79,3.31,7.32,7.32.1.77-.12,1.78-1.7,2-2.2.29-5-2.13-6.31-3.61-.37,1.87-3.16,1.46-3.16,4.05,0,.64-1.94.31-2.42-1.59C853.82,583.74,854.35,582.33,856.5,580.72Z" style="fill: #0c022f"/>
          </g>
          <path d="M855.67,582s-1.41-.31-.75-2.64,1.59-4.62,1.59-4.62a2,2,0,0,1,2.25-1c1.63.31,1.14,2.16,1.14,2.16l-1.5,4.36A2.1,2.1,0,0,1,855.67,582Z" style="fill: #0c022f"/>
          <polygon points="855.98 576.03 859.68 576.56 859.21 577.83 856.2 577.27 858.94 578.68 858.49 580 855.23 578.33 855.98 576.03" style="fill: #5333ed"/>
        </g>
        <g>
          <polygon points="1114.59 796.63 1114.01 793.57 1114.68 790.28 1118.81 791.26 1118.23 793.13 1126.08 797.72 1114.59 796.63" style="fill: #2cd4d9"/>
          <polygon points="1129.95 799.3 1117.45 798.26 1117.41 798.72 1112.98 798.39 1112.98 797.88 1113.04 797.12 1130.02 798.53 1129.95 799.3" style="fill: #0c022f"/>
          <path d="M1113,797.12a8.79,8.79,0,0,1,1-3.54l3.27.63a1.18,1.18,0,0,1,1-1.07s4.39,2.15,11.51,4.84c.16.06.18.68.18.68Z" style="fill: #150773"/>
          <polygon points="1102.72 798.98 1104.9 797.15 1105.03 795.1 1109.06 794.53 1109.05 800.64 1113.65 814.85 1113.22 815.4 1102.72 798.98" style="fill: #2cd4d9"/>
          <polygon points="1112.72 815.83 1104.4 803 1104.06 803.28 1101.82 799.57 1102.34 799.23 1102.72 798.98 1113.37 815.41 1112.72 815.83" style="fill: #0c022f"/>
          <path d="M1102.72,799a7.79,7.79,0,0,1,2.18-1.82l2.72,3.39a1.18,1.18,0,0,1,1.43.1s2.36,6.94,4.6,14.21c.05.17-.43.56-.43.56Z" style="fill: #150773"/>
          <path d="M1107.95,694.91s.4,29.63,11.54,32.57a3.35,3.35,0,0,1-.72,2.75c-1.52,1.62-2.88,1.24-2.88,1.24s-12.66-3.43-13.76-25.78Z" style="fill: #dfe9f8"/>
          <path d="M1099.15,718.4l-17.57,8.25h0a37.25,37.25,0,0,0-2.31,12.57c0,15.43,11,15.64,27.24,20.76,1,.31,4.32,1.12,4.32,1.12-2.26,8.29-5.94,35.2-5.94,35.2h4s12-38.64,9.93-39.72l-23.93-15.8,28.11,13.9s-3.61,2.27-8.81,36.16l5,.61,11.61-40.07c1.49-4-27.48-14.52-28.34-19.35Z" style="fill: #120667"/>
          <path d="M1119.92,727.89s.05-2.54-.4-3.16c-.29-.38-1.36-1.49-1.36-1.49l-1.72-.92a1.69,1.69,0,0,0,1.18,1.66l.31,1.41a2.66,2.66,0,0,0-1,3.37Z" style="fill: #eba87c"/>
          <rect x="1113.83" y="790.74" width="5.71" height="1.43" transform="translate(83.71 -106.51) rotate(5.67)" style="fill: #dfe9f8"/>
          <rect x="1104.45" y="795.3" width="4.83" height="1.43" transform="translate(-73.32 113.41) rotate(-5.68)" style="fill: #dfe9f8"/>
          <path d="M1099.92,687.49a18.25,18.25,0,0,0-3.65.83c-4.25,1.57-10.47,4.92-14.3,6.73a21.65,21.65,0,0,0-7.17,5.37l0,0-.2.26-.13.17c-3.26,4.45-30,42.53,13.84,35.68l.26-5.32s-28.74,5.38-11.59-15.93l2,4c.6,1.18.41,1.65.5,3,.06.9-.9,3.39,1.16,3.38h.26L1099.34,715h0c1.57,0,1.13-1.77,1.24-2.45.66-3.91,7.16-14.14,7.16-14.14A8.27,8.27,0,0,0,1099.92,687.49Z" style="fill: #dfe9f8"/>
          <path d="M1098.44,732.16l2.46,1.71s-.58.56-1.77,0l-1-.59-1.84-.15,2.33.93s1.87,2.24.91,2.53l-1.67.54a.83.83,0,0,1-.68-.14,7.32,7.32,0,0,1-.67-.75l-1.68-.52c-.81,1.12-5.68-1.26-5.68-1.26l.36-3.39,5.85.72,1,.13Z" style="fill: #ffc398"/>
          <g>
            <polygon points="1087.9 742.9 1097.99 745.17 1114.9 735.66 1105.22 733.13 1087.9 742.9" style="fill: #43414e"/>
            <polygon points="1094.49 739.72 1098.33 740.59 1098.42 740.53 1098.73 737.33 1094.49 739.72" style="fill: url(#38f28e71-e680-41de-b2b3-87f7cf2ecbad)"/>
            <polygon points="1096.77 744.25 1097.79 744.47 1099.02 743.78 1097.88 743.62 1096.77 744.25" style="fill: #6e7075"/>
            <polygon points="1095.48 743.89 1096.5 744.11 1097.6 743.49 1096.59 743.26 1095.48 743.89" style="fill: #6e7075"/>
            <polygon points="1094.26 743.55 1095.28 743.77 1096.37 743.15 1095.36 742.92 1094.26 743.55" style="fill: #6e7075"/>
            <polygon points="1096.87 743.1 1097.89 743.32 1098.99 742.7 1097.98 742.48 1096.87 743.1" style="fill: #6e7075"/>
            <polygon points="1095.65 742.76 1096.67 742.98 1097.77 742.36 1096.76 742.14 1095.65 742.76" style="fill: #6e7075"/>
            <polygon points="1097.01 742 1098.03 742.21 1099.13 741.6 1098.12 741.37 1097.01 742" style="fill: #6e7075"/>
            <g>
              <polygon points="1097.99 745.17 1099.43 729.88 1116.35 720.37 1114.9 735.66 1097.99 745.17" style="fill: #6e7075"/>
              <path d="M1108,733.43c-.38.15-.66-.08-.61-.62a2.15,2.15,0,0,1,.79-1.41.59.59,0,0,0-.76,0,3,3,0,0,0-1.25,2.14c-.07.83.36,1.22,1,.87A2.48,2.48,0,0,0,1108,733.43Z" style="fill: #fff"/>
            </g>
          </g>
          <polygon points="1086.85 731.43 1087.29 736.66 1086.6 736.75 1086.27 731.51 1086.85 731.43" style="fill: #dfe9f8;mix-blend-mode: multiply"/>
          <polygon points="1089.79 730.83 1090.41 735.72 1087.33 736.97 1086.84 731.27 1089.79 730.83" style="fill: #dfe9f8"/>
          <circle cx="1088.3" cy="735.62" r="0.42" style="fill: #5333ed"/>
          <path d="M1076.87,715.25s3.66-4.4,4.85-7.11l.21,1.84a53.13,53.13,0,0,1-4.48,6.4Z" style="fill: #dfe9f8;mix-blend-mode: multiply"/>
          <path d="M1115.95,723.37l-2.58.14s.18.67,1.3.79l1,0,1.42.72-2.12-.37s-2.38.8-1.81,1.45l1,1.15a.72.72,0,0,0,.56.2,6.3,6.3,0,0,0,.83-.25l1.47.37c-2.82,2.69.19,2.91.19,2.91a3.54,3.54,0,0,0,2.61-4.21c-.11-.57-1.41-1.82-1.41-1.82l-.79-.36Z" style="fill: #ffc398"/>
          <path d="M1081.93,727.54c1.57,2.71,6.63,2.72,11.31,0s7.2-7.09,5.64-9.8l-17.3,8.87A3.39,3.39,0,0,0,1081.93,727.54Z" style="fill: #5333ed"/>
          <polygon points="1085.8 726.7 1084.09 727.53 1084.09 730.04 1085.8 730.04 1085.8 726.7" style="fill: #120667"/>
          <polygon points="1098.66 720.37 1097.32 720.76 1097.32 725.62 1098.66 725.62 1098.66 720.37" style="fill: #120667"/>
          <polygon points="1095.79 720.75 1092.42 722.62 1092.42 728.37 1095.79 728.37 1095.79 720.75" style="fill: #120667"/>
          <ellipse cx="1090.09" cy="719.48" rx="11.71" ry="6.79" transform="translate(-213.69 641.44) rotate(-30)" style="fill: #dfe9f8"/>
          <path d="M1093.28,692.22v-7h-7v7c0,1.65-1.34,5-3,5l6.45,7.08,6.5-7.08C1094.62,697.21,1093.28,693.87,1093.28,692.22Z" style="fill: #eba87c"/>
          <path d="M1086.3,688.29l0-2.09,6.94.24v1.73a6,6,0,0,1-6,.62A5.27,5.27,0,0,1,1086.3,688.29Z" style="fill: #ffc398;opacity: 0.5;mix-blend-mode: multiply"/>
          <path d="M1091.68,673.4a5.45,5.45,0,0,1,4.8,6l-.25,2s.06,0,.09,0a1.72,1.72,0,0,1,1.11,2.16,1.69,1.69,0,0,1-2,1.09,6,6,0,0,1-6.16,3.35c-2.72-.35-4.83-1.35-4.32-5.44l.58-4.56A5.45,5.45,0,0,1,1091.68,673.4Z" style="fill: #ffc398"/>
          <path d="M1091.68,673.4a5.45,5.45,0,0,1,4.8,6l-.15,1.2-.09.71-.73,1.29-1.19-.6.72-1.43c-1.57-.47-.71-1.95-.71-1.95a2,2,0,0,0,0-2.1,2.27,2.27,0,0,0-3.56-.34,2,2,0,0,1-1.72.84,1.91,1.91,0,0,1-1.91-1.92.26.26,0,0,0-.09-.21A5.49,5.49,0,0,1,1091.68,673.4Z" style="fill: #5333ed"/>
          <path d="M1093.27,688.12a7.62,7.62,0,0,1-1.17,4.52s-5.05-.14-5.67-1.21a1.42,1.42,0,0,1-.13-.66l-.06,0-1.6,2.52-2.21,3.71,7.34,7.56,9-9.46Z" style="fill: #dfe9f8"/>
          <path d="M1091.82,695.6l.62-1.86,1.92.4s1.31,1.66-.22,2.55S1091.82,695.6,1091.82,695.6Z" style="fill: #2cd4d9"/>
          <path d="M1092.49,695.87s0,7.63-1.85,11.32-.55,6.84,2,7l.62-1.94a1.51,1.51,0,0,1-1.42-1.22c-.29-1.58,1.15-4,1.43-5,.39-1.29,1.07-3.74,1.33-10.24Z" style="fill: url(#4f523652-6d49-47f4-b80d-90d4dfacf7de)"/>
        </g>
        <path d="M1204.28,603.9l-160.55-92.7L824.41,545.14,765.64,671.76l160.55,92.7,219.32-33.93Z" style="fill: none;stroke: #2cd4d9;stroke-miterlimit: 10;stroke-width: 2.11392855644226px"/>
        <polygon points="808.82 588.94 856.17 616.28 856.17 663.39 808.82 636.05 808.82 588.94" style="fill: none;stroke-miterlimit: 10;stroke-width: 2.11392855644226px;stroke: url(#cbc70a67-0b88-436f-9f7f-fc2a44bbb718)"/>
        <polygon points="1289.1 357.93 977.22 538 977.21 479.53 1289.09 299.46 1289.1 357.93" style="fill: url(#720a796d-ecb7-49c1-9959-40e4da474894)"/>
        <g>
          <polygon points="988.61 480.98 988.61 531.42 1038.56 502.58 1038.55 452.15 988.61 480.98" style="fill: #f2f6fc"/>
          <polygon points="1038.55 452.15 1038.54 444.11 988.61 472.94 988.61 480.98 1038.55 452.15" style="fill: #fff"/>
          <polygon points="988.61 472.94 977.21 479.53 977.21 487.57 988.61 480.98 988.61 472.94" style="fill: #120667"/>
          <g>
            <polygon points="988.61 480.98 977.21 487.57 977.21 492.33 988.61 485.75 988.61 480.98" style="fill: #2cd4d9"/>
            <polygon points="977.21 492.33 977.22 538 988.61 531.42 988.61 485.75 977.21 492.33" style="fill: #120667"/>
          </g>
          <polygon points="986.27 477.97 979.75 481.74 979.75 483.12 986.27 479.35 986.27 477.97" style="fill: #2cd4d9"/>
        </g>
        <g style="opacity: 0.2">
          <polygon points="1133.87 397.09 1133.87 447.52 1183.82 418.69 1183.81 368.26 1133.87 397.09" style="fill: #dfe9f8"/>
          <polygon points="1183.81 368.26 1183.81 360.22 1133.87 389.05 1133.87 397.09 1183.81 368.26" style="fill: #fff"/>
          <polygon points="1133.87 389.05 1122.47 395.63 1122.47 403.68 1133.87 397.09 1133.87 389.05" style="fill: #120667"/>
          <g>
            <polygon points="1133.87 397.09 1122.47 403.68 1122.47 408.44 1133.87 401.86 1133.87 397.09" style="fill: #2cd4d9"/>
            <polygon points="1122.47 408.44 1122.48 454.1 1133.87 447.52 1133.87 401.86 1122.47 408.44" style="fill: #120667"/>
          </g>
          <polygon points="1131.53 394.08 1125.01 397.85 1125.01 399.23 1131.53 395.46 1131.53 394.08" style="fill: #2cd4d9"/>
        </g>
        <g>
          <path d="M1048.65,543.35l6.63,38.94s-1.65,5.95-9.47,9.57a30.81,30.81,0,0,0,5.48-.63c1.87-.68,6.66-4.37,6.66-4.37l-.29,3.64.95-.11,1.31-4.73s.29-2.85-1.42-4c0,0-1.09-30.79-1.27-33.9C1057.23,547.65,1048.65,543.35,1048.65,543.35Z" style="fill: #b7835f"/>
          <path d="M1058.88,551.33l2.42,34.13s.39,6.18,3.6,10.59c0,0,1.37-6.13.18-9.72a8.75,8.75,0,0,1-.27-3.6c.68-7.39,2.65-28.71,2.83-31.28C1067.65,551.35,1058.88,551.33,1058.88,551.33Z" style="fill: #b7835f"/>
          <path d="M1061.66,588s1.29,7.58,3.62,10.16c0,0,1.41-3.68,0-11.18,0,0-.24,5.89-.84,7.12Z" style="fill: #0c022f"/>
          <path d="M1048.77,590.21s4.43-.27,6.68-3.36.88-2.66,3-5.19c0,0,1.66.72,1.42,4l-1.31,4.73c-.18.15-.78.27-.95.11l.29-3.64s-4.88,4.19-6.66,4.53-6.06,1.06-5.48.46Z" style="fill: #0c022f"/>
          <path d="M1049.59,548.84s2,4.11,7.91,5.2V551.8l1.52.61.11,2.25a9.24,9.24,0,0,0,8.26,0l.27-3.2L1049,544.17Z" style="fill: #eba87c;opacity: 0.5;mix-blend-mode: multiply"/>
          <circle cx="1074.15" cy="489.02" r="2.66" style="fill: #5333ed"/>
          <path d="M1069,550.75s0-.07,0-.11c1-3.48,8.22-29.18-.12-39.66l-20.74-7.61c-8.43,12,0,40.07,0,40.07l.06,0c.46,2.88,3.08,6.21,7.06,8.5,5.5,3.17,11.44,3.16,13.28,0a3.93,3.93,0,0,0,.33-.89h0Z" style="fill: #120667"/>
          <path d="M1070.91,507.45l-.55-.19a16.57,16.57,0,0,0-7.25-7.7,18,18,0,0,0-8.72-2.58h0c-2.8,0-4.9,1-5.9,2.71,0,.05,0,.11-.06.16l-.52-.17,0,2.22a7.87,7.87,0,0,0,1.16,4.26A19.49,19.49,0,0,0,1064.4,515h0c2.8,0,4.89-1,5.9-2.72a4.7,4.7,0,0,0,.55-2.22h0Z" style="fill: #0c022f"/>
          <path d="M1053,473.06V473s1.8-.17,2.2-2.64c0,0,0-.23,0-.35a7.52,7.52,0,0,1,15,.6s-.44,4.56,2.59,6.39a5.38,5.38,0,0,1,2.3,4.06,4,4,0,0,1,3.15,4.19,4.1,4.1,0,0,1-4.37,3.81,4,4,0,0,1-2.37-1.05,6.38,6.38,0,0,1-3.21.7,6.52,6.52,0,0,1-5.58-4.1l-3.66-4.38a5.22,5.22,0,1,1-6.09-7.17Z" style="fill: #5333ed"/>
          <path d="M1057,471.49l-1.43.3s.25,3.45-.62,4.61-2.44,1.53-2.93,4.09a3.48,3.48,0,0,0-2.53,2.49h12.27l.16-7.43Z" style="fill: url(#7e0b728d-2c87-450e-bd53-8dfe3d3f4435)"/>
          <path d="M1066.75,475.77s-.68,4.25,2.21,5.38c2.49,1,2.38,4.73,3.64,7.93.79,2-8.58-1.28-8.58-1.28l.23-12.28Z" style="fill: url(#7abe7511-f4e5-43fd-b0c7-28c276c3cba6)"/>
          <path d="M1020.39,483.72l-1.92-2.19a1.27,1.27,0,0,0,.06,1.37l.93,1.42.61,1.65-2,2c-.82,1,2.61,4.89,2.61,4.89l2.76-1.86-1.9-4.52-.37-.88Z" style="fill: #eba87c"/>
          <path d="M1023.41,490.83s-.72-2.72-1.39-3.23a6.94,6.94,0,0,0-2-.55l-1.54,1.36a1.35,1.35,0,0,0,1.71-.48l.61.43s-2,2.36-.31,4.29Z" style="fill: #b7835f"/>
          <path d="M1054.09,481.47s-11.55,50.62-34.64,12.14l3.73-3.43s13.59,26.1,19.64-7.16Z" style="fill: #dfe9f8"/>
          <path d="M1078.37,494a4.68,4.68,0,0,0-1.59-2.25l-20.58-11.88a13.53,13.53,0,0,0-5.87-1.68c-2.28,0-3.65.87-4.24,2.65a15.54,15.54,0,0,0-.76,6l1,14.63c.31,2,1.32,1,2.8,2.28a16.57,16.57,0,0,0,7,7.23,19.17,19.17,0,0,0,10.73,2.29c2.07-.1,5.13,1.8,6.31.68,0,0,1.66-1.15,1.48-5.42-.13-2.94,2.2-3.94,3.53-8.61A11.49,11.49,0,0,0,1078.37,494Z" style="fill: url(#bfdd940e-370d-4add-8d23-c779c9382c44)"/>
          <path d="M1074.39,489.5l-.08-.13s-13.48-7.65-17.4-10-6.55-2.09-6.55-2.09a7.87,7.87,0,0,0-7.44,10.43l2.44,20.74s1.3,3.63,2.61-.2c1.18-3.45-.45-12.44.2-18.41a10.86,10.86,0,0,1,4.19-7.87c2.2-1.47,5.18-.52,5.18-.52a47.64,47.64,0,0,1,7.83,4.05c3.08,2,4.94,5.36,3.76,7.16a14.82,14.82,0,0,0-1.85,5.15,37.48,37.48,0,0,0,1.7,16.66c0,6.31,7.81,5.75,7.81,5.75l2.44-20.74A7.84,7.84,0,0,0,1074.39,489.5Z" style="fill: #dfe9f8"/>
          <path d="M1064.27,484c-.07-2.43,0-7.22,0-7.22H1059v5.55a6.44,6.44,0,0,0-1.5,0c-1,.12-2.74.3-2.74.3l1.9,12.14,10.62-6.05a20.52,20.52,0,0,0-2.28-3.21A3.81,3.81,0,0,1,1064.27,484Z" style="fill: #b7835f"/>
          <path d="M1059.07,480.41v-6l5.19,3.31,0,2.46C1063.37,481,1060.2,482.52,1059.07,480.41Z" style="fill: #eba87c;opacity: 0.5;mix-blend-mode: multiply"/>
          <path d="M1060.79,479.81h0c-2.33-.07-4.2-.82-4.09-4.74l.13-4.37a4.93,4.93,0,0,1,4.85-5h0a4.93,4.93,0,0,1,4.54,5.27l-.1,3.35A5.42,5.42,0,0,1,1060.79,479.81Z" style="fill: #eba87c"/>
          <circle cx="1066.48" cy="474.39" r="1.64" transform="translate(374.95 1414.71) rotate(-77.65)" style="fill: #eba87c"/>
          <g>
            <path d="M1064.22,465.08a4.35,4.35,0,0,1,1.86-.72,7.32,7.32,0,0,0-2.05-1.05,6.82,6.82,0,0,1,.27,1.35C1064.3,464.81,1064.23,464.93,1064.22,465.08Z" style="fill: #5333ed"/>
            <path d="M1064.22,465.08c-2-1.33-9,1.08-9,5.25,0,.31.15,1.37.19,1.67,2.27.3,5.82-1.68,7.13-3.21.38,1.93,2,3.91,4.06,3.91a4.12,4.12,0,0,0,2.51-.92C1069.15,471.32,1064.77,465.45,1064.22,465.08Z" style="fill: #5333ed"/>
          </g>
          <path d="M1058.54,486s1.63,3,1.71,3.19,2.26,5,2.26,5l-2.24,1.91a16.12,16.12,0,0,1-3.27-5l-1.06-1.47a1.91,1.91,0,0,1-1.15-1l1.38.39,1.57,1.7-1.27-2.38a2.49,2.49,0,0,1-1-2.15l1.51,1.47,1.24,1.86-1-2a2.29,2.29,0,0,1-1.38-1.76l2,1.27,1.26,2-1.3-2.64s-.92-.73-.68-1.59Z" style="fill: #eba87c"/>
          <path d="M1078.78,493.32c7.33,13.94-7,50.4-20.07,3.69l3.73-3.43s9.37,28,13.44,11.32C1075.88,504.91,1077.39,490.68,1078.78,493.32Z" style="fill: #dfe9f8"/>
          <path d="M1073,501.46s1,11.64-6,1.89v1s3.61,6.07,5.57,4,1.36-5.28,1.36-5.28Z" style="fill: #dfe9f8;mix-blend-mode: multiply"/>
          <polygon points="1044.71 502.9 1043.93 494.45 1043.43 495.27 1043.92 503.83 1044.71 502.9" style="fill: #dfe9f8;mix-blend-mode: multiply"/>
        </g>
        <polygon points="1289.1 287.49 1289.09 240.95 977.21 421.02 825.36 445.33 825.36 492.08 977.21 467.77 1289.1 287.49" style="fill: none;stroke-linecap: round;stroke-miterlimit: 10;stroke-width: 2.11392855644226px;stroke: url(#a3c52b98-9314-4b14-aa3b-6144129155df)"/>
      </g>
    </g>
  </g>
</svg>
