<svg xmlns="http://www.w3.org/2000/svg" width="67.54" height="194" viewBox="0 0 67.54 194">
  <title>home-mykinsta-man</title>
  <g style="isolation: isolate">
    <g id="40cf73ba-0d60-415a-a0a5-d4e62ef683ea" data-name="figures and interactions">
      <g>
        <g>
          <path d="M27.69,63.58A17.73,17.73,0,0,1,31.84,62c1.56-.44.81.86.81.86a19.15,19.15,0,0,1-2.29,2.77Z" style="fill: #0c022f"/>
          <ellipse cx="28.93" cy="64.71" rx="1.01" ry="1.76" transform="translate(-41.57 57.41) rotate(-60)" style="fill: #0c022f"/>
        </g>
        <g>
          <polygon points="28.5 184.68 30.73 183.39 30.73 182.56 28.5 183.83 28.5 184.68" style="fill: #120667"/>
          <path d="M25.05,180.5v-2.58a2.8,2.8,0,0,1,1.69-2.57l.78-.34a3.43,3.43,0,0,1,3.71.63,66,66,0,0,1,5.69,6.18c.92,1.12,1.55,2,2.1,2.61.79.87,1.73,2.34.71,2.91,0,0-2,1.15-3.66.27l-10.35-6A1.32,1.32,0,0,1,25.05,180.5Z" style="fill: #dfe9f8"/>
          <path d="M26,169.75l5.22-2,.07,7.42h0c.21.79-.5,1.91-1.74,2.62s-2.85.79-3.31,0a1,1,0,0,1-.12-.53h0Z" style="fill: #5b3427"/>
          <ellipse cx="30" cy="177.54" rx="2.33" ry="1.34" transform="translate(-84.75 38.78) rotate(-30)" style="fill: #dfe9f8"/>
          <path d="M33.91,178.32a3.16,3.16,0,0,0-1.64.46,2.89,2.89,0,0,0-1.34,1.47" style="fill: none;stroke: #5333ed;stroke-linecap: round;stroke-miterlimit: 10;stroke-width: 1.00233512991529px"/>
          <path d="M32.92,177.18a3.16,3.16,0,0,0-1.64.46,2.7,2.7,0,0,0-1.38,1.64" style="fill: none;stroke: #5333ed;stroke-linecap: round;stroke-miterlimit: 10;stroke-width: 1.00233512991529px"/>
          <path d="M35,179.6a3,3,0,0,0-1.53.43,2.68,2.68,0,0,0-1.25,1.37" style="fill: none;stroke: #5333ed;stroke-linecap: round;stroke-miterlimit: 10;stroke-width: 1.00233512991529px"/>
          <path d="M25.05,180.5a28.22,28.22,0,0,1,3.24,2.44,6.46,6.46,0,0,0,1.18.88L36,187.56a4.35,4.35,0,0,0,1.84.34,3.45,3.45,0,0,0,2.36-1.16v.83a4.63,4.63,0,0,1-2.33,1.13c-1.06,0-2.13-.37-4-1.49-1.6-.95-5.32-3.11-5.32-3.11v.57l-3.45-2.24Z" style="fill: #5333ed"/>
        </g>
        <g>
          <polygon points="39.1 178.52 41.33 177.24 41.33 176.41 39.1 177.68 39.1 178.52" style="fill: #120667"/>
          <path d="M35.65,174.35v-2.58a2.8,2.8,0,0,1,1.69-2.57l.78-.34a3.43,3.43,0,0,1,3.71.63,66,66,0,0,1,5.69,6.18c.92,1.12,1.55,2,2.1,2.61.79.87,1.73,2.34.71,2.91,0,0-2,1.15-3.66.27l-10.35-6A1.32,1.32,0,0,1,35.65,174.35Z" style="fill: #dfe9f8"/>
          <path d="M36.59,163.6l5.22-2,.07,7.42h0c.21.79-.5,1.91-1.74,2.62s-2.85.79-3.31,0a1,1,0,0,1-.12-.53h0Z" style="fill: #5b3427"/>
          <ellipse cx="40.59" cy="171.39" rx="2.33" ry="1.34" transform="translate(-80.26 43.26) rotate(-30)" style="fill: #dfe9f8"/>
          <path d="M44.51,172.17a3.16,3.16,0,0,0-1.64.46,2.89,2.89,0,0,0-1.34,1.47" style="fill: none;stroke: #5333ed;stroke-linecap: round;stroke-miterlimit: 10;stroke-width: 1.00233512991529px"/>
          <path d="M43.52,171a3.16,3.16,0,0,0-1.64.46,2.7,2.7,0,0,0-1.38,1.64" style="fill: none;stroke: #5333ed;stroke-linecap: round;stroke-miterlimit: 10;stroke-width: 1.00233512991529px"/>
          <path d="M45.57,173.45a3,3,0,0,0-1.53.43,2.68,2.68,0,0,0-1.25,1.37" style="fill: none;stroke: #5333ed;stroke-linecap: round;stroke-miterlimit: 10;stroke-width: 1.00233512991529px"/>
          <path d="M35.65,174.35a28.22,28.22,0,0,1,3.24,2.44,6.46,6.46,0,0,0,1.18.88l6.49,3.75a4.35,4.35,0,0,0,1.84.34,3.45,3.45,0,0,0,2.36-1.16v.83a4.63,4.63,0,0,1-2.33,1.13c-1.06,0-2.13-.37-4-1.49-1.6-.95-5.32-3.11-5.32-3.11v.57l-3.45-2.24Z" style="fill: #5333ed"/>
        </g>
        <path d="M63.49,16.52c.79,6.92-.87,8.47-.87,8.47h0a2.69,2.69,0,0,1-1.83,1.19A1.47,1.47,0,0,1,58.87,25a.81.81,0,0,1,0-.38h0l1.41-9.06c0-.3.27-4.56.27-4.56l1.23-2.74c.62,1.1-.16,2.86-.16,2.86l.1,3.67.48-3.68.4-3.73c.92.8.61,4.2.61,4.2Z" style="fill: #5b3427"/>
        <path d="M35.74,165.34,35.66,164c-.1-1,.75-2.39,2.21-3.35,1.79-1.17,3.78-1.28,4.46-.25a1.53,1.53,0,0,1,.19,1.06l0,0,.07,1.33h0A4.25,4.25,0,0,1,40.41,166c-1.79,1.17-3.78,1.28-4.46.25a1.35,1.35,0,0,1-.19-.48h0v-.15A1.69,1.69,0,0,1,35.74,165.34Z" style="fill: #dfe9f8"/>
        <path d="M25.11,170.84h0c-.1-1,.76-2.39,2.21-3.34,1.79-1.17,3.78-1.28,4.46-.25a1.46,1.46,0,0,1,.22.87h0l.08,1.43h0c.11,1-.74,2.4-2.21,3.36-1.79,1.17-3.78,1.28-4.46.25a1.39,1.39,0,0,1-.2-.64h0Z" style="fill: #dfe9f8"/>
        <path d="M25.05,143.26c-.29-6-1.83-18.94-1.75-21.24.13-3.75,1.95-13.14,2.77-17.22,1-4.78,1.78-6.91,6.35-9.89,6-4,10.2-4.35,13.26-1.51,1.24,1.16,2.2,11.5,1.19,23.74-.45,5.49-1.77,11.68-2.08,17.28-.16,3,.58,5.36.35,7.8-.91,9.73-3.09,15.6-3.27,18,.59.9-.19,2.45-1.75,3.46s-3.28,1.11-3.87.22a1.18,1.18,0,0,1-.16-.44h0v-.08a1.54,1.54,0,0,1,0-.36c0-1.09-1.51-4-1.13-7.51.71-6.7.91-14.66,1-18.68.09-6.2,1.39-16,1.65-17.93a197.73,197.73,0,0,0-3.31,22V141c0,.57.18,4.46.07,5.56-.44,8.44-3.39,17.84-2.85,20.77h0c.29.91-.47,2.26-1.87,3.17-1.55,1-3.28,1.11-3.87.22a1.24,1.24,0,0,1-.18-.66h0c-.78-4-1.65-6.54-1.88-10.42C23.27,153.46,25.23,147,25.05,143.26Z" style="fill: #2cd4d9"/>
        <path d="M35.91,104.8s-4,.86-4.24.94l-6.31,1.85.6,3.31a14.72,14.72,0,0,0,6.56-.77l2.16-.19a2.29,2.29,0,0,0,1.84.23l-1.44-1-2.77-.09,3.15-.71a3,3,0,0,0,2.75-.76l-2.52-.22-2.66.32,2.59-.71a2.74,2.74,0,0,0,2.68-.13l-2.71-.82-2.79.41,3.42-.88s1.38.27,2-.63Z" style="fill: #724c3b"/>
        <path d="M26.11,70.52l15-8.63h0a2.85,2.85,0,0,1,2-.32A6.47,6.47,0,0,1,47,63.87a3.33,3.33,0,0,1,.64,2.2L46.29,93.54h0c.26,2.87-2.35,6.6-6.6,9.05-5.08,2.93-10.56,2.93-12.26,0a3.85,3.85,0,0,1-.49-2h0L23.69,74.08C23.44,73,24.42,71.49,26.11,70.52Z" style="fill: #5333ed"/>
        <path d="M26.34,70.47c-5.49,3.26-18.81,12.62-17.79,23,.78,8,9.39,14.26,13.38,16.76a5.37,5.37,0,0,0,5.34.31,2,2,0,0,0,1.27-2.06c-.07-.41-.74-1-1-1.27-18.21-14.7-2.28-21-2.28-21,3.06-1.38,7.45-5.86,6.12-13.93C30.7,68.49,26.36,70.46,26.34,70.47Z" style="fill: #5333ed"/>
        <path d="M41.08,61.89s10.2-9,12.26-14.65c1.52-4.17,3.39-15.17,4.28-20.74a3,3,0,0,1,3.76-2.36h0a3,3,0,0,1,2.11,3.06c-.43,5.52-1.67,19.06-3.89,23.8-4.16,8.88-9.27,12.87-13,19S38.57,64.63,41.08,61.89Z" style="fill: #5333ed"/>
        <path d="M58.44,25.5h0l.34-.92h0a5.85,5.85,0,0,1,.23-.81h0a25.11,25.11,0,0,1,.24-4.59A34.06,34.06,0,0,1,61,15.86L63,14a2.55,2.55,0,0,1-1.22,2.64l-.46,2a6.63,6.63,0,0,1,1.88,2.65,4,4,0,0,1,.19,2.4h0s-.17,2-.34,2.73c-.42,1.82-2.29,3.8-3.65,3.18C58.32,29.09,58,27.39,58.44,25.5Z" style="fill: #724c3b"/>
        <path d="M38.7,71.74c0,2.48-6.49.29-7.62-3l0-8.24,7.67,0V71.74" style="fill: #5b3427"/>
        <path d="M38.71,65.49V61.56l-7.61.24V64c1.1,1.92,2.74,2.76,6.15,2.19A3.22,3.22,0,0,0,38.71,65.49Z" style="fill: #724c3b;mix-blend-mode: multiply"/>
        <path d="M29.26,62.2a1.5,1.5,0,0,1,.67-2s.05,0,.08,0l-.49-1.7a4.83,4.83,0,0,1,9.28-2.68l1.12,3.87c1,3.46-.69,4.62-3,5.29a5.25,5.25,0,0,1-5.78-2.06A1.48,1.48,0,0,1,29.26,62.2Z" style="fill: #724c3b"/>
        <path d="M31.08,67.24A12,12,0,0,0,38,71.47a5.44,5.44,0,0,0,.7-2.17v-.82s.5.22.93,1.47a17.74,17.74,0,0,1,.38,3l-1.46-.67a1,1,0,0,1-1.14.53l-.57,2s-6.08-2.1-6-6.36v-1S30.83,67.14,31.08,67.24Z" style="fill: #dfe9f8"/>
        <path d="M30,60.17a9.14,9.14,0,0,0,4.9-6.7,6.88,6.88,0,0,1,3.72,1.82A4.39,4.39,0,0,0,34,52.4c-3.72.19-4.38,2.15-5,3.38s-.39,3.13.22,5.08A1.45,1.45,0,0,1,30,60.17Z" style="fill: #0c022f"/>
        <path d="M25.21,86.29a11.41,11.41,0,0,0,5.05-5.11A8.65,8.65,0,0,1,30,83.73s-1.6,4.28-4.59,3.61Z" style="fill: #5333ed;mix-blend-mode: multiply"/>
      </g>
    </g>
  </g>
</svg>
