<svg xmlns="http://www.w3.org/2000/svg" xmlns:xlink="http://www.w3.org/1999/xlink" width="164.67" height="224" viewBox="0 0 164.67 224">
  <defs>
    <linearGradient id="8ec9867b-738a-4490-b0d6-3e54d4f33df3" x1="52.73" y1="81.12" x2="60.4" y2="127.87" gradientUnits="userSpaceOnUse">
      <stop offset="0" stop-color="#120667"/>
      <stop offset="1" stop-color="#5333ed"/>
    </linearGradient>
    <linearGradient id="83069a41-b252-4ec7-a70d-7f1c47a74f34" x1="46.5" y1="91.44" x2="51.25" y2="107.19" xlink:href="#8ec9867b-738a-4490-b0d6-3e54d4f33df3"/>
    <linearGradient id="61896989-af40-4f23-92a6-9aaeadeca932" x1="36.8" y1="93.75" x2="69.12" y2="116.87" xlink:href="#8ec9867b-738a-4490-b0d6-3e54d4f33df3"/>
  </defs>
  <title>home-stories</title>
  <g style="isolation: isolate">
    <g id="6c4e1029-ca7b-4b59-8297-23b51822a9f2" data-name="figures and interactions">
      <polygon points="2.3 55.59 2.3 202.68 90.88 151.55 90.88 4.46 2.3 55.59" style="fill: #fff"/>
      <polygon points="12.3 65.59 12.3 212.68 100.88 161.55 100.88 14.46 12.3 65.59" style="fill: none;stroke: #dfe9f8;stroke-miterlimit: 10"/>
      <g>
        <path d="M133.88,205.32v-2.57a2.79,2.79,0,0,0-1.68-2.56l-.78-.34a3.43,3.43,0,0,0-3.7.63,65.88,65.88,0,0,0-5.68,6.16c-.92,1.11-1.55,2-2.09,2.6a1.83,1.83,0,0,0,.46,2.82l.66.37a1.83,1.83,0,0,0,1.82,0l10.33-6A1.31,1.31,0,0,0,133.88,205.32Z" style="fill: #dfe9f8"/>
        <path d="M120.34,210.83a1.83,1.83,0,0,0,.89,1.23l.66.37a1.83,1.83,0,0,0,1.82,0l9.91-5.72" style="fill: none;stroke: #120667;stroke-linecap: round;stroke-miterlimit: 10;stroke-width: 1.5px"/>
        <path d="M132.94,194.6l-5.21-2-.06,7.4h0c-.21.79.5,1.9,1.74,2.62s2.84.79,3.3,0a1,1,0,0,0,.12-.53h0Z" style="fill: #ffc398"/>
        <ellipse cx="129.06" cy="201.81" rx="1.34" ry="2.32" transform="translate(-110.24 212.67) rotate(-60)" style="fill: #dfe9f8"/>
        <path d="M126.6,201.26a3.28,3.28,0,0,1,1.7.48c1.11.64,1.71,1.68,1.34,2.32" style="fill: none;stroke: #120667;stroke-linecap: round;stroke-miterlimit: 10;stroke-width: 0.475249074277414px"/>
        <path d="M125.37,202.8a3.16,3.16,0,0,1,1.64.46c1.07.62,1.65,1.62,1.29,2.24" style="fill: none;stroke: #120667;stroke-linecap: round;stroke-miterlimit: 10;stroke-width: 0.475249074277414px"/>
        <path d="M124,204.38a2.94,2.94,0,0,1,1.52.43c1,.58,1.53,1.51,1.2,2.08" style="fill: none;stroke: #120667;stroke-linecap: round;stroke-miterlimit: 10;stroke-width: 0.475249074277414px"/>
        <path d="M126,202a3.16,3.16,0,0,1,1.64.46c1.07.62,1.65,1.62,1.29,2.24" style="fill: none;stroke: #120667;stroke-linecap: round;stroke-miterlimit: 10;stroke-width: 0.475249074277414px"/>
        <path d="M124.66,203.59a2.94,2.94,0,0,1,1.52.43c1,.58,1.53,1.51,1.2,2.08" style="fill: none;stroke: #120667;stroke-linecap: round;stroke-miterlimit: 10;stroke-width: 0.475249074277414px"/>
        <line x1="119.41" y1="211" x2="121.55" y2="212.24" style="fill: none;stroke: #120667;stroke-linecap: round;stroke-miterlimit: 10;stroke-width: 1.5px"/>
        <path d="M123.21,198.74v-2.57a2.79,2.79,0,0,0-1.68-2.56l-.78-.34a3.43,3.43,0,0,0-3.7.63,65.88,65.88,0,0,0-5.68,6.16c-.92,1.11-1.55,2-2.09,2.6a1.83,1.83,0,0,0,.46,2.82l.66.37a1.83,1.83,0,0,0,1.82,0l10.33-6A1.31,1.31,0,0,0,123.21,198.74Z" style="fill: #dfe9f8"/>
        <path d="M109.67,204.24a1.83,1.83,0,0,0,.89,1.23l.66.37a1.83,1.83,0,0,0,1.82,0l9.91-5.72" style="fill: none;stroke: #120667;stroke-linecap: round;stroke-miterlimit: 10;stroke-width: 1.5px"/>
        <path d="M122.42,188.11l-5.21-2-.22,7.3h0c-.21.79.5,1.9,1.74,2.62s2.84.79,3.3,0a1,1,0,0,0,.12-.53h0Z" style="fill: #ffc398"/>
        <ellipse cx="118.39" cy="195.22" rx="1.34" ry="2.32" transform="translate(-109.87 200.13) rotate(-60)" style="fill: #dfe9f8"/>
        <path d="M115.92,194.68a3.28,3.28,0,0,1,1.7.48c1.11.64,1.71,1.68,1.34,2.32" style="fill: none;stroke: #120667;stroke-linecap: round;stroke-miterlimit: 10;stroke-width: 0.475249074277414px"/>
        <path d="M114.7,196.22a3.16,3.16,0,0,1,1.64.46c1.07.62,1.65,1.62,1.29,2.24" style="fill: none;stroke: #120667;stroke-linecap: round;stroke-miterlimit: 10;stroke-width: 0.475249074277414px"/>
        <path d="M113.33,197.8a2.94,2.94,0,0,1,1.52.43c1,.58,1.53,1.51,1.2,2.08" style="fill: none;stroke: #120667;stroke-linecap: round;stroke-miterlimit: 10;stroke-width: 0.475249074277414px"/>
        <path d="M115.35,195.42a3.16,3.16,0,0,1,1.64.46c1.07.62,1.65,1.62,1.29,2.24" style="fill: none;stroke: #120667;stroke-linecap: round;stroke-miterlimit: 10;stroke-width: 0.475249074277414px"/>
        <path d="M114,197a2.94,2.94,0,0,1,1.52.43c1,.58,1.53,1.51,1.2,2.08" style="fill: none;stroke: #120667;stroke-linecap: round;stroke-miterlimit: 10;stroke-width: 0.475249074277414px"/>
        <line x1="108.74" y1="204.42" x2="110.88" y2="205.65" style="fill: none;stroke: #120667;stroke-linecap: round;stroke-miterlimit: 10;stroke-width: 1.5px"/>
        <path d="M123.22,190.19l.08-1.38c.1-1-.75-2.39-2.21-3.34-1.78-1.17-3.77-1.28-4.45-.25a1.52,1.52,0,0,0-.19,1.06l0,0-.07,1.32h0a4.24,4.24,0,0,0,2.21,3.27c1.78,1.17,3.77,1.28,4.45.25a1.35,1.35,0,0,0,.19-.48h0v-.15A1.69,1.69,0,0,0,123.22,190.19Z" style="fill: #2cd4d9"/>
        <path d="M133.82,195.68h0c.09-1-.75-2.38-2.21-3.33-1.78-1.17-3.77-1.28-4.45-.25a1.45,1.45,0,0,0-.22.87h0l-.08,1.42h0c-.11,1,.74,2.4,2.2,3.36,1.78,1.17,3.77,1.28,4.45.25a1.39,1.39,0,0,0,.2-.64h0Z" style="fill: #2cd4d9"/>
        <path d="M133.39,139.67c-.13-3.74-.33-18.19-1.42-21.83-3.17-10.58-23.53-13.67-26.58-10.83-1.8,1.67,11.49,75.1,11.7,78.06-.59.89.19,2.44,1.74,3.45s3.28,1.11,3.86.22a1.18,1.18,0,0,0,.16-.44h0v-.08a1.53,1.53,0,0,0,0-.36c0-3-2.85-53.77-3.11-55.69,0,0,8.25,57.08,7.71,60h0c-.29.91.47,2.25,1.87,3.17,1.55,1,3.28,1.11,3.86.22a1.23,1.23,0,0,0,.18-.65h0S133.47,142,133.39,139.67Z" style="fill: #120667"/>
        <path d="M135.81,137.35l3.05-20.55h-5.28l-1.76,19.61c-.52,2.23-1.89,8.06-2,8.29s-.88,4.2-.88,4.2l.32,2.61c1-.71.66-2.28.66-2.28l.84-3.26-.36,3.47,1,3.07a3.13,3.13,0,0,0,.06-3.06l.71-3.25-.3,3.44.33,2.87a3.4,3.4,0,0,0,.79-3.16l.73-4,0,3.68,1.11,1.74a3.13,3.13,0,0,0-.3-2.23l.37-3a22.06,22.06,0,0,0,.9-8.18Z" style="fill: #ffc398"/>
        <path d="M137.49,87.54l0,0a4.87,4.87,0,0,0-2.06-2.12l-.12-.06,0,0L113,72.44a14.63,14.63,0,0,0-6.35-1.81,7.84,7.84,0,0,0-1.09.08A8.38,8.38,0,0,0,102,71.86a6.91,6.91,0,0,0-3.45,4h0c-1.42,3,5.86,20.23,6.23,21.22v7.62h0c-.21,3.87,3.3,8.81,9,12.08,6.89,4,14.33,4,16.63,0a5.05,5.05,0,0,0,.62-1.9h0v0a6.27,6.27,0,0,0,0-1.53V105.4l0-.21A8.46,8.46,0,0,1,132,103c.65,8.37.77,12.59.73,14.71a4.33,4.33,0,0,0,2,3.75c1.89,1.2,4.62,1.39,5-.9C142.21,107.08,141.6,94.56,137.49,87.54Z" style="fill: #5333ed"/>
        <polygon points="131.95 103.02 131.13 94.99 130.48 95.78 131.02 105.03 131.95 103.02" style="fill: #5333ed;mix-blend-mode: multiply"/>
        <path d="M122.53,79.59l0-9.4-8.75,0V83C113.85,85.81,121.24,83.31,122.53,79.59Z" style="fill: #eba87c"/>
        <path d="M113.79,77.55l0-6,8.72-.14v2.5c-1.25,2.19-2.83,4.38-7.12,4A10.86,10.86,0,0,1,113.79,77.55Z" style="fill: #dd8657"/>
        <path d="M99.36,106.39c1-.78,3.72-2,5.41-8.61l4.29-25.07L98.35,76.8s1.14,16.86-3.47,22.83C92.72,102.42,97.44,107.94,99.36,106.39Z" style="fill: #5333ed"/>
        <path d="M104.76,97.1,101,87.18l-.4,1a106.18,106.18,0,0,1,3.6,11.62,11.85,11.85,0,0,0,.62-2Z" style="fill: #5333ed;mix-blend-mode: multiply"/>
        <path d="M78.55,119.32c4.94-2.11,6-5.47,6-5.47a2.34,2.34,0,0,0-.31-2c-.56-1.09-2.76-.41-2.84-.31s-5.48,4.22-5.67,4.44.32,1.57.32,1.57l1.21.82Z" style="fill: #eba87c"/>
        <circle cx="112.21" cy="67.3" r="2.25" style="fill: #0c022f"/>
        <path d="M124.65,70.91a1.86,1.86,0,0,0-1.39-2.23s-.06,0-.1,0l.09-2.18a6,6,0,0,0-11.91-.5l-.21,5c-.19,4.44,2.18,5.33,5.14,5.46a6.47,6.47,0,0,0,6.33-4.16A1.82,1.82,0,0,0,124.65,70.91Z" style="fill: #ffc398"/>
        <path d="M123.17,68.7s-.38,2.87-1.63,3.18l.08-4.16s0-.54-.37-.66c-.84-.26-3.44,2-8.62.36a3.46,3.46,0,0,1-1.49-.9,3.07,3.07,0,0,1-.53-2.2c0-.41,1-4.42,7.4-4.47a10,10,0,0,1,4,1.34s1.31-.39,1.85.23,2.93,2.16.62,8.09A2.1,2.1,0,0,0,123.17,68.7Z" style="fill: #0c022f"/>
        <circle cx="123.17" cy="69.09" r="1.04" style="fill: #0c022f"/>
        <path d="M39.56,197.18l.16,2.09a51.16,51.16,0,0,1-1.2,9.4,2.52,2.52,0,0,1-2.05,1.92,2.37,2.37,0,0,1-2.88-1.83,74.93,74.93,0,0,1-.54-9s.12-1.63.28-2.74Z" style="fill: #0c022f"/>
        <path d="M34.61,193.88l.23-.19a2.52,2.52,0,0,1,2.76-.27l.68.36c1.1.57,1.38,3.23,1.29,4.46-.14,1.93-.3,3.5-.74,6.44a28.79,28.79,0,0,1-.7,3.5A2.25,2.25,0,0,1,36,209.9c-1.25,0-2-.69-2.12-2.51,0,0-.54-5.57-.58-8.6C33.27,197.12,33.31,194.94,34.61,193.88Z" style="fill: #5333ed"/>
        <polygon points="45.08 189.59 46.89 160.29 54.01 153.54 49.25 189.1 49.54 192.6 45.08 189.59" style="fill: #9e684d"/>
        <path d="M56.54,196.36A10.84,10.84,0,0,0,52,193l-6.18-2h0c-1.11-.4-2.15-.3-2.52.34s.21,1.9,1.41,2.68a1.54,1.54,0,0,0,.22.17l8.55,5a2,2,0,0,0,.33.14c1.53.69,3,.61,3.56-.27C57.77,198.26,57.4,197.24,56.54,196.36Z" style="fill: #0c022f"/>
        <path d="M56.52,195.68a17.35,17.35,0,0,0-4.46-3.34l-6.09-2h0c-1.09-.4-2.12-.29-2.48.34s.2,1.87,1.39,2.64a1.52,1.52,0,0,0,.22.16l8.44,4.89a2,2,0,0,0,.32.13c1.51.68,3,.6,3.51-.26C57.74,197.55,57.37,196.55,56.52,195.68Z" style="fill: #5333ed"/>
        <ellipse cx="47.03" cy="191.15" rx="1.68" ry="2.9" transform="translate(-142.03 136.3) rotate(-60)" style="fill: #9e684d"/>
        <path d="M48.15,193.71a14.71,14.71,0,0,1-1.2-2.08.69.69,0,0,1,.27-.87l1.11-.7a1.49,1.49,0,0,1,1.86.22,38.21,38.21,0,0,0,3.58,3.09Z" style="fill: #5333ed"/>
        <path d="M43.47,190.68a6,6,0,0,1,1-1.94,7.2,7.2,0,0,1,.64-.48v1a2.7,2.7,0,0,0,.64,3.07l-.18.51-1.54-1Z" style="fill: #5333ed"/>
        <path d="M34.57,196.39l2.5-34.85,6.07.63-4.41,33.74,0,1.19a1.63,1.63,0,0,1-2.22,1.48l-.87-.34A1.68,1.68,0,0,1,34.57,196.39Z" style="fill: #9e684d"/>
        <path d="M38.36,199.42l.23-2.2a1,1,0,0,0-.71-1.08l-.4-.12a3.3,3.3,0,0,0-1.24-.14l-.55,0a1,1,0,0,0-.94,1l0,2.38Z" style="fill: #5333ed"/>
        <g>
          <g>
            <path d="M63.46,137.9,63.3,140c-.8-.55-.58-1.88-.58-1.88l-.59-2.37a18.58,18.58,0,0,1-1.84-6.68h0a2.2,2.2,0,0,1,.69-1.64,1.2,1.2,0,0,1,1.84-.06.66.66,0,0,1,.16.26h0l3.22,6.76c.11.23,1.42,3.32,1.42,3.32l.43,2.42c-.93-.46-1.2-2-1.2-2l-1.26-2.54.75,2.61-.09,2.76a3.53,3.53,0,0,1-.81-2.61l-1-2.38.65,2.5.46,2.56a2.91,2.91,0,0,1-1.26-2.28l-1.24-3.29Z" style="fill: #9e684d"/>
            <path d="M59.37,116.88h0l3.69,10.7h0a4.78,4.78,0,0,1,.21.65h0a12.74,12.74,0,0,1,2.28,2.84,16.72,16.72,0,0,1,0,3l-.55,1.5a2.89,2.89,0,0,1-.39-2.34l-.21-.79a4.35,4.35,0,0,1-2.79-.68,2.6,2.6,0,0,1-1.25-1.41h0l-4.52-10h0a6.15,6.15,0,0,1-.53-1.64c-.37-2.09.31-4,1.52-4.16C57.81,114.4,58.83,115.39,59.37,116.88Z" style="fill: #b7835f"/>
          </g>
          <path d="M49.65,83.86c.42-1.44,1.78-3.76,4.27-3s5,2.68,4.75,5.66c0,0-1,20.53,4.84,41.26h0a1,1,0,0,1,0,.5c-.24.82-1.57,1.14-3,.73a3,3,0,0,1-2.11-1.69h0S47.15,96.21,49.65,83.86Z" style="fill: url(#8ec9867b-738a-4490-b0d6-3e54d4f33df3)"/>
        </g>
        <g>
          <g style="mix-blend-mode: multiply">
            <path d="M43.34,160.71l-.7,5.26a21,21,0,0,1-6,1,10.22,10.22,0,0,1,.61-3.52C38.22,161.12,43.34,160.71,43.34,160.71Z" style="fill: #70412c"/>
          </g>
          <g style="mix-blend-mode: multiply">
            <path d="M54.09,154.54l-1,5.85A30.44,30.44,0,0,1,49,163.22c-.82.48-1.51.82-2.34,1.21.25-2.6-.09-4.86.43-6.17C48,155.95,54.09,154.54,54.09,154.54Z" style="fill: #70412c"/>
          </g>
        </g>
        <path d="M26.86,157.43h0a10.58,10.58,0,0,1,.48-2.17c1.35-5.67,4.12-15.08,5.7-20.37a59.73,59.73,0,0,0,1.75-7.55A163.11,163.11,0,0,1,38.86,108s3.24,6,11,1.51c3.19-1.84,6.31-6.34,6.31-6.34,4.13,5.29,3.86,24.9,3.86,24.9a172.59,172.59,0,0,0,.19,17.56q0,.51.07,1c0,3.23-2,7-5.33,10.33a29.94,29.94,0,0,1-6.12,4.65c-8.78,5.07-18.28,5.07-21.2,0A6.93,6.93,0,0,1,26.86,157.43Z" style="fill: #0c022f"/>
        <path d="M38,88.59l13.32-7.68h0a2.54,2.54,0,0,1,1.81-.28,5.75,5.75,0,0,1,3.49,2,3,3,0,0,1,.57,2l-.9,17.78h0c.23,2.55-2.09,5.87-5.87,8.06-4.52,2.61-9.4,2.61-10.91,0a3.43,3.43,0,0,1-.44-1.74h0L35.26,94.23A5.13,5.13,0,0,1,38,88.59Z" style="fill: url(#83069a41-b252-4ec7-a70d-7f1c47a74f34)"/>
        <g>
          <path d="M71.1,118.41l-10.66-2.32-.05-.06A2.58,2.58,0,0,1,62,111.72h0l9.61,2.69c2.25.3,8.11,1.07,8.34,1.09s2.24.63,2.24.63a3.51,3.51,0,0,1,1.56-.23l-1.27,1.4-1.68-.48s1.06.15,1.1.71-1.38.69-1.38.69.62.17.53.54c-.17.67-1.87.57-1.87.57s.79,0,.8.32c0,.58-1,.81-1,.81a21.79,21.79,0,0,1-7.87-2Z" style="fill: #b7835f"/>
          <path d="M36.14,97.58c-.54-1.87-1.79-4.37-.42-6.83,1.27-2.26,5.29-3,7.54.38A104.69,104.69,0,0,0,54.2,103.79c5.38,5.44,11.88,7.69,19.31,10.69.65.26-.71,3.74-2.06,4.31-.84.36-11.13-.94-17.38-5.37C47.3,108.6,41.34,106.28,36.14,97.58Z" style="fill: url(#61896989-af40-4f23-92a6-9aaeadeca932)"/>
        </g>
        <g>
          <ellipse cx="46.27" cy="87.64" rx="2.13" ry="3.68" transform="translate(-52.76 83.89) rotate(-60)" style="fill: #eba87c"/>
          <path d="M42.91,81.34l6.72,2.35v5.08h0a1.35,1.35,0,0,1-.16.72c-.59,1-2.49,1-4.25,0-1.46-.84-2.34-2.11-2.28-3.1h0Z" style="fill: #9e684d"/>
          <path d="M42.91,77.2l6.72,2.35v5.08h0a1.35,1.35,0,0,1-.16.72c-.59,1-2.49,1-4.25,0-1.46-.84-2.34-2.11-2.28-3.1h0Z" style="fill: #70412c"/>
        </g>
        <path d="M76.32,120a3.53,3.53,0,0,1,.87-1.93c.78-.84.22,1.56.22,1.56s-.12.68-.49.87S76.25,120.37,76.32,120Z" style="fill: #ffc398"/>
        <path d="M77.78,120.36a3.12,3.12,0,0,1,.35-1.84c.5-.88.51,1.3.51,1.3s0,.61-.24.85S77.8,120.73,77.78,120.36Z" style="fill: #ffc398"/>
        <path d="M76.59,115.67s1.49-1.51,1.75-1.67a31.31,31.31,0,0,1,3.23-2.65s1.68-1.1,2.64.34a2.15,2.15,0,0,1,.27,2.42,2.88,2.88,0,0,0-1.89-.22,6.72,6.72,0,0,0-1.24.6l-3.2,1.85-.54.31a2,2,0,0,1-.74,1,1.4,1.4,0,0,1-.8.22Z" style="fill: #ffc398"/>
        <path d="M74.89,120.11a4.19,4.19,0,0,1,1-2.29c.93-1,.26,1.85.26,1.85s-.14.81-.58,1S74.81,120.6,74.89,120.11Z" style="fill: #ffc398"/>
        <path d="M73.48,119.32a3.68,3.68,0,0,1,1.59-1.52c1.08-.5-.4,1.59-.4,1.59s-.38.61-.81.65S73.25,119.69,73.48,119.32Z" style="fill: #ffc398"/>
        <path d="M40.66,80.67a1.72,1.72,0,0,1,1-2.23s.06,0,.09,0l-.39-2a5.51,5.51,0,0,1,10.82-2.13l.89,4.5c.79,4-1.24,5.18-3.93,5.71a6,6,0,0,1-6.37-2.92A1.69,1.69,0,0,1,40.66,80.67Z" style="fill: #b7835f"/>
        <path d="M37,68.85a1.25,1.25,0,0,1,.87-1.54,1.23,1.23,0,0,1,1,.2,3.18,3.18,0,0,1,5.39-.72,1.37,1.37,0,0,1,1.31,2.28,6.72,6.72,0,0,1,4.18.33.92.92,0,0,1,.47.64A3.34,3.34,0,0,1,52,73.72,5.29,5.29,0,0,0,50,71a4,4,0,0,1-2,1.53,2.77,2.77,0,0,1-1.91-.14l0,.06s-1.31-.68-2,.06a1.3,1.3,0,0,0,.15,1.92,3.49,3.49,0,0,1,.17.4A2.14,2.14,0,0,1,43,77.55h-.1c.16.16,1,1.06.74,1.68l-.67.32a1.32,1.32,0,0,0-1.26-1.11.64.64,0,0,0-.38.12,6.93,6.93,0,0,1-1-2.44c0-.14-.76-2.41-.28-3.52a1.48,1.48,0,0,1,.8-.79,3.34,3.34,0,0,1-.4-.15A2,2,0,0,1,38,69.73,1.24,1.24,0,0,1,37,68.85Z" style="fill: #5333ed"/>
        <path d="M95,100.67c-1.93,1.68-12.83,10.67-12.83,10.67l2.08,2.75a80.82,80.82,0,0,0,15.08-8.42C100.81,104.54,96.6,99.25,95,100.67Z" style="fill: #ffc398"/>
      </g>
    </g>
  </g>
</svg>
