<svg xmlns="http://www.w3.org/2000/svg" width="226.38" height="74" viewBox="0 0 226.38 74">
  <title>logo-ubisoft</title>
  <g id="702d6374-c339-400f-84c6-97c1c6eaaef0" data-name="figures and interactions">
    <path d="M153.38,33.45v.21s4.64,0,4.62,0c0-2.07.11-4.75-4.92-4.75H137.91v5.88c0,1.63.75,4.42,4.67,4.42h10.95v.92c0,1.06-.1,1.52-2.16,1.52h-8.09c-.94,0-.87-.77-.87-.77v-.29h-4.66v1.29c0,1.48.62,3.59,4.1,3.59h12c2.26,0,4.71-.83,4.71-3.72V39c0-1.64-.4-3.76-4.19-3.76h-8.59c-2.48,0-2.87-.57-2.87-1.68v-.85h9.63C152.88,32.73,153.38,32.86,153.38,33.45Z" style="fill: #3a393f"/>
    <path d="M94.81,38.37a3.16,3.16,0,0,1-.64,2.24,3.06,3.06,0,0,1-2.22.65H86.87a3,3,0,0,1-2.21-.65A3.14,3.14,0,0,1,84,38.37V28.91H78.89V39.45A5.76,5.76,0,0,0,80.55,44q1.66,1.47,5.19,1.47H99.92V28.91H94.81Z" style="fill: #3a393f"/>
    <path d="M119.93,41.39a2.85,2.85,0,0,1-1.39.26H109.3V38.8h9.24a2.58,2.58,0,0,1,1.38.3,1.37,1.37,0,0,1,.47,1.18A1.27,1.27,0,0,1,119.93,41.39ZM109.3,32.73h9.12q1.51,0,1.5,1.3a1.46,1.46,0,0,1-.37,1.11,1.84,1.84,0,0,1-1.14.28H109.3ZM122.59,37a3.49,3.49,0,0,0,1.89-1.1,4.39,4.39,0,0,0,.59-2.66,3.7,3.7,0,0,0-1.45-3.33,8.61,8.61,0,0,0-4.64-1h-14.8V45.47h16.37a6.57,6.57,0,0,0,3.78-.93c.89-.62,1.33-1.92,1.33-3.58a4.62,4.62,0,0,0-.69-2.82A3.48,3.48,0,0,0,122.59,37Z" style="fill: #3a393f"/>
    <rect x="128.8" y="28.91" width="5.15" height="16.56" style="fill: #3a393f"/>
    <polygon points="192.56 35.89 192.56 33.1 204.89 33.1 204.89 28.91 187.44 28.91 187.44 45.47 192.56 45.47 192.56 40.1 204.31 40.1 204.31 35.89 192.56 35.89" style="fill: #3a393f"/>
    <polygon points="226.38 28.91 206.91 28.91 206.91 33.09 214.08 33.09 214.08 45.47 219.2 45.47 219.2 33.09 226.38 33.09 226.38 28.91" style="fill: #3a393f"/>
    <path d="M178.44,38.14c0,1.36-.14,2-.57,2.41a3.14,3.14,0,0,1-2.35.71h-6.18a2.88,2.88,0,0,1-2.35-.73A3.82,3.82,0,0,1,166.4,38V36.21a3.41,3.41,0,0,1,.66-2.34,3.23,3.23,0,0,1,2.56-.79h8.83Zm-9.81-9.23c-3.21,0-4.39.48-5.53,1.28s-1.85,2.2-1.85,4.46v4.89q0,3.42,1.82,4.67c1.21.84,2.81,1.25,5.57,1.25h7.8c2.76,0,4.21-.37,5.43-1.22s1.77-2.15,1.77-4.71V28.91h-15Z" style="fill: #3a393f"/>
    <path d="M38.24,50.89a8.58,8.58,0,0,0-1.22-12,8.34,8.34,0,0,0-11.83,1.24,8.56,8.56,0,0,0-1.66,7.31,11.17,11.17,0,0,1,1.59-11.28,10.86,10.86,0,0,1,15.4-1.61A11.16,11.16,0,0,1,42.1,50.14,10.86,10.86,0,0,1,31.51,54,8.35,8.35,0,0,0,38.24,50.89Zm-7.15-2.18A5,5,0,0,0,34.47,40,6.48,6.48,0,0,1,37.6,45.8a6.38,6.38,0,1,1-9.13-6.1,5,5,0,0,0,2.62,9Zm2.54,16.07c-20.81.11-22.57-18.44-22.57-18.44a18,18,0,0,1,15.6-20,17.75,17.75,0,0,1,16.75,7.61A13.6,13.6,0,0,0,32,29.86,13.87,13.87,0,0,0,35.25,57.4c7.51-.61,14.23-7.89,12.74-18.86C46.57,28.1,37.89,21.1,27.47,21.1A21,21,0,0,0,6.64,42.29a21.58,21.58,0,0,0,.48,4.53l.19.73a28.16,28.16,0,0,1,4-28.44,27.39,27.39,0,0,1,38.82-4h0A28,28,0,0,1,61,37.12,27.38,27.38,0,0,1,33.63,64.78Zm-.7-61.09A33.13,33.13,0,0,0,0,37,33.13,33.13,0,0,0,32.93,70.31,33.13,33.13,0,0,0,65.86,37,33.13,33.13,0,0,0,32.93,3.69Z" style="fill: #3a393f"/>
  </g>
</svg>
