<?xml version="1.0" encoding="UTF-8"?>
<svg width="183px" height="74px" viewBox="0 0 183 74" version="1.1" xmlns="http://www.w3.org/2000/svg" xmlns:xlink="http://www.w3.org/1999/xlink">
    <!-- Generator: Sketch 47 (45396) - http://www.bohemiancoding.com/sketch -->
    <title>Intuit</title>
    <desc>Created with Sketch.</desc>
    <defs></defs>
    <g id="Page-1" stroke="none" stroke-width="1" fill="none" fill-rule="evenodd">
        <g id="Intuit" fill-rule="nonzero" fill="#0077C5">
            <g transform="translate(0.000000, 5.000000)">
                <path d="M181.41,48.72 C181.397203,48.4487993 181.267769,48.1963776 181.055015,48.0277079 C180.842262,47.8590383 180.56697,47.7905967 180.3,47.84 L179.3,47.84 L179.3,50.84 L179.83,50.84 L179.83,49.59 L180.22,49.59 L180.92,50.84 L181.57,50.84 L180.76,49.53 C181.148635,49.4603629 181.426185,49.1144928 181.41,48.72 L181.41,48.72 Z M179.79,49.15 L179.79,48.32 L180.28,48.32 C180.413474,48.2875697 180.554447,48.313875 180.667244,48.3922591 C180.78004,48.4706431 180.853852,48.5935948 180.87,48.73 C180.848857,48.8779731 180.766212,49.0101382 180.642429,49.0939294 C180.518647,49.1777207 180.365237,49.2053466 180.22,49.17 L179.79,49.17 L179.79,49.15 Z M180.29,46.7 C178.836205,46.7275787 177.678403,47.925525 177.700374,49.3794155 C177.722344,50.833306 178.915816,51.9957205 180.36978,51.9793579 C181.823745,51.9629954 182.990754,50.7740167 182.98,49.32 C182.972104,48.615406 182.683916,47.9429688 182.179137,47.4513254 C181.674358,46.959682 180.994557,46.6893197 180.29,46.7 Z M180.29,51.59 C179.052882,51.59 178.05,50.5871178 178.05,49.35 C178.05,48.1128822 179.052882,47.11 180.29,47.11 C181.527118,47.11 182.53,48.1128822 182.53,49.35 C182.524524,50.5848425 181.524842,51.5845239 180.29,51.59 L180.29,51.59 Z" id="_"></path>
                <path d="M0.98,15.59 L9.98,15.59 L9.98,51.59 L0.98,51.59 L0.98,15.59 Z M39.07,14.54 C34.3593663,14.4699755 30.0252809,17.1054104 27.92,21.32 L27.77,21.32 L27.77,15.55 L19.22,15.55 L19.22,51.55 L28.22,51.55 L28.22,31.75 C28.22,26.95 30.92,22 36.62,22 C42.32,22 43.37,27.33 43.37,31.6 L43.37,51.6 L52.37,51.6 L52.37,29.1 C52.37,21.74 48.47,14.54 39.1,14.54 L39.07,14.54 Z M116.53,35.39 C116.53,40.19 113.83,45.14 108.13,45.14 C102.43,45.14 101.38,39.82 101.38,35.54 L101.38,15.54 L92.38,15.54 L92.38,38.04 C92.38,45.39 96.28,52.59 105.66,52.59 C110.389728,52.6608955 114.737633,50.0023288 116.83,45.76 L116.98,45.76 L116.98,51.54 L125.53,51.54 L125.53,15.54 L116.53,15.54 L116.53,35.34 L116.53,35.39 Z M134.74,51.59 L143.74,51.59 L143.74,15.59 L134.74,15.59 L134.74,51.59 Z M56.93,23.59 L67.02,23.59 L67.02,51.59 L76.02,51.59 L76.02,23.59 L86.11,23.59 L86.11,15.59 L56.98,15.59 L56.98,23.59 L56.93,23.59 Z M71.52,10.92 C74.524429,10.92 76.96,8.48442904 76.96,5.48 C76.96,2.47557096 74.524429,0.04 71.52,0.04 C68.515571,0.04 66.08,2.47557096 66.08,5.48 C66.1020173,8.48053346 68.5494318,10.8966283 71.55,10.88 L71.52,10.92 Z M150.05,15.61 L150.05,23.61 L160.14,23.61 L160.14,51.61 L169.14,51.61 L169.14,23.61 L179.23,23.61 L179.23,15.61 L150.08,15.61 L150.05,15.61 Z M164.64,10.92 C167.644429,10.92 170.08,8.48442904 170.08,5.48 C170.08,2.47557096 167.644429,0.04 164.64,0.04 C161.635571,0.04 159.2,2.47557096 159.2,5.48 C159.222017,8.48053346 161.669432,10.8966283 164.67,10.88 L164.64,10.92 Z"></path>
            </g>
        </g>
    </g>
</svg>