<?xml version="1.0" encoding="UTF-8"?>
<svg width="196px" height="74px" viewBox="0 0 196 74" version="1.1" xmlns="http://www.w3.org/2000/svg" xmlns:xlink="http://www.w3.org/1999/xlink">
    <!-- Generator: Sketch 47 (45396) - http://www.bohemiancoding.com/sketch -->
    <title>Ricoh</title>
    <desc>Created with Sketch.</desc>
    <defs></defs>
    <g id="Page-1" stroke="none" stroke-width="1" fill="none" fill-rule="evenodd">
        <g id="Ricoh" fill-rule="nonzero" fill="#DA1E48">
            <g transform="translate(0.000000, 19.000000)">
                <path d="M76.5534682,18.0028736 C76.5534682,25.0158833 81.6820809,30.1853646 90.2485549,30.1853646 C93.8839158,30.2528785 97.487141,29.4861328 100.787572,27.942722 L104,32.3709909 C99.3145774,34.9209406 94.0440939,36.1670447 88.7268786,35.9820257 C75.050578,35.9820257 65,29.3111141 65,18.0028736 L65,18.0028736 C65,6.59960594 75.050578,0.0237215739 88.7268786,0.0237215739 C93.8953286,-0.171743951 99.0385839,0.84289962 103.75578,2.98857117 L100.393064,8.10103619 C97.2630232,6.44999292 93.7557225,5.66950983 90.2297688,5.8393881 C81.6632948,5.8393881 76.5534682,11.0278749 76.5534682,18.0028736" id="Shape"></path>
                <path d="M127.490729,0 C114.511743,0 105,6.67864693 105,18 C105,29.3213531 114.419036,36 127.490729,36 C140.562423,36 150,29.3213531 150,18 C150,6.67864693 140.562423,0 127.490729,0 M127.490729,30.4439746 C120.296663,30.4439746 116.365884,24.9069767 116.365884,18.038055 C116.365884,11.1691332 120.333745,5.63213531 127.490729,5.63213531 C134.647713,5.63213531 138.615575,11.1691332 138.615575,18.038055 C138.615575,24.9069767 134.647713,30.4439746 127.490729,30.4439746" id="Shape"></path>
                <polygon id="Shape" points="184.93038 20.5906563 184.93038 35 196 35 196 1 184.93038 1 184.93038 13.9721913 168.031646 13.9721913 168.031646 1 157 1 157 35 168.031646 35 168.031646 20.5906563"></polygon>
                <rect id="Rectangle-path" x="47" y="1" width="12" height="34"></rect>
                <path d="M13.5867806,16.5008157 L13.5867806,19.7743339 C19.0931046,24.2012313 24.0469086,29.3154119 28.334982,35 L41,35 C36.2908756,29.3176499 30.865687,24.3121117 24.8691547,20.1169114 C30.7131295,19.8694943 37.2207734,17.4333877 37.2207734,10.5057096 C37.2207734,1.63675911 28.0031475,0 18.7855216,0 C11.1901978,0 4.20323741,0.36160957 0,0.723219141 L0,34.9809679 L10.5633993,34.9809679 L10.5633993,5.91897771 C13.3105987,5.58846177 16.0751534,5.43590646 18.8408273,5.46220772 C24.2792266,5.46220772 27.0260791,7.36541599 27.0260791,10.5437738 C27.0260791,13.3034258 25.8830935,16.6150082 13.6973921,16.5008157" id="Shape"></path>
            </g>
        </g>
    </g>
</svg>