<?xml version="1.0" encoding="UTF-8"?>
<svg width="112px" height="112px" viewBox="0 0 112 112" version="1.1" xmlns="http://www.w3.org/2000/svg" xmlns:xlink="http://www.w3.org/1999/xlink">
    <!-- Generator: Sketch 47 (45396) - http://www.bohemiancoding.com/sketch -->
    <title>GE</title>
    <desc>Created with Sketch.</desc>
    <defs></defs>
    <g id="Page-1" stroke="none" stroke-width="1" fill="none" fill-rule="evenodd">
        <g id="GE" fill-rule="nonzero" fill="#3B73B9">
            <path d="M68.5622857,41.4194286 C68.5622857,35.0514286 72.8731429,28.8754286 75.2251429,30.0388571 C77.9062857,31.3828571 73.216,37.3805714 68.5622857,41.4194286 M39.248,43.7394286 C39.248,38.6194286 44.2994286,28.8914286 47.3851429,29.92 C51.0331429,31.136 44.3634286,40.9485714 39.248,43.7394286 M34.1257143,80.3565714 C31.8034286,80.4617143 30.2491429,78.976 30.2491429,76.496 C30.2491429,69.8331429 39.4948571,63.4674286 46.4777143,60.0502857 C45.2388571,69.3531429 42.096,79.9977143 34.1257143,80.3565714 M76.7817143,58.6445714 C71.5085714,58.6445714 67.4788571,62.5234286 67.4788571,67.1748571 C67.4788571,71.0537143 69.8102857,74.1554286 72.9028571,74.1554286 C73.9977143,74.1554286 75.0811429,73.5314286 75.0811429,72.1462857 C75.0811429,70.1188571 72.4068571,69.632 72.608,66.6171429 C72.7428571,64.6285714 74.6171429,63.2982857 76.4777143,63.2982857 C80.1965714,63.2982857 81.936,66.9028571 81.936,70.6217143 C81.7851429,76.3657143 77.5565714,80.3542857 72.6011429,80.3542857 C66.0822857,80.3542857 61.8948571,74.1554286 61.8948571,67.4834286 C61.8948571,57.5497143 68.4137143,53.6731429 71.8285714,52.7474286 C71.8605714,52.7474286 80.7474286,54.3268571 80.4708571,50.4091429 C80.3428571,48.6857143 77.7805714,48.0228571 75.9291429,47.952 C73.8697143,47.872 71.7897143,48.6125714 71.7897143,48.6125714 C70.7108571,48.064 69.9611429,46.992 69.4971429,45.7577143 C75.8582857,40.944 80.3565714,36.2948571 80.3565714,31.0194286 C80.3565714,28.2285714 78.4914286,25.7462857 74.9234286,25.7462857 C68.5622857,25.7462857 63.7531429,33.8125714 63.7531429,41.104 C63.7531429,42.3405714 63.7531429,43.5862857 64.0731429,44.6697143 C60.0365714,47.6137143 57.0354286,49.4491429 51.6114286,52.7062857 C51.6114286,52.0274286 51.7531429,50.2742857 52.2102857,48.0068571 C54.0685714,45.9885714 56.6217143,42.9645714 56.6217143,40.6354286 C56.6217143,39.552 56.0068571,38.6171429 54.7542857,38.6171429 C51.6571429,38.6171429 49.3348571,43.2754286 48.7131429,46.5325714 C47.3165714,48.2468571 44.5234286,50.4182857 42.192,50.4182857 C40.3337143,50.4182857 39.7097143,48.7108571 39.552,48.0868571 C45.4491429,46.0685714 52.7405714,38.0022857 52.7405714,30.7108571 C52.7405714,29.1634286 52.1188571,25.7462857 47.4674286,25.7462857 C40.4868571,25.7462857 34.5988571,36.144 34.5988571,44.2011429 C32.1097143,44.2011429 31.184,41.568 31.184,39.5497143 C31.184,37.5291429 31.9588571,35.52 31.9588571,34.896 C31.9588571,34.2742857 31.648,33.5017143 30.7131429,33.5017143 C28.3908571,33.5017143 26.9942857,36.6034286 26.9942857,40.1714286 C27.1542857,45.136 30.4091429,48.2468571 34.7497143,48.5508571 C35.3714286,51.5017143 38.0045714,54.2948571 41.2594286,54.2948571 C43.28,54.2948571 45.76,53.6731429 47.4674286,52.1257143 C47.3165714,53.2091429 47.1657143,54.144 47.0057143,55.0697143 C40.176,58.6445714 35.2114286,61.1245714 30.7131429,65.1565714 C27.1542857,68.4182857 25.136,72.7588571 25.136,76.1668571 C25.136,80.8274286 28.08,85.168 34.128,85.168 C41.2594286,85.168 46.6948571,79.4308571 49.3348571,71.5154286 C50.5714286,67.7965714 51.0674286,62.3794286 51.3851429,57.408 C58.512,53.3691429 61.8948571,51.0422857 65.6205714,48.4 C66.0845714,49.1748571 66.5531429,49.7942857 67.168,50.2582857 C63.9131429,51.9657143 56.1577143,56.7771429 56.1577143,68.0982857 C56.1577143,76.1645714 61.5817143,85.1657143 72.2925714,85.1657143 C81.1337143,85.1657143 87.1817143,77.872 87.1817143,70.8891429 C87.1794286,64.5348571 83.6114286,58.6445714 76.7817143,58.6445714 M103.453714,71.9702857 C103.430857,72.0182857 103.344,72.0822857 103.168,72.0251429 C103.030857,71.9771429 103.001143,71.9131429 103.001143,71.824 C103.008,71.7371429 104.875429,66.2148571 104.859429,59.888 C104.843429,53.0491429 102.068571,48.8594286 98.5097143,48.8594286 C96.3314286,48.8594286 94.7817143,50.416 94.7817143,52.7474286 C94.7817143,56.9348571 99.8971429,57.248 99.8971429,66.3977143 C99.8971429,70.1165714 99.1222857,73.6845714 97.888,77.5611429 C92.1417143,96.9485714 73.8377143,105.949714 56.0068571,105.949714 C47.7805714,105.949714 41.9382857,104.258286 40.2011429,103.478857 C40.1302857,103.437714 40.064,103.302857 40.1211429,103.165714 C40.16,103.062857 40.2811429,102.982857 40.352,103.014857 C41.056,103.286857 46.0731429,104.866286 52.2811429,104.866286 C59.104,104.866286 63.1405714,102.075429 63.1405714,98.6582857 C63.1405714,96.4891429 61.4331429,94.7817143 59.264,94.7817143 C55.0742857,94.7817143 54.7565714,100.054857 45.7622857,100.054857 C41.8857143,100.054857 38.4708571,99.28 34.4411429,98.0342857 C15.2,92.1417143 6.04114286,73.9977143 6.048,56.0045714 C6.05485714,47.2365714 8.51428571,40.2537143 8.55314286,40.1897143 C8.58514286,40.144 8.69485714,40.0937143 8.82971429,40.144 C8.96685714,40.1897143 8.99657143,40.3017143 8.98971429,40.3428571 C8.768,41.0697143 7.13828571,46.0731429 7.13828571,52.2811429 C7.13828571,59.1108571 9.92914286,63.1405714 13.4971429,63.1405714 C15.5085714,63.1405714 17.216,61.5931429 17.216,59.4217143 C17.216,55.2274286 12.0937143,54.7634286 12.0937143,45.7645714 C12.0937143,41.8857143 12.8754286,38.4708571 14.112,34.4411429 C20.0091429,15.2045714 38.1622857,6.18971429 56.0022857,6.05028571 C64.2925714,5.98628571 71.5451429,8.46857143 71.824,8.69028571 C71.872,8.73142857 71.92,8.83657143 71.872,8.96228571 C71.8057143,9.11314286 71.7097143,9.12914286 71.664,9.12 C71.5771429,9.11314286 66.8594286,7.14057143 59.7188571,7.14057143 C53.0491429,7.13371429 48.8594286,9.92685714 48.8594286,13.4994286 C48.8594286,15.5108571 50.416,17.2182857 52.736,17.2182857 C56.9257143,17.2182857 57.2365714,12.1028571 66.2377143,12.1028571 C70.1051429,12.1028571 73.5222857,12.8685714 77.552,14.1142857 C96.9485714,20.0091429 105.773714,38.3131429 105.940571,56.0022857 C106.032,65.0605714 103.478857,71.9131429 103.453714,71.9702857 M56.0045714,2.64 C26.5302857,2.64 2.64228571,26.5211429 2.64228571,56.0022857 C2.64228571,85.4765714 26.5302857,109.357714 56.0045714,109.357714 C85.472,109.357714 109.36,85.4765714 109.36,56.0022857 C109.36,26.6811429 85.472,2.64 56.0045714,2.64 M56.0045714,112 C25.1337143,112 0,87.0262857 0,56.0045714 C0,25.1245714 25.1337143,0 56.0045714,0 C86.8662857,0 112,25.1245714 112,56.0045714 C112,87.0262857 86.8662857,112 56.0045714,112" id="path16"></path>
        </g>
    </g>
</svg>