<?xml version="1.0" encoding="UTF-8"?>
<svg width="137px" height="74px" viewBox="0 0 137 74" version="1.1" xmlns="http://www.w3.org/2000/svg" xmlns:xlink="http://www.w3.org/1999/xlink">
    <!-- Generator: Sketch 47 (45396) - http://www.bohemiancoding.com/sketch -->
    <title>ASOS</title>
    <desc>Created with Sketch.</desc>
    <defs></defs>
    <g id="Page-1" stroke="none" stroke-width="1" fill="none" fill-rule="evenodd">
        <g id="ASOS" fill-rule="nonzero" fill="#474747">
            <path d="M133.938756,37.9086666 C132.165853,36.105548 129.850088,34.9503199 127.48558,34.1464736 C124.299134,33.0307158 120.887132,32.7746402 117.724579,31.5866806 C116.688553,31.191015 115.658263,30.6711623 114.906093,29.8336219 C113.903519,28.7188268 113.687521,27.0013876 114.289639,25.6411065 C114.674803,24.7717973 115.425061,24.1085038 116.269938,23.7060993 C117.670101,23.0456939 119.260457,22.9474995 120.782,23.0659104 C122.331259,23.1814332 123.904412,23.6926217 125.060861,24.7689092 C126.063435,25.6815395 126.693269,26.9532531 126.948453,28.2788774 C126.987638,28.6235205 127.232308,28.9912681 127.617473,28.9575739 C130.097625,28.9826039 132.575866,29.0211115 135.056975,29.016298 C135.409644,29.0625071 135.747977,28.7592598 135.646668,28.3895868 C135.362813,26.3977809 134.67181,24.446408 133.541167,22.7790288 C132.176366,20.7467899 130.131076,19.2372918 127.877435,18.3381393 C125.795827,17.4900093 123.553654,17.1280378 121.321039,17.0019254 L118.754869,17.0019254 C116.010932,17.1482543 113.225897,17.5496961 110.703692,18.7039615 C108.862931,19.5357258 107.185602,20.833432 106.132374,22.5864907 C105.096349,24.2586835 104.693025,26.2504893 104.671043,28.2018622 C103.336826,25.4543446 101.334545,23.0533954 98.9432763,21.1761497 C95.7616084,18.6539016 91.7876298,17.220456 87.7515278,17.0019254 L85.6536723,17.0019254 C82.8697182,17.1660459 80.1536058,17.9327553 77.690423,19.2498068 C74.0705119,21.2044048 71.1081034,24.1973933 69.1785774,27.8495176 C68.8631823,26.3130642 68.370019,24.7977899 67.5643278,23.446173 C66.4996303,21.5997334 64.8958938,20.091198 63.0350625,19.0765226 C60.5778477,17.7143161 57.7650966,17.1665454 54.9896194,17.0019254 L52.3173624,17.0019254 C50.3036123,17.121299 48.2841277,17.357158 46.346837,17.944399 C44.0998856,18.6144313 41.9188805,19.7725475 40.4231429,21.6295768 C39.5677531,22.6635059 39.0095993,23.9082643 38.642594,25.1934556 C38.6435498,23.0774627 38.6406826,20.9605071 38.6454613,18.8435516 C38.6416383,18.6105806 38.6406826,18.339102 38.4399766,18.1812208 C38.2736773,17.9934962 38.0089365,18.0088992 37.7814698,18.0040858 C35.5383413,18.0146754 33.2942572,17.9983096 31.0511288,18.0117873 C30.7147073,17.9915708 30.4442321,18.3025197 30.4337189,18.6259836 C30.3983564,19.2344038 30.4461435,19.8447493 30.4203385,20.4541321 C30.440375,20.5988266 30.3706622,20.7411738 30.2444818,20.8132155 C30.0151035,20.7150212 29.8153533,20.5619534 29.6117801,20.4194753 C26.9051164,18.503722 23.717714,17.2040903 20.3974634,17 L18.6245605,17 C16.8229853,17.1020452 15.0281002,17.4129941 13.3211435,18.0079366 C10.3516506,19.038015 7.67748214,20.8497978 5.49934423,23.116933 C2.93795345,25.7084948 1.11821911,29.0519176 0.411925159,32.6446771 C0.187325594,33.7171139 0.0774151691,34.8068791 0,35.897607 L0,38.1214211 C0.133803996,40.5772436 0.641303438,43.0263273 1.64770064,45.2751714 C3.24092393,48.8351994 5.92560554,51.8638225 9.1560163,54.0000319 C12.2440214,56.0409349 15.958038,57.0325058 19.6386036,56.9901474 C23.3191693,57.0238416 26.925187,55.6221647 29.8057958,53.3521415 C29.9654049,53.2443202 30.2569065,52.9401101 30.4002679,53.2289171 C30.4719486,53.937457 30.3878432,54.6527358 30.4346746,55.3651265 C30.4451878,55.6808888 30.7127958,55.9908751 31.0406156,55.9783601 C33.3707166,55.9850989 35.7008176,55.9860616 38.0299629,55.9783601 C38.3874107,55.9899124 38.6712663,55.6366051 38.6416383,55.2881113 C38.6531072,53.2048499 38.6368596,51.1215885 38.6483285,49.038327 C39.3364633,50.5102802 40.2253042,51.9052182 41.4161597,53.018088 C43.410795,54.9396175 46.0543797,56.0370842 48.7371498,56.5482726 C50.973588,56.9911101 53.2635478,57.0334685 55.5343928,56.9747444 C57.9352188,56.8649977 60.338912,56.5001381 62.6174029,55.7116949 C64.4285356,55.0878717 66.1670318,54.1694654 67.5786639,52.8553934 C68.9412228,51.5853616 69.901105,49.9383179 70.3378935,48.1208834 C70.9394325,49.0038615 71.6038277,49.8416792 72.3258385,50.6277284 C74.9598658,53.5312018 78.4789109,55.6000229 82.2894575,56.4568171 C86.6132381,57.4532013 91.2877763,57.0941179 95.3085863,55.1533347 C99.0732573,53.3540668 102.218607,50.3129288 104.251472,46.655669 C104.809626,48.8419383 105.808377,50.952155 107.37484,52.5848774 C108.705234,54.0077334 110.393075,55.0580283 112.207075,55.7338368 C115.342868,56.9189083 118.747223,57.081603 122.062695,56.9708936 C124.790385,56.8322662 127.533367,56.3692123 130.067042,55.3141039 C132.021536,54.4987054 133.863252,53.2799397 135.143947,51.5596125 C136.260255,50.076107 136.857594,48.2498838 137,46.4053696 L137,44.6474974 C136.792604,42.1339135 135.747977,39.6732776 133.938756,37.9086666 L133.938756,37.9086666 Z M28.6111173,44.5473777 C27.5552363,46.4616484 25.8786943,47.9525829 23.8620312,48.7706992 C21.2996847,49.8132926 18.3387934,49.9576961 15.7410844,48.9574611 C13.4702394,48.1074057 11.5453734,46.410183 10.3411374,44.2999663 C8.85591305,41.7343971 8.38282035,38.677856 8.60168546,35.7435766 C8.85017859,32.7746402 9.97413216,29.8172562 12.0433154,27.6473527 C13.5439693,26.0698174 15.5135274,25.0270244 17.6544815,24.676491 C20.0266352,24.3106687 22.5306814,24.6168042 24.6983062,25.6748006 C26.5839868,26.6009085 28.0959719,28.221116 28.9704766,30.1320559 C29.9118833,32.1671828 30.2425703,34.4314299 30.2779328,36.6590949 C30.3132953,39.361366 29.9376884,42.1589435 28.6111173,44.5473777 L28.6111173,44.5473777 Z M60.79958,47.8089718 C60.2442934,48.7986172 59.3153114,49.5379632 58.276419,49.9596215 C56.9985908,50.4996906 55.5917374,50.5969223 54.2231136,50.5516759 C52.1816469,50.4919891 50.03696,49.9625096 48.5001256,48.5348401 C47.313093,47.4624033 46.6268696,45.9278753 46.3525714,44.3644665 C46.3210319,44.0631445 46.1174587,43.7223522 45.7753028,43.741606 C43.3983704,43.6645908 41.0195265,43.6944342 38.642594,43.6212698 C38.6311251,39.498068 38.6550187,35.3739035 38.6311251,31.2497391 C38.9016003,32.0593615 39.2131725,32.8641704 39.6939112,33.573673 C40.5961324,34.9589841 41.9370396,35.9958014 43.3744768,36.7659535 C46.0668043,38.2022871 49.0831287,38.8193715 52.04402,39.4133513 C54.2919271,39.8879575 56.5857099,40.333683 58.6577604,41.3695376 C59.8553061,41.9779577 61.0241796,42.9290956 61.3519994,44.300929 C61.5865667,45.499265 61.3907809,46.7425687 60.79958,47.8089718 Z M67.106527,37.485083 C65.3221551,35.8677636 63.1124777,34.8097671 60.8483229,34.0627196 C58.4446297,33.2502092 55.9243359,32.9123049 53.4814572,32.259601 C52.1873814,31.9111072 50.8875712,31.5144789 49.7301666,30.8223047 C48.869998,30.3043774 48.0968021,29.5448149 47.7794955,28.5647964 C47.4067558,27.4268966 47.5128432,26.0964589 48.2038453,25.1000746 C48.7944944,24.2192132 49.7597946,23.6685544 50.7528114,23.3672324 C52.103276,22.9744549 53.5359345,22.9503876 54.9255846,23.1217464 C56.3572874,23.3065829 57.7813442,23.8707194 58.8135464,24.9113874 C59.736794,25.8028384 60.3083282,27.015828 60.5510869,28.2711759 C60.5940953,28.6004159 60.8024473,28.9633501 61.1723197,28.9556485 C63.6620298,28.9835666 66.1526956,29.0153353 68.6424057,29.0201488 C67.5270538,31.684875 67.0405807,34.5979753 67.106527,37.485083 L67.106527,37.485083 Z M96.1066316,44.2556826 C95.1451543,46.0838311 93.5901607,47.5731127 91.7656477,48.516549 C89.6687479,49.582247 87.2249135,49.8460241 84.918706,49.4840526 C82.9805345,49.1784025 81.1733404,48.3087262 79.7194651,46.982021 C78.2485769,45.6910535 77.2574715,43.9225918 76.6716012,42.0674879 C75.9547941,39.7705093 75.7846718,37.3175749 76.05897,34.9301034 C76.3915685,32.3192878 77.3243735,29.6815169 79.1746917,27.7628755 C80.8485106,25.9860253 83.0945785,24.8659166 85.5122223,24.6023638 C87.5412644,24.3790197 89.6467658,24.6524237 91.4989954,25.5448375 C93.4716486,26.5056022 95.1480215,28.0988543 96.1677991,30.0598541 C97.2095588,32.0506973 97.7008106,34.3082056 97.7505093,36.5493482 C97.8212342,39.1948206 97.357699,41.9047933 96.1066316,44.2556826 L96.1066316,44.2556826 Z M126.201062,49.022924 C125.084754,49.9942783 123.60622,50.4226754 122.159225,50.5304967 C120.180838,50.6402434 118.11261,50.4727353 116.324415,49.541814 C114.847793,48.7928411 113.699946,47.4431495 113.151349,45.8749273 C112.902856,45.288649 112.845511,44.6465347 112.649584,44.0467788 C112.445055,43.6203071 111.910795,43.7647106 111.533277,43.713688 C109.54342,43.7079119 107.553563,43.6491878 105.565618,43.6540012 C106.58444,40.5618406 106.814774,37.2386343 106.407628,34.0155478 C107.772429,35.8186664 109.817718,36.9334615 111.887857,37.718054 C115.328531,39.0350141 119.033946,39.348851 122.546301,40.3943325 C123.888164,40.8102146 125.237673,41.3165896 126.345379,42.2080407 C127.082257,42.7962443 127.661437,43.6337847 127.800975,44.5839599 C128.014106,46.202242 127.451173,47.9495245 126.201062,49.022924 L126.201062,49.022924 Z" id="Asos"></path>
        </g>
    </g>
</svg>