<svg xmlns="http://www.w3.org/2000/svg" width="128" height="128" viewBox="0 0 128 128">
  <title>pricing-cloudflare</title>
  <g id="6118600b-8c18-4f4c-b084-55df5ac358c4" data-name="figures and interactions">
    <g>
      <path d="M107.42,69.9l.35-.92a7.91,7.91,0,0,1,6.48-4.85l4.86-.28a.59.59,0,0,0,.51-.39.44.44,0,0,0,0-.4.43.43,0,0,0-.33-.18l-4.68-.28a3.38,3.38,0,0,1-2.68-1.33,3.81,3.81,0,0,1-.39-3.33l.86-3a.35.35,0,0,1,.22-.23h0l-1.26-.55a.76.76,0,0,1,0,.28L110,57.75a7.91,7.91,0,0,1-6.46,4.85l-22.14.28a.58.58,0,0,0-.51.39.45.45,0,0,0,0,.4.43.43,0,0,0,.35.18l21.94.28a3.38,3.38,0,0,1,2.68,1.33,3.81,3.81,0,0,1,.39,3.33L106,69.87a.53.53,0,0,1-.5.38h2.19a.26.26,0,0,1-.23-.35Z" style="fill: #fff"/>
      <path d="M106,69.87l.31-1.08a3.81,3.81,0,0,0-.39-3.33,3.38,3.38,0,0,0-2.68-1.33l-21.94-.28a.43.43,0,0,1-.35-.18.45.45,0,0,1,0-.4.58.58,0,0,1,.51-.39l22.14-.28A7.91,7.91,0,0,0,110,57.75l1.26-3.3a.76.76,0,0,0,0-.28.74.74,0,0,0,0-.16,14.42,14.42,0,0,0-27.72-1.49,6.49,6.49,0,0,0-10.17,6.8,9.22,9.22,0,0,0-8.86,10.55.43.43,0,0,0,.42.37h40.51a.53.53,0,0,0,.5-.38Z" style="fill: #f58220"/>
      <path d="M113.27,54.7l-.61,0-.1,0a.35.35,0,0,0-.22.23l-.86,3a3.81,3.81,0,0,0,.39,3.33,3.38,3.38,0,0,0,2.68,1.33l4.68.28a.43.43,0,0,1,.33.18.44.44,0,0,1,0,.4.59.59,0,0,1-.51.39l-4.86.28A7.91,7.91,0,0,0,107.77,69l-.35.92a.26.26,0,0,0,.23.35h16.73a.45.45,0,0,0,.43-.32A12,12,0,0,0,113.27,54.7Z" style="fill: #fbae40"/>
      <path d="M127.05,76.2a.17.17,0,0,0,.18-.18c0-.13-.07-.18-.18-.18h-.35v.36Zm.41.62h-.26l-.22-.41h-.29v.41h-.22V75.63h.57a.39.39,0,0,1,.16.75l.25.44Zm-.55-1.45a.88.88,0,1,0,.87.88.87.87,0,0,0-.87-.88m0,2A1.08,1.08,0,1,1,128,76.25a1.08,1.08,0,0,1-1.08,1.08" style="fill: #404242"/>
      <polygon points="13.74 75.06 16.51 75.06 16.51 82.63 21.35 82.63 21.35 85.05 13.74 85.05 13.74 75.06 13.74 75.06" style="fill: #404242"/>
      <path d="M32.15,80.09v0a2.6,2.6,0,0,0-2.57-2.7A2.55,2.55,0,0,0,27.06,80v0a2.59,2.59,0,0,0,2.55,2.7,2.55,2.55,0,0,0,2.54-2.67m-7.93,0v0a5.23,5.23,0,0,1,5.39-5.2A5.19,5.19,0,0,1,35,80v0a5.23,5.23,0,0,1-5.39,5.19,5.19,5.19,0,0,1-5.37-5.17" style="fill: #404242"/>
      <path d="M38.37,80.67V75.06h2.81v5.55c0,1.44.73,2.13,1.84,2.13s1.84-.66,1.84-2.05V75.06h2.81V80.6c0,3.23-1.84,4.64-4.68,4.64s-4.62-1.44-4.62-4.57" style="fill: #404242"/>
      <path d="M55.81,82.6a2.45,2.45,0,0,0,2.75-2.53v0a2.46,2.46,0,0,0-2.75-2.53H54.68V82.6Zm-3.9-7.53h3.85c3.57,0,5.64,2.05,5.64,4.94v0c0,2.88-2.1,5-5.69,5h-3.8v-10Z" style="fill: #404242"/>
      <polygon points="65.42 75.06 73.42 75.06 73.42 77.49 68.19 77.49 68.19 79.19 72.92 79.19 72.92 81.48 68.19 81.48 68.19 85.05 65.42 85.05 65.42 75.06 65.42 75.06" style="fill: #404242"/>
      <polygon points="77.27 75.06 80.04 75.06 80.04 82.63 84.88 82.63 84.88 85.05 77.27 85.05 77.27 75.06 77.27 75.06" style="fill: #404242"/>
      <path d="M94.54,81.11l-1.11-2.84-1.13,2.84ZM92.11,75h2.67L99,85.05h-3l-.73-1.78H91.48l-.71,1.78H87.86L92.11,75Z" style="fill: #404242"/>
      <path d="M107.19,79.86c.94,0,1.48-.46,1.48-1.18v0c0-.79-.57-1.18-1.5-1.18h-1.81v2.4Zm-4.6-4.8h4.72a4.37,4.37,0,0,1,3.25,1.08,3.1,3.1,0,0,1,.89,2.33v0a3.16,3.16,0,0,1-2.05,3.07l2.38,3.48h-3.2l-2-3h-1.21v3H102.6v-10Z" style="fill: #404242"/>
      <g>
        <polygon points="115.45 75.06 123.49 75.06 123.49 77.42 118.2 77.42 118.2 78.93 122.99 78.93 122.99 81.11 118.2 81.11 118.2 82.7 123.56 82.7 123.56 85.05 115.45 85.05 115.45 75.06 115.45 75.06" style="fill: #404242"/>
        <path d="M7.68,81.26a2.45,2.45,0,0,1-2.29,1.5,2.59,2.59,0,0,1-2.55-2.7v0a2.55,2.55,0,0,1,2.53-2.67A2.51,2.51,0,0,1,7.74,79h2.92a5.21,5.21,0,0,0-5.27-4.15A5.23,5.23,0,0,0,0,80.06v0a5.19,5.19,0,0,0,5.37,5.17,5.26,5.26,0,0,0,5.24-4Z" style="fill: #404242"/>
      </g>
    </g>
  </g>
</svg>
