<svg xmlns="http://www.w3.org/2000/svg" width="160" height="200" viewBox="0 0 160 200">
  <title>pricing-overage</title>
  <g style="isolation: isolate">
    <g id="3f222009-5bcb-4120-9f4a-be01de4816ba" data-name="figures and interactions">
      <g>
        <rect x="113.38" y="98.76" width="13.25" height="23.3" style="fill: none;stroke: #2cd4d9;stroke-linecap: round;stroke-linejoin: round;stroke-width: 3px"/>
        <rect x="33.43" y="87.27" width="13.25" height="34.79" style="fill: none;stroke: #2cd4d9;stroke-linecap: round;stroke-linejoin: round;stroke-width: 3px"/>
        <rect x="53.43" y="63.7" width="13.25" height="58.37" style="fill: none;stroke: #2cd4d9;stroke-linecap: round;stroke-linejoin: round;stroke-width: 3px"/>
        <rect x="73.43" y="39.5" width="13.25" height="82.57" style="fill: none;stroke: #5333ed;stroke-linecap: round;stroke-linejoin: round;stroke-width: 3px"/>
        <rect x="93.43" y="72.46" width="13.25" height="49.6" style="fill: none;stroke: #2cd4d9;stroke-linecap: round;stroke-linejoin: round;stroke-width: 3px"/>
      </g>
      <g style="mix-blend-mode: multiply">
        <polyline points="59.63 122.4 59.63 151.4 67.67 159.44 67.67 180.2" style="fill: none;stroke: #2cd4d9;stroke-linecap: round;stroke-linejoin: round;stroke-width: 3px"/>
        <polyline points="48.63 169.43 48.63 141.15 38.13 131.65 38.13 123.4" style="fill: none;stroke: #2cd4d9;stroke-linecap: round;stroke-linejoin: round;stroke-width: 3px"/>
        <polyline points="99.62 122.06 99.62 131.14 89.64 141.12 89.64 180.96" style="fill: none;stroke: #2cd4d9;stroke-linecap: round;stroke-linejoin: round;stroke-width: 3px"/>
        <polyline points="103.71 142.9 119.04 128.56 119.04 122.06" style="fill: none;stroke: #2cd4d9;stroke-linecap: round;stroke-linejoin: round;stroke-width: 3px"/>
        <circle cx="100.61" cy="145.69" r="2.57" style="fill: none;stroke: #2cd4d9;stroke-linecap: round;stroke-linejoin: round;stroke-width: 3px"/>
      </g>
      <path d="M145.79,33.28a8.34,8.34,0,0,0-1.37.12,12.8,12.8,0,0,0-7.15-6.3,16.3,16.3,0,1,0-31.91,6.53A8.32,8.32,0,1,0,103,49.93h43.48v0a8.32,8.32,0,0,0-.63-16.61Z" style="fill: none;stroke: #5333ed;stroke-linecap: round;stroke-linejoin: round;stroke-width: 3px"/>
      <polygon points="18.23 50.34 18.23 151.66 80 187.33 141.77 151.66 141.77 50.34 80 14.67 18.23 50.34" style="fill: none;stroke: #2cd4d9;stroke-linecap: round;stroke-linejoin: round;stroke-width: 3px;mix-blend-mode: multiply"/>
      <g>
        <circle cx="80.03" cy="146.69" r="2.57" style="fill: none;stroke: #5333ed;stroke-linecap: round;stroke-linejoin: round;stroke-width: 3px"/>
        <polyline points="80.03 144.12 80.03 136.24 80.03 122.4" style="fill: none;stroke: #5333ed;stroke-linecap: round;stroke-linejoin: round;stroke-width: 3px"/>
        <line x1="80.03" y1="149.26" x2="80.03" y2="186.64" style="fill: none;stroke: #5333ed;stroke-linecap: round;stroke-linejoin: round;stroke-width: 3px"/>
      </g>
      <line x1="86.68" y1="58.22" x2="102.43" y2="42.48" style="fill: none;stroke: #5333ed;stroke-linecap: round;stroke-linejoin: round;stroke-width: 3px"/>
      <rect x="83.78" y="55.32" width="5.81" height="5.81" transform="translate(189.15 38.1) rotate(135)" style="fill: #fff;stroke: #5333ed;stroke-linecap: round;stroke-linejoin: round;stroke-width: 3px"/>
    </g>
  </g>
</svg>
