<svg xmlns="http://www.w3.org/2000/svg" width="128" height="128" viewBox="0 0 128 128">
  <title>pricing-redis</title>
  <g id="81ee2f1c-29b8-4f4d-b7fa-29674c5082d9" data-name="figures and interactions">
    <g>
      <path d="M70,56.22A1.93,1.93,0,0,1,68,58.14a3.46,3.46,0,0,0-2.17.69,5.46,5.46,0,0,0-1.67,1.74,11.13,11.13,0,0,0-1.49,3V70.5a2,2,0,0,1-2,1.92A1.93,1.93,0,0,1,58.8,70.5V56.22a1.9,1.9,0,0,1,1.92-1.88,1.94,1.94,0,0,1,2,1.88v.25a4.76,4.76,0,0,1,.76-.72A8,8,0,0,1,68,54.34,1.88,1.88,0,0,1,70,56.22Z" style="fill: #636466"/>
      <path d="M68.89,63.36a9,9,0,0,1,8.84-9.06,8.67,8.67,0,0,1,8.73,8.4v.18a1,1,0,0,1,0,.33,1.75,1.75,0,0,1-1.88,1.45H73a4.75,4.75,0,0,0,1.23,2.39,5.6,5.6,0,0,0,3.48,1.63,5.92,5.92,0,0,0,3.77-.91,2.05,2.05,0,0,1,2.72-.11,1.66,1.66,0,0,1,0,2.35,9.16,9.16,0,0,1-6.49,2.39,9,9,0,0,1-8.84-9.06Zm3.95-1.78H83.1a5.92,5.92,0,0,0-5.36-3.84A5.06,5.06,0,0,0,72.84,61.58Z" style="fill: #636466"/>
      <path d="M104.92,70.46a2,2,0,0,1-2,2A2,2,0,0,1,101,70.86a8.84,8.84,0,0,1-4.93,1.56,9.06,9.06,0,0,1,0-18.11A8.57,8.57,0,0,1,101,55.82V49a2,2,0,0,1,3.95,0V70.46Zm-8.8-12.21a4.69,4.69,0,0,0-3.41,1.49,5.25,5.25,0,0,0,0,7.25,4.69,4.69,0,0,0,3.41,1.49A4.63,4.63,0,0,0,99.52,67a5.25,5.25,0,0,0,0-7.25A4.63,4.63,0,0,0,96.12,58.25Z" style="fill: #636466"/>
      <path d="M111.82,49.77a2,2,0,0,1-2,2,2,2,0,0,1-2-2V49a2,2,0,0,1,2-2,1.93,1.93,0,0,1,2,2v.76Zm0,6.56V70.46a1.93,1.93,0,0,1-2,2,2,2,0,0,1-2-2V56.33a1.93,1.93,0,0,1,2-2A1.91,1.91,0,0,1,111.82,56.33Z" style="fill: #636466"/>
      <path d="M114.3,67.23a1.88,1.88,0,0,1,2.72-.29,6.65,6.65,0,0,0,4,1.59,4.83,4.83,0,0,0,2.46-.69,1.48,1.48,0,0,0,.65-1.09.54.54,0,0,0-.11-.36c0-.11-.18-.25-.47-.43a8.39,8.39,0,0,0-2.9-1h0a13.88,13.88,0,0,1-3.15-.94,6.05,6.05,0,0,1-2.5-2.1,4.39,4.39,0,0,1-.62-2.28,5.09,5.09,0,0,1,2.14-4,7.79,7.79,0,0,1,4.46-1.34,9.32,9.32,0,0,1,5.43,2,2,2,0,0,1,.58,2.68,1.92,1.92,0,0,1-2.68.51,6.21,6.21,0,0,0-3.33-1.34,3.69,3.69,0,0,0-2.17.65,1.1,1.1,0,0,0-.58.83.39.39,0,0,0,.07.29,1,1,0,0,0,.4.36,7.39,7.39,0,0,0,2.64.87l0,0h0a13,13,0,0,1,3.37,1.05,5.63,5.63,0,0,1,2.57,2.14,4.69,4.69,0,0,1,.69,2.39,5.23,5.23,0,0,1-2.28,4.2A8.24,8.24,0,0,1,121,72.41a10.52,10.52,0,0,1-6.45-2.5,1.93,1.93,0,0,1-.25-2.68Z" style="fill: #636466"/>
      <path d="M45.6,75.08c-2.55,1.33-15.73,6.75-18.54,8.21s-4.37,1.45-6.58.39S4.24,77,1.71,75.75c-1.26-.6-1.93-1.11-1.93-1.59V69.33s18.27-4,21.21-5,4-1.1,6.48-.18,17.51,3.63,20,4.53c0,0,0,4.31,0,4.75s-.57,1-1.87,1.67Z" style="fill: #a41e11"/>
      <path d="M45.6,70.26C43.06,71.59,29.87,77,27.07,78.47s-4.37,1.45-6.58.39S4.24,72.13,1.71,70.92s-2.58-2-.1-3S18,61.47,21,60.41s4-1.1,6.48-.18,15.62,6.14,18.1,7,2.58,1.66,0,3Z" style="fill: #d82c20"/>
      <path d="M45.6,67.22C43.06,68.55,29.87,74,27.07,75.43s-4.37,1.45-6.58.39S4.24,69.09,1.71,67.88c-1.26-.6-1.93-1.11-1.93-1.59V61.47s18.27-4,21.21-5,4-1.1,6.48-.18,17.51,3.63,20,4.53c0,0,0,4.31,0,4.75S46.9,66.54,45.6,67.22Z" style="fill: #a41e11"/>
      <path d="M45.6,62.4c-2.55,1.33-15.73,6.75-18.54,8.21s-4.37,1.45-6.58.39S4.24,64.27,1.71,63.06s-2.58-2-.1-3S18,53.6,21,52.55s4-1.1,6.48-.18,15.62,6.14,18.1,7,2.58,1.66,0,3Z" style="fill: #d82c20"/>
      <path d="M45.6,59.07c-2.55,1.33-15.73,6.75-18.54,8.21s-4.37,1.45-6.58.39S4.24,60.94,1.71,59.73c-1.26-.6-1.93-1.11-1.93-1.59V53.32s18.27-4,21.21-5,4-1.1,6.48-.18,17.51,3.63,20,4.53c0,0,0,4.31,0,4.75s-.57,1-1.87,1.67Z" style="fill: #a41e11"/>
      <path d="M45.6,54.25C43.06,55.57,29.87,61,27.07,62.46s-4.37,1.45-6.58.39S4.24,56.12,1.71,54.91s-2.58-2-.1-3S18,45.45,21,44.39s4-1.1,6.48-.18,15.62,6.14,18.1,7,2.58,1.66,0,3Z" style="fill: #d82c20"/>
      <polygon points="29.88 49.6 25.74 50.03 24.82 52.26 23.32 49.77 18.55 49.34 22.11 48.06 21.04 46.09 24.38 47.39 27.52 46.37 26.67 48.4 29.88 49.6" style="fill: #fff"/>
      <polygon points="24.57 60.4 16.86 57.2 27.91 55.51 24.57 60.4" style="fill: #fff"/>
      <ellipse cx="13.88" cy="53.13" rx="5.91" ry="2.29" style="fill: #fff"/>
      <polygon points="34.76 50.21 41.3 52.8 34.76 55.38 34.76 50.21" style="fill: #7a0c00"/>
      <polygon points="27.52 53.07 34.76 50.21 34.76 55.38 34.05 55.66 27.52 53.07" style="fill: #ad2115"/>
    </g>
  </g>
</svg>
