<svg xmlns="http://www.w3.org/2000/svg" xmlns:xlink="http://www.w3.org/1999/xlink" width="680" height="764" viewBox="0 0 680 764">
  <defs>
    <linearGradient id="d4dc8fa8-a41f-4483-9749-4dd325042704" x1="242.69" y1="716.29" x2="219.94" y2="707.29" gradientUnits="userSpaceOnUse">
      <stop offset="0" stop-color="#150773"/>
      <stop offset="0.22" stop-color="#14066a"/>
      <stop offset="0.58" stop-color="#110553"/>
      <stop offset="1" stop-color="#0c022f"/>
    </linearGradient>
    <linearGradient id="97c0202d-a115-4265-9554-b58a3395af16" x1="7101.99" y1="725.78" x2="7115.02" y2="716.43" gradientTransform="matrix(-1, 0, 0, 1, 7325.01, 0)" xlink:href="#d4dc8fa8-a41f-4483-9749-4dd325042704"/>
    <linearGradient id="cebe86d0-9ea6-45b5-b38b-1f0285ad8b96" x1="205.9" y1="648.96" x2="201.41" y2="648.83" gradientUnits="userSpaceOnUse">
      <stop offset="0" stop-color="#5333ed"/>
      <stop offset="1" stop-color="#2cd4d9" stop-opacity="0"/>
    </linearGradient>
  </defs>
  <title>pricing-connect</title>
  <g style="isolation: isolate">
    <g id="8e6657d3-37a2-4d83-b71c-ebadc28683aa" data-name="figures and interactions">
      <g>
        <path d="M210.72,708.61l4.32-4.72L240.9,714c.11-.09.21-.19.33-.28,2.69-2,5.81-2.39,7-.83s-.07,4.44-2.76,6.46c-2.18,1.63-4.63,2.16-6.1,1.49v0Z" style="fill: url(#d4dc8fa8-a41f-4483-9749-4dd325042704)"/>
        <path d="M240.09,705.28l-.06,0,.4.37c-2.37-1.56-3.69-.69-3.69-.69s-4.6,3.3-8.79,6.61l12,6,8.2-4.72Z" style="fill: #150773"/>
        <path d="M189.85,709.38a2.39,2.39,0,0,1-1.43-.06" style="fill: none;stroke: #2cd4d9;stroke-linecap: round;stroke-miterlimit: 10;stroke-width: 0.5px"/>
        <path d="M191.08,710.09a2.39,2.39,0,0,1-1.43-.06" style="fill: none;stroke: #2cd4d9;stroke-linecap: round;stroke-miterlimit: 10;stroke-width: 0.5px"/>
        <path d="M192.57,710.82a2.39,2.39,0,0,1-1.43-.06" style="fill: none;stroke: #2cd4d9;stroke-linecap: round;stroke-miterlimit: 10;stroke-width: 0.5px"/>
        <path d="M193.46,703.91a8.78,8.78,0,0,1-2.37.63,6.08,6.08,0,0,1-2.19-.16,6.78,6.78,0,0,0-3.13.7l.52,1,4.85,0,3.3-2Z" style="fill: #2cd4d9"/>
        <path d="M198.43,708.57a9.94,9.94,0,0,0-2.31-4.4c-1.3-1.39-2.81-.35-3.58.38a4.38,4.38,0,0,1-2.33,1.18,11.2,11.2,0,0,1-3.09,0c-1.69-.22-1-1-1.56-.55a1.47,1.47,0,0,0,.36,2.25,35.61,35.61,0,0,0,8.1,4.21,1.55,1.55,0,0,0,1.18,0Z" style="fill: #0c022f"/>
        <ellipse cx="212.92" cy="706.27" rx="3.32" ry="1.92" transform="translate(-380.8 268.5) rotate(-36.82)" style="fill: #0c022f"/>
        <ellipse cx="195.82" cy="709.56" rx="2.37" ry="1.37" transform="translate(-328.54 192.97) rotate(-30)" style="fill: #724c3b"/>
        <polygon points="198.25 713.37 194.03 711.02 197.65 708.13 201.86 710.5 198.25 713.37" style="fill: #724c3b"/>
        <ellipse cx="228.22" cy="724.94" rx="6.12" ry="3.53" transform="translate(-331.89 211.23) rotate(-30)" style="fill: #150773"/>
        <path d="M224.06,729l-25.44-14.7a1.93,1.93,0,0,1-.79-2.47h0a4.13,4.13,0,0,1,5.72-1.9l23.83,13Z" style="fill: url(#97c0202d-a115-4265-9554-b58a3395af16)"/>
        <path d="M192.87,707.7a4.14,4.14,0,0,1,1.08-.27c.31,0,.91.1,1.35.13s1-.13,1-.3a7.15,7.15,0,0,0-1-.85l-2.52,1v.29" style="fill: #0c022f"/>
        <path d="M190,709.08a2,2,0,0,0,1.17,1.69" style="fill: none;stroke: #2cd4d9;stroke-linecap: round;stroke-miterlimit: 10;stroke-width: 0.5px"/>
        <path d="M188.51,708.35a2,2,0,0,0,1.18,1.69" style="fill: none;stroke: #2cd4d9;stroke-linecap: round;stroke-miterlimit: 10;stroke-width: 0.5px"/>
        <path d="M187.27,707.64a2,2,0,0,0,1.18,1.69" style="fill: none;stroke: #2cd4d9;stroke-linecap: round;stroke-miterlimit: 10;stroke-width: 0.5px"/>
        <g>
          <path d="M212.4,717.44l8.09,5.31v0l-8.09-5.29Z" style="fill: #5333ed"/>
          <path d="M240.43,705.63l-.4-.37.06,0-4.69-4.4L232.25,698,225,691.12c-4.34-4.64-7.21-13-7.21-13l-20.4,5.6-.7,5c-.24,1.76-.61,3.5-1,5.24-1.23,5.52-.23,9.33.47,11.07a9.9,9.9,0,0,0,2.08,3.1h0l14.14,9.26,8.09,5.29c-.08-.37-.76-4.1,3.45-7.84.66-.59,1.42-1.23,2.22-1.88l1.8-1.45a45.84,45.84,0,0,1,7.94-4.81,15.06,15.06,0,0,1,2.66-1.14A2.24,2.24,0,0,1,240.43,705.63Z" style="fill: #5333ed"/>
        </g>
        <path d="M220.49,722.71l4.59,3,8.26-4.16L226.16,713c-.8.65-1.56,1.29-2.22,1.88C219.72,718.61,220.41,722.34,220.49,722.71Z" style="fill: #150773"/>
        <path d="M249.51,669.48l1.5-1.74c.34,1-.71,2-.71,2l-1,2.46a20.29,20.29,0,0,1-2.72,7.06h0c-.24.45-3.33-.37-3.3-.48h0l1.56-8c.05-.27.91-3.83.91-3.83l1.19-2.4a3.41,3.41,0,0,1-.24,2.54l-.55,3.05,1-2.78L249,665a3.85,3.85,0,0,1-1,2.82l-.66,2.74,1.05-2.61,1.26-2.54a3.18,3.18,0,0,1-.38,2.82l-1,3.69Z" style="fill: #5b3427"/>
        <ellipse cx="243.66" cy="669.86" rx="2.5" ry="1.44" transform="translate(-465.05 593.61) rotate(-63.87)" style="fill: #2cd4d9"/>
        <path d="M243.64,669.85l16.5,8.09s16.25,8.12,25.4-10.17c12-24,17.5-109.5,17.5-164.17V132.94s-3.17-95.5,77.83-95.5h89.5s82-4,82,54v50.5l96.5,21V340.69a19.75,19.75,0,0,1-19.75,19.75h0a19.75,19.75,0,0,0-19.75,19.75v251A86.81,86.81,0,0,1,522.12,718l-107.75-.55H301.87c-40,0-46.17-8.5-49.38-18.58-1.4-4.38-5.07-14.81-5.07-14.81" style="fill: none;stroke: #2cd4d9;stroke-miterlimit: 10;stroke-width: 5px"/>
        <circle cx="204.18" cy="639.2" r="3.42" style="fill: #2cd4d9"/>
        <path d="M196.4,643.22a1.91,1.91,0,0,1,2-1.37,2.35,2.35,0,0,1,.07-.41c.36-1.25,6.23-3.23,7.48-2.87a2.36,2.36,0,0,1,.86,4.07,4.09,4.09,0,0,1-1.64,7.54,2.84,2.84,0,0,1-.1.7s0,.08-.05.13a3.42,3.42,0,0,1,.84,3.34c-.53,1.82-2.44,3.41-5.91,2-1.76-.71-5.78-.83-5.25-2.66a3.41,3.41,0,0,1,.53-1.06,2.83,2.83,0,0,1,1.09-3.73,4,4,0,0,1,.49-3.93A1.9,1.9,0,0,1,196.4,643.22Z" style="fill: #2cd4d9"/>
        <path d="M205.14,641s-2.06,0-2.89,1-1.12,4-.87,5.54a9.82,9.82,0,0,1-.37,3.93c-.6,1.6-1,4.4.5,5.21a4.47,4.47,0,0,0,1.56.12s2.23-.4,2.62-2.25c.28-1.34-2.47-4.71-2.31-4.74a11.06,11.06,0,0,1-.6-3.78c.05-2.07.39-2.64.73-2.87a1.81,1.81,0,0,1,1.48-.39A2,2,0,0,1,205.14,641Z" style="mix-blend-mode: multiply;fill: url(#cebe86d0-9ea6-45b5-b38b-1f0285ad8b96)"/>
        <circle cx="212.01" cy="645.6" r="3.53" transform="translate(-63.85 24.59) rotate(-5.77)" style="fill: #2cd4d9"/>
        <path d="M219.2,672.4s3.42-2.52,4.23-.21c5.38,15.44,19.91,6.27,19.91,6.27s3.15,1,3,1.07.1.22.07.25C235,692.94,222.4,685.35,217.66,677,214.46,671.39,219.2,672.4,219.2,672.4Z" style="fill: #724c3b"/>
        <path d="M219,657a3.21,3.21,0,0,1,.32,1.11c.52,3,2,10.06,4.15,13.82l-6.11,4.38a69.7,69.7,0,0,1-5.11-8.71Z" style="fill: #fff"/>
        <path d="M223.58,672.64a2.07,2.07,0,0,0-.61.13,10.73,10.73,0,0,0-4.74,3.43c-.14.2-.47.85-.47.85l.22.4a1.33,1.33,0,0,1-.72-.45,9.66,9.66,0,0,1-.89-1.47.52.52,0,0,1,0-.45,6.71,6.71,0,0,1,2.62-2.82,11.23,11.23,0,0,1,3.86-1.6.43.43,0,0,1,.46.23l.83,1.66a1.37,1.37,0,0,1-.35.55Z" style="fill: #0c022f"/>
        <path d="M199.95,662.16l13.32-7.68h0a2.54,2.54,0,0,1,1.81-.28,5.75,5.75,0,0,1,3.49,2,3,3,0,0,1,.57,2l-.93,17.8c.23,2.55-2.09,5.87-5.87,8.06-4.52,2.61-9.4,2.61-10.91,0a3.43,3.43,0,0,1-.44-1.74h0l-3.19-17C197.57,664.36,198.45,663,199.95,662.16Z" style="fill: #fff"/>
        <path d="M218.91,672.23a48.72,48.72,0,0,0,.24-8.19l-.65-.38s.15,7.05-.12,9Z" style="fill: #dfe9f8;mix-blend-mode: multiply"/>
        <g>
          <path d="M205,659.53a6,6,0,0,0-1.69,3.22s1.41,2.56,6.63,2.34,4.5-5.34,4.5-5.34-.22-1.84-.31-2.31a12.06,12.06,0,0,0-3.53.22Z" style="fill: #5b3427"/>
          <ellipse cx="208.3" cy="660.35" rx="2.13" ry="3.68" transform="translate(-467.73 510.57) rotate(-60)" style="fill: #eba87c"/>
          <ellipse cx="208.3" cy="655.14" rx="2.13" ry="3.68" transform="translate(-463.22 507.96) rotate(-60)" style="fill: #eba87c"/>
          <polygon points="211.66 661.48 211.66 656.39 204.94 654.05 204.94 659.09 211.66 661.48" style="fill: #5b3427"/>
          <ellipse cx="208.3" cy="660.35" rx="2.13" ry="3.68" transform="translate(-467.73 510.57) rotate(-60)" style="fill: #5b3427"/>
          <path d="M211.65,661.1v-3.76h0v-5.08l-6.72-2.35v5h0a3.9,3.9,0,0,0,2,3.14,7,7,0,0,0,4,1.11l0,3.35c.15,0,.33-.2.46-.45A2.11,2.11,0,0,0,211.65,661.1Z" style="fill: #724c3b;mix-blend-mode: multiply"/>
        </g>
        <path d="M213.9,656.68c-.91,1.58-3.88,1.58-6.62,0a6.6,6.6,0,0,1-3.18-4.24c-.06-.27.3-.2.32-.44a2.88,2.88,0,0,0-.45-1c.91-1.58,3.88-1.58,6.62,0S214.82,655.1,213.9,656.68Z" style="fill: #724c3b"/>
        <path d="M203.85,644.65l3.74-1.72L214,643a18.84,18.84,0,0,1,0,13.48l-9.56-4.59Z" style="fill: #724c3b"/>
        <path d="M202.9,650.61a3,3,0,0,0,1,2.5c.67.53,1.31.28,1.44-.57a3,3,0,0,0-1-2.5C203.67,649.51,203,649.76,202.9,650.61Z" style="fill: #724c3b"/>
        <path d="M196,680.69l7.54-9.11c-1.71,33.53,37.85,17.24,37.85,17.24s1.19,3.62,1.06,3.63C204.75,714.56,196,680.69,196,680.69Z" style="fill: #724c3b"/>
        <path d="M205.55,684.62s-1.76-10.07-1.26-14.48l-5.59-7s-7.1,6.65-1.26,23.28Z" style="fill: #fff"/>
        <path d="M205.22,682.55a14.48,14.48,0,0,1-1.85-7.75l.59,2,2,6A.6.6,0,0,0,205.22,682.55Z" style="fill: #dfe9f8;mix-blend-mode: multiply"/>
        <path d="M205.92,682.78a.55.55,0,0,0-.7-.23l.08.55a25.16,25.16,0,0,1-8.32,2l-.13-.42a.53.53,0,0,0-.29.45l1.2,3.31s6.16-.3,9-3Z" style="fill: #0c022f"/>
        <circle cx="206.87" cy="642.02" r="2.01" transform="translate(-467.36 662.22) rotate(-73.86)" style="fill: #120667"/>
        <path d="M202.84,647.09c0-.15-.29-2.62.42-3.66a2,2,0,0,1,2.16-.6s1-2.25,2.88-1.64c.13-.42,4.1-.44,5.6.93,1.2,1.09-2.56,3.11-2.93,4.69-.46,1.93-4.25,3-5.68,2.27a.19.19,0,0,0-.1,0c.14.2.84,1.3.41,1.86l-.75.19a1.38,1.38,0,0,0-1.06-1.39.67.67,0,0,0-.41,0A7.22,7.22,0,0,1,202.84,647.09Z" style="fill: #2cd4d9"/>
        <circle cx="200.21" cy="640.84" r="2.13" style="fill: #2cd4d9"/>
        <circle cx="195.98" cy="653.77" r="1.48" style="fill: #2cd4d9"/>
        <circle cx="198.18" cy="655.16" r="2.19" style="fill: #2cd4d9"/>
        <path d="M245,680.15a1.45,1.45,0,0,1-1.61-2h0s-.49-3-.16-4a18.26,18.26,0,0,1,2-2.61l1.45-1a3.16,3.16,0,0,1-1.17,2.31l-.32.83a4.75,4.75,0,0,1,2,2.41,2.84,2.84,0,0,1,.18,2.05l-.88,1.66Z" style="fill: #724c3b"/>
        <ellipse cx="247.43" cy="684.06" rx="2.47" ry="1.43" transform="translate(-207.33 116.3) rotate(-18.81)" style="fill: #2cd4d9"/>
        <path d="M252.68,684.44s-4.36,1.46-4.62,1.58l-6.82,2.86,1.08,3.63a16.56,16.56,0,0,0,7.24-1.67l2.4-.48a2.57,2.57,0,0,0,2.09,0l-1.72-.88-3.11.24,3.44-1.18a3.35,3.35,0,0,0,3-1.19l-2.84.07-2.94.69,2.8-1.11a3.09,3.09,0,0,0,3-.47L252.5,686l-3.07.81,3.71-1.41s1.57.13,2.13-.95Z" style="fill: #724c3b"/>
        <ellipse cx="243.66" cy="669.86" rx="2.5" ry="1.44" transform="translate(-465.05 593.61) rotate(-63.87)" style="fill: #2cd4d9;mix-blend-mode: multiply"/>
        <g>
          <ellipse cx="243.23" cy="670.65" rx="0.42" ry="0.24" transform="translate(-466 593.67) rotate(-63.87)" style="fill: #5333ed"/>
          <polygon points="243.05 671.03 238.28 668.8 238.65 668.06 243.41 670.28 243.05 671.03" style="fill: #5333ed"/>
          <ellipse cx="244.05" cy="669.07" rx="0.42" ry="0.24" transform="translate(-464.12 593.51) rotate(-63.87)" style="fill: #5333ed"/>
          <polygon points="243.86 669.44 239.1 667.22 239.47 666.48 244.23 668.7 243.86 669.44" style="fill: #5333ed"/>
          <ellipse cx="238.47" cy="668.43" rx="0.42" ry="0.24" transform="translate(-466.67 588.15) rotate(-63.87)" style="fill: #150773"/>
          <ellipse cx="239.28" cy="666.85" rx="0.42" ry="0.24" transform="translate(-464.79 587.99) rotate(-63.87)" style="fill: #150773"/>
        </g>
        <path d="M23.37,126.94s-11,146,82,175" style="fill: none;stroke: #2cd4d9;stroke-miterlimit: 10;stroke-width: 5px"/>
      </g>
    </g>
  </g>
</svg>
