<svg xmlns="http://www.w3.org/2000/svg" xmlns:xlink="http://www.w3.org/1999/xlink" width="128" height="128" viewBox="0 0 128 128">
  <defs>
    <clipPath id="c9b78e9b-041c-4fd2-a5fa-70220c933d88">
      <rect x="0.29" y="42.11" width="127.71" height="43.78" style="fill: none"/>
    </clipPath>
  </defs>
  <title>pricing-elasticsearch</title>
  <g id="48f6fe59-c43f-4750-baf0-1eabcd5c5fc6" data-name="figures and interactions">
    <g>
      <g style="clip-path: url(#c9b78e9b-041c-4fd2-a5fa-70220c933d88)">
        <path d="M44.22,65a8.65,8.65,0,0,0-5.72-8.16,12.26,12.26,0,0,0,.23-2.36,12.41,12.41,0,0,0-22.48-7.27A6.59,6.59,0,0,0,6,54.77,8.76,8.76,0,0,0,.27,63,8.66,8.66,0,0,0,6,71.14a12.6,12.6,0,0,0-.23,2.36,12.38,12.38,0,0,0,22.45,7.22,6.58,6.58,0,0,0,10.22-7.48A8.76,8.76,0,0,0,44.22,65" style="fill: #fff"/>
      </g>
      <path d="M17.55,61l9.62,4.38,9.7-8.5a10.75,10.75,0,0,0,.21-2.13,10.85,10.85,0,0,0-19.79-6.13L15.67,57l1.88,4Z" style="fill: #fed10a"/>
      <path d="M7.59,71.15a11,11,0,0,0-.21,2.17,10.87,10.87,0,0,0,19.87,6.11l1.6-8.35L26.71,67l-9.66-4.4L7.59,71.15Z" style="fill: #24bbb1"/>
      <path d="M7.53,54.51l6.59,1.56,1.44-7.49a5.21,5.21,0,0,0-8,5.94" style="fill: #ef5098"/>
      <path d="M7,56.08a7.27,7.27,0,0,0-.32,13.7l9.25-8.36-1.7-3.63L7,56.08Z" style="fill: #17a8e0"/>
      <path d="M28.94,79.43a5.2,5.2,0,0,0,8-5.93L30.37,72l-1.43,7.47Z" style="fill: #93c83e"/>
      <path d="M30.28,70.23l7.25,1.7a7.34,7.34,0,0,0,5-6.9,7.26,7.26,0,0,0-4.69-6.78l-9.48,8.31,1.93,3.68Z" style="fill: #0779a1"/>
      <path d="M60.91,66.3A6.58,6.58,0,0,0,60,62.36a3.45,3.45,0,0,0-2.91-1.15,3.73,3.73,0,0,0-3,1.21,6.11,6.11,0,0,0-1,3.88Zm.82,6.57.88-.09.06,1.79a43.55,43.55,0,0,1-5.91.48q-3.27,0-4.63-1.89t-1.36-5.89q0-8,6.33-8A5.79,5.79,0,0,1,61.66,61q1.51,1.71,1.51,5.38l-.12,1.73h-10A6.21,6.21,0,0,0,54,71.84,3.71,3.71,0,0,0,57.14,73q2.26,0,4.59-.18Z" style="fill: #231f20"/>
      <polygon points="66.34 74.93 66.34 55.05 68.62 55.05 68.62 74.93 66.34 74.93 66.34 74.93" style="fill: #231f20"/>
      <path d="M73.59,70.35q0,2.79,2.3,2.79a12.24,12.24,0,0,0,4.06-.7l.7-.24v-5l-4.48.42a2.92,2.92,0,0,0-2,.79,2.79,2.79,0,0,0-.61,1.94Zm9.33-6.18v7.64c0,.76,1.88.73,1.88.73l-.12,2c-1.6,0-2.92.13-3.71-.63A13.21,13.21,0,0,1,75.53,75a4.11,4.11,0,0,1-3.18-1.18,4.82,4.82,0,0,1-1.09-3.39,4.25,4.25,0,0,1,1.12-3.26,5.94,5.94,0,0,1,3.51-1.29l4.75-.45v-1.3A3,3,0,0,0,80,62a2.46,2.46,0,0,0-1.82-.67h-6v-2H78a4.22,4.22,0,0,1,4.91,4.88Z" style="fill: #231f20"/>
      <path d="M91.78,61.33q-3.3,0-3.3,2.3a1.59,1.59,0,0,0,.76,1.5,12.82,12.82,0,0,0,3.45.91,9.21,9.21,0,0,1,3.82,1.32q1.12.85,1.12,3.18A4,4,0,0,1,96.13,74,7.39,7.39,0,0,1,91.75,75c-1.25,0-5.43-.46-5.43-.46l.12-2c2.4.23,4.14.4,5.31.4a5.22,5.22,0,0,0,2.68-.56,2,2,0,0,0,.92-1.88,1.91,1.91,0,0,0-.79-1.79,11.66,11.66,0,0,0-3.45-.89,9.12,9.12,0,0,1-3.79-1.24,3.53,3.53,0,0,1-1.12-3,3.68,3.68,0,0,1,1.56-3.27,6.77,6.77,0,0,1,3.89-1.06c1.23,0,5.5.31,5.5.31v2c-2.25-.1-4.09-.26-5.38-.26Z" style="fill: #231f20"/>
      <path d="M108.58,61.57h-4.82v7.24a9.76,9.76,0,0,0,.38,3.42q.38.82,1.8.82l2.7-.18.15,1.88a20.73,20.73,0,0,1-3.09.33,4,4,0,0,1-3.27-1.15q-.91-1.15-.91-4.39v-8H99.38v-2h2.15V55h2.24V59.6h4.82v2Z" style="fill: #231f20"/>
      <path d="M111.74,74.93V59.6H114V74.93Zm0-17.26V55H114v2.63Z" style="fill: #231f20"/>
      <path d="M123.85,59.3a26.18,26.18,0,0,1,3.39.36l.73.09-.09,1.85a35.59,35.59,0,0,0-3.57-.27q-2.57,0-3.5,1.23t-.92,4.54q0,3.32.86,4.62t3.59,1.3l3.57-.27.09,1.88a31.15,31.15,0,0,1-4.21.42q-3.54,0-4.89-1.82t-1.35-6.13q0-4.32,1.45-6.06t4.85-1.74Z" style="fill: #231f20"/>
    </g>
  </g>
</svg>
