<?xml version="1.0" standalone="no"?>
<!DOCTYPE svg PUBLIC "-//W3C//DTD SVG 20010904//EN"
 "http://www.w3.org/TR/2001/REC-SVG-20010904/DTD/svg10.dtd">
<svg version="1.0" xmlns="http://www.w3.org/2000/svg"
 width="260.000000pt" height="260.000000pt" viewBox="0 0 260.000000 260.000000"
 preserveAspectRatio="xMidYMid meet">
<metadata>
Created by potrace 1.11, written by Peter Selinger 2001-2013
</metadata>
<g transform="translate(0.000000,260.000000) scale(0.100000,-0.100000)"
fill="#000000" stroke="none">
<path d="M134 2566 l-34 -34 2 -1236 3 -1236 28 -27 27 -28 265 -3 c235 -3
267 -1 290 14 55 36 52 -25 51 1289 -1 1158 -2 1222 -19 1248 -10 16 -29 32
-43 37 -14 6 -140 10 -281 10 l-255 0 -34 -34z"/>
<path d="M1892 2584 c-15 -6 -63 -54 -107 -105 -44 -52 -82 -96 -85 -99 -3 -3
-60 -68 -125 -145 -66 -77 -122 -142 -125 -145 -3 -3 -32 -36 -65 -75 -33 -38
-62 -72 -65 -75 -5 -5 -104 -120 -150 -174 -14 -17 -41 -48 -61 -70 -116 -132
-290 -339 -299 -357 -27 -50 -6 -86 161 -279 89 -102 177 -205 197 -229 21
-24 42 -49 47 -55 6 -6 37 -42 70 -81 33 -38 62 -72 65 -75 3 -3 60 -68 125
-145 66 -77 129 -150 140 -162 11 -13 70 -81 130 -152 61 -71 122 -136 137
-145 22 -14 66 -16 311 -16 l285 0 31 26 c44 37 53 109 18 146 -7 7 -37 42
-67 78 -30 36 -60 70 -66 75 -5 6 -50 57 -100 115 -49 58 -91 107 -94 110 -3
3 -46 52 -95 110 -49 58 -92 107 -95 110 -17 15 -389 449 -403 470 -26 38 -22
94 11 132 62 74 208 244 217 254 27 29 310 355 450 519 66 76 127 147 135 155
90 97 130 154 130 187 0 33 -26 80 -53 95 -31 17 -566 19 -605 2z"/>
</g>
</svg>
