<svg xmlns="http://www.w3.org/2000/svg" xmlns:xlink="http://www.w3.org/1999/xlink" width="128" height="128" viewBox="0 0 128 128">
  <defs>
    <linearGradient id="7e569aba-f06e-4a40-bbd8-c085c951734f" x1="34.5" y1="60.14" x2="95.98" y2="60.14" gradientUnits="userSpaceOnUse">
      <stop offset="0" stop-color="#f7f7f7"/>
      <stop offset="1" stop-color="#f0f0f0"/>
    </linearGradient>
  </defs>
  <title>advanced-gcp</title>
  <g id="a2406af0-2e89-45b1-9cd1-6d68fffacc7b" data-name="figures and interactions">
    <g>
      <path d="M101.3,33.35c1.32,2.21,2.66,4.4,3.95,6.62,3.15,5.46,6.26,10.95,9.42,16.4a7.1,7.1,0,0,1,0,7.66Q104,82.54,93.41,101.1a6.78,6.78,0,0,1-6.12,3.85c-5.57,0-11.13,0-16.7,0,1.59-2.8,3.17-5.6,4.76-8.4C77.17,93.34,79,90.18,80.83,87c.32-.52.65-1,1-1.57,4.55-7.9,9.07-15.82,13.68-23.69a2.81,2.81,0,0,0,0-3.29C90.58,50.13,85.8,41.74,81,33.38Z" style="fill: #da4432"/>
      <path d="M101.3,33.35l-20.3,0c-.41,0-.81-.08-1.22-.08-9.54,0-19.09,0-28.63,0a1.9,1.9,0,0,0-1.91,1.14c-2.17,3.85-4.39,7.68-6.6,11.51L34.5,60c-.24-.38-.5-.75-.72-1.14l-9.5-16.48q6.67-11.73,13.35-23.45a6.65,6.65,0,0,1,6.15-3.57H87.17A6.38,6.38,0,0,1,93,18.6c2.73,4.62,5.36,9.29,8,14A4.43,4.43,0,0,1,101.3,33.35Z" style="fill: #4d8bf6"/>
      <path d="M24.27,42.39l9.5,16.48c.22.39.48.76.72,1.14,2.76,5,5.48,9.92,8.28,14.85,2.08,3.66,4.3,7.24,6.33,10.92a2,2,0,0,0,2,1.2q9.77,0,19.54,0c3.4,0,6.8,0,10.19,0-1.83,3.17-3.66,6.33-5.47,9.51-1.6,2.79-3.18,5.6-4.76,8.4-.49,0-1,.11-1.46.11-8,0-16.06-.07-24.09,0a8.3,8.3,0,0,1-8.09-4.6c-4.86-8.71-9.87-17.33-14.82-26-2-3.5-4-7-6-10.5-1.22-2.09-1.66-4.31-.5-6.44C18.41,52.42,21.38,47.43,24.27,42.39Z" style="fill: #fecd2d"/>
      <path d="M95.44,58.46C90.58,50.13,85.8,41.74,81,33.38c-.41,0-.81-.08-1.22-.08-9.54,0-19.09,0-28.63,0a1.9,1.9,0,0,0-1.91,1.14c-2.17,3.85-4.39,7.68-6.6,11.51Q38.58,53,34.5,60c2.76,5,5.48,9.92,8.28,14.85,2.08,3.66,4.3,7.24,6.33,10.92a2,2,0,0,0,2,1.2q9.77,0,19.54,0c3.4,0,6.8,0,10.19,0,.32-.52.65-1,1-1.57,4.55-7.9,9.07-15.82,13.68-23.69A2.81,2.81,0,0,0,95.44,58.46Zm-30.2,15.2A13.53,13.53,0,1,1,78.76,60.14,13.53,13.53,0,0,1,65.24,73.66Z" style="fill: url(#7e569aba-f06e-4a40-bbd8-c085c951734f)"/>
    </g>
  </g>
</svg>
