<?xml version="1.0" encoding="UTF-8" standalone="no"?><!DOCTYPE svg PUBLIC "-//W3C//DTD SVG 1.1//EN" "http://www.w3.org/Graphics/SVG/1.1/DTD/svg11.dtd"><svg width="100%" height="100%" viewBox="0 0 49 54" version="1.1" xmlns="http://www.w3.org/2000/svg" xmlns:xlink="http://www.w3.org/1999/xlink" xml:space="preserve" xmlns:serif="http://www.serif.com/" style="fill-rule:evenodd;clip-rule:evenodd;stroke-linejoin:round;stroke-miterlimit:1.41421;"><g id="Group"><path id="Shape" d="M24.5,53.921c-13.506,0 -24.493,-10.958 -24.493,-24.429c0,-13.47 10.987,-24.429 24.493,-24.429c13.506,0 24.493,10.959 24.493,24.429c0,13.47 -10.987,24.429 -24.493,24.429Zm0,-47.35c-12.672,0 -22.981,10.282 -22.981,22.921c0,12.639 10.309,22.921 22.981,22.921c12.672,0 22.981,-10.282 22.981,-22.921c0,-12.639 -10.309,-22.921 -22.981,-22.921Z" style="fill:#5536f1;"/><rect id="Rectangle-path" x="23.744" y="14.867" width="1.512" height="14.625" style="fill:#2cd4d9;"/><rect id="Rectangle-path1" serif:id="Rectangle-path" x="23.744" y="0.833" width="1.512" height="4.328" style="fill:#2cd4d9;"/><rect id="Rectangle-path2" serif:id="Rectangle-path" x="20.621" y="0.079" width="7.759" height="1.508" style="fill:#2cd4d9;"/></g></svg>