<svg xmlns="http://www.w3.org/2000/svg" width="64" height="64" viewBox="0 0 64 64">
  <title>features-cloudflare</title>
  <g id="3f331066-16c6-49a8-8dfe-1ba979985275" data-name="figures and interactions">
    <g id="904bf300-2119-47ca-8b2e-c0be2ab64e72" data-name="Page-1">
      <g id="a79c54c7-d05c-4cd6-9a44-3ccc5c8d8759" data-name="cloudflare">
        <polygon id="d352df4a-d75b-4163-bd48-4f730e831046" data-name="Shape" points="54.41 32.13 47.93 30.6 46.78 30.13 17.06 30.37 17.06 44.95 54.41 45.07 54.41 32.13" style="fill: #fff"/>
        <path id="0ea3b735-513b-4a2e-93cd-9b56f34cf4f8" data-name="Shape" d="M42.38,41.64a3.08,3.08,0,0,0-.35-2.9,3.62,3.62,0,0,0-2.43-1.22L19.48,37.3c-.12,0-.23-.11-.35-.11a.2.2,0,0,1,0-.33c.12-.22.23-.33.46-.33l20.23-.22a7.25,7.25,0,0,0,5.9-4.23l1.16-2.9c0-.11.12-.22,0-.33a13,13,0,0,0-12.83-9.91A13.11,13.11,0,0,0,21.57,27.5a6.49,6.49,0,0,0-4.16-1.11,5.81,5.81,0,0,0-5.2,7.13A8.28,8.28,0,0,0,4,41.64a4.4,4.4,0,0,0,.12,1.22.36.36,0,0,0,.35.33H41.57c.23,0,.46-.11.46-.33l.35-1.22Z" style="fill: #f48120"/>
        <path id="e21f55ec-3898-4d64-b95b-27777e6f21b4" data-name="Shape" d="M48.72,30.13h-.59c-.12,0-.24.12-.36.24l-.83,2.89a3.48,3.48,0,0,0,.36,3.13,3.66,3.66,0,0,0,2.5,1.33l4.4.24c.12,0,.24.12.36.12a.23.23,0,0,1,0,.36c-.12.24-.24.36-.48.36L49.55,39a7.49,7.49,0,0,0-6.06,4.58l-.24,1.08c-.12.12,0,.36.24.36H59.18a.32.32,0,0,0,.36-.36A13.26,13.26,0,0,0,60,41.58,11.44,11.44,0,0,0,48.72,30.13" style="fill: #faad3f"/>
      </g>
    </g>
  </g>
</svg>
