<?xml version="1.0" encoding="UTF-8" standalone="no"?><!DOCTYPE svg PUBLIC "-//W3C//DTD SVG 1.1//EN" "http://www.w3.org/Graphics/SVG/1.1/DTD/svg11.dtd"><svg width="100%" height="100%" viewBox="0 0 103 61" version="1.1" xmlns="http://www.w3.org/2000/svg" xmlns:xlink="http://www.w3.org/1999/xlink" xml:space="preserve" xmlns:serif="http://www.serif.com/" style="fill-rule:evenodd;clip-rule:evenodd;stroke-linejoin:round;stroke-miterlimit:1.41421;"><g id="Layer_7"><path id="Shape" d="M101.391,60.999l-99.782,0c-0.888,0 -1.609,-0.277 -1.609,-0.619c0,-0.342 0.721,-0.611 1.609,-0.611l99.782,0c0.888,0 1.609,0.269 1.609,0.611c0,0.342 -0.721,0.619 -1.609,0.619Z" style="fill:#2cd4d9;"/><path id="Shape1" serif:id="Shape" d="M89.479,19.859l-15.445,-12.318l-4.328,3.499c-0.349,0.281 -0.854,0.222 -1.131,-0.126c-0.278,-0.352 -0.22,-0.862 0.125,-1.144l5.328,-4.305l15.134,12.07l12.383,-17.2c0.261,-0.364 0.764,-0.443 1.123,-0.18c0.36,0.263 0.44,0.773 0.178,1.136l-13.367,18.568Z" style="fill:#5333ed;"/><path id="Shape2" serif:id="Shape" d="M49.324,26.936l-1.039,-1.242l2.522,-2.153l1.039,1.241l-2.522,2.154Z" style="fill:#5333ed;"/><path id="Shape3" serif:id="Shape" d="M61.044,17.918l-1.038,-1.242l2.521,-2.154l1.039,1.243l-2.522,2.153Z" style="fill:#5333ed;"/><path id="Shape4" serif:id="Shape" d="M0.805,44.98c-0.225,0 -0.449,-0.094 -0.608,-0.281c-0.291,-0.338 -0.256,-0.853 0.08,-1.147l23.031,-20.218l14.505,11.397l4.333,-3.502c0.348,-0.281 0.852,-0.223 1.131,0.126c0.278,0.352 0.22,0.861 -0.126,1.143l-5.323,4.303l-14.464,-11.362l-22.031,19.342c-0.153,0.132 -0.341,0.199 -0.528,0.199Z" style="fill:#5333ed;"/><ellipse id="Oval" cx="23.336" cy="24.387" rx="2.414" ry="2.439" style="fill:#5333ed;"/><ellipse id="Oval1" serif:id="Oval" cx="37.418" cy="35.361" rx="2.414" ry="2.439" style="fill:#5333ed;"/><path id="Oval2" serif:id="Oval" d="M51.513,20.102c0.111,-2.232 2.009,-3.954 4.236,-3.843c2.226,0.111 3.943,2.013 3.832,4.245c-0.111,2.232 -2.008,3.954 -4.235,3.843c-2.226,-0.111 -3.944,-2.013 -3.833,-4.245Z" style="fill:#5333ed;"/><ellipse id="Oval3" serif:id="Oval" cx="74.031" cy="6.504" rx="2.414" ry="2.439" style="fill:#5333ed;"/><ellipse id="Oval4" serif:id="Oval" cx="88.918" cy="18.291" rx="2.414" ry="2.438" style="fill:#5333ed;"/><path id="Shape5" serif:id="Shape" d="M55.635,8.896c6.213,0 11.266,5.105 11.266,11.381c0,6.276 -5.053,11.381 -11.266,11.381c-6.212,0 -11.265,-5.105 -11.265,-11.381c0,-6.276 5.053,-11.381 11.265,-11.381Zm0,-3.252c-7.998,0 -14.484,6.551 -14.484,14.632c0,8.081 6.485,14.632 14.484,14.632c8,0 14.485,-6.551 14.485,-14.632c0,-8.081 -6.485,-14.632 -14.485,-14.632Z" style="fill:#2cd4d9;"/><path id="Shape6" serif:id="Shape" d="M75.641,45.522c-0.457,0 -0.914,-0.197 -1.231,-0.58l-11.356,-13.642c-0.572,-0.687 -0.486,-1.713 0.194,-2.29c0.683,-0.579 1.696,-0.49 2.267,0.197l11.356,13.642c0.573,0.687 0.486,1.712 -0.195,2.291c-0.301,0.257 -0.669,0.382 -1.035,0.382Z" style="fill:#5333ed;"/></g></svg>