<?xml version="1.0" encoding="UTF-8" standalone="no"?><!DOCTYPE svg PUBLIC "-//W3C//DTD SVG 1.1//EN" "http://www.w3.org/Graphics/SVG/1.1/DTD/svg11.dtd"><svg width="100%" height="100%" viewBox="0 0 128 128" version="1.1" xmlns="http://www.w3.org/2000/svg" xmlns:xlink="http://www.w3.org/1999/xlink" xml:space="preserve" xmlns:serif="http://www.serif.com/" style="fill-rule:evenodd;clip-rule:evenodd;stroke-miterlimit:10;"><g id="a2406af0-2e89-45b1-9cd1-6d68fffacc7b"><path d="M107.466,60.327c0,-23.66 -19.209,-42.868 -42.869,-42.868c-23.66,0 -42.868,19.208 -42.868,42.868c0,23.66 19.208,42.869 42.868,42.869c23.66,0 42.869,-19.209 42.869,-42.869Z" style="fill:none;stroke:#16d5da;stroke-width:4.01px;"/><path d="M42.122,60.373c-14.678,0 -20.394,-0.046 -20.394,-0.046" style="fill:none;stroke:#16d5da;stroke-width:4.01px;"/><path d="M85.734,78.389c0,-17.744 -15.347,-42.011 -32.214,-44.326" style="fill:none;stroke:#16d5da;stroke-width:4.01px;"/><path d="M52.64,85.141c15.132,0 29.739,-0.046 29.739,-0.046" style="fill:none;stroke:#16d5da;stroke-width:4.01px;"/><path d="M52.64,60.373c0,-2.903 -2.357,-5.259 -5.26,-5.259c-2.902,0 -5.259,2.356 -5.259,5.259c0,2.902 2.357,5.258 5.259,5.258c2.903,0 5.26,-2.356 5.26,-5.258Z" style="fill:none;stroke:#5536f1;stroke-width:4.01px;"/><path d="M90.992,83.647c0,-2.902 -2.357,-5.259 -5.259,-5.259c-2.902,0 -5.258,2.357 -5.258,5.259c0,2.902 2.356,5.259 5.258,5.259c2.902,0 5.259,-2.357 5.259,-5.259Z" style="fill:none;stroke:#5536f1;stroke-width:4.01px;"/><path d="M53.52,34.063c0,-2.903 -2.357,-5.259 -5.26,-5.259c-2.902,0 -5.259,2.356 -5.259,5.259c0,2.902 2.357,5.258 5.259,5.258c2.903,0 5.26,-2.356 5.26,-5.258Z" style="fill:none;stroke:#5536f1;stroke-width:4.01px;"/><path d="M53.263,58.857c16.018,-7.501 29.963,-17.321 34.303,-33.965" style="fill:none;stroke:#5536f1;stroke-width:4.01px;stroke-linecap:round;"/><path d="M48.261,39.322l0,15.792" style="fill:none;stroke:#5536f1;stroke-width:4.01px;"/><path d="M47.381,65.632l0,14.251" style="fill:none;stroke:#5536f1;stroke-width:4.01px;"/><path d="M52.64,85.141c0,-2.902 -2.357,-5.258 -5.26,-5.258c-2.902,0 -5.259,2.356 -5.259,5.258c0,2.902 2.357,5.259 5.259,5.259c2.903,0 5.26,-2.357 5.26,-5.259Z" style="fill:none;stroke:#5536f1;stroke-width:4.01px;"/><path d="M51.169,64.007l29.305,17.736" style="fill:none;stroke:#5536f1;stroke-width:4.01px;"/></g></svg>