<?xml version="1.0" encoding="UTF-8" standalone="no"?><!DOCTYPE svg PUBLIC "-//W3C//DTD SVG 1.1//EN" "http://www.w3.org/Graphics/SVG/1.1/DTD/svg11.dtd"><svg width="100%" height="100%" viewBox="0 0 158 52" version="1.1" xmlns="http://www.w3.org/2000/svg" xmlns:xlink="http://www.w3.org/1999/xlink" xml:space="preserve" xmlns:serif="http://www.serif.com/" style="fill-rule:evenodd;clip-rule:evenodd;stroke-linejoin:round;stroke-miterlimit:1.41421;"><g id="Group-3"><path id="Shape" d="M139.056,14.405c-0.491,0 -0.982,0 -1.403,0.071l-0.21,0c-0.491,0.07 -0.912,0.07 -1.403,0.14l-0.141,0c-0.982,0.141 -1.964,0.422 -2.947,0.773c-4.139,-9.135 -13.19,-15.038 -23.363,-15.038c-13.752,0 -25.048,10.963 -25.609,24.595c-0.14,0 -0.211,0 -0.351,0.07c-0.21,0 -0.421,0.07 -0.631,0.07c-0.211,0 -0.492,0.071 -0.702,0.071c-0.211,0.07 -0.421,0.07 -0.631,0.14c-0.211,0.071 -0.421,0.141 -0.632,0.141c-0.21,0.07 -0.421,0.14 -0.561,0.211c-0.211,0.07 -0.421,0.14 -0.632,0.21c-0.21,0.071 -0.35,0.141 -0.561,0.211c-0.21,0.071 -0.421,0.211 -0.631,0.281c-0.211,0.071 -0.351,0.211 -0.492,0.281c-0.21,0.141 -0.421,0.211 -0.561,0.352c-0.14,0.07 -0.351,0.211 -0.491,0.351c-0.21,0.141 -0.351,0.281 -0.561,0.422c-0.141,0.14 -0.281,0.211 -0.491,0.351c-0.141,0.141 -0.351,0.281 -0.492,0.492c-0.14,0.141 -0.28,0.281 -0.42,0.422c-0.141,0.14 -0.281,0.351 -0.492,0.492c-0.14,0.14 -0.28,0.281 -0.35,0.421c-0.141,0.211 -0.281,0.351 -0.421,0.562c-0.071,0.141 -0.211,0.281 -0.281,0.422c-0.14,0.211 -0.211,0.422 -0.351,0.632c-0.07,0.141 -0.21,0.352 -0.28,0.492c-0.141,0.211 -0.211,0.422 -0.281,0.633c-0.14,0.14 -0.211,0.351 -0.281,0.492c-0.07,0.21 -0.14,0.491 -0.28,0.702c-0.071,0.141 -0.141,0.352 -0.211,0.492c-0.07,0.281 -0.14,0.492 -0.21,0.773c-0.071,0.141 -0.071,0.351 -0.141,0.492c-0.07,0.281 -0.07,0.562 -0.14,0.843c0,0.141 -0.07,0.281 -0.07,0.422c-0.07,0.422 -0.07,0.913 -0.07,1.335c0,7.378 5.963,13.351 13.33,13.351l54.445,0c10.244,0 18.593,-8.362 18.593,-18.621c0,-10.26 -8.349,-18.552 -18.593,-18.552Zm0,35.136l-54.375,0c-6.174,0 -11.225,-5.06 -11.225,-11.244c0,-6.183 5.051,-11.243 11.225,-11.243l0.351,0c2.877,0.07 5.543,1.265 7.578,3.303c0.421,0.421 1.052,0.421 1.473,0c0.421,-0.422 0.421,-1.054 0,-1.476c-2.175,-2.178 -4.981,-3.513 -7.998,-3.865c0.561,-12.508 10.875,-22.557 23.504,-22.557c9.261,0 17.54,5.411 21.399,13.773c-1.824,0.914 -3.578,2.109 -5.052,3.584c-0.421,0.422 -0.421,1.054 0,1.476c0.421,0.422 1.053,0.422 1.474,0c1.543,-1.546 3.367,-2.741 5.332,-3.584l0.07,0c1.473,-0.632 3.087,-0.984 4.701,-1.194c0.561,-0.071 1.052,-0.071 1.614,-0.071c9.121,0 16.488,7.379 16.488,16.514c0,9.135 -7.438,16.584 -16.559,16.584Z" style="fill:#5536f1;"/><g id="Group"><path id="Shape1" serif:id="Shape" d="M21.102,26.388l37.882,0l0,-1.4l-37.882,0c-2.609,0 -4.732,-2.137 -4.732,-4.763c0,-2.627 2.123,-4.764 4.732,-4.764c2.609,0 4.732,2.137 4.732,4.764l1.391,0c0,-3.399 -2.747,-6.164 -6.123,-6.164c-3.376,0 -6.122,2.765 -6.122,6.164c0,3.398 2.746,6.163 6.122,6.163Z" style="fill:#5536f1;"/><path id="Shape2" serif:id="Shape" d="M6.187,31.851l37.882,0l0,-1.4l-37.882,0c-2.61,0 -4.732,-2.137 -4.732,-4.763c0,-2.627 2.123,-4.763 4.732,-4.763c2.609,0 4.731,2.136 4.731,4.763l1.391,0c0,-3.399 -2.746,-6.163 -6.122,-6.163c-3.376,0 -6.123,2.764 -6.123,6.163c0,3.399 2.747,6.163 6.123,6.163Z" style="fill:#5536f1;"/><path id="Shape3" serif:id="Shape" d="M13.262,48.939c3.375,0 6.122,-2.765 6.122,-6.164l-1.391,0c0,2.627 -2.122,4.764 -4.731,4.764c-2.61,0 -4.732,-2.137 -4.732,-4.764c0,-2.626 2.122,-4.763 4.732,-4.763l37.882,0l0,-1.4l-37.882,0c-3.376,0 -6.123,2.765 -6.123,6.163c0,3.399 2.747,6.164 6.123,6.164Z" style="fill:#2cd4d9;"/><rect id="Rectangle-path" x="45.459" y="30.452" width="7.325" height="1.4" style="fill:#5536f1;"/><rect id="Rectangle-path1" serif:id="Rectangle-path" x="52.784" y="36.612" width="1.576" height="1.4" style="fill:#2cd4d9;"/><rect id="Rectangle-path2" serif:id="Rectangle-path" x="55.797" y="36.612" width="7.139" height="1.4" style="fill:#2cd4d9;"/></g></g></svg>